<?xml version="1.0" encoding="UTF-8" standalone="no"?>
<!-- Created with Inkscape (http://www.inkscape.org/) -->

<svg
   version="1.1"
   id="svg1"
   width="1333.3333"
   height="1333.3333"
   viewBox="0 0 1333.3333 1333.3333"
   sodipodi:docname="Cul_DBR.svg"
   inkscape:version="1.4.2 (ebf0e940d0, 2025-05-08)"
   xmlns:inkscape="http://www.inkscape.org/namespaces/inkscape"
   xmlns:sodipodi="http://sodipodi.sourceforge.net/DTD/sodipodi-0.dtd"
   xmlns="http://www.w3.org/2000/svg"
   xmlns:svg="http://www.w3.org/2000/svg">
  <defs
     id="defs1" />
  <sodipodi:namedview
     id="namedview1"
     pagecolor="#505050"
     bordercolor="#eeeeee"
     borderopacity="1"
     inkscape:showpageshadow="0"
     inkscape:pageopacity="0"
     inkscape:pagecheckerboard="0"
     inkscape:deskcolor="#505050"
     showgrid="false"
     inkscape:zoom="0.59400004"
     inkscape:cx="666.66662"
     inkscape:cy="666.66662"
     inkscape:window-width="1920"
     inkscape:window-height="995"
     inkscape:window-x="0"
     inkscape:window-y="0"
     inkscape:window-maximized="1"
     inkscape:current-layer="g1" />
  <g
     inkscape:groupmode="layer"
     inkscape:label="Image"
     id="g1">
    <path
       style="fill:#ffff00;stroke:none"
       d="m 754.66662,1333.3333 c -10.08561,-14.3178 -24.9567,-26.2901 -37.33333,-38.6667 -20.677,-20.677 -40.64624,-41.9796 -61.33333,-62.6667 -7.34155,-7.3415 -34.01802,-26.5843 -32,-37.3333 -15.80314,-18.3084 -43.97123,-13.3336 -66.66666,-17.8662 -46.66373,-9.3197 -91.41137,-24.0171 -134.66666,-43.8787 -132.55692,-60.8661 -236.30121,-178.69373 -287.43311,-314.25508 -23.3183,-61.8217 -35.760503,-129.9239 -35,-195.99999 0.74131,-64.40771 13.42446,-129.11319 36.3323,-189.33332 17.33094,-45.55957 41.38289,-89.2373 70.97326,-128 143.89513,-188.49909 395.78159,-259.996236 617.79419,-178.59569 145.21581,53.24316 262.28582,166.79573 324.18522,307.92902 14.545,33.16317 25.7791,68.49292 32.8817,103.99999 2.4216,12.10629 5.9749,24.94873 6.4752,37.3138 0.1711,4.22827 -3.3353,7.97274 -2.039,12.07202 2.5605,8.09782 9.3914,13.68482 14.4969,19.94751 13.7684,3.14266 27.4814,24.81478 37.3333,34.66667 20.8868,20.8868 41.9001,41.65543 62.6615,62.66666 10.5404,10.66724 19.6534,23.29915 32.0052,32 -0.078,-22.07048 -33.3972,-43.71712 -47.9805,-58.66666 -17.7748,-18.22115 -35.3318,-36.64559 -53.3529,-54.66667 -8.8876,-8.88761 -21.7698,-18.21891 -27.8138,-29.33333 -6.217,-11.43278 -5.3125,-29.87085 -7.6203,-42.66666 -17.899,-99.24048 -62.4224,-192.6031 -127.7942,-269.33332 C 1015.3333,219.94335 948.29739,168.67162 873.33328,134.25512 644.26921,29.09033 365.38922,87.299067 206.6718,286.66665 c -34.657,43.53328 -62.47145,93.28092 -82.10493,145.33332 -29.74285,78.85449 -38.806469,161.82641 -32.685192,245.33332 4.960591,67.67285 24.168522,136.6027 54.455762,197.33332 32.36498,64.89681 75.42418,125.12296 129.66254,173.55449 65.42969,58.4247 142.11791,103.1169 226.66666,127.391 24.02811,6.8985 48.59716,12.3817 73.33332,16.0257 10.58741,1.5596 26.13652,0.3576 34.66667,7.3333 36.24922,29.6437 66.92073,67.9496 99.99999,101.0288 12.08098,12.081 25.7308,33.2688 44,33.3334 m 578.66668,-1.3334 c -0.066,-18.6235 -22.3411,-33.0077 -34.6667,-45.3333 L 1195.9999,1183.9999 C 1057.0774,1045.0774 920.20999,904.20999 781.33329,765.33329 739.46732,723.46724 696.47815,681.99251 656.1193,638.66663 c -9.25012,-9.9301 -18.41894,-19.80892 -28.11934,-29.32715 -2.21297,-2.17139 -8.42964,-9.63192 -12.19857,-6.55762 -3.88431,3.16846 3.62802,9.89462 5.55249,11.88477 10.04159,10.38419 20.43164,20.45223 30.64608,30.66666 43.5402,43.5402 86.83732,87.50309 129.38582,132 120.4536,125.96947 244.75612,248.80861 367.94752,372.00001 l 121.3333,121.3333 c 19.9616,19.9616 39.6039,45.0874 62.6667,61.3333 m -48,-622.66661 c -14.6141,6.2876 -31.354,8.31038 -46.6667,12.56584 -35.3115,9.81323 -71.0212,19.11482 -106.6667,27.58845 -16.41,3.90105 -46.0465,5.74463 -59.5957,15.76237 -4.4714,3.30599 -5.2461,11.07683 -6.6831,16.08334 -3.8033,13.2504 -7.1277,26.64941 -10.5607,39.99999 -9.1607,35.62516 -18.9555,71.09847 -28.3395,106.66666 -4.5027,17.06649 -11.1291,34.50016 -13.4876,52 11.4105,-10.86084 13.0252,-39.65397 17.3333,-54.66666 8.7561,-30.5127 16.0652,-61.4187 24.5658,-92 5.8155,-20.92106 14.8805,-43.69352 16.7675,-65.33333 54.4997,-8.01871 110.8801,-27.33862 164,-42.10082 12.8046,-3.55844 25.82,-6.34416 38.6667,-9.74488 3.9624,-1.04891 10.7932,-1.97037 10.6667,-6.82096 m -149.3334,392.00001 c 10.5839,-9.7457 12.2561,-34.3474 15.8457,-48 9.7091,-36.9265 20.3853,-73.62975 29.6564,-110.66669 3.1393,-12.5411 5.1225,-37.83048 13.9167,-47.42692 5.5082,-6.01074 20.8579,-7.58968 28.5812,-9.70377 25.209,-6.90023 50.6629,-13.15414 76,-19.56991 8.9687,-2.27099 27.8906,-3.49927 33.3334,-11.2994 -33.4707,4.50717 -67.2126,16.96778 -100,25.16455 -10.8817,2.72046 -31.176,3.85645 -39.5957,11.51962 -4.2316,3.85131 -5.0392,11.3741 -6.5052,16.64916 -3.8093,13.70744 -7.1913,27.55542 -10.7387,41.33334 -13.0577,50.71642 -28.7884,100.94152 -40.4938,152.00002 M 929.33328,939.99994 c -7.95874,15.10368 -11.68156,33.13656 -16.98869,49.33333 -10.7902,32.93053 -21.8291,65.78683 -32.78906,98.66663 -4.14689,12.4408 -8.42521,24.8462 -12.43009,37.3334 -1.64218,5.1201 -2.62142,12.8089 -7.49178,15.9825 -11.04419,7.1964 -32.12777,6.9172 -44.96704,9.6316 -37.22339,7.8697 -74.6932,14.659 -112,22.1194 -14.09562,2.8188 -41.90152,2.9918 -51.99999,13.5998 l 151.99999,-30.1008 41.33333,-7.784 19.31998,-5.5339 6.90227,-16.5813 13.33333,-40 48.44441,-146.66666 h -2.66666 m 106.66662,109.33336 c -9.1409,15.7778 -12.0265,38.3379 -16.4989,56 -8.686,34.3024 -17.7805,68.6485 -27.50106,102.6666 -3.79085,13.2665 -6.87581,26.7334 -10.66667,40 -1.32625,4.6415 -1.8667,11.5786 -5.90641,14.7542 -10.95084,8.608 -35.29288,10.3769 -48.76025,13.7438 -38.72526,9.6813 -77.46834,19.5438 -115.99999,29.967 -14.32699,3.8757 -40.37272,5.0528 -50.66667,16.2017 l 159.99999,-40.8354 41.33333,-10.6666 17.69646,-6.4044 11.48258,-38.0936 23.99999,-90.6667 16.1543,-60 z"
       id="path1" />
  </g>
</svg>
