<?xml version="1.0" encoding="UTF-8" standalone="no"?>
<!-- Created with Inkscape (http://www.inkscape.org/) -->

<svg
   version="1.1"
   id="svg1"
   width="1333.3333"
   height="1333.3333"
   viewBox="0 0 1333.3333 1333.3333"
   sodipodi:docname="Cul_Left.svg"
   inkscape:version="1.4.2 (ebf0e940d0, 2025-05-08)"
   xmlns:inkscape="http://www.inkscape.org/namespaces/inkscape"
   xmlns:sodipodi="http://sodipodi.sourceforge.net/DTD/sodipodi-0.dtd"
   xmlns="http://www.w3.org/2000/svg"
   xmlns:svg="http://www.w3.org/2000/svg">
  <defs
     id="defs1" />
  <sodipodi:namedview
     id="namedview1"
     pagecolor="#505050"
     bordercolor="#eeeeee"
     borderopacity="1"
     inkscape:showpageshadow="0"
     inkscape:pageopacity="0"
     inkscape:pagecheckerboard="0"
     inkscape:deskcolor="#505050"
     showgrid="false"
     inkscape:zoom="0.59400004"
     inkscape:cx="666.66662"
     inkscape:cy="666.66662"
     inkscape:window-width="1920"
     inkscape:window-height="995"
     inkscape:window-x="0"
     inkscape:window-y="0"
     inkscape:window-maximized="1"
     inkscape:current-layer="g1" />
  <g
     inkscape:groupmode="layer"
     inkscape:label="Image"
     id="g1">
    <path
       style="fill:#ffff00;stroke:none"
       d="m 1333.3333,1090.6666 v -6.6667 l -216,-1.3333 h -64 l -33.3334,1.3333 c -2.5008,-11.7296 -19.993,-0.7291 -26.66663,0 -2.1827,13.8529 -26.40372,25.5891 -37.33333,32.8889 -39.74487,26.5452 -82.56087,49.2835 -127.99999,64.4445 -190.7034,63.6291 -402.19036,26.948 -554.66663,-107.0474 C 224.152,1031.0657 183.53734,978.88519 152.41151,921.33328 55.239468,741.66141 76.573339,514.96644 199.84567,353.33331 260.47122,273.84186 343.10179,211.74022 435.99997,174.9383 c 131.51245,-52.09911 281.92105,-52.23974 413.33331,0.32707 29.99227,11.99731 59.2028,26.44881 86.66666,43.48665 14.76823,9.16178 28.50887,21.53304 44,29.24796 -0.72266,8.34538 10.15796,10.71745 17.33333,10.93417 21.06823,0.63623 43.72413,-2.93417 65.33333,-2.93417 h 270.6667 v -6.66666 h -228 -70.6667 c -10.3279,0 -23.3295,2.11108 -33.3333,-0.57715 -16.91458,-4.54525 -35.72,-24.87288 -50.66669,-34.5 -32.23088,-20.75968 -66.93066,-37.99943 -102.66666,-51.84155 -152.01301,-58.88134 -330.91588,-49.08081 -474.66664,28.66357 -67.01967,36.2461 -125.81837,84.39071 -173.85184,143.58846 -36.88024,45.45222 -65.66368,97.2338 -86.08127,151.99999 -73.500961,197.15208 -21.630573,420.45765 124.15946,570.54736 73.75575,75.9309 171.89295,127.9686 274.44031,152.2736 127.87279,30.3074 261.27578,12.6154 379.99998,-41.8992 28.42106,-13.0501 55.91731,-29.9952 81.33332,-48.1585 11.25969,-8.0465 25.37362,-24.5703 38.66663,-28.1851 9.9769,-2.713 23.0255,-0.5782 33.3334,-0.5782 h 68 220 m -194.6667,-821.33328 -78.9342,135.99999 -21.8663,37.33333 -9.3898,18.66667 7.1491,15.99999 21.9743,37.33334 81.0669,137.33332 h 1.3333 c -1.9889,-15.19385 -15.8348,-30.906 -23.4341,-44 -19.1361,-32.972 -38.2853,-65.97639 -57.8992,-98.66666 -7.0046,-11.67464 -25.652,-32.97159 -25.9814,-46.66666 -0.2937,-12.20589 16.6356,-32.288 22.7859,-42.66667 20.1612,-34.02221 39.9837,-68.31029 59.57,-102.66666 5.9186,-10.38183 27.6891,-36.24877 23.6255,-47.99999 m 172,4 c -19.8083,45.96777 -51.2663,90.23738 -76.8045,133.33332 -7.352,12.4065 -14.4431,24.96663 -21.8622,37.33333 -3.3053,5.50961 -8.5541,12.00887 -8.9095,18.66667 -0.3352,6.28035 4.5138,12.22925 7.5762,17.33333 6.9101,11.51701 13.6791,23.11401 20.5288,34.66667 26.5756,44.82226 52.2651,90.22289 79.4712,134.66665 h 1.3333 c -2.0116,-15.36735 -16.373,-32.15055 -24.2664,-45.33333 -18.5435,-30.96956 -36.5187,-62.28263 -54.9291,-93.33332 -6.5633,-11.06967 -12.9682,-22.23649 -19.4855,-33.33334 -2.4684,-4.20271 -7.0475,-9.49015 -6.5289,-14.66666 1.3046,-13.02149 16.2691,-30.05534 22.7428,-41.33333 18.9191,-32.95955 37.9022,-65.89713 57.1482,-98.66666 6.5119,-11.08749 12.9794,-22.20427 19.4198,-33.33333 2.8851,-4.98552 6.744,-10.23177 4.5658,-16 m 22.6667,401.33331 v -6.66667 H 766.66662 634.66663 l -31.99898,0.001 -8.87346,2.89196 8.87244,3.7675 32,0.006 h 131.99999 566.66668 m -280,7.99999 c 1.756,17.14348 15.7481,36.94369 23.893,52 16.3744,30.26921 31.7053,61.22469 47.1028,92 5.7267,11.44596 23.7348,33.68619 22.214,46.66666 -1.5275,13.03833 -18.4455,30.52018 -25.6543,41.33333 -21.5349,32.30249 -42.7916,64.82479 -64.0144,97.33329 -8.0797,12.3763 -23.2475,27.6869 -24.8745,42.6667 h 1.3334 c 24.3457,-43.729 55.3442,-85.01635 83.111,-126.66666 9.6918,-14.53759 31.0185,-36.10432 34.1338,-53.33333 2.3553,-13.02587 -17.0964,-37.7115 -22.9074,-49.33333 -14.9803,-29.96077 -31.0304,-59.3776 -46.0082,-89.33332 -8.548,-17.09587 -16.1379,-38.61971 -28.3292,-53.33334 m 152,1.33334 c 1.6734,16.25008 16.7784,34.15755 25.0669,48 19.8496,33.15087 39.4965,66.49039 58.7335,99.99999 5.9087,10.29248 12.1411,20.40153 18.0987,30.66666 2.2763,3.92204 7.1122,9.33822 6.9702,14.10083 -0.3723,12.47868 -17.7292,32.36662 -23.9105,43.2325 -19.8016,34.80876 -40.089,69.36296 -60.1913,103.99996 -8.0191,13.8171 -23.6923,31.8197 -24.7675,48 h 1.3333 c 22.8055,-48.7897 55.0334,-94.51689 81.7078,-141.33329 8.1441,-14.29362 28.49,-36.77409 29.4867,-53.33333 0.3377,-5.61133 -4.3357,-11.36719 -6.995,-16 -6.9319,-12.07641 -14.1132,-24.05346 -21.2664,-36 -18.2927,-30.55078 -36.4931,-61.2023 -54.3673,-91.99999 -9.3177,-16.05469 -17.7193,-35.31746 -29.8991,-49.33333 z"
       id="path1" />
  </g>
</svg>
