<?xml version="1.0" encoding="UTF-8" standalone="no"?>
<!-- Created with Inkscape (http://www.inkscape.org/) -->

<svg
   version="1.1"
   id="svg1"
   width="1333.3333"
   height="1333.3333"
   viewBox="0 0 1333.3333 1333.3333"
   sodipodi:docname="Cul_DTL.svg"
   inkscape:version="1.4.2 (ebf0e940d0, 2025-05-08)"
   xmlns:inkscape="http://www.inkscape.org/namespaces/inkscape"
   xmlns:sodipodi="http://sodipodi.sourceforge.net/DTD/sodipodi-0.dtd"
   xmlns="http://www.w3.org/2000/svg"
   xmlns:svg="http://www.w3.org/2000/svg">
  <defs
     id="defs1" />
  <sodipodi:namedview
     id="namedview1"
     pagecolor="#505050"
     bordercolor="#eeeeee"
     borderopacity="1"
     inkscape:showpageshadow="0"
     inkscape:pageopacity="0"
     inkscape:pagecheckerboard="0"
     inkscape:deskcolor="#505050"
     showgrid="false"
     inkscape:zoom="0.59400004"
     inkscape:cx="666.66662"
     inkscape:cy="666.66662"
     inkscape:window-width="1920"
     inkscape:window-height="995"
     inkscape:window-x="0"
     inkscape:window-y="0"
     inkscape:window-maximized="1"
     inkscape:current-layer="g1" />
  <g
     inkscape:groupmode="layer"
     inkscape:label="Image"
     id="g1">
    <path
       style="fill:#ffff00;stroke:none"
       d="m 578.66663,0 c 10.08569,14.317707 24.95666,26.289956 37.33333,38.666664 20.67704,20.677001 40.64624,41.979571 61.33333,62.666666 7.34147,7.34147 34.01807,26.58447 32,37.33333 15.80322,18.30851 43.97119,13.33333 66.66666,17.86621 46.66374,9.31998 91.41129,24.01701 134.66666,43.87866 132.55679,60.86645 236.30089,178.69318 287.43309,314.25511 23.3184,61.82169 35.7606,129.9239 35,195.99998 -0.7414,64.40771 -13.4245,129.1132 -36.3323,189.33333 -17.3309,45.55964 -41.3829,89.23729 -70.9733,127.99995 -143.89572,188.5003 -395.78129,259.9947 -617.79413,178.5957 -145.21663,-53.2423 -262.2853,-166.7968 -324.18516,-307.92899 -14.54519,-33.16316 -25.77893,-68.493 -32.88169,-103.99999 -2.42174,-12.10637 -5.97486,-24.94873 -6.4753,-37.3138 -0.17113,-4.22819 3.33528,-7.97282 2.03908,-12.07202 -2.56059,-8.09774 -9.39141,-13.68482 -14.49691,-19.94751 C 118.23156,722.19055 104.51854,700.51851 94.666661,690.66662 73.779862,669.77983 52.766517,649.01127 32.005143,627.99996 21.46483,617.33273 12.351663,604.70065 0,595.99996 c 0.07795418,22.07056 33.397131,43.71712 47.980451,58.66667 17.774819,18.22123 35.331846,36.64567 53.352879,54.66666 8.88758,8.88753 21.76988,18.21891 27.81379,29.33333 6.21706,11.43286 5.31246,29.87077 7.62037,42.66667 17.89923,99.24022 62.42177,192.6035 127.79422,269.33331 53.43892,62.7231 120.47367,113.9949 195.43826,148.4115 229.06379,105.1644 507.94536,46.9563 666.66153,-152.4115 34.6569,-43.5335 62.4713,-93.28075 82.1049,-145.33332 29.7429,-78.85449 38.8065,-161.82665 32.6852,-245.33332 C 1236.491,588.32703 1217.283,519.39735 1186.9958,458.66664 1154.6309,393.76983 1111.5715,333.5436 1057.3333,285.11212 991.90375,226.68749 915.21528,181.99502 830.66662,157.72118 806.63846,150.82274 782.06945,145.33935 757.33329,141.69547 746.74589,140.13582 731.19681,141.3378 722.66662,134.36213 686.41736,104.71882 655.74581,66.412512 622.66663,33.333331 610.58553,21.252196 596.93596,0.06461588 578.66663,0 M 0,1.3333333 C 0.06577894,19.956786 22.341221,34.341225 34.666665,46.666664 L 137.33332,149.33332 c 138.92258,138.9226 275.78986,279.78986 414.66665,418.66665 41.86596,41.86596 84.85513,83.34077 125.21398,126.66665 9.25004,9.9301 18.41898,19.80892 28.11934,29.32715 2.21297,2.17147 8.42952,9.632 12.19857,6.55762 3.88444,-3.16846 -3.62801,-9.8947 -5.55249,-11.88477 C 701.93778,708.28243 691.54773,698.21431 681.33329,687.99996 637.79309,644.45976 594.49581,600.49695 551.94748,555.99997 431.49403,430.02992 307.19159,307.19155 183.99999,183.99999 L 62.666663,62.666663 C 42.705055,42.705076 23.062837,17.5791 0,1.3333333 M 295.99998,283.99998 c 10.41028,-9.90136 13.03337,-36.81193 16.49795,-50.66666 9.59904,-38.38615 20.81064,-76.3531 30.66253,-114.66666 3.14815,-12.24308 5.08224,-38.018797 13.80969,-47.24894 8.6145,-9.110758 36.31596,-11.241291 48.36316,-14.253091 40.07743,-10.019368 79.99182,-20.704019 119.99999,-30.991779 13.6766,-3.516846 38.20015,-4.892578 48,-15.506184 l -154.66666,39.502032 -44,11.333333 -19.42696,6.134846 -5.93929,15.029785 -11.47324,42.666668 -30.32615,114.66666 -11.50102,43.99999 m 385.33331,-137.33332 -67.99999,13.68107 -82.66667,16.41976 -42.66666,8.0144 -17.98665,5.30355 -6.90222,16.58121 -13.33334,40 -48.44445,146.66666 c 11.43249,-5.7627 15.76652,-37.45516 19.62964,-49.33333 11.87504,-36.51294 24.2242,-72.89485 36.37036,-109.33333 3.61307,-10.83919 6.66141,-34.36938 15.21602,-42.03084 8.64302,-7.74064 33.47497,-7.66968 44.78397,-9.96915 38.17448,-7.76197 76.46785,-15.03264 114.66666,-22.66667 12.44287,-2.48673 24.94946,-4.72249 37.33333,-7.4506 4.16439,-0.9174 11.179,-1.08399 12,-5.88273 m -485.3333,85.33333 c -8.65875,13.9462 -10.60435,33.57071 -14.86831,49.33333 -9.37254,34.64762 -18.82596,69.28759 -27.95267,103.99999 -3.66475,13.93848 -5.46542,42.06754 -15.26441,52.76025 -5.5085,6.01091 -20.85785,7.58952 -28.58127,9.70369 -25.208762,6.90048 -50.662954,13.1543 -75.999999,19.56999 -8.968612,2.271 -27.8906726,3.49927 -33.333331,11.2994 33.470587,-4.507 67.21251,-16.96777 99.999994,-25.16463 10.881846,-2.72046 31.175766,-3.85629 39.595676,-11.51953 9.72916,-8.85482 12.08646,-37.38574 15.23971,-49.9825 9.25403,-36.96859 19.14416,-73.99853 29.55145,-110.66666 3.663,-12.90593 14.34977,-36.34782 11.61316,-49.33333 m 122.66666,121.33332 c -12.6022,21.83073 -16.09501,54.25903 -22.51235,78.66666 -8.3033,31.58081 -17.39014,62.99227 -25.31893,94.66666 -3.16782,12.65503 -8.36739,25.65422 -9.50205,38.66667 -18.81865,2.7688 -37.53573,9.55265 -56,14.1687 -35.57319,8.89331 -71.39311,17.54012 -106.666659,27.55143 -12.73116,3.61336 -44.893527,5.28874 -51.999997,16.94653 l 154.666656,-40.15429 42.66667,-10.68107 17.91562,-5.91675 10.65021,-33.91455 24.38065,-91.99999 16.88068,-62.66667 z"
       id="path1" />
  </g>
</svg>
