<?xml version="1.0" encoding="UTF-8" standalone="no"?>
<!-- Created with Inkscape (http://www.inkscape.org/) -->

<svg
   version="1.1"
   id="svg1"
   width="1333.3333"
   height="1333.3333"
   viewBox="0 0 1333.3333 1333.3333"
   sodipodi:docname="Cul_Down.svg"
   inkscape:version="1.4.2 (ebf0e940d0, 2025-05-08)"
   xmlns:inkscape="http://www.inkscape.org/namespaces/inkscape"
   xmlns:sodipodi="http://sodipodi.sourceforge.net/DTD/sodipodi-0.dtd"
   xmlns="http://www.w3.org/2000/svg"
   xmlns:svg="http://www.w3.org/2000/svg">
  <defs
     id="defs1" />
  <sodipodi:namedview
     id="namedview1"
     pagecolor="#505050"
     bordercolor="#eeeeee"
     borderopacity="1"
     inkscape:showpageshadow="0"
     inkscape:pageopacity="0"
     inkscape:pagecheckerboard="0"
     inkscape:deskcolor="#505050"
     showgrid="false"
     inkscape:zoom="0.59400004"
     inkscape:cx="666.66662"
     inkscape:cy="666.66662"
     inkscape:window-width="1920"
     inkscape:window-height="995"
     inkscape:window-x="0"
     inkscape:window-y="0"
     inkscape:window-maximized="1"
     inkscape:current-layer="g1" />
  <g
     inkscape:groupmode="layer"
     inkscape:label="Image"
     id="g1">
    <path
       style="fill:#ffff00;stroke:none"
       d="m 249.33332,0 v 227.99999 70.66666 c 0,10.32788 2.11098,23.32951 -0.57715,33.33333 -4.54506,16.91431 -24.87296,35.72005 -34.50002,50.66666 -20.75976,32.2308 -37.99941,66.93083 -51.84155,102.66666 -58.88159,152.01277 -49.08057,330.91698 28.66357,474.66664 36.24624,67.01966 84.39064,125.81836 143.58848,173.85186 44.74759,36.3084 95.56212,64.6232 149.33332,85.071 197.57234,75.1314 422.53912,23.2098 573.21403,-123.1492 75.9305,-73.7556 127.9694,-171.89312 152.2736,-274.44032 30.3065,-127.87336 12.616,-261.27505 -41.8992,-379.99997 -13.0502,-28.42106 -29.9952,-55.91724 -48.1585,-81.33333 -8.0466,-11.25977 -24.5702,-25.37354 -28.1851,-38.66667 -2.713,-9.97672 -0.5782,-23.02555 -0.5782,-33.33333 V 219.99999 0 h -6.6667 l -1.3333,215.99999 v 63.99999 l 1.3333,33.33333 c -11.7296,2.50082 -0.7291,19.993 0,26.66667 13.8528,2.18262 25.5892,26.40372 32.8889,37.33333 26.545,39.74479 49.2837,82.56087 64.4445,127.99999 63.628,190.70385 26.9489,402.18927 -107.0474,554.6666 -43.2203,49.1813 -95.40071,89.796 -152.95262,120.9218 -179.67187,97.1721 -406.36676,75.8382 -567.99997,-47.4341 -79.49141,-60.6255 -141.59303,-143.25597 -178.39505,-236.15432 -52.09917,-131.51253 -52.2395,-281.92096 0.32715,-413.33331 11.99733,-29.99235 26.44879,-59.20263 43.48663,-86.66666 9.16172,-14.76815 21.53316,-28.50903 29.24794,-44 8.34534,0.72266 10.71745,-10.15804 10.93417,-17.33333 0.63633,-21.06828 -2.93417,-43.72412 -2.93417,-65.33333 V 0 h -6.66666 m 418.66664,0 v 566.66663 131.99999 l 0.001,31.99903 2.89196,8.87337 3.7675,-8.8724 0.006,-32 V 566.66663 0 h -6.66667 m 16,126.66666 v 1.33333 c 16.25016,-1.6735 34.15747,-16.77848 48,-25.06689 33.15087,-19.849609 66.49039,-39.496499 99.99999,-58.733558 10.2924,-5.90861 20.40153,-12.141113 30.66666,-18.098714 3.9222,-2.276367 9.33798,-7.112222 14.10083,-6.970133 12.47868,0.372233 32.36654,17.729166 43.2325,23.910481 34.80884,19.801594 69.36296,40.088946 103.99996,60.191324 13.8171,8.01904 31.8197,23.6923 48,24.76749 L 1025.3333,99.98559 927.99994,43.434161 893.33328,22.934162 875.99995,15.475259 857.33328,24.804523 819.99995,46.933103 683.99996,126.66666 M 273.33332,21.333332 v 1.333333 c 45.96771,19.808023 90.23742,51.266273 133.33332,76.80452 12.40645,7.351965 24.96668,14.443115 37.33333,21.862145 5.50956,3.30533 12.00895,8.55411 18.66667,8.9095 6.28031,0.33521 12.22921,-4.51375 17.33333,-7.57617 11.51705,-6.91016 23.11393,-13.67904 34.66667,-20.52881 44.8223,-26.575599 90.22273,-52.265294 134.66665,-79.471185 -5.78336,-1.881184 -11.13155,2.686605 -16,5.599772 L 601.3333,47.195472 c -32.79346,19.443603 -65.60421,38.957924 -98.66666,57.938308 -10.27071,5.89616 -26.74475,20.77336 -38.66667,21.44336 C 451.22125,127.29532 429.6522,108.5415 418.66664,102.29215 385.63678,83.502518 352.64858,64.50968 319.99998,45.065834 306.70931,37.150551 288.99311,22.373941 273.33332,21.333332 m 409.3333,257.333318 v 1.33333 c 17.14348,-1.75602 36.94377,-15.74812 52,-23.89298 30.26912,-16.37435 61.22469,-31.70532 92,-47.10286 11.44596,-5.72665 33.68611,-23.73478 46.66666,-22.21403 13.03833,1.52751 30.52018,18.44555 41.33333,25.65429 32.30249,21.535 64.82479,42.79159 97.33329,64.0144 12.3764,8.07976 27.6869,23.24748 42.6667,24.87451 -12.385,-11.86108 -29.721,-20.25838 -44,-29.77774 -30.15714,-20.10474 -60.51358,-39.89795 -90.66666,-60 l -31.99999,-21.33333 c -4.54981,-3.03141 -10.14779,-8.11825 -16,-7.58545 -16.63265,1.5144 -38.35702,18.87915 -53.33333,26.36735 -45.22461,22.6123 -89.33699,50.23461 -136,69.66251 m -413.3333,-85.33333 v 1.33333 l 135.99999,78.93416 37.33333,21.86629 18.66667,9.3899 15.99999,-7.14917 37.33334,-21.97429 137.33332,-81.06689 c -11.50513,-3.74243 -36.53198,17.84774 -46.66666,23.62549 -34.01701,19.3929 -67.75631,39.4283 -101.33333,59.57405 -10.43412,6.26034 -29.06592,22.48682 -41.33333,22.7819 -5.06405,0.12183 -10.45243,-4.36271 -14.66667,-6.74894 -11.16361,-6.32121 -22.26896,-12.71981 -33.33333,-19.2181 -33.21224,-19.5061 -66.68701,-38.57958 -99.99999,-57.91357 -13.29397,-7.71549 -29.86111,-21.84082 -45.33333,-23.43416 z"
       id="path1" />
  </g>
</svg>
