<?xml version="1.0" encoding="UTF-8" standalone="no"?>
<!-- Created with Inkscape (http://www.inkscape.org/) -->

<svg
   version="1.1"
   id="svg1"
   width="1333.3333"
   height="1333.3333"
   viewBox="0 0 1333.3333 1333.3333"
   sodipodi:docname="Cul_Right.svg"
   inkscape:version="1.4.2 (ebf0e940d0, 2025-05-08)"
   xmlns:inkscape="http://www.inkscape.org/namespaces/inkscape"
   xmlns:sodipodi="http://sodipodi.sourceforge.net/DTD/sodipodi-0.dtd"
   xmlns="http://www.w3.org/2000/svg"
   xmlns:svg="http://www.w3.org/2000/svg">
  <defs
     id="defs1" />
  <sodipodi:namedview
     id="namedview1"
     pagecolor="#505050"
     bordercolor="#eeeeee"
     borderopacity="1"
     inkscape:showpageshadow="0"
     inkscape:pageopacity="0"
     inkscape:pagecheckerboard="0"
     inkscape:deskcolor="#505050"
     showgrid="false"
     inkscape:zoom="0.59400004"
     inkscape:cx="666.66662"
     inkscape:cy="666.66662"
     inkscape:window-width="1920"
     inkscape:window-height="995"
     inkscape:window-x="0"
     inkscape:window-y="0"
     inkscape:window-maximized="1"
     inkscape:current-layer="g1" />
  <g
     inkscape:groupmode="layer"
     inkscape:label="Image"
     id="g1">
    <path
       style="fill:#ffff00;stroke:none"
       d="m 0,249.33332 v 6.66666 h 270.66665 c 21.60927,0 44.26503,3.5704 65.33333,2.93417 7.17533,-0.21672 18.05591,-2.58887 17.33333,-10.93417 15.49113,-7.71484 29.23177,-20.08618 44,-29.24796 27.46399,-17.03784 56.67431,-31.48925 86.66666,-43.48665 131.41239,-52.56681 281.82087,-52.42618 413.33331,-0.32707 92.89843,36.80208 175.52862,98.90364 236.15432,178.39501 123.2727,161.63321 144.6058,388.32761 47.4341,567.99997 -31.1256,57.55191 -71.7405,109.73242 -120.9218,152.95262 -152.47652,133.9956 -363.96357,170.6764 -554.6666,107.0474 -45.43908,-15.161 -88.25516,-37.8994 -127.99999,-64.4445 -10.92965,-7.2998 -35.15071,-19.036 -37.33333,-32.8889 -6.67367,-0.7291 -24.16587,-11.7296 -26.66667,0 l -33.33333,-1.3333 H 215.99999 L 0,1083.9999 v 6.6667 h 219.99999 67.99999 c 10.30784,0 23.35651,-2.1348 33.33333,0.5782 13.29313,3.6148 27.4069,20.1386 38.66667,28.1851 25.41605,18.1633 52.91227,35.1084 81.33333,48.1585 118.7244,54.5146 252.12685,72.2067 379.99997,41.8992 C 923.8804,1185.1827 1022.0182,1133.145 1095.7736,1057.214 1242.1318,906.5386 1294.0547,681.57292 1218.9228,483.99997 1198.475,430.2289 1170.1602,379.4142 1133.8518,334.66665 1085.8183,275.46881 1027.0195,227.3242 959.99994,191.07819 816.24938,113.3339 637.34664,103.53312 485.3333,162.41462 c -35.736,13.84212 -70.43578,31.08187 -102.66666,51.84155 -14.94677,9.62712 -33.75215,29.95475 -50.66666,34.5 -10.00378,2.68823 -23.00551,0.57715 -33.33333,0.57715 H 227.99999 0 m 193.33332,20 c 1.59332,15.47216 15.71871,32.03938 23.43416,45.33333 19.33399,33.3129 38.40741,66.78784 57.91357,99.99999 6.49834,11.06437 12.89692,22.16968 19.2181,33.33333 2.38621,4.2142 6.87075,9.60254 6.74898,14.66667 -0.32932,13.6949 -18.97688,34.9921 -25.98148,46.66666 -19.61375,32.69027 -38.763,65.69466 -57.89917,98.66666 -7.59946,13.09408 -21.44519,28.80599 -23.43416,44 h 1.33333 l 78.68107,-133.33332 22.85185,-38.66667 8.62345,-17.33333 -6.95679,-16 -19.57407,-33.33333 -55.06378,-94.66666 -29.89506,-49.33333 m -171.999988,4 c 1.040545,15.65983 15.817204,33.37589 23.732507,46.66666 19.443831,32.64852 38.436806,65.6368 57.226341,98.66666 6.2493,10.9856 25.00313,32.55452 24.28497,45.33333 -0.728,12.95378 -17.27828,31.46143 -23.7109,42.66667 -18.470905,32.17512 -37.454521,64.14102 -56.467078,95.99999 -8.093208,13.5616 -22.998485,30.8741 -25.06584,46.66666 h 1.333333 c 26.655211,-43.54378 52.27196,-87.84374 77.899165,-131.99999 8.19812,-14.12557 28.7283,-36.94002 29.67593,-53.33333 0.86872,-15.02807 -20.09952,-39.24723 -27.5895,-52 C 84.945353,381.85138 67.449739,351.5733 49.899172,321.33331 40.840248,305.72459 32.910902,287.16225 21.333332,273.33332 M 0,667.99996 v 6.66667 h 566.66663 131.99999 l 32,-0.006 8.8724,-3.7675 -8.87346,-2.89196 -31.99894,-0.001 H 566.66663 0 m 278.66665,14.66666 c -19.80404,47.56738 -47.94413,92.56315 -70.99589,138.66666 -6.61499,13.22998 -25.73309,37.18775 -25.07303,52 0.27569,6.18701 6.12009,12.41007 9.40226,17.33333 l 23.1111,34.66667 c 28.35394,42.53092 60.02879,84.67972 84.88889,129.33332 h 1.33333 c -1.62695,-14.9798 -16.79471,-30.2904 -24.87448,-42.6667 -20.63861,-31.6134 -41.29466,-63.2537 -62.23661,-94.66662 -7.07677,-10.61516 -14.12826,-21.22673 -20.95988,-32 -2.47014,-3.89535 -6.69892,-8.43335 -6.52059,-13.33333 0.45591,-12.52759 13.94429,-29.01009 19.58128,-40 16.85815,-32.8667 32.9849,-66.14811 50.5113,-98.66666 6.13801,-11.38851 11.7213,-23.09408 17.5031,-34.66667 2.51153,-5.02693 6.27408,-10.37858 4.32922,-16 m -151.99999,1.33334 -79.733537,135.99999 -22.128597,37.33333 -9.329218,18.66667 7.458846,17.33333 21.265433,36 82.467073,142.66662 h 1.33333 c -1.07509,-16.1801 -16.74847,-34.183 -24.76749,-48 -20.10247,-34.637 -40.389781,-69.19104 -60.19135,-103.99996 -6.246831,-10.9812 -23.533359,-30.79125 -23.910493,-43.43416 -0.335371,-11.24292 17.0238,-30.93937 22.73148,-40.56583 20.237937,-34.13297 39.863668,-68.63444 60.271603,-102.66666 6.62093,-11.04102 13.21223,-22.14111 19.57407,-33.33333 2.83857,-4.99382 6.97145,-10.18018 4.95885,-16 z"
       id="path1" />
  </g>
</svg>
