<?xml version="1.0" encoding="UTF-8" standalone="no"?>
<!-- Created with Inkscape (http://www.inkscape.org/) -->

<svg
   version="1.1"
   id="svg1"
   width="1333.3333"
   height="1333.3333"
   viewBox="0 0 1333.3333 1333.3333"
   sodipodi:docname="Cul_UP.svg"
   inkscape:version="1.4.2 (ebf0e940d0, 2025-05-08)"
   xmlns:inkscape="http://www.inkscape.org/namespaces/inkscape"
   xmlns:sodipodi="http://sodipodi.sourceforge.net/DTD/sodipodi-0.dtd"
   xmlns="http://www.w3.org/2000/svg"
   xmlns:svg="http://www.w3.org/2000/svg">
  <defs
     id="defs1" />
  <sodipodi:namedview
     id="namedview1"
     pagecolor="#505050"
     bordercolor="#eeeeee"
     borderopacity="1"
     inkscape:showpageshadow="0"
     inkscape:pageopacity="0"
     inkscape:pagecheckerboard="0"
     inkscape:deskcolor="#505050"
     showgrid="false"
     inkscape:zoom="0.59400004"
     inkscape:cx="666.66662"
     inkscape:cy="666.66662"
     inkscape:window-width="1920"
     inkscape:window-height="995"
     inkscape:window-x="0"
     inkscape:window-y="0"
     inkscape:window-maximized="1"
     inkscape:current-layer="g1" />
  <g
     inkscape:groupmode="layer"
     inkscape:label="Image"
     id="g1">
    <path
       style="fill:#ffff00;stroke:none"
       d="m 249.33332,1333.3333 h 6.66666 v -270.6667 c 0,-21.6092 3.5705,-44.2651 2.93417,-65.33333 -0.21672,-7.17545 -2.58883,-18.0559 -10.93417,-17.33333 -7.71474,-15.49105 -20.08622,-29.23185 -29.24794,-44 -17.0378,-27.46386 -31.48932,-56.67431 -43.48663,-86.66666 C 122.69869,717.92077 122.83919,567.51225 174.93826,435.99997 211.74034,343.10154 273.84198,260.47134 353.33331,199.84569 514.96652,76.572912 741.66092,55.239824 921.33328,152.41153 c 57.552,31.12573 109.73232,71.74039 152.95262,120.92179 133.996,152.47712 170.6755,363.96254 107.0474,554.66663 -15.1607,45.43904 -37.8995,88.2552 -64.4445,127.99999 -7.2997,10.92961 -19.0361,35.15072 -32.8889,37.33333 -0.7291,6.67363 -11.7295,24.16583 0,26.66663 l -1.3333,33.3334 v 64 l 1.3333,216 h 6.6667 v -220 -68 c 0,-10.3078 -2.1348,-23.3566 0.5782,-33.3334 3.6149,-13.29309 20.1385,-27.40686 28.1851,-38.66663 18.1633,-25.41617 35.1083,-52.91218 48.1585,-81.33332 54.5151,-118.72477 72.2057,-252.1267 41.8992,-379.99998 C 1185.1834,409.45302 1133.1445,311.31476 1057.214,237.55964 906.53876,91.201166 681.57279,39.278562 483.99997,114.41047 430.22877,134.85831 379.41424,163.17292 334.66665,199.48143 275.46877,247.51496 227.32439,306.3137 191.07817,373.33331 113.33384,517.08338 103.53305,695.98726 162.4146,847.99995 c 13.84218,35.73592 31.08177,70.43587 51.84155,102.66666 9.6271,14.94661 29.95494,33.75228 34.50002,50.66669 2.68813,10.0038 0.57715,23.0054 0.57715,33.3333 v 70.6667 228 m 418.66664,0 h 6.66667 V 766.66662 634.66663 l -0.006,-32 -3.7675,-8.8724 -2.89196,8.87346 -0.001,31.99894 V 766.66662 1333.3333 M 269.33332,1138.6666 v 1.3333 c 15.47216,-1.5932 32.03944,-15.7187 45.33333,-23.4341 33.3129,-19.334 66.78784,-38.4074 99.99999,-57.9136 11.06437,-6.4983 22.16972,-12.8969 33.33333,-19.2181 4.21432,-2.3862 9.60254,-6.8708 14.66667,-6.7489 13.69507,0.3292 34.99206,18.9768 46.66666,25.9814 32.69027,19.6138 65.69466,38.763 98.66666,57.8992 13.094,7.5994 28.80603,21.4452 44,23.4341 -12.53756,-12.9305 -33.72599,-21.5073 -49.33333,-30.4671 -31.31999,-17.98 -62.34891,-36.5803 -93.33333,-55.1326 -11.04333,-6.6124 -22.16849,-13.1289 -33.33333,-19.5341 -4.74023,-2.7194 -10.18184,-7.228 -16,-6.2355 -18.31665,3.1245 -41.25817,23.247 -57.33333,32.6883 -44.18188,25.9489 -88.1087,53.2777 -133.33332,77.3477 m 413.3333,-85.3333 v 1.3333 c 47.56738,19.8042 92.56307,47.9441 138.66666,70.9959 13.22998,6.615 37.18766,25.7331 52,25.073 6.18685,-0.2757 12.41016,-6.1201 17.33333,-9.4022 l 34.66667,-23.1111 c 42.531,-28.354 84.67972,-60.0286 129.33332,-84.8889 -11.6066,-3.9792 -35.5713,19.0675 -45.3333,25.2623 -32.31782,20.5083 -64.15286,41.9506 -96.00002,63.1821 -10.48063,6.987 -27.35718,23.2842 -40,24.7654 -12.98039,1.5208 -35.22078,-16.4873 -46.66666,-22.2139 -30.77539,-15.3976 -61.73079,-30.7285 -92,-47.1029 -15.05623,-8.1448 -34.85652,-22.137 -52,-23.893 m -409.3333,257.3333 v 1.3333 c 15.65977,-1.0405 33.37599,-15.8172 46.66666,-23.7325 32.64856,-19.4438 65.63676,-38.4367 98.66666,-57.2263 10.9856,-6.2493 32.55456,-25.0032 45.33333,-24.285 12.95374,0.728 31.46143,17.2782 42.66667,23.7109 32.17512,18.4709 64.14102,37.4546 95.99999,56.4671 13.56169,8.0932 30.87406,22.9985 46.66666,25.0658 -12.53759,-12.9305 -33.72591,-21.5072 -49.33333,-30.467 -30.41459,-17.4603 -60.5933,-35.4912 -90.66666,-53.533 -11.23364,-6.7393 -34.61869,-26.8933 -47.99999,-24.7551 -17.6742,2.8241 -39.29903,21.5105 -54.66667,30.6173 -43.09578,25.5382 -87.36557,56.9967 -133.33332,76.8045 m 410.66664,-105.3333 v 1.3333 l 135.99999,79.7335 37.33333,22.1286 18.66667,9.3292 17.33333,-7.4588 36,-21.2655 142.66662,-82.467 c -5.9039,-2.2295 -10.944,1.8415 -16,4.7675 -11.1311,6.4416 -22.1801,13.03 -33.3333,19.432 -35.18049,20.194 -70.15356,40.7407 -105.33332,60.9342 -10.30046,5.9126 -28.86564,22.0473 -40.7675,22.4023 -4.65641,0.1389 -10.06144,-4.7427 -13.89917,-6.9702 -10.26505,-5.958 -20.3741,-12.1901 -30.66666,-18.0988 -33.5096,-19.2369 -66.84904,-38.8838 -99.99999,-58.7334 -13.84253,-8.2885 -31.74984,-23.3935 -48,-25.0669 z"
       id="path1" />
  </g>
</svg>
