<?xml version="1.0" encoding="UTF-8" standalone="no"?>
<!-- Created with Inkscape (http://www.inkscape.org/) -->

<svg
   version="1.1"
   id="svg1"
   width="1333.3333"
   height="1333.3333"
   viewBox="0 0 1333.3333 1333.3333"
   sodipodi:docname="Cul_DTR.svg"
   inkscape:version="1.4.2 (ebf0e940d0, 2025-05-08)"
   xmlns:inkscape="http://www.inkscape.org/namespaces/inkscape"
   xmlns:sodipodi="http://sodipodi.sourceforge.net/DTD/sodipodi-0.dtd"
   xmlns="http://www.w3.org/2000/svg"
   xmlns:svg="http://www.w3.org/2000/svg">
  <defs
     id="defs1" />
  <sodipodi:namedview
     id="namedview1"
     pagecolor="#505050"
     bordercolor="#eeeeee"
     borderopacity="1"
     inkscape:showpageshadow="0"
     inkscape:pageopacity="0"
     inkscape:pagecheckerboard="0"
     inkscape:deskcolor="#505050"
     showgrid="false"
     inkscape:zoom="0.59400004"
     inkscape:cx="666.66662"
     inkscape:cy="666.66662"
     inkscape:window-width="1920"
     inkscape:window-height="995"
     inkscape:window-x="0"
     inkscape:window-y="0"
     inkscape:window-maximized="1"
     inkscape:current-layer="g1" />
  <g
     inkscape:groupmode="layer"
     inkscape:label="Image"
     id="g1">
    <path
       style="fill:#ffff00;stroke:none"
       d="m 1333.3333,595.99996 c -12.3519,8.70085 -21.4647,21.33277 -32.0052,32 -20.7614,21.01139 -41.7747,41.77987 -62.6615,62.66666 -9.8519,9.85189 -23.5649,31.52393 -37.3333,34.66667 -5.1053,6.26261 -11.9365,11.84977 -14.4969,19.94751 -1.2962,4.0992 2.2101,7.84399 2.039,12.07202 -0.5003,12.36507 -4.0536,25.20752 -6.4752,37.3138 -7.1026,35.50708 -18.3367,70.83675 -32.8817,103.99999 -61.8992,141.13269 -178.96932,254.68689 -324.18522,307.92899 -222.01361,81.3993 -473.89824,9.9045 -617.79419,-178.5957 C 177.9487,989.23724 153.89678,945.55951 136.56583,899.99995 113.658,839.7799 100.97484,775.07433 100.23353,710.66662 c -0.760503,-66.07608 11.68176,-134.17846 35,-195.99998 51.13206,-135.56176 154.87611,-253.38858 287.43311,-314.25511 43.25525,-19.86165 88.00293,-34.55868 134.66666,-43.87866 22.69547,-4.53288 50.86344,0.44222 66.66666,-17.86621 -2.01802,-10.74894 24.65853,-29.99186 32,-37.33333 C 676.68705,80.646235 696.65637,59.343584 717.33329,38.666664 729.70984,26.290119 744.58101,14.317545 754.66662,0 c -18.2692,0.06461588 -31.91894,21.252277 -44,33.333331 -33.07922,33.079181 -63.75073,71.385489 -99.99999,101.028799 -8.53007,6.97559 -24.0793,5.77377 -34.66667,7.33334 -24.73616,3.64388 -49.30521,9.12727 -73.33332,16.02571 -84.5487,24.27384 -161.2371,68.96631 -226.66666,127.39094 -54.23836,48.43156 -97.29758,108.65771 -129.66254,173.55452 -30.28732,60.73079 -49.495161,129.66031 -54.455762,197.33332 -6.121267,83.50683 2.942372,166.47891 32.685192,245.33332 19.63345,52.0524 47.44799,101.80012 82.10493,145.33332 158.71742,199.3676 437.59704,257.5762 666.66148,152.4115 74.96419,-34.4165 142.00002,-85.6883 195.43832,-148.4115 65.372,-76.73046 109.8952,-170.09292 127.7942,-269.33331 2.3078,-12.79582 1.4033,-31.23389 7.6203,-42.66667 6.044,-11.11442 18.9262,-20.44572 27.8138,-29.33333 18.0211,-18.02108 35.578,-36.44547 53.3529,-54.66666 14.5834,-14.94955 47.9024,-36.59611 47.9805,-58.66667 M 1331.9999,1.3333333 C 1148.2006,185.15184 964.19615,368.59885 782.68615,554.66663 c -43.43823,44.52897 -86.69091,89.33805 -130.68619,133.33333 -10.21435,10.21435 -20.60453,20.28255 -30.64608,30.66666 -1.60774,1.6626 -10.55179,10.45801 -4.71708,12.3313 4.17294,1.33976 8.86056,-4.54858 11.36316,-7.00415 8.3868,-8.22933 16.85905,-16.45556 24.56584,-25.32715 31.13281,-35.83837 67.2019,-69.08805 100.76749,-102.66666 C 897.53217,451.74525 1039.739,305.59422 1183.9999,161.33332 l 116,-115.999989 c 9.3561,-9.35612 38.2974,-28.953775 32,-43.9999977 M 759.99995,10.666666 c 9.79981,10.613606 34.32341,11.989338 48,15.506184 40.00814,10.28776 79.92244,20.972411 119.99999,30.991779 12.0472,3.0118 39.74878,5.142415 48.36312,14.253091 8.72754,9.230306 10.66146,35.00561 13.80973,47.24894 9.85201,38.31356 21.06361,76.28043 30.66251,114.66666 3.4645,13.85473 6.0877,40.7653 16.498,50.66666 l -11.5011,-43.99999 -30.32608,-114.66666 -11.47322,-42.666668 -5.93937,-15.029785 -19.42692,-6.134846 -44,-11.333333 L 759.99995,10.666666 M 650.66663,146.66666 c 9.54573,10.02742 34.72054,10.14404 47.99999,12.80045 39.08985,7.81966 78.27295,15.23226 117.33333,23.19442 11.52555,2.34936 35.77417,2.24422 44.66764,10.13786 8.67847,7.7028 11.69344,30.95051 15.33236,41.86726 12.1451,36.43538 24.38761,72.84196 36.34464,109.33333 4.08919,12.47965 7.97469,42.58032 19.65535,49.33333 l -48.44441,-146.66666 -13.33333,-40 -6.90227,-16.58121 -19.31998,-5.53402 -41.33333,-7.78393 -151.99999,-30.10083 m 485.33327,85.33333 c 11.7056,51.05842 27.4361,101.28344 40.4938,151.99999 3.5474,13.77791 6.9294,27.62589 10.7387,41.33333 1.466,5.27498 2.2736,12.79793 6.5052,16.64917 8.4198,7.66324 28.7139,8.79907 39.5957,11.51953 32.7873,8.19686 66.5293,20.65755 100,25.16463 -5.4428,-7.80013 -24.3648,-9.0284 -33.3334,-11.2994 -25.3369,-6.41569 -50.7913,-12.6696 -76,-19.56999 -7.7232,-2.11409 -23.0727,-3.69287 -28.5812,-9.70369 -8.7942,-9.59627 -10.7775,-34.88598 -13.9167,-47.42692 -9.2711,-37.03694 -19.9473,-73.74023 -29.6564,-110.66666 -3.5896,-13.65275 -5.2618,-38.25431 -15.8457,-47.99999 m -122.6666,121.33332 13.4876,52 28.3395,106.66666 10.5607,40 6.6831,16.08333 19.5957,5.74796 42.6667,10.6687 152,39.5 c -7.1066,-11.65779 -39.2688,-13.33317 -52,-16.94653 -35.2734,-10.01123 -71.0934,-18.65812 -106.6667,-27.55143 -18.4643,-4.61605 -37.1813,-11.39982 -56,-14.1687 -1.8871,-21.63981 -10.952,-44.41219 -16.7675,-65.33333 -8.5006,-30.58122 -15.8097,-61.48738 -24.5658,-91.99999 -4.3082,-15.0127 -5.9228,-43.80575 -17.3333,-54.66667 z"
       id="path1" />
  </g>
</svg>
