<?xml version="1.0" encoding="UTF-8" standalone="no"?>
<!-- Created with Inkscape (http://www.inkscape.org/) -->

<svg
   version="1.1"
   id="svg1"
   width="1333.3333"
   height="1333.3333"
   viewBox="0 0 1333.3333 1333.3333"
   sodipodi:docname="Cul_DBL.svg"
   inkscape:version="1.4.2 (ebf0e940d0, 2025-05-08)"
   xmlns:inkscape="http://www.inkscape.org/namespaces/inkscape"
   xmlns:sodipodi="http://sodipodi.sourceforge.net/DTD/sodipodi-0.dtd"
   xmlns="http://www.w3.org/2000/svg"
   xmlns:svg="http://www.w3.org/2000/svg">
  <defs
     id="defs1" />
  <sodipodi:namedview
     id="namedview1"
     pagecolor="#505050"
     bordercolor="#eeeeee"
     borderopacity="1"
     inkscape:showpageshadow="0"
     inkscape:pageopacity="0"
     inkscape:pagecheckerboard="0"
     inkscape:deskcolor="#505050"
     showgrid="false"
     inkscape:zoom="0.59400004"
     inkscape:cx="666.66663"
     inkscape:cy="666.66663"
     inkscape:window-width="1920"
     inkscape:window-height="995"
     inkscape:window-x="0"
     inkscape:window-y="0"
     inkscape:window-maximized="1"
     inkscape:current-layer="g1" />
  <g
     inkscape:groupmode="layer"
     inkscape:label="Image"
     id="g1">
    <path
       style="fill:#ffff00;stroke:none"
       d="m 0,737.33329 c 12.351629,-8.70068 21.464868,-21.33285 32.005143,-32 20.761435,-21.01139 41.774724,-41.77986 62.661518,-62.66666 9.851869,-9.85189 23.564929,-31.52401 37.333329,-34.66667 5.10545,-6.26261 11.93635,-11.84977 14.49691,-19.94751 1.29616,-4.09912 -2.21021,-7.84399 -2.03908,-12.07202 0.50043,-12.36499 4.05358,-25.20751 6.4753,-37.3138 7.10278,-35.50716 18.33647,-70.83674 32.88169,-103.99999 61.90028,-141.13321 178.96821,-254.68545 324.18516,-307.92902 222.01276,-81.400627 473.89938,-9.90332 617.79413,178.59569 29.5904,38.7627 53.6424,82.44035 70.9733,128 22.9079,60.22021 35.5909,124.92561 36.3323,189.33332 0.7606,66.07617 -11.6816,134.17838 -35,195.99999 -51.1321,135.56151 -154.8764,253.38908 -287.43309,314.25508 -43.2552,19.8615 -88.003,34.5591 -134.66666,43.8787 -22.69531,4.5326 -50.8636,-0.4422 -66.66666,17.8662 2.01807,10.7489 -24.65853,29.9919 -32,37.3333 -20.68709,20.6871 -40.65637,41.9897 -61.33333,62.6667 -12.37667,12.3766 -27.24776,24.3489 -37.33333,38.6667 18.26921,-0.065 31.91899,-21.2524 44,-33.3334 33.07926,-33.0792 63.75081,-71.3852 99.99999,-101.0288 8.53011,-6.9756 24.07927,-5.7737 34.66667,-7.3333 24.73616,-3.644 49.30517,-9.1272 73.33333,-16.0257 84.54874,-24.2741 161.23697,-68.9663 226.66668,-127.391 54.2383,-48.43153 97.2977,-108.65784 129.6625,-173.55449 30.2872,-60.73087 49.4952,-129.66031 54.4558,-197.33332 6.1213,-83.50667 -2.9424,-166.47891 -32.6852,-245.33332 -19.6336,-52.0524 -47.4481,-101.79996 -82.1049,-145.33332 C 967.94517,87.298579 689.06327,29.090656 459.99997,134.25512 385.03546,168.67178 318.00069,219.94351 264.56171,282.66665 199.1894,359.3963 154.66671,452.75982 136.76749,551.99997 c -2.30792,12.79606 -1.40325,31.23372 -7.62037,42.66666 -6.04397,11.11458 -18.92614,20.44564 -27.81379,29.33333 C 83.312246,642.02104 65.755281,660.44539 47.980451,678.66663 33.397108,693.61617 0.07795366,715.26273 0,737.33329 m 0,594.66661 c 23.062832,-16.2457 42.705096,-41.3717 62.666663,-61.3333 L 183.99999,1149.3333 c 123.19132,-123.1914 247.49445,-246.03046 367.94749,-372.00001 42.54837,-44.49707 85.84569,-88.45988 129.38581,-132 10.21436,-10.21435 20.60449,-20.28255 30.64608,-30.66666 1.9244,-1.99007 9.43693,-8.71623 5.55249,-11.88477 -3.76905,-3.07438 -9.9856,4.38623 -12.19857,6.55762 -9.70044,9.51831 -18.86922,19.39705 -28.11934,29.32715 -40.35889,43.32588 -83.34802,84.80069 -125.21398,126.66666 C 413.12347,904.20974 276.25552,1045.0777 137.33332,1183.9999 L 34.666665,1286.6666 C 22.341198,1298.992 0.06577825,1313.3765 0,1331.9999 M 46.666664,709.33329 c 7.106348,11.6578 39.268867,13.33317 51.999997,16.94645 35.273479,10.01139 71.093429,18.6582 106.666659,27.55143 18.46427,4.61605 37.18137,11.3999 56,14.16878 1.88692,21.63965 10.95206,44.41227 16.76749,65.33333 8.50069,30.58122 15.80951,61.48747 24.56584,92 4.30827,15.01269 5.92275,43.80582 17.33333,54.66666 l -13.48765,-52 -28.33952,-106.66666 -10.56068,-39.99999 -6.68313,-16.08334 -19.59568,-5.74788 -42.66667,-10.66878 -151.999986,-39.5 M 0,854.66661 c 5.4427036,7.80013 24.364704,9.02841 33.333331,11.2994 25.337015,6.41569 50.791221,12.66968 75.999999,19.56991 7.72323,2.11409 23.07298,3.69303 28.58127,9.70377 8.79416,9.59636 10.77739,34.8859 13.91667,47.42692 9.27116,37.03694 19.94753,73.74009 29.65637,110.66669 3.58958,13.6525 5.26188,38.2545 15.84568,48 -11.70518,-51.0585 -27.43639,-101.2835 -40.49382,-152.00002 -3.54726,-13.778 -6.92929,-27.6259 -10.73868,-41.33334 -1.46598,-5.27506 -2.27353,-12.79785 -6.50515,-16.64916 C 131.1758,883.68761 110.88181,882.5517 99.999994,879.83116 67.212586,871.63439 33.470612,859.17378 0,854.66661 m 401.33331,85.33333 48.44445,146.66666 13.33334,40 6.90222,16.5813 19.31998,5.5339 41.33333,7.784 151.99999,30.1008 c -9.54577,-10.0274 -34.72049,-10.144 -47.99999,-12.8005 -39.0898,-7.8194 -78.27295,-15.2326 -117.33333,-23.1944 -11.52539,-2.3492 -35.77437,-2.2443 -44.66772,-10.1378 -8.67839,-7.7028 -11.6934,-30.9507 -15.33227,-41.8673 -12.14515,-36.4355 -24.38745,-72.842 -36.34465,-109.33333 -4.08923,-12.47965 -7.97461,-42.5804 -19.65535,-49.33333 m -105.33333,109.33336 11.50102,44 30.32615,114.6666 11.47324,42.6667 5.93929,15.0299 19.42696,6.1347 44,11.3334 154.66666,39.502 c -9.79977,-10.6136 -34.32345,-11.9894 -48,-15.5062 -40.00805,-10.2875 -79.92252,-20.9724 -119.99999,-30.9918 -12.04708,-3.0117 -39.74882,-5.1425 -48.36316,-14.2531 -8.7275,-9.2302 -10.6615,-35.0057 -13.80969,-47.2489 -9.85189,-38.3135 -21.06349,-76.2804 -30.66253,-114.6667 -3.46456,-13.8546 -6.08775,-40.7653 -16.49795,-50.6666 z"
       id="path1" />
  </g>
</svg>
