<?xml version="1.0" encoding="UTF-8" standalone="no"?>
<!-- Created with Inkscape (http://www.inkscape.org/) -->

<svg
   version="1.1"
   id="svg1"
   width="1333.3333"
   height="1333.3333"
   viewBox="0 0 1333.3333 1333.3333"
   sodipodi:docname="CurbDrop_Vertical.svg"
   inkscape:version="1.4.2 (ebf0e940d0, 2025-05-08)"
   xmlns:inkscape="http://www.inkscape.org/namespaces/inkscape"
   xmlns:sodipodi="http://sodipodi.sourceforge.net/DTD/sodipodi-0.dtd"
   xmlns="http://www.w3.org/2000/svg"
   xmlns:svg="http://www.w3.org/2000/svg">
  <defs
     id="defs1" />
  <sodipodi:namedview
     id="namedview1"
     pagecolor="#505050"
     bordercolor="#eeeeee"
     borderopacity="1"
     inkscape:showpageshadow="0"
     inkscape:pageopacity="0"
     inkscape:pagecheckerboard="0"
     inkscape:deskcolor="#505050"
     showgrid="false"
     inkscape:zoom="0.59400004"
     inkscape:cx="665.82488"
     inkscape:cy="666.66663"
     inkscape:window-width="1920"
     inkscape:window-height="995"
     inkscape:window-x="0"
     inkscape:window-y="0"
     inkscape:window-maximized="1"
     inkscape:current-layer="g1" />
  <g
     inkscape:groupmode="layer"
     inkscape:label="Image"
     id="g1">
    <path
       style="fill:#d123ff;stroke:none"
       d="M 669.33329,451.99997 V 601.3333 903.99994 h 2.66667 l 0.81584,-253.21397 0.13476,-54.01851 0.41976,-20.34367 14.62964,-3.09049 c 0,51.61149 -1.33334,103.07494 -1.33334,154.66666 v 35.99999 c 0.001,2.83741 -1.22045,11.0402 2.9126,11.76546 4.84929,0.85075 4.99178,-7.57104 5.06787,-10.43212 0.31869,-11.98267 0.0195,-24.01286 0.0195,-36 0,-52.06059 1.33334,-103.93522 1.33334,-155.99999 h 285.33331 v 126.66666 c 0,26.61686 -1.33333,53.31298 -1.33333,79.99999 0,28.94531 -0.10701,57.78263 -1.22119,86.66666 -0.16675,4.32333 -2.7203,26.0708 3.99487,26.20573 5.86996,0.118 3.89299,-14.71142 3.89299,-18.20573 0,-20.03922 1.33333,-39.9462 1.33333,-59.99999 0,-48.02694 1.33333,-96.03939 1.33333,-143.99999 0,-29.4021 -2.5192,-60.05151 0.0782,-89.32715 0.74162,-8.35905 6.58195,-5.55509 11.11722,-10.14306 2.9978,-3.03255 2.1361,-8.66268 2.1379,-12.52979 v -75.99999 c 0,-6.5765 2.8509,-22.20671 -2.1379,-27.19548 -4.51875,-4.51879 -17.30667,-2.13785 -23.19543,-2.13785 H 914.66661 753.33329 c -27.15129,0 -57.28638,3.62613 -84,-1.33334 m 52,9.33334 c -9.90715,14.05501 -30.07373,33.41723 -45.33333,41.33333 0,-8.84799 -4.18494,-32.18132 1.37036,-39.19548 2.48462,-3.13712 8.4738,-2.13631 11.96297,-2.13785 h 32 m 56,0 c -17.27206,24.51944 -46.8339,45.86938 -69.33333,65.71402 -10.06356,8.87614 -19.76823,21.91512 -32,27.6193 l 0.80452,-41.05452 21.86214,-20.39713 33.83334,-31.07813 44.83333,-0.80354 m 58.66666,0 c -20.90275,27.33211 -55.3313,49.76082 -81.33333,72.37548 -10.11719,8.79915 -22.94002,25.6665 -35.16666,30.83952 -11.15918,4.72143 -31.38998,0.78499 -43.5,0.78499 v -1.33333 c 11.33301,-5.87785 19.96321,-16.62858 29.33333,-25.10702 17.51302,-15.84627 34.71525,-32.01253 52,-48.10701 8.44686,-7.86515 24.80607,-17.49479 26.66666,-29.45263 h 52 m 49.33333,0 -32,29.89811 -50.66666,44.56176 -30.66667,29.54012 h -41.33333 c 20.91984,-27.35441 55.31396,-49.74577 81.33333,-72.37549 10.11711,-8.79915 22.94002,-25.66642 35.16666,-30.83951 9.89478,-4.18644 27.44751,-0.78499 38.16667,-0.78499 m 50.66666,0 c -19.37589,27.5061 -51.91731,48.56542 -75.99999,72.01952 -9.7535,9.49894 -22.94247,26.70101 -36,31.19548 -11.95622,4.11531 -30.0463,0.78499 -42.66666,0.78499 7.89697,-10.97941 20.48136,-19.51709 30.66666,-28.37549 16.97534,-14.76391 33.69124,-29.81836 50.66666,-44.58235 10.25936,-8.92285 26.17643,-18.58887 32,-31.04215 h 41.33333 m 50.66667,0 c -19.13615,27.16568 -49.85685,48.53254 -73.33333,71.99999 -9.10661,9.10311 -22.58594,26.74129 -34.66667,31.19547 -11.32885,4.17692 -29.28735,0.80453 -41.33333,0.80453 l 32,-30.89298 50.66666,-47.00619 29.33334,-25.2963 37.33333,-0.80452 m -632.58745,2.9012 c -3.58105,2.16886 -2.07918,10.96224 -2.07918,14.43213 v 42.66666 179.99999 49.33333 c 1.6e-4,2.82259 -1.19055,16.53149 4.98763,14.20573 4.64115,-1.74707 3.01237,-11.78076 3.01237,-15.53906 V 698.66662 518.66664 c 0,-14.66187 0.19954,-29.33968 -0.005,-44 -0.0349,-2.49756 -0.59973,-13.65169 -5.91569,-10.43213 m 640.58745,2.43213 c 0,10.94751 2.99576,27.02612 -0.80453,37.33333 -2.51481,6.82088 -10.18945,12.32731 -15.19547,17.33333 -12.18246,12.18246 -29.0874,37.20565 -45.33333,43.19547 -11.66911,4.30233 -30.2548,0.80453 -42.66667,0.80453 v -1.33333 l 104,-97.33333 m 0,49.33333 v 49.33333 h -49.33333 c 12.08194,-17.15161 32.1818,-37.25146 49.33333,-49.33333 M 651.99996,770.66662 H 419.99997 362.66664 c -5.82857,0 -17.30712,-2.13591 -21.86214,2.32308 -4.83496,4.73299 -2.13785,19.4047 -2.13785,25.67692 v 74.66666 c 0,6.70573 -3.296,25.257 4.19755,28.52881 6.68591,2.9191 17.92842,0.80452 25.13578,0.80452 h 59.99999 159.99999 c 22.03288,0 52.05855,5.39714 73.25517,-0.42383 6.78397,-1.86303 5.41113,-10.09179 5.4115,-15.57617 v -46.66666 c 0,-20.07129 3.01981,-42.81421 -0.19751,-62.60905 -0.86687,-5.33349 -5.89071,-7.80468 -6.39099,-13.41154 -3.58997,-40.23494 0.89896,-81.91735 0.87963,-122.19961 -0.009,-17.91415 0.37553,-35.85401 0.37553,-53.77979 0,-4.09309 1.99341,-16.32145 -3.01237,-18.20581 -5.20609,-1.95979 -4.96838,7.55787 -4.98661,10.20581 -0.0826,11.9987 -0.001,24.00098 -0.001,36 0,51.58227 -1.33333,103.05647 -1.33333,154.66666 M 456.8827,593.36422 c -4.16528,3.68303 3.15764,6.32406 5.79012,6.55754 11.81047,1.0476 24.13542,0.0836 35.99382,0.0782 3.69604,-0.002 9.63614,0.92871 12.4506,-2.11214 4.45788,-4.81657 -4.32308,-5.82886 -7.11829,-5.88167 -11.54622,-0.21826 -23.11714,-0.007 -34.66565,-0.006 -3.40738,2.5e-4 -9.66418,-1.09952 -12.4506,1.36426 m 266.21394,8.95361 c -6.38542,3.21713 1.55908,6.74349 4.9095,6.95687 11.90169,0.75806 24.06722,0.0586 35.99381,0.0586 44.87899,0 89.73234,1.33333 134.66666,1.33333 h 38.66667 c 3.85538,0 11.75659,1.45996 14.86523,-1.34465 5.17204,-4.66617 -7.49577,-5.85221 -9.47941,-6.0227 -13.29045,-1.14242 -26.72697,-0.63265 -40.05249,-0.63265 -43.11751,0 -86.29443,-1.33049 -129.33332,-1.33333 -13.1281,-9e-4 -38.49496,-4.93124 -50.23665,0.98453 m -269.99482,17.02572 c -2.27637,0.24796 -17.53817,-0.01 -14.2006,5.26335 2.56396,4.05102 14.33931,2.05973 18.43209,2.05973 h 53.33333 c 5.06998,0 18.0959,2.29875 21.66463,-2.11214 5.45935,-6.74764 -13.86463,-5.88786 -16.3313,-5.88786 -20.74333,0 -42.25932,-1.57121 -62.89815,0.67692 m 295.78087,10.00106 c -4.29484,3.60433 3.70475,5.22843 5.79012,5.52262 9.33365,1.31681 18.5843,1.13273 27.99381,1.13273 39.61743,0 79.03328,1.33073 118.66666,1.33333 8.82641,5.7e-4 33.88134,6.3191 40.4506,-0.7788 3.91813,-4.23348 -2.89942,-5.73462 -5.79012,-5.86215 l -33.32715,-1.30655 c -38.05004,-1.6661 -76.60099,-1.38583 -114.66666,-1.38583 -8.48014,0 -32.53279,-4.18115 -39.11726,1.34465 m -323.99998,16.01961 c -7.61174,6.73043 16.92822,6.63574 19.11726,6.63574 h 70.66667 c 5.14864,0 23.36096,2.7926 26.43208,-2.05965 3.51636,-5.55575 -20.6073,-5.83464 -23.76644,-5.90633 -22.64253,-0.51359 -45.35029,-0.034 -67.99897,-0.034 -5.67082,0 -19.99191,-2.57821 -24.4506,1.36426 m 334.66664,11.98551 c -3.53125,3.04069 1.97811,5.87004 4.47632,6.3457 7.56811,1.44104 16.28507,0.30453 23.97428,0.30453 33.40747,0 66.63891,1.33333 100,1.33333 6.9637,0 32.91186,3.85177 37.21809,-2.07918 3.07544,-4.2358 -3.91691,-5.69381 -6.55761,-5.86218 -9.2592,-0.59046 -18.71582,-0.0586 -27.99382,-0.0586 -32.51871,0 -64.81949,-1.33333 -97.33333,-1.33333 -7.41463,0 -28.03051,-3.60437 -33.78393,1.34977 m -347.54938,17.3169 c 10.75114,5.17386 25.60234,2.66666 37.33334,2.66666 h 78.66666 c 8.85864,0 30.82503,4.22331 34.66666,-5.33333 -13.5441,-4.28304 -28.62504,-2.66667 -42.66666,-2.66667 h -72 c -9.61413,0 -30.76481,-4.1608 -36,5.33334 m 365.66356,7.66048 c -11.06169,5.18782 16.70988,8.24747 19.66975,8.31998 26.65975,0.65324 53.36328,1.35287 80,1.35287 6.48568,0 24.95963,3.33333 29.78393,-1.17074 6.42334,-5.99699 -22.65795,-6.82926 -25.78393,-6.82926 -25.40959,0 -50.60286,-1.33334 -76,-1.33334 -7.34407,0 -21.16332,-3.39099 -27.66975,-0.33951 m -376.33022,12.33951 v 6.66667 c 44.79183,0.34595 89.88443,2.66667 134.66666,2.66667 10.22139,0 20.44555,0.0695 30.66666,-9.8e-4 2.9515,-0.0203 9.81893,0.56787 9.81893,-3.99902 0,-4.56706 -6.86747,-3.97868 -9.81893,-3.99903 -10.22111,-0.0705 -20.44523,-9.7e-4 -30.66666,-9.7e-4 -44.84188,0 -89.75801,-1.33334 -134.66666,-1.33334 m 396.42999,18.32202 c -4.50472,2.31324 -1.29696,6.2037 2.31486,6.81381 19.17749,3.2395 41.75919,1.53084 61.25512,1.53084 5.45614,0 17.35376,2.22266 21.83643,-1.34977 7.73616,-6.16529 -11.6814,-6.65007 -13.83643,-6.65023 -14.02213,-9e-4 -28.73511,1.2631 -42.66666,-0.3807 -7.71794,-0.91064 -21.70524,-3.66023 -28.90332,0.0361 m -408.42999,9.67798 c 1.3525,8.10433 7.92867,6.39258 14.66154,6.77165 12.93502,0.72811 25.69051,1.22835 38.67179,1.22835 40.20438,0 81.21093,-2.35791 121.33231,0.11524 9.81026,0.60465 19.47497,1.35083 29.33435,1.21297 2.89327,-0.0404 8.48059,0.3903 9.66463,-3.16154 2.24097,-6.72225 -14.50423,-4.83333 -17.66463,-4.83333 -20.0448,0 -39.94405,-1.33334 -60,-1.33334 h -56 c -26.36364,0 -53.77473,-2.18839 -79.99999,0 m 445.33331,16.56584 c -4.47404,0.58748 -8.82137,0.7657 -13.33334,0.76749 -2.22802,8.2e-4 -22.50236,0.57699 -14.16463,6.63583 3.47567,2.52563 10.12476,1.38265 14.16463,1.3632 11.3619,-0.0548 34.90397,2.58219 45.00309,-2.13583 4.9904,-2.33138 1.47567,-6.36678 -2.36727,-6.99902 -8.96639,-1.47501 -20.32299,-0.81063 -29.30248,0.36833 m -444.45058,10.11727 c -4.69617,4.0437 4.66952,6.43733 7.11829,6.59163 11.02465,0.6945 22.28535,0.0586 33.33231,0.0586 44.94625,0 89.76192,1.33334 134.66666,1.33334 h 40 c 3.2587,-1.7e-4 11.09029,1.31657 13.09875,-2.11214 2.98063,-5.08838 -6.47872,-5.83236 -9.09875,-5.88168 -13.323,-0.25065 -26.6744,-0.006 -40,-0.006 -44.49491,0 -88.82812,-1.33334 -133.33333,-1.33334 h -33.33333 c -3.43257,1.7e-4 -9.62089,-1.08675 -12.4506,1.34978 m 433.28082,17.33333 c -7.03394,5.60563 17.90909,8.83122 22.33951,5.30045 7.03378,-5.60546 -17.90901,-8.83129 -22.33951,-5.30045 m -446.16355,11.98356 -30.66666,30.66666 v -30.66666 h 30.66666 m 52,0 -37.33333,36.1193 -45.33333,41.21403 0.42386,-34.44027 10.2428,-12.22737 32,-29.86117 40,-0.80452 m 54.66666,0 c -10.04569,14.26107 -25.76693,25.88753 -38.66666,37.55973 -18.88595,17.0887 -37.11161,34.90901 -56,52 -14.67753,13.28076 -22.17029,26.44026 -42.66666,26.44026 l 1.37036,-27.99487 15.96297,-16.01025 41.33333,-38.65641 35.01237,-32.53914 43.65429,-0.79932 m 53.33333,0 c -21.61666,30.68733 -57.89005,55.88875 -85.33333,81.45263 -10.26163,9.55892 -23.51989,28.3667 -36.38065,33.74284 -10.95516,4.57951 -30.42859,0.80452 -42.28601,0.80452 21.08183,-29.92806 56.45707,-53.16088 82.66666,-78.68619 11.09957,-10.80973 26.68266,-31.11328 41.33333,-36.50928 10.99292,-4.04882 28.31673,-0.80452 40,-0.80452 m 53.33333,0 -25.33333,26.66666 -62.66666,60.2264 -30.66667,28.30241 -45.33333,0.80452 32,-30.78597 58.66666,-55.11319 33.33333,-29.29631 40,-0.80452 m 54.66666,0 c -21.19706,30.09171 -56.08642,54.63623 -82.66666,80.05248 -10.52763,10.06665 -24.26888,29.52263 -37.71398,35.14299 -10.6368,4.44645 -29.4447,0.80452 -40.95268,0.80452 l 29.33333,-29.33333 60,-57.89917 30.66666,-27.96297 41.33333,-0.80452 m 13.33334,0 c 1.56803,10.16227 3.50748,26.36287 -0.68929,36.00512 -7.45996,17.13949 -30.59774,31.5284 -43.08435,45.32821 -9.1698,10.13427 -21.80029,29.03483 -34.89303,33.86214 -11.66902,4.30241 -30.25484,0.80452 -42.66666,0.80452 8.07304,-14.0979 24.52787,-24.66951 36,-36.00512 26.9045,-26.58439 54.38916,-58.21769 85.33333,-79.99487 m 0,48 c 2.55887,9.69026 3.78617,32.85066 -2.03292,41.33333 -6.93091,10.10335 -19.38709,15.41691 -24.63375,26.66666 h -40 l 38.66667,-40 28,-27.99999 m 0,50.66666 1.33333,16 -20,1.33333 z"
       id="path1" />
  </g>
</svg>
