<?xml version="1.0" encoding="UTF-8" standalone="no"?>
<!-- Created with Inkscape (http://www.inkscape.org/) -->

<svg
   version="1.1"
   id="svg1"
   width="1333.3333"
   height="1333.3333"
   viewBox="0 0 1333.3333 1333.3333"
   sodipodi:docname="CurbDrop_Curve_T_BLorBL_T.svg"
   inkscape:version="1.4.2 (ebf0e940d0, 2025-05-08)"
   xmlns:inkscape="http://www.inkscape.org/namespaces/inkscape"
   xmlns:sodipodi="http://sodipodi.sourceforge.net/DTD/sodipodi-0.dtd"
   xmlns="http://www.w3.org/2000/svg"
   xmlns:svg="http://www.w3.org/2000/svg">
  <defs
     id="defs1" />
  <sodipodi:namedview
     id="namedview1"
     pagecolor="#505050"
     bordercolor="#eeeeee"
     borderopacity="1"
     inkscape:showpageshadow="0"
     inkscape:pageopacity="0"
     inkscape:pagecheckerboard="0"
     inkscape:deskcolor="#505050"
     showgrid="false"
     inkscape:zoom="0.59400004"
     inkscape:cx="665.82488"
     inkscape:cy="666.66663"
     inkscape:window-width="1920"
     inkscape:window-height="995"
     inkscape:window-x="0"
     inkscape:window-y="0"
     inkscape:window-maximized="1"
     inkscape:current-layer="g1" />
  <g
     inkscape:groupmode="layer"
     inkscape:label="Image"
     id="g1">
    <path
       style="fill:#d228ff;stroke:none"
       d="m 742.44543,989.09874 c 4.57255,-2.12094 6.25098,-10.17277 7.95475,-14.43213 5.33358,-13.3335 10.43937,-26.78768 16.06685,-40 22.72648,-53.35774 43.99272,-107.48478 65.53292,-161.33332 6.59049,-16.47567 13.43367,-32.85189 20,-49.33333 0.95886,-2.40682 7.01111,-15.53459 -0.0545,-14.61727 -5.28145,0.68563 -7.39599,10.57641 -9.01237,14.61727 -6.41243,16.03059 -13.05269,31.9672 -19.46602,47.99999 -21.90499,54.7605 -44.4965,109.24235 -66.40018,163.99999 -5.52116,13.80249 -11.38851,27.49097 -16.79427,41.33333 -0.89754,2.29834 -5.01449,15.09929 2.17285,11.76547 M 445.33331,881.33328 c 40.76228,-99.35546 80.3046,-199.18008 120.80451,-298.66665 11.03215,-27.10009 21.77287,-54.3527 33.09465,-81.33333 4.83919,-11.53222 14.83935,-27.39746 14.10083,-39.99999 -15.2203,15.68717 -21.4371,49.16747 -29.89917,69.33332 -22.83635,54.42057 -44.96761,109.21159 -66.90128,163.99999 -6.95158,17.36434 -14.11898,34.63371 -21.06576,52 -1.94018,4.85034 -4.17513,15.98364 -9.32519,18.34985 -3.53776,1.62541 -9.2583,-1.50927 -12.8086,-2.34985 13.43596,-49.12483 40.25236,-96.82678 59.47119,-143.99999 4.53858,-11.13997 9.52385,-22.11003 13.85702,-33.33333 1.09318,-2.83138 4.28296,-9.49219 0.58634,-11.76546 -4.01139,-2.4668 -6.76538,5.375 -7.80859,7.76643 -4.82243,11.05502 -9.49154,22.184 -14.09155,33.33236 -19.82162,48.03869 -41.22258,95.55053 -60.01441,143.99999 -67.03572,-26.00773 -133.5266,-53.91992 -199.99998,-81.34773 -15.54517,-6.41415 -31.09147,-12.84066 -46.66667,-19.18107 -4.23909,-1.72567 -14.95638,-3.84538 -16.02368,-9.10392 -1.07438,-5.29322 4.2771,-13.625 6.31584,-18.36727 6.07886,-14.13997 11.82218,-28.43962 17.69344,-42.66667 22.77181,-55.17984 46.2963,-110.05077 68.81892,-165.33332 7.094,-17.41243 14.70467,-34.61857 21.87655,-52 1.27246,-3.0839 8.01261,-14.45092 2.2819,-16.33129 -6.36149,-2.08732 -11.04272,16.29191 -12.76343,20.33129 -10.20744,23.96175 -20.51058,47.87972 -30.3374,72 -17.81217,43.72054 -36.36311,87.13622 -54.62963,130.66666 -8.72258,20.78654 -15.04549,46.27067 -27.27873,65.19759 -4.10351,6.34879 -11.0918,0.26896 -15.46924,5.8929 -5.16976,6.64197 -7.51074,17.14079 -10.61832,24.9095 -6.76693,16.91667 -13.5975,33.82357 -20.54728,50.66667 -3.10124,7.51595 -11.11442,19.60693 -9.98145,27.92691 0.93319,6.85279 12.65259,9.13526 17.99585,11.27263 18.24764,7.29931 36.49796,14.65145 54.66666,22.14819 77.83732,32.1171 155.58365,67.24894 234.66666,95.98559 m -45.33333,-28 c 15.00162,-9.95955 38.62084,-16.5896 55.99999,-21.33333 -1.29533,7.52279 -8.274,33.96427 -16.28499,36.2819 -9.11214,2.63623 -31.75268,-10.41716 -39.715,-14.94857 m -52,-21.33333 c 13.3129,-8.83846 31.76831,-12.6438 46.66666,-18.41463 25.43856,-9.85344 54.3658,-25.54614 81.33333,-29.58537 -2.39925,10.10116 -8.09635,30.56486 -15.59871,37.88167 -5.80957,5.66594 -20.70687,8.0083 -28.40129,10.88583 -11.91219,4.45483 -30.19083,15.52457 -42.66666,15.76131 -11.28255,0.21411 -32.04191,-10.35889 -41.33333,-16.52881 m 347.16974,-1.50415 c 5.15071,-3.42896 -3.44645,-7.86825 -5.84261,-8.88989 -10.15743,-4.33073 -20.40174,-8.45321 -30.66048,-12.53906 -3.42265,-1.3632 -9.13981,-4.68075 -12.76441,-2.32618 -5.26489,3.42017 3.77393,7.46306 6.10287,8.48666 10.54105,4.63305 21.29768,8.78247 31.99487,13.03906 2.86198,1.13883 8.13281,4.25122 11.16976,2.22941 m -401.8364,-19.82918 v -1.33334 l 101.33332,-34.73762 46.66667,-16.39201 38.66666,15.12964 v 1.33333 c -33.62142,5.03581 -69.53865,24.98641 -101.33333,37.07715 -11.71362,4.45442 -29.36759,7.50935 -37.33333,17.58951 l -47.99999,-18.66666 m 430.66664,1.33333 c -1.40536,-8.63419 -10.10336,-10.1748 -17.33334,-13.06689 L 657.33329,779.1995 c -4.40604,-1.76245 -17.17228,-9.42505 -21.59879,-5.78076 -6.52832,5.37475 14.7893,12.12426 17.59879,13.24788 21.05497,8.42082 47.86979,24.79972 70.66667,25.33333 m -475.99998,-20 v -1.33333 c 33.47225,-15.65381 70.78052,-23.99089 105.33333,-37.07715 12.20296,-4.62166 29.30924,-6.79166 38.66667,-16.25618 l 37.33333,14.66666 v 2.66667 l -105.33333,36.44442 -41.33333,14.08235 -34.66667,-13.19344 m 497.33331,4 c 3.55802,-10.62728 -15.03333,-14.19759 -22.66667,-17.34774 -18.67797,-7.70808 -37.36759,-15.39941 -55.99999,-23.21809 -9.85738,-4.1364 -19.81812,-9.84579 -30.66667,-10.10083 1.69369,10.40625 16.78544,13.28125 25.33333,16.95882 26.80965,11.53434 55.59416,26.9764 84,33.70784 M 201.33332,773.33329 v -2.66667 c 46.25561,-15.07674 91.35115,-40.64298 138.66666,-51.75106 9.48592,-2.22696 37.39111,9.09929 42.66666,17.0844 l -106.66666,36.45881 -38.66666,14.09058 -36,-13.21606 m 301.11212,3.76546 c 8.16919,-3.78923 13.41203,-27.72266 16.78703,-35.76546 14.51799,-34.59733 29.13534,-69.20255 43.16667,-104 4.30932,-10.68701 8.71036,-21.33422 13.07202,-31.99999 1.43318,-3.50456 3.13956,-9.82601 7.47941,-10.69035 4.98396,-0.9926 12.52335,3.81299 17.04939,5.62345 13.8086,5.5236 27.52873,11.26156 41.33333,16.80046 53.42826,21.43733 106.67794,43.36413 159.99999,65.07096 17.34917,7.06266 34.61003,14.36743 52,21.32926 5.42855,2.17326 14.17651,7.87003 19.33439,2.75513 6.28609,-6.23365 8.84245,-19.46297 12.1368,-27.55558 8.32658,-20.45423 16.85917,-40.82772 25.06173,-61.33333 2.49585,-6.23942 12.39412,-22.2793 8.50411,-28.66879 -2.35006,-3.86002 -9.10726,-5.479 -13.03703,-7.06372 C 893.78262,576.943 882.109,572.54472 870.66661,567.62545 825.75125,548.31572 780.06115,530.42477 734.66662,512.26641 705.71537,500.68552 676.95199,488.648 647.99996,477.06687 c -7.19637,-2.87859 -23.97005,-13.73324 -31.47526,-9.02474 -4.92399,3.08919 -6.7539,12.19816 -8.79118,17.29117 -6.23575,15.58887 -12.69344,31.08057 -18.9331,46.66667 -6.21118,15.51489 -15.44075,31.72509 -19.26448,47.99999 -1.27507,5.42692 2.97281,9.41325 1.29947,14.78597 -12.42561,39.89535 -32.76342,78.46301 -48.43627,117.21403 -6.84367,16.92089 -13.73674,33.86417 -20.86629,50.66666 -0.88461,2.0848 -7.2841,18.23413 0.91259,14.43213 m 124.22119,-61.09879 c 4.73169,9.47216 18.78296,12.27376 28,16.19954 25.64306,10.92196 51.56909,21.18408 77.33333,31.81486 4.859,2.00488 29.53332,15.7915 33.09875,9.84871 1.97261,-3.28792 -2.87948,-5.9956 -5.12447,-7.13786 -8.12012,-4.13143 -16.93457,-6.95939 -25.30762,-10.52571 -25.20666,-10.73609 -50.62691,-21.05778 -75.99999,-31.39502 -9.69426,-3.94954 -21.36638,-11.72103 -32,-8.80452 m -473.33331,37.33333 32,-13.86621 68,-26.93425 40,-14.48144 37.33333,13.94857 v 2.66666 l -100,37.40023 -41.33333,14.97526 -36,-13.70882 m 631.11723,2.57715 c 3.68868,-2.90853 -2.28369,-6.88453 -4.47631,-8.03809 -8.0256,-4.22225 -16.90418,-7.4078 -25.30762,-10.80656 -32.63611,-13.19962 -64.9366,-27.28808 -97.33333,-41.06583 -5.7983,-2.4659 -26.84358,-15.08464 -32.4506,-10.58122 -3.68473,2.95947 2.25895,6.72778 4.47632,7.85596 8.09961,4.12101 16.90885,7.24487 25.30762,10.71085 32.52058,13.42074 65.01444,27.0791 97.33332,40.97323 5.59575,2.40568 27.20191,15.09033 32.4506,10.95166 M 147.99999,745.33329 c 3.44173,-10.17334 7.19938,-25.91756 14.41976,-34.00203 6.63623,-7.43051 21.91813,-10.50236 30.91357,-14.37248 13.52124,-5.8173 33.32446,-19.19674 48,-19.82609 10.24414,-0.43933 32.1372,9.84814 40,16.2006 l -81.33333,32.53288 -52,19.46712 m 657.83639,-10.80762 c 4.46451,-2.94816 -2.25513,-6.94808 -4.52881,-8.03906 -9.1202,-4.37614 -18.66691,-8.05469 -27.97428,-12.01953 -39.38025,-16.77555 -79.09875,-32.81934 -118.66666,-49.14819 -10.7002,-4.41577 -21.34375,-8.99793 -32,-13.51851 -2.96362,-1.25721 -9.16691,-4.88912 -12.26546,-2.37757 -4.15633,3.36902 3.23576,7.54643 5.60498,8.65328 10.87548,5.08077 22.27701,9.22441 33.32714,13.92387 38.97917,16.57715 78.27694,32.37841 117.33333,48.76749 9.32747,3.91407 18.61466,7.9895 28,11.76026 2.92785,1.17635 8.07475,4.04183 11.16976,1.99796 m -353.072,-13.28084 c 4.72037,-3.15121 -2.34156,-7.10034 -4.785,-8.26538 -9.92236,-4.73096 -20.45377,-8.58976 -30.64607,-12.712 -42.82161,-17.31917 -85.5026,-35.30049 -127.99999,-53.40128 -11.96827,-5.09757 -24.02425,-9.98584 -36,-15.06575 -3.04224,-1.29053 -9.25977,-4.90088 -12.4506,-2.37761 -4.18132,3.30648 3.50097,7.58513 5.79012,8.65332 11.7574,5.48584 24.0555,9.97274 35.99381,15.05758 42.52295,18.11165 85.47338,35.22025 127.99999,53.33337 10.18726,4.33903 20.43587,8.52921 30.66667,12.7644 3.14518,1.302 8.07421,4.25432 11.43107,2.01335 m 365.90224,-9.24487 c -2.03593,-12.80388 -28.01587,-17.93067 -38.66667,-22.46712 -41.64172,-17.73621 -83.37459,-35.49683 -125.33332,-52.46704 -11.59676,-4.69035 -23.0966,-9.6294 -34.66667,-14.38477 -3.32308,-1.3658 -10.33553,-5.34611 -13.78393,-2.59676 -4.9624,3.95638 6.16854,8.46159 8.4506,9.44759 12.79687,5.52938 25.72884,10.87679 38.66666,16.06787 38.45862,15.43095 76.20646,32.5684 114.66666,48 15.69967,6.29923 33.60669,17.61881 50.66667,18.40023 m 21.33333,-22.66667 v -1.33333 l 38.66666,-16 -10.66666,28 -28,-10.66667 m -673.33329,10.66667 18.66666,-46.66667 45.33333,18.66667 c -16.59765,12.56144 -44.2609,21.28076 -63.99999,28 m 273.33331,-12 c -1.92448,-11.82438 -23.54866,-16.3866 -33.33333,-20.56173 l -105.33333,-44.7716 c -10.24902,-4.35873 -20.31599,-9.20215 -30.66666,-13.3138 -2.771,-1.10075 -8.15657,-3.74349 -10.55143,-0.58537 -2.96965,3.91618 4.06372,6.87988 6.55762,7.99894 11.03767,4.9528 22.20556,9.7028 33.32714,14.46191 31.955,13.67416 63.87117,27.52714 96,40.78605 13.63362,5.62631 29.09334,15.63509 43.99999,15.9856 m 350.66665,-18.66667 32,-13.33333 73.33333,-28 c -1.56971,9.11605 -7.06303,27.35791 -13.99895,33.73047 -6.92163,6.35941 -21.29443,9.3293 -30.00105,12.92179 -6.97213,2.87679 -16.3927,8.73014 -24,8.78394 -11.24239,0.0795 -27.22851,-9.3761 -37.33333,-14.10287 m -50.66667,-21.33333 c 36.20996,-19.28402 78.96541,-30.53369 117.33333,-45.07715 18.62683,-7.06054 33.93734,-17.48453 53.33333,-10.92285 -1.28023,7.20427 -5.05265,20.33553 -10.42387,25.54322 -5.57348,5.40372 -17.10404,7.43953 -24.24279,10.20467 -19.07109,7.3872 -38.29814,14.37752 -57.33333,21.85603 -10.45174,4.10629 -27.64335,14.77222 -38.66667,14.62549 -11.1007,-0.14775 -30.84309,-10.14868 -40,-16.22941 m -298.66664,9.33333 c -3.14372,-10.86897 -21.05542,-14.68587 -30.66667,-18.65226 -29.42895,-12.14469 -58.70979,-24.67269 -87.99999,-37.14819 -8.83627,-3.76351 -17.6683,-7.75513 -26.66667,-11.11312 -2.56738,-0.95809 -8.42765,-3.58691 -10.43213,-0.28702 -2.24544,3.69669 4.08619,6.44856 6.43832,7.55452 9.15991,4.30697 18.68392,7.88029 27.99381,11.84562 28.39787,12.09538 56.71598,24.49365 85.33333,36.06795 10.68156,4.32015 24.29052,13.4915 36,11.7325 m 249.33331,-28 16,-8.42488 36,-13.81689 74.66666,-28.49178 29.33333,-11.12858 40,15.19547 -37.33333,15.2325 -77.33333,29.33333 -43.99999,15.75725 -37.33334,-13.65642 m -257.83535,-2.83846 c 7.91846,-4.64233 -16.65006,-14.02701 -19.49796,-15.26236 -24.85832,-10.78288 -49.54932,-22.13794 -74.66666,-32.29834 -5.36613,-2.17066 -19.20508,-11.42245 -24.8313,-8.09676 -7.77995,4.59887 17.86393,14.17448 20.8313,15.45475 24.46761,10.55672 48.82283,21.35416 73.33333,31.81282 5.14379,2.19483 19.51749,11.50521 24.83129,8.38989 M 641.33329,609.3333 c 7.2133,-11.92009 37.81751,-18.05974 50.66667,-23.19955 l 71.99999,-28.80045 c 8.56673,-3.42627 21.38408,-11.66333 30.66667,-11.21094 12.2902,0.59904 30.72196,10.50545 41.33333,16.54427 l -40,16.0669 -70.66666,27.16454 -46.66666,16.51954 -37.33334,-13.08431 m -50.66666,-22.66667 c 34.02864,-15.9178 70.36975,-27.86523 105.33333,-41.60392 14.16748,-5.56697 34.16361,-18.20483 49.33333,-18.77156 9.67191,-0.36133 29.68803,9.26204 37.33333,15.04215 -32.14958,18.29606 -70.98376,29.15088 -105.33333,42.9331 -13.93937,5.59294 -32.92325,17.56364 -48,18.01449 -10.56721,0.31592 -30.63891,-8.98771 -38.66666,-15.61426 m -164.83023,3.84465 c 6.82731,-4.65406 -10.11125,-10.61744 -12.50309,-11.64405 -16.42139,-7.04809 -32.7841,-14.26285 -49.33333,-21.00512 -3.99097,-1.62598 -13.60213,-7.80217 -17.78394,-4.44344 -5.81819,4.67301 9.98348,10.31339 12.4506,11.34879 16.44873,6.90332 32.80282,14.14649 49.33334,20.83333 4.0524,1.63925 13.54972,7.83269 17.83642,4.91049 m 151.4969,-7.84465 c 2.31624,-9.77417 6.8007,-25.47542 13.89095,-32.81274 4.92545,-5.09709 13.12426,-6.89771 19.44238,-9.6687 15.07894,-6.61353 30.18693,-13.16048 45.33333,-19.62354 11.0328,-4.70768 26.45528,-15.20768 38.66666,-14.84261 12.745,0.38119 26.67904,10.22551 38.66667,14.28093 v 2.66666 l -105.33333,41.0669 -50.66666,18.9331 m -209.33332,-48 c 1.04492,13.11377 33.05826,19.04606 43.99999,23.09156 3.73641,1.38142 11.29688,5.87874 15.16976,3.21704 7.63192,-5.24512 -16.4274,-12.47201 -19.16975,-13.43311 -5.36434,-1.8798 -10.69939,-3.90356 -16,-5.9567 -7.99886,-3.09839 -15.29867,-6.71517 -24,-6.91879 m 227.99998,2.66667 c 1.66374,-9.36247 8.10669,-31.3702 16.2994,-36.77775 10.09733,-6.66463 24.78963,-5.78174 33.03393,-15.22225 l 37.33334,14.66667 -28,13.14713 -58.66667,24.1862 m -174.46808,-6.70264 c 5.02547,-4.4082 -17.35092,-16.35546 -21.8632,-11.12662 -4.51579,5.23299 17.4283,15.01676 21.8632,11.12662 m 193.13475,-39.96402 6.66667,-16 15.99999,6.66666 z"
       id="path1" />
  </g>
</svg>
