<?xml version="1.0" encoding="UTF-8" standalone="no"?>
<!-- Created with Inkscape (http://www.inkscape.org/) -->

<svg
   version="1.1"
   id="svg1"
   width="1333.3333"
   height="1333.3333"
   viewBox="0 0 1333.3333 1333.3333"
   sodipodi:docname="CurbDrop_Curve_L_TRorTR_L.svg"
   inkscape:version="1.4.2 (ebf0e940d0, 2025-05-08)"
   xmlns:inkscape="http://www.inkscape.org/namespaces/inkscape"
   xmlns:sodipodi="http://sodipodi.sourceforge.net/DTD/sodipodi-0.dtd"
   xmlns="http://www.w3.org/2000/svg"
   xmlns:svg="http://www.w3.org/2000/svg">
  <defs
     id="defs1" />
  <sodipodi:namedview
     id="namedview1"
     pagecolor="#505050"
     bordercolor="#eeeeee"
     borderopacity="1"
     inkscape:showpageshadow="0"
     inkscape:pageopacity="0"
     inkscape:pagecheckerboard="0"
     inkscape:deskcolor="#505050"
     showgrid="false"
     inkscape:zoom="0.59400004"
     inkscape:cx="665.82488"
     inkscape:cy="666.66663"
     inkscape:window-width="1920"
     inkscape:window-height="995"
     inkscape:window-x="0"
     inkscape:window-y="0"
     inkscape:window-maximized="1"
     inkscape:current-layer="g1" />
  <g
     inkscape:groupmode="layer"
     inkscape:label="Image"
     id="g1">
    <path
       style="fill:#d228ff;stroke:none"
       d="m 989.09874,742.44543 c -2.12094,4.57255 -10.17277,6.25098 -14.43213,7.95475 -13.3335,5.33358 -26.78768,10.43937 -40,16.06685 -53.35774,22.72648 -107.48478,43.99272 -161.33332,65.53292 -16.47567,6.59049 -32.85189,13.43367 -49.33333,20 -2.40682,0.95886 -15.53459,7.01111 -14.61727,-0.0545 0.68563,-5.28145 10.57641,-7.39599 14.61727,-9.01237 16.03059,-6.41243 31.9672,-13.05269 47.99999,-19.46602 54.7605,-21.90499 109.24235,-44.4965 163.99999,-66.40018 13.80249,-5.52116 27.49097,-11.38851 41.33333,-16.79427 2.29834,-0.89754 15.09929,-5.01449 11.76547,2.17285 M 881.33328,445.33331 c -99.35546,40.76228 -199.18008,80.3046 -298.66665,120.80451 -27.10009,11.03215 -54.3527,21.77287 -81.33333,33.09465 -11.53222,4.83919 -27.39746,14.83935 -39.99999,14.10083 15.68717,-15.2203 49.16747,-21.4371 69.33332,-29.89917 54.42057,-22.83635 109.21159,-44.96761 163.99999,-66.90128 17.36434,-6.95158 34.63371,-14.11898 52,-21.06576 4.85034,-1.94018 15.98364,-4.17513 18.34985,-9.32519 1.62541,-3.53776 -1.50927,-9.2583 -2.34985,-12.8086 -49.12483,13.43596 -96.82678,40.25236 -143.99999,59.47119 -11.13997,4.53858 -22.11003,9.52385 -33.33333,13.85702 -2.83138,1.09318 -9.49219,4.28296 -11.76546,0.58634 -2.4668,-4.01139 5.375,-6.76538 7.76643,-7.80859 11.05502,-4.82243 22.184,-9.49154 33.33236,-14.09155 48.03869,-19.82162 95.55053,-41.22258 143.99999,-60.01441 -26.00773,-67.03572 -53.91992,-133.5266 -81.34773,-199.99998 -6.41415,-15.54517 -12.84066,-31.09147 -19.18107,-46.66667 -1.72567,-4.23909 -3.84538,-14.95638 -9.10392,-16.02368 -5.29322,-1.07438 -13.625,4.2771 -18.36727,6.31584 -14.13997,6.07886 -28.43962,11.82218 -42.66667,17.69344 -55.17984,22.77181 -110.05077,46.2963 -165.33332,68.81892 -17.41243,7.094 -34.61857,14.70467 -52,21.87655 -3.0839,1.27246 -14.45092,8.01261 -16.33129,2.2819 -2.08732,-6.36149 16.29191,-11.04272 20.33129,-12.76343 23.96175,-10.20744 47.87972,-20.51058 72,-30.3374 43.72054,-17.81217 87.13622,-36.36311 130.66666,-54.62963 20.78654,-8.72258 46.27067,-15.04549 65.19759,-27.27873 6.34879,-4.10351 0.26896,-11.0918 5.8929,-15.46924 6.64197,-5.16976 17.14079,-7.51074 24.9095,-10.61832 16.91667,-6.76693 33.82357,-13.5975 50.66667,-20.54728 7.51595,-3.10124 19.60693,-11.11442 27.92691,-9.98145 6.85279,0.93319 9.13526,12.65259 11.27263,17.99585 7.29931,18.24764 14.65145,36.49796 22.14819,54.66666 32.1171,77.83732 67.24894,155.58365 95.98559,234.66666 m -28,-45.33333 c -9.95955,15.00162 -16.5896,38.62084 -21.33333,55.99999 7.52279,-1.29533 33.96427,-8.274 36.2819,-16.28499 2.63623,-9.11214 -10.41716,-31.75268 -14.94857,-39.715 m -21.33333,-52 c -8.83846,13.3129 -12.6438,31.76831 -18.41463,46.66666 -9.85344,25.43856 -25.54614,54.3658 -29.58537,81.33333 10.10116,-2.39925 30.56486,-8.09635 37.88167,-15.59871 5.66594,-5.80957 8.0083,-20.70687 10.88583,-28.40129 4.45483,-11.91219 15.52457,-30.19083 15.76131,-42.66666 0.21411,-11.28255 -10.35889,-32.04191 -16.52881,-41.33333 m -1.50415,347.16974 c -3.42896,5.15071 -7.86825,-3.44645 -8.88989,-5.84261 -4.33073,-10.15743 -8.45321,-20.40174 -12.53906,-30.66048 -1.3632,-3.42265 -4.68075,-9.13981 -2.32618,-12.76441 3.42017,-5.26489 7.46306,3.77393 8.48666,6.10287 4.63305,10.54105 8.78247,21.29768 13.03906,31.99487 1.13883,2.86198 4.25122,8.13281 2.22941,11.16976 m -19.82918,-401.8364 h -1.33334 l -34.73762,101.33332 -16.39201,46.66667 15.12964,38.66666 h 1.33333 c 5.03581,-33.62142 24.98641,-69.53865 37.07715,-101.33333 4.45442,-11.71362 7.50935,-29.36759 17.58951,-37.33333 l -18.66666,-47.99999 m 1.33333,430.66664 c -8.63419,-1.40536 -10.1748,-10.10336 -13.06689,-17.33334 L 779.1995,657.33329 c -1.76245,-4.40604 -9.42505,-17.17228 -5.78076,-21.59879 5.37475,-6.52832 12.12426,14.7893 13.24788,17.59879 8.42082,21.05497 24.79972,47.86979 25.33333,70.66667 m -20,-475.99998 h -1.33333 c -15.65381,33.47225 -23.99089,70.78052 -37.07715,105.33333 -4.62166,12.20296 -6.79166,29.30924 -16.25618,38.66667 l 14.66666,37.33333 h 2.66667 l 36.44442,-105.33333 14.08235,-41.33333 -13.19344,-34.66667 m 4,497.33331 c -10.62728,3.55802 -14.19759,-15.03333 -17.34774,-22.66667 -7.70808,-18.67797 -15.39941,-37.36759 -23.21809,-55.99999 -4.1364,-9.85738 -9.84579,-19.81812 -10.10083,-30.66667 10.40625,1.69369 13.28125,16.78544 16.95882,25.33333 11.53434,26.80965 26.9764,55.59416 33.70784,84 M 773.33329,201.33332 h -2.66667 c -15.07674,46.25561 -40.64298,91.35115 -51.75106,138.66666 -2.22696,9.48592 9.09929,37.39111 17.0844,42.66666 l 36.45881,-106.66666 14.09058,-38.66666 -13.21606,-36 m 3.76546,301.11212 c -3.78923,8.16919 -27.72266,13.41203 -35.76546,16.78703 -34.59733,14.51799 -69.20255,29.13534 -104,43.16667 -10.68701,4.30932 -21.33422,8.71036 -31.99999,13.07202 -3.50456,1.43318 -9.82601,3.13956 -10.69035,7.47941 -0.9926,4.98396 3.81299,12.52335 5.62345,17.04939 5.5236,13.8086 11.26156,27.52873 16.80046,41.33333 21.43733,53.42826 43.36413,106.67794 65.07096,159.99999 7.06266,17.34917 14.36743,34.61003 21.32926,52 2.17326,5.42855 7.87003,14.17651 2.75513,19.33439 -6.23365,6.28609 -19.46297,8.84245 -27.55558,12.1368 -20.45423,8.32658 -40.82772,16.85917 -61.33333,25.06173 -6.23942,2.49585 -22.2793,12.39412 -28.66879,8.50411 -3.86002,-2.35006 -5.479,-9.10726 -7.06372,-13.03703 C 576.943,893.78262 572.54472,882.109 567.62545,870.66661 548.31572,825.75125 530.42477,780.06115 512.26641,734.66662 500.68552,705.71537 488.648,676.95199 477.06687,647.99996 c -2.87859,-7.19637 -13.73324,-23.97005 -9.02474,-31.47526 3.08919,-4.92399 12.19816,-6.7539 17.29117,-8.79118 15.58887,-6.23575 31.08057,-12.69344 46.66667,-18.9331 15.51489,-6.21118 31.72509,-15.44075 47.99999,-19.26448 5.42692,-1.27507 9.41325,2.97281 14.78597,1.29947 39.89535,-12.42561 78.46301,-32.76342 117.21403,-48.43627 16.92089,-6.84367 33.86417,-13.73674 50.66666,-20.86629 2.0848,-0.88461 18.23413,-7.2841 14.43213,0.91259 m -61.09879,124.22119 c 9.47216,4.73169 12.27376,18.78296 16.19954,28 10.92196,25.64306 21.18408,51.56909 31.81486,77.33333 2.00488,4.859 15.7915,29.53332 9.84871,33.09875 -3.28792,1.97261 -5.9956,-2.87948 -7.13786,-5.12447 -4.13143,-8.12012 -6.95939,-16.93457 -10.52571,-25.30762 -10.73609,-25.20666 -21.05778,-50.62691 -31.39502,-75.99999 -3.94954,-9.69426 -11.72103,-21.36638 -8.80452,-32 m 37.33333,-473.33331 -13.86621,32 -26.93425,68 -14.48144,40 13.94857,37.33333 h 2.66666 l 37.40023,-100 14.97526,-41.33333 -13.70882,-36 m 2.57715,631.11723 c -2.90853,3.68868 -6.88453,-2.28369 -8.03809,-4.47631 -4.22225,-8.0256 -7.4078,-16.90418 -10.80656,-25.30762 -13.19962,-32.63611 -27.28808,-64.9366 -41.06583,-97.33333 -2.4659,-5.7983 -15.08464,-26.84358 -10.58122,-32.4506 2.95947,-3.68473 6.72778,2.25895 7.85596,4.47632 4.12101,8.09961 7.24487,16.90885 10.71085,25.30762 13.42074,32.52058 27.0791,65.01444 40.97323,97.33332 2.40568,5.59575 15.09033,27.20191 10.95166,32.4506 M 745.33329,147.99999 c -10.17334,3.44173 -25.91756,7.19938 -34.00203,14.41976 -7.43051,6.63623 -10.50236,21.91813 -14.37248,30.91357 -5.8173,13.52124 -19.19674,33.32446 -19.82609,48 -0.43933,10.24414 9.84814,32.1372 16.2006,40 l 32.53288,-81.33333 19.46712,-52 m -10.80762,657.83639 c -2.94816,4.46451 -6.94808,-2.25513 -8.03906,-4.52881 -4.37614,-9.1202 -8.05469,-18.66691 -12.01953,-27.97428 -16.77555,-39.38025 -32.81934,-79.09875 -49.14819,-118.66666 -4.41577,-10.7002 -8.99793,-21.34375 -13.51851,-32 -1.25721,-2.96362 -4.88912,-9.16691 -2.37757,-12.26546 3.36902,-4.15633 7.54643,3.23576 8.65328,5.60498 5.08077,10.87548 9.22441,22.27701 13.92387,33.32714 16.57715,38.97917 32.37841,78.27694 48.76749,117.33333 3.91407,9.32747 7.9895,18.61466 11.76026,28 1.17635,2.92785 4.04183,8.07475 1.99796,11.16976 m -13.28084,-353.072 c -3.15121,4.72037 -7.10034,-2.34156 -8.26538,-4.785 -4.73096,-9.92236 -8.58976,-20.45377 -12.712,-30.64607 -17.31917,-42.82161 -35.30049,-85.5026 -53.40128,-127.99999 -5.09757,-11.96827 -9.98584,-24.02425 -15.06575,-36 -1.29053,-3.04224 -4.90088,-9.25977 -2.37761,-12.4506 3.30648,-4.18132 7.58513,3.50097 8.65332,5.79012 5.48584,11.7574 9.97274,24.0555 15.05758,35.99381 18.11165,42.52295 35.22025,85.47338 53.33337,127.99999 4.33903,10.18726 8.52921,20.43587 12.7644,30.66667 1.302,3.14518 4.25432,8.07421 2.01335,11.43107 m -9.24487,365.90224 c -12.80388,-2.03593 -17.93067,-28.01587 -22.46712,-38.66667 -17.73621,-41.64172 -35.49683,-83.37459 -52.46704,-125.33332 -4.69035,-11.59676 -9.6294,-23.0966 -14.38477,-34.66667 -1.3658,-3.32308 -5.34611,-10.33553 -2.59676,-13.78393 3.95638,-4.9624 8.46159,6.16854 9.44759,8.4506 5.52938,12.79687 10.87679,25.72884 16.06787,38.66666 15.43095,38.45862 32.5684,76.20646 48,114.66666 6.29923,15.69967 17.61881,33.60669 18.40023,50.66667 m -22.66667,21.33333 h -1.33333 l -16,38.66666 28,-10.66666 -10.66667,-28 m 10.66667,-673.33329 -46.66667,18.66666 18.66667,45.33333 c 12.56144,-16.59765 21.28076,-44.2609 28,-63.99999 m -12,273.33331 c -11.82438,-1.92448 -16.3866,-23.54866 -20.56173,-33.33333 l -44.7716,-105.33333 c -4.35873,-10.24902 -9.20215,-20.31599 -13.3138,-30.66666 -1.10075,-2.771 -3.74349,-8.15657 -0.58537,-10.55143 3.91618,-2.96965 6.87988,4.06372 7.99894,6.55762 4.9528,11.03767 9.7028,22.20556 14.46191,33.32714 13.67416,31.955 27.52714,63.87117 40.78605,96 5.62631,13.63362 15.63509,29.09334 15.9856,43.99999 m -18.66667,350.66665 -13.33333,32 -28,73.33333 c 9.11605,-1.56971 27.35791,-7.06303 33.73047,-13.99895 6.35941,-6.92163 9.3293,-21.29443 12.92179,-30.00105 2.87679,-6.97213 8.73014,-16.3927 8.78394,-24 0.0795,-11.24239 -9.3761,-27.22851 -14.10287,-37.33333 m -21.33333,-50.66667 c -19.28402,36.20996 -30.53369,78.96541 -45.07715,117.33333 -7.06054,18.62683 -17.48453,33.93734 -10.92285,53.33333 7.20427,-1.28023 20.33553,-5.05265 25.54322,-10.42387 5.40372,-5.57348 7.43953,-17.10404 10.20467,-24.24279 7.3872,-19.07109 14.37752,-38.29814 21.85603,-57.33333 4.10629,-10.45174 14.77222,-27.64335 14.62549,-38.66667 -0.14775,-11.1007 -10.14868,-30.84309 -16.22941,-40 m 9.33333,-298.66664 c -10.86897,-3.14372 -14.68587,-21.05542 -18.65226,-30.66667 -12.14469,-29.42895 -24.67269,-58.70979 -37.14819,-87.99999 -3.76351,-8.83627 -7.75513,-17.6683 -11.11312,-26.66667 -0.95809,-2.56738 -3.58691,-8.42765 -0.28702,-10.43213 3.69669,-2.24544 6.44856,4.08619 7.55452,6.43832 4.30697,9.15991 7.88029,18.68392 11.84562,27.99381 12.09538,28.39787 24.49365,56.71598 36.06795,85.33333 4.32015,10.68156 13.4915,24.29052 11.7325,36 m -28,249.33331 -8.42488,16 -13.81689,36 -28.49178,74.66666 -11.12858,29.33333 15.19547,40 15.2325,-37.33333 29.33333,-77.33333 15.75725,-43.99999 -13.65642,-37.33334 m -2.83846,-257.83535 c -4.64233,7.91846 -14.02701,-16.65006 -15.26236,-19.49796 -10.78288,-24.85832 -22.13794,-49.54932 -32.29834,-74.66666 -2.17066,-5.36613 -11.42245,-19.20508 -8.09676,-24.8313 4.59887,-7.77995 14.17448,17.86393 15.45475,20.8313 10.55672,24.46761 21.35416,48.82283 31.81282,73.33333 2.19483,5.14379 11.50521,19.51749 8.38989,24.83129 M 609.3333,641.33329 c -11.92009,7.2133 -18.05974,37.81751 -23.19955,50.66667 l -28.80045,71.99999 c -3.42627,8.56673 -11.66333,21.38408 -11.21094,30.66667 0.59904,12.2902 10.50545,30.72196 16.54427,41.33333 l 16.0669,-40 27.16454,-70.66666 16.51954,-46.66666 -13.08431,-37.33334 m -22.66667,-50.66666 c -15.9178,34.02864 -27.86523,70.36975 -41.60392,105.33333 -5.56697,14.16748 -18.20483,34.16361 -18.77156,49.33333 -0.36133,9.67191 9.26204,29.68803 15.04215,37.33333 18.29606,-32.14958 29.15088,-70.98376 42.9331,-105.33333 5.59294,-13.93937 17.56364,-32.92325 18.01449,-48 0.31592,-10.56721 -8.98771,-30.63891 -15.61426,-38.66666 m 3.84465,-164.83023 c -4.65406,6.82731 -10.61744,-10.11125 -11.64405,-12.50309 -7.04809,-16.42139 -14.26285,-32.7841 -21.00512,-49.33333 -1.62598,-3.99097 -7.80217,-13.60213 -4.44344,-17.78394 4.67301,-5.81819 10.31339,9.98348 11.34879,12.4506 6.90332,16.44873 14.14649,32.80282 20.83333,49.33334 1.63925,4.0524 7.83269,13.54972 4.91049,17.83642 m -7.84465,151.4969 c -9.77417,2.31624 -25.47542,6.8007 -32.81274,13.89095 -5.09709,4.92545 -6.89771,13.12426 -9.6687,19.44238 -6.61353,15.07894 -13.16048,30.18693 -19.62354,45.33333 -4.70768,11.0328 -15.20768,26.45528 -14.84261,38.66666 0.38119,12.745 10.22551,26.67904 14.28093,38.66667 h 2.66666 l 41.0669,-105.33333 18.9331,-50.66666 m -48,-209.33332 c 13.11377,1.04492 19.04606,33.05826 23.09156,43.99999 1.38142,3.73641 5.87874,11.29688 3.21704,15.16976 -5.24512,7.63192 -12.47201,-16.4274 -13.43311,-19.16975 -1.8798,-5.36434 -3.90356,-10.69939 -5.9567,-16 -3.09839,-7.99886 -6.71517,-15.29867 -6.91879,-24 m 2.66667,227.99998 c -9.36247,1.66374 -31.3702,8.10669 -36.77775,16.2994 -6.66463,10.09733 -5.78174,24.78963 -15.22225,33.03393 l 14.66667,37.33334 13.14713,-28 24.1862,-58.66667 m -6.70264,-174.46808 c -4.4082,5.02547 -16.35546,-17.35092 -11.12662,-21.8632 5.23299,-4.51579 15.01676,17.4283 11.12662,21.8632 m -39.96402,193.13475 -16,6.66667 6.66666,15.99999 z"
       id="path1" />
  </g>
</svg>
