<?xml version="1.0" encoding="UTF-8" standalone="no"?>
<!-- Created with Inkscape (http://www.inkscape.org/) -->

<svg
   version="1.1"
   id="svg1"
   width="1333.3333"
   height="1333.3333"
   viewBox="0 0 1333.3333 1333.3333"
   sodipodi:docname="CurbDrop_Curve_L_BRorBR_L.svg"
   inkscape:version="1.4.2 (ebf0e940d0, 2025-05-08)"
   xmlns:inkscape="http://www.inkscape.org/namespaces/inkscape"
   xmlns:sodipodi="http://sodipodi.sourceforge.net/DTD/sodipodi-0.dtd"
   xmlns="http://www.w3.org/2000/svg"
   xmlns:svg="http://www.w3.org/2000/svg">
  <defs
     id="defs1" />
  <sodipodi:namedview
     id="namedview1"
     pagecolor="#505050"
     bordercolor="#eeeeee"
     borderopacity="1"
     inkscape:showpageshadow="0"
     inkscape:pageopacity="0"
     inkscape:pagecheckerboard="0"
     inkscape:deskcolor="#505050"
     showgrid="false"
     inkscape:zoom="0.59400004"
     inkscape:cx="665.82488"
     inkscape:cy="666.66663"
     inkscape:window-width="1920"
     inkscape:window-height="995"
     inkscape:window-x="0"
     inkscape:window-y="0"
     inkscape:window-maximized="1"
     inkscape:current-layer="g1" />
  <g
     inkscape:groupmode="layer"
     inkscape:label="Image"
     id="g1">
    <path
       style="fill:#d228ff;stroke:none"
       d="m 989.09874,590.88782 c -2.12094,-4.57255 -10.17277,-6.25097 -14.43213,-7.95475 -13.3335,-5.33358 -26.78768,-10.43937 -40,-16.06685 -53.35774,-22.72648 -107.48478,-43.99272 -161.33332,-65.53292 -16.47567,-6.59049 -32.85189,-13.43367 -49.33333,-20 -2.40682,-0.95886 -15.53459,-7.0111 -14.61727,0.0545 0.68563,5.28145 10.57641,7.39599 14.61727,9.01237 16.03059,6.41243 31.9672,13.05269 47.99999,19.46602 54.7605,21.90499 109.24235,44.4965 163.99999,66.40018 13.80249,5.52116 27.49097,11.38851 41.33333,16.79427 2.29834,0.89755 15.09929,5.01449 11.76547,-2.17285 M 881.33328,887.99995 C 781.97782,847.23766 682.1532,807.69534 582.66663,767.19543 c -27.10009,-11.03215 -54.3527,-21.77287 -81.33333,-33.09464 -11.53222,-4.8392 -27.39746,-14.83936 -39.99999,-14.10083 15.68717,15.22029 49.16747,21.43709 69.33332,29.89916 54.42057,22.83635 109.21159,44.96761 163.99999,66.90129 17.36434,6.95157 34.63371,14.11897 52,21.06575 4.85034,1.94019 15.98364,4.17513 18.34985,9.32519 1.62541,3.53776 -1.50927,9.2583 -2.34985,12.8086 -49.12483,-13.43596 -96.82678,-40.25236 -143.99999,-59.47119 -11.13997,-4.53857 -22.11003,-9.52384 -33.33333,-13.85701 -2.83138,-1.09318 -9.49219,-4.28296 -11.76546,-0.58635 -2.4668,4.01139 5.375,6.76538 7.76643,7.80859 11.05502,4.82243 22.184,9.49154 33.33236,14.09156 48.03869,19.82161 95.55053,41.22257 143.99999,60.0144 -26.00773,67.03572 -53.91992,133.52665 -81.34773,199.99995 -6.41415,15.5452 -12.84066,31.0915 -19.18107,46.6667 -1.72567,4.2391 -3.84538,14.9564 -9.10392,16.0237 -5.29322,1.0744 -13.625,-4.2771 -18.36727,-6.3159 -14.13997,-6.0788 -28.43962,-11.8221 -42.66667,-17.6934 -55.17984,-22.7718 -110.05077,-46.2963 -165.33332,-68.8189 -17.41243,-7.094 -34.61857,-14.7047 -52,-21.8766 -3.0839,-1.2724 -14.45092,-8.0126 -16.33129,-2.2819 -2.08732,6.3615 16.29191,11.0428 20.33129,12.7635 23.96175,10.2074 47.87972,20.5105 72,30.3374 43.72054,17.8121 87.13622,36.3631 130.66666,54.6296 20.78654,8.7226 46.27067,15.0455 65.19759,27.2787 6.34879,4.1035 0.26896,11.0918 5.8929,15.4693 6.64197,5.1697 17.14079,7.5107 24.9095,10.6183 16.91667,6.7669 33.82357,13.5975 50.66667,20.5473 7.51595,3.1012 19.60693,11.1144 27.92691,9.9814 6.85279,-0.9332 9.13526,-12.6526 11.27263,-17.9958 7.29931,-18.2477 14.65145,-36.498 22.14819,-54.6667 32.1171,-77.8373 67.24894,-155.58365 95.98559,-234.66665 m -28,45.33333 c -9.95955,-15.00163 -16.5896,-38.62085 -21.33333,-56 7.52279,1.29533 33.96427,8.27401 36.2819,16.28499 2.63623,9.11214 -10.41716,31.75269 -14.94857,39.71501 m -21.33333,51.99999 c -8.83846,-13.3129 -12.6438,-31.76831 -18.41463,-46.66666 -9.85344,-25.43856 -25.54614,-54.3658 -29.58537,-81.33333 10.10116,2.39925 30.56486,8.09635 37.88167,15.59871 5.66594,5.80957 8.0083,20.70687 10.88583,28.40129 4.45483,11.91219 15.52457,30.19083 15.76131,42.66666 0.21411,11.28255 -10.35889,32.04191 -16.52881,41.33333 M 830.4958,638.16354 c -3.42896,-5.15072 -7.86825,3.44645 -8.88989,5.84261 -4.33073,10.15742 -8.45321,20.40173 -12.53906,30.66048 -1.3632,3.42264 -4.68075,9.13981 -2.32618,12.7644 3.42017,5.26489 7.46306,-3.77393 8.48666,-6.10287 4.63305,-10.54105 8.78247,-21.29768 13.03906,-31.99487 1.13883,-2.86198 4.25122,-8.13281 2.22941,-11.16975 m -19.82918,401.83636 h -1.33334 l -34.73762,-101.33329 -16.39201,-46.66666 15.12964,-38.66667 h 1.33333 c 5.03581,33.62142 24.98641,69.53865 37.07715,101.33333 4.45442,11.71362 7.50935,29.36759 17.58951,37.33333 l -18.66666,47.99996 m 1.33333,-430.6666 c -8.63419,1.40535 -10.1748,10.10335 -13.06689,17.33333 l -19.73356,49.33333 c -1.76245,4.40605 -9.42505,17.17228 -5.78076,21.59879 5.37475,6.52832 12.12426,-14.7893 13.24788,-17.59879 8.42082,-21.05497 24.79972,-47.86979 25.33333,-70.66666 m -20,476 h -1.33333 c -15.65381,-33.4723 -23.99089,-70.7805 -37.07715,-105.33336 -4.62166,-12.20296 -6.79166,-29.30924 -16.25618,-38.66666 l 14.66666,-37.33334 h 2.66667 l 36.44442,105.33336 14.08235,41.3333 -13.19344,34.6667 m 4,-497.33334 c -10.62728,-3.55802 -14.19759,15.03333 -17.34774,22.66667 -7.70808,18.67798 -15.39941,37.36759 -23.21809,56 -4.1364,9.85738 -9.84579,19.81811 -10.10083,30.66666 10.40625,-1.69368 13.28125,-16.78544 16.95882,-25.33333 11.53434,-26.80965 26.9764,-55.59415 33.70784,-84 m -22.66666,543.99994 h -2.66667 c -15.07674,-46.2556 -40.64298,-91.3511 -51.75106,-138.66663 -2.22696,-9.48592 9.09929,-37.39111 17.0844,-42.66666 l 36.45881,106.66669 14.09058,38.6666 -13.21606,36 m 3.76546,-301.11209 c -3.78923,-8.16919 -27.72266,-13.41203 -35.76546,-16.78703 -34.59733,-14.51798 -69.20255,-29.13533 -104,-43.16666 -10.68701,-4.30933 -21.33422,-8.71037 -31.99999,-13.07202 -3.50456,-1.43319 -9.82601,-3.13957 -10.69035,-7.47941 -0.9926,-4.98397 3.81299,-12.52336 5.62345,-17.0494 5.5236,-13.80859 11.26156,-27.52873 16.80046,-41.33333 21.43733,-53.42826 43.36413,-106.67793 65.07096,-159.99999 7.06266,-17.34916 14.36743,-34.61003 21.32926,-52 2.17326,-5.42855 7.87003,-14.17651 2.75513,-19.33439 -6.23365,-6.28609 -19.46297,-8.84245 -27.55558,-12.1368 -20.45423,-8.32658 -40.82772,-16.85917 -61.33333,-25.06172 -6.23942,-2.49585 -22.2793,-12.39413 -28.66879,-8.50411 -3.86002,2.35005 -5.479,9.10726 -7.06372,13.03702 -4.65779,11.55066 -9.05607,23.22429 -13.97534,34.66667 -19.30973,44.91536 -37.20068,90.60546 -55.35904,135.99999 -11.58089,28.95125 -23.61841,57.71464 -35.19954,86.66666 -2.87859,7.19637 -13.73324,23.97005 -9.02474,31.47526 3.08919,4.92399 12.19816,6.75391 17.29117,8.79118 15.58887,6.23576 31.08057,12.69344 46.66667,18.9331 15.51489,6.21118 31.72509,15.44076 47.99999,19.26449 5.42692,1.27506 9.41325,-2.97282 14.78597,-1.29948 39.89535,12.42562 78.46301,32.76342 117.21403,48.43627 16.92089,6.84367 33.86417,13.73674 50.66666,20.86629 2.0848,0.88461 18.23413,7.2841 14.43213,-0.91259 M 715.99996,706.66662 c 9.47216,-4.73169 12.27376,-18.78295 16.19954,-27.99999 10.92196,-25.64307 21.18408,-51.56909 31.81486,-77.33333 2.00488,-4.85901 15.7915,-29.53333 9.84871,-33.09876 -3.28792,-1.97261 -5.9956,2.87948 -7.13786,5.12447 -4.13143,8.12012 -6.95939,16.93457 -10.52571,25.30762 -10.73609,25.20666 -21.05778,50.62691 -31.39502,76 -3.94954,9.69425 -11.72103,21.36637 -8.80452,31.99999 m 37.33333,473.33328 -13.86621,-32 -26.93425,-68 -14.48144,-40 13.94857,-37.3333 h 2.66666 l 37.40023,100 14.97526,41.3333 -13.70882,36 m 2.57715,-631.1172 c -2.90853,-3.68868 -6.88453,2.28369 -8.03809,4.47632 -4.22225,8.02559 -7.4078,16.90417 -10.80656,25.30761 -13.19962,32.63611 -27.28808,64.9366 -41.06583,97.33333 -2.4659,5.7983 -15.08464,26.84358 -10.58122,32.4506 2.95947,3.68473 6.72778,-2.25895 7.85596,-4.47632 4.12101,-8.09961 7.24487,-16.90885 10.71085,-25.30761 13.42074,-32.52059 27.0791,-65.01445 40.97323,-97.33333 2.40568,-5.59575 15.09033,-27.2019 10.95166,-32.4506 m -10.57715,636.4506 c -10.17334,-3.4418 -25.91756,-7.1994 -34.00203,-14.4198 -7.43051,-6.6362 -10.50236,-21.9181 -14.37248,-30.9136 -5.8173,-13.5212 -19.19674,-33.3244 -19.82609,-48 -0.43933,-10.2441 9.84814,-32.1372 16.2006,-40 l 32.53288,81.3334 19.46712,52 M 734.52567,527.49688 c -2.94816,-4.46452 -6.94808,2.25512 -8.03906,4.5288 -4.37614,9.1202 -8.05469,18.66691 -12.01953,27.97429 -16.77555,39.38024 -32.81934,79.09875 -49.14819,118.66666 -4.41577,10.70019 -8.99793,21.34374 -13.51851,31.99999 -1.25721,2.96363 -4.88912,9.16691 -2.37757,12.26546 3.36902,4.15634 7.54643,-3.23575 8.65328,-5.60498 5.08077,-10.87548 9.22441,-22.27701 13.92387,-33.32714 16.57715,-38.97917 32.37841,-78.27693 48.76749,-117.33333 3.91407,-9.32747 7.9895,-18.61466 11.76026,-28 1.17635,-2.92785 4.04183,-8.07474 1.99796,-11.16975 m -13.28084,353.072 c -3.15121,-4.72038 -7.10034,2.34155 -8.26538,4.78499 -4.73096,9.92236 -8.58976,20.45377 -12.712,30.64607 -17.31917,42.82162 -35.30049,85.50256 -53.40128,127.99996 -5.09757,11.9683 -9.98584,24.0243 -15.06575,36 -1.29053,3.0423 -4.90088,9.2598 -2.37761,12.4506 3.30648,4.1814 7.58513,-3.5009 8.65332,-5.7901 5.48584,-11.7574 9.97274,-24.0555 15.05758,-35.9938 18.11165,-42.5229 35.22025,-85.47338 53.33337,-127.99999 4.33903,-10.18725 8.52921,-20.43587 12.7644,-30.66666 1.302,-3.14519 4.25432,-8.07422 2.01335,-11.43107 m -9.24487,-365.90224 c -12.80388,2.03592 -17.93067,28.01586 -22.46712,38.66666 -17.73621,41.64172 -35.49683,83.37459 -52.46704,125.33333 -4.69035,11.59676 -9.6294,23.09659 -14.38477,34.66666 -1.3658,3.32308 -5.34611,10.33553 -2.59676,13.78393 3.95638,4.96241 8.46159,-6.16853 9.44759,-8.4506 5.52938,-12.79687 10.87679,-25.72884 16.06787,-38.66666 15.43095,-38.45862 32.5684,-76.20646 48,-114.66666 6.29923,-15.69967 17.61881,-33.60669 18.40023,-50.66666 M 689.33329,493.3333 h -1.33333 l -16,-38.66666 28,10.66666 -10.66667,28 m 10.66667,673.3333 -46.66667,-18.6667 18.66667,-45.3333 c 12.56144,16.5977 21.28076,44.2609 28,64 m -12,-273.33332 c -11.82438,1.92448 -16.3866,23.54866 -20.56173,33.33333 l -44.7716,105.33329 c -4.35873,10.2491 -9.20215,20.316 -13.3138,30.6667 -1.10075,2.771 -3.74349,8.1566 -0.58537,10.5514 3.91618,2.9697 6.87988,-4.0637 7.99894,-6.5576 4.9528,-11.0377 9.7028,-22.2055 14.46191,-33.3271 13.67416,-31.955 27.52714,-63.8712 40.78605,-96.00002 5.62631,-13.63363 15.63509,-29.09335 15.9856,-44 m -18.66667,-350.66665 -13.33333,-31.99999 -28,-73.33333 c 9.11605,1.5697 27.35791,7.06303 33.73047,13.99894 6.35941,6.92163 9.3293,21.29443 12.92179,30.00105 2.87679,6.97213 8.73014,16.3927 8.78394,24 0.0795,11.24239 -9.3761,27.22852 -14.10287,37.33333 m -21.33333,50.66667 c -19.28402,-36.20996 -30.53369,-78.96541 -45.07715,-117.33333 -7.06054,-18.62683 -17.48453,-33.93733 -10.92285,-53.33333 7.20427,1.28023 20.33553,5.05265 25.54322,10.42387 5.40372,5.57349 7.43953,17.10404 10.20467,24.2428 7.3872,19.07108 14.37752,38.29813 21.85603,57.33333 4.10629,10.45174 14.77222,27.64334 14.62549,38.66666 -0.14775,11.10071 -10.14868,30.8431 -16.22941,40 m 9.33333,298.66665 c -10.86897,3.14371 -14.68587,21.05541 -18.65226,30.66666 -12.14469,29.42895 -24.67269,58.70979 -37.14819,87.99999 -3.76351,8.8363 -7.75513,17.6683 -11.11312,26.6667 -0.95809,2.5674 -3.58691,8.4276 -0.28702,10.4321 3.69669,2.2454 6.44856,-4.0862 7.55452,-6.4383 4.30697,-9.1599 7.88029,-18.6839 11.84562,-27.9938 12.09538,-28.39789 24.49365,-56.71601 36.06795,-85.33336 4.32015,-10.68156 13.4915,-24.29052 11.7325,-35.99999 m -28,-249.33332 -8.42488,-16 -13.81689,-36 -28.49178,-74.66666 -11.12858,-29.33333 15.19547,-40 15.2325,37.33333 29.33333,77.33333 15.75725,44 -13.65642,37.33333 m -2.83846,257.83535 c -4.64233,-7.91846 -14.02701,16.65006 -15.26236,19.49796 -10.78288,24.85832 -22.13794,49.54932 -32.29834,74.66667 -2.17066,5.36609 -11.42245,19.20509 -8.09676,24.83129 4.59887,7.78 14.17448,-17.8639 15.45475,-20.83129 10.55672,-24.46761 21.35416,-48.82284 31.81282,-73.33333 2.19483,-5.1438 11.50521,-19.5175 8.38989,-24.8313 M 609.3333,691.99996 c -11.92009,-7.2133 -18.05974,-37.8175 -23.19955,-50.66667 L 557.3333,569.3333 c -3.42627,-8.56673 -11.66333,-21.38407 -11.21094,-30.66667 0.59904,-12.2902 10.50545,-30.72196 16.54427,-41.33333 l 16.0669,40 27.16454,70.66666 16.51954,46.66667 -13.08431,37.33333 m -22.66667,50.66666 c -15.9178,-34.02864 -27.86523,-70.36975 -41.60392,-105.33333 -5.56697,-14.16748 -18.20483,-34.16361 -18.77156,-49.33333 -0.36133,-9.67191 9.26204,-29.68802 15.04215,-37.33333 18.29606,32.14958 29.15088,70.98376 42.9331,105.33333 5.59294,13.93937 17.56364,32.92326 18.01449,48 0.31592,10.56722 -8.98771,30.63891 -15.61426,38.66666 m 3.84465,164.83023 c -4.65406,-6.82731 -10.61744,10.11125 -11.64405,12.50309 -7.04809,16.42139 -14.26285,32.7841 -21.00512,49.33333 -1.62598,3.99097 -7.80217,13.60214 -4.44344,17.78394 4.67301,5.81819 10.31339,-9.98348 11.34879,-12.4506 6.90332,-16.44873 14.14649,-32.80282 20.83333,-49.33333 1.63925,-4.05241 7.83269,-13.54973 4.91049,-17.83643 m -7.84465,-151.4969 c -9.77417,-2.31624 -25.47542,-6.8007 -32.81274,-13.89095 -5.09709,-4.92545 -6.89771,-13.12426 -9.6687,-19.44238 -6.61353,-15.07894 -13.16048,-30.18693 -19.62354,-45.33333 -4.70768,-11.03279 -15.20768,-26.45528 -14.84261,-38.66666 0.38119,-12.745 10.22551,-26.67904 14.28093,-38.66667 h 2.66666 l 41.0669,105.33333 18.9331,50.66666 m -48,209.33332 c 13.11377,-1.04492 19.04606,-33.05826 23.09156,-43.99999 1.38142,-3.73641 5.87874,-11.29688 3.21704,-15.16976 -5.24512,-7.63192 -12.47201,16.42741 -13.43311,19.16976 -1.8798,5.36434 -3.90356,10.69938 -5.9567,16 -3.09839,7.99886 -6.71517,15.29866 -6.91879,23.99999 m 2.66667,-227.99998 c -9.36247,-1.66374 -31.3702,-8.10669 -36.77775,-16.2994 -6.66463,-10.09733 -5.78174,-24.78963 -15.22225,-33.03393 l 14.66667,-37.33333 13.14713,28 24.1862,58.66666 m -6.70264,174.46809 c -4.4082,-5.02548 -16.35546,17.35091 -11.12662,21.8632 5.23299,4.51578 15.01676,-17.42831 11.12662,-21.8632 m -39.96402,-193.13476 -16,-6.66666 6.66666,-16 z"
       id="path1" />
  </g>
</svg>
