<?xml version="1.0" encoding="UTF-8" standalone="no"?>
<!-- Created with Inkscape (http://www.inkscape.org/) -->

<svg
   version="1.1"
   id="svg1"
   width="1333.3333"
   height="1333.3333"
   viewBox="0 0 1333.3333 1333.3333"
   sodipodi:docname="CurbDrop_Curve_B_TRorTR_B.svg"
   inkscape:version="1.4.2 (ebf0e940d0, 2025-05-08)"
   xmlns:inkscape="http://www.inkscape.org/namespaces/inkscape"
   xmlns:sodipodi="http://sodipodi.sourceforge.net/DTD/sodipodi-0.dtd"
   xmlns="http://www.w3.org/2000/svg"
   xmlns:svg="http://www.w3.org/2000/svg">
  <defs
     id="defs1" />
  <sodipodi:namedview
     id="namedview1"
     pagecolor="#505050"
     bordercolor="#eeeeee"
     borderopacity="1"
     inkscape:showpageshadow="0"
     inkscape:pageopacity="0"
     inkscape:pagecheckerboard="0"
     inkscape:deskcolor="#505050"
     showgrid="false"
     inkscape:zoom="0.59400004"
     inkscape:cx="665.82488"
     inkscape:cy="666.66663"
     inkscape:window-width="1920"
     inkscape:window-height="995"
     inkscape:window-x="0"
     inkscape:window-y="0"
     inkscape:window-maximized="1"
     inkscape:current-layer="g1" />
  <g
     inkscape:groupmode="layer"
     inkscape:label="Image"
     id="g1">
    <path
       style="fill:#d228ff;stroke:none"
       d="m 590.88782,344.23452 c -4.57255,2.12093 -6.25097,10.17277 -7.95475,14.43212 -5.33358,13.3335 -10.43937,26.78768 -16.06685,40 -22.72648,53.35775 -43.99272,107.48478 -65.53292,161.33333 -6.59049,16.47566 -13.43367,32.85188 -20,49.33333 -0.95886,2.40682 -7.0111,15.53458 0.0545,14.61726 5.28145,-0.68562 7.39599,-10.57641 9.01237,-14.61726 6.41243,-16.0306 13.05269,-31.96721 19.46602,-48 21.90499,-54.7605 44.4965,-109.24234 66.40018,-163.99999 5.52116,-13.80249 11.38851,-27.49097 16.79427,-41.33333 0.89755,-2.29834 5.01449,-15.09928 -2.17285,-11.76546 m 297.11213,107.76545 c -40.76229,99.35547 -80.30461,199.18008 -120.80452,298.66665 -11.03215,27.1001 -21.77287,54.3527 -33.09464,81.33333 -4.8392,11.53223 -14.83936,27.39746 -14.10083,40 15.22029,-15.68718 21.43709,-49.16748 29.89916,-69.33333 22.83635,-54.42057 44.96761,-109.21158 66.90129,-163.99999 6.95157,-17.36434 14.11897,-34.63371 21.06575,-52 1.94019,-4.85034 4.17513,-15.98364 9.32519,-18.34985 3.53776,-1.62541 9.2583,1.50928 12.8086,2.34985 -13.43596,49.12484 -40.25236,96.82678 -59.47119,143.99999 -4.53857,11.13998 -9.52384,22.11003 -13.85701,33.33333 -1.09318,2.83138 -4.28296,9.49219 -0.58635,11.76547 4.01139,2.46679 6.76538,-5.375 7.80859,-7.76644 4.82243,-11.05501 9.49154,-22.184 14.09156,-33.33236 19.82161,-48.03869 41.22257,-95.55053 60.0144,-143.99999 67.03572,26.00773 133.52665,53.91992 199.99995,81.34773 15.5452,6.41415 31.0915,12.84066 46.6667,19.18107 4.2391,1.72567 14.9564,3.84538 16.0237,9.10393 1.0744,5.29321 -4.2771,13.625 -6.3159,18.36726 -6.0788,14.13998 -11.8221,28.43962 -17.6934,42.66667 -22.7718,55.17984 -46.2963,110.05077 -68.8189,165.33332 -7.094,17.41243 -14.7047,34.61857 -21.8766,52 -1.2724,3.0839 -8.0126,14.45092 -2.2819,16.3313 6.3615,2.08732 11.0428,-16.29191 12.7635,-20.3313 10.2074,-23.96175 20.5105,-47.87972 30.3374,-72 17.8121,-43.72054 36.3631,-87.13622 54.6296,-130.66666 8.7226,-20.78653 15.0455,-46.27066 27.2787,-65.19758 4.1035,-6.3488 11.0918,-0.26896 15.4693,-5.89291 5.1697,-6.64196 7.5107,-17.14078 10.6183,-24.9095 6.7669,-16.91667 13.5975,-33.82357 20.5473,-50.66666 3.1012,-7.51595 11.1144,-19.60694 9.9814,-27.92692 -0.9332,-6.85279 -12.6526,-9.13526 -17.9958,-11.27263 -18.2477,-7.29931 -36.498,-14.65144 -54.6667,-22.14819 -77.8373,-32.1171 -155.58365,-67.24894 -234.66665,-95.98559 m 45.33333,28 c -15.00163,9.95955 -38.62085,16.5896 -56,21.33333 1.29533,-7.52278 8.27401,-33.96427 16.28499,-36.2819 9.11214,-2.63623 31.75269,10.41716 39.71501,14.94857 m 51.99999,21.33333 c -13.3129,8.83846 -31.76831,12.6438 -46.66666,18.41463 -25.43856,9.85344 -54.3658,25.54614 -81.33333,29.58537 2.39925,-10.10116 8.09635,-30.56486 15.59871,-37.88167 5.80957,-5.66593 20.70687,-8.0083 28.40129,-10.88582 11.91219,-4.45484 30.19083,-15.52458 42.66666,-15.76131 11.28255,-0.21412 32.04191,10.35888 41.33333,16.5288 m -347.16973,1.50415 c -5.15072,3.42896 3.44645,7.86825 5.84261,8.8899 10.15742,4.33072 20.40173,8.4532 30.66048,12.53906 3.42264,1.3632 9.13981,4.68074 12.7644,2.32617 5.26489,-3.42017 -3.77393,-7.46305 -6.10287,-8.48665 -10.54105,-4.63306 -21.29768,-8.78247 -31.99487,-13.03907 -2.86198,-1.13883 -8.13281,-4.25122 -11.16975,-2.22941 m 401.83636,19.82918 v 1.33334 l -101.33329,34.73763 -46.66666,16.392 -38.66667,-15.12963 v -1.33334 c 33.62142,-5.0358 69.53865,-24.98641 101.33333,-37.07714 11.71362,-4.45443 29.36759,-7.50936 37.33333,-17.58952 l 47.99996,18.66666 M 609.3333,521.3333 c 1.40535,8.6342 10.10335,10.17481 17.33333,13.0669 l 49.33333,19.73356 c 4.40605,1.76245 17.17228,9.42504 21.59879,5.78076 6.52832,-5.37476 -14.7893,-12.12427 -17.59879,-13.24789 -21.05497,-8.42081 -47.86979,-24.79972 -70.66666,-25.33333 m 476,20 v 1.33333 c -33.4723,15.65381 -70.7805,23.99089 -105.33336,37.07715 -12.20296,4.62166 -29.30924,6.79167 -38.66666,16.25618 L 903.99994,581.3333 v -2.66667 l 105.33336,-36.44441 41.3333,-14.08236 34.6667,13.19344 m -497.33334,-4 c -3.55802,10.62728 15.03333,14.19759 22.66667,17.34774 18.67798,7.70809 37.36759,15.39941 56,23.21809 9.85738,4.1364 19.81811,9.84579 30.66666,10.10083 -1.69368,-10.40625 -16.78544,-13.28125 -25.33333,-16.95882 -26.80965,-11.53434 -55.59415,-26.97639 -84,-33.70784 m 543.99994,22.66667 v 2.66666 c -46.2556,15.07674 -91.3511,40.64298 -138.66663,51.75106 -9.48592,2.22697 -37.39111,-9.09929 -42.66666,-17.08439 l 106.66669,-36.45882 38.6666,-14.09058 36,13.21607 M 830.88781,556.2345 c -8.16919,3.78923 -13.41203,27.72266 -16.78703,35.76546 -14.51798,34.59733 -29.13533,69.20255 -43.16666,104 -4.30933,10.68701 -8.71037,21.33422 -13.07202,32 -1.43319,3.50455 -3.13957,9.826 -7.47941,10.69034 -4.98397,0.9926 -12.52336,-3.81298 -17.0494,-5.62345 -13.80859,-5.5236 -27.52873,-11.26156 -41.33333,-16.80045 -53.42826,-21.43734 -106.67793,-43.36414 -159.99999,-65.07096 -17.34916,-7.06267 -34.61003,-14.36744 -52,-21.32927 -5.42855,-2.17326 -14.17651,-7.87003 -19.33439,-2.75512 -6.28609,6.23364 -8.84245,19.46297 -12.1368,27.55558 -8.32658,20.45422 -16.85917,40.82771 -25.06172,61.33333 -2.49585,6.23942 -12.39413,22.27929 -8.50411,28.66878 2.35005,3.86002 9.10726,5.479 13.03702,7.06372 11.55066,4.65779 23.22429,9.05607 34.66667,13.97534 44.91536,19.30973 90.60546,37.20068 135.99999,55.35904 28.95125,11.5809 57.71464,23.61841 86.66666,35.19955 7.19637,2.87858 23.97005,13.73323 31.47526,9.02474 4.92399,-3.0892 6.75391,-12.19816 8.79118,-17.29118 6.23576,-15.58887 12.69344,-31.08057 18.9331,-46.66667 6.21118,-15.51489 15.44076,-31.72509 19.26449,-47.99999 1.27506,-5.42692 -2.97282,-9.41325 -1.29948,-14.78597 12.42562,-39.89534 32.76342,-78.46301 48.43627,-117.21402 6.84367,-16.9209 13.73674,-33.86418 20.86629,-50.66667 0.88461,-2.0848 7.2841,-18.23413 -0.91259,-14.43213 m -124.22119,61.0988 c -4.73169,-9.47217 -18.78295,-12.27377 -27.99999,-16.19955 -25.64307,-10.92195 -51.56909,-21.18408 -77.33333,-31.81486 -4.85901,-2.00488 -29.53333,-15.7915 -33.09876,-9.84871 -1.97261,3.28792 2.87948,5.99561 5.12447,7.13786 8.12012,4.13143 16.93457,6.95939 25.30762,10.52571 25.20666,10.73609 50.62691,21.05778 76,31.39502 9.69425,3.94955 21.36637,11.72103 31.99999,8.80453 m 473.33328,-37.33334 -32,13.86621 -68,26.93425 -40,14.48144 -37.3333,-13.94856 v -2.66667 l 100,-37.40023 41.3333,-14.97526 36,13.70882 m -631.1172,-2.57714 c -3.68868,2.90852 2.28369,6.88452 4.47632,8.03808 8.02559,4.22225 16.90417,7.4078 25.30761,10.80656 32.63611,13.19963 64.9366,27.28808 97.33333,41.06583 5.7983,2.46591 26.84358,15.08464 32.4506,10.58122 3.68473,-2.95947 -2.25895,-6.72778 -4.47632,-7.85596 -8.09961,-4.12101 -16.90885,-7.24487 -25.30761,-10.71085 -32.52059,-13.42074 -65.01445,-27.0791 -97.33333,-40.97322 -5.59575,-2.40568 -27.2019,-15.09034 -32.4506,-10.95166 m 636.4506,10.57714 c -3.4418,10.17334 -7.1994,25.91756 -14.4198,34.00204 -6.6362,7.4305 -21.9181,10.50236 -30.9136,14.37247 -13.5212,5.8173 -33.3244,19.19674 -48,19.82609 -10.2441,0.43933 -32.1372,-9.84814 -40,-16.2006 l 81.3334,-32.53287 52,-19.46713 m -657.83642,10.80762 c -4.46452,2.94816 2.25512,6.94808 4.5288,8.03906 9.1202,4.37614 18.66691,8.05469 27.97429,12.01953 39.38024,16.77556 79.09875,32.81934 118.66666,49.14819 10.70019,4.41577 21.34374,8.99793 31.99999,13.51852 2.96363,1.2572 9.16691,4.88912 12.26546,2.37756 4.15634,-3.36902 -3.23575,-7.54643 -5.60498,-8.65328 -10.87548,-5.08077 -22.27701,-9.2244 -33.32714,-13.92387 -38.97917,-16.57714 -78.27693,-32.37841 -117.33333,-48.76749 -9.32747,-3.91406 -18.61466,-7.9895 -28,-11.76025 -2.92785,-1.17635 -8.07474,-4.04183 -11.16975,-1.99797 m 353.072,13.28084 c -4.72038,3.15121 2.34155,7.10034 4.78499,8.26538 9.92236,4.73096 20.45377,8.58977 30.64607,12.712 42.82162,17.31917 85.50256,35.30049 127.99996,53.40128 11.9683,5.09758 24.0243,9.98584 36,15.06575 3.0423,1.29053 9.2598,4.90088 12.4506,2.37761 4.1814,-3.30648 -3.5009,-7.58512 -5.7901,-8.65332 -11.7574,-5.48584 -24.0555,-9.97274 -35.9938,-15.05758 -42.5229,-18.11165 -85.47338,-35.22025 -127.99999,-53.33337 -10.18725,-4.33903 -20.43587,-8.52921 -30.66666,-12.7644 -3.14519,-1.302 -8.07422,-4.25431 -11.43107,-2.01335 m -365.90224,9.24488 c 2.03592,12.80387 28.01586,17.93066 38.66666,22.46712 41.64172,17.7362 83.37459,35.49682 125.33333,52.46703 11.59676,4.69035 23.09659,9.6294 34.66666,14.38477 3.32308,1.3658 10.33553,5.34611 13.78393,2.59676 4.96241,-3.95638 -6.16853,-8.46159 -8.4506,-9.44759 -12.79687,-5.52938 -25.72884,-10.87679 -38.66666,-16.06787 -38.45862,-15.43095 -76.20646,-32.5684 -114.66666,-48 -15.69967,-6.29923 -33.60669,-17.61881 -50.66666,-18.40022 m -21.33334,22.66666 v 1.33333 l -38.66666,16 10.66666,-28 28,10.66667 m 673.3333,-10.66667 -18.6667,46.66667 -45.3333,-18.66667 c 16.5977,-12.56144 44.2609,-21.28076 64,-28 m -273.33332,12 c 1.92448,11.82438 23.54866,16.3866 33.33333,20.56173 l 105.33329,44.7716 c 10.2491,4.35873 20.316,9.20215 30.6667,13.3138 2.771,1.10075 8.1566,3.74349 10.5514,0.58537 2.9697,-3.91618 -4.0637,-6.87988 -6.5576,-7.99894 -11.0377,-4.9528 -22.2055,-9.7028 -33.3271,-14.46191 -31.955,-13.67416 -63.8712,-27.52714 -96.00002,-40.78605 -13.63363,-5.6263 -29.09335,-15.63509 -44,-15.9856 m -350.66665,18.66667 -31.99999,13.33333 -73.33333,28 c 1.5697,-9.11605 7.06303,-27.35791 13.99894,-33.73047 6.92163,-6.35941 21.29443,-9.3293 30.00105,-12.92179 6.97213,-2.87679 16.3927,-8.73014 24,-8.78393 11.24239,-0.0795 27.22852,9.37609 37.33333,14.10286 m 50.66667,21.33333 c -36.20996,19.28402 -78.96541,30.53369 -117.33333,45.07715 -18.62683,7.06054 -33.93733,17.48453 -53.33333,10.92285 1.28023,-7.20427 5.05265,-20.33553 10.42387,-25.54321 5.57349,-5.40373 17.10404,-7.43954 24.2428,-10.20467 19.07108,-7.38721 38.29813,-14.37753 57.33333,-21.85604 10.45174,-4.10628 27.64334,-14.77222 38.66666,-14.62549 11.10071,0.14775 30.8431,10.14868 40,16.22941 m 298.66665,-9.33333 c 3.14371,10.86898 21.05541,14.68587 30.66666,18.65226 29.42895,12.14469 58.70979,24.67269 87.99999,37.14819 8.8363,3.76351 17.6683,7.75513 26.6667,11.11312 2.5674,0.95809 8.4276,3.58691 10.4321,0.28703 2.2454,-3.6967 -4.0862,-6.44857 -6.4383,-7.55453 -9.1599,-4.30696 -18.6839,-7.88029 -27.9938,-11.84562 -28.39789,-12.09538 -56.71601,-24.49365 -85.33336,-36.06795 -10.68156,-4.32015 -24.29052,-13.49149 -35.99999,-11.7325 m -249.33332,28 -16,8.42488 -36,13.8169 -74.66666,28.49178 -29.33333,11.12858 -40,-15.19548 37.33333,-15.2325 77.33333,-29.33333 44,-15.75724 37.33333,13.65641 m 257.83535,2.83846 c -7.91846,4.64233 16.65006,14.02701 19.49796,15.26237 24.85832,10.78287 49.54932,22.13793 74.66667,32.29833 5.36609,2.17066 19.20509,11.42245 24.83129,8.09676 7.78,-4.59887 -17.8639,-14.17447 -20.83129,-15.45475 -24.46761,-10.55672 -48.82284,-21.35416 -73.33333,-31.81282 -5.1438,-2.19482 -19.5175,-11.50521 -24.8313,-8.38989 m -208.50202,17.16154 c -7.2133,11.92008 -37.8175,18.05973 -50.66667,23.19954 l -71.99999,28.80045 c -8.56673,3.42627 -21.38407,11.66333 -30.66667,11.21094 -12.2902,-0.59904 -30.72196,-10.50545 -41.33333,-16.54427 l 40,-16.06689 70.66666,-27.16455 46.66667,-16.51953 37.33333,13.08431 m 50.66666,22.66666 c -34.02864,15.91781 -70.36975,27.86523 -105.33333,41.60392 -14.16748,5.56698 -34.16361,18.20483 -49.33333,18.77157 -9.67191,0.36132 -29.68802,-9.26205 -37.33333,-15.04216 32.14958,-18.29606 70.98376,-29.15088 105.33333,-42.9331 13.93937,-5.59294 32.92326,-17.56364 48,-18.01449 10.56722,-0.31591 30.63891,8.98772 38.66666,15.61426 m 164.83023,-3.84464 c -6.82731,4.65405 10.11125,10.61743 12.50309,11.64404 16.42139,7.04809 32.7841,14.26286 49.33333,21.00512 3.99097,1.62598 13.60214,7.80217 17.78394,4.44344 5.81819,-4.67301 -9.98348,-10.31339 -12.4506,-11.34879 -16.44873,-6.90332 -32.80282,-14.14648 -49.33333,-20.83333 -4.05241,-1.63924 -13.54973,-7.83268 -17.83643,-4.91048 m -151.4969,7.84464 c -2.31624,9.77417 -6.8007,25.47542 -13.89095,32.81274 -4.92545,5.09709 -13.12426,6.89771 -19.44238,9.6687 -15.07894,6.61353 -30.18693,13.16048 -45.33333,19.62354 -11.03279,4.70768 -26.45528,15.20768 -38.66666,14.84261 -12.745,-0.38119 -26.67904,-10.22551 -38.66667,-14.28093 v -2.66666 l 105.33333,-41.06689 50.66666,-18.93311 m 209.33332,48 c -1.04492,-13.11377 -33.05826,-19.04606 -43.99999,-23.09155 -3.73641,-1.38143 -11.29688,-5.87875 -15.16976,-3.21704 -7.63192,5.24511 16.42741,12.472 19.16976,13.4331 5.36434,1.8798 10.69938,3.90356 16,5.95671 7.99886,3.09838 15.29866,6.71516 23.99999,6.91878 m -227.99998,-2.66667 c -1.66374,9.36247 -8.10669,31.3702 -16.2994,36.77775 -10.09733,6.66463 -24.78963,5.78174 -33.03393,15.22225 l -37.33333,-14.66667 28,-13.14713 58.66666,-24.1862 m 174.46809,6.70264 c -5.02548,4.4082 17.35091,16.35547 21.8632,11.12662 4.51578,-5.23299 -17.42831,-15.01676 -21.8632,-11.12662 m -193.13476,39.96403 -6.66666,15.99999 -16,-6.66666 z"
       id="path1" />
  </g>
</svg>
