<?xml version="1.0" encoding="UTF-8" standalone="no"?>
<!-- Created with Inkscape (http://www.inkscape.org/) -->

<svg
   version="1.1"
   id="svg1"
   width="1333.3333"
   height="1333.3333"
   viewBox="0 0 1333.3333 1333.3333"
   sodipodi:docname="CurbDrop_Horizontal.svg"
   inkscape:version="1.4.2 (ebf0e940d0, 2025-05-08)"
   xmlns:inkscape="http://www.inkscape.org/namespaces/inkscape"
   xmlns:sodipodi="http://sodipodi.sourceforge.net/DTD/sodipodi-0.dtd"
   xmlns="http://www.w3.org/2000/svg"
   xmlns:svg="http://www.w3.org/2000/svg">
  <defs
     id="defs1" />
  <sodipodi:namedview
     id="namedview1"
     pagecolor="#505050"
     bordercolor="#eeeeee"
     borderopacity="1"
     inkscape:showpageshadow="0"
     inkscape:pageopacity="0"
     inkscape:pagecheckerboard="0"
     inkscape:deskcolor="#505050"
     showgrid="false"
     inkscape:zoom="0.59400004"
     inkscape:cx="665.82488"
     inkscape:cy="666.66663"
     inkscape:window-width="1920"
     inkscape:window-height="995"
     inkscape:window-x="0"
     inkscape:window-y="0"
     inkscape:window-maximized="1"
     inkscape:current-layer="g1" />
  <g
     inkscape:groupmode="layer"
     inkscape:label="Image"
     id="g1">
    <path
       style="fill:#d123ff;stroke:none"
       d="M 897.16935,677.10846 H 747.83602 445.16938 v 2.66667 l 253.21397,0.81584 54.01851,0.13476 20.34367,0.41976 3.09049,14.62964 c -51.61149,0 -103.07494,-1.33334 -154.66666,-1.33334 h -35.99999 c -2.83741,10e-4 -11.0402,-1.22045 -11.76546,2.9126 -0.85075,4.84929 7.57104,4.99178 10.43212,5.06787 11.98267,0.31869 24.01286,0.0195 36,0.0195 52.06059,0 103.93522,1.33334 155.99999,1.33334 V 989.10841 H 649.16936 c -26.61686,0 -53.31298,-1.33333 -79.99999,-1.33333 -28.94531,0 -57.78263,-0.10701 -86.66666,-1.22119 -4.32333,-0.16675 -26.0708,-2.7203 -26.20573,3.99487 -0.118,5.86996 14.71142,3.89299 18.20573,3.89299 20.03922,0 39.9462,1.33333 59.99999,1.33333 48.02694,0 96.03939,1.33333 143.99999,1.33333 29.4021,0 60.05151,-2.5192 89.32715,0.0782 8.35905,0.74162 5.55509,6.58199 10.14306,11.11719 3.03255,2.9978 8.66268,2.1361 12.52979,2.1379 h 75.99999 c 6.5765,0 22.20671,2.8509 27.19548,-2.1379 4.51879,-4.5187 2.13785,-17.30664 2.13785,-23.1954 V 922.44178 761.10846 c 0,-27.15129 -3.62613,-57.28638 1.33334,-84 m -9.33334,52 c -14.05501,-9.90715 -33.41723,-30.07373 -41.33333,-45.33333 8.84799,0 32.18132,-4.18494 39.19548,1.37036 3.13712,2.48462 2.13631,8.4738 2.13785,11.96297 v 32 m 0,56 c -24.51944,-17.27206 -45.86938,-46.8339 -65.71402,-69.33333 -8.87614,-10.06356 -21.91512,-19.76823 -27.6193,-32 l 41.05452,0.80452 20.39713,21.86214 31.07813,33.83334 0.80354,44.83333 m 0,58.66666 c -27.33211,-20.90275 -49.76082,-55.3313 -72.37548,-81.33333 -8.79915,-10.11719 -25.6665,-22.94002 -30.83952,-35.16666 -4.72143,-11.15918 -0.78499,-31.38998 -0.78499,-43.5 h 1.33333 c 5.87785,11.33301 16.62858,19.96321 25.10702,29.33333 15.84627,17.51302 32.01253,34.71525 48.10701,52 7.86515,8.44686 17.49479,24.80607 29.45263,26.66666 v 52 m 0,49.33333 -29.89811,-32 -44.56176,-50.66666 -29.54012,-30.66667 v -41.33333 c 27.35441,20.91984 49.74577,55.31396 72.37549,81.33333 8.79915,10.11711 25.66642,22.94002 30.83951,35.16666 4.18644,9.89478 0.78499,27.44751 0.78499,38.16667 m 0,50.66666 c -27.5061,-19.37589 -48.56542,-51.91731 -72.01952,-75.99999 -9.49894,-9.7535 -26.70101,-22.94247 -31.19548,-36 -4.11531,-11.95622 -0.78499,-30.0463 -0.78499,-42.66666 10.97941,7.89697 19.51709,20.48136 28.37549,30.66666 14.76391,16.97534 29.81836,33.69124 44.58235,50.66666 8.92285,10.25936 18.58887,26.17643 31.04215,32 v 41.33333 m 0,50.66667 c -27.16568,-19.13615 -48.53254,-49.85685 -71.99999,-73.33333 -9.10311,-9.10661 -26.74129,-22.58594 -31.19547,-34.66667 -4.17692,-11.32885 -0.80453,-29.28735 -0.80453,-41.33333 l 30.89298,32 47.00619,50.66666 25.2963,29.33334 0.80452,37.33333 m -2.9012,-632.58745 c -2.16886,-3.58105 -10.96224,-2.07918 -14.43213,-2.07918 H 827.83602 647.83603 598.5027 c -2.82259,1.6e-4 -16.53149,-1.19055 -14.20573,4.98763 1.74707,4.64115 11.78076,3.01237 15.53906,3.01237 h 50.66667 179.99998 c 14.66187,0 29.33968,0.19954 44,-0.005 2.49756,-0.0349 13.65169,-0.59973 10.43213,-5.91569 m -2.43213,640.58744 c -10.94751,0 -27.02612,2.9958 -37.33333,-0.8045 -6.82088,-2.51483 -12.32731,-10.18947 -17.33333,-15.19549 -12.18246,-12.18246 -37.20565,-29.0874 -43.19547,-45.33333 -4.30233,-11.66911 -0.80453,-30.2548 -0.80453,-42.66667 h 1.33333 l 97.33333,103.99999 m -49.33333,0 h -49.33333 v -49.33332 c 17.15161,12.08194 37.25146,32.1818 49.33333,49.33332 M 578.5027,659.77513 V 427.77514 370.44181 c 0,-5.82857 2.13591,-17.30712 -2.32308,-21.86214 -4.73299,-4.83496 -19.4047,-2.13785 -25.67692,-2.13785 h -74.66666 c -6.70573,0 -25.257,-3.296 -28.52881,4.19755 -2.9191,6.68591 -0.80452,17.92842 -0.80452,25.13578 v 59.99999 159.99999 c 0,22.03288 -5.39714,52.05855 0.42383,73.25517 1.86303,6.78397 10.09179,5.41113 15.57617,5.4115 h 46.66666 c 20.07129,0 42.81421,3.01981 62.60905,-0.19751 5.33349,-0.86687 7.80468,-5.89071 13.41154,-6.39099 40.23494,-3.58997 81.91735,0.89896 122.19961,0.87963 17.91415,-0.009 35.85401,0.37553 53.77979,0.37553 4.09309,0 16.32145,1.99341 18.20581,-3.01237 1.95979,-5.20609 -7.55787,-4.96838 -10.20581,-4.98661 -11.9987,-0.0826 -24.00098,-10e-4 -36,-10e-4 -51.58227,0 -103.05647,-1.33333 -154.66666,-1.33333 M 755.8051,464.65787 c -3.68303,-4.16528 -6.32406,3.15764 -6.55754,5.79012 -1.0476,11.81047 -0.0836,24.13542 -0.0782,35.99382 0.002,3.69604 -0.92871,9.63614 2.11214,12.4506 4.81657,4.45788 5.82886,-4.32308 5.88167,-7.11829 0.21826,-11.54622 0.007,-23.11714 0.006,-34.66565 -2.5e-4,-3.40738 1.09952,-9.66418 -1.36426,-12.4506 m -8.95361,266.21394 c -3.21713,-6.38542 -6.74349,1.55908 -6.95687,4.9095 -0.75806,11.90169 -0.0586,24.06722 -0.0586,35.99381 0,44.87899 -1.33333,89.73234 -1.33333,134.66666 v 38.66667 c 0,3.85538 -1.45996,11.75659 1.34465,14.86523 4.66617,5.17204 5.85221,-7.49577 6.0227,-9.47941 1.14242,-13.29045 0.63265,-26.72697 0.63265,-40.05249 0,-43.11751 1.33049,-86.29443 1.33333,-129.33332 9e-4,-13.1281 4.93124,-38.49496 -0.98453,-50.23665 M 729.82558,460.87699 c -0.24796,-2.27637 0.01,-17.53817 -5.26335,-14.2006 -4.05102,2.56396 -2.05973,14.33931 -2.05973,18.43209 v 53.33333 c 0,5.06998 -2.29875,18.0959 2.11214,21.66463 6.74764,5.45935 5.88786,-13.86463 5.88786,-16.3313 0,-20.74333 1.57121,-42.25932 -0.67692,-62.89815 m -10.00106,295.78087 c -3.60433,-4.29484 -5.22843,3.70475 -5.52262,5.79012 -1.31681,9.33365 -1.13273,18.5843 -1.13273,27.99381 0,39.61743 -1.33073,79.03328 -1.33333,118.66666 -5.7e-4,8.82641 -6.3191,33.88134 0.7788,40.4506 4.23348,3.91813 5.73462,-2.89942 5.86215,-5.79012 l 1.30655,-33.32715 c 1.6661,-38.05004 1.38583,-76.60099 1.38583,-114.66666 0,-8.48014 4.18115,-32.53279 -1.34465,-39.11726 M 703.80491,432.65788 c -6.73043,-7.61174 -6.63574,16.92822 -6.63574,19.11726 v 70.66667 c 0,5.14864 -2.7926,23.36096 2.05965,26.43208 5.55575,3.51636 5.83464,-20.6073 5.90633,-23.76644 0.51359,-22.64253 0.034,-45.35029 0.034,-67.99897 0,-5.67082 2.57821,-19.99191 -1.36426,-24.4506 m -11.98551,334.66664 c -3.04069,-3.53125 -5.87004,1.97811 -6.3457,4.47632 -1.44104,7.56811 -0.30453,16.28507 -0.30453,23.97428 0,33.40747 -1.33333,66.63891 -1.33333,100 0,6.9637 -3.85177,32.91186 2.07918,37.21809 4.2358,3.07544 5.69381,-3.91691 5.86218,-6.55761 0.59046,-9.2592 0.0586,-18.71582 0.0586,-27.99382 0,-32.51871 1.33333,-64.81949 1.33333,-97.33333 0,-7.41463 3.60437,-28.03051 -1.34977,-33.78393 m -17.3169,-347.54938 c -5.17386,10.75114 -2.66666,25.60234 -2.66666,37.33334 v 78.66666 c 0,8.85864 -4.22331,30.82503 5.33333,34.66666 4.28304,-13.5441 2.66667,-28.62504 2.66667,-42.66666 v -72 c 0,-9.61413 4.1608,-30.76481 -5.33334,-36 m -7.66048,365.66356 c -5.18782,-11.06169 -8.24747,16.70988 -8.31998,19.66975 -0.65324,26.65975 -1.35287,53.36328 -1.35287,80 0,6.48568 -3.33333,24.95963 1.17074,29.78393 5.99699,6.42334 6.82926,-22.65795 6.82926,-25.78393 0,-25.40959 1.33334,-50.60286 1.33334,-76 0,-7.34407 3.39099,-21.16332 0.33951,-27.66975 M 654.50245,409.10848 h -6.66667 c -0.34595,44.79183 -2.66667,89.88443 -2.66667,134.66666 0,10.22139 -0.0695,20.44555 9.8e-4,30.66666 0.0203,2.9515 -0.56787,9.81893 3.99902,9.81893 4.56706,0 3.97868,-6.86747 3.99903,-9.81893 0.0705,-10.22111 9.7e-4,-20.44523 9.7e-4,-30.66666 0,-44.84188 1.33334,-89.75801 1.33334,-134.66666 m -18.32202,396.42999 c -2.31324,-4.50472 -6.2037,-1.29696 -6.81381,2.31486 -3.2395,19.17749 -1.53084,41.75919 -1.53084,61.25512 0,5.45614 -2.22266,17.35376 1.34977,21.83643 6.16529,7.73616 6.65007,-11.6814 6.65023,-13.83643 9e-4,-14.02213 -1.2631,-28.73511 0.3807,-42.66666 0.91064,-7.71794 3.66023,-21.70524 -0.0361,-28.90332 M 626.5024,397.10848 c -8.10433,1.3525 -6.39258,7.92867 -6.77165,14.66154 -0.72811,12.93502 -1.22835,25.69051 -1.22835,38.67179 0,40.20438 2.35791,81.21093 -0.11524,121.33231 -0.60465,9.81026 -1.35083,19.47497 -1.21297,29.33435 0.0404,2.89327 -0.3903,8.48059 3.16154,9.66463 6.72225,2.24097 4.83333,-14.50423 4.83333,-17.66463 0,-20.0448 1.33334,-39.94405 1.33334,-60 v -56 c 0,-26.36364 2.18839,-53.77473 0,-79.99999 m -16.56584,445.33331 c -0.58748,-4.47404 -0.7657,-8.82137 -0.76749,-13.33334 -8.2e-4,-2.22802 -0.57699,-22.50236 -6.63583,-14.16463 -2.52563,3.47567 -1.38265,10.12476 -1.3632,14.16463 0.0548,11.3619 -2.58219,34.90397 2.13583,45.00309 2.33138,4.9904 6.36678,1.47567 6.99902,-2.36727 1.47501,-8.96639 0.81063,-20.32299 -0.36833,-29.30248 M 599.81929,397.99121 c -4.0437,-4.69617 -6.43733,4.66952 -6.59163,7.11829 -0.6945,11.02465 -0.0586,22.28535 -0.0586,33.33231 0,44.94625 -1.33334,89.76192 -1.33334,134.66666 v 40 c 1.7e-4,3.2587 -1.31657,11.09029 2.11214,13.09875 5.08838,2.98063 5.83236,-6.47872 5.88168,-9.09875 0.25065,-13.323 0.006,-26.6744 0.006,-40 0,-44.49491 1.33334,-88.82812 1.33334,-133.33333 v -33.33333 c -1.7e-4,-3.43257 1.08675,-9.62089 -1.34978,-12.4506 m -17.33333,433.28082 c -5.60563,-7.03394 -8.83122,17.90909 -5.30045,22.33951 5.60546,7.03378 8.83129,-17.90901 5.30045,-22.33951 M 570.50221,385.10848 539.83555,354.44182 h 30.66666 v 30.66666 m 0,52 -36.1193,-37.33333 -41.21403,-45.33333 34.44027,0.42386 12.22737,10.2428 29.86117,32 0.80452,40 m 0,54.66666 c -14.26107,-10.04569 -25.88753,-25.76693 -37.55973,-38.66666 -17.0887,-18.88595 -34.90901,-37.11161 -52,-56 -13.28076,-14.67753 -26.44026,-22.17029 -26.44026,-42.66666 l 27.99487,1.37036 16.01025,15.96297 38.65641,41.33333 32.53914,35.01237 0.79932,43.65429 m 0,53.33333 c -30.68733,-21.61666 -55.88875,-57.89005 -81.45263,-85.33333 -9.55892,-10.26163 -28.3667,-23.51989 -33.74284,-36.38065 -4.57951,-10.95516 -0.80452,-30.42859 -0.80452,-42.28601 29.92806,21.08183 53.16088,56.45707 78.68619,82.66666 10.80973,11.09957 31.11328,26.68266 36.50928,41.33333 4.04882,10.99292 0.80452,28.31673 0.80452,40 m 0,53.33333 -26.66666,-25.33333 -60.2264,-62.66666 -28.30241,-30.66667 -0.80452,-45.33333 30.78597,32 55.11319,58.66666 29.29631,33.33333 0.80452,40 m 0,54.66666 C 540.4105,631.9114 515.86598,597.02204 490.44973,570.4418 480.38308,559.91417 460.9271,546.17292 455.30674,532.72782 c -4.44645,-10.6368 -0.80452,-29.4447 -0.80452,-40.95268 l 29.33333,29.33333 57.89917,60 27.96297,30.66666 0.80452,41.33333 m 0,13.33334 c -10.16227,1.56803 -26.36287,3.50748 -36.00512,-0.68929 -17.13949,-7.45996 -31.5284,-30.59774 -45.32821,-43.08435 -10.13427,-9.1698 -29.03483,-21.80029 -33.86214,-34.89303 -4.30241,-11.66902 -0.80452,-30.25484 -0.80452,-42.66666 14.0979,8.07304 24.66951,24.52787 36.00512,36 26.58439,26.9045 58.21769,54.38916 79.99487,85.33333 m -48,0 c -9.69026,2.55887 -32.85066,3.78617 -41.33333,-2.03292 -10.10335,-6.93091 -15.41691,-19.38709 -26.66666,-24.63375 v -40 l 40,38.66667 27.99999,28 m -50.66666,0 -16,1.33333 -1.33333,-20 z"
       id="path1" />
  </g>
</svg>
