<?xml version="1.0" encoding="UTF-8" standalone="no"?>
<!-- Created with Inkscape (http://www.inkscape.org/) -->

<svg
   version="1.1"
   id="svg1"
   width="1333.3333"
   height="1333.3333"
   viewBox="0 0 1333.3333 1333.3333"
   sodipodi:docname="CurbDrop_D_TR_BLorBL_TR.svg"
   inkscape:version="1.4.2 (ebf0e940d0, 2025-05-08)"
   xmlns:inkscape="http://www.inkscape.org/namespaces/inkscape"
   xmlns:sodipodi="http://sodipodi.sourceforge.net/DTD/sodipodi-0.dtd"
   xmlns="http://www.w3.org/2000/svg"
   xmlns:svg="http://www.w3.org/2000/svg">
  <defs
     id="defs1" />
  <sodipodi:namedview
     id="namedview1"
     pagecolor="#505050"
     bordercolor="#eeeeee"
     borderopacity="1"
     inkscape:showpageshadow="0"
     inkscape:pageopacity="0"
     inkscape:pagecheckerboard="0"
     inkscape:deskcolor="#505050"
     showgrid="false"
     inkscape:zoom="0.59400004"
     inkscape:cx="665.82487"
     inkscape:cy="666.66662"
     inkscape:window-width="1920"
     inkscape:window-height="995"
     inkscape:window-x="0"
     inkscape:window-y="0"
     inkscape:window-maximized="1"
     inkscape:current-layer="g1" />
  <g
     inkscape:groupmode="layer"
     inkscape:label="Image"
     id="g1">
    <path
       style="fill:#d123ff;stroke:none"
       d="m 829.87282,517.36782 -105.59461,105.59461 -214.01764,214.01764 1.88562,1.88562 179.6262,-178.47243 38.29215,-38.10157 14.68196,-14.08833 12.53002,8.15941 c -36.49483,36.49484 -73.8278,71.94218 -110.30865,108.42303 l -25.45584,25.45584 c -2.00564,2.00706 -8.66959,6.94361 -6.25992,10.37895 2.8274,4.03054 8.88326,-1.82381 10.96015,-3.79309 8.69838,-8.24768 16.99345,-16.96587 25.46963,-25.44206 36.8124,-36.81239 74.43612,-72.55048 111.25147,-109.36584 l 201.76112,201.76112 -89.56686,89.56686 c -18.82096,18.82096 -38.64077,36.75516 -57.51134,55.62573 -20.46742,20.46742 -40.93416,40.78279 -62.14609,60.41909 -3.17497,2.9391 -20.35839,16.5113 -15.70545,21.355 4.06725,4.2342 13.1553,-7.6498 15.62615,-10.1206 14.16987,-14.1699 29.18904,-27.3034 43.36921,-41.4836 33.96017,-33.96018 68.85291,-66.9673 102.76617,-100.88057 20.79043,-20.79042 40.68149,-44.24417 63.21913,-63.10853 6.43515,-5.38634 8.58219,0.7261 15.03329,0.68883 4.2641,-0.0246 7.63589,-4.61499 10.37162,-7.34817 l 53.74009,-53.74011 c 4.6503,-4.65029 17.7184,-13.68663 17.7184,-20.74183 0,-6.39051 -10.726,-13.74936 -14.89,-17.91334 L 1002.4069,691.78749 888.32697,577.70761 c -19.19886,-19.19887 -43.07165,-37.94353 -58.45415,-60.33979 m 30.16988,43.36922 c -16.9438,2.93298 -44.89489,2.36421 -61.28258,-2.82842 6.25647,-6.25648 19.79643,-25.71483 28.68438,-26.7464 3.97517,-0.46139 7.50248,4.48128 9.97078,6.94741 l 22.62742,22.62741 m 39.59798,39.59798 c -29.55105,5.12467 -65.55112,-0.68202 -95.4929,-2.55924 -13.39239,-0.83963 -29.47458,1.51808 -42.15721,-3.09762 l 29.59881,-28.46105 29.88182,1.03592 45.89934,1.94823 32.27014,31.13376 m 41.48359,41.4836 c -34.10719,4.54624 -74.31135,-3.93893 -108.68854,-6.33416 -13.37587,-0.932 -34.37,1.92791 -46.67342,-3.05975 -11.22928,-4.55218 -22.75113,-21.641 -31.31421,-30.20407 l 0.9428,-0.94281 c 12.16992,3.85738 25.87431,2.35794 38.49515,2.98845 23.58858,1.17857 47.18366,1.91111 70.78634,2.75276 11.53433,0.41133 29.91123,5.16986 39.68233,-1.96998 l 36.76955,36.76956 m 34.88394,34.88393 -43.76858,-1.48626 -67.33666,-4.31682 -42.57263,-0.79659 -29.22708,-29.22708 c 34.13505,-4.54993 74.28845,3.93731 108.68855,6.33415 13.37582,0.93194 34.36995,-1.92785 46.67341,3.05976 9.95693,4.0364 19.9634,18.85325 27.54299,26.43284 m 35.82669,35.82674 c -33.15053,5.74892 -71.05197,-2.37015 -104.66555,-2.81462 -13.61354,-0.18 -35.10325,2.65769 -47.51438,-3.39731 -11.36429,-5.54436 -21.80102,-20.69087 -30.72496,-29.61481 13.34762,-2.17962 28.28317,0.68184 41.7491,1.6201 22.44304,1.56372 44.90807,2.73854 67.35123,4.30226 13.56387,0.94505 31.65384,5.36521 44.57753,0.6773 l 29.22703,29.22708 m 35.8268,35.82674 c -32.7403,5.67774 -69.57181,-0.93643 -102.76619,-0.94281 -12.87621,-0.002 -34.87961,2.93827 -46.57156,-2.45451 -10.96424,-5.05718 -21.27817,-20.1404 -29.79597,-28.65819 l 44.47206,0.78278 69.06513,2.58834 38.62903,2.85462 26.9675,25.82977 M 598.30336,303.10061 c -4.0658,-0.99856 -9.22168,6.28128 -11.67526,8.73486 L 556.45821,342.00535 429.179,469.28457 394.29507,504.1685 c -1.99576,1.99599 -12.53138,10.84768 -6.51818,13.57176 4.51715,2.04642 10.46032,-6.20019 13.11784,-8.85771 L 436.72147,473.0558 564.00068,345.7766 c 10.36751,-10.36751 20.88738,-20.6052 31.10916,-31.11624 1.74137,-1.79072 9.22913,-10.07727 3.19361,-11.55965 m 451.24395,454.6835 c -7.7411,7.74106 -16.992,21.22868 -26.9675,25.82976 -6.6014,3.04486 -15.9218,1.5117 -23.00137,1.5117 -17.2286,0 -46.87627,5.74047 -62.59932,-1.5117 -11.29351,-5.2091 -21.96226,-20.82448 -30.73878,-29.601 l 0.94281,-0.94281 142.36416,4.71405 m -34.8839,34.88393 -34.88396,34.88394 -34.88393,-34.88394 c 20.67124,-3.58479 49.09673,-3.58479 69.76789,0 M 592.28495,730.44266 428.23619,566.39389 387.6954,525.8531 c -4.12142,-4.12142 -10.72767,-13.7483 -17.10153,-13.8162 -6.76557,-0.0721 -15.23289,12.20951 -19.66802,16.64464 l -52.7973,52.7973 c -4.74166,4.74167 -20.19002,15.52877 -17.2048,23.14103 2.66354,6.79177 12.10843,13.24619 17.2048,18.34256 l 42.4264,42.4264 113.13708,113.13708 c 15.5796,15.5796 32.9946,40.62731 52.09892,51.49953 6.11435,3.47963 10.96222,-3.30972 14.84052,-7.1875 l 32.99832,-32.99831 c 14.19254,-14.19255 32.40954,-28.13889 44.13162,-44.41095 3.15838,-4.38432 1.35338,-9.6841 4.96428,-14.0025 25.9119,-30.98889 58.55997,-57.28866 87.03016,-85.78618 12.66086,-12.67358 25.61816,-25.08708 38.2936,-37.76252 2.89425,-2.89425 12.95056,-10.13145 10.74338,-15.00352 -2.29548,-5.06704 -8.85739,1.83105 -10.74266,3.69054 -8.54277,8.42595 -16.97196,16.97054 -25.45655,25.45513 -36.47418,36.47418 -73.81474,71.92912 -110.30865,108.42304 M 579.68794,467.10219 c -5.54959,-0.341 -2.23899,6.70457 -0.54264,8.73111 7.61049,9.09203 17.0072,17.12544 25.39617,25.50677 2.61491,2.61208 6.15709,7.47048 10.29742,7.3104 6.55802,-0.25363 1.06474,-7.17851 -0.87443,-9.19236 -8.01007,-8.31875 -16.34133,-16.35124 -24.50807,-24.51656 -2.40956,-2.40921 -6.05613,-7.61109 -9.76858,-7.83923 m 181.91052,194.57284 c -6.79002,-2.24032 -3.66593,5.87081 -1.44771,8.39079 7.87974,8.9518 16.97666,17.05954 25.41003,25.49291 31.73424,31.73424 62.50754,64.39315 94.28091,96.16651 l 27.34146,27.34147 c 2.72617,2.72616 7.28082,9.34551 11.46212,9.56049 6.95666,0.35771 -1.16218,-9.43845 -2.44427,-10.96165 -8.58995,-10.20558 -18.45147,-19.34617 -27.87403,-28.76873 -30.48869,-30.48869 -60.07858,-61.96018 -90.50966,-92.39528 -9.28234,-9.2836 -23.73314,-30.70696 -36.21885,-34.82651 M 558.64416,482.799 c -1.78497,-1.4343 -12.39428,-12.40843 -13.76309,-6.31959 -1.05151,4.67749 8.68298,11.59587 11.57701,14.4899 l 37.71236,37.71236 c 3.58502,3.58502 11.17027,14.4212 16.81271,13.8257 8.63165,-0.91096 -5.64042,-13.96712 -7.38462,-15.71132 C 588.93078,512.1283 574.82769,495.80319 558.64416,482.799 M 760.721,699.01947 c -5.58555,-0.48826 -1.0774,6.31672 0.18916,7.99932 5.66876,7.53101 12.34012,13.94204 18.99365,20.59557 28.01375,28.01376 54.944,56.82594 82.96719,84.85281 6.24081,6.24162 19.48945,28.426 29.15359,28.0522 5.76406,-0.22299 2.00479,-6.10519 0.0509,-8.2394 l -22.64198,-24.48972 c -25.72733,-28.08356 -53.18515,-55.14501 -80.10164,-82.06151 -5.99637,-5.99636 -20.04764,-25.96067 -28.6109,-26.70927 m -240.43015,-217.775 c -10.14145,-0.62318 7.27788,16.66223 8.82576,18.21012 l 49.96889,49.96888 c 3.64063,3.64064 14.54402,18.49336 20.14669,17.23391 6.41495,-1.44207 -10.44585,-18.69728 -12.629,-20.98182 -15.64753,-16.37385 -32.04346,-32.09154 -48.05849,-48.10657 -4.00988,-4.00988 -12.31335,-15.95949 -18.25387,-16.32451 m 228.17002,245.12009 c -4.64707,-0.34688 -2.75201,5.54948 -1.32185,7.65232 4.33249,6.37043 11.29994,11.73062 16.73704,17.16771 23.62265,23.62265 46.17802,48.06363 69.76787,71.65349 4.92408,4.92408 20.54859,25.99581 27.78736,24.84696 5.16983,-0.8205 1.25646,-6.79581 -0.49174,-8.78212 -6.12972,-6.96476 -13.19265,-13.27552 -19.75318,-19.83606 -22.9942,-22.9942 -44.8915,-46.7771 -67.88225,-69.76786 -5.24294,-5.24294 -17.27189,-22.36924 -24.84328,-22.93442 M 490.4614,492.85497 c 3.94373,11.26067 16.21797,19.9892 24.51304,28.28427 l 55.62573,55.62573 c 6.26401,6.264 18.81026,24.78292 28.28427,20.74179 -6.54856,-12.60569 -18.35534,-22.12658 -28.28427,-32.0555 l -50.91169,-50.91169 c -6.79821,-6.79821 -18.81187,-24.69613 -29.22708,-21.6846 m 253.1464,263.97996 c -11.49013,-4.15345 5.98383,17.64751 8.0255,19.79173 18.38938,19.3132 36.77692,38.69016 55.61192,57.52516 4.58607,4.58607 15.29211,20.00615 21.88826,20.23258 8.7825,0.30148 -11.19257,-20.8506 -13.40298,-23.061 -17.96729,-17.9673 -34.83881,-36.72444 -52.7973,-54.68293 -5.19304,-5.19305 -12.56693,-17.36252 -19.3254,-19.80554 m -274.831,-257.3803 -4.71404,4.71405 c 31.42798,31.91723 61.67226,65.44351 93.33808,97.10933 7.22762,7.22761 14.40805,14.50633 21.6853,21.68391 2.10138,2.07267 6.54149,7.34457 9.77077,4.11529 3.22939,-3.2294 -2.04269,-7.66938 -4.1153,-9.77077 -7.17756,-7.27727 -14.45627,-14.45765 -21.68391,-21.68529 -31.708,-31.708 -62.52569,-64.41131 -94.2809,-96.16652 m 267.36271,293.27396 c -4.82102,-1.54961 -5.30377,3.46959 -3.18124,6.45494 11.26986,15.85121 28.44574,30.61068 42.23145,44.39638 3.85807,3.85807 10.6993,13.84262 16.39512,14.48626 9.82981,1.11077 -3.55769,-12.96231 -5.08141,-14.48626 -9.91451,-9.91578 -21.21194,-19.42564 -29.90069,-30.43908 -4.81349,-6.10133 -12.75975,-17.9361 -20.46326,-20.41221 M 440.4925,510.76837 c -4.77427,6.68699 1.08618,10.12666 5.57899,15.15556 8.63159,9.66129 17.29736,19.03451 26.47651,28.21366 28.42879,28.42879 59.09209,55.7575 85.71341,85.87638 6.50935,7.36446 12.81571,14.72607 19.88482,21.60022 2.07442,2.01728 5.7207,6.27267 9.06947,4.59838 6.33796,-3.16874 -6.83836,-13.67372 -9.0731,-15.90846 -14.17381,-14.17382 -27.30189,-29.18752 -41.48359,-43.36922 L 497.06103,567.33691 C 478.41912,548.695 460.58398,527.76501 440.4925,510.76837 m 303.18438,326.61202 c -3.57903,-2.74821 -6.77908,-5.69621 -9.97079,-8.88539 -1.57603,-1.57487 -16.31957,-15.50358 -14.70815,-5.32367 0.67178,4.24356 6.18161,8.13697 9.05198,10.97983 8.07283,7.99533 22.85495,26.50672 33.33225,30.31174 5.17728,1.88021 5.54545,-3.45854 3.27514,-6.62297 -5.2972,-7.38319 -13.79732,-14.94373 -20.98043,-20.45954 M 422.24887,530.26037 c -6.18002,-0.46137 -1.25003,7.85372 0.37241,9.69437 7.30452,8.28669 15.71668,15.79956 23.52806,23.61094 31.7818,31.7818 62.52845,64.41408 94.2809,96.16652 l 28.28427,28.28428 c 2.30437,2.30412 6.91106,8.77297 10.75572,7.7687 5.70565,-1.4904 -0.45704,-8.70525 -2.27481,-10.59276 -9.24355,-9.59802 -18.85741,-18.86589 -28.28003,-28.28852 -31.46265,-31.46265 -61.86815,-63.75378 -93.33809,-95.22371 l -23.57022,-23.57023 c -2.42731,-2.42707 -6.03455,-7.57144 -9.75834,-7.84946 m 294.11929,318.63232 c -8.93753,-1.00997 6.41902,18.90826 12.04843,19.5444 8.9373,1.00998 -6.41891,-18.90824 -12.04843,-19.5444 M 392.4091,541.88121 l -43.36921,0 21.68461,-21.68461 21.6846,21.68461 m 36.76955,36.76955 -51.93885,-0.85845 -61.19822,-2.91279 24.65266,-24.05323 15.88881,-1.4033 43.74245,1.51238 28.85315,27.71539 m 38.65517,38.65516 c -17.18748,2.98073 -36.52522,0.0853 -53.9002,-0.78271 -25.43792,-1.27085 -50.92627,-1.55748 -76.36753,-2.82843 -19.7695,-0.98767 -34.37285,3.01932 -48.86597,-11.4738 l 20.76435,-18.82637 22.60848,-0.0334 56.56129,1.89287 47.76613,1.74883 31.43345,30.30304 m 37.71236,37.71236 c -36.98451,6.41394 -80.45376,-1.41513 -117.93548,-2.74407 -14.01525,-0.49689 -36.68936,3.42722 -49.5848,-1.86521 -10.98467,-4.50826 -22.08514,-20.94738 -30.46961,-29.33184 36.06944,-6.25523 77.5116,2.33076 114.0937,2.81462 15.49221,0.20494 40.8679,-3.13293 55.04304,3.41111 10.63611,4.91022 20.59183,19.45407 28.85315,27.71539 m 37.71236,37.71236 -36.76955,0.94281 -86.89851,-1.72552 -41.69744,-1.67179 -32.62439,-31.48662 44.39639,0.85845 80.4545,2.51268 44.28584,2.8546 28.85316,27.71539 m 38.65516,38.65517 c -36.26663,6.28947 -78.29273,-1.02544 -115.0598,-1.84851 -14.56236,-0.32596 -38.03635,3.71497 -51.51766,-1.81796 -10.66547,-4.37724 -21.38943,-20.25167 -29.5268,-28.38904 l 41.48359,0 83.36731,1.48552 41.4574,1.91179 29.79596,28.6582 m 9.4281,9.42809 c -6.07705,8.29458 -16.1612,21.12153 -25.94687,24.97207 -17.39444,6.84446 -43.92981,0.65807 -62.51712,1.58665 -13.65004,0.68198 -35.94586,5.11559 -48.61724,-0.72895 -11.29351,-5.20898 -21.96229,-20.82452 -30.73877,-29.60101 15.67722,-4.26022 34.7878,-0.10015 50.91531,-0.004 37.82235,0.22635 79.62506,-2.70718 116.90469,3.77486 m -33.94113,33.94113 c -5.04265,8.66144 -20.55169,25.90615 -30.66457,27.78959 -12.04504,2.24325 -24.61014,-2.80735 -36.27486,1.43748 l -28.28428,-28.28427 55.62574,-0.94281 39.59797,1e-5 m -35.82674,35.82674 -10.3709,12.25651 -15.08494,-13.19933 z"
       id="path1" />
  </g>
</svg>
