<?xml version="1.0" encoding="UTF-8" standalone="no"?>
<!-- Created with Inkscape (http://www.inkscape.org/) -->

<svg
   version="1.1"
   id="svg1"
   width="1333.3333"
   height="1333.3333"
   viewBox="0 0 1333.3333 1333.3333"
   sodipodi:docname="CurveDTR_B.svg"
   inkscape:version="1.4.2 (ebf0e940d0, 2025-05-08)"
   xmlns:inkscape="http://www.inkscape.org/namespaces/inkscape"
   xmlns:sodipodi="http://sodipodi.sourceforge.net/DTD/sodipodi-0.dtd"
   xmlns="http://www.w3.org/2000/svg"
   xmlns:svg="http://www.w3.org/2000/svg">
  <defs
     id="defs1" />
  <sodipodi:namedview
     id="namedview1"
     pagecolor="#505050"
     bordercolor="#eeeeee"
     borderopacity="1"
     inkscape:showpageshadow="0"
     inkscape:pageopacity="0"
     inkscape:pagecheckerboard="0"
     inkscape:deskcolor="#505050"
     showgrid="false"
     inkscape:zoom="0.59400004"
     inkscape:cx="666.66663"
     inkscape:cy="666.66663"
     inkscape:window-width="1920"
     inkscape:window-height="995"
     inkscape:window-x="0"
     inkscape:window-y="0"
     inkscape:window-maximized="1"
     inkscape:current-layer="g1" />
  <g
     inkscape:groupmode="layer"
     inkscape:label="Image"
     id="g1">
    <path
       style="fill:#ffff00"
       d="m 661.33329,1326.8461 c 0,-3.6699 -0.54707,-8.1115 -1.21572,-9.8702 -0.82289,-2.1644 -11.48587,-9.8137 -33,-23.6734 -17.48135,-11.2617 -39.28427,-25.3401 -48.45094,-31.2854 -9.16666,-5.9453 -22.21953,-14.3814 -29.00636,-18.7468 -6.78684,-4.3654 -21.53601,-13.937 -32.77594,-21.2704 -11.23994,-7.3333 -29.68707,-19.3069 -40.99364,-26.608 -11.30656,-7.301 -27.15738,-17.5592 -35.22405,-22.796 -8.06667,-5.2368 -20.66667,-13.4099 -28,-18.1626 -58.04184,-37.6164 -84.0608,-54.4753 -101.19886,-65.5714 -12.45984,-8.0671 -18.77789,-12.862 -16.94797,-12.862 1.60466,0 9.94415,4.5702 18.5322,10.156 30.68724,19.9593 39.91892,25.9389 62.2813,40.3413 12.46667,8.0291 30.46667,19.6624 40,25.8518 20.65607,13.4106 43.98012,28.5104 58.66666,37.9802 38.68835,24.9461 58.36873,37.6765 75.33333,48.7296 10.63333,6.928 30.73333,19.9694 44.66666,28.9808 37.36504,24.1658 51.33062,33.2336 57.73351,37.4859 3.15343,2.0943 6.24196,3.8078 6.86341,3.8078 0.62144,0 1.47381,-7.95 1.89415,-17.6667 3.96736,-91.71 4.48905,-100.2926 8.93532,-147 1.46599,-15.4 3.31757,-29.65 4.11461,-31.6667 2.34078,-5.9225 4.23066,-4.4067 3.3248,2.6667 -4.75373,37.1193 -10.07849,113.0594 -11.12265,158.6276 -0.75582,32.9851 -0.63084,36.3713 1.37075,37.1393 1.33599,0.5127 7.05762,-1.6959 14.54425,-5.6141 6.78802,-3.5526 17.14185,-8.7789 23.00851,-11.6141 5.86667,-2.8352 19.36667,-9.8099 30,-15.4995 10.63333,-5.6896 28.63333,-15.1698 40,-21.0673 22.80122,-11.8301 29.3108,-15.249 48,-25.21 6.96666,-3.7131 20.16666,-10.6445 29.33333,-15.4031 25.3698,-13.1701 47.4904,-24.7566 58.62358,-30.7064 13.3167,-7.1167 28.03404,-14.8732 46.70974,-24.6174 8.43334,-4.4001 18.63334,-9.7872 22.66667,-11.9712 4.03333,-2.184 17.53333,-9.2768 29.99996,-15.7619 12.4667,-6.485 28.6477,-14.9948 35.9578,-18.9107 7.3756,-3.951 14.1918,-6.7741 15.3149,-6.3431 2.2746,0.8728 -0.858,2.6533 -42.606,24.2154 -15.0333,7.7645 -27.93333,14.5545 -28.66666,15.0889 -1.3642,0.9941 -13.36272,7.3079 -74.66666,39.2905 -11,5.7388 -26.47243,13.9418 -34.38318,18.2289 -7.91075,4.2872 -14.62359,7.7949 -14.91742,7.7949 -0.29383,0 -7.6214,3.8048 -16.28349,8.4551 -8.66208,4.6503 -23.54924,12.5265 -33.08257,17.5028 -9.53334,4.9762 -22.13334,11.6093 -28,14.7402 -5.86667,3.1308 -15.46667,8.2191 -21.33333,11.3071 -5.86667,3.0881 -16.96667,8.9516 -24.66667,13.0299 -7.7,4.0783 -18.2,9.6131 -23.33333,12.2994 -5.13333,2.6863 -13.53333,7.2691 -18.66667,10.1841 -5.13333,2.915 -14.13333,7.6658 -19.99999,10.5573 -5.86667,2.8916 -10.96331,5.454 -11.32586,5.6944 -0.36256,0.2403 -0.96256,3.8403 -1.33334,8 -0.58687,6.5839 -1.0625,7.6181 -3.67414,7.9891 -2.76822,0.3931 -3,-0.089 -3,-6.2466 z m 419.19931,-55.1795 c 0.2889,-41.9744 1.1015,-68.4478 2.6707,-87 10.8927,-128.7852 39.0197,-239.75088 89.3921,-352.66665 10.732,-24.05704 34.158,-71.00797 36.8888,-73.93333 0.6503,-0.69667 1.1824,-2.38368 1.1824,-3.74891 0,-2.05005 -0.7545,-2.36472 -4.3333,-1.80726 -2.3834,0.37124 -11.8334,1.63695 -21,2.81268 -9.1667,1.17574 -18.1667,2.38798 -20,2.69387 -1.8334,0.30589 -12.9334,1.74049 -24.6667,3.188 -24.5918,3.03382 -94.3908,12.0096 -99.3333,12.77373 -1.8334,0.28344 -6.6334,0.89299 -10.6667,1.35456 -4.0333,0.46156 -8.8333,1.06678 -10.6667,1.34493 -3.8979,0.5914 -23.9051,3.25958 -30.66663,4.08975 -2.56666,0.31513 -23.26666,2.97438 -45.99999,5.90945 -22.73334,2.93506 -43.43333,5.58945 -46,5.89865 -7.04257,0.84838 -26.88461,3.50211 -30.66667,4.10144 -1.83333,0.29053 -10.83333,1.48562 -20,2.65577 -9.16666,1.17015 -18.16666,2.34572 -19.99999,2.61236 -1.83334,0.26665 -6.93334,0.86797 -11.33334,1.33627 -4.4,0.4683 -13.4,1.69547 -20,2.72705 -11.6691,1.82387 -34.49603,4.9892 -47.99999,6.65598 -3.66667,0.45257 -7.1023,1.25373 -7.63475,1.78035 -1.39361,1.37836 -14.72475,48.37419 -22.51781,79.38126 -14.41281,57.34584 -28.63833,130.94045 -35.21334,182.17335 -1.02329,7.9736 -2.62134,12 -4.76271,12 -1.52644,0 -1.51287,-0.1231 4.33467,-39.3333 10.3186,-69.19043 26.40633,-142.96202 45.71011,-209.6074 4.07944,-14.08407 7.41716,-26.90619 7.41716,-28.4936 0,-2.18958 -15.7183,-25.12495 -20.03378,-29.23231 -0.38524,-0.36667 -3.98524,-5.16557 -8,-10.66423 -4.01475,-5.49865 -8.01611,-10.89865 -8.89191,-12 -0.8758,-1.10134 -4.45731,-5.90244 -7.95891,-10.66911 -3.50161,-4.76666 -6.71395,-8.96666 -7.13855,-9.33333 -0.42459,-0.36667 -2.23454,-2.76666 -4.02209,-5.33333 -1.78755,-2.56667 -3.96577,-5.56667 -4.84048,-6.66667 -0.87472,-1.1 -9.58326,-12.79749 -19.35233,-25.99442 -9.76907,-13.19693 -18.4785,-24.89693 -19.3543,-25.99999 -0.8758,-1.10307 -4.47551,-5.90558 -7.99935,-10.67225 -3.52385,-4.76667 -7.11895,-9.56667 -7.98911,-10.66667 -1.66845,-2.10913 -11.25375,-14.98746 -47.63502,-63.99999 -12.2477,-16.5 -22.98456,-30.91377 -23.85968,-32.03059 -1.9321,-2.46571 -8.49582,-11.2991 -24.74586,-33.30274 -6.76974,-9.16667 -15.25483,-20.56667 -18.85576,-25.33333 -3.60094,-4.76667 -9.4032,-12.56667 -12.89392,-17.33334 -3.49072,-4.76666 -6.68374,-8.96666 -7.0956,-9.33333 -0.64969,-0.5784 -7.30707,-9.46885 -15.0364,-20.08005 -13.45334,-18.46938 -18.78589,-25.25328 -19.85061,-25.25328 -1.4059,0 -24.94876,47.87238 -35.73628,72.66666 -105.40926,242.27489 -160.03862,511.1015 -160.04279,787.5576 -5.6e-4,37.5189 -0.38602,43.1856 -2.83463,41.6722 -1.44217,-0.8913 -1.25541,-99.0942 0.2483,-130.5632 2.75698,-57.6967 5.4428,-91.3046 12.04072,-150.6666 21.36048,-192.18213 74.71636,-390.08811 151.15693,-560.66666 3.45056,-7.7 7.96179,-18.2 10.02494,-23.33333 8.01626,-19.94525 46.16465,-95.18486 67.64731,-133.42 C 554.11485,218.67964 629.00841,110.68527 710.23946,14.666666 720.3412,2.7259736 722.73307,0.60383349 726.5004,0.23950164 c 4.31102,-0.4169113 3.94024,0.14318337 -15.44652,23.33333236 -10.92497,13.068273 -24.40123,29.460496 -29.94726,36.427162 -5.54602,6.966667 -11.43572,13.866666 -13.08823,15.333333 -1.65251,1.466666 -5.11897,5.966666 -7.70326,9.999999 -2.58428,4.033333 -10.18167,14.533333 -16.88308,23.333332 -44.72541,58.73147 -97.50166,138.48147 -136.57637,206.38007 -13.93241,24.20982 -31.08472,56.014 -31.57118,58.53998 -0.26051,1.35275 -1.37073,3.35661 -2.46716,4.45304 -2.33402,2.33402 -22.1507,41.07435 -22.1507,43.30319 0,0.8328 0.75,2.2763 1.66667,3.20779 0.91666,0.93149 3.16666,3.69558 5,6.14243 1.83333,2.44685 4.56435,5.99186 6.06894,7.87781 1.50458,1.88595 5.66904,7.629 9.25435,12.76234 3.58531,5.13333 8.95429,12.41492 11.93106,16.18131 2.97677,3.76638 8.40362,10.96638 12.05966,16 3.65604,5.03361 7.3726,10.05202 8.25903,11.15202 0.88642,1.1 4.47662,5.9 7.97823,10.66666 3.5016,4.76667 6.70024,8.96667 7.10808,9.33334 0.40784,0.36666 4.02099,5.16666 8.02922,10.66666 4.00823,5.5 7.77733,10.6 8.37577,11.33333 0.59844,0.73334 5.26873,7.03334 10.37842,14 5.1097,6.96667 10.0276,13.56667 10.92867,14.66667 2.20335,2.68977 46.84643,62.39799 76.26411,101.99999 28.53125,38.40871 34.18462,45.97356 36.34672,48.63608 0.90693,1.11682 9.18372,12.23059 18.39287,24.69725 9.20916,12.46667 17.87033,24.16667 19.24707,26 1.37673,1.83333 5.38145,7.23333 8.89937,12 3.51793,4.76667 6.74363,8.96667 7.16823,9.33333 0.42459,0.36667 2.22604,2.76667 4.00321,5.33333 5.72146,8.26317 9.10334,11.42698 9.89619,9.25805 0.38697,-1.05859 5.46506,-16.02471 11.28466,-33.25804 12.59453,-37.29569 15.3492,-44 18.07873,-44 2.58054,0 2.59302,-0.13638 -0.75815,8.28397 -7.12689,17.90744 -24.89228,73.07874 -23.7575,73.78007 0.69429,0.4291 5.605,0.16599 10.91269,-0.58468 11.82718,-1.67272 23.61273,-3.04364 41.65034,-4.84486 8.7158,-0.87034 15.47342,-1.74163 20.66667,-2.66462 1.83333,-0.32584 6.63333,-0.92533 10.66667,-1.33221 4.03333,-0.40687 20.53333,-2.46894 36.66666,-4.58237 16.13333,-2.11344 32.33333,-4.17564 36,-4.58267 5.93572,-0.65892 22.21973,-2.7956 31.33333,-4.11134 7.65415,-1.10505 14.39185,-1.97647 20.66667,-2.67293 3.66666,-0.40697 8.16666,-1.00487 9.99999,-1.32865 5.10651,-0.90185 11.86614,-1.77976 20.66667,-2.68408 9.08506,-0.93356 27.67626,-3.22544 32.66666,-4.02709 1.8333,-0.2945 12.9333,-1.76466 24.6667,-3.26704 11.7333,-1.50237 23.4333,-3.00544 26,-3.34016 2.5666,-0.33472 7.2166,-0.93095 10.3333,-1.32496 3.1167,-0.39401 8.2167,-1.03876 11.3333,-1.43277 9.6064,-1.21443 14.9952,-1.97411 17.7201,-2.49803 1.4373,-0.27636 6.5133,-0.92987 11.2799,-1.45225 4.7667,-0.52238 9.5667,-1.12238 10.6667,-1.33333 1.1,-0.21096 5.9,-0.78843 10.6667,-1.28328 4.7666,-0.49485 10.1666,-1.12253 12,-1.39484 1.8333,-0.27231 15.3333,-2.03877 30,-3.92547 37.6544,-4.84382 34.9791,-3.71077 43.4478,-18.40109 20.3858,-35.36227 55.8201,-88.6648 78.4405,-117.99531 8.0593,-10.45 14.2981,-19 13.864,-19 -0.4341,0 1.8441,-2.55985 5.0625,-5.68856 3.2185,-3.1287 7.4697,-7.7787 9.4471,-10.33333 l 3.5952,-4.64478 0.071,4.41425 c 0.058,3.59047 -1.9605,6.92334 -10.8168,17.85936 -19.1569,23.65556 -47.299,61.87903 -62.9333,85.47821 -15.541,23.4583 -38.1784,60.3976 -38.1784,62.29873 0,0.5833 1.65,1.66318 3.6666,2.39973 l 3.6667,1.33918 -4.325,0.10527 c -3.4951,0.0851 -5.1084,1.18675 -8.4078,5.74152 -5.3123,7.3334 -36.0598,69.52807 -46.6511,94.36373 -41.7835,97.97865 -67.046,195.59649 -78.4996,303.33329 -4.6947,44.1606 -5.8041,66.6088 -6.0173,121.7566 -0.1822,47.1509 0.045,53.9044 1.8465,54.9595 1.5286,0.895 0.9603,1.2132 -2.2203,1.2434 l -4.2747,0.041 z M 673.16322,1097.76 c -1.73125,-2.1192 -49.1914,-42.9869 -63.20632,-54.4267 -3.59364,-2.9334 -7.48141,-6.2334 -8.63949,-7.3334 -1.15809,-1.1 -5.67828,-4.9804 -10.04486,-8.6232 -4.36659,-3.6428 -9.13925,-7.6565 -10.60592,-8.9193 -1.46667,-1.2628 -7.16667,-6.122 -12.66666,-10.7983 -5.5,-4.6763 -26.5,-22.58154 -46.66667,-39.78944 C 390.94123,856.60815 373.59603,841.81771 345.74888,818.14695 c -5.68533,-4.83266 -8.8134,-8.32062 -7.68916,-8.57377 1.0424,-0.23472 13.7034,9.66528 28.13556,22 14.43217,12.33472 39.19229,33.40462 55.0225,46.82199 15.8302,13.41738 29.98219,25.4724 31.44886,26.78894 5.8556,5.25623 32.43664,27.80515 38.68385,32.81583 3.65721,2.93334 7.24948,6.03849 7.98281,6.90034 0.73334,0.86185 4.03334,3.76627 7.33334,6.45426 14.13225,11.51133 18.02608,14.75833 19.96132,16.6454 1.12807,1.1 7.44826,6.4835 14.04486,11.96333 11.34164,9.42156 72.74807,61.73463 113.14622,96.39093 15.80871,13.5618 18.99467,15.754 22,15.1383 1.93284,-0.3961 2.76051,-0.3926 1.83928,0.01 -2.35717,1.0239 -0.69041,3.1665 2.46334,3.1665 1.44705,0 7.26163,-1.7623 12.92131,-3.9163 5.65968,-2.154 19.29032,-7.0048 30.29032,-10.7797 17.32418,-5.9452 42.18058,-15.0777 50.66666,-18.6155 1.46667,-0.6114 8.96667,-3.334 16.66667,-6.0502 13.39456,-4.7249 37.61811,-13.6188 77.99999,-28.6386 10.26667,-3.8186 25.23155,-9.3016 33.25529,-12.1845 15.21446,-5.4663 49.99131,-18.33745 77.41137,-28.65035 8.8,-3.30975 16.9,-6.23393 18,-6.49818 1.1,-0.26424 9.20003,-3.18842 18.00003,-6.49817 8.8,-3.30975 26.8,-9.98931 40,-14.84347 13.2,-4.85416 27.7563,-10.28808 32.3473,-12.07538 4.5911,-1.7873 10.5911,-3.21536 13.3334,-3.17346 4.4256,0.0676 3.7122,0.52498 -6.3474,4.06952 -9.7029,3.41885 -26.0074,9.49007 -35.3333,13.15687 -1.4667,0.57667 -7.1667,2.67132 -12.6667,4.65477 -15.6525,5.64474 -24.4368,8.87579 -27.3333,10.05386 -2.3873,0.97095 -17.4497,6.53627 -36.00003,13.30143 -3.66666,1.33721 -15.06666,5.55652 -25.33333,9.37625 -10.26666,3.81971 -25.26666,9.29081 -33.33333,12.15801 -8.06667,2.8673 -19.16667,6.9621 -24.66666,9.0996 -5.5,2.1376 -16,6.0531 -23.33334,8.7011 -15.44998,5.5789 -22.59116,8.2151 -37.33333,13.782 -11.42018,4.3124 -45.57943,16.9678 -61.99999,22.9699 -5.5,2.0104 -15.1,5.5575 -21.33334,7.8825 -6.23333,2.3249 -14.03333,5.1614 -17.33333,6.3032 -3.3,1.1419 -13.2,4.9494 -22,8.4611 -21.63418,8.6332 -35.20147,13.287 -38.73584,13.287 -1.6157,0 -3.7611,-1.0079 -4.76756,-2.2399 z m 101.5034,-397.65293 c 0,-2.04695 19.43402,-48.09146 30.88902,-73.18452 12.27472,-26.88872 28.58862,-59.78029 43.13544,-86.96832 5.48655,-10.25435 9.97553,-19.65746 9.97553,-20.89581 0,-1.23836 -3.97394,-10.6831 -8.83099,-20.98833 -4.85704,-10.30523 -10.90798,-23.23679 -13.44653,-28.73679 -2.53854,-5.49999 -6.61711,-14.19999 -9.06348,-19.33333 -2.44637,-5.13333 -16.24875,-34.53333 -30.67196,-65.33333 -14.4232,-30.79999 -27.91984,-59.59999 -29.99251,-63.99999 -2.07268,-4.4 -6.58347,-14 -10.02398,-21.33333 -3.4405,-7.33334 -8.51937,-18.13334 -11.28637,-24 -2.767,-5.86667 -11.4572,-24.46667 -19.31157,-41.33333 -7.85436,-16.86667 -16.11988,-34.56667 -18.36782,-39.33334 -2.24793,-4.76666 -6.31795,-13.46666 -9.04448,-19.33333 -2.72653,-5.86666 -8.257,-17.56666 -12.28992,-26 -13.42186,-28.06672 -18.33704,-38.60563 -18.33704,-39.31746 0,-0.38782 1.2,0.0443 2.66667,0.96023 1.46666,0.91595 2.66666,2.15076 2.66666,2.74402 0,0.59327 7.27434,16.49894 16.16519,35.34594 25.33231,53.69991 27.20964,57.68996 31.80621,67.6006 2.38084,5.13334 6.89834,14.73334 10.03889,21.33334 7.55582,15.87889 16.11914,34.12035 20.65548,43.99999 2.02031,4.4 6.96971,14.9 10.99868,23.33333 4.02896,8.43334 9.55885,20.13334 12.28866,26 2.7298,5.86667 7.52799,16.06667 10.66265,22.66667 5.10392,10.74627 26.95948,57.23999 41.05325,87.33333 2.91928,6.23333 7.83881,16.73333 10.93227,23.33333 3.09346,6.6 9.43273,20.25 14.08727,30.33333 4.65454,10.08333 9.10374,18.31673 9.88712,18.29643 0.78338,-0.0203 7.04869,-9.7703 13.92292,-21.66667 21.9998,-38.07229 48.05324,-77.9814 53.96375,-82.66261 7.17529,-5.68294 6.23617,-3.71418 -9.46757,19.84773 -18.90586,28.36637 -54.99478,88.30967 -54.99478,91.34573 0,0.645 2.25,1.23224 5,1.30498 2.75,0.0727 6.5,0.2805 8.33333,0.46168 1.83334,0.18118 9.63334,0.75311 17.33334,1.27095 7.69999,0.51783 14.89999,1.17385 15.99999,1.45781 1.1,0.28396 6.2,0.82784 11.33334,1.20863 8.87371,0.65823 37.16702,2.70723 57.33333,4.15207 5.13333,0.36778 12.33333,0.94162 16,1.27519 3.66669,0.33357 11.46669,0.94073 17.33329,1.34925 42.5186,2.9607 63.0352,4.4929 71.3334,5.32727 3.3,0.33181 12.6,0.95729 20.6666,1.38995 8.0667,0.43267 16.1667,1.02674 18,1.32016 1.8334,0.29342 9.6334,0.8824 17.3334,1.30884 7.7,0.42644 16.7,1.0364 20,1.35547 3.3,0.31908 11.1,0.91747 17.3333,1.32976 6.2333,0.4123 13.4333,0.99354 16,1.29166 2.5667,0.29811 11.2667,0.93756 19.3333,1.421 8.0667,0.48344 17.0667,1.06506 20,1.29249 2.9334,0.22742 10.7334,0.7844 17.3334,1.23773 6.6,0.45332 14.4,1.08783 17.3333,1.41001 2.9333,0.32218 11.6333,0.99799 19.3333,1.50179 7.7,0.5038 15.5,1.06424 17.3334,1.24542 1.8333,0.18119 5.7686,0.38894 8.7451,0.46169 2.9765,0.0727 6.5765,1.03987 8,2.14918 2.3533,1.8339 1.6202,1.95174 -8.0785,1.29854 -5.8666,-0.39511 -13.6666,-0.98375 -17.3333,-1.30807 -3.6667,-0.32433 -12.0667,-0.92031 -18.6667,-1.32439 -6.6,-0.40409 -14.7,-1.01279 -18,-1.35268 -3.3,-0.33988 -11.1,-0.94344 -17.3333,-1.34122 -10.7925,-0.68874 -16.7202,-1.11487 -38,-2.73175 -17.2485,-1.31057 -23.9371,-1.78495 -36.6667,-2.60051 -6.9666,-0.44635 -14.7666,-1.04974 -17.3333,-1.34087 -2.5667,-0.29113 -10.3667,-0.89155 -17.3333,-1.33427 -6.9667,-0.44271 -14.1667,-1.02132 -16,-1.2858 -1.8334,-0.26448 -10.5334,-0.85522 -19.3334,-1.31275 -8.8,-0.45754 -17.5,-1.07631 -19.3333,-1.37506 -1.8333,-0.29875 -9.9333,-0.90021 -18,-1.33659 -8.0667,-0.43638 -16.7667,-1.04085 -19.3333,-1.34326 -2.5667,-0.30241 -10.0667,-0.88138 -16.6667,-1.28659 -6.6,-0.40521 -15.6,-1.01443 -20,-1.35381 -4.4,-0.33937 -12.79999,-0.95993 -18.66666,-1.37902 -5.86667,-0.41908 -13.66667,-1.01279 -17.33333,-1.31935 -18.54655,-1.55062 -46.52257,-3.50346 -56,-3.90903 -22.20629,-0.95029 -40.15956,-2.35273 -44.54153,-3.47942 -2.49785,-0.64224 -5.00158,-0.8834 -5.56385,-0.53589 -1.95428,1.20781 -39.31341,73.86964 -48.29667,93.93486 -13.71551,30.63527 -21.46562,48.38831 -27.64823,63.33333 -3.94385,9.53333 -7.79593,17.77414 -8.56017,18.31291 -1.91462,1.34975 -3.38954,1.2602 -3.38954,-0.2058 z M 960.24221,362.33331 c 20.6738,-28.94141 45.37479,-60.83095 63.25729,-81.66666 17.2448,-20.09271 25.8338,-30.59119 25.8338,-31.57719 0,-1.03894 -4.486,-13.44811 -28.5912,-79.08947 -5.386,-14.66667 -14.684,-40.16666 -20.6624,-56.66666 C 994.1014,96.833327 988.37898,81.233328 987.36324,78.666662 985.62103,74.264288 960.45748,5.2358997 959.29372,1.6666666 958.99484,0.74999995 959.19803,0 959.74525,0 c 0.54723,0 2.99913,5.5499997 5.44868,12.333333 6.56651,18.18409 35.98727,98.243457 38.09617,103.666657 0.9981,2.56667 7.5999,20.56667 14.6707,40 7.0708,19.43333 13.6896,37.43333 14.7084,40 1.0188,2.56666 5.5908,15.03141 10.1599,27.69944 4.5691,12.66803 8.7053,22.86803 9.1916,22.66667 0.4863,-0.20136 7.9927,-8.16611 16.6809,-17.69945 29.5774,-32.45428 49.9198,-52.35737 54.1474,-52.97785 2.1392,-0.31396 3.7232,-0.15147 3.5202,0.36109 -0.2031,0.51256 -10.04,11.06102 -21.8597,23.44101 -29.585,30.98725 -49.8429,53.69251 -49.8429,55.86441 0,1.00135 0.5929,2.18708 1.3176,2.63496 1.7626,1.08936 64.6766,11.95575 120.0157,20.72891 79.2696,12.56695 157.3334,25.88158 157.3334,26.83493 0,0.63984 -1.35,0.86435 -3,0.4989 -1.65,-0.36544 -12.3,-2.1564 -23.6667,-3.97991 -11.3667,-1.82351 -44.6667,-7.239 -74,-12.03442 -71.1668,-11.63437 -120.763,-19.54759 -159.6808,-25.47757 -11.2874,-1.71987 -16.4595,-3.11472 -18.4599,-4.97835 -2.7171,-2.53142 -2.8302,-2.53333 -5.0815,-0.0859 -16.336,17.75878 -59.62825,71.61739 -86.24936,107.30011 -8.68334,11.63908 -11.73331,14.53634 -15.3025,14.53634 -0.67246,0 4.8849,-8.55 12.34967,-19 z M 1148.7026,146.60839 c 1.0618,-1.71798 45.6135,-42.55535 63.3044,-58.026651 24.9004,-21.776189 51.9757,-44.115416 81.8907,-67.566311 24.2305,-18.9947021 27.2683,-20.98603302 32.0356,-20.99999898 6.025,-0.01765087 6.4318,-0.52462394 -8.6,10.71932698 -43.3131,32.398566 -100.9614,80.788114 -141.7543,118.987484 -13.8962,13.01269 -18.0605,16.1791 -22.2973,16.95384 -2.8653,0.52397 -4.9259,0.49351 -4.5791,-0.0677 z"
       id="path1" />
  </g>
</svg>
