<?xml version="1.0" encoding="UTF-8" standalone="no"?>
<!-- Created with Inkscape (http://www.inkscape.org/) -->

<svg
   version="1.1"
   id="svg1"
   width="1333.3333"
   height="1333.3333"
   viewBox="0 0 1333.3333 1333.3333"
   sodipodi:docname="CurveR_DTL.svg"
   inkscape:version="1.4.2 (ebf0e940d0, 2025-05-08)"
   xmlns:inkscape="http://www.inkscape.org/namespaces/inkscape"
   xmlns:sodipodi="http://sodipodi.sourceforge.net/DTD/sodipodi-0.dtd"
   xmlns="http://www.w3.org/2000/svg"
   xmlns:svg="http://www.w3.org/2000/svg">
  <defs
     id="defs1" />
  <sodipodi:namedview
     id="namedview1"
     pagecolor="#505050"
     bordercolor="#eeeeee"
     borderopacity="1"
     inkscape:showpageshadow="0"
     inkscape:pageopacity="0"
     inkscape:pagecheckerboard="0"
     inkscape:deskcolor="#505050"
     showgrid="false"
     inkscape:zoom="0.59400004"
     inkscape:cx="666.66663"
     inkscape:cy="666.66663"
     inkscape:window-width="1920"
     inkscape:window-height="995"
     inkscape:window-x="0"
     inkscape:window-y="0"
     inkscape:window-maximized="1"
     inkscape:current-layer="g1" />
  <g
     inkscape:groupmode="layer"
     inkscape:label="Image"
     id="g1">
    <path
       style="fill:#ffff00"
       d="m 1197.3333,1082.5621 c -144.8256,-6.8309 -274.97304,-25.5681 -406.66668,-58.5476 -102.9989,-25.79356 -211.12566,-63.00712 -303.99998,-104.62646 -7.7,-3.45056 -18.2,-7.96179 -23.33333,-10.02494 -7.91966,-3.18301 -34.58766,-16.15559 -80.46429,-39.14162 -17.63331,-8.835 -58.46304,-31.38694 -86.86904,-47.98136 C 199.86358,766.0785 100.74761,695.91765 14.666666,623.09379 2.7259736,612.99206 0.60383349,610.60018 0.23950164,606.83285 c -0.4169168,-4.31108 0.14287748,-3.94053 23.33333236,15.44533 83.808466,70.05896 167.093886,129.52671 259.473906,185.27045 37.48827,22.62109 86.39224,49.78465 89.6299,49.78465 1.58098,0 2.01937,-2.12391 2.13288,-10.33333 0.0786,-5.68333 0.28819,-12.43333 0.4658,-15 0.17761,-2.56667 0.75319,-16.96667 1.27908,-32 0.52588,-15.03333 1.17436,-30.03333 1.44107,-33.33333 0.26672,-3.3 0.8393,-18 1.27242,-32.66666 0.43312,-14.66667 1.05865,-29.96667 1.39006,-34 0.33141,-4.03334 0.93697,-17.83333 1.34568,-30.66667 0.40871,-12.83333 1.00629,-27.23333 1.32796,-32 0.32167,-4.76666 0.94725,-20.96666 1.39018,-35.99999 0.44293,-15.03334 1.02081,-30.03333 1.28417,-33.33333 0.26335,-3.3 0.8464,-18 1.29565,-32.66667 0.44924,-14.66667 1.06078,-29.96666 1.35897,-34 0.29818,-4.03333 0.87828,-19.03333 1.2891,-33.33333 0.41082,-14.3 1.0636,-36.52343 1.45061,-49.38541 0.82998,-27.58356 4.19949,-22.04202 -26.73363,-43.96645 -30.36041,-21.51852 -60.95763,-45.11577 -83.99999,-64.78265 -3.66667,-3.12954 -13.86667,-11.83523 -22.66667,-19.34599 -26.20827,-22.36864 -61.69368,-55.50644 -88.72243,-82.85282 -4.89251,-4.95 -9.58144,-9 -10.41985,-9 -0.83841,0 -1.57028,1.65 -1.62639,3.66667 -0.0561,2.01667 -0.29288,4.56667 -0.52615,5.66667 -0.23328,1.1 -0.81186,4.7 -1.28575,8 -0.47388,3.3 -1.46702,9.3 -2.20696,13.33333 -2.13484,11.63674 -5.13971,31.65709 -7.20436,48 -0.4169,3.3 -1.02054,7.5 -1.34143,9.33333 -0.32089,1.83333 -0.93171,6.03333 -1.35737,9.33333 -0.42567,3.3 -1.61485,11.1 -2.64263,17.33333 -1.02779,6.23334 -2.21697,14.03334 -2.64263,17.33334 -0.42566,3.3 -1.03173,7.5 -1.34681,9.33333 -0.31508,1.83333 -0.8638,5.43333 -1.21938,8 -1.10532,7.97848 -8.77738,61.74596 -9.51265,66.66666 -0.38352,2.56667 -0.93416,6.16667 -1.22364,8 -0.28949,1.83333 -0.87126,6.03333 -1.29283,9.33333 -0.42156,3.3 -0.98841,7.2 -1.25966,8.66667 -0.27125,1.46667 -0.9089,5.66667 -1.41701,9.33333 -0.50811,3.66667 -1.15721,8.16667 -1.44245,10 -0.28524,1.83334 -2.35203,16.23333 -4.59286,32 -4.86963,34.26307 -5.26294,36.9143 -6.01268,40.53043 -0.31962,1.5416 -0.90752,5.8029 -1.30644,9.46957 -0.39892,3.66666 -0.99233,8.16666 -1.31869,10 -0.32635,1.83333 -1.20823,7.83333 -1.95972,13.33333 -0.7515,5.5 -2.54334,17.8 -3.98188,27.33333 -1.438532,9.53333 -2.952621,19.73333 -3.364639,22.66667 -4.791351,34.11169 -6.400442,42.86367 -8.210146,44.65566 -1.815329,1.79756 -1.964278,1.58646 -1.403404,-1.989 0.77371,-4.93225 2.233142,-14.86437 2.840854,-19.33333 0.511076,-3.75833 1.953897,-13.64231 2.72488,-18.66667 0.281324,-1.83333 2.664208,-18.33333 5.295299,-36.66666 2.631096,-18.33333 5.008986,-34.83333 5.284206,-36.66667 0.27522,-1.83333 0.84532,-6.03333 1.26688,-9.33333 0.42157,-3.3 0.98842,-7.2 1.25966,-8.66667 0.27125,-1.46666 0.90891,-5.66666 1.41701,-9.33333 0.50811,-3.66666 1.15705,-8.16666 1.4421,-10 0.28504,-1.83333 1.78839,-12.03333 3.34078,-22.66666 1.55239,-10.63334 3.38163,-23.10837 4.06498,-27.7223 0.68334,-4.61393 1.56202,-11.21393 1.95262,-14.66667 0.3906,-3.45273 1.2732,-9.5777 1.96134,-13.61103 0.96024,-5.62818 17.1851,-118.05631 20.78109,-143.99999 0.35576,-2.56667 0.90463,-6.16667 1.21971,-8 0.31508,-1.83333 0.90179,-5.75735 1.3038,-8.72004 0.40201,-2.96269 0.96051,-6.57887 1.24112,-8.03594 0.28061,-1.45708 1.19915,-8.63306 2.04121,-15.94662 0.84205,-7.31357 2.77927,-22.14166 4.30492,-32.95131 2.37713,-16.84255 2.51104,-20.01633 0.93616,-22.18754 -1.01078,-1.3935 -12.11916,-13.54924 -24.68531,-27.01276 C 88.819966,122.74257 58.109363,86.754287 21.015428,39.435551 2.0207259,15.205033 0.02939498,12.167253 0.01542902,7.3999995 -0.00222185,1.3749077 -0.50919492,0.96816869 10.734756,15.999999 43.702857,60.074445 94.057169,119.86092 135.94714,164.66666 c 21.33498,22.82001 18.53983,21.18546 28.50297,16.66796 4.61622,-2.0931 11.6534,-5.00159 15.63817,-6.46332 10.59574,-3.88682 39.9831,-15.10669 54.57837,-20.8376 6.96667,-2.7355 18.06667,-7.04467 24.66667,-9.57593 21.20666,-8.13326 27.80917,-10.71345 37.33333,-14.58944 5.13333,-2.08908 10.01895,-3.90154 10.85692,-4.02769 0.83797,-0.12615 5.03797,-1.72977 9.33333,-3.5636 4.29536,-1.83384 16.80975,-6.77423 27.80975,-10.97866 10.99999,-4.20443 25.09999,-9.60109 31.33333,-11.992571 19.89388,-7.632492 29.13232,-11.179638 38.01694,-14.5968 4.76666,-1.833333 12.71285,-4.880885 17.65819,-6.772337 4.94534,-1.891452 12.59153,-4.848479 16.99153,-6.571172 4.4,-1.722692 11.9,-4.632167 16.66666,-6.4655 4.76667,-1.833334 12.56667,-4.833333 17.33334,-6.666667 C 487.4333,56.4 495.2333,53.4 499.99997,51.566667 c 4.76667,-1.833333 12.56667,-4.861925 17.33333,-6.730204 4.76667,-1.868278 18.26667,-7.044688 30,-11.503132 24.10152,-9.15812 36.86868,-14.117938 42.56115,-16.534261 l 3.89448,-1.653119 -4.56115,-4.082062 c -2.50863,-2.2451348 -6.36115,-5.6340131 -8.56115,-7.530841 l -4,-3.44877802 4.33976,-0.04213499 c 3.55359,-0.03450206 7.78052,2.69318831 23.33333,15.05728201 67.47878,53.643945 130.24793,93.640643 200.3269,127.648933 125.86021,61.0781 248.37848,93.27105 395.99998,104.05313 11.7333,0.85699 45.5238,1.65166 75.0899,1.76594 47.1509,0.18225 53.9044,-0.0446 54.9595,-1.84649 0.9187,-1.56912 1.2124,-1.16427 1.2434,1.71421 0.028,2.61323 -17.8104,34.08642 -58.1898,102.66666 -32.0267,54.39399 -67.0366,113.89817 -77.7998,132.2315 -28.4591,48.4753 -61.0122,103.72766 -81.0633,137.58853 -9.6366,16.2737 -17.6829,30.34728 -17.8805,31.27463 -1.3176,6.18165 203.6405,20.17886 214.033,14.61695 1.7875,-0.95666 6.8085,-1.45188 12.313,-1.21442 8.2872,0.35751 9.3381,0.70577 9.6961,3.21329 0.3761,2.63518 -0.3797,2.86894 -12,3.71118 -29.2164,2.11761 -148.5397,-4.7067 -207.0682,-11.84259 -8.0666,-0.9835 -14.8912,-1.56448 -15.1657,-1.29107 -0.2744,0.27342 3.5155,7.4104 8.4221,15.85995 4.9066,8.44956 9.8879,17.32499 11.0696,19.72318 2.2513,4.56913 38.9038,68.01501 100.3422,173.69368 20.0379,34.46667 47.9268,82.46667 61.9754,106.66666 14.0485,24.2 31.3924,54.03263 38.5419,66.29483 9.5746,16.4215 12.887,23.2664 12.5735,25.9828 -0.3582,3.1037 -2.2554,0.5221 -11.9753,-16.2948 -6.3523,-10.9906 -20.0813,-34.6828 -30.5089,-52.64949 -10.4276,-17.96667 -22.2652,-38.36667 -26.3058,-45.33333 -23.2953,-40.16502 -56.8273,-97.84932 -66.2684,-114 -6.0015,-10.26666 -26.6703,-45.66666 -45.9305,-78.66666 -19.2603,-33 -38.2877,-65.4 -42.2833,-72 -3.9955,-6.59999 -9.6341,-16.24122 -12.5302,-21.42495 l -5.2656,-9.42495 -12.3455,-1.61665 c -112.54017,-14.73724 -233.0776,-44.0663 -338.79954,-82.43642 -13.08309,-4.7483 -24.09621,-8.32449 -24.47361,-7.94709 -0.37741,0.37741 1.11906,8.97306 3.32547,19.10146 2.2064,10.1284 4.37183,20.51528 4.81206,23.08194 1.32401,7.71942 1.88427,10.3684 6.89956,32.6215 2.64999,11.75817 5.01089,22.35513 5.24644,23.5488 0.23554,1.19366 1.73527,8.09366 3.33272,15.33333 3.87492,17.56124 7.7087,35.12226 10.12936,46.39861 1.09042,5.07957 2.19313,9.57957 2.45048,10 0.25735,0.42043 0.81156,2.9363 1.23158,5.59083 0.42002,2.65452 2.24034,11.35452 4.04515,19.33333 1.80482,7.97881 5.73517,25.60693 8.73412,39.17359 2.99895,13.56667 6.30261,28.26667 7.34148,32.66667 1.03886,4.4 2.57701,11.3 3.41812,15.33333 0.84111,4.03333 2.35458,10.93333 3.36327,15.33333 1.43156,6.24465 10.92456,48.82113 13.22917,59.33333 0.24115,1.1 1.42339,6.74875 2.6272,12.55279 1.2038,5.80403 2.40378,10.90403 2.66661,11.33333 0.26283,0.4293 0.81535,2.91358 1.22782,5.52063 0.41248,2.60704 2.00865,10.10704 3.54704,16.66666 1.53839,6.55962 3.34878,14.62659 4.02309,17.92659 0.6743,3.3 2.11047,10.07072 3.19148,15.04609 1.08101,4.9753 1.51924,10.2523 0.97385,11.7266 -0.71337,1.9285 -1.86047,-1.1711 -4.088,-11.046 -1.70301,-7.54969 -3.35277,-15.13875 -3.66613,-16.8646 -0.31336,-1.72585 -2.63841,-12.0771 -5.16679,-23.00277 -2.52838,-10.92567 -4.93169,-21.81361 -5.34069,-24.19542 -0.409,-2.38181 -1.38023,-6.72823 -2.15828,-9.6587 -0.77806,-2.93048 -1.63714,-6.53048 -1.90907,-8 -0.7592,-4.10274 -3.17832,-15.13391 -5.2643,-24.0052 -2.33176,-9.91655 -7.12025,-32.0256 -8.04351,-37.13791 -0.37791,-2.09251 -2.74112,-12.68045 -5.2516,-23.52875 -2.51047,-10.8483 -4.8212,-21.13624 -5.13494,-22.86209 -0.31375,-1.72585 -1.50161,-7.03791 -2.6397,-11.80458 -1.90838,-7.99292 -3.56277,-15.39015 -8.20046,-36.66666 -2.44983,-11.23918 -10.20904,-46.25897 -10.7829,-48.66666 -0.26217,-1.1 -1.65881,-7.4 -3.10364,-14 -1.44483,-6.6 -3.84877,-17.19491 -5.34208,-23.54425 -1.49331,-6.34933 -3.05163,-13.45442 -3.46294,-15.78908 -0.41131,-2.33467 -1.89574,-9.16789 -3.29874,-15.18496 -1.40299,-6.01706 -2.83306,-12.41197 -3.17792,-14.21091 -0.34486,-1.79894 -1.33036,-6.2708 -2.19001,-9.93746 -0.85964,-3.66667 -1.83291,-8.16667 -2.16281,-10 -0.3299,-1.83334 -1.27264,-5.42843 -2.09498,-7.9891 -1.42811,-4.44696 -6.9872,-28.25348 -8.56463,-36.67757 -0.91816,-4.90332 -3.69693,-8.17328 -7.82627,-9.20968 -1.71551,-0.43056 -14.03834,-5.32502 -27.38407,-10.87656 -88.43145,-36.78563 -171.53747,-81.09158 -256.56304,-136.78033 -10.96103,-7.17909 -20.06006,-12.92101 -20.22007,-12.75982 -0.48663,0.49021 -1.65362,16.6518 -2.52438,34.95973 -0.45342,9.53334 -1.05738,20.63334 -1.34214,24.66667 -0.28475,4.03333 -0.91327,18.49116 -1.39671,32.1285 -0.48344,13.63734 -1.05556,26.83734 -1.27139,29.33333 -0.21583,2.49599 -0.77011,18.03816 -1.23175,34.53816 -0.46163,16.5 -1.10027,32.7 -1.41918,36 -0.31892,3.3 -0.90705,15.3 -1.30697,26.66667 -0.6889,19.58017 -1.095,29.85999 -2.66,67.33332 -0.36752,8.8 -0.97857,24.4 -1.35791,34.66667 -0.37933,10.26667 -0.98229,25.26666 -1.3399,33.33333 -0.76356,17.22353 -1.64692,39.9391 -2.67031,68.66666 -0.40492,11.36667 -1.0453,25.00851 -1.42305,30.31521 l -0.68683,9.64855 35.05654,17.19149 c 70.67481,34.65847 82.98374,40.27711 130.83131,59.72035 229.88511,93.41562 483.62192,141.78652 743.78282,141.79052 37.5145,5e-4 43.1855,0.3861 41.673,2.8334 -0.8726,1.4119 -99.8861,1.2077 -131.2306,-0.2707 z m -76.96,-479.2288 c 15.972,-27.13334 37.6578,-64.03333 48.1907,-82 10.5329,-17.96666 33.5178,-56.96666 51.0777,-86.66666 17.5599,-29.7 41.8357,-70.8 53.9462,-91.33333 12.1106,-20.53333 29.0076,-49.17392 37.5489,-63.64575 8.5414,-14.47184 15.5295,-26.47184 15.5292,-26.66667 -3e-4,-0.19483 -25.3503,-0.38555 -56.3333,-0.42382 -41.4615,-0.0512 -63.7245,-0.68353 -84.3328,-2.39523 C 1073.1321,240.82718 974.601,218.33191 876.35458,179.50787 803.83786,150.85143 740.78801,117.44334 669.99996,70.167163 644.4642,53.112968 601.09221,21.51264 599.34857,18.691385 c -1.0773,-1.743115 -2.21162,-1.351204 -48.68194,16.819752 -4.76666,1.863875 -12.56666,4.888864 -17.33333,6.722197 -15.88841,6.110928 -24.56517,9.466656 -36.66666,14.180798 -6.6,2.571032 -24,9.270729 -38.66667,14.888214 -14.66666,5.617486 -29.66666,11.443147 -33.33333,12.945914 -3.66667,1.502767 -10.26667,4.095087 -14.66667,5.760712 -4.39999,1.665625 -12.19999,4.6616 -17.33333,6.657722 -10.69133,4.157376 -24.23403,9.312886 -32,12.181916 -2.93333,1.08369 -13.43333,5.1856 -23.33333,9.11536 -9.9,3.92977 -36.3,14.17838 -58.66666,22.77469 -22.36667,8.59631 -49.06666,18.88522 -59.33333,22.86424 -31.31352,12.13609 -35.62493,13.78816 -46.35119,17.7611 -12.25195,4.53805 -12.98214,4.94162 -12.98214,7.17521 0,3.37194 57.19679,58.05111 101.38846,96.92568 40.14534,35.31508 124.91722,101.20175 130.2094,101.20175 1.09181,0 2.28701,-1.15447 2.65601,-2.5655 0.44139,-1.6879 6.89825,-5.74812 18.87517,-11.86914 10.01235,-5.117 30.80428,-15.7464 46.20428,-23.62089 35.384,-18.09291 65.11152,-33.25904 110.66666,-56.45894 19.79999,-10.08356 53.69999,-27.37409 75.33332,-38.42339 21.63334,-11.04931 55.23333,-28.18362 74.66667,-38.07625 19.43333,-9.89262 49.63236,-25.28286 67.10896,-34.20053 21.45136,-10.94585 31.12638,-15.287 29.77737,-13.36103 -1.09904,1.56911 -7.59808,5.68919 -14.4423,9.15574 -16.12099,8.16516 -77.38436,39.46524 -109.77737,56.08637 -13.93333,7.14931 -40.93333,20.95226 -59.99999,30.67323 -42.70608,21.77331 -82.82485,42.2635 -127.33333,65.034 -18.7,9.56691 -50.4185,25.69657 -70.48557,35.84369 -20.06706,10.14712 -36.78177,19.20065 -37.14379,20.11896 -1.98497,5.03509 1.3404,8.18435 25.93331,24.55987 59.49446,39.61519 135.99629,82.53208 195.69605,109.78386 29.31643,13.38238 65.71116,29.00801 81.82973,35.13259 l 6.68931,2.54173 22.40714,-20.00919 c 12.32393,-11.00506 24.50714,-21.91274 27.07381,-24.23929 12.33518,-11.18118 35.24337,-31.72522 44.72117,-40.10589 5.80535,-5.13334 14.47621,-12.93333 19.26858,-17.33333 4.79237,-4.4 13.45923,-12.2 19.25968,-17.33334 5.80045,-5.13333 11.88062,-10.53333 13.51149,-12 1.63087,-1.46666 4.37683,-3.88473 6.10214,-5.37348 1.72531,-1.48875 9.75874,-8.68875 17.85206,-16 14.86184,-13.42571 32.81973,-29.5027 37.6273,-33.68621 2.35701,-2.05106 18.95703,-16.90151 26.38816,-23.60697 1.62539,-1.46666 7.64634,-6.86666 13.37988,-12 5.73355,-5.13333 19.79006,-17.73333 31.23669,-28 21.16666,-18.98472 35.38646,-31.67273 47.25436,-42.16414 7.9911,-7.06421 9.6082,-8.53563 15.8594,-14.43074 2.6798,-2.52719 4.8724,-3.80686 4.8724,-2.84371 0,2.24609 -8.0964,10.23108 -31.2979,30.86732 -10.2472,9.1142 -19.5761,17.47128 -20.731,18.57128 -1.1548,1.1 -6.83149,6.19999 -12.61484,11.33333 -5.78334,5.13333 -11.48341,10.23333 -12.6668,11.33333 -1.1834,1.1 -4.82265,4.35983 -8.08721,7.24407 -3.26457,2.88424 -10.73558,9.55275 -16.60224,14.81892 -5.86667,5.26617 -17.56667,15.74424 -26,23.2846 -14.28749,12.77463 -36.37407,32.73607 -41.29218,37.31907 -1.18043,1.1 -6.62259,5.89934 -12.09369,10.6652 -5.4711,4.76586 -10.24746,9.01769 -10.61413,9.44852 -0.62547,0.73491 -17.29304,15.66504 -39.91154,35.75112 -5.45135,4.841 -11.23067,10.00182 -12.84293,11.46849 -1.61225,1.46667 -7.61225,6.86667 -13.33333,12 -5.72107,5.13333 -11.72107,10.53333 -13.33333,12 -1.61226,1.46667 -7.35206,6.61765 -12.75512,11.44663 -5.40306,4.82899 -16.42374,14.70285 -24.49041,21.94192 -8.06666,7.23907 -16.40259,14.68809 -18.52428,16.55337 -13.60877,11.9641 -14.78008,13.25197 -13.35998,14.68942 3.75643,3.80236 86.57842,31.91955 131.27114,44.56516 66.37238,18.77977 136.33936,33.9904 202.61307,44.04754 12.1,1.83619 25.6,3.89543 30,4.57609 4.4,0.68066 9.2,1.14958 10.6667,1.04204 2.0258,-0.14853 9.6454,-12.05099 31.7067,-49.52884 z"
       id="path1" />
  </g>
</svg>
