<?xml version="1.0" encoding="UTF-8" standalone="no"?>
<!-- Created with Inkscape (http://www.inkscape.org/) -->

<svg
   version="1.1"
   id="svg1"
   width="1333.3333"
   height="1333.3333"
   viewBox="0 0 1333.3333 1333.3333"
   sodipodi:docname="CurveDTL_B.svg"
   inkscape:version="1.4.2 (ebf0e940d0, 2025-05-08)"
   xmlns:inkscape="http://www.inkscape.org/namespaces/inkscape"
   xmlns:sodipodi="http://sodipodi.sourceforge.net/DTD/sodipodi-0.dtd"
   xmlns="http://www.w3.org/2000/svg"
   xmlns:svg="http://www.w3.org/2000/svg">
  <defs
     id="defs1" />
  <sodipodi:namedview
     id="namedview1"
     pagecolor="#505050"
     bordercolor="#eeeeee"
     borderopacity="1"
     inkscape:showpageshadow="0"
     inkscape:pageopacity="0"
     inkscape:pagecheckerboard="0"
     inkscape:deskcolor="#505050"
     showgrid="false"
     inkscape:zoom="0.59400004"
     inkscape:cx="666.66663"
     inkscape:cy="666.66663"
     inkscape:window-width="1920"
     inkscape:window-height="995"
     inkscape:window-x="0"
     inkscape:window-y="0"
     inkscape:window-maximized="1"
     inkscape:current-layer="g1" />
  <g
     inkscape:groupmode="layer"
     inkscape:label="Image"
     id="g1">
    <path
       style="fill:#ffff00;stroke:none"
       d="M 1.3333333,0 V 1.3333333 C 76.21841,55.165524 145.815,117.81502 210.66665,182.66666 c 16.03015,16.03011 30.9644,33.02302 46.68107,49.33333 7.18801,7.45947 17.87756,16.21883 19.9856,26.66666 l -68,10.55965 L 75.999995,290.77366 0,302.66665 v 4 l 75.999995,-11.67082 131.999995,-21.33333 50.66666,-7.78288 22.66667,-7.21297 h 1.33333 c 7.52897,13.02498 19.6026,24.40535 29.2253,36 16.64296,20.05355 32.57869,40.75374 48.55452,61.33333 39.50374,50.88745 76.08068,106.77856 106.22017,163.99999 -51.36523,0.10815 -103.42924,8.37191 -154.66666,11.88069 -65.16035,4.46224 -131.12576,6.75065 -195.99999,14.40528 -25.496659,3.00838 -51.70498,3.82991 -77.333326,5.59472 -10.932026,0.75285 -24.37317,-0.98803 -31.9999977,8.11931 l 109.3333237,-7.8807 181.33333,-13.33333 109.33332,-8 64,-5.45264 54.85184,110.66666 65.14815,170.66666 c -111.38032,-8.79045 -222.37657,-29.13965 -333.33331,-42.45988 -31.14471,-3.73885 -62.18795,-8.27108 -93.33333,-12 -12.07082,-1.44523 -33.38792,-0.24097 -43.71604,-6.85799 -11.5184,-7.37964 -19.76933,-31.10294 -27.017497,-42.68213 -15.061675,-24.06156 -31.022337,-47.59423 -47.546292,-70.66666 -10.5798,-14.77262 -22.06568,-26.6062 -27.053495,-44 L 15.999999,590.66663 0,575.99996 c 0.015702,20.32268 21.137015,37.73552 32.835389,53.33333 27.384334,36.51245 60.088352,76.27458 77.831271,118.66666 l -6.66667,2.66667 c 15.37281,5.04622 20.77063,20.87516 27.67079,34.66667 15.32923,30.63883 29.73303,61.50951 42.46296,93.33332 37.88277,94.70385 59.98506,194.61419 69.63991,295.99999 3.24174,34.0416 4.22633,68.4525 4.22633,102.6667 0,16.4719 -3.78928,36.0839 0,52 l -3.99999,1.3333 v 1.3333 c 7.12727,-0.02 13.33115,0.1811 14.66666,-8 l -5.33333,1.3334 c 0.004,-37.7679 2.46981,-75.5239 -0.11935,-113.3334 -6.59189,-96.2616 -22.79581,-190.7108 -52.77365,-282.66662 -13.84349,-42.46436 -31.57071,-83.46061 -50.18518,-124 -8.04599,-17.52294 -19.66826,-33.89949 -26.25515,-51.99999 31.8568,9.50455 69.63961,9.36604 102.66666,13.70882 80.8659,10.6333 161.85916,20.55175 242.66665,31.62451 29.28671,4.01302 58.65613,8.27051 88,11.79321 8.55985,1.02759 28.7976,-0.0203 35.02982,6.32511 4.42733,4.50782 5.54769,14.62923 7.24899,20.54834 4.83638,16.82674 9.63842,33.68262 13.88993,50.66667 16.40295,65.52709 35.58854,136.24935 38.49792,203.99995 -11.51046,-1.0112 -22.52738,-7.022 -33.33333,-10.8477 -23.16703,-8.202 -46.2408,-16.6354 -69.33333,-25.0813 -71.1372,-26.0177 -141.97659,-52.9082 -213.33332,-78.32714 -21.83168,-7.77702 -43.71108,-15.80949 -65.33333,-24.15837 -14.45056,-5.57975 -28.31911,-12.89013 -44,-10.91878 v 1.33333 l 110.66666,40.92285 163.99999,60.48141 98.66666,36.496 54.66667,19.4331 c 0,29.1395 5.01318,58.9925 7.77364,88 2.01668,21.1914 0.89274,42.92 3.66052,64 1.73869,13.2422 -0.60702,26.7577 1.13167,40 0.51567,3.9274 2.45569,12.0098 -1.37036,14.9115 -5.17647,3.9259 -21.16638,-7.7004 -25.86214,-10.3457 -23.94079,-13.4867 -49.25944,-24.7393 -73.33333,-38.0844 -67.11686,-37.2052 -136.49812,-70.3859 -203.99999,-106.893 -17.66259,-9.5524 -35.84686,-18.2979 -53.33333,-28.1543 -13.37365,-7.5381 -27.04821,-16.7571 -42.66666,-16.7675 v 1.3334 c 99.37109,58.0542 204.39403,108.8845 306.66665,161.6779 27.7264,14.3125 55.20328,29.1809 82.66048,44.0052 9.96541,5.3804 5.14741,17.9114 17.33951,18.3169 0,-19.851 11.24048,-23.5433 26.66667,-33.7768 19.82503,-13.1517 40.19401,-25.4879 59.99999,-38.6677 53.77336,-35.7832 108.5813,-70.0385 162.66666,-105.3477 40.02921,-26.1328 79.52949,-55.0217 121.33329,-78.2078 v -1.3334 c -15.1598,0.043 -26.4157,10.21 -38.6666,18.2079 -22.60607,14.7581 -45.39277,29.241 -68.00002,44 -54.02621,35.2706 -108.64038,69.6469 -162.66666,104.9176 -32.78719,21.405 -65.95345,48.1374 -101.33333,64.8745 l -5.55969,-136 -5.20679,-52 -1.64298,-18.6615 24.40946,-23.2335 66.66666,-56.8786 175.99999,-149.79219 73.33336,-62.10083 v -1.33333 c -14.90034,1.22689 -25.22431,13.36816 -36.00003,22.66667 -20.76643,17.91959 -41.89404,35.42179 -62.66666,53.33333 -49.93571,43.05802 -100.66357,85.19921 -150.66666,128.17385 -30.20808,25.962 -60.12922,56.5291 -93.33332,78.4928 -2.76978,-64.4993 -20.24463,-132.23958 -35.83126,-194.66665 -4.79085,-19.18824 -9.85421,-38.34855 -15.40124,-57.33333 -2.29842,-7.86638 -7.71643,-18.38802 -7.01648,-26.66667 0.8219,-9.72095 14.05542,-21.73917 19.75105,-29.33333 18.29476,-24.39298 36.3735,-48.94238 54.66667,-73.33333 47.54821,-63.39762 94.45267,-127.27026 141.99995,-190.66665 22.47127,-29.96167 43.16512,-63.08097 68.49796,-90.66667 28.59529,68.68188 60.71883,135.02002 85.74381,205.33332 51.76121,145.43514 82.69641,298.6424 98.03081,452.00001 6.0633,60.6381 9.5587,121.704 9.5587,182.6666 0,15.1105 -0.072,30.223 0,45.3334 0.03,6.229 -0.3322,13.7028 5.3322,17.3333 6.3077,-33.9758 2.4719,-74.9809 0.1193,-109.3333 -3.8746,-56.5782 -5.8465,-112.8088 -11.8981,-169.3334 C 1042.8691,777.83752 952.99001,510.98988 811.19949,274.66665 766.97424,200.95612 717.84102,129.90437 664.26538,62.666663 652.4633,47.854978 640.45317,33.215411 628.32919,18.666666 620.18551,8.8942866 614.90849,0.04801432 601.3333,0 c 23.894,34.943927 54.55936,66.378577 80.465,99.999994 44.89111,58.261556 86.23266,119.606516 124.06786,182.666656 14.20492,23.67545 28.45426,47.47306 41.1451,72 3.28711,6.35278 6.71883,23.64697 12.98869,22.66666 l 22.66666,45.33333 c -11.45581,6.22746 -19.12622,21.72111 -26.83536,32 -17.96265,23.95019 -36.15357,47.76774 -53.72949,71.99999 -46.229,63.73682 -94.28735,126.2445 -141.4012,189.33333 l -40.86934,54.66666 c -7.14388,9.52523 -16.85807,19.53157 -21.16459,30.66666 h -2.66667 c -19.6514,-69.24877 -49.11026,-136.06753 -79.0782,-201.33332 -8.95471,-19.50203 -19.48083,-38.25309 -29.24792,-57.33333 -3.35335,-6.55086 -11.30705,-15.87125 -11.30762,-23.43416 -7.3e-4,-9.62288 9.92534,-22.5026 13.73458,-31.2325 12.5638,-28.79346 27.04427,-56.78165 40.15429,-85.33333 45.14677,-98.32307 96.16329,-194.79255 137.74487,-294.66665 -11.45479,3.9292 -15.26778,17.7972 -19.81482,28 -10.7712,24.16878 -22.33809,48.18091 -33.86316,72 -34.45682,71.21256 -67.49263,143.13418 -101.28087,214.66665 -13.97347,29.58293 -25.87228,61.06014 -42.37447,89.33333 -31.62992,-67.74568 -79.92338,-130.57454 -125.17488,-189.33332 -13.99662,-18.17448 -28.85506,-35.60018 -43.39095,-53.33333 -4.71568,-5.75293 -14.67519,-13.6499 -15.64404,-21.33334 -0.76088,-6.03426 4.03988,-14.34887 6.00205,-19.99999 5.59422,-16.11141 12.10956,-31.90446 17.75,-48 C 331.32784,119.73502 355.53737,60.48608 375.99998,0 369.08067,2.234619 367.98793,9.7160639 365.74379,15.999999 360.48334,30.730141 354.8642,45.343829 349.40017,59.999996 326.41445,121.65478 305.01548,183.94343 281.33332,245.33332 255.74994,216.0493 227.69817,190.49486 200.17797,163.71605 192.0405,155.79776 185.73605,145.54971 177.33332,137.35286 147.32463,108.07926 115.19948,80.299556 82.666662,53.851885 61.130255,36.343829 30.182005,0.00325521 1.3333333,0 M 1014.6666,809.33328 l 1.3333,1.33334 -1.3333,-1.33334 m -849.33328,6.66667 -1.33333,2.66667 h 2.66667 l -1.33334,-2.66667 m 78.66667,238.66665 1.33333,1.3333 z"
       id="path1" />
  </g>
</svg>
