<?xml version="1.0" encoding="UTF-8" standalone="no"?>
<!-- Created with Inkscape (http://www.inkscape.org/) -->

<svg
   version="1.1"
   id="svg1"
   width="1333.3333"
   height="1333.3333"
   viewBox="0 0 1333.3333 1333.3333"
   sodipodi:docname="Curve90L_B.svg"
   inkscape:version="1.4.2 (ebf0e940d0, 2025-05-08)"
   xmlns:inkscape="http://www.inkscape.org/namespaces/inkscape"
   xmlns:sodipodi="http://sodipodi.sourceforge.net/DTD/sodipodi-0.dtd"
   xmlns="http://www.w3.org/2000/svg"
   xmlns:svg="http://www.w3.org/2000/svg">
  <defs
     id="defs1" />
  <sodipodi:namedview
     id="namedview1"
     pagecolor="#505050"
     bordercolor="#eeeeee"
     borderopacity="1"
     inkscape:showpageshadow="0"
     inkscape:pageopacity="0"
     inkscape:pagecheckerboard="0"
     inkscape:deskcolor="#505050"
     showgrid="false"
     inkscape:zoom="0.59400004"
     inkscape:cx="666.66663"
     inkscape:cy="666.66663"
     inkscape:window-width="1920"
     inkscape:window-height="995"
     inkscape:window-x="0"
     inkscape:window-y="0"
     inkscape:window-maximized="1"
     inkscape:current-layer="g1" />
  <g
     inkscape:groupmode="layer"
     inkscape:label="Image"
     id="g1">
    <path
       style="fill:#ffff00;stroke:none"
       d="m 0,238.66665 v 6.66667 c 57.381202,0 115.03626,6.30656 171.99999,13.12654 230.83466,27.6368 461.18861,108.89811 629.32817,274.89297 67.81762,66.95255 123.53669,147.63403 164.9938,233.31379 85.36504,176.42463 112.34464,372.99418 112.34464,566.66668 h 9.3333 c 0,-199.7504 -30.3587,-408.48904 -123.01127,-588.00001 C 924.33653,666.57141 872.54178,591.76014 809.32816,529.35283 599.98198,322.67698 288.14934,238.66665 0,238.66665 m 161.33332,40 c -2.37008,18.75342 6.18986,35.85482 12.4105,53.33333 9.43734,26.5166 17.92845,53.39917 27.13066,79.99999 24.39937,70.53125 47.60221,141.4733 71.99999,211.99999 10.51085,30.38367 18.094,62.60148 31.12551,92 -89.13242,-34.57088 -185.95535,-63.93624 -282.666648,-64 L 23.999999,646.66663 0,643.99996 c 0.00269481,3.48551 -0.98039351,9.29224 2.13786,11.76131 3.7419328,2.96293 11.954616,1.73893 16.528806,2.33952 17.124581,2.24845 34.762276,3.05615 51.999996,4.56584 81.504598,7.13818 157.679418,31.98193 233.333318,61.33333 C 227.75137,801.85534 158.0128,886.9958 85.108022,967.99994 65.948437,989.28803 46.85396,1010.6378 27.778804,1031.9999 c -9.898276,11.0851 -22.1364081,20.9217 -25.1121375,36 C 30.188289,1048.6004 52.366198,1014.3616 74.891968,989.33327 127.26137,931.14594 179.30565,872.65262 231.90019,814.66662 c 19.23804,-21.21013 37.935,-42.92196 57.31893,-64 5.28363,-5.74544 13.62402,-19.99927 21.5,-21.77978 4.64329,-1.04981 10.66447,3.47542 14.61419,5.45052 11.77737,5.88948 23.31157,12.34049 34.66667,19.01033 32.28214,18.96216 61.30126,41.59204 89.33333,66.27156 16.47054,14.50082 34.95601,30.99203 46.66666,49.71403 -34.57926,14.39665 -67.07251,36.40462 -99.99999,54.25512 -65.93681,35.74544 -132.11891,71.37199 -197.33333,108.4115 -22.93609,13.027 -46.14402,25.6839 -69.33332,38.2552 -10.35383,5.613 -22.801,9.6735 -26.66667,21.7448 C 68.403423,1084.9317 34.999113,1081.3333 0,1081.3333 v 8 c 47.378451,0 93.737218,3.1123 137.33332,23.7078 10.75613,5.0814 34.67804,15.0721 38.66667,26.9588 15.79909,7.3677 28.57114,26.7669 37.33333,41.3334 20.44173,33.9829 32.24408,76.2588 33.16152,116 0.27099,11.7386 -2.49485,23.9838 -2.49485,36 h 10.66666 c 0,-71.6078 -12.74678,-142.0744 -65.33333,-194.6667 30.13593,-0.622 60.67177,-6.1089 90.66666,-9.1081 75.91907,-7.5909 151.91279,-17.4329 227.99999,-23.0102 25.82658,-1.8931 51.51375,-5.9207 77.33333,-7.9959 6.67993,-0.5368 20.20939,-5.1269 26.09362,-1.181 4.12268,2.7645 4.63383,10.2134 5.73763,14.6285 3.10498,12.4199 6.19348,24.828 8.93624,37.3334 7.70423,35.1265 12.00179,70.9426 15.45886,106.6666 1.955,20.2024 6.17412,42.5539 2.44031,62.6667 -98.39859,-37.9585 -197.97415,-73.5607 -297.33331,-108.9229 -27.19027,-9.677 -54.29012,-19.7286 -81.33333,-29.8107 -14.84666,-5.535 -29.35716,-13.1499 -45.33333,-11.9331 4.78674,6.3797 16.71108,8.1623 24,10.9229 20.35823,7.7103 40.93196,14.8714 61.33332,22.4774 78.45784,29.2501 156.92252,59.0711 235.99999,86.5997 25.92232,9.0242 51.47802,19.1769 77.33333,28.4105 9.7607,3.4858 24.3035,5.3413 26.66666,16.9229 h 8 v -4 c 13.53557,-0.6275 22.21318,-11.1652 32,-19.4342 21.50993,-18.1739 42.6665,-36.8291 64,-55.2325 59.79719,-51.5843 119.67366,-103.1307 179.99999,-154.1008 18.77856,-15.8662 37.28743,-32.0532 55.99999,-47.9959 10.98047,-9.3551 24.88693,-18.1602 33.33333,-29.9033 -12.9856,1.0707 -21.23819,10.3751 -30.66666,18.4928 -17.71558,15.2528 -35.84839,30.0543 -53.33333,45.5741 -65.53401,58.1682 -133.54223,113.6572 -199.99999,170.7736 -18.53784,15.9322 -37.27937,31.5663 -55.99999,47.2788 -5.23584,4.3945 -14.24528,15.9095 -21.13684,16.8539 -7.23938,0.9921 -6.83151,-29.888 -6.86418,-34.9732 -0.25623,-39.8722 -7.50553,-80.7797 -14.33232,-120 -3.12141,-17.9328 -7.08406,-35.6779 -11.49792,-53.3333 -1.90218,-7.6088 -6.62622,-17.4541 -5.52881,-25.3334 1.36894,-9.8287 8.15975,-20.1727 11.88888,-29.3333 9.84851,-24.1928 20.51131,-48.0382 30.90535,-71.99999 l 87.79833,-202.66666 c 13.89136,-32.02498 32.89063,-64.99186 42.10083,-98.66666 -11.715,7.3947 -15.34236,21.1014 -20.56168,33.33333 -10.07845,23.61979 -20.58749,47.04517 -30.66667,70.66667 -26.60636,62.35416 -53.31721,124.85367 -81.17907,186.66665 -14.40462,31.95736 -35.50972,67.30356 -43.59257,101.33336 h -1.33333 c -11.74451,-50.766 -37.27982,-102.60549 -64.56583,-146.66669 -9.06511,-14.63826 -18.61316,-28.88118 -28.93624,-42.66666 -4.99357,-6.66846 -13.55131,-14.37028 -15.42696,-22.66667 -2.50602,-11.08463 1.17533,-24.60018 0.9095,-36 -0.77482,-33.22932 0.0195,-66.6206 0.0195,-99.99999 0,-107.57088 2.66666,-215.06566 2.66666,-322.66665 h -1.33333 c -6.69421,15.09815 -5.33333,35.48503 -5.33333,52 v 90.66666 c 0,103.03702 -4,206.2923 -4,309.33331 -36.55107,-36.55501 -71.99837,-72.0065 -116,-99.92903 -15.57173,-9.88151 -31.51985,-19.44238 -47.99999,-27.74072 -7.03988,-3.54484 -18.09186,-6.72119 -22.29631,-13.80354 -5.70691,-9.61312 -7.80446,-22.65674 -11.4969,-33.19336 -8.55439,-24.41052 -17.05571,-48.87606 -25.54631,-73.33333 -26.47489,-76.26123 -52.46441,-152.74511 -77.99381,-229.33332 -7.27378,-21.82129 -14.94633,-43.50561 -22.22223,-65.33333 -4.01955,-12.05867 -6.99487,-26.55436 -13.77777,-37.33333 m -57.33333,814.66665 c 4.32931,-7.6288 16.42833,-11.5751 24,-15.6924 18.27891,-9.9399 36.60747,-19.8725 54.66667,-30.2027 74.33227,-42.5194 150.43942,-82.0832 225.33332,-123.62348 21.71581,-12.04476 43.73909,-23.55005 65.33332,-35.81477 6.48747,-3.68466 18.9882,-13.68783 26.61418,-13.01237 4.9303,0.43668 8.27409,6.87255 10.99898,10.3457 8.10095,10.32568 15.554,21.08301 22.8313,32 26.04695,39.07413 47.68046,82.26773 63.09672,126.66662 3.36869,9.7019 16.21284,33.6621 12.75618,43.5762 -1.9281,5.53 -25.52283,5.4069 -30.96403,5.7098 -31.15059,1.7346 -62.26257,6.5916 -93.33333,9.4805 -69.83215,6.4928 -139.52579,14.7044 -209.33332,21.4598 -20.90627,2.0232 -41.78177,4.4256 -62.66666,6.6616 -8.75981,0.9378 -19.24876,3.5518 -28,2.2469 -9.41463,-1.4038 -18.60662,-11.9687 -26.66666,-16.8621 -16.63064,-10.0969 -35.54192,-18.9814 -54.66667,-22.9393 z"
       id="path1" />
  </g>
</svg>
