<?xml version="1.0" encoding="UTF-8" standalone="no"?>
<!-- Created with Inkscape (http://www.inkscape.org/) -->

<svg
   version="1.1"
   id="svg1"
   width="1333.3333"
   height="1333.3333"
   viewBox="0 0 1333.3333 1333.3333"
   sodipodi:docname="CurveL_DBR.svg"
   inkscape:version="1.4.2 (ebf0e940d0, 2025-05-08)"
   xmlns:inkscape="http://www.inkscape.org/namespaces/inkscape"
   xmlns:sodipodi="http://sodipodi.sourceforge.net/DTD/sodipodi-0.dtd"
   xmlns="http://www.w3.org/2000/svg"
   xmlns:svg="http://www.w3.org/2000/svg">
  <defs
     id="defs1" />
  <sodipodi:namedview
     id="namedview1"
     pagecolor="#505050"
     bordercolor="#eeeeee"
     borderopacity="1"
     inkscape:showpageshadow="0"
     inkscape:pageopacity="0"
     inkscape:pagecheckerboard="0"
     inkscape:deskcolor="#505050"
     showgrid="false"
     inkscape:zoom="0.59400004"
     inkscape:cx="666.66662"
     inkscape:cy="666.66662"
     inkscape:window-width="1920"
     inkscape:window-height="995"
     inkscape:window-x="0"
     inkscape:window-y="0"
     inkscape:window-maximized="1"
     inkscape:current-layer="g1" />
  <g
     inkscape:groupmode="layer"
     inkscape:label="Image"
     id="g1">
    <path
       style="fill:#ffff00;stroke:none"
       d="m 1333.2841,1328.5837 h -1.3333 c -33.8767,-47.1253 -72.0578,-91.085 -110.2871,-134.6666 -10.0259,-11.4297 -20.4121,-22.4522 -31.0267,-33.3333 -3.4695,-3.5567 -7.7902,-11.1164 -12.8066,-12.4507 -7.213,-1.9184 -24.2645,8.3553 -31.213,11.1173 -26.9981,10.7319 -54.1534,21.1746 -81.3333,31.4352 -107.84243,40.7114 -215.19627,82.881 -322.66664,124.5648 l 14.66667,14.6667 c -14.43726,-0.011 -22.48723,-8.9685 -33.35287,-17.4928 -16.60742,-13.0289 -33.51977,-25.7829 -50.64713,-38.1152 -58.11141,-41.8424 -122.12719,-77.8637 -187.99999,-105.9249 -104.42008,-44.4821 -213.75925,-71.4524 -326.66665,-82.2408 -34.0574,-3.2542 -68.434995,-4.2263 -102.666695,-4.2263 -16.3388,0 -36.2692,3.7452 -52.0000003,0 l -1.3333,4 H 1.2841946 c 0.045,-15.7552 10.2329004,-28.1241 17.8992004,-41.3333 15.2739,-26.3173 30.7357,-52.56044 46.3672,-78.6667 57.488895,-96.01236 111.972995,-193.88679 170.400195,-289.33331 -60.6161,-2.60303 -120.4489,-13.33334 -181.333295,-13.33334 -7.9385,0 -16.1491,-1.78715 -24,-1.25105 -9.7709,0.66719 -30.09300036,11.83512 -30.66670036,-5.41561 78.22730036,0 155.69899536,3.52197 233.33339536,13.33333 -53.0339,-100.6881 -114.7724,-197.0859 -171.041195,-296 -13.7114,-24.1031 -27.6266,-48.14433 -41.7633,-71.99993 -8.6442,-14.5872 -19.1936004,-27.9327 -19.1955004,-45.3334 h 1.3333001 c 15.7103003,33.6089 37.7254003,65.1488 56.1996003,97.33333 39.125402,68.1616 78.036095,136.6062 118.467095,204 15.6359,26.06332 31.0958,52.35889 46.2881,78.66667 5.3916,9.33659 11.727,27.35526 20.8168,33.34879 8.8362,5.8263 26.5213,4.62805 36.8951,6.323 29.4144,4.80599 58.76827,9.6709 87.99996,15.52779 85.15169,17.06103 165.71239,44.64652 247.99998,71.46708 -5.17089,-38.39958 -16.45231,-76.80965 -24.76749,-114.66666 -15.72241,-71.58024 -32.04932,-143.02997 -47.51229,-214.66667 -5.95589,-27.5919 -12.4755,-55.0669 -18.38688,-82.6667 -2.74585,-12.82 -8.19482,-26.09853 -2.66666,-38.66663 h 1.33333 c 4.38623,33.96433 14.71549,67.89643 22.10083,101.33333 16.4921,74.6678 33.48429,149.2502 49.61938,224 6.72542,31.15755 13.38517,62.41321 21.11523,93.33333 2.43636,9.74569 2.6814,26.48295 9.24992,34.30041 6.39583,7.61198 22.27059,10.49829 31.24796,14.26542 25.13257,10.54623 49.90576,21.80965 74.66667,33.17904 44.76725,20.55566 88.80541,44.88378 130.66666,70.82096 23.2198,14.38696 46.07275,33.08125 70.66666,44.76749 l 14.54736,-326.66665 3.89298,-97.3333 2.89299,-34.6667 c -31.43921,-11.4415 -61.82226,-30.3869 -91.99999,-44.9887 -38.03817,-18.4052 -77.80786,-34.2025 -117.33333,-49.1111 -155.77164,-58.75503 -319.68333,-97.11133 -485.33327,-113.67483 -64.2298,-6.4224 -128.7586,-10.892 -193.333395,-10.892 -15.5549,0 -31.1119,0.074 -46.6666,0 -6.351,-0.031 -14.9413004,0.4362 -18.6667003,-5.3322 33.9758003,-6.3077 74.9809003,-2.4719 109.3332953,-0.1193 56.572,3.8741 112.8178,5.8475 169.3334,11.8981 274.09646,29.3438 541.05397,119.25633 777.33321,261.02053 73.4902,44.093 142.8178,93.77258 210.6667,146.02461 15.4255,11.87948 30.3782,24.38306 45.3333,36.84566 9.7724,8.14368 18.6187,13.4207 18.6667,26.99589 -34.4532,-23.55847 -65.6387,-53.74157 -98.6667,-79.43416 -56.3803,-43.85847 -116.0932,-84.3555 -177.3333,-121.0987 -29.8593,-17.9151 -63.7482,-44.4402 -97.33332,-54.1338 l -6.61418,164 -5.50512,158.66666 -3.8807,101.33333 0.037,35.94649 21.2963,17.18518 50.66672,37.5391 111.9999,96.22222 46.6667,45.107 c 0.7272,-35.2344 10.9111,-71.6856 15.6235,-106.6667 9.9502,-73.86418 21.3845,-147.5579 32.0154,-221.33329 4.3561,-30.22985 8.6599,-60.45068 13.1328,-90.66666 2.3355,-15.7773 2.4108,-31.76086 11.2283,-45.33333 3.7337,9.15401 -1.6317,24.97888 -3.0277,34.66667 -4.0368,28.01379 -8.2583,56.00243 -12.4023,83.99999 -12.1606,82.15742 -23.9478,164.39892 -35.4105,246.66662 -3.2807,23.5463 -6.3262,47.1572 -9.7305,70.6667 -1.405,9.7033 -6.2769,23.7086 -4.286,33.3333 2.8029,13.5502 26.029,29.6668 35.143,40 29.7548,33.7353 59.2625,67.4631 87.3128,102.6667 12.195,15.3048 29.0656,30.2361 29.0679,50.6666 M 941.28411,944.58377 c -9.67358,12.0378 -28.9908,18.82377 -42.66666,25.66256 -28.10335,14.05342 -55.89795,28.61567 -84,42.66667 -60.70507,30.3525 -120.72077,62.1532 -181.33332,92.6739 -39.42041,19.8496 -80.55924,38.0882 -118.66666,60.3302 6.25627,-11.5873 18.04281,-15.3443 29.33333,-21.0041 19.63037,-9.8405 39.01587,-20.1664 58.66667,-29.9918 78.13618,-39.0681 155.2106,-80.2802 233.33332,-119.34154 24.09057,-12.04529 47.90185,-24.60938 71.99999,-36.65845 6.26734,-3.13366 22.9869,-8.163 25.83643,-14.85697 3.00179,-7.05172 -8.11109,-12.06482 -12.50309,-15.10291 -17.00253,-11.7611 -34.48959,-22.79544 -52,-33.77774 -56.4869,-35.42786 -116.11498,-67.22408 -177.33332,-93.64095 -15.53223,-6.70243 -30.95557,-13.60734 -46.66667,-19.89197 -5.17814,-2.07132 -12.96118,-7.01224 -18.66666,-6.22534 -9.77474,1.34819 -22.32805,17.33114 -29.33334,23.85803 -22.30615,20.78284 -45.55842,40.54842 -67.99999,61.1862 -82.41194,75.78788 -166.35098,150.45444 -250.66665,224.11424 3.021,-12.5584 14.8596,-19.8093 24,-28.0998 21.2152,-19.2427 42.78499,-38.0909 63.99999,-57.3333 57.52051,-52.17236 115.61067,-103.72375 173.33333,-155.67492 25.05932,-22.55375 59.24202,-44.65287 78.66666,-72.22533 -89.09049,-34.55469 -181.07275,-58.88342 -274.66665,-77.59977 -23.86043,-4.77148 -47.91993,-8.62484 -72.00003,-12.09469 -7.4493,-1.07344 -20.6102,-5.62418 -27.7531,-2.81481 -8.0428,3.16333 -13.9958,20.02506 -18.146,27.17594 -14.7734,25.45475 -30.3147,50.47648 -44.9671,75.99999 -36.1909,63.04228 -73.3338,125.66573 -110.733495,187.99999 -20.8949,34.8255 -45.2248,69.8795 -62.4003002,106.6667 44.1233002,0 87.8715002,-1.5692 131.9999952,1.4527 127.3045,8.7176 253.31733,40.3544 369.33335,93.6254 55.21907,25.355 108.61734,55.7934 158.66666,90.2891 16.25862,11.2061 32.25577,22.5343 47.99999,34.4599 5.43498,4.1168 13.02401,12.7135 20,13.5823 9.76083,1.2157 25.52621,-8.7241 34.66667,-12.143 29.88558,-11.1783 59.70719,-22.7508 89.33333,-34.5998 65.02587,-26.007 130.70002,-50.4542 196.00001,-75.7479 38.0565,-14.7411 76.637,-33.5076 116,-44.2521 -2.2014,-7.8432 -9.0458,-13.0458 -14.6667,-18.6666 -11.7969,-11.7969 -24.1431,-22.9751 -36,-34.6718 -37.8522,-37.3411 -79.5238,-70.9439 -121.33331,-103.71507 -17.2059,-13.48637 -37.62127,-34.89522 -58.66668,-41.61316 m -662.66662,141.33333 -1.3333,-1.3333 z"
       id="path1" />
  </g>
</svg>
