<?xml version="1.0" encoding="UTF-8" standalone="no"?>
<!-- Created with Inkscape (http://www.inkscape.org/) -->

<svg
   version="1.1"
   id="svg1"
   width="1333.3333"
   height="1333.3333"
   viewBox="0 0 1333.3333 1333.3333"
   sodipodi:docname="CurveL_DBR.svg"
   inkscape:version="1.4.2 (ebf0e940d0, 2025-05-08)"
   xmlns:inkscape="http://www.inkscape.org/namespaces/inkscape"
   xmlns:sodipodi="http://sodipodi.sourceforge.net/DTD/sodipodi-0.dtd"
   xmlns="http://www.w3.org/2000/svg"
   xmlns:svg="http://www.w3.org/2000/svg">
  <defs
     id="defs1" />
  <sodipodi:namedview
     id="namedview1"
     pagecolor="#505050"
     bordercolor="#eeeeee"
     borderopacity="1"
     inkscape:showpageshadow="0"
     inkscape:pageopacity="0"
     inkscape:pagecheckerboard="0"
     inkscape:deskcolor="#505050"
     showgrid="false"
     inkscape:zoom="0.59400004"
     inkscape:cx="666.66663"
     inkscape:cy="666.66663"
     inkscape:window-width="1920"
     inkscape:window-height="995"
     inkscape:window-x="0"
     inkscape:window-y="0"
     inkscape:window-maximized="1"
     inkscape:current-layer="g1" />
  <g
     inkscape:groupmode="layer"
     inkscape:label="Image"
     id="g1">
    <path
       style="fill:#ffff00"
       d="m 735.99996,1323.8332 c -16.7943,-13.8333 -59.63394,-45.8399 -78.66667,-58.774 -118.9037,-80.8032 -254.7002,-136.6488 -394.66664,-162.3045 -69.7881,-12.792 -125.5306,-17.6814 -205.089901,-17.9889 -47.150926,-0.1822 -53.9043875,0.045 -54.9594516,1.8465 -0.9187913,1.5691 -1.2124498,1.1643 -1.2434192,-1.7142 -0.028116,-2.6132 17.8103788,-34.0864 58.1897898,-102.66665 32.026684,-54.39399 67.036592,-113.89817 77.799792,-132.2315 28.45906,-48.4753 61.01219,-103.72766 81.06327,-137.58853 9.63664,-16.2737 17.68289,-30.34728 17.88055,-31.27462 1.31757,-6.18166 -203.640497,-20.17886 -214.033007,-14.61696 -1.787545,0.95666 -6.808554,1.45188 -12.3129966,1.21442 -8.2872699,-0.35751 -9.33812107,-0.70576 -9.69608351,-3.21329 -0.37618563,-2.63518 0.37967269,-2.86894 11.99999911,-3.71118 29.216383,-2.11761 148.539698,4.7067 207.068128,11.84259 8.06667,0.98351 14.89123,1.56449 15.1657,1.29107 0.27447,-0.27342 -3.51545,-7.41039 -8.42204,-15.85995 -4.9066,-8.44955 -9.88791,-17.32499 -11.06959,-19.72318 C 212.75601,633.79119 176.10355,570.34531 114.66516,464.66664 94.627284,430.19997 66.738366,382.19998 52.689788,357.99998 38.641211,333.79998 21.297337,303.96731 14.147847,291.70516 4.5732427,275.28367 1.260898,268.43878 1.5743874,265.72236 c 0.358183,-3.1037 2.2554121,-0.52212 11.9752446,16.29482 6.352297,10.99054 20.081303,34.6828 30.508901,52.64947 10.427599,17.96666 22.265215,38.36666 26.305814,45.33333 23.295322,40.16502 56.827323,97.84931 66.268423,113.99999 6.00153,10.26667 26.67025,45.66666 45.9305,78.66666 19.26024,33 38.2877,65.4 42.28324,72 3.99554,6.6 9.63414,16.24123 12.53023,21.42495 l 5.26562,9.42495 12.34548,1.61665 c 112.54018,14.73724 233.07761,44.0663 338.79955,82.43642 13.08309,4.7483 24.09621,8.32449 24.47362,7.94709 0.3774,-0.3774 -1.11906,-8.97306 -3.32547,-19.10146 -2.20641,-10.1284 -4.37184,-20.51527 -4.81207,-23.08194 -1.324,-7.71941 -1.88427,-10.3684 -6.89955,-32.6215 -2.65,-11.75817 -5.01089,-22.35513 -5.24644,-23.5488 -0.23555,-1.19366 -1.73528,-8.09366 -3.33272,-15.33333 -3.87493,-17.56124 -7.70871,-35.12226 -10.12937,-46.39861 -1.09041,-5.07957 -2.19313,-9.57957 -2.45048,-10 -0.25734,-0.42043 -0.81156,-2.9363 -1.23158,-5.59082 -0.42002,-2.65453 -2.24034,-11.35453 -4.04515,-19.33334 -1.80481,-7.97881 -5.73517,-25.60692 -8.73412,-39.17359 -2.99895,-13.56667 -6.30261,-28.26666 -7.34147,-32.66666 -1.03886,-4.4 -2.57702,-11.3 -3.41813,-15.33334 -0.84111,-4.03333 -2.35458,-10.93333 -3.36327,-15.33333 -1.43156,-6.24465 -10.92456,-48.82112 -13.22916,-59.33333 -0.24116,-1.1 -1.4234,-6.74875 -2.6272,-12.55278 -1.20381,-5.80404 -2.40378,-10.90404 -2.66661,-11.33334 -0.26283,-0.4293 -0.81536,-2.91358 -1.22783,-5.52062 -0.41248,-2.60705 -2.00864,-10.10705 -3.54704,-16.66667 -1.53839,-6.55962 -3.34878,-14.62658 -4.02308,-17.92658 -0.67431,-3.3 -2.11048,-10.07073 -3.19149,-15.04606 -1.08101,-4.97533 -1.51924,-10.25233 -0.97385,-11.72667 0.71338,-1.92844 1.86048,1.1711 4.08801,11.04605 1.703,7.54967 3.35276,15.13874 3.66612,16.86459 0.31336,1.72585 2.63842,12.07709 5.1668,23.00276 2.52838,10.92567 4.93169,21.81361 5.34069,24.19542 0.409,2.38181 1.38022,6.72823 2.15828,9.65871 0.77805,2.93047 1.63713,6.53047 1.90906,8 0.7592,4.10273 3.17832,15.1339 5.2643,24.00519 2.33176,9.91655 7.12025,32.0256 8.04352,37.13791 0.3779,2.09252 2.74112,12.68045 5.25159,23.52875 2.51047,10.8483 4.8212,21.13624 5.13494,22.86209 0.31375,1.72585 1.50161,7.03791 2.6397,11.80458 1.90839,7.99292 3.56277,15.39016 8.20046,36.66666 2.44984,11.23918 10.20904,46.25897 10.7829,48.66667 0.26217,1.1 1.65882,7.4 3.10365,13.99999 1.44483,6.6 3.84876,17.19491 5.34207,23.54425 1.49331,6.34934 3.05163,13.45442 3.46294,15.78909 0.41131,2.33466 1.89574,9.16789 3.29874,15.18495 1.40299,6.01706 2.83306,12.41197 3.17792,14.21091 0.34486,1.79894 1.33036,6.2708 2.19001,9.93747 0.85964,3.66666 1.83291,8.16666 2.16281,10 0.3299,1.83333 1.27265,5.42842 2.09499,7.98909 1.4281,4.44696 6.9872,28.25348 8.56462,36.67757 0.91816,4.90332 3.69693,8.17328 7.82627,9.20968 1.71551,0.43057 14.03834,5.32502 27.38407,10.87656 88.43145,36.78563 171.53747,81.09159 256.56304,136.78033 10.96103,7.17909 20.06006,12.92101 20.22007,12.75982 0.48663,-0.49021 1.65363,-16.6518 2.52438,-34.95973 0.45342,-9.53333 1.05738,-20.63333 1.34214,-24.66667 0.28475,-4.03333 0.91327,-18.49116 1.39671,-32.1285 0.48344,-13.63734 1.05556,-26.83734 1.27139,-29.33333 0.21583,-2.49599 0.77012,-18.03816 1.23175,-34.53816 0.46164,-16.5 1.10027,-32.7 1.41919,-36 0.31891,-3.3 0.90705,-15.3 1.30696,-26.66666 0.6889,-19.58018 1.095,-29.86 2.66,-67.33333 0.36752,-8.8 0.97858,-24.4 1.35791,-34.66667 0.37934,-10.26666 0.98229,-25.26666 1.3399,-33.33333 0.76356,-17.22353 1.64692,-39.9391 2.67031,-68.66666 0.40493,-11.36667 1.0453,-25.00851 1.42305,-30.31521 l 0.68683,-9.64854 -35.05654,-17.1915 C 850.38167,420.18625 838.07274,414.56761 790.22517,395.12437 560.34006,301.70873 306.60329,253.33781 46.44238,253.33389 8.9234044,253.33333 3.2567929,252.94787 4.7701169,250.49926 c 0.8913114,-1.44217 99.0942331,-1.25541 130.5632131,0.2483 146.71314,7.01054 275.24031,25.49169 407.3333,58.57118 102.9989,25.79357 211.12566,63.00713 303.99998,104.62647 7.7,3.45056 18.2,7.96179 23.33334,10.02494 7.91965,3.18302 34.58765,16.15559 80.46428,39.14162 17.63331,8.835 58.46307,31.38694 86.86907,47.98136 96.1364,56.16163 195.2523,126.32247 281.3333,199.14633 11.9407,10.10174 14.0628,12.49361 14.4272,16.26094 0.4169,4.31108 -0.1429,3.94053 -23.3334,-15.44533 -83.8084,-70.05896 -167.0939,-129.52671 -259.4739,-185.27045 -37.4883,-22.62109 -86.39223,-49.78465 -89.62988,-49.78465 -1.58099,0 -2.01938,2.12391 -2.13288,10.33333 -0.0786,5.68334 -0.2882,12.43334 -0.46581,15 -0.17761,2.56667 -0.75319,16.96667 -1.27907,32 -0.52589,15.03333 -1.17437,30.03333 -1.44108,33.33333 -0.26671,3.3 -0.8393,18 -1.27242,32.66667 -0.43312,14.66666 -1.05865,29.96666 -1.39006,33.99999 -0.33141,4.03334 -0.93696,17.83334 -1.34567,30.66667 -0.40871,12.83333 -1.0063,27.23333 -1.32797,32 -0.32167,4.76666 -0.94725,20.96666 -1.39018,36 -0.44293,15.03333 -1.0208,30.03333 -1.28416,33.33333 -0.26336,3.3 -0.8464,18 -1.29565,32.66666 -0.44925,14.66667 -1.06079,29.96667 -1.35898,34 -0.29818,4.03333 -0.87828,19.03333 -1.2891,33.33333 -0.41082,14.3 -1.06359,36.52344 -1.45061,49.38542 -0.82998,27.58355 -4.19949,22.04202 26.73363,43.96645 30.36041,21.51851 60.95759,45.11575 83.99999,64.78265 3.6667,3.1295 13.8667,11.8352 22.6667,19.346 26.2082,22.3686 61.6937,55.5064 88.7224,82.8528 4.8925,4.95 9.5814,9 10.4198,9 0.8385,0 1.5703,-1.65 1.6264,-3.6667 0.056,-2.0166 0.2929,-4.5666 0.5262,-5.6666 0.2333,-1.1 0.8119,-4.7 1.2857,-8 0.4739,-3.3 1.4671,-9.3 2.207,-13.3334 2.1297,-11.6088 5.3244,-32.8944 7.2541,-48.3333 0.3895,-3.1167 0.9708,-7.1667 1.2917,-9 0.3209,-1.8333 0.9317,-6.0333 1.3574,-9.3333 0.4256,-3.3 1.6148,-11.1 2.6426,-17.3334 1.0278,-6.2333 2.217,-14.0333 2.6426,-17.3333 0.4257,-3.29999 1.0318,-7.49999 1.3468,-9.33333 0.3151,-1.83333 0.8638,-5.43333 1.2194,-8 1.1053,-7.97848 8.7774,-61.74596 9.5127,-66.66666 0.3835,-2.56667 0.9341,-6.16667 1.2236,-8 0.2895,-1.83333 0.8713,-6.03333 1.2928,-9.33333 0.4216,-3.3 0.9884,-7.2 1.2597,-8.66667 0.2712,-1.46666 0.9089,-5.66666 1.417,-9.33333 0.5081,-3.66667 1.1572,-8.16667 1.4425,-10 0.2852,-1.83333 2.352,-16.23333 4.5928,-32 4.8696,-34.26307 5.2629,-36.9143 6.0127,-40.53043 0.3196,-1.54159 0.9075,-5.8029 1.3064,-9.46956 0.399,-3.66667 0.9924,-8.16667 1.3187,-10 0.3264,-1.83334 1.2082,-7.83334 1.9597,-13.33334 0.7515,-5.5 2.5434,-17.8 3.9819,-27.33333 1.4386,-9.53333 2.9526,-19.73333 3.3647,-22.66666 4.7913,-34.1117 6.4004,-42.86368 8.2101,-44.65567 1.8153,-1.79756 1.9643,-1.58646 1.4034,1.989 -0.7737,4.93225 -2.2331,14.86437 -2.8408,19.33333 -0.5111,3.75833 -1.9539,13.64231 -2.7249,18.66667 -0.2813,1.83333 -2.6642,18.33333 -5.2953,36.66666 -2.6311,18.33334 -5.009,34.83334 -5.2842,36.66667 -0.2752,1.83333 -0.8453,6.03333 -1.2669,9.33333 -0.4216,3.3 -0.9884,7.2 -1.2597,8.66667 -0.2712,1.46666 -0.9089,5.66666 -1.417,9.33333 -0.5081,3.66667 -1.157,8.16667 -1.4421,10 -0.285,1.83333 -1.7884,12.03333 -3.3408,22.66666 -1.5523,10.63334 -3.3816,23.10837 -4.0649,27.7223 -0.6834,4.61393 -1.5621,11.21393 -1.9527,14.66667 -0.3906,3.45273 -1.2732,9.5777 -1.9613,13.61103 -0.9602,5.62818 -17.1851,118.05629 -20.7811,143.99999 -0.3557,2.5667 -0.9046,6.1667 -1.2197,8 -0.3151,1.8333 -0.9018,5.7574 -1.3038,8.72 -0.402,2.9627 -0.9605,6.5789 -1.2411,8.036 -0.2806,1.4571 -1.1992,8.633 -2.0412,15.9466 -0.8421,7.3136 -2.7793,22.1417 -4.305,32.9513 -2.3771,16.8426 -2.511,20.0163 -0.9361,22.1876 1.0108,1.3935 12.1192,13.5492 24.6853,27.0127 38.3325,41.0699 69.0431,77.0582 106.137,124.3769 18.9947,24.2305 20.9861,27.2683 21,32.0356 0.018,6.025 0.5246,6.4318 -10.7193,-8.6 -32.9681,-44.0745 -83.3224,-103.861 -125.2124,-148.6667 -21.335,-22.82 -18.5398,-21.1855 -28.503,-16.668 -4.6162,2.0931 -11.6534,5.0016 -15.6381,6.4634 -10.5958,3.8868 -39.9831,15.1066 -54.5784,20.8376 -6.9667,2.7355 -18.0667,7.0446 -24.6667,9.5759 -19.2184,7.3707 -28.0833,10.8378 -37.6756,14.7349 -4.9451,2.0091 -9.6766,3.7561 -10.5146,3.8822 -0.838,0.1262 -5.038,1.7298 -9.3334,3.5636 -4.2953,1.8338 -16.80969,6.7742 -27.80969,10.9787 -24.07798,9.2031 -51.66158,19.781 -69.67514,26.7193 -4.94534,1.9048 -12.89153,4.9524 -17.65819,6.7723 -4.76667,1.82 -12.26667,4.7186 -16.66667,6.4413 -14.91675,5.8402 -35.93934,13.959 -51.99999,20.0821 -4.4,1.6775 -11.9,4.5786 -16.66667,6.4469 -4.76667,1.8683 -18.26667,7.0447 -30,11.5031 -24.10152,9.1581 -36.86868,14.118 -42.56115,16.5343 l -3.89448,1.6531 4.56115,4.0821 c 2.50863,2.2451 6.36115,5.634 8.56115,7.5308 l 4,3.4488 -4.66667,-0.04 c -3.78036,-0.033 -6.8191,-1.8133 -15.99999,-9.3755 z m 21.99999,-16.3911 c 19.84105,-7.727 29.44938,-11.4573 41.009,-15.921 14.37572,-5.5512 24.79556,-9.5915 37.65767,-14.602 6.6,-2.571 23.99999,-9.2707 38.66666,-14.8882 14.66667,-5.6175 29.66666,-11.4431 33.33333,-12.9459 3.66667,-1.5028 10.26667,-4.0951 14.66667,-5.7607 4.4,-1.6656 12.2,-4.6616 17.33333,-6.6577 10.69133,-4.1574 24.23404,-9.3129 32,-12.182 2.93333,-1.0836 13.43333,-5.1856 23.33333,-9.1153 9.89996,-3.9298 36.29996,-14.1784 58.66666,-22.7747 22.3667,-8.5963 49.0667,-18.8852 59.3333,-22.8643 31.3136,-12.136 35.625,-13.7881 46.3512,-17.7611 12.252,-4.538 12.9822,-4.9416 12.9822,-7.1752 0,-3.3719 -57.1968,-58.0511 -101.3885,-96.9256 -40.1453,-35.3151 -124.91722,-101.20179 -130.20939,-101.20179 -1.09182,0 -2.28702,1.15448 -2.65601,2.56551 -0.4414,1.68789 -6.89826,5.74811 -18.87518,11.86914 -10.01235,5.117 -30.80427,15.74639 -46.20427,23.62088 -35.38401,18.09296 -65.11153,33.25906 -110.66666,56.45896 -19.8,10.0835 -53.7,27.3741 -75.33333,38.4234 -21.63333,11.0493 -55.23333,28.1836 -74.66666,38.0762 -19.43334,9.8926 -49.63237,25.2829 -67.10897,34.2006 -21.45136,10.9458 -31.12638,15.287 -29.77737,13.361 1.09904,-1.5691 7.59808,-5.6892 14.4423,-9.1558 16.12099,-8.1651 77.38436,-39.4652 109.77737,-56.0863 13.93333,-7.1493 40.93333,-20.9523 59.99999,-30.6733 42.70608,-21.7733 82.82486,-42.2635 127.33333,-65.034 18.7,-9.56687 50.4185,-25.69652 70.48557,-35.84365 20.06706,-10.14712 36.78177,-19.20065 37.14379,-20.11896 1.98498,-5.03509 -1.3404,-8.18435 -25.93331,-24.55987 C 850.20154,884.15523 773.69971,841.23834 713.99996,813.98656 684.68352,800.60418 648.28879,784.97855 632.17022,778.85398 l -6.68931,-2.54174 -22.40714,20.0092 c -12.32393,11.00506 -24.50714,21.91273 -27.07381,24.23928 -12.33517,11.18118 -35.24337,31.72522 -44.72117,40.10589 -5.80535,5.13334 -14.47621,12.93334 -19.26858,17.33334 -4.79237,4.4 -13.45923,12.2 -19.25968,17.33333 -5.80045,5.13333 -11.88062,10.53333 -13.51149,12 -1.63087,1.46666 -4.37683,3.88473 -6.10214,5.37348 -1.72531,1.48875 -9.75874,8.68875 -17.85206,16 -14.86184,13.42572 -32.81973,29.5027 -37.6273,33.68621 -2.35701,2.05106 -18.95703,16.90152 -26.38816,23.60697 -1.62539,1.46667 -7.64634,6.86667 -13.37988,12 -5.73355,5.13336 -19.78422,17.73336 -31.22373,27.99996 -11.4395,10.2667 -23.7691,21.2928 -27.39911,24.5026 -21.06343,18.6246 -29.12831,25.8689 -35.72759,32.0923 -2.67983,2.5272 -4.87242,3.8069 -4.87242,2.8437 0,-2.2461 8.09639,-10.2311 31.29792,-30.8673 10.2472,-9.1142 19.57612,-17.4713 20.73095,-18.5713 1.15483,-1.1 6.83152,-6.2 12.61487,-11.3333 5.78334,-5.1333 11.48341,-10.2333 12.66681,-11.3333 1.18339,-1.1 4.82264,-4.3599 8.0872,-7.2441 3.26457,-2.8842 10.73558,-9.55275 16.60224,-14.81892 5.86667,-5.26617 17.56667,-15.74424 26,-23.2846 14.28749,-12.77463 36.37408,-32.73607 41.29218,-37.31907 1.18043,-1.1 6.62259,-5.89934 12.09369,-10.6652 5.4711,-4.76586 10.24746,-9.01769 10.61413,-9.44851 0.62547,-0.73492 17.29304,-15.66504 39.91154,-35.75113 5.45136,-4.841 11.23067,-10.00182 12.84293,-11.46849 1.61225,-1.46667 7.61225,-6.86667 13.33333,-12 5.72108,-5.13333 11.72108,-10.53333 13.33333,-12 1.61226,-1.46666 7.35206,-6.61765 12.75512,-11.44663 5.40306,-4.82899 16.42374,-14.70285 24.49041,-21.94192 8.06666,-7.23907 16.40259,-14.68809 18.52428,-16.55336 13.60877,-11.96411 14.78008,-13.25198 13.35999,-14.68943 -3.75644,-3.80236 -86.57843,-31.91954 -131.27115,-44.56516 -75.21293,-21.28117 -149.65171,-36.85657 -229.89222,-48.10212 -11.70975,-1.6411 -14.92414,-1.71552 -16.18157,-0.37464 -0.86301,0.9203 -18.80512,31.07327 -39.87135,67.0066 -21.06622,35.93333 -45.05803,76.73333 -53.31514,90.66666 -12.89789,21.76437 -66.841024,113.19305 -111.707095,189.33332 -7.34605,12.4667 -17.171538,29.0531 -21.834417,36.8588 -4.662879,7.8056 -8.4777164,14.4056 -8.4774164,14.6666 2.999e-4,0.2611 25.3502984,0.5059 56.3333294,0.5442 41.461519,0.051 63.724489,0.6835 84.332779,2.3952 112.86782,9.3747 211.39893,31.8699 309.64535,70.694 72.51672,28.6564 135.56657,62.0645 206.35462,109.3407 25.53577,17.0542 68.90776,48.6545 70.65139,51.4758 0.91689,1.4835 4.39944,0.4395 24.01527,-7.1998 z"
       id="path1" />
  </g>
</svg>
