<?xml version="1.0" encoding="UTF-8" standalone="no"?>
<!-- Created with Inkscape (http://www.inkscape.org/) -->

<svg
   version="1.1"
   id="svg1"
   width="1333.3333"
   height="1333.3333"
   viewBox="0 0 1333.3333 1333.3333"
   sodipodi:docname="CurveB_DTL.svg"
   inkscape:version="1.4.2 (ebf0e940d0, 2025-05-08)"
   xmlns:inkscape="http://www.inkscape.org/namespaces/inkscape"
   xmlns:sodipodi="http://sodipodi.sourceforge.net/DTD/sodipodi-0.dtd"
   xmlns="http://www.w3.org/2000/svg"
   xmlns:svg="http://www.w3.org/2000/svg">
  <defs
     id="defs1" />
  <sodipodi:namedview
     id="namedview1"
     pagecolor="#505050"
     bordercolor="#eeeeee"
     borderopacity="1"
     inkscape:showpageshadow="0"
     inkscape:pageopacity="0"
     inkscape:pagecheckerboard="0"
     inkscape:deskcolor="#505050"
     showgrid="false"
     inkscape:zoom="0.59400004"
     inkscape:cx="666.66663"
     inkscape:cy="666.66663"
     inkscape:window-width="1920"
     inkscape:window-height="995"
     inkscape:window-x="0"
     inkscape:window-y="0"
     inkscape:window-maximized="1"
     inkscape:current-layer="g1" />
  <g
     inkscape:groupmode="layer"
     inkscape:label="Image"
     id="g1">
    <path
       style="fill:#ffff00;stroke:none"
       d="M 1.3333333,0 V 1.3333333 C 48.458681,35.21004 92.41839,73.391109 135.99999,111.62035 c 11.42971,10.02596 22.4522,20.41219 33.33333,31.02678 3.55662,3.46948 11.1164,7.79012 12.45062,12.80656 1.91848,7.21305 -8.35524,24.26448 -11.11728,31.21297 -10.73191,26.99812 -21.17457,54.15348 -31.43519,81.33332 C 98.520064,375.84242 56.35044,483.19626 14.666666,590.66663 L 0,575.99996 c 0.01115477,14.43726 8.9684653,22.48723 17.492797,33.35287 13.028864,16.60742 25.782927,33.51977 38.115227,50.64713 41.842308,58.11141 77.863646,122.12719 105.924886,187.99999 44.48203,104.42008 71.45239,213.75925 82.24074,326.66665 3.25421,34.0574 4.22633,68.435 4.22633,102.6667 0,16.3388 -3.74517,36.2692 0,52 l -3.99999,1.3333 v 1.3333 c 15.75524,-0.045 28.12412,-10.2329 41.33333,-17.8992 26.31726,-15.2739 52.5604,-30.7357 78.66666,-46.3672 96.01236,-57.4889 193.88679,-111.973 289.33331,-170.4002 2.60303,60.6161 13.33334,120.4489 13.33334,181.3333 0,7.9385 1.78715,16.1491 1.25105,24 -0.66719,9.7709 -11.83512,30.093 5.41561,30.6667 0,-78.2273 -3.52197,-155.699 -13.33333,-233.3334 100.68806,53.0339 197.08593,114.7724 295.99998,171.0412 24.10311,13.7114 48.14436,27.6266 71.99996,41.7633 14.5872,8.6442 27.9327,19.1936 45.3334,19.1955 v -1.3333 c -33.6089,-15.7103 -65.1488,-37.7254 -97.33336,-56.1996 -68.16154,-39.1254 -136.60619,-78.0361 -203.99999,-118.4671 -26.06331,-15.6359 -52.35888,-31.0958 -78.66666,-46.2881 -9.33659,-5.3916 -27.35526,-11.727 -33.34879,-20.8168 -5.8263,-8.8362 -4.62805,-26.5213 -6.323,-36.8951 -4.80599,-29.4144 -9.6709,-58.76827 -15.52779,-87.99996 -17.06103,-85.15169 -44.64652,-165.71239 -71.46708,-247.99998 38.39958,5.17089 76.80965,16.45231 114.66666,24.76749 71.58024,15.72241 143.02994,32.04932 214.66666,47.51229 27.59187,5.95589 55.06689,12.4755 82.66666,18.38688 12.82006,2.74585 26.09859,8.19482 38.66669,2.66666 v -1.33333 c -33.96438,-4.38623 -67.89643,-14.71549 -101.33336,-22.10083 -74.6678,-16.4921 -149.25015,-33.48429 -223.99998,-49.61938 -31.15755,-6.72542 -62.41321,-13.38517 -93.33333,-21.11523 -9.74569,-2.43636 -26.48295,-2.6814 -34.30041,-9.24992 C 556.75424,699.51876 553.86793,683.644 550.1008,674.66663 539.55457,649.53406 528.29115,624.76087 516.92176,599.99996 496.3661,555.23271 472.03798,511.19455 446.1008,469.3333 431.71384,446.1135 413.01955,423.26055 401.33331,398.66664 l 326.66665,-14.54736 97.33332,-3.89298 34.66667,-2.89299 c 11.44148,31.43921 30.38688,61.82226 44.98868,91.99999 18.40519,38.03817 34.20256,77.80786 49.11108,117.33333 58.75509,155.77164 97.11139,319.68333 113.67489,485.33327 6.4224,64.2298 10.892,128.7586 10.892,193.3334 0,15.5549 -0.074,31.1119 0,46.6666 0.031,6.351 -0.4362,14.9413 5.3322,18.6667 6.3077,-33.9758 2.4719,-74.9809 0.1193,-109.3333 -3.8741,-56.572 -5.8475,-112.8178 -11.8981,-169.3334 C 1042.8762,777.90344 952.96365,510.94593 811.19949,274.66665 767.10648,201.1765 717.42688,131.84887 665.17485,63.999996 653.29537,48.574541 640.79179,33.621824 628.32919,18.666666 620.18551,8.8942866 614.90849,0.04801432 601.3333,0 c 23.55847,34.453204 53.74157,65.638668 79.43416,98.666661 43.85847,56.380369 84.35554,116.093259 121.0987,177.333319 17.91512,29.85929 44.44018,63.74821 54.13379,97.33333 l -163.99999,6.61418 -158.66666,5.50512 -101.33333,3.8807 -35.94649,-0.037 -17.18518,-21.2963 -37.5391,-50.66667 -96.22222,-111.99999 -45.10699,-46.66666 c 35.23441,-0.72722 71.6856,-10.91114 106.66666,-15.62346 73.86421,-9.95019 147.55793,-21.38452 221.33332,-32.01546 30.22985,-4.35612 60.45068,-8.65983 90.66666,-13.132726 15.7773,-2.335531 31.76086,-2.410808 45.33333,-11.228353 -9.15401,-3.733723 -24.97888,1.631755 -34.66667,3.027751 -28.01379,4.036783 -56.00243,8.258219 -83.99999,12.402258 -82.15742,12.16057 -164.39892,23.94784 -246.66665,35.41048 -23.54624,3.28076 -47.15718,6.32626 -70.66666,9.73047 -9.70331,1.40503 -23.70864,6.27694 -33.33334,4.28605 C 181.11651,148.72078 164.99988,125.4947 154.66666,116.38069 120.93141,86.62589 87.203547,57.118161 51.999997,29.067869 36.695147,16.872883 21.763871,0.00227865 1.3333333,0 M 385.33331,391.99998 c -12.0378,9.67358 -18.82377,28.9908 -25.66256,42.66666 -14.05342,28.10335 -28.61564,55.89795 -42.66666,84 -30.35254,60.70507 -62.15317,120.72077 -92.67386,181.33332 -19.84965,39.42041 -38.08824,80.55924 -60.33024,118.66666 11.58728,-6.25627 15.3443,-18.04281 21.00411,-29.33333 9.84043,-19.63037 20.16638,-39.01587 29.99178,-58.66667 39.06809,-78.13618 80.28018,-155.2106 119.34154,-233.33332 12.04529,-24.09057 24.60938,-47.90185 36.65845,-71.99999 3.13366,-6.26734 8.163,-22.9869 14.85697,-25.83643 7.05172,-3.00179 12.06482,8.11109 15.10291,12.50309 11.7611,17.00253 22.79544,34.48959 33.77774,52 35.42786,56.4869 67.22408,116.11498 93.64095,177.33332 6.70243,15.53223 13.60734,30.95557 19.89197,46.66667 2.07132,5.17814 7.01224,12.96118 6.22534,18.66666 -1.34819,9.77474 -17.33114,22.32805 -23.85803,29.33334 -20.78284,22.30615 -40.54842,45.55842 -61.1862,67.99999 -75.78788,82.41194 -150.45446,166.35098 -224.1142,250.66665 12.55837,-3.021 19.80928,-14.8596 28.09979,-24 19.24265,-21.2152 38.09086,-42.78499 57.33333,-63.99999 52.1723,-57.52051 103.72369,-115.61067 155.67486,-173.33333 22.55375,-25.05932 44.65287,-59.24202 72.22533,-78.66666 34.55469,89.09049 58.88342,181.07275 77.59977,274.66665 4.77148,23.86043 8.62484,47.91993 12.09469,72.00003 1.07344,7.4493 5.62418,20.6102 2.81481,27.7531 -3.16333,8.0428 -20.02506,13.9958 -27.17594,18.146 -25.45475,14.7734 -50.47648,30.3147 -75.99999,44.9671 -63.04228,36.1909 -125.66573,73.3338 -187.99999,110.7335 -34.82552,20.8949 -69.87947,45.2248 -106.66666,62.4003 0,-44.1233 1.56919,-87.8715 -1.45268,-132 C 243.16297,1066.0288 211.52615,940.01597 158.25514,823.99995 132.90022,768.78088 102.46181,715.38261 67.966045,665.33329 56.760027,649.07467 45.43177,633.07752 33.50617,617.3333 c -4.11675,-5.43498 -12.713444,-13.02401 -13.582302,-20 -1.215707,-9.76083 8.724143,-25.52621 12.143004,-34.66667 C 43.245155,532.78105 54.81771,502.95944 66.666663,473.3333 92.67369,408.30743 117.1209,342.63328 142.4146,277.33332 c 14.74104,-38.05648 33.50753,-76.63704 44.25206,-116 7.84318,2.20142 13.04583,9.04582 18.66666,14.66667 11.79683,11.79687 22.97504,24.14306 34.67181,36 37.34104,37.85221 70.94387,79.52384 103.71502,121.33332 13.48637,17.20589 34.89522,37.62126 41.61316,58.66667 m -141.33332,662.66662 1.33333,1.3333 z"
       id="path1" />
  </g>
</svg>
