<?xml version="1.0" encoding="UTF-8" standalone="no"?>
<!-- Created with Inkscape (http://www.inkscape.org/) -->

<svg
   version="1.1"
   id="svg1"
   width="1333.3333"
   height="1333.3333"
   viewBox="0 0 1333.3333 1333.3333"
   sodipodi:docname="CurveL_DTR.svg"
   inkscape:version="1.4.2 (ebf0e940d0, 2025-05-08)"
   xmlns:inkscape="http://www.inkscape.org/namespaces/inkscape"
   xmlns:sodipodi="http://sodipodi.sourceforge.net/DTD/sodipodi-0.dtd"
   xmlns="http://www.w3.org/2000/svg"
   xmlns:svg="http://www.w3.org/2000/svg">
  <defs
     id="defs1" />
  <sodipodi:namedview
     id="namedview1"
     pagecolor="#505050"
     bordercolor="#eeeeee"
     borderopacity="1"
     inkscape:showpageshadow="0"
     inkscape:pageopacity="0"
     inkscape:pagecheckerboard="0"
     inkscape:deskcolor="#505050"
     showgrid="false"
     inkscape:zoom="0.59400004"
     inkscape:cx="666.66663"
     inkscape:cy="666.66663"
     inkscape:window-width="1920"
     inkscape:window-height="995"
     inkscape:window-x="0"
     inkscape:window-y="0"
     inkscape:window-maximized="1"
     inkscape:current-layer="g1" />
  <g
     inkscape:groupmode="layer"
     inkscape:label="Image"
     id="g1">
    <path
       style="fill:#ffff00"
       d="m 4.7701169,1082.834 c -1.513324,-2.4486 4.1532875,-2.8341 41.6722631,-2.8346 260.16091,-0 513.89768,-48.3749 743.78279,-141.79052 47.84757,-19.44324 60.1565,-25.06188 130.83131,-59.72035 l 35.05654,-17.19149 -0.68683,-9.64855 c -0.37775,-5.3067 -1.01812,-18.94854 -1.42305,-30.31521 -1.02339,-28.72756 -1.90675,-51.44313 -2.67031,-68.66666 -0.35761,-8.06667 -0.96056,-23.06666 -1.3399,-33.33333 -0.37933,-10.26667 -0.99039,-25.86667 -1.35791,-34.66667 -1.565,-37.47333 -1.9711,-47.75315 -2.66,-67.33332 -0.39991,-11.36667 -0.98805,-23.36667 -1.30696,-26.66667 -0.31892,-3.3 -0.95755,-19.5 -1.41919,-36 -0.46163,-16.5 -1.01592,-32.04217 -1.23175,-34.53816 -0.21583,-2.49599 -0.78795,-15.69599 -1.27139,-29.33333 -0.48344,-13.63734 -1.11196,-28.09517 -1.39671,-32.1285 -0.28476,-4.03333 -0.88872,-15.13333 -1.34214,-24.66667 -0.87075,-18.30793 -2.03775,-34.46952 -2.52438,-34.95973 -0.16001,-0.16119 -9.25904,5.58073 -20.22007,12.75982 -85.02557,55.68875 -168.13159,99.9947 -256.56304,136.78033 -13.34573,5.55154 -25.66856,10.446 -27.38407,10.87656 -4.12934,1.0364 -6.90811,4.30636 -7.82627,9.20968 -1.57742,8.42409 -7.13652,32.23061 -8.56462,36.67757 -0.82234,2.56067 -1.76509,6.15576 -2.09499,7.9891 -0.3299,1.83333 -1.30317,6.33333 -2.16281,10 -0.85965,3.66666 -1.84515,8.13852 -2.19001,9.93746 -0.34486,1.79894 -1.77493,8.19385 -3.17792,14.21091 -1.403,6.01707 -2.88743,12.85029 -3.29874,15.18496 -0.41131,2.33466 -1.96963,9.43975 -3.46294,15.78908 -1.49331,6.34934 -3.89724,16.94425 -5.34207,23.54425 -1.44483,6.6 -2.84148,12.9 -3.10365,14 -0.57386,2.40769 -8.33306,37.42748 -10.7829,48.66666 -4.63769,21.27651 -6.29207,28.67374 -8.20046,36.66666 -1.13809,4.76667 -2.32595,10.07873 -2.6397,11.80458 -0.31374,1.72585 -2.62447,12.01379 -5.13494,22.86209 -2.51047,10.8483 -4.87369,21.43624 -5.25159,23.52875 -0.92327,5.11231 -5.71176,27.22136 -8.04352,37.13791 -2.08598,8.87129 -4.5051,19.90246 -5.2643,24.0052 -0.27193,1.46952 -1.13101,5.06952 -1.90906,8 -0.77806,2.93047 -1.74928,7.27689 -2.15828,9.6587 -0.409,2.38181 -2.81231,13.26975 -5.34069,24.19542 -2.52838,10.92567 -4.85344,21.27692 -5.1668,23.00277 -0.31336,1.72585 -1.96312,9.31491 -3.66612,16.8646 -2.22753,9.8749 -3.37463,12.9745 -4.08801,11.046 -0.54539,-1.4743 -0.10716,-6.7513 0.97385,-11.7266 1.08101,-4.97537 2.51718,-11.74609 3.19149,-15.04609 0.6743,-3.3 2.48469,-11.36697 4.02308,-17.92659 1.5384,-6.55962 3.13456,-14.05962 3.54704,-16.66666 0.41247,-2.60705 0.965,-5.09133 1.22783,-5.52063 0.26283,-0.4293 1.4628,-5.5293 2.66661,-11.33333 1.2038,-5.80404 2.38604,-11.45279 2.6272,-12.55279 2.3046,-10.5122 11.7976,-53.08868 13.22916,-59.33333 1.00869,-4.4 2.52216,-11.3 3.36327,-15.33333 0.84111,-4.03333 2.37927,-10.93333 3.41813,-15.33333 1.03886,-4.4 4.34252,-19.1 7.34147,-32.66667 2.99895,-13.56666 6.92931,-31.19478 8.73412,-39.17359 1.80481,-7.97881 3.62513,-16.67881 4.04515,-19.33333 0.42002,-2.65453 0.97424,-5.1704 1.23158,-5.59083 0.25735,-0.42043 1.36007,-4.92043 2.45048,-10 2.42066,-11.27635 6.25444,-28.83737 10.12937,-46.39861 1.59744,-7.23967 3.09717,-14.13967 3.33272,-15.33333 0.23555,-1.19367 2.59644,-11.79063 5.24644,-23.5488 5.01528,-22.2531 5.57555,-24.90208 6.89955,-32.6215 0.44023,-2.56666 2.60566,-12.95354 4.81207,-23.08194 2.20641,-10.1284 3.70287,-18.72405 3.32547,-19.10146 -0.37741,-0.3774 -11.39053,3.19879 -24.47362,7.94709 -105.72194,38.37012 -226.25937,67.69918 -338.79955,82.43642 l -12.34548,1.61665 -5.26562,9.42495 c -2.89609,5.18373 -8.53469,14.82496 -12.53023,21.42495 -3.99554,6.6 -23.023,39 -42.28324,72 -19.26025,33 -39.92897,68.4 -45.9305,78.66666 -9.4411,16.15068 -42.973101,73.83498 -66.268423,114 -4.040599,6.96666 -15.878215,27.36666 -26.305814,45.33333 -10.427598,17.96669 -24.156604,41.65889 -30.508901,52.64949 -9.7198325,16.8169 -11.6170616,19.3985 -11.9752446,16.2948 -0.3134894,-2.7164 2.9988553,-9.5613 12.5734596,-25.9828 7.14949,-12.2622 24.493364,-42.09483 38.541941,-66.29483 14.048578,-24.19999 41.937496,-72.19999 61.975372,-106.66666 61.43839,-105.67867 98.09085,-169.12455 100.34223,-173.69368 1.18168,-2.39819 6.16299,-11.27362 11.06959,-19.72318 4.90659,-8.44955 8.69651,-15.58653 8.42204,-15.85995 -0.27447,-0.27341 -7.09903,0.30757 -15.1657,1.29107 -58.52843,7.13589 -177.851745,13.9602 -207.068128,11.84259 -11.62032642,-0.84224 -12.37618474,-1.076 -11.99999911,-3.71118 0.35796244,-2.50752 1.40881361,-2.85578 9.69608351,-3.21329 5.5044426,-0.23746 10.5254516,0.25776 12.3129966,1.21442 6.176642,3.30564 91.613407,-0.35767 161.059047,-6.9058 41.24363,-3.88893 53.41112,-5.66009 52.97396,-7.71115 -0.19766,-0.92735 -8.24391,-15.00093 -17.88055,-31.27463 C 198.37565,587.06096 165.82252,531.8086 137.36346,483.3333 126.60026,464.99997 91.590352,405.49579 59.563668,351.1018 19.184257,282.52156 1.3457626,251.04837 1.3738782,248.43514 c 0.030969,-2.87848 0.3246279,-3.28333 1.2434192,-1.71421 1.0550641,1.80185 7.8085256,2.02874 54.9594516,1.84649 29.566118,-0.11428 63.356581,-0.90895 75.089911,-1.76594 C 280.28815,236.0194 402.80643,203.82645 528.66663,142.74835 598.74561,108.74006 661.51475,68.743362 728.99353,15.099417 744.54634,2.7353233 748.77327,0.00763293 752.32686,0.04213499 l 4.33976,0.04213499 -4,3.44877802 c -2.2,1.8968279 -6.05252,5.2857062 -8.56115,7.530841 l -4.56115,4.082062 3.89448,1.653119 c 5.69247,2.416323 18.45963,7.376141 42.56115,16.534261 11.73333,4.458444 24.93333,9.507352 29.33333,11.219795 19.88683,7.739788 37.45918,14.519857 52,20.063537 4.4,1.677497 11.9,4.586973 16.66667,6.4655 4.76666,1.878528 12.71285,4.963057 17.65819,6.854509 4.94534,1.891452 12.89153,4.939004 17.6582,6.772337 8.88462,3.417162 18.12306,6.964308 38.01693,14.5968 6.23334,2.391481 20.33334,7.788141 31.33334,11.992571 11,4.20443 23.51439,9.14482 27.80969,10.97866 4.2954,1.83383 8.4954,3.43745 9.3334,3.5636 0.838,0.12615 5.4236,1.81111 10.1902,3.74435 9.7531,3.95561 20.4067,8.1253 38,14.87278 6.6,2.53126 17.7,6.84043 24.6667,9.57593 14.5953,5.73091 43.9826,16.95078 54.5784,20.8376 3.9847,1.46173 11.0219,4.37022 15.6381,6.46332 9.9632,4.5175 7.168,6.15205 28.503,-16.66796 41.89,-44.80574 92.2443,-104.592215 125.2124,-148.666661 11.2439,-15.03183031 10.737,-14.6250913 10.7193,-8.5999995 -0.014,4.7672535 -2.0053,7.8050335 -21,32.0355515 -37.0939,47.318736 -67.8045,83.307019 -106.137,124.376889 -12.5661,13.46352 -23.6745,25.61926 -24.6853,27.01276 -1.5749,2.17121 -1.441,5.34499 0.9361,22.18754 1.5257,10.80965 3.4629,25.63774 4.305,32.95131 0.842,7.31356 1.7606,14.48954 2.0412,15.94662 0.2806,1.45707 0.8391,5.07325 1.2411,8.03594 0.402,2.96269 0.9887,6.88671 1.3038,8.72004 0.3151,1.83333 0.864,5.43333 1.2197,8 3.596,25.94368 19.8209,138.37181 20.7811,143.99999 0.6881,4.03333 1.5707,10.1583 1.9613,13.61103 0.3906,3.45274 1.2693,10.05274 1.9527,14.66667 0.6833,4.61393 2.5126,17.08896 4.0649,27.7223 1.5524,10.63333 3.0558,20.83333 3.3408,22.66666 0.2851,1.83334 0.934,6.33334 1.4421,10 0.5081,3.66667 1.1458,7.86667 1.417,9.33333 0.2713,1.46667 0.8381,5.36667 1.2597,8.66667 0.4216,3.3 0.9917,7.5 1.2669,9.33333 0.2752,1.83334 2.6531,18.33334 5.2842,36.66667 2.6311,18.33333 5.014,34.83333 5.2953,36.66666 0.771,5.02436 2.2138,14.90834 2.7249,18.66667 0.6077,4.46896 2.0671,14.40108 2.8408,19.33333 0.5609,3.57546 0.4119,3.78656 -1.4034,1.989 -1.8097,-1.79199 -3.4188,-10.54397 -8.2101,-44.65566 -0.4121,-2.93334 -1.9261,-13.13334 -3.3647,-22.66667 -1.4385,-9.53333 -3.2304,-21.83333 -3.9819,-27.33333 -0.7515,-5.5 -1.6333,-11.5 -1.9597,-13.33333 -0.3263,-1.83334 -0.9197,-6.33334 -1.3187,-10 -0.3989,-3.66667 -0.9868,-7.92797 -1.3064,-9.46957 -0.7498,-3.61613 -1.1431,-6.26736 -6.0127,-40.53043 -2.2408,-15.76667 -4.3076,-30.16666 -4.5928,-32 -0.2853,-1.83333 -0.9344,-6.33333 -1.4425,-10 -0.5081,-3.66666 -1.1458,-7.86666 -1.417,-9.33333 -0.2713,-1.46667 -0.8381,-5.36667 -1.2597,-8.66667 -0.4215,-3.3 -1.0033,-7.5 -1.2928,-9.33333 -0.2895,-1.83333 -0.8401,-5.43333 -1.2236,-8 -0.7353,-4.9207 -8.4074,-58.68818 -9.5127,-66.66666 -0.3556,-2.56667 -0.9043,-6.16667 -1.2194,-8 -0.315,-1.83333 -0.9211,-6.03333 -1.3468,-9.33333 -0.4256,-3.3 -1.6148,-11.1 -2.6426,-17.33334 -1.0278,-6.23333 -2.217,-14.03333 -2.6426,-17.33333 -0.4257,-3.3 -1.0365,-7.5 -1.3574,-9.33333 -0.3209,-1.83333 -0.9022,-5.88333 -1.2917,-9 -1.9297,-15.43891 -5.1244,-36.72452 -7.2541,-48.33333 -0.7399,-4.03333 -1.7331,-10.03333 -2.207,-13.33333 -0.4738,-3.3 -1.0524,-6.9 -1.2857,-8 -0.2333,-1.1 -0.47,-3.65 -0.5262,-5.66667 -0.056,-2.01667 -0.7879,-3.66667 -1.6264,-3.66667 -0.8384,0 -5.5273,4.05 -10.4198,9 -27.0287,27.34638 -62.5142,60.48418 -88.7224,82.85282 -8.8,7.51076 -19,16.21645 -22.6667,19.34599 -23.0424,19.66688 -53.63958,43.26413 -83.99999,64.78265 -30.93312,21.92443 -27.56361,16.38289 -26.73363,43.96645 0.38702,12.86198 1.03979,35.08541 1.45061,49.38541 0.41082,14.3 0.99092,29.3 1.2891,33.33333 0.29819,4.03334 0.90973,19.33333 1.35898,34 0.44925,14.66667 1.03229,29.36667 1.29565,32.66667 0.26336,3.3 0.84123,18.29999 1.28416,33.33333 0.44293,15.03333 1.06851,31.23333 1.39018,35.99999 0.32167,4.76667 0.91926,19.16667 1.32797,32 0.40871,12.83334 1.01426,26.63333 1.34567,30.66667 0.33141,4.03333 0.95694,19.33333 1.39006,34 0.43312,14.66666 1.00571,29.36666 1.27242,32.66666 0.26671,3.3 0.91519,18.3 1.44108,33.33333 0.52588,15.03333 1.10146,29.43333 1.27907,32 0.17761,2.56667 0.38722,9.31667 0.46581,15 0.1135,8.20942 0.55189,10.33333 2.13288,10.33333 3.23765,0 52.14158,-27.16356 89.62988,-49.78465 92.38,-55.74374 175.6655,-115.21149 259.4739,-185.27045 23.1905,-19.38586 23.7503,-19.75641 23.3334,-15.44533 -0.3644,3.76733 -2.4865,6.15921 -14.4272,16.26094 -86.081,72.82386 -185.1969,142.98471 -281.3333,199.14633 -28.406,16.59442 -69.23576,39.14636 -86.86907,47.98136 -45.87663,22.98603 -72.54463,35.95861 -80.46428,39.14162 -5.13334,2.06315 -15.63334,6.57438 -23.33334,10.02494 -92.87432,41.61934 -201.00108,78.8329 -303.99998,104.62646 -132.09299,33.0795 -260.62016,51.5607 -407.3333,58.5712 -31.46898,1.5037 -129.6719017,1.6905 -130.5632131,0.2483 z M 258.10123,651.29199 c 80.18908,-11.23829 154.64996,-26.81936 229.84519,-48.09552 44.69272,-12.64561 127.51471,-40.7628 131.27115,-44.56516 1.42009,-1.43745 0.24878,-2.72532 -13.35999,-14.68942 -2.12169,-1.86528 -10.45762,-9.3143 -18.52428,-16.55337 -8.06667,-7.23907 -19.08735,-17.11293 -24.49041,-21.94192 -5.40306,-4.82898 -11.14286,-9.97996 -12.75512,-11.44663 -1.61225,-1.46667 -7.61225,-6.86667 -13.33333,-12 -5.72108,-5.13333 -11.72108,-10.53333 -13.33333,-12 -1.61226,-1.46667 -7.39157,-6.62749 -12.84293,-11.46849 -22.6185,-20.08608 -39.28607,-35.01621 -39.91154,-35.75112 -0.36667,-0.43083 -5.14303,-4.68266 -10.61413,-9.44852 -5.4711,-4.76586 -10.91326,-9.5652 -12.09369,-10.6652 -4.9181,-4.583 -27.00469,-24.54444 -41.29218,-37.31907 -8.43333,-7.54036 -20.13333,-18.01843 -26,-23.2846 -5.86666,-5.26617 -13.33767,-11.93468 -16.60224,-14.81892 -3.26456,-2.88424 -6.90381,-6.14407 -8.0872,-7.24407 -1.1834,-1.1 -6.88347,-6.2 -12.66681,-11.33333 -5.78335,-5.13334 -11.46004,-10.23333 -12.61487,-11.33333 -1.15483,-1.1 -10.48375,-9.45708 -20.73095,-18.57128 -23.20153,-20.63624 -31.29792,-28.62123 -31.29792,-30.86732 0,-0.96315 2.19259,0.31652 4.87242,2.84371 6.25117,5.89511 7.86826,7.36653 15.85935,14.43074 11.86796,10.49141 26.08772,23.17942 47.25439,42.16414 11.44664,10.26667 25.50314,22.86667 31.23669,28 5.73354,5.13334 11.75449,10.53334 13.37988,12 7.43113,6.70546 24.03115,21.55591 26.38816,23.60697 4.80757,4.18351 22.76546,20.2605 37.6273,33.68621 8.09332,7.31125 16.12675,14.51125 17.85206,16 1.72531,1.48875 4.47127,3.90682 6.10214,5.37348 1.63087,1.46667 7.71104,6.86667 13.51149,12 5.80045,5.13334 14.46731,12.93334 19.25968,17.33334 4.79237,4.4 13.46323,12.19999 19.26858,17.33333 9.4778,8.38067 32.386,28.92471 44.72117,40.10589 2.56667,2.32655 14.74988,13.23423 27.07381,24.23929 l 22.40714,20.00919 6.68931,-2.54173 c 16.11857,-6.12458 52.5133,-21.75021 81.82974,-35.13259 59.69975,-27.25178 136.20158,-70.16867 195.69604,-109.78386 24.59291,-16.37552 27.91829,-19.52478 25.93331,-24.55987 -0.36202,-0.91831 -17.07673,-9.97184 -37.14379,-20.11896 -20.06707,-10.14712 -51.78557,-26.27678 -70.48557,-35.84369 -44.50847,-22.7705 -84.62725,-43.26069 -127.33333,-65.034 -19.06666,-9.72097 -46.06666,-23.52392 -59.99999,-30.67323 -32.39301,-16.62113 -93.65638,-47.92121 -109.77737,-56.08637 -6.84422,-3.46655 -13.34326,-7.58663 -14.4423,-9.15574 -1.34901,-1.92597 8.32601,2.41518 29.77737,13.36103 17.4766,8.91767 47.67563,24.30791 67.10897,34.20053 19.43333,9.89263 53.03333,27.02694 74.66666,38.07625 21.63333,11.0493 55.53333,28.33983 75.33333,38.42339 45.55513,23.1999 75.28265,38.36603 110.66666,56.45894 15.4,7.87449 36.19192,18.50389 46.20427,23.62089 11.97692,6.12102 18.43378,10.18124 18.87518,11.86914 0.36899,1.41103 1.56419,2.5655 2.65601,2.5655 5.29217,0 90.06409,-65.88667 130.20939,-101.20175 44.1917,-38.87457 101.3885,-93.55374 101.3885,-96.92568 0,-2.23359 -0.7302,-2.63716 -12.9822,-7.17521 -10.7262,-3.97294 -15.0376,-5.62501 -46.3512,-17.7611 -10.2666,-3.97902 -36.9666,-14.26793 -59.3333,-22.86424 -22.3667,-8.59631 -48.7667,-18.84492 -58.66666,-22.77469 -9.9,-3.92976 -20.4,-8.03167 -23.33333,-9.11536 -7.76596,-2.86903 -21.30867,-8.02454 -32,-12.181916 -5.13333,-1.996122 -12.93333,-4.992097 -17.33333,-6.657722 -4.4,-1.665625 -11,-4.257945 -14.66667,-5.760712 -3.66667,-1.502767 -18.66666,-7.328428 -33.33333,-12.945914 -14.66667,-5.617485 -32.06666,-12.317182 -38.66666,-14.888214 -21.12304,-8.228489 -29.13387,-11.33742 -38,-14.747472 -10.11646,-3.890946 -18.69128,-7.217307 -40.66667,-15.775496 -19.61583,-7.639275 -23.09838,-8.683343 -24.01527,-7.199779 -1.74363,2.821255 -45.11562,34.421583 -70.65139,51.475778 -70.78805,47.276177 -133.8379,80.684267 -206.35462,109.340707 -98.24642,38.82404 -196.77753,61.31931 -309.64535,70.69397 -20.60829,1.7117 -42.87126,2.34402 -84.332779,2.39523 -30.983031,0.0383 -56.3330295,0.28313 -56.3333294,0.54414 -3e-4,0.261 3.8145374,6.861 8.4774164,14.66666 4.662879,7.80566 14.488367,24.39211 21.834417,36.85878 44.866071,76.14027 98.809205,167.56895 111.707095,189.33332 8.25711,13.93333 32.25881,54.73333 53.33713,90.66666 34.93427,59.55432 40.40714,68.66666 41.24122,68.66666 0.14922,0 6.82575,-0.91858 14.83674,-2.0413 z"
       id="path1" />
  </g>
</svg>
