<?xml version="1.0" encoding="UTF-8" standalone="no"?>
<!-- Created with Inkscape (http://www.inkscape.org/) -->

<svg
   version="1.1"
   id="svg1"
   width="1333.3333"
   height="1333.3333"
   viewBox="0 0 1333.3333 1333.3333"
   sodipodi:docname="CurveDTR_L.svg"
   inkscape:version="1.4.2 (ebf0e940d0, 2025-05-08)"
   xmlns:inkscape="http://www.inkscape.org/namespaces/inkscape"
   xmlns:sodipodi="http://sodipodi.sourceforge.net/DTD/sodipodi-0.dtd"
   xmlns="http://www.w3.org/2000/svg"
   xmlns:svg="http://www.w3.org/2000/svg">
  <defs
     id="defs1" />
  <sodipodi:namedview
     id="namedview1"
     pagecolor="#505050"
     bordercolor="#eeeeee"
     borderopacity="1"
     inkscape:showpageshadow="0"
     inkscape:pageopacity="0"
     inkscape:pagecheckerboard="0"
     inkscape:deskcolor="#505050"
     showgrid="false"
     inkscape:zoom="0.59400004"
     inkscape:cx="666.66662"
     inkscape:cy="666.66662"
     inkscape:window-width="1920"
     inkscape:window-height="995"
     inkscape:window-x="0"
     inkscape:window-y="0"
     inkscape:window-maximized="1"
     inkscape:current-layer="g1" />
  <g
     inkscape:groupmode="layer"
     inkscape:label="Image"
     id="g1">
    <path
       style="fill:#ffff00;stroke:none"
       d="m 1333.2841,3.066047 h -1.3334 c -53.8321,74.88507 -116.4816,144.481663 -181.3333,209.333313 -16.0301,16.03015 -33.023,30.9644 -49.3333,46.68107 -7.4595,7.18801 -16.2188,17.87756 -26.6667,19.9856 l -10.5596,-68 -21.5474,-133.333323 -11.893,-76 h -4 l 11.6709,76 21.3333,131.999993 7.7829,50.66666 7.2129,22.66667 v 1.33333 c -13.0249,7.52897 -24.4053,19.6026 -36,29.2253 -20.0535,16.64296 -40.7537,32.57869 -61.33329,48.55452 -50.88745,39.50374 -106.77856,76.08068 -163.99999,106.22017 -0.10815,-51.36523 -8.37191,-103.42924 -11.88069,-154.66666 -4.46224,-65.16035 -6.75065,-131.12576 -14.40528,-195.99999 -3.00838,-25.496663 -3.82991,-51.704983 -5.59472,-77.333323 -0.75285,-10.93203 0.98803,-24.37317 -8.11931,-32 l 7.8807,109.333323 13.33333,181.33333 8,109.33332 5.45264,64 -110.66666,54.85184 -170.66666,65.14815 c 8.79045,-111.38032 29.13965,-222.37657 42.45988,-333.33331 3.73885,-31.14471 8.27108,-62.18795 12,-93.33333 1.44523,-12.07082 0.24097,-33.38792 6.85799,-43.71604 7.37964,-11.5184 31.10294,-19.76933 42.68213,-27.017503 24.06156,-15.06167 47.59423,-31.02233 70.66666,-47.54629 14.77262,-10.5798 26.6062,-22.06568 44,-27.05349 l -2.66667,-2.66667 14.66667,-16 c -20.32268,0.0157 -37.73552,21.13702 -53.33333,32.83539 -36.51245,27.38433 -76.27458,60.08835 -118.66666,77.831273 l -2.66667,-6.66667 c -5.04622,15.37281 -20.87516,20.77063 -34.66667,27.67079 -30.63883,15.32923 -61.50951,29.73303 -93.33332,42.46296 -94.70385,37.88277 -194.61419,59.98506 -295.99999,69.63991 -34.0416,3.24174 -68.452497,4.22633 -102.666697,4.22633 -16.4719,0 -36.083898,-3.78928 -51.9999984,0 l -1.3333,-3.99999 h -1.3333 c 0.02,7.12727 -0.1811,13.33115 8,14.66666 l -1.3334,-5.33333 c 37.7678984,0.004 75.5238984,2.46981 113.3333954,-0.11935 96.2616,-6.59189 190.7108,-22.79581 282.66662,-52.77365 42.46436,-13.84349 83.46061,-31.57071 124,-50.18518 17.52294,-8.04599 33.89949,-19.66826 51.99999,-26.25515 -9.50455,31.8568 -9.36604,69.63961 -13.70882,102.66666 -10.6333,80.8659 -20.55175,161.85916 -31.62451,242.66665 -4.01302,29.28671 -8.27051,58.65613 -11.79321,88 -1.02759,8.55985 0.0203,28.7976 -6.32511,35.02982 -4.50782,4.42733 -14.62923,5.54769 -20.54834,7.24899 -16.82674,4.83638 -33.68262,9.63842 -50.66667,13.88993 -65.52709,16.40295 -136.24935,35.58854 -203.99995,38.49792 1.0112,-11.51046 7.022,-22.52738 10.8477,-33.33333 8.202,-23.16703 16.6354,-46.2408 25.0813,-69.33333 26.0177,-71.1372 52.9082,-141.97659 78.32714,-213.33332 7.77702,-21.83168 15.80949,-43.71108 24.15837,-65.33333 5.57975,-14.45056 12.89013,-28.31911 10.91878,-44 h -1.33333 l -40.92285,110.66666 -60.48141,163.99999 -36.496,98.66666 -19.4331,54.66667 c -29.1395,0 -58.9925,5.01318 -88,7.77364 -21.1914,2.01668 -42.92,0.89274 -63.999997,3.66052 -13.2422,1.73869 -26.7577,-0.60702 -40,1.13167 -3.9274,0.51567 -12.0098,2.45569 -14.9115,-1.37036 -3.925898,-5.17647 7.7004,-21.16638 10.3457,-25.86214 13.4867,-23.94079 24.7393,-49.25944 38.0844,-73.33333 37.205197,-67.11686 70.385897,-136.49812 106.892997,-203.99999 9.5524,-17.66259 18.2979,-35.84686 28.1543,-53.33333 7.5381,-13.37365 16.7571,-27.04821 16.7675,-42.66666 h -1.3334 c -58.0542,99.37109 -108.8845,204.39403 -161.677897,306.66665 -14.3125,27.7264 -29.1809,55.20328 -44.005198,82.66048 -5.3804,9.96541 -17.91140038,5.14741 -18.31690038,17.33951 19.85100038,0 23.54329838,11.24048 33.77679838,26.66667 13.1517,19.82503 25.4879,40.19401 38.6677,59.99999 35.783197,53.77336 70.038497,108.5813 105.347697,162.66663 26.1328,40.0292 55.0217,79.52951 78.2078,121.33331 h 1.3334 c -0.043,-15.1598 -10.21,-26.4157 -18.2079,-38.6666 -14.7581,-22.60601 -29.241,-45.39271 -44,-68.00001 -35.2706,-54.0262 -69.6469,-108.64038 -104.917597,-162.66666 -21.405,-32.78719 -48.1374,-65.95345 -64.8745,-101.33333 l 135.999997,-5.55969 52,-5.20679 18.6615,-1.64298 23.2335,24.40946 56.8786,66.66666 149.79219,176.00003 62.10083,73.33331 h 1.33333 c -1.22689,-14.90031 -13.36816,-25.22431 -22.66667,-36.00001 -17.91959,-20.7664 -35.42179,-41.894 -53.33333,-62.6667 -43.05802,-49.93568 -85.19921,-100.66354 -128.17385,-150.66663 -25.962,-30.20808 -56.5291,-60.12922 -78.4928,-93.33332 64.4993,-2.76978 132.23958,-20.24463 194.66665,-35.83126 19.18824,-4.79085 38.34855,-9.85421 57.33333,-15.40124 7.86638,-2.29842 18.38802,-7.71643 26.66667,-7.01648 9.72095,0.8219 21.73917,14.05542 29.33333,19.75105 24.39298,18.29476 48.94238,36.3735 73.33333,54.66667 63.39762,47.54821 127.27026,94.45267 190.66665,141.99995 29.96167,22.47127 63.08097,43.16512 90.66667,68.49796 -68.68188,28.5953 -135.02002,60.7188 -205.33332,85.7438 -145.43514,51.76121 -298.6424,82.69641 -452.00001,98.03081 -60.6381,6.0633 -121.704,9.5587 -182.666597,9.5587 -15.1105,0 -30.223,-0.072 -45.333398,0 -6.229,0.03 -13.7028004,-0.3322 -17.3333004,5.3322 33.9757984,6.3077 74.9808984,2.4719 109.3332954,0.1193 56.5782,-3.8746 112.8088,-5.8465 169.3334,-11.8981 274.16238,-29.3509 541.01002,-119.23001 777.33321,-261.0205 73.7106,-44.22525 144.7623,-93.35847 212,-146.93411 14.8117,-11.80208 29.4513,-23.81221 44,-35.93619 9.7724,-8.14368 18.6187,-13.4207 18.6667,-26.99589 -34.9439,23.894 -66.3786,54.55936 -100,80.465 -58.2616,44.89111 -119.6065,86.23266 -182.6667,124.06786 -23.6754,14.20492 -47.473,28.45426 -71.99996,41.1451 -6.35278,3.28711 -23.64697,6.71883 -22.66666,12.98869 l -45.33333,22.66663 c -6.22746,-11.45578 -21.72111,-19.12619 -32,-26.83533 -23.95019,-17.96265 -47.76774,-36.15357 -71.99999,-53.72949 -63.73682,-46.229 -126.2445,-94.28735 -189.33333,-141.4012 l -54.66666,-40.86934 c -9.52523,-7.14388 -19.53157,-16.85807 -30.66666,-21.16459 v -2.66667 c 69.24877,-19.6514 136.06753,-49.11026 201.33332,-79.0782 19.50203,-8.95471 38.25309,-19.48083 57.33333,-29.24792 6.55086,-3.35335 15.87125,-11.30705 23.43416,-11.30762 9.62288,-7.3e-4 22.5026,9.92534 31.2325,13.73458 28.79346,12.5638 56.78165,27.04427 85.33333,40.15429 98.32305,45.14677 194.79255,96.16329 294.66665,137.74487 -3.9292,-11.45479 -17.7972,-15.26778 -28,-19.81482 -24.1688,-10.7712 -48.1809,-22.33809 -72,-33.86316 -71.2126,-34.45682 -143.13418,-67.49263 -214.66665,-101.28087 -29.58293,-13.97347 -61.06014,-25.87228 -89.33333,-42.37447 67.74568,-31.62992 130.57454,-79.92338 189.33328,-125.17488 18.1745,-13.99662 35.6002,-28.85506 53.3334,-43.39095 5.7529,-4.71568 13.6499,-14.67519 21.3333,-15.64404 6.0343,-0.76088 14.3489,4.03988 20,6.00205 16.1114,5.59422 31.9044,12.10956 48,17.75 60.265,21.11902 119.5139,45.32855 180,65.79116 -2.2346,-6.91931 -9.7161,-8.01205 -16,-10.25619 -14.7302,-5.26045 -29.3439,-10.87959 -44,-16.34362 -61.6548,-22.98572 -123.9435,-44.38469 -185.3333,-68.06685 29.284,-25.58338 54.8384,-53.63515 81.6172,-81.15535 7.9183,-8.13747 18.1664,-14.44192 26.3632,-22.84465 29.2736,-30.00869 57.0533,-62.13384 83.501,-94.666663 17.508,-21.5364 53.8486,-52.48465 53.8519,-81.33332 M 523.95081,1016.3993 l -1.33334,1.3333 1.33334,-1.3333 m -6.66667,-849.33327 -2.66667,-1.33333 v 2.66667 l 2.66667,-1.33334 m -238.66665,78.66667 -1.3333,1.33333 z"
       id="path1" />
  </g>
</svg>
