<?xml version="1.0" encoding="UTF-8" standalone="no"?>
<!-- Created with Inkscape (http://www.inkscape.org/) -->

<svg
   version="1.1"
   id="svg1"
   width="1333.3333"
   height="1333.3333"
   viewBox="0 0 1333.3333 1333.3333"
   sodipodi:docname="CurveR_DBL.svg"
   inkscape:version="1.4.2 (ebf0e940d0, 2025-05-08)"
   xmlns:inkscape="http://www.inkscape.org/namespaces/inkscape"
   xmlns:sodipodi="http://sodipodi.sourceforge.net/DTD/sodipodi-0.dtd"
   xmlns="http://www.w3.org/2000/svg"
   xmlns:svg="http://www.w3.org/2000/svg">
  <defs
     id="defs1" />
  <sodipodi:namedview
     id="namedview1"
     pagecolor="#505050"
     bordercolor="#eeeeee"
     borderopacity="1"
     inkscape:showpageshadow="0"
     inkscape:pageopacity="0"
     inkscape:pagecheckerboard="0"
     inkscape:deskcolor="#505050"
     showgrid="false"
     inkscape:zoom="0.59400004"
     inkscape:cx="666.66663"
     inkscape:cy="666.66663"
     inkscape:window-width="1920"
     inkscape:window-height="995"
     inkscape:window-x="0"
     inkscape:window-y="0"
     inkscape:window-maximized="1"
     inkscape:current-layer="g1" />
  <g
     inkscape:groupmode="layer"
     inkscape:label="Image"
     id="g1">
    <path
       style="fill:#ffff00"
       d="m 580.66663,1329.8002 c 2.2,-1.8968 6.05252,-5.2857 8.56115,-7.5308 l 4.56115,-4.0821 -3.89448,-1.6531 c -5.69247,-2.4163 -18.45963,-7.3762 -42.56115,-16.5343 -11.73333,-4.4584 -25.23333,-9.6348 -30,-11.5031 -4.76666,-1.8683 -12.42071,-4.8349 -17.009,-6.5924 -4.58828,-1.7575 -12.38828,-4.7575 -17.33333,-6.6666 -4.94505,-1.9092 -12.891,-4.9712 -17.65767,-6.8045 -4.76666,-1.8334 -12.26666,-4.7429 -16.66666,-6.4655 -4.4,-1.7227 -11.9,-4.6213 -16.66667,-6.4413 -4.76666,-1.8199 -12.71285,-4.8675 -17.65819,-6.7723 -18.01356,-6.9383 -45.59716,-17.5162 -69.67513,-26.7193 -11,-4.2045 -23.51439,-9.1449 -27.80975,-10.9787 -4.29536,-1.8338 -8.49536,-3.4374 -9.33333,-3.5636 -0.83797,-0.1261 -5.56954,-1.8731 -10.51459,-3.8822 -9.59236,-3.8971 -18.4572,-7.3642 -37.67566,-14.7349 -6.6,-2.5313 -17.7,-6.8404 -24.66667,-9.5759 -14.59527,-5.731 -43.98263,-16.9508 -54.57837,-20.8376 -3.98477,-1.4618 -11.02195,-4.3703 -15.63817,-6.4634 -9.96314,-4.5175 -7.16799,-6.152 -28.50297,16.668 -41.889971,44.8057 -92.244283,104.5922 -125.212384,148.6667 -11.24395092,15.0318 -10.73697785,14.625 -10.71932698,8.6 0.01396596,-4.7673 2.00529688,-7.8051 20.99999898,-32.0356 37.093935,-47.3187 67.804538,-83.307 106.137022,-124.3769 12.56615,-13.4635 23.67453,-25.6192 24.68531,-27.0127 1.57488,-2.1713 1.44097,-5.345 -0.93616,-22.1876 -1.52565,-10.8096 -3.46287,-25.6377 -4.30492,-32.9513 -0.84206,-7.3136 -1.7606,-14.4895 -2.04121,-15.9466 -0.28061,-1.4571 -0.83911,-5.0733 -1.24112,-8.036 -0.40201,-2.9626 -0.98872,-6.8867 -1.3038,-8.72 -0.31508,-1.8333 -0.86395,-5.4333 -1.21971,-8 -3.59599,-25.9437 -19.82085,-138.37181 -20.78109,-143.99999 -0.68814,-4.03333 -1.57074,-10.1583 -1.96134,-13.61103 -0.3906,-3.45274 -1.26928,-10.05274 -1.95262,-14.66667 -0.68335,-4.61393 -2.51259,-17.08896 -4.06498,-27.7223 -1.55239,-10.63333 -3.05574,-20.83333 -3.34078,-22.66666 -0.28505,-1.83333 -0.93399,-6.33333 -1.4421,-10 -0.5081,-3.66667 -1.14576,-7.86667 -1.41701,-9.33333 -0.27124,-1.46667 -0.83809,-5.36667 -1.25966,-8.66667 -0.42156,-3.3 -0.99166,-7.5 -1.26688,-9.33333 -0.27522,-1.83333 -2.65311,-18.33333 -5.284206,-36.66667 -2.631091,-18.33333 -5.013975,-34.83333 -5.295299,-36.66666 -0.770983,-5.02436 -2.213804,-14.90834 -2.72488,-18.66667 -0.607712,-4.46896 -2.067144,-14.40108 -2.840854,-19.33333 -0.560874,-3.57546 -0.411925,-3.78656 1.403404,-1.989 1.809704,1.79199 3.418795,10.54397 8.210146,44.65567 0.412018,2.93333 1.926107,13.13333 3.364639,22.66666 1.43854,9.53333 3.23038,21.83333 3.98188,27.33333 0.75149,5.5 1.63337,11.5 1.95972,13.33334 0.32636,1.83333 0.91977,6.33333 1.31869,10 0.39892,3.66666 0.98682,7.92797 1.30644,9.46956 0.74974,3.61613 1.14305,6.26736 6.01268,40.53043 2.24083,15.76667 4.30762,30.16667 4.59286,32 0.28524,1.83333 0.93434,6.33333 1.44245,10 0.50811,3.66667 1.14576,7.86667 1.41701,9.33333 0.27125,1.46667 0.8381,5.36667 1.25966,8.66667 0.42157,3.3 1.00334,7.5 1.29283,9.33333 0.28948,1.83333 0.84012,5.43333 1.22364,8 0.73527,4.9207 8.40733,58.68818 9.51265,66.66666 0.35558,2.56667 0.9043,6.16667 1.21938,8 0.31508,1.83334 0.92115,6.03334 1.34681,9.33333 0.42566,3.3 1.61484,11.1 2.64263,17.3333 1.02778,6.2334 2.21696,14.0334 2.64263,17.3334 0.42566,3.3 1.03648,7.5 1.35737,9.3333 0.32089,1.8333 0.87979,5.7333 1.242,8.6667 1.79478,14.5349 5.17906,37.085 7.30379,48.6666 0.73994,4.0334 1.73308,10.0334 2.20696,13.3334 0.47389,3.3 1.05247,6.9 1.28575,8 0.23327,1.1 0.47004,3.65 0.52615,5.6666 0.0561,2.0167 0.78798,3.6667 1.62639,3.6667 0.83841,0 5.52734,-4.05 10.41985,-9 27.02875,-27.3464 62.51416,-60.4842 88.72243,-82.8528 8.8,-7.5108 19,-16.2165 22.66667,-19.346 23.04236,-19.6669 53.63958,-43.26414 83.99999,-64.78265 30.93312,-21.92443 27.56361,-16.3829 26.73363,-43.96645 -0.38701,-12.86198 -1.03979,-35.08542 -1.45061,-49.38542 -0.41082,-14.3 -0.99092,-29.3 -1.2891,-33.33333 -0.29819,-4.03333 -0.90973,-19.33333 -1.35897,-34 -0.44925,-14.66666 -1.0323,-29.36666 -1.29565,-32.66666 -0.26336,-3.3 -0.84124,-18.3 -1.28417,-33.33333 -0.44293,-15.03334 -1.06851,-31.23334 -1.39018,-36 -0.32167,-4.76667 -0.91925,-19.16667 -1.32796,-32 -0.40871,-12.83333 -1.01427,-26.63333 -1.34568,-30.66667 -0.33141,-4.03333 -0.95694,-19.33333 -1.39006,-33.99999 -0.43312,-14.66667 -1.0057,-29.36667 -1.27242,-32.66667 -0.26671,-3.3 -0.91519,-18.3 -1.44107,-33.33333 -0.52589,-15.03333 -1.10147,-29.43333 -1.27908,-32 -0.17761,-2.56666 -0.38722,-9.31666 -0.4658,-15 -0.11351,-8.20942 -0.5519,-10.33333 -2.13288,-10.33333 -3.23766,0 -52.14163,27.16356 -89.6299,49.78465 C 190.66672,581.52836 107.3813,640.99611 23.572834,711.05507 0.38237912,730.44093 -0.17741516,730.81148 0.23950164,726.5004 0.60383349,722.73307 2.7259736,720.3412 14.666666,710.23946 100.74761,637.4156 199.86358,567.25476 295.99998,511.09313 c 28.406,-16.59442 69.23573,-39.14636 86.86904,-47.98136 45.87663,-22.98603 72.54463,-35.9586 80.46429,-39.14162 5.13333,-2.06315 15.63333,-6.57438 23.33333,-10.02494 92.87432,-41.61934 201.00108,-78.8329 303.99998,-104.62647 132.09299,-33.07949 260.62018,-51.56064 407.33328,-58.57118 31.469,-1.50371 129.6719,-1.69047 130.5632,-0.2483 1.5134,2.44861 -4.1533,2.83407 -41.6722,2.83463 -260.1609,0.004 -513.89771,48.37484 -743.78282,141.79048 -47.84757,19.44324 -60.1565,25.06188 -130.83131,59.72035 l -35.05654,17.1915 0.68683,9.64854 c 0.37775,5.3067 1.01813,18.94854 1.42305,30.31521 1.02339,28.72756 1.90675,51.44313 2.67031,68.66666 0.35761,8.06667 0.96057,23.06667 1.3399,33.33333 0.37934,10.26667 0.99039,25.86667 1.35791,34.66667 1.565,37.47333 1.9711,47.75315 2.66,67.33333 0.39992,11.36666 0.98805,23.36666 1.30697,26.66666 0.31891,3.3 0.95755,19.5 1.41918,36 0.46164,16.5 1.01592,32.04217 1.23175,34.53816 0.21583,2.49599 0.78795,15.69599 1.27139,29.33333 0.48344,13.63734 1.11196,28.09517 1.39671,32.1285 0.28476,4.03334 0.88872,15.13334 1.34214,24.66667 0.87076,18.30793 2.03775,34.46952 2.52438,34.95973 0.16001,0.16119 9.25904,-5.58073 20.22007,-12.75982 85.02557,-55.68874 168.13159,-99.9947 256.56304,-136.78033 13.34573,-5.55154 25.66856,-10.44599 27.38407,-10.87656 4.12934,-1.0364 6.90811,-4.30636 7.82627,-9.20968 1.57743,-8.42409 7.13652,-32.23061 8.56463,-36.67757 0.82234,-2.56067 1.76508,-6.15576 2.09498,-7.98909 0.3299,-1.83334 1.30317,-6.33334 2.16281,-10 0.85965,-3.66667 1.84515,-8.13853 2.19001,-9.93747 0.34486,-1.79894 1.77493,-8.19385 3.17792,-14.21091 1.403,-6.01706 2.88743,-12.85029 3.29874,-15.18495 0.41131,-2.33467 1.96963,-9.43975 3.46294,-15.78909 1.49331,-6.34934 3.89725,-16.94425 5.34208,-23.54425 1.44483,-6.59999 2.84147,-12.89999 3.10364,-13.99999 0.57386,-2.4077 8.33307,-37.42749 10.7829,-48.66667 4.63769,-21.2765 6.29208,-28.67374 8.20046,-36.66666 1.13809,-4.76667 2.32595,-10.07873 2.6397,-11.80458 0.31374,-1.72585 2.62447,-12.01379 5.13494,-22.86209 2.51048,-10.8483 4.87369,-21.43623 5.2516,-23.52875 0.92326,-5.11231 5.71175,-27.22136 8.04351,-37.13791 2.08598,-8.87129 4.5051,-19.90246 5.2643,-24.00519 0.27193,-1.46953 1.13101,-5.06953 1.90907,-8 0.77805,-2.93048 1.74928,-7.2769 2.15828,-9.65871 0.409,-2.38181 2.81231,-13.26975 5.34069,-24.19542 2.52838,-10.92567 4.85343,-21.27691 5.16679,-23.00276 0.31336,-1.72585 1.96312,-9.31492 3.66613,-16.86459 2.22753,-9.87495 3.37463,-12.97449 4.088,-11.04605 0.54539,1.47434 0.10716,6.75134 -0.97385,11.72667 -1.08101,4.97533 -2.51718,11.74606 -3.19148,15.04606 -0.67431,3.3 -2.4847,11.36696 -4.02309,17.92658 -1.53839,6.55962 -3.13456,14.05962 -3.54704,16.66667 -0.41247,2.60704 -0.96499,5.09132 -1.22782,5.52062 -0.26283,0.4293 -1.46281,5.5293 -2.66661,11.33334 -1.20381,5.80403 -2.38605,11.45278 -2.6272,12.55278 -2.30461,10.51221 -11.79761,53.08868 -13.22917,59.33333 -1.00869,4.4 -2.52216,11.3 -3.36327,15.33333 -0.84111,4.03334 -2.37926,10.93334 -3.41812,15.33334 -1.03887,4.4 -4.34253,19.09999 -7.34148,32.66666 -2.99895,13.56667 -6.9293,31.19478 -8.73412,39.17359 -1.80481,7.97881 -3.62513,16.67881 -4.04515,19.33334 -0.42002,2.65452 -0.97423,5.17039 -1.23158,5.59082 -0.25735,0.42043 -1.36006,4.92043 -2.45048,10 -2.42066,11.27635 -6.25444,28.83737 -10.12936,46.39861 -1.59745,7.23967 -3.09718,14.13967 -3.33272,15.33333 -0.23555,1.19367 -2.59645,11.79063 -5.24644,23.5488 -5.01529,22.2531 -5.57555,24.90209 -6.89956,32.6215 -0.44023,2.56667 -2.60566,12.95354 -4.81206,23.08194 -2.20641,10.1284 -3.70288,18.72406 -3.32547,19.10146 0.3774,0.3774 11.39052,-3.19879 24.47361,-7.94709 105.72194,-38.37012 226.25937,-67.69918 338.79954,-82.43642 l 12.3455,-1.61665 5.2656,-9.42495 c 2.8961,-5.18372 8.5347,-14.82495 12.5302,-21.42495 3.9956,-6.6 23.023,-39 42.2833,-72 19.2602,-33 39.929,-68.39999 45.9305,-78.66666 9.4411,-16.15068 42.9731,-73.83497 66.2684,-113.99999 4.0406,-6.96667 15.8782,-27.36667 26.3058,-45.33333 10.4276,-17.96667 24.1566,-41.65893 30.5089,-52.64947 9.7199,-16.81694 11.6171,-19.39852 11.9753,-16.29482 0.3135,2.71642 -2.9989,9.56131 -12.5735,25.9828 -7.1495,12.26215 -24.4934,42.09482 -38.5419,66.29482 -14.0486,24.2 -41.9375,72.19999 -61.9754,106.66666 -61.4384,105.67867 -98.0909,169.12455 -100.3422,173.69368 -1.1817,2.39819 -6.163,11.27363 -11.0696,19.72318 -4.9066,8.44956 -8.6965,15.58653 -8.4221,15.85995 0.2745,0.27342 7.0991,-0.30756 15.1657,-1.29107 58.5285,-7.13589 177.8518,-13.9602 207.0682,-11.84259 11.6203,0.84224 12.3761,1.076 12,3.71118 -0.358,2.50753 -1.4089,2.85578 -9.6961,3.21329 -5.5045,0.23746 -10.5255,-0.25776 -12.313,-1.21442 -6.1767,-3.30564 -91.6134,0.35767 -161.0591,6.90581 -41.2436,3.88892 -53.4111,5.66008 -52.9739,7.71115 0.1976,0.92734 8.2439,15.00092 17.8805,31.27462 20.0511,33.86087 52.6042,89.11323 81.0633,137.58853 10.7632,18.33333 45.7731,77.83751 77.7998,132.2315 40.3794,68.58025 58.2179,100.05345 58.1898,102.66665 -0.031,2.8785 -0.3247,3.2833 -1.2434,1.7142 -1.0551,-1.8018 -7.8086,-2.0287 -54.9595,-1.8465 -29.5661,0.1143 -63.3566,0.909 -75.0899,1.766 -147.6215,10.782 -270.13977,42.975 -395.99998,104.0531 -70.07897,34.0083 -132.84812,74.005 -200.3269,127.6489 -15.55281,12.3641 -19.77974,15.0918 -23.33333,15.0573 l -4.33976,-0.042 z m 45.33333,-35.9664 c 20.76733,-15.5141 66.6237,-46.128 92,-61.4194 129.08383,-77.7846 264.40035,-124.7245 414.24044,-143.6959 49.646,-6.2857 77.7062,-7.9077 138.0923,-7.9823 30.983,-0.038 56.333,-0.2831 56.3333,-0.5442 3e-4,-0.261 -3.8145,-6.861 -8.4774,-14.6666 -4.6629,-7.8057 -14.4883,-24.3921 -21.8344,-36.8588 -44.8661,-76.14027 -98.8092,-167.56895 -111.7071,-189.33332 -8.2571,-13.93333 -32.2489,-54.73333 -53.3151,-90.66666 -21.0663,-35.93333 -39.0084,-66.0863 -39.8714,-67.0066 -1.2574,-1.34088 -4.4718,-1.26646 -16.1816,0.37464 -80.24046,11.24555 -154.67923,26.82095 -229.89217,48.10212 -44.69272,12.64562 -127.51471,40.7628 -131.27114,44.56516 -1.4201,1.43745 -0.24879,2.72532 13.35998,14.68943 2.12169,1.86527 10.45762,9.31429 18.52428,16.55336 8.06667,7.23907 19.08735,17.11293 24.49041,21.94192 5.40306,4.82898 11.14286,9.97997 12.75512,11.44663 1.61226,1.46667 7.61226,6.86667 13.33333,12 5.72108,5.13333 11.72108,10.53333 13.33333,12 1.61226,1.46667 7.39158,6.62749 12.84293,11.46849 22.6185,20.08609 39.28607,35.01621 39.91154,35.75113 0.36667,0.43082 5.14303,4.68265 10.61413,9.44851 5.4711,4.76586 10.91326,9.5652 12.09369,10.6652 4.91811,4.583 27.00469,24.54444 41.29218,37.31907 8.43333,7.54036 20.13333,18.01843 26,23.2846 5.86666,5.26617 13.33767,11.93472 16.60224,14.81892 3.26456,2.8842 6.90381,6.1441 8.08721,7.2441 1.18339,1.1 6.88346,6.2 12.6668,11.3333 5.78335,5.1333 11.46004,10.2333 12.61484,11.3333 1.1549,1.1 10.4838,9.4571 20.731,18.5713 23.2015,20.6362 31.2979,28.6212 31.2979,30.8673 0,0.9632 -2.1926,-0.3165 -4.8724,-2.8437 -6.2512,-5.8951 -7.8683,-7.3665 -15.8594,-14.4307 -11.8679,-10.4914 -26.0877,-23.1794 -47.25436,-42.1642 -11.44663,-10.2666 -25.50314,-22.8666 -31.23669,-27.99996 -5.73354,-5.13333 -11.75449,-10.53333 -13.37988,-12 -7.43113,-6.70545 -24.03115,-21.55591 -26.38816,-23.60697 -4.80757,-4.18351 -22.76546,-20.26049 -37.6273,-33.68621 -8.09332,-7.31125 -16.12675,-14.51125 -17.85206,-16 -1.72531,-1.48875 -4.47127,-3.90682 -6.10214,-5.37348 -1.63087,-1.46667 -7.71104,-6.86667 -13.51149,-12 -5.80045,-5.13333 -14.46731,-12.93333 -19.25968,-17.33333 -4.79237,-4.4 -13.46323,-12.2 -19.26858,-17.33334 -9.4778,-8.38067 -32.38599,-28.92471 -44.72117,-40.10589 -2.56667,-2.32655 -14.74988,-13.23422 -27.07381,-24.23928 l -22.40714,-20.0092 -6.68931,2.54174 c -16.11857,6.12457 -52.5133,21.7502 -81.82973,35.13258 -59.69976,27.25178 -136.20159,70.16867 -195.69605,109.78386 -24.59291,16.37552 -27.91828,19.52478 -25.93331,24.55987 0.36202,0.91831 17.07673,9.97184 37.14379,20.11896 20.06707,10.14713 51.78557,26.27678 70.48557,35.84365 44.50848,22.7705 84.62725,43.2607 127.33333,65.034 19.06666,9.721 46.06666,23.524 59.99999,30.6733 32.39301,16.6211 93.65638,47.9212 109.77737,56.0863 6.84422,3.4666 13.34326,7.5867 14.4423,9.1558 1.34901,1.926 -8.32601,-2.4152 -29.77737,-13.361 -17.4766,-8.9177 -47.67563,-24.308 -67.10896,-34.2006 -19.43334,-9.8926 -53.03333,-27.0269 -74.66667,-38.0762 -21.63333,-11.0493 -55.53333,-28.3399 -75.33332,-38.4234 -45.55514,-23.1999 -75.28266,-38.366 -110.66666,-56.45896 -15.4,-7.87449 -36.19193,-18.50388 -46.20428,-23.62088 -11.97692,-6.12103 -18.43378,-10.18125 -18.87517,-11.86914 -0.369,-1.41103 -1.5642,-2.56551 -2.65601,-2.56551 -5.29218,0 -90.06406,65.88669 -130.2094,101.20179 -44.19167,38.8745 -101.38846,93.5537 -101.38846,96.9256 0,2.2336 0.73019,2.6372 12.98214,7.1752 10.72626,3.973 15.03767,5.6251 46.35119,17.7611 10.26667,3.9791 36.96666,14.268 59.33333,22.8643 22.36666,8.5963 48.76666,18.8449 58.66666,22.7747 9.9,3.9297 20.4,8.0317 23.33333,9.1153 7.76597,2.8691 21.30867,8.0246 32,12.182 5.13334,1.9961 12.93334,4.9921 17.33333,6.6577 4.4,1.6656 11,4.2579 14.66667,5.7607 3.66667,1.5028 18.66667,7.3284 33.33333,12.9459 14.66667,5.6175 32.06667,12.3172 38.66667,14.8882 16.27915,6.3416 27.0531,10.512 36.99099,14.3187 4.58829,1.7575 12.24234,4.7204 17.009,6.5843 32.55469,12.7296 41.05253,15.9776 44,16.8172 2.65803,0.7572 4.54888,-0.043 9.33333,-3.9516 3.3,-2.6957 13.2,-10.2799 22,-16.8539 z"
       id="path1" />
  </g>
</svg>
