<?xml version="1.0" encoding="UTF-8" standalone="no"?>
<!-- Created with Inkscape (http://www.inkscape.org/) -->

<svg
   version="1.1"
   id="svg1"
   width="1333.3333"
   height="1333.3333"
   viewBox="0 0 1333.3333 1333.3333"
   sodipodi:docname="Curve90T_R.svg"
   inkscape:version="1.4.2 (ebf0e940d0, 2025-05-08)"
   xmlns:inkscape="http://www.inkscape.org/namespaces/inkscape"
   xmlns:sodipodi="http://sodipodi.sourceforge.net/DTD/sodipodi-0.dtd"
   xmlns="http://www.w3.org/2000/svg"
   xmlns:svg="http://www.w3.org/2000/svg">
  <defs
     id="defs1" />
  <sodipodi:namedview
     id="namedview1"
     pagecolor="#505050"
     bordercolor="#eeeeee"
     borderopacity="1"
     inkscape:showpageshadow="0"
     inkscape:pageopacity="0"
     inkscape:pagecheckerboard="0"
     inkscape:deskcolor="#505050"
     showgrid="false"
     inkscape:zoom="0.59400004"
     inkscape:cx="666.66663"
     inkscape:cy="666.66663"
     inkscape:window-width="1920"
     inkscape:window-height="995"
     inkscape:window-x="0"
     inkscape:window-y="0"
     inkscape:window-maximized="1"
     inkscape:current-layer="g1" />
  <g
     inkscape:groupmode="layer"
     inkscape:label="Image"
     id="g1">
    <path
       style="fill:#ffff00;stroke:none"
       d="m 238.66665,0 c 0,288.14907 84.00978,599.98092 290.68618,809.32816 62.40727,63.21378 137.21866,115.00821 215.98046,155.66047 179.51081,92.65287 388.24961,123.01127 588.00001,123.01127 v -9.3333 c -193.6721,0 -390.24221,-26.9801 -566.66668,-112.34464 C 680.98665,924.86502 600.30518,869.14578 533.35283,801.32816 367.35817,633.18836 286.09709,402.83567 258.45986,171.99999 251.6398,115.03637 245.33332,57.381019 245.33332,0 h -6.66667 m 405.33331,0 2.66667,23.999999 5.33333,-2.666667 c 0.0638,96.711098 29.42883,193.534408 64,282.666648 -29.39868,-13.03133 -61.61629,-20.6145 -92,-31.12548 -70.52656,-24.39812 -141.46923,-47.60043 -211.99999,-72 -26.60082,-9.20231 -53.48335,-17.69328 -79.99999,-27.1307 -17.47841,-6.2207 -34.58002,-14.78051 -53.33333,-12.41048 v 1.33334 c 30.61684,7.08667 60.90012,20.52026 90.66666,30.66259 67.97404,23.16073 135.88346,46.63192 203.99999,69.3374 35.56819,11.85604 71.82499,22.92187 106.66666,36.73356 11.7006,4.63826 28.20646,6.26432 38.38273,13.72428 6.87573,5.04045 10.15332,16.82984 13.96191,24.20882 8.48364,16.43677 18.00448,32.51424 28.11418,48 27.9204,42.76782 62.34651,77.47583 98.20783,113.33333 -103.04255,0 -206.29491,4 -309.33331,4 h -90.66666 c -16.50277,0 -36.90975,-1.35726 -52,5.33333 v 1.33333 c 107.60152,0 215.09577,-2.66666 322.66665,-2.66666 33.37972,0 66.77156,-0.79322 99.99999,-0.0195 11.36499,0.26465 24.94588,-3.40869 36,-0.9095 8.29631,1.87565 15.99829,10.43343 22.66667,15.427 13.78548,10.32308 28.0284,19.87109 42.66666,28.9362 44.06136,27.28605 95.90059,52.82096 146.66669,64.56583 v 1.33333 c -34.0297,8.08293 -69.3759,29.18791 -101.33336,43.59257 -61.81307,27.86186 -124.31265,54.57263 -186.66665,81.17907 -23.6215,10.07927 -47.04688,20.58805 -70.66667,30.66667 -12.23185,5.21923 -25.93863,8.84668 -33.33333,20.56168 33.67472,-9.21045 66.64184,-28.20931 98.66666,-42.10083 l 202.66666,-87.79833 c 23.96179,-10.394 47.80719,-21.05672 71.99999,-30.90535 9.1606,-3.72917 19.5046,-10.52002 29.3333,-11.88884 7.8795,-1.09733 17.7246,3.62655 25.3334,5.52873 17.6553,4.41382 35.4006,8.37663 53.3333,11.49796 39.2204,6.82658 80.1278,14.07601 120,14.33228 5.0852,0.0327 35.9653,-0.37508 34.9733,6.86422 -0.9444,6.89168 -12.4596,15.901 -16.854,21.13684 -15.7125,18.7207 -31.3465,37.46215 -47.2788,55.99999 -57.1166,66.45744 -112.6053,134.4659 -170.7736,199.99999 -15.5197,17.48502 -30.3213,35.61784 -45.5741,53.33333 -8.1177,9.42847 -17.4222,17.68116 -18.4928,30.66666 11.7432,-8.4463 20.5481,-22.35286 29.9033,-33.33333 15.9428,-18.71256 32.1297,-37.22135 47.9959,-55.99999 50.9701,-60.32617 102.5162,-120.20296 154.1008,-179.99999 18.4035,-21.33342 37.0586,-42.49007 55.2325,-64 8.269,-9.78678 18.8066,-18.46435 19.4342,-32 h 4 v -8 c -11.5816,-2.36303 -13.4371,-16.90592 -16.9229,-26.66666 -9.2335,-25.85531 -19.3863,-51.41097 -28.4105,-77.33333 -27.5287,-79.07731 -57.3496,-157.54198 -86.5997,-235.99999 -7.6059,-20.40136 -14.7671,-40.97509 -22.4774,-61.33332 -2.7607,-7.28915 -4.5431,-19.21314 -10.9229,-24 -1.2167,15.97607 6.3981,30.48673 11.9331,45.33333 10.0821,27.04321 20.1336,54.14314 29.8107,81.33333 35.3626,99.3592 70.9653,198.93407 108.9229,297.33331 -20.1125,3.73397 -42.4644,-0.48535 -62.6667,-2.44035 -35.724,-3.45703 -71.5401,-7.75455 -106.6666,-15.45882 -12.5055,-2.74284 -24.9134,-5.83122 -37.3334,-8.9362 -4.4149,-1.10376 -11.864,-1.61507 -14.6285,-5.73771 -3.9458,-5.88419 0.6441,-19.41381 1.181,-26.09358 2.0754,-25.8195 6.1027,-51.50675 7.9959,-77.33333 5.5774,-76.08707 15.4191,-152.08088 23.0103,-227.99999 2.9992,-29.99487 8.486,-60.53076 9.108,-90.66666 52.5921,52.58659 123.0591,65.33333 194.6667,65.33333 v -10.66666 c -12.0164,0 -24.2613,2.76586 -36,2.49487 -39.7412,-0.91748 -82.0171,-12.71973 -116,-33.16154 -14.5666,-8.76229 -33.9655,-21.53418 -41.3334,-37.33333 -11.7689,-3.66642 -21.9573,-28.07967 -26.9588,-38.66667 C 1092.4456,93.737218 1089.3333,47.378415 1089.3333,0 h -8 c 0,34.999021 3.5983,68.403479 10.6666,102.66666 -12.0713,3.86556 -16.1319,16.31291 -21.7448,26.66667 -12.5712,23.18928 -25.2282,46.39729 -38.2552,69.33332 -37.03967,65.21444 -72.66614,131.3964 -108.4115,197.33333 -17.8505,32.92757 -39.85823,65.42073 -54.25512,99.99999 -18.722,-11.71086 -35.21321,-30.19604 -49.71403,-46.66666 -24.67952,-28.03198 -47.30956,-57.05119 -66.27156,-89.33333 -6.66976,-11.35506 -13.12085,-22.8894 -19.01025,-34.66667 -1.97518,-3.94987 -6.50041,-9.9707 -5.4506,-14.61417 1.7806,-7.87606 16.03434,-16.21639 21.77978,-21.5 21.07812,-19.38395 42.78979,-38.08081 64,-57.31893 57.986,-52.59464 116.47899,-104.63874 174.66665,-157.008206 25.02833,-22.525715 59.26713,-44.703773 78.66663,-72.2253375 -15.0783,2.9757485 -24.9149,15.2138665 -36,25.1121405 -21.3622,19.075194 -42.71179,38.169675 -63.99996,57.329179 C 886.99588,158.01236 801.85477,227.75072 723.99996,303.99998 694.64864,228.34626 669.80481,152.17121 662.66663,70.666662 661.15694,53.42887 660.34924,35.791339 658.10079,18.666666 657.5002,14.09261 658.72408,5.8796383 655.76127,2.1378579 653.2922,-0.98038731 647.48552,0.00268555 643.99996,0 m 449.33334,103.99999 c 3.9581,19.12492 12.8423,38.03589 22.9393,54.66667 4.8934,8.06014 15.4582,17.25203 16.8621,26.66666 1.3049,8.75114 -1.3091,19.24024 -2.2469,28 -2.2359,20.88493 -4.6384,41.76033 -6.6616,62.66666 -6.7119,69.3584 -13.9205,138.71337 -21.3384,207.99999 -3.1863,29.76131 -6.4452,59.5415 -9.3282,89.33333 -0.7888,8.15153 1.1024,28.86019 -4.2634,35.14298 -2.8965,3.3916 -9.9428,0.13485 -13.2963,-0.93514 -12.9241,-4.12345 -26.0381,-8.18693 -38.6666,-13.1451 -44.58548,-17.50488 -86.82278,-38.37044 -126.66669,-65.0638 -7.98258,-5.3479 -34.77653,-19.1958 -35.67903,-29.38476 -0.77157,-8.71126 11.15852,-23.12467 15.27164,-30.61418 14.15877,-25.78124 28.06226,-51.71028 42.50822,-77.33332 53.73974,-95.31925 102.74716,-193.50732 157.89916,-287.99999 z"
       id="path1" />
  </g>
</svg>
