<?xml version="1.0" encoding="UTF-8" standalone="no"?>
<!-- Created with Inkscape (http://www.inkscape.org/) -->

<svg
   version="1.1"
   id="svg1"
   width="1333.3333"
   height="1333.3333"
   viewBox="0 0 1333.3333 1333.3333"
   sodipodi:docname="CurveDBL_T.svg"
   inkscape:version="1.4.2 (ebf0e940d0, 2025-05-08)"
   xmlns:inkscape="http://www.inkscape.org/namespaces/inkscape"
   xmlns:sodipodi="http://sodipodi.sourceforge.net/DTD/sodipodi-0.dtd"
   xmlns="http://www.w3.org/2000/svg"
   xmlns:svg="http://www.w3.org/2000/svg">
  <defs
     id="defs1" />
  <sodipodi:namedview
     id="namedview1"
     pagecolor="#505050"
     bordercolor="#eeeeee"
     borderopacity="1"
     inkscape:showpageshadow="0"
     inkscape:pageopacity="0"
     inkscape:pagecheckerboard="0"
     inkscape:deskcolor="#505050"
     showgrid="false"
     inkscape:zoom="0.59400004"
     inkscape:cx="666.66663"
     inkscape:cy="666.66663"
     inkscape:window-width="1920"
     inkscape:window-height="995"
     inkscape:window-x="0"
     inkscape:window-y="0"
     inkscape:window-maximized="1"
     inkscape:current-layer="g1" />
  <g
     inkscape:groupmode="layer"
     inkscape:label="Image"
     id="g1">
    <path
       style="fill:#ffff00;stroke:none"
       d="m 266.66665,223.99999 v 1.33333 c 15.61841,-0.0103 29.29301,-9.22933 42.66666,-16.7675 17.48651,-9.85644 35.6707,-18.60188 53.33333,-28.15429 67.50183,-36.50684 136.88322,-69.68807 203.99999,-106.89298 24.07389,-13.344888 49.39258,-24.597655 73.33333,-38.084389 4.69584,-2.645345 20.68571,-14.271565 25.86214,-10.345702 3.82609,2.901774 1.88603,10.98413 1.37036,14.911539 -1.73869,13.242268 0.60702,26.757648 -1.13167,39.999997 -2.76778,21.079835 -1.64384,42.808505 -3.66052,63.999995 -2.76046,29.00741 -7.77364,58.86051 -7.77364,88 l -54.66667,19.4331 -98.66666,36.49593 -163.99999,60.48144 -110.66666,40.92285 v 1.33333 c 15.68089,1.97119 29.54944,-5.33903 44,-10.9187 21.62233,-8.34887 43.50163,-16.38126 65.33333,-24.15844 71.35648,-25.41944 142.19591,-52.30949 213.33332,-78.32715 23.09249,-8.4458 46.16634,-16.87939 69.33333,-25.08129 10.80603,-3.82569 21.82279,-9.83643 33.33333,-10.84774 -2.90942,67.75065 -22.09501,138.47297 -38.49792,203.99999 -4.25151,16.98404 -9.05355,33.83992 -13.88993,50.66666 -1.70126,5.91903 -2.8217,16.04061 -7.24899,20.54834 -6.23217,6.34538 -26.47005,5.29752 -35.02982,6.32511 -29.34395,3.52263 -58.71317,7.78052 -88,11.79321 -80.80777,11.07178 -161.80058,20.99105 -242.66665,31.62451 -33.02687,4.34286 -70.81004,4.20411 -102.66666,13.70882 6.58695,-18.1005 18.20912,-34.47696 26.25515,-51.99999 18.61446,-40.53939 36.34167,-81.53564 50.18518,-123.99999 29.9778,-91.95573 46.18176,-186.40486 52.77365,-282.66665 2.58916,-37.809572 0.12348,-75.565348 0.11935,-113.3333305 l 5.33333,1.3333333 C 257.33114,1.1522623 251.12722,1.3538411 243.99999,1.3333333 v 1.3333332 l 3.99999,1.3333333 c -3.78932,15.9160142 0,35.5281552 0,51.9999972 0,34.214109 -0.98459,68.625073 -4.22633,102.666663 -9.65485,101.38573 -31.75712,201.29613 -69.63991,295.99998 -12.72998,31.82389 -27.13373,62.69449 -42.46296,93.33333 -6.90009,13.79134 -12.29798,29.62052 -27.67079,34.66666 l 6.66667,2.66667 C 92.923548,627.72547 60.219784,667.48743 32.835389,703.99996 21.136995,719.59778 0.01570187,737.01062 0,757.33329 l 15.999999,-14.66667 v 2.66667 h 2.666667 c 4.987772,-17.3938 16.473723,-29.22746 27.053495,-44 16.52395,-23.07243 32.484628,-46.60514 47.546292,-70.66666 7.248127,-11.57918 15.499107,-35.30257 27.017497,-42.68213 10.32821,-6.61702 31.64518,-5.41276 43.71604,-6.85799 31.14536,-3.72892 62.18859,-8.26123 93.33333,-12 110.95674,-13.3199 221.95303,-33.66894 333.33331,-42.45988 l -65.14815,170.66666 -54.85184,110.66666 -64,-5.45264 -109.33332,-8 L 115.99999,781.21398 6.6666663,773.33329 c 7.6266987,9.10742 21.0680477,7.36653 31.9999977,8.1193 25.628325,1.76497 51.836647,2.58642 77.333326,5.59473 64.87445,7.65445 130.83947,9.94303 195.99999,14.40527 51.23702,3.50879 103.30074,11.77278 154.66666,11.88069 -30.13924,57.22152 -66.71643,113.11255 -106.22017,163.99999 -15.97579,20.57951 -31.91162,41.27983 -48.55452,61.33333 -9.62266,11.5946 -21.69641,22.975 -29.2253,36 h -1.33333 l -22.66667,-7.213 -50.66666,-7.7829 L 75.999995,1038.3373 0,1026.6666 v 4 l 75.999995,11.893 133.333325,21.5474 68,10.5596 c -2.10804,10.4479 -12.79753,19.2071 -19.9856,26.6667 -15.71671,16.3103 -30.6509,33.3031 -46.68107,49.3333 -64.85168,64.8517 -134.448505,127.5006 -209.3333167,181.3333 v 1.3334 c 28.8486187,-0 59.7969427,-36.3439 81.3333287,-53.8519 32.532838,-26.4475 64.657938,-54.2275 94.666658,-83.501 8.40273,-8.1969 14.70718,-18.445 22.84465,-26.3632 27.52038,-26.7788 55.57206,-52.333 81.15535,-81.6173 23.68196,61.3902 45.08109,123.6784 68.06685,185.3334 5.46403,14.6562 11.08313,29.2697 16.34362,44 2.24418,6.284 3.33684,13.7653 10.25619,16 -20.46236,-60.486 -44.67216,-119.7351 -65.79116,-180 -5.64044,-16.0956 -12.15576,-31.8885 -17.75,-48 -1.96219,-5.6512 -6.76293,-13.9659 -6.00205,-20 0.96883,-7.6835 10.92836,-15.5804 15.64404,-21.3334 14.53591,-17.7331 29.39433,-35.1588 43.39095,-53.3333 45.25142,-58.75862 93.5452,-121.58755 125.17488,-189.33332 16.50207,28.27328 28.401,59.75033 42.37447,89.33333 33.78837,71.53271 66.82413,143.45429 101.28087,214.66669 11.52503,23.819 23.092,47.8313 33.86316,72 4.54704,10.2028 8.36015,24.0708 19.81482,28 -41.58134,-99.8746 -92.59822,-196.3439 -137.74487,-294.66669 -13.10998,-28.55159 -27.59049,-56.53987 -40.15429,-85.33333 -3.85449,-8.83358 -13.73531,-21.67757 -13.73458,-31.43416 5.7e-4,-7.43026 8.00692,-16.7845 11.30762,-23.2325 9.76709,-19.08024 20.29321,-37.83122 29.24792,-57.33333 29.96806,-65.26603 59.42659,-132.08447 79.0782,-201.33332 h 2.66667 c 4.30656,11.13509 14.02071,21.14152 21.16459,30.66666 l 40.86934,54.66667 c 47.11369,63.08866 95.17236,125.59675 141.4012,189.33332 17.57592,24.23226 35.76692,48.04988 53.72949,71.99999 7.70914,10.27889 15.37955,25.77254 26.83536,32 l -22.66666,45.33333 c -6.26978,-0.9803 -9.70158,16.31388 -12.98869,22.66667 -12.69084,24.52689 -26.9401,48.32449 -41.1451,71.99999 -37.8352,63.0602 -79.17659,124.4049 -124.06786,182.6667 -25.9056,33.6213 -56.57125,65.056 -80.465,100 13.57527,-0.048 18.85221,-8.8943 26.99589,-18.6667 11.75988,-14.1118 23.40596,-28.3135 34.87035,-42.6667 54.00672,-67.6151 103.48515,-139.1403 147.99995,-213.3333 141.79117,-236.3242 231.66961,-503.17103 261.02161,-777.33328 6.0516,-56.52458 8.0236,-112.75537 11.8981,-169.33333 2.3526,-34.352452 6.1885,-75.357495 -0.1193,-109.3333235 -5.6644,3.6305336 -5.3022,11.1043285 -5.3322,17.3333325 -0.073,15.110269 -0,30.222817 -0,45.33333 0,60.962721 -3.4954,122.028471 -9.5587,182.666651 -15.3344,153.35815 -46.2695,306.56476 -98.03081,451.99998 -25.0249,70.31323 -57.14876,136.65136 -85.74381,205.33332 C 860.00052,877.74742 839.30667,844.62837 816.83532,814.66662 769.2882,751.27046 722.3835,687.3975 674.83537,623.99996 656.54224,599.60909 638.46342,575.05962 620.1687,550.66663 c -5.69563,-7.59415 -18.92911,-19.61238 -19.75105,-29.33333 -0.69995,-8.27856 4.7181,-18.80037 7.01648,-26.66666 5.54703,-18.98478 10.61039,-38.1451 15.40124,-57.33333 15.58663,-62.42716 33.06144,-130.16731 35.83126,-194.66666 33.20401,21.9637 63.1254,52.53076 93.33332,78.49284 50.00301,42.97485 100.73104,85.11563 150.66666,128.17382 20.77254,17.91162 41.90031,35.41357 62.66666,53.33333 10.77564,9.2985 21.09969,21.43977 36.00003,22.66666 v -1.33333 L 927.99994,461.89914 751.99995,312.107 l -66.66666,-56.87866 -24.40946,-23.23348 1.64298,-18.66154 5.20679,-52 5.55969,-135.999988 c 35.37988,16.736978 68.54598,43.469724 101.33333,64.874508 54.02653,35.27051 108.64029,69.64721 162.66666,104.91764 22.60725,14.75887 45.39395,29.24194 68.00002,43.99999 12.251,7.99797 23.5066,18.16431 38.6666,18.20785 v -1.33334 C 1002.1959,232.81403 962.69599,203.92479 922.66661,177.79214 868.58116,142.48315 813.77323,108.22786 759.99995,72.444413 740.19405,59.264563 719.82499,46.928464 699.99996,33.776772 684.57377,23.543211 673.33329,19.85091 673.33329,0 661.14115,0.40543617 665.95927,12.936441 655.99378,18.316893 628.5365,33.141274 601.0597,48.009519 573.3333,62.322018 471.06084,115.11555 366.03782,165.94571 266.66665,223.99999 m -22.66666,53.33333 1.33333,1.33333 -1.33333,-1.33333 m -80,237.33332 2.66667,2.66666 v -2.66666 h -2.66667 m 850.66661,7.99999 1.3333,1.33334 z"
       id="path1" />
  </g>
</svg>
