<?xml version="1.0" encoding="UTF-8" standalone="no"?>
<!-- Created with Inkscape (http://www.inkscape.org/) -->

<svg
   version="1.1"
   id="svg1"
   width="1333.3333"
   height="1333.3333"
   viewBox="0 0 1333.3333 1333.3333"
   sodipodi:docname="Curve90R_B.svg"
   inkscape:version="1.4.2 (ebf0e940d0, 2025-05-08)"
   xmlns:inkscape="http://www.inkscape.org/namespaces/inkscape"
   xmlns:sodipodi="http://sodipodi.sourceforge.net/DTD/sodipodi-0.dtd"
   xmlns="http://www.w3.org/2000/svg"
   xmlns:svg="http://www.w3.org/2000/svg">
  <defs
     id="defs1" />
  <sodipodi:namedview
     id="namedview1"
     pagecolor="#505050"
     bordercolor="#eeeeee"
     borderopacity="1"
     inkscape:showpageshadow="0"
     inkscape:pageopacity="0"
     inkscape:pagecheckerboard="0"
     inkscape:deskcolor="#505050"
     showgrid="false"
     inkscape:zoom="0.59400004"
     inkscape:cx="666.66663"
     inkscape:cy="666.66663"
     inkscape:window-width="1920"
     inkscape:window-height="995"
     inkscape:window-x="0"
     inkscape:window-y="0"
     inkscape:window-maximized="1"
     inkscape:current-layer="g1" />
  <g
     inkscape:groupmode="layer"
     inkscape:label="Image"
     id="g1">
    <path
       style="fill:#ffff00;stroke:none"
       d="m 245.33332,1333.3333 h 9.33333 c 0,-193.6719 26.98018,-390.24237 112.34464,-566.66668 41.45707,-85.68009 97.17647,-166.36116 164.9938,-233.31379 168.13907,-165.99519 398.4929,-247.25609 629.32821,-274.89297 56.9635,-6.81998 114.6189,-13.12654 172,-13.12654 v -6.66667 c -288.1483,0 -599.98268,84.00993 -809.32821,290.68618 C 460.79152,591.76038 408.99688,666.57141 368.34462,745.33329 275.6918,924.84386 245.33332,1133.5833 245.33332,1333.3333 M 1170.6666,278.66665 c -7.0868,30.61686 -20.5203,60.90006 -30.6626,90.66666 -23.1607,67.97404 -46.6319,135.88346 -69.3374,203.99999 -11.8561,35.56827 -22.9219,71.82495 -36.7336,106.66666 -4.6382,11.70052 -6.2643,28.20646 -13.7242,38.38273 -5.0405,6.87573 -16.83,10.1534 -24.20886,13.96191 -16.43677,8.48364 -32.51424,18.00439 -48,28.11418 -42.76774,27.92057 -77.4759,62.34635 -113.33332,98.20783 0,-103.04247 -4,-206.29503 -4,-309.33331 v -90.66666 c 0,-16.50277 1.35734,-36.90975 -5.33334,-52 h -1.33333 c 0,107.60164 2.66667,215.09569 2.66667,322.66665 0,33.37972 0.79321,66.77148 0.0195,99.99999 -0.26465,11.36491 3.40861,24.94596 0.9095,36 -1.87565,8.29639 -10.43343,15.99837 -15.427,22.66667 -10.32316,13.78548 -19.87109,28.02831 -28.93619,42.66666 -27.28597,44.06136 -52.82105,95.90059 -64.56584,146.66669 h -1.33333 c -8.08285,-34.0297 -29.18799,-69.376 -43.59257,-101.33336 -27.86189,-61.81307 -54.57259,-124.31265 -81.17903,-186.66665 -10.07926,-23.62142 -20.58813,-47.04688 -30.66666,-70.66667 -5.21932,-12.23185 -8.84668,-25.93863 -20.56173,-33.33333 9.21029,33.67472 28.20927,66.64184 42.10083,98.66666 l 87.79833,202.66666 c 10.39404,23.96189 21.05672,47.80719 30.90536,71.99999 3.72916,9.1606 10.52001,19.5046 11.88883,29.3333 1.09733,7.8794 -3.62655,17.7246 -5.52873,25.3334 -4.4139,17.6554 -8.37662,35.4005 -11.49796,53.3333 -6.82658,39.2204 -14.07601,80.1278 -14.33228,120 -0.0327,5.0852 0.37508,35.9653 -6.86421,34.9732 -6.89165,-0.9444 -15.901,-12.4594 -21.13684,-16.8539 -18.72071,-15.7125 -37.46212,-31.3466 -56,-47.2788 -66.45776,-57.1164 -134.46585,-112.6053 -199.99999,-170.7736 -17.48498,-15.5198 -35.61779,-30.3214 -53.33333,-45.5741 -9.42846,-8.1177 -17.68115,-17.4222 -30.66666,-18.4928 8.44635,11.7431 22.35284,20.5481 33.33333,29.9033 18.71256,15.9427 37.22139,32.1297 56,47.9959 60.3262,50.97 120.20267,102.5164 179.99998,154.1008 21.3335,18.4034 42.49003,37.0586 64,55.2325 9.78678,8.269 18.46431,18.8066 32,19.4342 v 4 h 8 c 2.36303,-11.5816 16.906,-13.4371 26.66666,-16.9229 25.85531,-9.2336 51.41097,-19.3863 77.33333,-28.4105 79.07755,-27.5287 157.54207,-57.3496 235.99995,-86.5997 20.4014,-7.606 40.9751,-14.7671 61.3334,-22.4774 7.289,-2.7606 19.2132,-4.5432 24,-10.9229 -15.9762,-1.2168 -30.4868,6.3981 -45.3334,11.9331 -27.0433,10.0821 -54.143,20.1337 -81.33329,29.8107 -99.35962,35.3623 -198.93456,70.964 -297.33332,108.9229 -3.73397,-20.1127 0.48535,-42.4644 2.44035,-62.6667 3.45703,-35.724 7.75456,-71.5401 15.45882,-106.6666 2.74276,-12.5053 5.83122,-24.9135 8.9362,-37.3334 1.10384,-4.4152 1.61491,-11.8638 5.73771,-14.6285 5.88411,-3.9459 19.41382,0.6442 26.09358,1.181 25.8195,2.0752 51.50676,6.1027 77.33333,7.9959 76.08708,5.5773 152.08089,15.4193 228.00002,23.0102 29.9948,2.9992 60.5307,8.4861 90.6666,9.1081 -52.5864,52.5924 -65.3333,123.0588 -65.3333,194.6667 h 10.6667 c 0,-12.0162 -2.7659,-24.2614 -2.4949,-36 0.9175,-39.7412 12.7197,-82.0171 33.1615,-116 8.7622,-14.5665 21.5343,-33.9656 37.3334,-41.3334 3.6664,-11.769 28.0796,-21.9573 38.6666,-26.9588 43.5962,-20.5955 89.9549,-23.7078 137.3334,-23.7078 v -8 c -34.9992,0 -68.4035,3.5984 -102.6667,10.6666 -3.8656,-12.0713 -16.3129,-16.1319 -26.6667,-21.7448 -23.1893,-12.5713 -46.3972,-25.2282 -69.3333,-38.2552 -65.2144,-37.03959 -131.3965,-72.66606 -197.33332,-108.4115 -32.92741,-17.8505 -65.42082,-39.85847 -100,-54.25512 11.71078,-18.72209 30.19605,-35.21321 46.66667,-49.71403 28.03206,-24.67952 57.0511,-47.3094 89.33332,-66.27156 11.35515,-6.66984 22.88933,-13.12085 34.66663,-19.01033 3.9499,-1.9751 9.971,-6.50033 14.6142,-5.45052 7.876,1.78051 16.2164,16.03434 21.5,21.77978 19.384,21.07812 38.0808,42.78987 57.3189,64 52.5947,57.986 104.6388,116.47899 157.0082,174.66665 22.5258,25.02833 44.7038,59.26713 72.2254,78.66663 -2.9758,-15.0783 -15.2139,-24.9149 -25.1122,-36 -19.0751,-21.3622 -38.1695,-42.71179 -57.3291,-63.99996 -72.9044,-81.00406 -142.6432,-166.14485 -218.892,-243.99998 75.6535,-29.35156 151.8289,-54.19515 233.3333,-61.33333 17.2378,-1.50969 34.8753,-2.31739 52,-4.56584 4.574,-0.60055 12.787,0.62325 16.5288,-2.33952 3.1184,-2.46915 2.1352,-8.27571 2.1379,-11.76131 l -24,2.66667 2.6666,5.33333 c -96.7112,0.0638 -193.5344,29.42879 -282.6666,64 13.2335,-29.85515 20.7288,-62.54305 31.5884,-93.33333 27.0095,-76.57983 51.8687,-153.9213 78.4177,-230.66665 9.0559,-26.17757 18.125,-52.39339 26.8828,-78.66667 3.6286,-10.88566 10.3607,-23.53832 4.4444,-34.66666 m 58.6667,814.66665 c -19.1249,3.958 -38.036,12.8423 -54.6667,22.9393 -8.0604,4.8936 -17.2519,15.4582 -26.6667,16.8621 -8.7514,1.3049 -19.24,-1.3091 -28,-2.2469 -20.8848,-2.2359 -41.7603,-4.6384 -62.6666,-6.6616 -69.80764,-6.7554 -139.501,-14.9669 -209.33335,-21.4598 -31.07088,-2.8889 -62.18262,-7.7459 -93.33333,-9.4805 -5.44116,-0.3029 -29.03589,-0.1798 -30.96395,-5.7098 -3.45662,-9.9142 9.38729,-33.8742 12.75611,-43.5762 15.41658,-44.39881 37.04964,-87.59241 63.09675,-126.66662 7.27735,-10.91699 14.73031,-21.6744 22.83122,-32 2.72485,-3.47315 6.06877,-9.90902 10.99902,-10.3457 7.62598,-0.67546 20.12663,9.32763 26.61418,13.01237 21.59423,12.26472 43.61751,23.77001 65.33333,35.81477 74.89392,41.5402 151.00102,81.10418 225.33332,123.62348 18.0592,10.3302 36.3878,20.2628 54.6667,30.2027 7.5715,4.1173 19.6706,8.0636 24,15.6924 z"
       id="path1" />
  </g>
</svg>
