<?xml version="1.0" encoding="UTF-8" standalone="no"?>
<!-- Created with Inkscape (http://www.inkscape.org/) -->

<svg
   version="1.1"
   id="svg1"
   width="1333.3333"
   height="1333.3333"
   viewBox="0 0 1333.3333 1333.3333"
   sodipodi:docname="Curve90B_R.svg"
   inkscape:version="1.4.2 (ebf0e940d0, 2025-05-08)"
   xmlns:inkscape="http://www.inkscape.org/namespaces/inkscape"
   xmlns:sodipodi="http://sodipodi.sourceforge.net/DTD/sodipodi-0.dtd"
   xmlns="http://www.w3.org/2000/svg"
   xmlns:svg="http://www.w3.org/2000/svg">
  <defs
     id="defs1" />
  <sodipodi:namedview
     id="namedview1"
     pagecolor="#505050"
     bordercolor="#eeeeee"
     borderopacity="1"
     inkscape:showpageshadow="0"
     inkscape:pageopacity="0"
     inkscape:pagecheckerboard="0"
     inkscape:deskcolor="#505050"
     showgrid="false"
     inkscape:zoom="0.59400004"
     inkscape:cx="666.66663"
     inkscape:cy="666.66663"
     inkscape:window-width="1920"
     inkscape:window-height="995"
     inkscape:window-x="0"
     inkscape:window-y="0"
     inkscape:window-maximized="1"
     inkscape:current-layer="g1" />
  <g
     inkscape:groupmode="layer"
     inkscape:label="Image"
     id="g1">
    <path
       style="fill:#ffff00;stroke:none"
       d="m 238.66665,1333.3333 h 6.66667 c 0,-57.3811 6.30648,-115.0365 13.12654,-172 C 286.09719,930.49669 367.35813,700.14579 533.35283,532.00509 600.30506,464.18731 680.98698,408.46832 766.66662,367.01129 943.09109,281.6463 1139.6611,254.66665 1333.3333,254.66665 v -9.33333 c -199.7504,0 -408.48896,30.35872 -588.00001,123.0113 -78.7618,40.65202 -153.57344,92.44661 -215.98046,155.66047 C 322.67759,733.35225 238.66665,1045.1832 238.66665,1333.3333 M 1022.6666,314.66665 c 1.0706,12.98543 10.3752,21.23828 18.4928,30.66666 15.2529,17.71558 30.0543,35.84831 45.5741,53.33333 58.1684,65.53418 113.657,133.54247 170.7736,199.99999 15.9323,18.53784 31.5663,37.27929 47.2788,56 4.3944,5.23584 15.9096,14.24524 16.854,21.13684 0.992,7.23929 -29.8881,6.8315 -34.9733,6.86413 -39.8722,0.25627 -80.7797,7.50553 -120,14.33236 -17.9327,3.12142 -35.6779,7.08406 -53.3333,11.49788 -7.6086,1.90218 -17.4541,6.6263 -25.3334,5.52881 -9.8287,-1.3689 -20.1727,-8.15967 -29.3333,-11.88883 -24.1929,-9.84856 -48.0381,-20.51132 -71.99999,-30.90536 L 783.99995,583.43413 c -32.02506,-13.89144 -64.99177,-32.89054 -98.66666,-42.10083 7.39478,11.71509 21.1014,15.34237 33.33333,20.56169 23.61979,10.07845 47.04517,20.5874 70.66667,30.66666 62.35424,26.60636 124.85367,53.31722 186.66665,81.17907 31.95756,14.40466 67.30356,35.50964 101.33336,43.59257 v 1.33333 c -50.766,11.74463 -102.60549,37.27979 -146.66669,64.56584 -14.63826,9.06518 -28.88118,18.61311 -42.66666,28.93627 -6.66846,4.99357 -14.37028,13.55127 -22.66667,15.42692 -11.08447,2.50602 -24.60026,-1.17529 -36,-0.9095 -33.22932,0.77482 -66.6206,-0.0195 -99.99999,-0.0195 -107.5708,0 -215.06566,-2.66667 -322.66665,-2.66667 v 1.33333 c 15.09815,6.69418 35.48499,5.33334 52,5.33334 h 90.66666 c 103.03706,0 206.29222,4 309.33331,4 -35.86132,35.85774 -70.28734,70.56542 -98.20783,113.33332 -10.1097,15.48576 -19.63054,31.56315 -28.11418,48 -3.80859,7.37896 -7.0861,19.16826 -13.96191,24.20886 -10.17611,7.4599 -26.68221,9.0861 -38.38273,13.7242 -34.84171,13.8117 -71.09835,24.8775 -106.66666,36.7336 -68.11641,22.7055 -136.02599,46.1768 -203.99999,69.3374 -29.76656,10.1423 -60.04976,23.5762 -90.66666,30.6626 v 1.3333 c 18.75331,2.3701 35.85488,-6.1898 53.33333,-12.4105 26.51668,-9.4373 53.39913,-17.9284 79.99999,-27.1306 70.53121,-24.3994 141.47334,-47.6023 211.99999,-72 30.38367,-10.5109 62.60148,-18.094 92,-31.1255 -34.57088,89.1325 -63.93624,185.9554 -64,282.6666 l -5.33333,-2.6666 -2.66667,24 c 3.48556,-0 9.29224,0.9803 11.76131,-2.1379 2.96285,-3.7419 1.73893,-11.9547 2.33952,-16.5288 2.24845,-17.1246 3.05615,-34.7623 4.56584,-52 7.13822,-81.5047 31.98225,-157.6794 61.33333,-233.3333 77.85489,76.2488 162.99592,145.9873 243.99998,218.892 21.28817,19.1596 42.63776,38.254 63.99996,57.3291 11.0849,9.8982 20.9218,22.1364 36,25.1122 -19.3995,-27.5217 -53.6383,-49.6995 -78.66663,-72.2254 -58.18733,-52.3693 -116.68074,-104.4136 -174.66665,-157.0082 -21.21013,-19.238 -42.92196,-37.9349 -64,-57.3189 -5.74544,-5.2836 -19.99918,-13.6239 -21.77978,-21.5 -1.04973,-4.6433 3.47542,-10.6644 5.4506,-14.6142 5.88948,-11.7773 12.34049,-23.31148 19.01025,-34.66663 18.96191,-32.28206 41.59212,-61.30142 66.27156,-89.33332 14.5009,-16.47071 30.99194,-34.95589 49.71403,-46.66667 14.39673,34.57926 36.40462,67.07243 54.25512,100 35.74536,65.93692 71.37183,132.11892 108.4115,197.33332 13.027,22.9361 25.6839,46.144 38.2552,69.3333 5.6129,10.3539 9.6735,22.801 21.7448,26.6667 -7.0682,34.2633 -10.6666,67.6675 -10.6666,102.6667 h 8 c 0,-47.3785 3.1123,-93.7373 23.7078,-137.3334 5.0814,-10.7561 15.0723,-34.6781 26.9588,-38.6666 7.3678,-15.7992 26.7669,-28.5712 41.3334,-37.3334 33.9829,-20.4417 76.2588,-32.244 116,-33.1615 11.7386,-0.271 23.9838,2.4949 36,2.4949 v -10.6667 c -71.6075,0 -142.0748,12.7466 -194.6667,65.3333 -0.622,-30.1359 -6.1088,-60.6718 -9.108,-90.6666 -7.5912,-75.91913 -17.4329,-151.91286 -23.0103,-228.00002 -1.8932,-25.82649 -5.9205,-51.51383 -7.9959,-77.33333 -0.5369,-6.67993 -5.1269,-20.2093 -1.181,-26.09358 2.7646,-4.12289 10.2132,-4.63379 14.6285,-5.73763 12.42,-3.10498 24.828,-6.19352 37.3334,-8.93628 35.1265,-7.70418 70.9426,-12.00179 106.6666,-15.4589 20.2024,-1.95492 42.5539,-6.17416 62.6667,-2.44027 -37.9572,98.39908 -73.5602,197.97403 -108.9229,297.33332 -9.6771,27.19029 -19.7286,54.28999 -29.8107,81.33329 -5.535,14.8467 -13.1498,29.3571 -11.9331,45.3334 6.3797,-4.7868 8.1623,-16.7111 10.9229,-24 7.7103,-20.3583 14.8715,-40.932 22.4774,-61.3334 29.2501,-78.45797 59.0708,-156.92224 86.5997,-235.99995 9.0242,-25.92228 19.177,-51.47802 28.4105,-77.33333 3.4858,-9.76074 5.3414,-24.30354 16.9229,-26.66666 v -8 h -4 c -0.6276,-13.53577 -11.1652,-22.21309 -19.4342,-32 -18.1739,-21.50985 -36.829,-42.66658 -55.2325,-64 -51.5846,-59.79703 -103.1307,-119.6739 -154.1008,-179.99998 -15.8662,-18.77857 -32.053,-37.28744 -47.9959,-56 -9.3551,-10.98047 -18.1601,-24.88696 -29.9033,-33.33333 m 70.6667,914.66665 c -7.6288,-4.3294 -11.5751,-16.4284 -15.6924,-24 -9.9399,-18.2789 -19.8725,-36.6075 -30.2027,-54.6667 -42.5193,-74.3324 -82.08303,-150.4394 -123.62348,-225.33332 -12.04484,-21.71582 -23.54996,-43.73918 -35.81477,-65.33333 -3.68474,-6.48755 -13.68783,-18.9882 -13.01237,-26.61418 0.43668,-4.93034 6.87247,-8.27409 10.3457,-10.99894 10.32552,-8.10091 21.08301,-15.55403 32,-22.83138 39.07413,-26.04687 82.26773,-47.68041 126.66662,-63.09667 9.7019,-3.36874 33.6621,-16.21289 43.5762,-12.75619 5.53,1.92806 5.4068,25.52279 5.7098,30.96403 1.7348,31.15071 6.5916,62.26245 9.4805,93.33333 6.4927,69.83219 14.7045,139.52579 21.4598,209.33335 2.0232,20.9062 4.4257,41.7818 6.6616,62.6666 0.9378,8.7598 3.5519,19.2488 2.2469,28 -1.4039,9.4147 -11.9687,18.6066 -16.8621,26.6667 -10.0969,16.6307 -18.9813,35.5418 -22.9393,54.6667 z"
       id="path1" />
  </g>
</svg>
