<?xml version="1.0" encoding="UTF-8" standalone="no"?>
<!-- Created with Inkscape (http://www.inkscape.org/) -->

<svg
   version="1.1"
   id="svg1"
   width="1333.3333"
   height="1333.3333"
   viewBox="0 0 1333.3333 1333.3333"
   sodipodi:docname="CurveDBL_R.svg"
   inkscape:version="1.4.2 (ebf0e940d0, 2025-05-08)"
   xmlns:inkscape="http://www.inkscape.org/namespaces/inkscape"
   xmlns:sodipodi="http://sodipodi.sourceforge.net/DTD/sodipodi-0.dtd"
   xmlns="http://www.w3.org/2000/svg"
   xmlns:svg="http://www.w3.org/2000/svg">
  <defs
     id="defs1" />
  <sodipodi:namedview
     id="namedview1"
     pagecolor="#505050"
     bordercolor="#eeeeee"
     borderopacity="1"
     inkscape:showpageshadow="0"
     inkscape:pageopacity="0"
     inkscape:pagecheckerboard="0"
     inkscape:deskcolor="#505050"
     showgrid="false"
     inkscape:zoom="0.59400004"
     inkscape:cx="666.66662"
     inkscape:cy="666.66662"
     inkscape:window-width="1920"
     inkscape:window-height="995"
     inkscape:window-x="0"
     inkscape:window-y="0"
     inkscape:window-maximized="1"
     inkscape:current-layer="g1" />
  <g
     inkscape:groupmode="layer"
     inkscape:label="Image"
     id="g1">
    <path
       style="fill:#ffff00;stroke:none"
       d="m 1109.2846,1064.9345 h -1.3333 c 0.01,-15.6184 9.2293,-29.293 16.7675,-42.6666 9.8564,-17.4866 18.6019,-35.67075 28.1543,-53.33338 36.5068,-67.50183 69.688,-136.88322 106.8929,-203.99999 13.3449,-24.07389 24.5977,-49.39258 38.0844,-73.33333 2.6454,-4.69584 14.2716,-20.68571 10.3457,-25.86214 -2.9017,-3.82609 -10.9841,-1.88603 -14.9115,-1.37036 -13.2423,1.73869 -26.7576,-0.60702 -40,1.13167 -21.0798,2.76778 -42.8085,1.64384 -64,3.66052 -29.0074,2.76046 -58.8605,7.77364 -88,7.77364 l -19.4331,54.66667 -36.4959,98.66666 -60.48146,163.99999 -40.92285,110.66665 h -1.33333 c -1.97119,-15.6809 5.33903,-29.5494 10.9187,-44 8.34887,-21.6223 16.38126,-43.5016 24.15844,-65.33332 25.4194,-71.35648 52.3095,-142.19591 78.3272,-213.33332 8.4458,-23.09249 16.8793,-46.16634 25.0812,-69.33333 3.8257,-10.80603 9.8365,-21.82279 10.8478,-33.33333 -67.7507,2.90942 -138.47299,22.09501 -204.00001,38.49792 -16.98404,4.25151 -33.83992,9.05355 -50.66666,13.88993 -5.91903,1.70126 -16.04061,2.8217 -20.54834,7.24899 -6.34538,6.23217 -5.29752,26.47005 -6.32511,35.02982 -3.52263,29.34395 -7.78052,58.71317 -11.79321,88 -11.07178,80.80777 -20.99105,161.80054 -31.62451,242.66664 -4.34286,33.0269 -4.20411,70.81 -13.70882,102.6667 18.1005,-6.587 34.47696,-18.2092 51.99999,-26.2552 40.53939,-18.6145 81.53564,-36.3417 123.99999,-50.1852 91.95578,-29.9778 186.40488,-46.1817 282.66668,-52.7736 37.8095,-2.5892 75.5653,-0.1235 113.3333,-0.1194 l -1.3333,-5.3333 c 8.181,1.3355 7.9795,7.5394 8,14.6667 h -1.3334 l -1.3333,-4 c -15.916,3.7893 -35.5282,0 -52,0 -34.2141,0 -68.6251,0.9846 -102.6667,4.2263 -101.3857,9.6549 -201.29609,31.7571 -295.99994,69.6399 -31.82389,12.73 -62.69449,27.1337 -93.33333,42.463 -13.79134,6.9001 -29.62052,12.2979 -34.66666,27.6708 l -2.66667,-6.6667 c -42.39217,17.7431 -82.15413,50.4469 -118.66666,77.8313 -15.59782,11.6984 -33.01066,32.8196 -53.33333,32.8353 l 14.66667,-15.9999 h -2.66667 v -2.6667 c 17.3938,-4.9878 29.22746,-16.4737 44,-27.0535 23.07243,-16.524 46.60514,-32.4846 70.66666,-47.5463 11.57918,-7.2481 35.30257,-15.4991 42.68213,-27.0175 6.61702,-10.3282 5.41276,-31.6452 6.85799,-43.716 3.72892,-31.1454 8.26123,-62.1886 12,-93.3334 13.3199,-110.9567 33.66894,-221.95299 42.45988,-333.33327 l -170.66666,65.14815 -110.66666,54.85184 5.45264,64 8,109.33328 13.33333,181.3334 7.88069,109.3333 c -9.10742,-7.6267 -7.36653,-21.0681 -8.1193,-32 -1.76497,-25.6283 -2.58642,-51.8367 -5.59473,-77.3333 -7.65445,-64.8745 -9.94303,-130.8395 -14.40527,-196 -3.50879,-51.23704 -11.77278,-103.30076 -11.88069,-154.66668 -57.22152,30.13924 -113.11255,66.71643 -163.99999,106.22017 -20.57951,15.97579 -41.27987,31.91161 -61.33337,48.55451 -11.5946,9.6227 -22.975,21.6964 -36,29.2253 v 1.3333 l 7.213,22.6667 7.7829,50.6667 21.3334,132 11.6707,75.9999 h -4 l -11.893,-75.9999 -21.5474,-133.3334 -10.5596,-68 c -10.4479,2.1081 -19.2071,12.7976 -26.6667,19.9856 -16.3103,15.7168 -33.303,30.6509 -49.3332,46.6811 -64.8517,64.8517 -127.500595,134.4485 -181.3332954,209.3333 h -1.33339998 c 0,-28.8486 36.34390038,-59.7969 53.85190038,-81.3333 26.4475,-32.5329 54.227495,-64.658 83.500995,-94.6667 8.1969,-8.4027 18.445,-14.7072 26.3632,-22.8446 26.7788,-27.5204 52.3329,-55.5721 81.6172,-81.1554 -61.3901,-23.6819 -123.6783,-45.081 -185.333295,-68.06681 -14.6562,-5.46403 -29.2697,-11.08313 -44,-16.34362 C 9.6673646,963.61319 2.1860646,962.52053 -0.04863538,955.60118 60.437365,976.06354 119.68646,1000.2733 179.95136,1021.3923 c 16.0956,5.6405 31.8884,12.1558 47.9999,17.75 5.6512,1.9622 13.9659,6.763 20,6.0021 7.6835,-0.9688 15.5804,-10.9284 21.3334,-15.644 17.7331,-14.536 35.1588,-29.3944 53.3333,-43.391 58.75866,-45.25142 121.58759,-93.5452 189.33336,-125.17488 -28.27328,-16.50207 -59.75033,-28.401 -89.33333,-42.37447 -71.53271,-33.78837 -143.45433,-66.82413 -214.66663,-101.28087 -23.819,-11.52503 -47.8313,-23.092 -72,-33.86316 -10.2028,-4.54704 -24.0708,-8.36015 -28,-19.81482 99.8746,41.58134 196.3438,92.59822 294.66663,137.74487 28.55159,13.10998 56.53987,27.59049 85.33333,40.15429 8.83358,3.85449 21.67757,13.73531 31.43416,13.73458 7.43026,-5.7e-4 16.7845,-8.00692 23.2325,-11.30762 19.08024,-9.76709 37.83122,-20.29321 57.33333,-29.24792 65.26603,-29.96806 132.08447,-59.42659 201.33332,-79.0782 v -2.66667 c -11.13509,-4.30656 -21.14152,-14.02071 -30.66666,-21.16459 L 715.9513,670.9006 C 652.86264,623.78691 590.35455,575.72824 526.61798,529.4994 502.38572,511.92348 478.5681,493.73248 454.61799,475.76991 c -10.27889,-7.70914 -25.77254,-15.37955 -32,-26.83536 l -45.33333,22.66666 c 0.9803,6.26978 -16.31388,9.70158 -22.66667,12.98869 -24.52693,12.69084 -48.32453,26.9401 -72.00003,41.1451 -63.0602,37.8352 -124.4048,79.17659 -182.666595,124.06786 -33.6213,25.9056 -65.056,56.57125 -100.00000038,80.465 0.048,-13.57527 8.89429998,-18.85221 18.66670038,-26.99589 14.1118,-11.75988 28.3135,-23.40596 42.6667,-34.87035 C 128.89986,614.3949 200.42506,564.91647 274.61796,520.40167 510.9422,378.6105 777.78903,288.73206 1051.9513,259.38006 c 56.5246,-6.0516 112.7554,-8.0236 169.3333,-11.8981 34.3525,-2.3526 75.3575,-6.1885 109.3333,0.1193 -3.6305,5.6644 -11.1043,5.3022 -17.3333,5.3322 -15.1103,0.073 -30.2228,0 -45.3333,0 -60.9627,0 -122.0285,3.4954 -182.6667,9.5587 -153.35813,15.3344 -306.56474,46.2695 -451.99996,98.03081 -70.31323,25.0249 -136.65136,57.14876 -205.33332,85.74381 27.58586,25.33386 60.70491,46.02771 90.66666,68.49906 63.39616,47.54712 127.26912,94.45182 190.66666,141.99995 24.39087,18.29313 48.94034,36.37195 73.33333,54.66667 7.59415,5.69563 19.61238,18.92911 29.33333,19.75105 8.27856,0.69995 18.80037,-4.7181 26.66666,-7.01648 18.98478,-5.54703 38.1451,-10.61039 57.33333,-15.40124 62.42716,-15.58663 130.16731,-33.06144 194.66671,-35.83126 -21.9637,-33.20401 -52.5308,-63.1254 -78.4929,-93.33332 C 969.15026,529.5982 927.00948,478.87017 883.95129,428.93455 866.03967,408.16201 848.53772,387.03424 830.61796,366.26789 821.31946,355.49225 809.17819,345.1682 807.9513,330.26786 h 1.33333 l 62.10083,73.33336 149.79214,175.99999 56.8787,66.66666 23.2334,24.40946 18.6616,-1.64298 52,-5.20679 136,-5.55969 c -16.737,-35.37988 -43.4698,-68.54598 -64.8745,-101.33333 -35.2705,-54.02653 -69.6472,-108.64029 -104.9177,-162.66666 -14.7588,-22.60725 -29.2419,-45.39395 -44,-68.00002 -7.9979,-12.251 -18.1643,-23.5066 -18.2078,-38.6666 h 1.3333 c 23.186,41.804 52.0752,81.30391 78.2079,121.33329 35.309,54.08545 69.5642,108.89338 105.3477,162.66666 13.1798,19.8059 25.5159,40.17496 38.6676,59.99999 10.2336,15.42619 13.9259,26.66667 33.7768,26.66667 -0.4054,12.19214 -12.9364,7.37402 -18.3169,17.33951 -14.8244,27.45728 -29.6926,54.93408 -44.0051,82.66048 -52.7935,102.27246 -103.6237,207.29548 -161.678,306.66664 m -53.3333,22.6667 -1.3333,-1.3334 1.3333,1.3334 m -237.33334,80 -2.66666,-2.6667 h 2.66666 v 2.6667 m -7.99999,-850.66664 -1.33334,-1.3333 z"
       id="path1" />
  </g>
</svg>
