<?xml version="1.0" encoding="UTF-8" standalone="no"?>
<!-- Created with Inkscape (http://www.inkscape.org/) -->

<svg
   version="1.1"
   id="svg1"
   width="1333.3333"
   height="1333.3333"
   viewBox="0 0 1333.3333 1333.3333"
   sodipodi:docname="Curve90T_L.svg"
   inkscape:version="1.4.2 (ebf0e940d0, 2025-05-08)"
   xmlns:inkscape="http://www.inkscape.org/namespaces/inkscape"
   xmlns:sodipodi="http://sodipodi.sourceforge.net/DTD/sodipodi-0.dtd"
   xmlns="http://www.w3.org/2000/svg"
   xmlns:svg="http://www.w3.org/2000/svg">
  <defs
     id="defs1" />
  <sodipodi:namedview
     id="namedview1"
     pagecolor="#505050"
     bordercolor="#eeeeee"
     borderopacity="1"
     inkscape:showpageshadow="0"
     inkscape:pageopacity="0"
     inkscape:pagecheckerboard="0"
     inkscape:deskcolor="#505050"
     showgrid="false"
     inkscape:zoom="0.59400004"
     inkscape:cx="666.66663"
     inkscape:cy="666.66663"
     inkscape:window-width="1920"
     inkscape:window-height="995"
     inkscape:window-x="0"
     inkscape:window-y="0"
     inkscape:window-maximized="1"
     inkscape:current-layer="g1" />
  <g
     inkscape:groupmode="layer"
     inkscape:label="Image"
     id="g1">
    <path
       style="fill:#ffff00;stroke:none"
       d="m 243.99999,0 c 0,47.378415 -3.11233,93.737218 -23.70783,137.33332 -5.08134,10.75611 -15.07214,34.67814 -26.95884,38.66667 -7.3678,15.79915 -26.76677,28.57104 -41.33333,37.33333 C 118.01714,233.77505 75.741074,245.57738 35.999998,246.49486 24.261354,246.76585 12.016198,243.99999 0,243.99999 v 10.66666 c 71.607911,0 142.07419,-12.74691 194.66665,-65.33333 0.62201,30.13599 6.10893,60.67179 9.10804,90.66666 7.59092,75.91911 17.43292,151.91275 23.01027,227.99999 1.89315,25.82658 5.92065,51.51383 7.99589,77.33333 0.53688,6.67977 5.12697,20.20939 1.18107,26.09358 -2.76461,4.12264 -10.21342,4.63395 -14.6286,5.73771 -12.41984,3.10498 -24.82796,6.19336 -37.33333,8.9362 -35.12657,7.70427 -70.94258,12.00179 -106.666661,15.45882 -20.2023,1.955 -42.553994,6.17432 -62.666663,2.44035 37.958819,-98.39851 73.560725,-197.97411 108.922834,-297.33331 9.67707,-27.19027 19.7286,-54.29004 29.8107,-81.33333 5.53501,-14.8466 13.14989,-29.35718 11.93312,-45.33333 -6.3797,4.78678 -8.16229,16.71101 -10.92284,24 -7.71031,20.35831 -14.87142,40.93188 -22.47736,61.33332 -29.25014,78.45784 -59.071125,156.9226 -86.599789,235.99999 -9.02416,25.92236 -19.176917,51.47802 -28.410493,77.33333 C 13.437082,628.42721 11.581546,642.97026 0,645.33329 v 8 h 3.9999998 c 0.6274842,13.53569 11.1652112,22.21318 19.4341542,32 18.173927,21.50993 36.829077,42.6665 55.232508,64 51.584288,59.79719 103.130728,119.67366 154.100818,179.99999 15.86619,18.77864 32.05312,37.28743 47.99589,55.99999 9.35518,10.98047 18.16018,24.88693 29.90328,33.33333 -1.07068,-12.9855 -10.37508,-21.23819 -18.4928,-30.66666 C 276.92108,970.28436 262.11953,952.15163 246.59978,934.66661 188.43155,869.1326 132.94252,801.1243 75.826127,734.66662 59.893938,716.1287 44.259829,697.38733 28.547323,678.66663 24.15278,673.43075 12.637831,664.42143 11.693415,657.52979 c -0.992058,-7.2393 29.888014,-6.83155 34.973249,-6.86422 39.872302,-0.25627 80.779536,-7.5057 119.999996,-14.33228 17.93273,-3.12133 35.67789,-7.08414 53.33333,-11.49796 7.60874,-1.90218 17.45395,-6.62606 25.33333,-5.52873 9.82875,1.36882 20.17279,8.15967 29.33333,11.88884 24.19279,9.84863 48.0381,20.51131 72,30.90535 l 202.66665,87.79833 c 32.0249,13.8916 64.9919,32.89055 98.66666,42.10083 -7.39469,-11.715 -21.10148,-15.34245 -33.33333,-20.56168 C 591.04688,761.35965 567.62147,750.85087 543.99997,740.7716 481.64568,714.165 419.14638,687.45439 357.33331,659.59253 325.3759,645.18787 290.02973,624.08281 255.99998,615.99996 v -1.33333 c 50.76609,-11.74479 102.60539,-37.27987 146.66666,-64.56583 14.63831,-9.06511 28.88119,-18.61312 42.66667,-28.9362 6.66833,-4.99349 14.37036,-13.55135 22.66666,-15.427 11.08451,-2.50602 24.60026,1.17529 36,0.9095 33.22933,-0.77465 66.6206,0.0195 99.99999,0.0195 107.57096,0 215.06558,2.66666 322.66665,2.66666 v -1.33333 c -15.09822,-6.69417 -35.48494,-5.33333 -52,-5.33333 h -90.66666 c -103.0371,0 -206.29222,-4 -309.33331,-4 35.86149,-35.85742 70.28722,-70.56559 98.20784,-113.33333 10.10978,-15.48576 19.63045,-31.56315 28.11417,-48 3.80855,-7.3789 7.08614,-19.16837 13.96191,-24.20882 10.17631,-7.45996 26.68209,-9.08602 38.38273,-13.72428 34.84164,-13.81169 71.09839,-24.87744 106.66666,-36.73356 68.11645,-22.70548 136.02628,-46.17675 203.99999,-69.3374 29.7666,-10.14233 60.04976,-23.57576 90.66666,-30.66259 v -1.33334 c -18.7533,-2.37003 -35.855,6.18978 -53.3333,12.41048 -26.51663,9.43742 -53.39919,17.92831 -80.00002,27.1307 -70.53092,24.39966 -141.47363,47.60197 -211.99999,72 -30.38371,10.51098 -62.60123,18.09423 -91.99999,31.12548 34.57116,-89.13224 63.93623,-185.95547 63.99999,-282.666648 l 5.33333,2.666667 L 689.33329,0 c -3.48568,0.00268555 -9.29219,-0.98046869 -11.76131,2.1378579 -2.96297,3.7420246 -1.73893,11.9545891 -2.33952,16.5288081 -2.24845,17.12451 -3.05615,34.762367 -4.56583,51.999996 C 663.52844,152.17113 638.68494,228.34626 609.3333,303.99998 531.47828,227.75121 446.33762,158.0126 365.33331,85.107986 344.04515,65.948401 322.69554,46.854001 301.33331,27.778807 290.24835,17.880614 280.4116,5.642415 265.33332,2.6666665 c 19.39953,27.5215645 53.63836,49.6996225 78.66666,72.2253375 58.1875,52.369296 116.6807,104.413566 174.66666,157.008206 21.21008,19.23804 42.92195,37.93514 63.99999,57.31893 5.7454,5.28361 19.99927,13.62402 21.77983,21.5 1.04972,4.64323 -3.47547,10.66439 -5.45061,14.61417 -5.88944,11.77743 -12.34045,23.31153 -19.01029,34.66667 -18.96212,32.28214 -41.59208,61.30126 -66.2716,89.33333 -14.50077,16.47062 -30.99194,34.95589 -49.71399,46.66666 C 449.60324,461.42071 427.59543,428.92755 409.74485,395.99998 373.99933,330.06305 338.37297,263.88117 301.33331,198.66665 288.3064,175.73062 275.64944,152.52253 263.07817,129.33333 257.46515,118.9794 253.40475,106.53222 241.33332,102.66666 248.40158,68.403479 251.99998,34.999103 251.99998,0 h -7.99999 m 843.99991,0 c 0,57.381019 -6.3065,115.03645 -13.1265,171.99999 C 1047.2366,402.83445 965.97569,633.18909 799.98042,801.32816 733.02771,869.14562 652.3466,924.86502 566.66663,966.32196 390.24168,1051.6868 193.67176,1078.6666 0,1078.6666 v 9.3333 c 199.75009,0 408.4896,-30.3585 587.99996,-123.01127 C 666.76192,924.33637 741.57279,872.54178 803.98042,809.32816 1010.6565,599.98287 1094.6666,288.14891 1094.6666,0 h -6.6667 M 241.33332,103.99999 h 1.33333 c 55.15267,94.49235 104.15958,192.68057 157.89916,287.99999 14.44592,25.62312 28.34945,51.55216 42.50826,77.33332 4.11316,7.48951 16.04321,21.90308 15.27161,30.61418 -0.90251,10.18888 -27.6965,24.03686 -35.67904,29.38476 -39.84387,26.69328 -82.08121,47.55892 -126.66666,65.0638 -12.62874,4.95825 -25.74235,9.02157 -38.66666,13.1451 -3.35358,1.06999 -10.39972,4.32666 -13.29629,0.93514 -5.36578,-6.28279 -3.47454,-26.99145 -4.26338,-35.14298 -2.88304,-29.79191 -6.14193,-59.57202 -9.32819,-89.33333 -7.41787,-69.28662 -14.62648,-138.64143 -21.33848,-207.99999 -2.02315,-20.90633 -4.42556,-41.78173 -6.66152,-62.66666 -0.94596,-8.83569 -4.1522,-20.61328 -2.02264,-29.33333 2.58376,-10.58 14.37414,-21.01107 19.76133,-30.66667 8.64895,-15.50179 12.13275,-34.57495 21.14917,-49.33333 z"
       id="path1" />
  </g>
</svg>
