<?xml version="1.0" encoding="UTF-8" standalone="no"?>
<!-- Created with Inkscape (http://www.inkscape.org/) -->

<svg
   version="1.1"
   id="svg1"
   width="1333.3333"
   height="1333.3333"
   viewBox="0 0 1333.3333 1333.3333"
   sodipodi:docname="CurveDTR_B.svg"
   inkscape:version="1.4.2 (ebf0e940d0, 2025-05-08)"
   xmlns:inkscape="http://www.inkscape.org/namespaces/inkscape"
   xmlns:sodipodi="http://sodipodi.sourceforge.net/DTD/sodipodi-0.dtd"
   xmlns="http://www.w3.org/2000/svg"
   xmlns:svg="http://www.w3.org/2000/svg">
  <defs
     id="defs1" />
  <sodipodi:namedview
     id="namedview1"
     pagecolor="#505050"
     bordercolor="#eeeeee"
     borderopacity="1"
     inkscape:showpageshadow="0"
     inkscape:pageopacity="0"
     inkscape:pagecheckerboard="0"
     inkscape:deskcolor="#505050"
     showgrid="false"
     inkscape:zoom="0.59400004"
     inkscape:cx="666.66662"
     inkscape:cy="666.66662"
     inkscape:window-width="1920"
     inkscape:window-height="995"
     inkscape:window-x="0"
     inkscape:window-y="0"
     inkscape:window-maximized="1"
     inkscape:current-layer="g1" />
  <g
     inkscape:groupmode="layer"
     inkscape:label="Image"
     id="g1">
    <path
       style="fill:#ffff00;stroke:none"
       d="m 1328.5345,3.3669962 v 1.3334 C 1253.6495,58.532495 1184.0529,121.18199 1119.2012,186.03369 c -16.0301,16.0301 -30.9644,33.023 -46.681,49.3333 -7.188,7.4595 -17.8776,16.2188 -19.9856,26.6667 l 67.9999,10.5596 133.3334,21.5474 76,11.893 v 4 l -76,-11.6709 -132,-21.3333 -50.6667,-7.7829 -22.6666,-7.2129 h -1.3334 c -7.5289,13.0249 -19.6026,24.4053 -29.2253,36 -16.6429,20.0535 -32.57866,40.7537 -48.55449,61.33329 -39.50374,50.88745 -76.08068,106.77856 -106.22017,163.99999 51.36523,0.10815 103.42924,8.37191 154.66666,11.88069 65.1604,4.46224 131.1257,6.75065 196,14.40528 25.4966,3.00838 51.705,3.82991 77.3333,5.59472 10.932,0.75285 24.3732,-0.98803 32,8.11931 l -109.3333,-7.8807 -181.3333,-13.33333 -109.33336,-8 -64,-5.45264 -54.85184,110.66666 -65.14815,170.66666 c 111.38032,-8.79045 222.37657,-29.13965 333.33335,-42.45988 31.1447,-3.73885 62.1879,-8.27108 93.3333,-12 12.0708,-1.44523 33.3879,-0.24097 43.716,-6.85799 11.5184,-7.37964 19.7693,-31.10294 27.0175,-42.68213 15.0617,-24.06156 31.0224,-47.59423 47.5463,-70.66666 10.5798,-14.77262 22.0657,-26.6062 27.0535,-44 l 2.6667,2.66667 16,-14.66667 c -0.016,20.32268 -21.137,37.73552 -32.8354,53.33333 -27.3843,36.51245 -60.0884,76.27458 -77.8313,118.66666 l 6.6667,2.66667 c -15.3728,5.04622 -20.7707,20.87516 -27.6708,34.66667 -15.3292,30.63883 -29.733,61.50951 -42.463,93.33332 -37.8827,94.70385 -59.985,194.61419 -69.6399,295.99999 -3.2417,34.0416 -4.2263,68.4525 -4.2263,102.6667 0,16.4719 3.7893,36.0839 0,52 l 4,1.3333 v 1.3333 c -7.1273,-0.02 -13.3312,0.1811 -14.6667,-8 l 5.3334,1.3334 c -0,-37.7679 -2.4698,-75.5239 0.1193,-113.3334 6.5919,-96.2616 22.7958,-190.7108 52.7736,-282.66662 13.8435,-42.46436 31.5708,-83.46061 50.1852,-124 8.046,-17.52294 19.6683,-33.89949 26.2552,-51.99999 -31.8568,9.50455 -69.6396,9.36604 -102.6667,13.70882 -80.8659,10.6333 -161.85913,20.55175 -242.66662,31.62451 -29.28671,4.01302 -58.65613,8.27051 -88,11.79321 -8.55985,1.02759 -28.7976,-0.0203 -35.02982,6.32511 -4.42733,4.50782 -5.54769,14.62923 -7.24899,20.54834 -4.83638,16.82674 -9.63842,33.68262 -13.88993,50.66667 -16.40295,65.52709 -35.58854,136.24935 -38.49792,203.99995 11.51046,-1.0112 22.52738,-7.022 33.33333,-10.8477 23.16703,-8.202 46.2408,-16.6354 69.33333,-25.0813 71.1372,-26.0177 141.97659,-52.9082 213.33332,-78.32714 21.8317,-7.77702 43.7111,-15.80949 65.3333,-24.15837 14.4506,-5.57975 28.3191,-12.89013 44,-10.91878 v 1.33333 l -110.66663,40.92285 -163.99999,60.48141 -98.66666,36.496 -54.66667,19.4331 c 0,29.1395 -5.01318,58.9925 -7.77364,88 -2.01668,21.1914 -0.89274,42.92 -3.66052,64 -1.73869,13.2422 0.60702,26.7577 -1.13167,40 -0.51567,3.9274 -2.45569,12.0098 1.37036,14.9115 5.17647,3.9259 21.16638,-7.7004 25.86214,-10.3457 23.94079,-13.4867 49.25944,-24.7393 73.33333,-38.0844 67.11686,-37.2052 136.49812,-70.3859 203.99999,-106.893 17.66259,-9.5524 35.84686,-18.2979 53.33336,-28.1543 13.3736,-7.5381 27.0482,-16.7571 42.6666,-16.7675 v 1.3334 c -99.37106,58.0542 -204.394,108.8845 -306.66662,161.6779 -27.7264,14.3125 -55.20328,29.1809 -82.66048,44.0052 -9.96541,5.3804 -5.14741,17.9114 -17.33951,18.3169 0,-19.851 -11.24048,-23.5433 -26.66667,-33.7768 -19.82503,-13.1517 -40.19401,-25.4879 -59.99999,-38.6677 -53.77336,-35.7832 -108.5813,-70.0385 -162.66663,-105.3477 -40.0292,-26.1328 -79.52951,-55.0217 -121.33331,-78.2078 v -1.3334 c 15.1598,0.043 26.4157,10.21 38.6666,18.2079 22.60601,14.7581 45.39271,29.241 68.00001,44 54.0262,35.2706 108.64038,69.6469 162.66666,104.9176 32.78719,21.405 65.95345,48.1374 101.33333,64.8745 l 5.55969,-136 5.20679,-52 1.64298,-18.6615 -24.40946,-23.2335 -66.66666,-56.8786 L 401.8679,874.80111 328.53459,812.70028 v -1.33333 c 14.90031,1.22689 25.22431,13.36816 36.00001,22.66667 20.7664,17.91959 41.894,35.42179 62.6667,53.33333 49.93568,43.05802 100.66354,85.19921 150.66663,128.17385 30.20808,25.962 60.12922,56.5291 93.33332,78.4928 2.76978,-64.4993 20.24463,-132.23958 35.83126,-194.66665 4.79085,-19.18824 9.85421,-38.34855 15.40124,-57.33333 2.29842,-7.86638 7.71643,-18.38802 7.01648,-26.66667 -0.8219,-9.72095 -14.05542,-21.73917 -19.75105,-29.33333 -18.29476,-24.39298 -36.3735,-48.94238 -54.66667,-73.33333 C 607.4843,649.30267 560.57984,585.43003 513.03256,522.03364 490.56129,492.07197 469.86744,458.95267 444.5346,431.36697 c -28.5953,68.68188 -60.7188,135.02002 -85.7438,205.33332 -51.76121,145.43514 -82.69641,298.6424 -98.03081,452.00001 -6.0633,60.6381 -9.5587,121.704 -9.5587,182.6666 0,15.1105 0.072,30.223 0,45.3334 -0.03,6.229 0.3322,13.7028 -5.3322,17.3333 -6.3077,-33.9758 -2.4719,-74.9809 -0.1193,-109.3333 3.8746,-56.5782 5.8465,-112.8088 11.8981,-169.3334 29.3509,-274.16238 119.23001,-541.01002 261.0205,-777.33321 44.22525,-73.7106 93.35847,-144.7623 146.93411,-211.999995 11.80208,-14.8117 23.81221,-29.4513 35.93619,-43.999999 8.14368,-9.7724 13.4207,-18.6186998 26.99589,-18.6666998 -23.894,34.9438988 -54.55936,66.3785988 -80.465,100.0000038 -44.89111,58.26159 -86.23266,119.60649 -124.06786,182.66669 -14.20492,23.6754 -28.45426,47.473 -41.1451,71.99996 -3.28711,6.35278 -6.71883,23.64697 -12.98869,22.66666 l -22.66663,45.33333 c 11.45578,6.22746 19.12619,21.72111 26.83533,32 17.96265,23.95019 36.15357,47.76774 53.72949,71.99999 46.229,63.73682 94.28735,126.2445 141.4012,189.33333 l 40.86934,54.66666 c 7.14388,9.52523 16.85807,19.53157 21.16459,30.66666 h 2.66667 c 19.6514,-69.24877 49.11026,-136.06753 79.0782,-201.33332 8.95471,-19.50203 19.48083,-38.25309 29.24792,-57.33333 3.35335,-6.55086 11.30705,-15.87125 11.30762,-23.43416 7.3e-4,-9.62288 -9.92534,-22.5026 -13.73458,-31.2325 -12.5638,-28.79346 -27.04427,-56.78165 -40.15429,-85.33333 -45.14677,-98.32305 -96.16329,-194.79255 -137.74487,-294.66665 11.45479,3.9292 15.26778,17.7972 19.81482,28 10.7712,24.1688 22.33809,48.1809 33.86316,72 34.45682,71.2126 67.49263,143.13418 101.28087,214.66665 13.97347,29.58293 25.87228,61.06014 42.37447,89.33333 31.62992,-67.74568 79.92338,-130.57454 125.17488,-189.33328 13.99662,-18.1745 28.85508,-35.6002 43.39098,-53.3334 4.7157,-5.7529 14.6752,-13.6499 15.644,-21.3333 0.7609,-6.0343 -4.0399,-14.3489 -6.002,-20 -5.5943,-16.1114 -12.1096,-31.9044 -17.75,-48 -21.11906,-60.265 -45.32859,-119.513895 -65.7912,-179.9999938 6.91931,2.2346 8.01205,9.7160998 10.25619,15.9999998 5.26045,14.730199 10.87959,29.343899 16.34362,43.999999 22.98569,61.654795 44.38469,123.943495 68.06689,185.333295 25.5833,-29.284 53.6351,-54.8384 81.1553,-81.6172 8.1375,-7.9183 14.4419,-18.1664 22.8446,-26.3632 30.0087,-29.2736 62.1339,-57.053295 94.6667,-83.500995 21.5364,-17.508 52.4847,-53.8485988 81.3333,-53.8518988 M 315.20129,812.70028 l -1.3333,1.33334 1.3333,-1.33334 m 849.33321,6.66667 1.3334,2.66667 h -2.6667 l 1.3333,-2.66667 m -78.6666,238.66665 -1.3333,1.3333 z"
       id="path1" />
  </g>
</svg>
