<?xml version="1.0" encoding="UTF-8" standalone="no"?>
<!-- Created with Inkscape (http://www.inkscape.org/) -->

<svg
   version="1.1"
   id="svg1"
   width="1333.3333"
   height="1333.3333"
   viewBox="0 0 1333.3333 1333.3333"
   sodipodi:docname="CurveB_DTR.svg"
   inkscape:version="1.4.2 (ebf0e940d0, 2025-05-08)"
   xmlns:inkscape="http://www.inkscape.org/namespaces/inkscape"
   xmlns:sodipodi="http://sodipodi.sourceforge.net/DTD/sodipodi-0.dtd"
   xmlns="http://www.w3.org/2000/svg"
   xmlns:svg="http://www.w3.org/2000/svg">
  <defs
     id="defs1" />
  <sodipodi:namedview
     id="namedview1"
     pagecolor="#505050"
     bordercolor="#eeeeee"
     borderopacity="1"
     inkscape:showpageshadow="0"
     inkscape:pageopacity="0"
     inkscape:pagecheckerboard="0"
     inkscape:deskcolor="#505050"
     showgrid="false"
     inkscape:zoom="0.59400004"
     inkscape:cx="666.66663"
     inkscape:cy="666.66663"
     inkscape:window-width="1920"
     inkscape:window-height="995"
     inkscape:window-x="0"
     inkscape:window-y="0"
     inkscape:window-maximized="1"
     inkscape:current-layer="g1" />
  <g
     inkscape:groupmode="layer"
     inkscape:label="Image"
     id="g1">
    <path
       style="fill:#ffff00;stroke:none"
       d="m 249.33332,1330.6666 c 5.76835,-3.7254 5.30167,-12.3157 5.33231,-18.6667 0.075,-15.5547 0.001,-31.1117 0.001,-46.6666 0,-64.575 4.46983,-129.1036 10.89197,-193.3334 16.56284,-165.64986 54.9202,-329.56261 113.67488,-485.33327 14.90848,-39.52547 30.70601,-79.29508 49.11112,-117.33333 14.60168,-30.17757 33.54781,-60.56086 44.98868,-91.99999 l 34.66667,2.89299 97.33333,3.89298 326.66664,14.54736 c -11.68611,24.59391 -30.38053,47.44686 -44.76749,70.66666 -25.93717,41.86125 -50.26505,85.89941 -70.82096,130.66666 -11.36947,24.76083 -22.63273,49.5341 -33.17903,74.66667 -3.76718,8.97753 -6.65341,24.85204 -14.26547,31.24796 -7.8173,6.56844 -24.55476,6.81356 -34.30037,9.24992 -30.92016,7.73006 -62.17578,14.38981 -93.33333,21.11523 -74.75024,16.13509 -149.33234,33.12728 -223.99998,49.61938 -33.43701,7.38534 -67.36898,17.7146 -101.33333,22.10083 v 1.33333 c 12.56812,5.528 25.8466,0.0792 38.66667,-2.66666 27.59981,-5.91146 55.07486,-12.43107 82.66666,-18.38688 71.63691,-15.46306 143.08674,-31.78988 214.66665,-47.51229 37.85701,-8.31518 76.26725,-19.5966 114.66666,-24.76749 -26.8208,82.2871 -54.40592,162.84854 -71.46712,247.99998 -5.85693,29.23161 -10.72176,58.58556 -15.52775,87.99996 -1.69494,10.3737 -0.4967,28.0589 -6.323,36.8951 -5.99353,9.0898 -24.0122,15.4252 -33.34879,20.8168 -26.30786,15.1923 -52.60335,30.6521 -78.66666,46.2881 -67.39388,40.4311 -135.83857,79.3418 -203.99999,118.4671 -32.18455,18.4742 -63.72444,40.4895 -97.33333,56.1996 v 1.3333 c 17.4006,-0 30.74628,-10.5513 45.33333,-19.1955 23.85572,-14.1367 47.89685,-28.0519 72,-41.7633 98.9141,-56.2689 195.31216,-118.0075 295.99998,-171.0412 -9.8114,77.6345 -13.33333,155.1061 -13.33333,233.3334 17.25073,-0.5737 6.0828,-20.8958 5.41561,-30.6667 -0.53609,-7.8509 1.25106,-16.0615 1.25106,-24 0,-60.8846 10.7303,-120.7172 13.33333,-181.3333 95.44653,58.4277 193.32111,112.9114 289.33331,170.4002 26.10629,15.6315 52.34933,31.0933 78.66663,46.3672 13.2093,7.6664 25.5782,17.854 41.3334,17.8992 v -1.3333 l -4,-1.3333 c 3.7451,-15.7309 0,-35.6612 0,-52 0,-34.2316 0.9719,-68.6093 4.2263,-102.6667 10.7889,-112.9074 37.7589,-222.24649 82.2408,-326.66665 28.0611,-65.87272 64.0824,-129.88858 105.9248,-187.99999 12.3323,-17.12736 25.0863,-34.03979 38.1152,-50.64713 8.5245,-10.86581 17.4816,-18.91545 17.4929,-33.35287 l -14.6667,14.66667 c -41.6838,-107.47021 -83.8534,-214.82412 -124.5648,-322.66665 -10.2606,-27.17993 -20.7034,-54.33512 -31.4352,-81.33332 -2.799,-7.04151 -13.0677,-24.08155 -11.1173,-31.41463 1.2981,-4.88054 8.9788,-9.21835 12.4506,-12.6049 10.8815,-10.61418 21.9038,-21.00082 33.3334,-31.02678 43.5817,-38.229323 87.5414,-76.409984 134.6666,-110.2870167 V 0 c -20.4306,0.00227865 -35.3618,16.872964 -50.6666,29.067869 -35.2037,28.050373 -68.9314,57.558021 -102.6667,87.312821 -10.3332,9.11393 -26.4499,32.34009 -40,35.14298 -10.5944,2.19149 -25.2707,-3.46989 -36,-4.63582 -31.6485,-3.43921 -63.1457,-8.65129 -94.6667,-13.19344 C 934.67222,123.12792 861.28169,112.94352 787.99995,102.09667 749.27087,96.364171 708.47302,86.141189 669.33329,85.333328 v 1.333333 c 13.57243,8.817545 29.55607,8.892822 45.33333,11.228353 30.21598,4.472896 60.43677,8.776606 90.66666,13.132726 73.77572,10.63103 147.46907,22.06527 221.33332,32.01546 34.9811,4.71232 71.4321,14.89624 106.6667,15.62346 l -45.107,46.66666 -96.22221,111.99999 -37.53914,50.66667 -17.18514,21.2963 -35.94653,0.037 -101.33333,-3.8807 -158.66666,-5.50512 -163.99999,-6.61418 c 9.69389,-33.58504 36.21855,-67.47395 54.13375,-97.33333 C 568.21017,214.76 608.70736,155.04695 652.5658,98.666661 678.25846,65.638586 708.44144,34.453286 731.99996,0 718.42468,0.04801432 713.14791,8.8941238 705.00411,18.666666 692.54154,33.621743 680.03784,48.574623 668.15841,63.999996 615.90633,131.84895 566.22677,201.1765 522.13372,274.66665 380.36912,510.94658 290.45705,777.90401 261.11213,1051.9999 c -6.05058,56.5155 -8.02419,112.7616 -11.89816,169.3334 -2.35241,34.3525 -6.18837,75.3574 0.11935,109.3333 M 1146.6666,161.33332 c 10.7444,39.36304 29.5111,77.94344 44.252,116 25.2936,65.29996 49.7413,130.97403 75.748,195.99998 11.8488,29.62622 23.4214,59.44775 34.5998,89.33333 3.4188,9.1403 13.3588,24.90601 12.143,34.66667 -0.8689,6.97599 -9.4656,14.56502 -13.5823,20 -11.9256,15.74422 -23.2538,31.74137 -34.4598,47.99999 -34.496,50.04932 -64.934,103.44751 -90.2892,158.66666 -53.2714,116.01611 -84.9075,242.02885 -93.6255,369.33335 -3.022,44.1285 -1.4527,87.8769 -1.4527,132 -36.7872,-17.1757 -71.8411,-41.5054 -106.66663,-62.4003 -62.33455,-37.3999 -124.95767,-74.5425 -187.99998,-110.7335 -25.5236,-14.6524 -50.54525,-30.1937 -76,-44.9671 -7.15088,-4.1501 -24.01261,-10.1032 -27.17594,-18.146 -2.80937,-7.1429 1.74137,-20.3038 2.81486,-27.7531 3.46989,-24.08 7.32324,-48.1396 12.09464,-72.00003 18.71623,-93.59431 43.04508,-185.57624 77.59977,-274.66665 27.57243,19.42464 49.67171,53.60734 72.22534,78.66666 51.95125,57.72298 103.50243,115.81282 155.67484,173.33333 19.2425,21.215 38.0907,42.78479 57.3334,63.99999 8.2905,9.1403 15.5413,20.979 28.0997,24 C 1014.3404,970.35118 939.67353,886.41189 863.88577,803.99995 843.248,781.55838 823.48245,758.30611 802.69958,735.99996 c -6.52694,-7.00538 -22.50985,-19.5586 -23.85807,-29.33334 -0.78695,-5.70548 4.15397,-13.48852 6.22534,-18.66666 6.28466,-15.71114 13.18937,-31.1344 19.89192,-46.66667 26.41716,-61.21834 58.21305,-120.84642 93.64095,-177.33332 10.98234,-17.5105 22.01668,-34.99755 33.77775,-52 3.03808,-4.392 8.05118,-15.50496 15.10294,-12.50309 6.69393,2.84953 11.72331,19.56909 14.85701,25.83643 12.04916,24.09822 24.61296,47.90926 36.65837,71.99999 39.06161,78.12313 80.27341,155.19693 119.34161,233.33332 9.8255,19.6508 20.1513,39.0363 29.9917,58.66667 5.6598,11.29052 9.4169,23.07706 21.0042,29.33333 -22.2418,-38.1075 -40.4807,-79.24625 -60.3303,-118.66666 -30.5206,-60.61263 -62.3213,-120.62825 -92.6739,-181.33332 -14.0509,-28.10189 -28.61326,-55.89689 -42.66664,-84 -6.83895,-13.67602 -13.6246,-32.99284 -25.66252,-42.66666 6.71753,-21.04533 28.12703,-41.46094 41.6132,-58.66667 32.77096,-41.8094 66.37406,-83.48136 103.71496,-121.33332 11.6967,-11.85677 22.875,-24.20321 34.6718,-36 5.6209,-5.62085 10.8235,-12.46525 18.6667,-14.66667 m -58.6667,893.33328 1.3334,1.3333 z"
       id="path1" />
  </g>
</svg>
