<?xml version="1.0" encoding="UTF-8" standalone="no"?>
<!-- Created with Inkscape (http://www.inkscape.org/) -->

<svg
   version="1.1"
   id="svg1"
   width="1333.3333"
   height="1333.3333"
   viewBox="0 0 1333.3333 1333.3333"
   sodipodi:docname="CurveDBR_T.svg"
   inkscape:version="1.4.2 (ebf0e940d0, 2025-05-08)"
   xmlns:inkscape="http://www.inkscape.org/namespaces/inkscape"
   xmlns:sodipodi="http://sodipodi.sourceforge.net/DTD/sodipodi-0.dtd"
   xmlns="http://www.w3.org/2000/svg"
   xmlns:svg="http://www.w3.org/2000/svg">
  <defs
     id="defs1" />
  <sodipodi:namedview
     id="namedview1"
     pagecolor="#505050"
     bordercolor="#eeeeee"
     borderopacity="1"
     inkscape:showpageshadow="0"
     inkscape:pageopacity="0"
     inkscape:pagecheckerboard="0"
     inkscape:deskcolor="#505050"
     showgrid="false"
     inkscape:zoom="0.59400004"
     inkscape:cx="666.66663"
     inkscape:cy="666.66663"
     inkscape:window-width="1920"
     inkscape:window-height="995"
     inkscape:window-x="0"
     inkscape:window-y="0"
     inkscape:window-maximized="1"
     inkscape:current-layer="g1" />
  <g
     inkscape:groupmode="layer"
     inkscape:label="Image"
     id="g1">
    <path
       style="fill:#ffff00;stroke:none"
       d="m 659.99996,0 c 0,19.85091 -11.24056,23.543211 -26.66667,33.776772 C 613.5083,46.928464 593.13921,59.264563 573.3333,72.444413 519.56003,108.22786 464.75209,142.48315 410.66664,177.79214 c -40.02925,26.13257 -79.52925,55.02214 -121.33332,78.20784 v 1.33334 c 15.15997,-0.0435 26.41568,-10.20996 38.66666,-18.20785 22.60616,-14.75813 45.3927,-29.24112 68,-43.99999 C 450.02642,159.85497 504.64002,125.47843 558.66663,90.20784 591.4539,68.803056 624.62008,42.07031 659.99996,25.333332 l 5.55969,135.999988 5.20679,52 1.64298,18.66154 -24.40946,23.23348 -66.66666,56.87866 -175.99999,149.79214 -73.33333,62.10083 v 1.33333 c 14.90031,-1.22689 25.2244,-13.36816 36,-22.66666 20.76627,-17.91976 41.89412,-35.42171 62.66666,-53.33333 49.93563,-43.05819 100.66369,-85.19897 150.66666,-128.17382 30.2078,-25.962 60.12931,-56.52914 93.33333,-78.49284 2.76981,64.4991 20.24454,132.23966 35.83129,194.66666 4.79094,19.18823 9.85417,38.34863 15.40121,57.33333 2.29842,7.86637 7.71655,18.38826 7.01652,26.66666 -0.82203,9.72087 -14.05542,21.73918 -19.75106,29.33333 -18.29476,24.39307 -36.37349,48.94238 -54.66671,73.33333 -47.54829,63.3977 -94.45291,127.2705 -141.99999,190.66666 -22.47131,29.96175 -43.16511,63.08089 -68.49792,90.66666 -28.5948,-68.68196 -60.71903,-135.02001 -85.74381,-205.33332 -51.76072,-145.43465 -82.69714,-298.64273 -98.03088,-451.99998 -6.06304,-60.63826 -9.55863,-121.70393 -9.55863,-182.666651 0,-15.110594 0.0719,-30.223061 -0.001,-45.33333 -0.03,-6.229085 0.33208,-13.7027989 -5.33231,-17.3333325 -6.30778,33.9758285 -2.47176,74.9808715 -0.11935,109.3333235 3.87441,56.57812 5.8466,112.80875 11.89816,169.33333 29.35209,274.1629 119.23009,541.00851 261.02159,777.33328 44.51476,74.193 93.99344,145.7183 147.99999,213.3333 11.46439,14.3532 23.11055,28.5549 34.8704,42.6667 8.14371,9.7724 13.42065,18.6187 26.99585,18.6667 -23.8938,-34.944 -54.55949,-66.3787 -80.46501,-100 -44.89111,-58.2618 -86.23266,-119.6065 -124.0679,-182.6667 -14.20496,-23.6755 -28.45418,-47.4731 -41.14506,-71.99999 -3.28707,-6.3527 -6.71887,-23.64706 -12.98869,-22.66667 l -22.66666,-45.33333 c 11.45573,-6.22737 19.1263,-21.72119 26.83541,-32 17.96264,-23.95019 36.15348,-47.76773 53.7294,-71.99999 46.229,-63.73682 94.28755,-126.24466 141.40124,-189.33332 l 40.8693,-54.66667 c 7.14396,-9.52531 16.85799,-19.53141 21.16463,-30.66666 h 2.66667 c 19.65096,69.24869 49.11002,136.06778 79.0782,201.33332 8.95483,19.50203 19.48087,38.25309 29.24796,57.33333 3.35336,6.55086 11.30697,15.87125 11.30754,23.43416 7.3e-4,9.62297 -9.92529,22.50252 -13.73454,31.2325 -12.56372,28.79329 -27.04419,56.78182 -40.15429,85.33333 -45.14714,98.32279 -96.16373,194.79259 -137.74487,294.66669 11.4548,-3.9293 15.26766,-17.7972 19.81478,-28 10.77124,-24.1687 22.33805,-48.181 33.8632,-72 34.45695,-71.2126 67.49243,-143.13422 101.28083,-214.66669 13.97356,-29.583 25.87248,-61.05997 42.37451,-89.33333 31.62866,67.74552 79.92334,130.57552 125.17488,189.33332 13.99681,18.1745 28.85501,35.6003 43.39091,53.3333 4.7157,5.753 14.6753,13.6499 15.6441,21.3334 0.7608,6.0342 -4.0398,14.3488 -6.0021,20 -5.5943,16.1115 -12.1095,31.9044 -17.75,48 -21.1191,60.2649 -45.32848,119.5139 -65.79113,180 6.91936,-2.2347 8.01205,-9.7159 10.25619,-16 5.2605,-14.7303 10.87956,-29.3438 16.34359,-44 22.98565,-61.6548 44.38575,-123.9431 68.06685,-185.3334 25.5833,29.2843 53.635,54.8386 81.1554,81.6173 8.1374,7.9182 14.442,18.1663 22.8446,26.3632 30.0087,29.2735 62.1339,57.0535 94.6667,83.501 21.5364,17.5079 52.4847,53.8487 81.3333,53.8519 v -1.3334 c -74.8845,-53.8331 -144.4815,-116.4815 -209.3333,-181.3333 -16.0302,-16.0302 -30.9643,-33.0231 -46.6811,-49.3333 -7.188,-7.4595 -17.8776,-16.2189 -19.9856,-26.6667 l 68,-10.5596 133.3334,-21.5474 76,-11.893 v -4 l -76,11.6707 -132,21.3334 -50.6667,7.7829 -22.6667,7.213 h -1.3333 c -7.5289,-13.025 -19.6026,-24.4054 -29.2253,-36 -16.6429,-20.0535 -32.57881,-40.75366 -48.55448,-61.33333 -39.50349,-50.88785 -76.08064,-106.77847 -106.22021,-163.99999 51.36515,-0.10774 103.42936,-8.3719 154.66669,-11.88069 65.1605,-4.46224 131.1255,-6.75082 196,-14.40527 25.4966,-3.00831 51.705,-3.82976 77.3333,-5.59473 10.932,-0.75277 24.3734,0.98812 32,-8.1193 l -109.3333,7.88069 -181.3334,13.33333 -109.33329,8 -64,5.45264 -54.85188,-110.66666 -65.14811,-170.66666 c 111.38028,8.79102 222.37613,29.1399 333.33328,42.45988 31.1448,3.73877 62.1879,8.27108 93.3334,12 12.0708,1.44515 33.3878,0.24097 43.716,6.85799 11.5183,7.37948 19.7695,31.10303 27.0175,42.68213 15.0616,24.06156 31.0223,47.59431 47.5463,70.66666 10.5798,14.77246 22.0659,26.6062 27.0535,44 l 2.6667,-2.66667 16,14.66667 c -0.016,-20.32267 -21.137,-37.73551 -32.8354,-53.33333 -27.3844,-36.51249 -60.0883,-76.27449 -77.8313,-118.66666 l 6.6667,-2.66667 c -15.3728,-5.04622 -20.7708,-20.87532 -27.6709,-34.66666 -15.546,-31.07219 -30.0883,-62.39315 -42.9958,-94.66666 -37.6813,-94.21663 -59.5034,-193.82071 -69.107,-294.66665 -3.2418,-34.04159 -4.2263,-68.452636 -4.2263,-102.666663 0,-16.472005 3.7892,-36.083983 0,-51.9999972 l 4,-1.3333333 V 1.3333333 c -7.1272,0.020508 -13.3312,-0.1811524 -14.6667,7.9999995 l 5.3333,-1.3333333 c -0,37.7679825 -2.4699,75.5238395 0.1193,113.3333305 6.5922,96.26171 22.7961,190.7106 52.7737,282.66665 13.8434,42.46435 31.5707,83.46068 50.1852,123.99999 8.0461,17.52295 19.668,33.89957 26.2552,51.99999 -31.8566,-9.5048 -69.6398,-9.36596 -102.6667,-13.70882 -80.866,-10.63346 -161.85888,-20.55273 -242.66665,-31.62451 -29.28678,-4.01269 -58.65609,-8.27058 -88,-11.79321 -8.55973,-1.02759 -28.79768,0.0203 -35.02978,-6.32511 -4.42741,-4.50781 -5.54777,-14.62915 -7.24902,-20.54834 -4.83635,-16.82674 -9.63843,-33.68253 -13.8899,-50.66666 -16.40274,-65.5271 -35.58853,-136.24926 -38.49796,-203.99999 11.51042,1.01131 22.52743,7.02205 33.33333,10.84774 23.16708,8.2019 46.2408,16.63549 69.33333,25.08129 71.1372,26.01758 141.9768,52.90771 213.33332,78.32715 21.83173,7.77718 43.71103,15.80957 65.33333,24.15844 14.4506,5.57975 28.3191,12.88989 44,10.9187 v -1.33333 L 995.99994,348.41046 831.99995,287.92902 733.33329,251.43309 678.66663,231.99999 c 0,-29.13941 -5.01319,-58.99259 -7.77365,-88 -2.01668,-21.19157 -0.89274,-42.92 -3.66052,-63.999995 -1.73869,-13.242268 0.60702,-26.757729 -1.13167,-39.999997 -0.51567,-3.927409 -2.45573,-12.009765 1.37036,-14.911539 5.17643,-3.925863 21.16642,7.700439 25.86214,10.345702 23.94075,13.486816 49.25936,24.739419 73.33333,38.084389 67.11694,37.20499 136.49828,70.38623 203.99999,106.89298 17.66259,9.55241 35.84679,18.29785 53.33329,28.15429 13.3737,7.53817 27.0482,16.75716 42.6667,16.7675 -8.4132,-8.50415 -21.622,-12.7286 -32,-18.48144 -23.6641,-13.11776 -47.83186,-25.67928 -71.99999,-37.8488 C 893.69054,134.27123 825.265,97.661127 757.33329,60.92179 730.76403,46.552406 703.92224,32.669106 677.33948,18.316893 667.37398,12.936441 672.19214,0.40543617 659.99996,0 m 427.99994,277.33332 1.3334,1.33333 -1.3334,-1.33333 m 78.6667,237.33332 v 2.66666 l 2.6667,-2.66666 h -2.6667 m -849.33329,7.99999 1.33334,1.33334 z"
       id="path1" />
  </g>
</svg>
