<?xml version="1.0" encoding="UTF-8" standalone="no"?>
<!-- Created with Inkscape (http://www.inkscape.org/) -->

<svg
   version="1.1"
   id="svg1"
   width="1333.3333"
   height="1333.3333"
   viewBox="0 0 1333.3333 1333.3333"
   sodipodi:docname="CurveDTL_R.svg"
   inkscape:version="1.4.2 (ebf0e940d0, 2025-05-08)"
   xmlns:inkscape="http://www.inkscape.org/namespaces/inkscape"
   xmlns:sodipodi="http://sodipodi.sourceforge.net/DTD/sodipodi-0.dtd"
   xmlns="http://www.w3.org/2000/svg"
   xmlns:svg="http://www.w3.org/2000/svg">
  <defs
     id="defs1" />
  <sodipodi:namedview
     id="namedview1"
     pagecolor="#505050"
     bordercolor="#eeeeee"
     borderopacity="1"
     inkscape:showpageshadow="0"
     inkscape:pageopacity="0"
     inkscape:pagecheckerboard="0"
     inkscape:deskcolor="#505050"
     showgrid="false"
     inkscape:zoom="0.59400004"
     inkscape:cx="666.66663"
     inkscape:cy="666.66663"
     inkscape:window-width="1920"
     inkscape:window-height="995"
     inkscape:window-x="0"
     inkscape:window-y="0"
     inkscape:window-maximized="1"
     inkscape:current-layer="g1" />
  <g
     inkscape:groupmode="layer"
     inkscape:label="Image"
     id="g1">
    <path
       style="fill:#ffff00"
       d="m 1197.3333,1082.5621 c -55.5917,-2.622 -90.9777,-5.457 -150,-12.0171 -192.18213,-21.3605 -390.08811,-74.71639 -560.66666,-151.15696 -7.7,-3.45056 -18.2,-7.96179 -23.33333,-10.02494 -19.94525,-8.01626 -95.18486,-46.16464 -133.42,-67.64731 C 218.67964,779.21841 110.68527,704.32484 14.666666,623.09379 2.7259736,612.99206 0.60383349,610.60018 0.23950164,606.83285 c -0.4169113,-4.31102 0.14318337,-3.94024 23.33333236,15.44653 13.068273,10.92496 29.460496,24.40122 36.427162,29.94725 6.966667,5.54602 13.866666,11.43573 15.333333,13.08823 1.466666,1.65251 5.966666,5.11897 9.999999,7.70326 4.033333,2.58429 14.533333,10.18167 23.333332,16.88308 58.73147,44.72541 138.48147,97.50166 206.38007,136.57637 24.20982,13.93242 56.014,31.08472 58.53998,31.57118 1.35275,0.26051 3.35661,1.37074 4.45304,2.46716 2.33402,2.33402 41.07435,22.1507 43.30319,22.1507 0.8328,0 2.2763,-0.75 3.20779,-1.66666 0.93149,-0.91667 3.69558,-3.16667 6.14243,-5 2.44685,-1.83334 5.99186,-4.56436 7.87781,-6.06895 1.88595,-1.50458 7.629,-5.66904 12.76234,-9.25435 5.13333,-3.58531 12.41492,-8.95429 16.18131,-11.93106 3.76638,-2.97677 10.96638,-8.40361 16,-12.05966 5.03361,-3.65604 10.05202,-7.3726 11.15202,-8.25902 1.1,-0.88643 5.9,-4.47663 10.66666,-7.97823 4.76667,-3.50161 8.96667,-6.70025 9.33334,-7.10809 0.36666,-0.40784 5.16666,-4.02099 10.66666,-8.02922 5.5,-4.00823 10.6,-7.77732 11.33333,-8.37576 0.73334,-0.59844 7.03334,-5.26874 14,-10.37843 6.96667,-5.10969 13.56667,-10.0276 14.66667,-10.92867 2.68977,-2.20335 62.39799,-46.84643 101.99999,-76.2641 38.40871,-28.53126 45.97356,-34.18463 48.63608,-36.34673 1.11682,-0.90692 12.23059,-9.18371 24.69725,-18.39287 12.46667,-9.20915 24.16667,-17.87033 26,-19.24706 1.83333,-1.37673 7.23333,-5.38146 12,-8.89938 4.76667,-3.51793 8.96667,-6.74363 9.33333,-7.16823 0.36667,-0.42459 2.76667,-2.22604 5.33333,-4.00321 8.26317,-5.72145 11.42698,-9.10334 9.25805,-9.89619 -1.05859,-0.38697 -16.02471,-5.46506 -33.25804,-11.28466 -37.29569,-12.59453 -44,-15.3492 -44,-18.07873 0,-2.58054 -0.13638,-2.59302 8.28397,0.75815 17.90744,7.12689 73.07874,24.89228 73.78007,23.7575 0.4291,-0.69429 0.16599,-5.605 -0.58468,-10.91269 -0.75067,-5.30769 -1.67028,-12.35034 -2.04357,-15.65034 -1.31357,-11.61227 -2.01021,-18.07803 -2.80129,-26 -0.87034,-8.7158 -1.74163,-15.47342 -2.66462,-20.66667 -0.32584,-1.83333 -0.92533,-6.63333 -1.33221,-10.66666 -0.40687,-4.03334 -2.46894,-20.53334 -4.58237,-36.66667 -2.11344,-16.13333 -4.17564,-32.33333 -4.58267,-36 -0.65892,-5.93572 -2.7956,-22.21973 -4.11134,-31.33333 -1.10505,-7.65415 -1.97647,-14.39185 -2.67293,-20.66666 -0.40697,-3.66667 -1.00487,-8.16667 -1.32865,-10 -0.90185,-5.10651 -1.77976,-11.86613 -2.68408,-20.66667 -0.93356,-9.08505 -3.22544,-27.67624 -4.02709,-32.66666 -0.2945,-1.83334 -1.76466,-12.93334 -3.26704,-24.66667 -1.50237,-11.73333 -3.02781,-23.58333 -3.38988,-26.33333 -0.36206,-2.75 -0.95829,-7.4 -1.32496,-10.33333 -0.36666,-2.93334 -0.96666,-7.73334 -1.33333,-10.66667 -1.09823,-8.78584 -2.01527,-15.28397 -2.54775,-18.05337 -0.27636,-1.43731 -0.92987,-6.51329 -1.45225,-11.27996 -0.52238,-4.76667 -1.12238,-9.56667 -1.33333,-10.66667 -0.21096,-1.1 -0.78843,-5.9 -1.28328,-10.66666 -0.49485,-4.76667 -1.12253,-10.16667 -1.39484,-12 -0.27231,-1.83333 -2.03877,-15.33333 -3.92547,-30 -4.84382,-37.65444 -3.71077,-34.97915 -18.40109,-43.44788 -35.36227,-20.385796 -88.6648,-55.820037 -117.99531,-78.440466 -10.45,-8.059301 -19,-14.298106 -19,-13.864011 0,0.434095 -2.55985,-1.844039 -5.68856,-5.062518 -3.1287,-3.2184804 -7.7787,-7.4696392 -10.33333,-9.4470201 l -4.64478,-3.595238 4.41425,-0.07142845 c 3.59047,-0.05809866 6.92334,1.96050695 17.85936,10.81681055 23.65556,19.156955 61.87903,47.298968 85.47821,62.933295 23.4583,15.540993 60.3976,38.178456 62.29873,38.178456 0.5833,0 1.66318,-1.65 2.39973,-3.66666 l 1.33918,-3.66667 0.10527,4.32497 c 0.0851,3.49509 1.18675,5.1084 5.74152,8.40786 7.3334,5.31228 69.52807,36.05978 94.36373,46.65108 97.97865,41.78349 195.59649,67.046 303.33329,78.49955 44.1606,4.69473 66.6088,5.80414 121.7566,6.0173 47.1509,0.18225 53.9044,-0.0446 54.9595,-1.84649 0.895,-1.52855 1.2132,-0.96032 1.2434,2.22037 l 0.041,4.27464 -60.3333,-0.41526 c -41.9744,-0.28889 -68.4478,-1.10157 -87,-2.67072 -128.7852,-10.89268 -239.75088,-39.01967 -352.66665,-89.39209 -24.05704,-10.73199 -71.00797,-34.158 -73.93333,-36.88879 -0.69667,-0.65033 -2.38368,-1.18242 -3.74891,-1.18242 -2.05005,0 -2.36472,0.7545 -1.80726,4.33333 0.37124,2.38334 1.63695,11.83333 2.81268,21 1.17574,9.16667 2.38798,18.16667 2.69387,20 0.30589,1.83333 1.74049,12.93333 3.188,24.66666 3.03382,24.59177 12.0096,94.39078 12.77373,99.33333 0.28344,1.83334 0.89299,6.63334 1.35456,10.66667 0.46156,4.03333 1.06678,8.83333 1.34493,10.66666 0.5914,3.89795 3.25958,23.90514 4.08975,30.66667 0.31513,2.56667 2.97438,23.26666 5.90945,46 2.93506,22.73333 5.58945,43.43333 5.89865,45.99999 0.84838,7.04257 3.50211,26.88461 4.10144,30.66667 0.29053,1.83333 1.48562,10.83333 2.65577,20 1.17015,9.16666 2.34572,18.16666 2.61236,20 0.26665,1.83333 0.86797,6.93333 1.33627,11.33333 0.4683,4.4 1.69547,13.4 2.72705,20 1.82387,11.6691 4.9892,34.49603 6.65598,47.99999 0.45257,3.66667 1.25373,7.10231 1.78035,7.63475 1.37836,1.39361 48.37419,14.72475 79.38126,22.51781 57.34584,14.41281 130.94045,28.63833 182.17335,35.21334 7.9736,1.0233 12,2.62134 12,4.76271 0,1.52644 -0.1231,1.51287 -39.3333,-4.33467 -69.19043,-10.3186 -142.96202,-26.40632 -209.6074,-45.7101 -14.08407,-4.07945 -26.90619,-7.41717 -28.4936,-7.41717 -2.18958,0 -25.12495,15.7183 -29.23231,20.03378 -0.36667,0.38524 -5.16557,3.98524 -10.66423,8 -5.49865,4.01475 -10.89865,8.01611 -12,8.89191 -1.10134,0.8758 -5.90244,4.45731 -10.66911,7.95892 -4.76666,3.5016 -8.96666,6.71394 -9.33333,7.13854 -0.36667,0.4246 -2.76666,2.23454 -5.33333,4.02209 -2.56667,1.78756 -5.56667,3.96577 -6.66667,4.84049 -1.1,0.87471 -12.79749,9.58326 -25.99442,19.35232 -13.19693,9.76907 -24.89693,18.47851 -25.99999,19.3543 -1.10307,0.8758 -5.90558,4.47551 -10.67225,7.99935 -4.76667,3.52385 -9.56667,7.11895 -10.66667,7.98911 -2.10913,1.66846 -14.98746,11.25376 -63.99999,47.63502 -16.5,12.2477 -30.91377,22.98456 -32.03059,23.85969 -2.46571,1.93209 -11.2991,8.49581 -33.30274,24.74586 -9.16667,6.76973 -20.56667,15.25482 -25.33333,18.85576 -4.76667,3.60093 -12.56667,9.4032 -17.33334,12.89391 -4.76666,3.49072 -8.96666,6.68374 -9.33333,7.0956 -0.5784,0.64969 -9.46885,7.30707 -20.08005,15.0364 -18.46938,13.45334 -25.25328,18.7859 -25.25328,19.85061 0,1.4059 47.87238,24.94876 72.66666,35.73629 242.27489,105.40922 511.1015,160.03862 787.5576,160.04282 37.5145,5e-4 43.1855,0.3861 41.673,2.8334 -0.8726,1.4119 -99.8861,1.2077 -131.2306,-0.2707 z m -121.3334,-43.7487 c 0,-1.6046 4.5702,-9.9441 10.156,-18.5322 19.9593,-30.6872 25.9389,-39.91887 40.3413,-62.28126 8.0291,-12.46666 19.6624,-30.46666 25.8518,-40 13.4106,-20.65607 28.5104,-43.98012 37.9802,-58.66666 24.9461,-38.68835 37.6765,-58.36873 48.7296,-75.33333 6.928,-10.63333 19.9694,-30.73333 28.9808,-44.66666 24.1658,-37.36503 33.2336,-51.33062 37.4859,-57.73351 2.0943,-3.15343 3.8078,-6.24196 3.8078,-6.86341 0,-0.62144 -7.95,-1.47381 -17.6667,-1.89415 -91.71,-3.96736 -100.2926,-4.48905 -147,-8.93532 -15.4,-1.46599 -29.65,-3.31756 -31.6667,-4.11461 -5.9225,-2.34077 -4.4067,-4.23066 2.6667,-3.32479 37.1193,4.75372 113.0594,10.07848 158.6276,11.12264 32.9851,0.75582 36.3713,0.63085 37.1393,-1.37075 0.5127,-1.33599 -1.6959,-7.05761 -5.6141,-14.54425 -3.5526,-6.78801 -8.7789,-17.14185 -11.6141,-23.00851 -2.8352,-5.86667 -9.8099,-19.36667 -15.4995,-30 -5.6896,-10.63333 -15.1698,-28.63333 -21.0673,-40 -11.8301,-22.80122 -15.249,-29.3108 -25.21,-47.99999 -3.7131,-6.96667 -10.6445,-20.16667 -15.4031,-29.33334 -13.1701,-25.3698 -24.7566,-47.49039 -30.7064,-58.62358 -7.1167,-13.31669 -14.8732,-28.03404 -24.6174,-46.70974 -4.4001,-8.43334 -9.7872,-18.63334 -11.9712,-22.66667 -2.184,-4.03333 -9.2768,-17.53333 -15.7619,-30 -6.485,-12.46666 -14.9948,-28.64764 -18.9107,-35.95772 -3.951,-7.37564 -6.7741,-14.19184 -6.3431,-15.31498 0.8728,-2.27461 2.6533,0.85807 24.2154,42.60604 7.7645,15.03333 14.5545,27.93333 15.0889,28.66666 0.9941,1.36421 7.3079,13.36272 39.2905,74.66666 5.7388,11 13.9418,26.47243 18.2289,34.38318 4.2872,7.91075 7.7949,14.62359 7.7949,14.91742 0,0.29383 3.8048,7.6214 8.4551,16.28349 4.6503,8.66208 12.5265,23.54924 17.5028,33.08258 4.9762,9.53333 11.6093,22.13333 14.7402,27.99999 3.1308,5.86667 8.2191,15.46667 11.3071,21.33334 3.0881,5.86666 8.9516,16.96666 13.0299,24.66666 4.0783,7.7 9.6131,18.2 12.2994,23.33333 2.6863,5.13334 7.2691,13.53334 10.1841,18.66667 2.915,5.13333 7.6658,14.13333 10.5573,20 2.8916,5.86666 5.454,10.9633 5.6944,11.32586 0.2403,0.36255 3.8403,0.96255 8,1.33333 6.5839,0.58687 7.6181,1.0625 7.9891,3.67414 0.3931,2.76822 -0.089,3 -6.2466,3 -3.6699,0 -8.1115,0.54707 -9.8702,1.21572 -2.1644,0.8229 -9.8137,11.48587 -23.6734,33 -11.2617,17.48135 -25.3401,39.28427 -31.2854,48.45094 -5.9453,9.16667 -14.3814,22.21953 -18.7468,29.00637 -4.3654,6.78683 -13.937,21.536 -21.2704,32.77594 -7.3333,11.23993 -19.3069,29.68706 -26.608,40.99363 -7.301,11.30656 -17.5592,27.15739 -22.796,35.22405 -5.2368,8.06667 -13.4099,20.66667 -18.1626,28 -37.6164,58.04184 -54.4753,84.06079 -65.5714,101.19889 -8.0671,12.4598 -12.862,18.7779 -12.862,16.9479 z M 809.33328,995.513 c 0,-1.29448 10.05,-14.11249 22.33334,-28.48446 12.28333,-14.37198 33.31118,-39.08286 46.72855,-54.91306 13.41738,-15.83021 25.4724,-29.9822 26.78894,-31.44887 5.25623,-5.8556 27.80515,-32.43664 32.81583,-38.68385 2.93334,-3.65721 6.03849,-7.24948 6.90034,-7.98281 0.86185,-0.73333 3.76627,-4.03333 6.45426,-7.33333 11.51133,-14.13226 14.75833,-18.02609 16.6454,-19.96132 1.1,-1.12808 6.4835,-7.44827 11.96333,-14.04486 9.42156,-11.34165 61.73463,-72.74808 96.39093,-113.14623 13.5618,-15.80871 15.754,-18.99466 15.1383,-22 -0.3961,-1.93284 -0.3926,-2.76051 0.01,-1.83928 1.0239,2.35717 3.1665,0.69042 3.1665,-2.46334 0,-1.44704 -1.7623,-7.26163 -3.9163,-12.92131 -2.154,-5.65967 -7.0048,-19.29032 -10.7797,-30.29032 -5.9452,-17.32418 -15.0777,-42.18058 -18.6155,-50.66666 -0.6114,-1.46667 -3.334,-8.96667 -6.0502,-16.66667 -4.7249,-13.39456 -13.6188,-37.61811 -28.6386,-77.99999 -3.8186,-10.26667 -9.3016,-25.23155 -12.1845,-33.25529 -5.4663,-15.21446 -18.33745,-49.99131 -28.65035,-77.41137 -3.30975,-8.8 -6.23393,-16.9 -6.49818,-18 -0.26424,-1.1 -3.18842,-9.2 -6.49817,-18 -3.30975,-8.8 -9.98931,-26.8 -14.84347,-40 -4.85416,-13.2 -10.28808,-27.75631 -12.07538,-32.34736 -1.7873,-4.59105 -3.21536,-10.59104 -3.17346,-13.33333 0.0676,-4.4256 0.52498,-3.71223 4.06952,6.34736 3.41885,9.70291 9.49007,26.00742 13.15687,35.33333 0.57667,1.46667 2.67132,7.16667 4.65477,12.66667 5.64474,15.65253 8.87579,24.43676 10.05386,27.33333 0.97095,2.38729 6.53627,17.44971 13.30143,36 1.33721,3.66667 5.55652,15.06666 9.37625,25.33333 3.81971,10.26667 9.29081,25.26667 12.15801,33.33333 2.8673,8.06667 6.9621,19.16667 9.0996,24.66667 2.1376,5.5 6.0531,16 8.7011,23.33333 5.5789,15.44998 8.2151,22.59116 13.782,37.33333 4.3124,11.42018 16.9678,45.57943 22.9699,62 2.0104,5.5 5.5575,15.1 7.8825,21.33333 2.3249,6.23333 5.1614,14.03333 6.3032,17.33333 1.1419,3.3 4.9494,13.2 8.4611,22 8.6332,21.63418 13.287,35.20147 13.287,38.73584 0,1.6157 -1.0079,3.7611 -2.2399,4.76756 -2.1192,1.73125 -42.9869,49.1914 -54.4267,63.20633 -2.9334,3.59363 -6.2334,7.4814 -7.3334,8.63949 -1.1,1.15808 -4.9804,5.67827 -8.6232,10.04486 -3.6428,4.36658 -7.6565,9.13924 -8.9193,10.60591 -1.2628,1.46667 -6.122,7.16667 -10.7983,12.66667 -4.6763,5.5 -22.58154,26.5 -39.78944,46.66666 -68.27713,80.01685 -110.47659,129.50516 -125.06497,146.66666 -12.6512,14.88264 -27.22564,31.95713 -32.37912,37.93333 -0.63335,0.73446 -1.09229,0.27778 -1.09229,-1.08694 z M 110.97609,662.66663 c 0.91595,-1.46667 2.15076,-2.66667 2.74402,-2.66667 0.59327,0 16.49894,-7.27434 35.34594,-16.16519 53.69991,-25.33231 57.68996,-27.20964 67.6006,-31.8062 5.13334,-2.38085 14.73334,-6.89835 21.33334,-10.03889 15.87889,-7.55582 34.12035,-16.11915 43.99999,-20.65549 4.4,-2.02031 14.9,-6.96971 23.33333,-10.99867 8.43334,-4.02897 20.13334,-9.55886 26,-12.28866 5.86667,-2.7298 16.06667,-7.528 22.66667,-10.66266 10.74627,-5.10392 57.23999,-26.95948 87.33333,-41.05324 6.23333,-2.91929 16.73333,-7.83882 23.33333,-10.93228 6.6,-3.09346 20.25,-9.43273 30.33333,-14.08727 10.08333,-4.65454 18.31673,-9.10374 18.29643,-9.88712 -0.0203,-0.78337 -9.7703,-7.04869 -21.66667,-13.92292 -38.07229,-21.9998 -77.9814,-48.05324 -82.66261,-53.96375 -5.68294,-7.17529 -3.71418,-6.23617 19.84773,9.46758 28.36637,18.90586 88.30967,54.99477 91.34573,54.99477 0.645,0 1.23224,-2.25 1.30498,-5 0.0727,-2.75 0.2805,-6.5 0.46168,-8.33333 0.18118,-1.83333 0.75311,-9.63333 1.27095,-17.33333 0.51783,-7.7 1.17385,-14.9 1.45781,-16 0.28396,-1.1 0.82784,-6.2 1.20863,-11.33334 0.65823,-8.87371 2.70723,-37.16702 4.15207,-57.33332 0.36778,-5.13334 0.94162,-12.33334 1.27519,-16 0.33357,-3.66667 0.94073,-11.46667 1.34925,-17.33334 2.9607,-42.51859 4.4929,-63.03512 5.32727,-71.33333 0.33181,-3.29999 0.95729,-12.59999 1.38995,-20.66666 0.43267,-8.06667 1.02674,-16.16667 1.32016,-18 0.29342,-1.83333 0.8824,-9.63333 1.30884,-17.33333 0.42644,-7.7 1.0364,-16.7 1.35547,-20 0.31908,-3.3 0.91747,-11.1 1.32976,-17.33333 0.4123,-6.23334 0.99354,-13.43334 1.29166,-16 0.29811,-2.56667 0.93756,-11.26667 1.421,-19.33333 0.48344,-8.06667 1.06506,-17.06667 1.29249,-20.000003 0.22742,-2.933333 0.7844,-10.733332 1.23773,-17.333332 0.45332,-6.6 1.08783,-14.399999 1.41001,-17.333332 0.32218,-2.933333 0.99799,-11.633333 1.50179,-19.333332 0.5038,-7.7 1.06424,-15.499999 1.24542,-17.333333 0.18119,-1.833333 0.38894,-5.768655 0.46169,-8.74516 0.0727,-2.976504 1.03987,-6.576504 2.14918,-7.999999 1.8339,-2.3533023 1.95174,-1.6201979 1.29854,8.078493 -0.39511,5.866666 -0.98375,13.666666 -1.30807,17.333332 -0.32433,3.666667 -0.92031,12.066666 -1.32439,18.666666 -0.40409,6.6 -1.01279,14.699999 -1.35268,17.999999 -0.33988,3.3 -0.94344,11.099999 -1.34122,17.333332 -0.68874,10.792449 -1.11487,16.720149 -2.73175,37.999999 -1.31057,17.24847 -1.78495,23.93714 -2.60051,36.66666 -0.44635,6.96667 -1.04974,14.76667 -1.34087,17.33334 -0.29113,2.56666 -0.89155,10.36666 -1.33427,17.33333 -0.44271,6.96666 -1.02132,14.16666 -1.2858,16 -0.26448,1.83333 -0.85522,10.53333 -1.31275,19.33333 -0.45754,8.8 -1.07631,17.5 -1.37506,19.33333 -0.29875,1.83333 -0.90021,9.93333 -1.33659,18 -0.43638,8.06667 -1.04085,16.76667 -1.34326,19.33333 -0.30241,2.56667 -0.88138,10.06667 -1.28659,16.66667 -0.40521,6.6 -1.01443,15.6 -1.35381,20 -0.33937,4.4 -0.95993,12.8 -1.37902,18.66666 -0.41908,5.86667 -1.01279,13.66667 -1.31935,17.33333 -1.55062,18.54656 -3.50346,46.52257 -3.90903,56 -0.95029,22.20629 -2.35273,40.15957 -3.47942,44.54154 -0.64224,2.49784 -0.8834,5.00157 -0.53589,5.56384 1.20781,1.95428 73.86964,39.31341 93.93486,48.29667 30.63527,13.71552 48.38831,21.46562 63.33333,27.64823 16.20644,6.70445 19.2616,8.43662 19.31291,10.94971 0.0377,1.84767 -2.33984,1.03835 -26.61654,-9.06025 -44.85854,-18.66022 -91.06782,-40.5965 -134.7421,-63.96421 -10.25435,-5.48654 -19.65746,-9.97553 -20.89581,-9.97553 -1.23836,0 -10.6831,3.97394 -20.98833,8.83099 -10.30523,4.85704 -23.23679,10.90798 -28.73679,13.44653 -5.49999,2.53854 -14.19999,6.61711 -19.33333,9.06348 -5.13333,2.44637 -34.53333,16.24876 -65.33333,30.67196 -30.79999,14.42321 -59.59999,27.92064 -63.99999,29.99429 -4.4,2.07365 -13.1,6.15622 -19.33334,9.07238 -6.23333,2.91616 -17.03333,7.99492 -23.99999,11.28614 -6.96667,3.29122 -26.46667,12.40964 -43.33333,20.26316 -16.86667,7.85352 -34.56667,16.11834 -39.33334,18.36628 -4.76666,2.24794 -13.46666,6.31795 -19.33333,9.04448 -5.86666,2.72653 -17.56666,8.257 -26,12.28992 -28.06672,13.42186 -38.60563,18.33704 -39.31746,18.33704 -0.38782,0 0.0443,-1.2 0.96023,-2.66666 z M 363.33331,373.81259 c -9.53333,-6.86895 -21.23333,-15.33324 -26,-18.80954 -9.52154,-6.94398 -46.10897,-36.10801 -56.66666,-45.16928 -20.09271,-17.24482 -30.59119,-25.83379 -31.57719,-25.83379 -1.03894,0 -13.44811,4.48597 -79.08947,28.59117 -14.66667,5.38598 -40.16666,14.68405 -56.66666,20.66238 -16.500003,5.97833 -32.100002,11.70075 -34.666668,12.71649 -4.402374,1.7422 -73.4307623,26.90576 -76.9999954,28.06951 C 0.74999995,374.33841 0,374.13522 0,373.588 c 0,-0.54722 5.5499997,-2.99913 12.333333,-5.44868 18.18409,-6.56651 98.243457,-35.98729 103.666657,-38.09616 2.56667,-0.99807 20.56667,-7.59988 40,-14.67068 19.43333,-7.07081 37.43333,-13.6896 40,-14.70844 2.56666,-1.01883 15.03141,-5.59079 27.69944,-10.1599 12.66803,-4.56911 22.86803,-8.70533 22.66667,-9.1916 -0.20136,-0.48626 -8.16611,-7.99268 -17.69945,-16.68092 -32.45428,-29.57733 -52.35737,-49.9198 -52.97785,-54.14741 -0.31396,-2.13914 -0.15147,-3.72319 0.36109,-3.52012 0.51256,0.20308 11.06102,10.03994 23.44101,21.8597 30.98725,29.58497 53.69251,49.84286 55.86441,49.84286 1.00135,0 2.18708,-0.59292 2.63496,-1.31761 1.08936,-1.76262 11.95575,-64.67659 20.72891,-120.01572 C 291.28613,78.063754 304.60076,0 305.55411,0 c 0.63984,0 0.86435,1.3499999 0.4989,2.9999998 -0.36544,1.6499999 -2.1564,12.2999992 -3.97991,23.6666652 -1.82351,11.366666 -7.239,44.666664 -12.03442,73.999995 -11.63437,71.16675 -19.54759,120.76294 -25.47757,159.68083 -1.71987,11.28734 -3.11472,16.45946 -4.97835,18.45983 -2.53142,2.71716 -2.53333,2.83024 -0.0859,5.08157 17.78001,16.35545 71.62221,59.63208 107.3829,86.31094 10.86542,8.10602 16.23792,14.03537 14.24196,15.7181 -0.25029,0.21102 -8.25508,-5.23639 -17.78841,-12.10534 z M 125.592,162.33332 C 87.05974,120.64826 56.831754,85.12451 21.015428,39.435551 2.0207259,15.205033 0.02939498,12.167253 0.01542902,7.3999995 -0.00222185,1.3749077 -0.50919492,0.96816869 10.734756,15.999999 43.133322,59.313045 91.52287,116.96132 129.72224,157.75423 c 13.06088,13.94764 16.17744,18.0515 16.96043,22.33333 0.52759,2.88517 0.78162,5.24576 0.5645,5.24576 -0.21711,0 -9.96194,-10.35 -21.65517,-23 z"
       id="path1" />
  </g>
</svg>
