<?xml version="1.0" encoding="UTF-8" standalone="no"?>
<!-- Created with Inkscape (http://www.inkscape.org/) -->

<svg
   version="1.1"
   id="svg1"
   width="1333.3333"
   height="1333.3333"
   viewBox="0 0 1333.3333 1333.3333"
   sodipodi:docname="Curve90L_T.svg"
   inkscape:version="1.4.2 (ebf0e940d0, 2025-05-08)"
   xmlns:inkscape="http://www.inkscape.org/namespaces/inkscape"
   xmlns:sodipodi="http://sodipodi.sourceforge.net/DTD/sodipodi-0.dtd"
   xmlns="http://www.w3.org/2000/svg"
   xmlns:svg="http://www.w3.org/2000/svg">
  <defs
     id="defs1" />
  <sodipodi:namedview
     id="namedview1"
     pagecolor="#505050"
     bordercolor="#eeeeee"
     borderopacity="1"
     inkscape:showpageshadow="0"
     inkscape:pageopacity="0"
     inkscape:pagecheckerboard="0"
     inkscape:deskcolor="#505050"
     showgrid="false"
     inkscape:zoom="0.59400004"
     inkscape:cx="666.66663"
     inkscape:cy="666.66663"
     inkscape:window-width="1920"
     inkscape:window-height="995"
     inkscape:window-x="0"
     inkscape:window-y="0"
     inkscape:window-maximized="1"
     inkscape:current-layer="g1" />
  <g
     inkscape:groupmode="layer"
     inkscape:label="Image"
     id="g1">
    <path
       style="fill:#ffff00;stroke:none"
       d="m 243.99999,0 c 0,12.016113 2.76584,24.261392 2.49485,35.999998 -0.91744,39.741127 -12.71981,82.017082 -33.16152,115.999992 -8.76219,14.56649 -21.53422,33.96557 -37.33333,41.33333 -3.66657,11.76921 -28.07962,21.95736 -38.66667,26.95882 C 93.737228,240.88768 47.37842,243.99999 0,243.99999 v 7.99999 c 34.999141,0 68.403392,-3.59838 102.66666,-10.66666 3.86567,12.07129 16.31282,16.13191 26.66667,21.74487 23.18935,12.57129 46.39725,25.22819 69.33332,38.25512 65.2144,37.03972 131.3964,72.66618 197.33333,108.41154 32.92757,17.8505 65.42077,39.85839 99.99999,54.25512 -11.71081,18.72209 -30.19604,35.21322 -46.66666,49.71403 -28.03198,24.67952 -57.05115,47.30957 -89.33333,66.27156 -11.35519,6.66984 -22.88928,13.12077 -34.66667,19.01025 -3.94985,1.97518 -9.97078,6.50033 -14.61419,5.4506 -7.87608,-1.78059 -16.21629,-16.03426 -21.5,-21.77978 C 269.83517,561.58851 251.13825,539.87676 231.90019,518.66664 179.30557,460.68055 127.26147,402.18748 74.891968,343.99998 52.366213,318.97174 30.188241,284.73273 2.6666665,265.33332 c 2.9757619,15.07837 15.2138895,24.91495 25.1121375,35.99999 19.075151,21.36223 38.169617,42.71184 57.329218,64 72.904618,81.00398 142.642978,166.14493 218.891958,243.99999 -75.65409,29.35107 -151.82854,54.1951 -233.333318,61.33333 -17.23772,1.50968 -34.875404,2.31738 -51.999996,4.56583 -4.574149,0.60059 -12.7869387,-0.62333 -16.528806,2.33952 -3.11823698,2.46908 -2.13516519,8.2758 -2.13786,11.76131 l 23.999999,-2.66667 -2.666667,-5.33333 c 96.711168,-0.0638 193.534248,-29.42911 282.666648,-63.99999 -13.03161,29.39851 -20.61468,61.61637 -31.12551,91.99999 -24.39774,70.52653 -47.60068,141.4689 -71.99999,211.99999 -9.20225,26.60091 -17.6933,53.48331 -27.13066,80.00002 -6.22063,17.4785 -14.78055,34.58 -12.4105,53.3333 h 1.33334 c 7.08647,-30.6169 20.52028,-60.90014 30.66255,-90.66666 23.16064,-67.97412 46.63192,-135.88345 69.33744,-203.99999 11.85612,-35.56835 22.92187,-71.82494 36.73354,-106.66666 4.63822,-11.70052 6.26434,-28.20662 13.72426,-38.38273 5.04047,-6.87573 16.82994,-10.1534 24.20886,-13.96191 16.43689,-8.48372 32.51416,-18.00447 48,-28.11417 42.7679,-27.92049 77.47566,-62.3466 113.33333,-98.20784 0,103.04239 4,206.29507 4,309.33331 v 90.66666 c 0,16.50277 -1.3573,36.90975 5.33333,52 h 1.33333 c 0,-107.60156 -2.66666,-215.09569 -2.66666,-322.66665 0,-33.37971 -0.79338,-66.77148 -0.0195,-99.99999 0.26469,-11.36491 -3.40861,-24.94588 -0.9095,-36 1.87565,-8.29638 10.43339,-15.99829 15.42696,-22.66666 10.32312,-13.78548 19.87113,-28.0284 28.93624,-42.66667 27.28596,-44.06111 52.8212,-95.90071 64.56583,-146.66666 h 1.33333 c 8.08293,34.02979 29.18795,69.3759 43.59257,101.33333 27.86186,61.81299 54.57279,124.31258 81.17907,186.66666 10.07918,23.6215 20.58822,47.04687 30.66667,70.66666 5.21932,12.23201 8.84659,25.93856 20.56168,33.33333 -9.2102,-33.67472 -28.20947,-66.64168 -42.10083,-98.66666 L 662.10079,346.66665 c -10.39404,-23.96184 -21.05684,-47.80721 -30.90535,-72 -3.72917,-9.16064 -10.51994,-19.50447 -11.88888,-29.33333 -1.09741,-7.87948 3.62659,-17.72453 5.52881,-25.33333 4.41386,-17.65552 8.37651,-35.40064 11.49792,-53.33333 6.82679,-39.2203 14.07609,-80.127847 14.33232,-119.999996 0.0327,-5.085205 -0.37512,-35.96533 6.86418,-34.973305 6.89156,0.944417 15.90104,12.459553 21.13684,16.854003 18.7207,15.712482 37.46215,31.346515 55.99999,47.278805 66.45744,57.116613 134.4659,112.605303 199.99999,170.773593 17.48502,15.51977 35.61784,30.3212 53.33333,45.57405 9.42838,8.11776 17.68116,17.4222 30.66666,18.49284 -8.4463,-11.74308 -22.35294,-20.54818 -33.33333,-29.90332 C 966.62071,264.82054 948.11192,248.63369 929.33328,232.76748 869.00711,181.79735 809.13032,130.25121 749.33329,78.666662 c -21.33342,-18.403482 -42.49007,-37.058592 -64,-55.2325 -9.78678,-8.268961 -18.46439,-18.8066395 -32,-19.4341622 V 0 h -8 C 642.97018,11.581542 628.42733,13.437092 618.66663,16.922851 592.81128,26.15633 567.25574,36.30908 541.3333,45.333331 462.25599,72.862056 383.79132,102.68294 305.33331,131.9331 c -20.40142,7.60587 -40.97509,14.767 -61.33332,22.47737 -7.28894,2.76058 -19.21324,4.54313 -24,10.92285 15.97617,1.21672 30.48669,-6.39811 45.33333,-11.9331 27.04327,-10.08211 54.14306,-20.13355 81.33333,-29.81071 99.35941,-35.362627 198.93374,-70.965408 297.33331,-108.922844 3.73385,20.11271 -0.48531,42.464353 -2.44031,62.666663 -3.45707,35.723951 -7.75468,71.540111 -15.45886,106.666661 -2.7428,12.50545 -5.83126,24.91349 -8.93624,37.33333 -1.1038,4.41512 -1.61486,11.86393 -5.73763,14.62858 -5.88431,3.94588 -19.41373,-0.64412 -26.09362,-1.18107 -25.81954,-2.07536 -51.50675,-6.1027 -77.33333,-7.99585 -76.08707,-5.57739 -152.08084,-15.41911 -227.99999,-23.01033 -29.99483,-2.99919 -60.53073,-8.48601 -90.66666,-9.108 C 241.92005,142.07478 254.66665,71.607418 254.66665,0 h -10.66666 m 834.66661,0 c 0,193.67137 -26.9797,390.24233 -112.34464,566.66663 -41.45711,85.67981 -97.17602,166.36156 -164.9938,233.31379 C 633.18746,965.97512 402.83624,1047.2361 171.99999,1074.8734 115.03638,1081.6935 57.381075,1087.9999 0,1087.9999 v 6.6667 c 288.14903,0 599.98051,-84.0105 809.32816,-290.68618 C 872.54194,741.57344 924.33669,666.76164 964.98863,587.99996 1057.6413,408.48891 1087.9999,199.75113 1087.9999,0 h -9.3333 M 103.99999,239.99999 c 19.12476,-3.95801 38.03599,-12.84245 54.66667,-22.93929 8.06006,-4.89348 17.25201,-15.45825 26.66666,-16.86214 8.7512,-1.30494 19.24024,1.30908 28,2.2469 20.88487,2.23592 41.76039,4.63843 62.66666,6.66154 69.80758,6.75537 139.50101,14.96712 209.33332,21.45988 31.07088,2.88883 62.18266,7.74569 93.33333,9.48047 5.4412,0.30298 29.03593,0.17977 30.96403,5.7098 3.45666,9.91398 -9.38749,33.87426 -12.75618,43.57617 -15.41622,44.39884 -37.04977,87.59252 -63.09672,126.66665 -7.27726,10.91691 -14.73039,21.6744 -22.8313,32 -2.72489,3.47323 -6.0686,9.90902 -10.99898,10.34571 -7.62598,0.67545 -20.12663,-9.32764 -26.61418,-13.01237 C 451.73911,433.0685 429.71575,421.56337 407.99998,409.51853 333.10626,367.97817 256.99889,328.41429 182.66666,285.895 c -18.05917,-10.33016 -36.3878,-20.26277 -54.66667,-30.20263 -7.57172,-4.11743 -19.67063,-8.06356 -24,-15.69238 z"
       id="path1" />
  </g>
</svg>
