<?xml version="1.0" encoding="UTF-8" standalone="no"?>
<!-- Created with Inkscape (http://www.inkscape.org/) -->

<svg
   version="1.1"
   id="svg1"
   width="1333.3333"
   height="1333.3333"
   viewBox="0 0 1333.3333 1333.3333"
   sodipodi:docname="CurveT_DBL.svg"
   inkscape:version="1.4.2 (ebf0e940d0, 2025-05-08)"
   xmlns:inkscape="http://www.inkscape.org/namespaces/inkscape"
   xmlns:sodipodi="http://sodipodi.sourceforge.net/DTD/sodipodi-0.dtd"
   xmlns="http://www.w3.org/2000/svg"
   xmlns:svg="http://www.w3.org/2000/svg">
  <defs
     id="defs1" />
  <sodipodi:namedview
     id="namedview1"
     pagecolor="#505050"
     bordercolor="#eeeeee"
     borderopacity="1"
     inkscape:showpageshadow="0"
     inkscape:pageopacity="0"
     inkscape:pagecheckerboard="0"
     inkscape:deskcolor="#505050"
     showgrid="false"
     inkscape:zoom="0.59400004"
     inkscape:cx="666.66663"
     inkscape:cy="666.66663"
     inkscape:window-width="1920"
     inkscape:window-height="995"
     inkscape:window-x="0"
     inkscape:window-y="0"
     inkscape:window-maximized="1"
     inkscape:current-layer="g1" />
  <g
     inkscape:groupmode="layer"
     inkscape:label="Image"
     id="g1">
    <path
       style="fill:#ffff00"
       d="m 3.3999998,1332.2046 c 0.6966666,-0.6208 6.3666663,-4.9435 12.5999992,-9.6061 44.074446,-32.9681 103.860921,-83.3224 148.666661,-125.2124 22.82001,-21.335 21.18546,-18.5398 16.66796,-28.503 -2.0931,-4.6162 -5.00159,-11.6534 -6.46332,-15.6381 -3.88682,-10.5958 -15.10669,-39.9831 -20.8376,-54.5784 -2.7355,-6.9667 -7.04467,-18.0667 -9.57593,-24.6667 -7.37074,-19.2184 -10.83777,-28.0833 -14.73493,-37.6756 -2.00906,-4.9451 -3.75605,-9.6766 -3.8822,-10.5146 -0.12615,-0.838 -1.72977,-5.038 -3.5636,-9.3334 -1.83384,-4.2953 -6.77423,-16.80969 -10.97866,-27.80969 -9.46117,-24.75315 -14.74004,-38.51592 -26.849302,-70 -1.833333,-4.76667 -4.8224,-12.56667 -6.642372,-17.33333 -1.819971,-4.76667 -4.718513,-12.26667 -6.441206,-16.66667 -1.722692,-4.4 -4.632167,-11.9 -6.4655,-16.66666 -1.833334,-4.76667 -4.960835,-12.86667 -6.950004,-18 -1.989168,-5.13333 -5.11667,-13.23333 -6.950003,-18 -1.833333,-4.76667 -4.734423,-12.26667 -6.446867,-16.66667 -1.712443,-4.4 -6.761351,-17.6 -11.219795,-29.33333 C 24.175211,761.89843 19.215393,749.13127 16.79907,743.4388 l -1.653119,-3.89448 -4.082062,4.56115 c -2.2451348,2.50863 -5.6340131,6.36115 -7.530841,8.56115 l -3.44877802,4 -0.04213499,-4.33976 C 0.00763293,748.77327 2.7353233,744.54634 15.099417,728.99353 68.743362,661.51475 108.74006,598.74561 142.74835,528.66663 c 61.0781,-125.8602 93.27105,-248.37848 104.05313,-395.99997 0.85699,-11.73333 1.65166,-45.523793 1.76594,-75.089911 0.18225,-47.150926 -0.0446,-53.9043875 -1.84649,-54.9594516 -1.56912,-0.9187913 -1.16427,-1.2124498 1.71421,-1.2434192 2.61323,-0.028116 34.08642,17.8103788 102.66666,58.1897898 54.39399,32.026684 113.89817,67.036592 132.2315,77.799792 48.4753,28.45906 103.72766,61.01219 137.58853,81.06327 16.2737,9.63664 30.34728,17.68289 31.27463,17.88055 6.18165,1.31757 20.17886,-203.640497 14.61695,-214.033007 -0.95666,-1.787545 -1.45188,-6.808554 -1.21442,-12.3129966 0.35751,-8.2872699 0.70577,-9.33812107 3.21329,-9.69608351 2.63518,-0.37618563 2.86894,0.37967269 3.71118,11.99999911 2.11761,29.216383 -4.7067,148.539698 -11.84259,207.068128 -0.9835,8.06667 -1.56448,14.89123 -1.29107,15.1657 0.27342,0.27447 7.4104,-3.51545 15.85995,-8.42204 8.44956,-4.9066 17.32499,-9.88791 19.72318,-11.06959 4.56913,-2.25138 68.01501,-38.90384 173.69368,-100.34223 34.46667,-20.037876 82.46667,-47.926794 106.66666,-61.975372 24.2,-14.048577 54.03263,-31.392451 66.29483,-38.541941 16.4215,-9.5746043 23.2664,-12.886949 25.9828,-12.5734596 3.1037,0.358183 0.5221,2.2554121 -16.2948,11.9752446 -10.9906,6.352297 -34.6828,20.081303 -52.64949,30.508901 -17.96667,10.427599 -38.36667,22.265215 -45.33333,26.305814 -40.16502,23.295322 -97.84932,56.827323 -114,66.268423 -10.26666,6.00153 -45.66666,26.67025 -78.66666,45.9305 -33,19.26024 -65.4,38.2877 -72,42.28324 -6.59999,3.99554 -16.24122,9.63414 -21.42495,12.53023 l -9.42495,5.26562 -1.61665,12.34548 c -14.73724,112.54018 -44.0663,233.07761 -82.43642,338.79955 -4.7483,13.08309 -8.32449,24.09621 -7.94709,24.47362 0.37741,0.3774 8.97306,-1.11906 19.10146,-3.32547 10.1284,-2.20641 20.51528,-4.37184 23.08194,-4.81207 7.71942,-1.324 10.3684,-1.88427 32.6215,-6.89955 11.75817,-2.65 22.35513,-5.01089 23.5488,-5.24644 1.19366,-0.23555 8.09366,-1.73528 15.33333,-3.33272 17.56124,-3.87493 35.12226,-7.70871 46.39861,-10.12937 5.07957,-1.09041 9.57957,-2.19313 10,-2.45048 0.42043,-0.25734 2.9363,-0.81156 5.59083,-1.23158 2.65452,-0.42002 11.35452,-2.24034 19.33333,-4.04515 7.97881,-1.80481 25.60693,-5.73517 39.17359,-8.73412 13.56667,-2.99895 28.26667,-6.30261 32.66667,-7.34147 4.4,-1.03886 11.3,-2.57702 15.33333,-3.41813 4.03333,-0.84111 10.93333,-2.35458 15.33333,-3.36327 6.24465,-1.43156 48.82113,-10.92456 59.33333,-13.22916 1.1,-0.24116 6.74875,-1.4234 12.55279,-2.6272 5.80403,-1.20381 10.90403,-2.40378 11.33333,-2.66661 0.4293,-0.26283 2.91358,-0.81536 5.52063,-1.22783 2.60704,-0.41248 10.10704,-2.00864 16.66666,-3.54704 6.55962,-1.53839 14.62659,-3.34878 17.92659,-4.02308 3.3,-0.67431 10.07072,-2.11048 15.04609,-3.19149 4.9753,-1.08101 10.2523,-1.51924 11.7266,-0.97385 1.9285,0.71338 -1.1711,1.86048 -11.046,4.08801 -7.54969,1.703 -15.13875,3.35276 -16.8646,3.66612 -1.72585,0.31336 -12.0771,2.63842 -23.00277,5.1668 -10.92567,2.52838 -21.81361,4.93169 -24.19542,5.34069 -2.38181,0.409 -6.72823,1.38022 -9.6587,2.15828 -2.93048,0.77805 -6.53048,1.63713 -8,1.90906 -4.10274,0.7592 -15.13391,3.17832 -24.0052,5.2643 -9.91655,2.33176 -32.0256,7.12025 -37.13791,8.04352 -2.09251,0.3779 -12.68045,2.74112 -23.52875,5.25159 -10.8483,2.51047 -21.13624,4.8212 -22.86209,5.13494 -1.72585,0.31375 -7.03791,1.50161 -11.80458,2.6397 -7.99292,1.90839 -15.39015,3.56277 -36.66666,8.20046 -11.23918,2.44984 -46.25897,10.20904 -48.66666,10.7829 -1.1,0.26217 -7.4,1.65882 -14,3.10365 -6.6,1.44483 -17.19491,3.84876 -23.54425,5.34207 -6.34933,1.49331 -13.45442,3.05163 -15.78908,3.46294 -2.33467,0.41131 -9.16789,1.89574 -15.18496,3.29874 -6.01706,1.40299 -12.41197,2.83306 -14.21091,3.17792 -1.79894,0.34486 -6.2708,1.33036 -9.93746,2.19001 -3.66667,0.85964 -8.16667,1.83291 -10,2.16281 -1.83334,0.3299 -5.42843,1.27265 -7.9891,2.09499 -4.44696,1.4281 -28.25348,6.9872 -36.67757,8.56462 -4.90332,0.91816 -8.17328,3.69693 -9.20968,7.82627 -0.43056,1.71551 -5.32502,14.03834 -10.87656,27.38407 -36.78563,88.43145 -81.09158,171.53747 -136.78033,256.56304 -7.17909,10.96103 -12.92101,20.06006 -12.75982,20.22007 0.49021,0.48663 16.6518,1.65363 34.95973,2.52438 9.53334,0.45342 20.63334,1.05738 24.66667,1.34214 4.03333,0.28475 18.49116,0.91327 32.1285,1.39671 13.63734,0.48344 26.83734,1.05556 29.33333,1.27139 2.49599,0.21583 18.03816,0.77012 34.53816,1.23175 16.5,0.46164 32.7,1.10027 36,1.41919 3.3,0.31891 15.3,0.90705 26.66667,1.30696 19.58017,0.6889 29.85999,1.095 67.33332,2.66 8.8,0.36752 24.4,0.97858 34.66667,1.35791 10.26667,0.37934 25.26666,0.98229 33.33333,1.3399 17.22353,0.76356 39.9391,1.64692 68.66666,2.67031 11.36667,0.40493 25.00851,1.0453 30.31521,1.42305 l 9.64855,0.68683 17.19149,-35.05654 C 913.147,850.38167 918.76564,838.07274 938.20888,790.22517 1031.6245,560.34006 1079.9954,306.60329 1079.9994,46.44238 c 5e-4,-37.5189756 0.386,-43.1855871 2.8346,-41.6722631 1.4422,0.8913114 1.2554,99.0942331 -0.2483,130.5632131 -7.0105,146.71314 -25.4917,275.24031 -58.5712,407.3333 -25.79356,102.9989 -63.00712,211.12566 -104.62646,303.99998 -3.45056,7.7 -7.96179,18.2 -10.02494,23.33334 -3.18301,7.91965 -16.15559,34.58765 -39.14162,80.46428 -8.835,17.63331 -31.38694,58.46307 -47.98136,86.86907 -56.16162,96.1364 -126.32247,195.2523 -199.14633,281.3333 -10.10173,11.9407 -12.49361,14.0628 -16.26094,14.4272 -4.31108,0.4169 -3.94053,-0.1429 15.44533,-23.3334 70.05896,-83.8084 129.52671,-167.0939 185.27045,-259.4739 22.62109,-37.4883 49.78465,-86.39223 49.78465,-89.62988 0,-1.58099 -2.12391,-2.01938 -10.33333,-2.13288 -5.68333,-0.0786 -12.43333,-0.2882 -15,-0.46581 -2.56667,-0.17761 -16.96667,-0.75319 -32,-1.27907 -15.03333,-0.52589 -30.03333,-1.17437 -33.33333,-1.44108 -3.3,-0.26671 -18,-0.8393 -32.66666,-1.27242 -14.66667,-0.43312 -29.96667,-1.05865 -34,-1.39006 -4.03334,-0.33141 -17.83333,-0.93696 -30.66667,-1.34567 -12.83333,-0.40871 -27.23333,-1.0063 -32,-1.32797 -4.76666,-0.32167 -20.96666,-0.94725 -35.99999,-1.39018 -15.03334,-0.44293 -30.03333,-1.0208 -33.33333,-1.28416 -3.3,-0.26336 -18,-0.8464 -32.66667,-1.29565 -14.66667,-0.44925 -29.96666,-1.06079 -34,-1.35898 -4.03333,-0.29818 -19.03333,-0.87828 -33.33333,-1.2891 -14.3,-0.41082 -36.52343,-1.06359 -49.38541,-1.45061 -27.58356,-0.82998 -22.04202,-4.19949 -43.96645,26.73363 -21.51852,30.36041 -45.11577,60.95759 -64.78265,83.99999 -3.12954,3.6667 -11.83523,13.8667 -19.34599,22.6667 -22.36864,26.2082 -55.50644,61.6937 -82.85282,88.7224 -4.95,4.8925 -9,9.5814 -9,10.4198 0,0.8385 1.65,1.5703 3.66667,1.6264 2.01667,0.056 4.56667,0.2929 5.66667,0.5262 1.1,0.2333 4.7,0.8119 8,1.2857 3.3,0.4739 9.3,1.4671 13.33333,2.207 11.60881,2.1297 32.89442,5.3244 48.33333,7.2541 3.11667,0.3895 7.16667,0.9708 9,1.2917 1.83333,0.3209 6.03333,0.9317 9.33333,1.3574 3.3,0.4256 11.1,1.6148 17.33333,2.6426 6.23334,1.0278 14.03334,2.217 17.33334,2.6426 3.3,0.4257 7.5,1.0318 9.33333,1.3468 1.83333,0.3151 5.43333,0.8638 8,1.2194 7.97848,1.1053 61.74596,8.7774 66.66666,9.5127 2.56667,0.3835 6.16667,0.9341 8,1.2236 1.83333,0.2895 6.03333,0.8713 9.33333,1.2928 3.3,0.4216 7.2,0.9884 8.66667,1.2597 1.46667,0.2712 5.66667,0.9089 9.33333,1.417 3.66667,0.5081 8.16667,1.1572 10,1.4425 1.83334,0.2852 16.23333,2.352 32,4.5928 34.26307,4.8696 36.9143,5.2629 40.53043,6.0127 1.5416,0.3196 5.8029,0.9075 9.46957,1.3064 3.66666,0.399 8.16666,0.9924 10,1.3187 1.83333,0.3264 7.83333,1.2082 13.33333,1.9597 5.5,0.7515 17.8,2.5434 27.33333,3.9819 9.53333,1.4386 19.73333,2.9526 22.66667,3.3647 34.11169,4.7913 42.86367,6.4004 44.65566,8.2101 1.79756,1.8153 1.58646,1.9643 -1.989,1.4034 -4.93225,-0.7737 -14.86437,-2.2331 -19.33333,-2.8408 -3.75833,-0.5111 -13.64231,-1.9539 -18.66667,-2.7249 -1.83333,-0.2813 -18.33333,-2.6642 -36.66666,-5.2953 -18.33333,-2.6311 -34.83333,-5.009 -36.66667,-5.2842 -1.83333,-0.2752 -6.03333,-0.8453 -9.33333,-1.2669 -3.3,-0.4216 -7.2,-0.9884 -8.66667,-1.2597 -1.46666,-0.2712 -5.66666,-0.9089 -9.33333,-1.417 -3.66666,-0.5081 -8.16666,-1.157 -10,-1.4421 -1.83333,-0.285 -12.03333,-1.7884 -22.66666,-3.3408 -10.63334,-1.5523 -23.10837,-3.3816 -27.7223,-4.0649 -4.61393,-0.6834 -11.21393,-1.5621 -14.66667,-1.9527 -3.45273,-0.3906 -9.5777,-1.2732 -13.61103,-1.9613 -5.62818,-0.9602 -118.05631,-17.1851 -143.99999,-20.7811 -2.56667,-0.3557 -6.16667,-0.9046 -8,-1.2197 -1.83333,-0.3151 -5.75735,-0.9018 -8.72004,-1.3038 -2.96269,-0.402 -6.57887,-0.9605 -8.03594,-1.2411 -1.45708,-0.2806 -8.63306,-1.1992 -15.94662,-2.0412 -7.31357,-0.8421 -22.14166,-2.7793 -32.95131,-4.305 -16.84255,-2.3771 -20.01633,-2.511 -22.18754,-0.9361 -1.3935,1.0108 -13.54924,12.1192 -27.01276,24.6853 -41.06987,38.3325 -77.058153,69.0431 -124.376889,106.137 -24.230518,18.9947 -27.268298,20.9861 -32.0355515,21 -2.9819508,0.01 -4.7171778,-0.4742 -3.9999997,-1.1132 z M 213.46553,1149.6666 c 51.09815,-52.101 88.35568,-94.8988 137.8676,-158.369 16.78249,-21.51375 35.33351,-47.53521 35.33351,-49.56219 0,-1.09182 -1.15447,-2.28702 -2.5655,-2.65601 -1.6879,-0.4414 -5.74812,-6.89826 -11.86914,-18.87518 -5.117,-10.01235 -15.7464,-30.80427 -23.62089,-46.20427 -18.09291,-35.38401 -33.25904,-65.11153 -56.45894,-110.66666 -10.08356,-19.8 -27.37409,-53.7 -38.42339,-75.33333 -11.04931,-21.63333 -28.18362,-55.23333 -38.07625,-74.66666 -9.89262,-19.43334 -25.28286,-49.63237 -34.20053,-67.10897 -10.94585,-21.45136 -15.287,-31.12638 -13.36103,-29.77737 1.56911,1.09904 5.68919,7.59808 9.15574,14.4423 8.16516,16.12099 39.46524,77.38436 56.08637,109.77737 7.14931,13.93333 20.95226,40.93333 30.67323,59.99999 21.77331,42.70608 42.2635,82.82486 65.034,127.33333 9.56691,18.7 25.69657,50.4185 35.84369,70.48557 10.14712,20.06706 19.20065,36.78177 20.11896,37.14379 5.03509,1.98498 8.18435,-1.3404 24.55987,-25.93331 39.61519,-59.49446 82.53208,-135.99629 109.78386,-195.69604 13.38238,-29.31644 29.00801,-65.71117 35.13259,-81.82974 l 2.54173,-6.68931 -20.00919,-22.40714 c -11.00506,-12.32393 -21.91274,-24.50714 -24.23929,-27.07381 -11.18118,-12.33517 -31.72522,-35.24337 -40.10589,-44.72117 -5.13334,-5.80535 -12.93333,-14.47621 -17.33333,-19.26858 -4.4,-4.79237 -12.2,-13.45923 -17.33334,-19.25968 -5.13333,-5.80045 -10.53333,-11.88062 -12,-13.51149 -1.46666,-1.63087 -3.88473,-4.37683 -5.37348,-6.10214 -1.48875,-1.72531 -8.68875,-9.75874 -16,-17.85206 -13.42571,-14.86184 -29.5027,-32.81973 -33.68621,-37.6273 -2.05106,-2.35701 -16.90151,-18.95703 -23.60697,-26.38816 -1.46666,-1.62539 -6.86666,-7.64634 -12,-13.37988 -5.13333,-5.73355 -17.73333,-19.78422 -28,-31.22373 -10.26666,-11.4395 -21.2928,-23.7691 -24.50252,-27.39911 -18.62468,-21.06343 -25.86897,-29.12831 -32.09236,-35.72759 -2.52719,-2.67983 -3.80686,-4.87242 -2.84371,-4.87242 2.24609,0 10.23108,8.09639 30.86732,31.29792 9.1142,10.2472 17.47128,19.57612 18.57128,20.73095 1.1,1.15483 6.19999,6.83152 11.33333,12.61487 5.13333,5.78334 10.23333,11.48341 11.33333,12.66681 1.1,1.18339 4.35983,4.82264 7.24407,8.0872 2.88424,3.26457 9.55275,10.73558 14.81892,16.60224 5.26617,5.86667 15.74424,17.56667 23.2846,26 12.77463,14.28749 32.73607,36.37408 37.31907,41.29218 1.1,1.18043 5.89934,6.62259 10.6652,12.09369 4.76586,5.4711 9.01769,10.24746 9.44852,10.61413 0.73491,0.62547 15.66504,17.29304 35.75112,39.91154 4.841,5.45136 10.00182,11.23067 11.46849,12.84293 1.46667,1.61225 6.86667,7.61225 12,13.33333 5.13333,5.72108 10.53333,11.72108 12,13.33333 1.46667,1.61226 6.61765,7.35206 11.44663,12.75512 4.82899,5.40306 14.70285,16.42374 21.94192,24.49041 7.23907,8.06666 14.68809,16.40259 16.55337,18.52428 11.9641,13.60877 13.25197,14.78008 14.68942,13.35999 3.80236,-3.75644 31.91955,-86.57843 44.56516,-131.27115 21.28117,-75.21293 36.85657,-149.65171 48.10212,-229.89222 1.6411,-11.70975 1.71552,-14.92414 0.37464,-16.18157 -0.9203,-0.86301 -31.07327,-18.80512 -67.0066,-39.87135 C 548.7333,180.93506 507.9333,156.94325 493.99997,148.68614 472.2356,135.78825 380.80692,81.845116 304.66665,36.979045 292.19998,29.632995 275.61353,19.807507 267.80787,15.144628 260.00221,10.481749 253.40221,6.6669116 253.14121,6.6672116 c -0.26101,2.999e-4 -0.50587,25.3502984 -0.54414,56.3333294 -0.0512,41.461519 -0.68353,63.724489 -2.39523,84.332779 -9.37466,112.86782 -31.86993,211.39893 -70.69397,309.64535 -28.65644,72.51672 -62.06453,135.56657 -109.340707,206.35462 -17.054195,25.53577 -48.654523,68.90776 -51.475778,70.65139 -1.743115,1.0773 -1.351204,2.21162 16.819752,48.68194 1.863875,4.76667 4.888864,12.56666 6.722197,17.33333 6.110928,15.88841 9.466656,24.56517 14.180798,36.66667 2.571032,6.6 9.270729,23.99999 14.888214,38.66666 5.617486,14.66667 11.443147,29.66666 12.945914,33.33333 1.502767,3.66667 4.095087,10.26667 5.760712,14.66667 1.665625,4.4 4.6616,12.2 6.657722,17.33333 4.157376,10.69133 9.312886,24.23404 12.181916,32 1.08369,2.93333 5.1856,13.43333 9.11536,23.33333 3.92977,9.89996 14.17838,36.29996 22.77469,58.66666 8.59631,22.3667 18.88522,49.0667 22.86424,59.3333 12.13609,31.3136 13.78816,35.625 17.7611,46.3512 4.53805,12.252 4.94162,12.9822 7.17521,12.9822 0.94335,0 12.16019,-10.65 24.92632,-23.6667 z"
       id="path1" />
  </g>
</svg>
