<?xml version="1.0" encoding="UTF-8" standalone="no"?>
<!-- Created with Inkscape (http://www.inkscape.org/) -->

<svg
   version="1.1"
   id="svg1"
   width="1333.3333"
   height="1333.3333"
   viewBox="0 0 1333.3333 1333.3333"
   sodipodi:docname="CurveT_DBR.svg"
   inkscape:version="1.4.2 (ebf0e940d0, 2025-05-08)"
   xmlns:inkscape="http://www.inkscape.org/namespaces/inkscape"
   xmlns:sodipodi="http://sodipodi.sourceforge.net/DTD/sodipodi-0.dtd"
   xmlns="http://www.w3.org/2000/svg"
   xmlns:svg="http://www.w3.org/2000/svg">
  <defs
     id="defs1" />
  <sodipodi:namedview
     id="namedview1"
     pagecolor="#505050"
     bordercolor="#eeeeee"
     borderopacity="1"
     inkscape:showpageshadow="0"
     inkscape:pageopacity="0"
     inkscape:pagecheckerboard="0"
     inkscape:deskcolor="#505050"
     inkscape:zoom="0.59400004"
     inkscape:cx="666.66663"
     inkscape:cy="666.66663"
     inkscape:window-width="1920"
     inkscape:window-height="995"
     inkscape:window-x="0"
     inkscape:window-y="0"
     inkscape:window-maximized="1"
     inkscape:current-layer="g1" />
  <g
     inkscape:groupmode="layer"
     inkscape:label="Image"
     id="g1">
    <path
       style="fill:#ffff00"
       d="m 719.14288,1328.9999 c -20.36076,-21.8021 -79.12024,-97.015 -113.42077,-145.18 C 555.27879,1112.987 495.67735,1015.4602 463.11177,950.46423 440.12574,904.5876 427.15317,877.9196 423.97015,869.99995 421.907,864.86661 417.39577,854.36661 413.94521,846.66661 372.32587,753.79229 335.11231,645.66553 309.31874,542.66663 276.23925,410.57364 257.7581,282.04647 250.74756,135.33333 249.24385,103.86435 249.05709,5.6614283 250.49926,4.7701169 c 2.44861,-1.513324 2.83407,4.1532875 2.83463,41.6722631 0.004,260.16091 48.37484,513.89768 141.79048,743.78279 19.44324,47.84757 25.06188,60.1565 59.72035,130.83131 l 17.1915,35.05654 9.64854,-0.68683 c 5.3067,-0.37775 18.94854,-1.01812 30.31521,-1.42305 28.72756,-1.02339 51.44313,-1.90675 68.66666,-2.67031 8.06667,-0.35761 23.06667,-0.96056 33.33333,-1.3399 10.26667,-0.37933 25.86667,-0.99039 34.66667,-1.35791 37.47333,-1.565 47.75315,-1.9711 67.33333,-2.66 11.36666,-0.39991 23.36666,-0.98805 26.66666,-1.30696 3.3,-0.31892 19.5,-0.95755 36,-1.41919 16.5,-0.46163 32.04217,-1.01592 34.53816,-1.23175 2.49599,-0.21583 15.69599,-0.78795 29.33333,-1.27139 13.63734,-0.48344 28.09517,-1.11196 32.1285,-1.39671 4.03334,-0.28476 15.13334,-0.88872 24.66667,-1.34214 18.30793,-0.87075 34.46952,-2.03775 34.95973,-2.52438 0.16119,-0.16001 -5.58073,-9.25904 -12.75982,-20.22007 -55.68874,-85.02557 -99.9947,-168.13159 -136.78033,-256.56304 -5.55154,-13.34573 -10.44599,-25.66856 -10.87656,-27.38407 -1.0364,-4.12934 -4.30636,-6.90811 -9.20968,-7.82627 -8.42409,-1.57742 -32.23061,-7.13652 -36.67757,-8.56462 -2.56067,-0.82234 -6.15576,-1.76509 -7.98909,-2.09499 -1.83334,-0.3299 -6.33334,-1.30317 -10,-2.16281 -3.66667,-0.85965 -8.13853,-1.84515 -9.93747,-2.19001 -1.79894,-0.34486 -8.19385,-1.77493 -14.21091,-3.17792 -6.01706,-1.403 -12.85029,-2.88743 -15.18495,-3.29874 -2.33467,-0.41131 -9.43975,-1.96963 -15.78909,-3.46294 -6.34934,-1.49331 -16.94425,-3.89724 -23.54425,-5.34207 -6.59999,-1.44483 -12.89999,-2.84148 -13.99999,-3.10365 -2.4077,-0.57386 -37.42749,-8.33306 -48.66667,-10.7829 -21.2765,-4.63769 -28.67374,-6.29207 -36.66666,-8.20046 -4.76667,-1.13809 -10.07873,-2.32595 -11.80458,-2.6397 -1.72585,-0.31374 -12.01379,-2.62447 -22.86209,-5.13494 -10.8483,-2.51047 -21.43623,-4.87369 -23.52875,-5.25159 -5.11231,-0.92327 -27.22136,-5.71176 -37.13791,-8.04352 -8.87129,-2.08598 -19.90246,-4.5051 -24.00519,-5.2643 -1.46953,-0.27193 -5.06953,-1.13101 -8,-1.90906 -2.93048,-0.77806 -7.2769,-1.74928 -9.65871,-2.15828 -2.38181,-0.409 -13.26975,-2.81231 -24.19542,-5.34069 -10.92567,-2.52838 -21.27691,-4.85344 -23.00276,-5.1668 -1.72585,-0.31336 -9.31492,-1.96312 -16.86459,-3.66612 -9.87495,-2.22753 -12.97449,-3.37463 -11.04605,-4.08801 1.47434,-0.54539 6.75134,-0.10716 11.72667,0.97385 4.97533,1.08101 11.74606,2.51718 15.04606,3.19149 3.3,0.6743 11.36696,2.48469 17.92658,4.02308 6.55962,1.5384 14.05962,3.13456 16.66667,3.54704 2.60704,0.41247 5.09132,0.965 5.52062,1.22783 0.4293,0.26283 5.5293,1.4628 11.33334,2.66661 5.80403,1.2038 11.45278,2.38604 12.55278,2.6272 10.51221,2.3046 53.08868,11.7976 59.33333,13.22916 4.4,1.00869 11.3,2.52216 15.33333,3.36327 4.03334,0.84111 10.93334,2.37927 15.33334,3.41813 4.4,1.03886 19.09999,4.34252 32.66666,7.34147 13.56667,2.99895 31.19478,6.92931 39.17359,8.73412 7.97881,1.80481 16.67881,3.62513 19.33334,4.04515 2.65452,0.42002 5.17039,0.97424 5.59082,1.23158 0.42043,0.25735 4.92043,1.36007 10,2.45048 11.27635,2.42066 28.83737,6.25444 46.39861,10.12937 7.23967,1.59744 14.13967,3.09717 15.33333,3.33272 1.19367,0.23555 11.79063,2.59644 23.5488,5.24644 22.2531,5.01528 24.90209,5.57555 32.6215,6.89955 2.56667,0.44023 12.95354,2.60566 23.08194,4.81207 10.1284,2.20641 18.72406,3.70287 19.10146,3.32547 0.3774,-0.37741 -3.19879,-11.39053 -7.94709,-24.47362 C 721.19948,488.06545 691.87042,367.52802 677.13318,254.98784 l -1.61665,-12.34548 -9.42495,-5.26562 c -5.18372,-2.89609 -14.82495,-8.53469 -21.42495,-12.53023 -6.6,-3.99554 -39,-23.023 -72,-42.28324 -33,-19.26025 -68.39999,-39.92897 -78.66666,-45.9305 C 477.84929,127.19167 420.165,93.659669 379.99998,70.364347 373.03331,66.323748 352.63331,54.486132 334.66665,44.058533 316.69998,33.630935 293.00772,19.901929 282.01718,13.549632 265.20024,3.8297995 262.61866,1.9325704 265.72236,1.5743874 c 2.71642,-0.3134894 9.56131,2.9988553 25.9828,12.5734596 12.26215,7.14949 42.09482,24.493364 66.29482,38.541941 24.2,14.048578 72.19999,41.937496 106.66666,61.975372 105.67867,61.43839 169.12455,98.09085 173.69368,100.34223 2.39819,1.18168 11.27363,6.16299 19.72318,11.06959 8.44956,4.90659 15.58653,8.69651 15.85995,8.42204 0.27342,-0.27447 -0.30756,-7.09903 -1.29107,-15.1657 -7.13589,-58.52843 -13.9602,-177.851745 -11.84259,-207.068128 0.84224,-11.62032642 1.076,-12.37618474 3.71118,-11.99999911 2.50753,0.35796244 2.85578,1.40881361 3.21329,9.69608351 0.23746,5.5044426 -0.25776,10.5254516 -1.21442,12.3129966 -3.30564,6.176642 0.35767,91.613407 6.90581,161.059047 3.88892,41.24363 5.66008,53.41112 7.71115,52.97396 0.92734,-0.19766 15.00092,-8.24391 31.27462,-17.88055 33.86087,-20.05108 89.11323,-52.60421 137.58853,-81.06327 18.33333,-10.7632 77.83751,-45.773108 132.2315,-77.799792 68.58025,-40.379411 100.05345,-58.2179054 102.66665,-58.1897898 2.8785,0.030969 3.2833,0.3246279 1.7142,1.2434192 -1.8018,1.0550641 -2.0287,7.8085256 -1.8465,54.9594516 0.1143,29.566118 0.909,63.356581 1.766,75.089911 10.782,147.62149 42.975,270.13977 104.0531,395.99997 34.0083,70.07898 74.005,132.84812 127.6489,200.3269 12.3641,15.55281 15.0918,19.77974 15.0573,23.33333 l -0.042,4.33976 -3.4488,-4 c -1.8968,-2.2 -5.2857,-6.05252 -7.5308,-8.56115 l -4.0821,-4.56115 -1.6531,3.89448 c -2.4163,5.69247 -7.3762,18.45963 -16.5343,42.56115 -4.4584,11.73333 -9.5073,24.93333 -11.2198,29.33333 -7.7398,19.88683 -14.5198,37.45918 -20.0635,52 -1.6775,4.4 -4.587,11.9 -6.4655,16.66667 -1.8785,4.76666 -4.9631,12.71285 -6.8545,17.65819 -1.8915,4.94534 -4.939,12.89153 -6.7724,17.6582 -3.4171,8.88462 -6.9643,18.12306 -14.5968,38.01693 -2.3914,6.23334 -7.7881,20.33334 -11.9925,31.33334 -4.2045,11 -9.1449,23.51439 -10.9787,27.80969 -1.8338,4.2954 -3.4374,8.4954 -3.5636,9.3334 -0.1261,0.838 -1.9386,5.7236 -4.0277,10.8569 -3.876,9.5242 -6.4562,16.1267 -14.5894,37.3333 -2.5313,6.6 -6.8404,17.7 -9.5759,24.6667 -5.731,14.5953 -16.9508,43.9826 -20.8376,54.5784 -1.4618,3.9847 -4.3703,11.0219 -6.4634,15.6381 -4.5175,9.9632 -6.152,7.168 16.668,28.503 44.8057,41.89 104.5922,92.2443 148.6667,125.2124 15.0318,11.2439 14.625,10.737 8.6,10.7193 -4.7673,-0.014 -7.8051,-2.0053 -32.0356,-21 -47.3187,-37.0939 -83.307,-67.8045 -124.3769,-106.137 -13.4635,-12.5661 -25.6192,-23.6745 -27.0127,-24.6853 -2.1713,-1.5749 -5.345,-1.441 -22.1876,0.9361 -10.8096,1.5257 -25.6377,3.4629 -32.9513,4.305 -7.3136,0.842 -14.4895,1.7606 -15.9466,2.0412 -1.4571,0.2806 -5.0733,0.8391 -8.036,1.2411 -2.9626,0.402 -6.8867,0.9887 -8.72,1.3038 -1.8333,0.3151 -5.4333,0.864 -8,1.2197 -25.9437,3.596 -138.37181,19.8209 -143.99999,20.7811 -4.03333,0.6881 -10.1583,1.5707 -13.61103,1.9613 -3.45274,0.3906 -10.05274,1.2693 -14.66667,1.9527 -4.61393,0.6833 -17.08896,2.5126 -27.7223,4.0649 -10.63333,1.5524 -20.83333,3.0558 -22.66666,3.3408 -1.83333,0.2851 -6.33333,0.934 -10,1.4421 -3.66667,0.5081 -7.86667,1.1458 -9.33333,1.417 -1.46667,0.2713 -5.36667,0.8381 -8.66667,1.2597 -3.3,0.4216 -7.5,0.9917 -9.33333,1.2669 -1.83333,0.2752 -18.33333,2.6531 -36.66667,5.2842 -18.33333,2.6311 -34.83333,5.014 -36.66666,5.2953 -5.02436,0.771 -14.90834,2.2138 -18.66667,2.7249 -4.46896,0.6077 -14.40108,2.0671 -19.33333,2.8408 -3.57546,0.5609 -3.78656,0.4119 -1.989,-1.4034 1.79199,-1.8097 10.54397,-3.4188 44.65567,-8.2101 2.93333,-0.4121 13.13333,-1.9261 22.66666,-3.3647 9.53333,-1.4385 21.83333,-3.2304 27.33333,-3.9819 5.5,-0.7515 11.5,-1.6333 13.33334,-1.9597 1.83333,-0.3263 6.33333,-0.9197 10,-1.3187 3.66666,-0.3989 7.92797,-0.9868 9.46956,-1.3064 3.61613,-0.7498 6.26736,-1.1431 40.53043,-6.0127 15.76667,-2.2408 30.16667,-4.3076 32,-4.5928 1.83333,-0.2853 6.33333,-0.9344 10,-1.4425 3.66667,-0.5081 7.86667,-1.1458 9.33333,-1.417 1.46667,-0.2713 5.36667,-0.8381 8.66667,-1.2597 3.3,-0.4215 7.5,-1.0033 9.33333,-1.2928 1.83333,-0.2895 5.43333,-0.8401 8,-1.2236 4.9207,-0.7353 58.68818,-8.4074 66.66666,-9.5127 2.56667,-0.3556 6.16667,-0.9043 8,-1.2194 1.83334,-0.315 6.03334,-0.9211 9.33333,-1.3468 3.3,-0.4256 11.1,-1.6148 17.3333,-2.6426 6.2334,-1.0278 14.0334,-2.217 17.3334,-2.6426 3.3,-0.4257 7.5,-1.0365 9.3333,-1.3574 1.8333,-0.3209 5.8833,-0.9022 9,-1.2917 15.4389,-1.9297 36.7245,-5.1244 48.3333,-7.2541 4.0334,-0.7399 10.0334,-1.7331 13.3334,-2.207 3.3,-0.4738 6.9,-1.0524 8,-1.2857 1.1,-0.2333 3.65,-0.47 5.6666,-0.5262 2.0167,-0.056 3.6667,-0.7879 3.6667,-1.6264 0,-0.8384 -4.05,-5.5273 -9,-10.4198 -27.3464,-27.0287 -60.4842,-62.5142 -82.8528,-88.7224 -7.5108,-8.8 -16.2165,-19 -19.346,-22.6667 -19.6669,-23.0424 -43.26414,-53.63958 -64.78265,-83.99999 -21.92443,-30.93312 -16.3829,-27.56361 -43.96645,-26.73363 -12.86198,0.38702 -35.08542,1.03979 -49.38542,1.45061 -14.3,0.41082 -29.3,0.99092 -33.33333,1.2891 -4.03333,0.29819 -19.33333,0.90973 -34,1.35898 -14.66666,0.44925 -29.36666,1.03229 -32.66666,1.29565 -3.3,0.26336 -18.3,0.84123 -33.33333,1.28416 -15.03334,0.44293 -31.23334,1.06851 -36,1.39018 -4.76667,0.32167 -19.16667,0.91926 -32,1.32797 -12.83333,0.40871 -26.63333,1.01426 -30.66667,1.34567 -4.03333,0.33141 -19.33333,0.95694 -33.99999,1.39006 -14.66667,0.43312 -29.36667,1.00571 -32.66667,1.27242 -3.3,0.26671 -18.3,0.91519 -33.33333,1.44108 -15.03333,0.52588 -29.43333,1.10146 -32,1.27907 -2.56666,0.17761 -9.31666,0.38722 -15,0.46581 -8.20942,0.1135 -10.33333,0.55189 -10.33333,2.13288 0,3.23765 27.16356,52.14158 49.78465,89.62988 55.71897,92.339 115.21535,175.6697 185.19189,259.3801 18.59215,22.2411 19.55581,23.6667 15.99852,23.6667 -2.55158,0 -5.10426,-1.4124 -7.83215,-4.3334 z m 428.17932,-156.9821 c 0.4472,-0.7235 2.5383,-5.9735 4.647,-11.6667 3.973,-10.7262 5.6251,-15.0376 17.7611,-46.3512 3.9791,-10.2666 14.268,-36.9666 22.8643,-59.3333 8.5963,-22.3667 18.8449,-48.7667 22.7747,-58.66666 3.9297,-9.9 8.0317,-20.4 9.1153,-23.33333 2.8691,-7.76596 8.0246,-21.30867 12.182,-32 1.9961,-5.13333 4.9921,-12.93333 6.6577,-17.33333 1.6656,-4.4 4.2579,-11 5.7607,-14.66667 1.5028,-3.66667 7.3284,-18.66666 12.9459,-33.33333 5.6175,-14.66667 12.3172,-32.06666 14.8882,-38.66666 4.7142,-12.1015 8.0699,-20.77826 14.1808,-36.66667 1.8334,-4.76667 4.8583,-12.56666 6.7222,-17.33333 18.171,-46.47032 18.5629,-47.60464 16.8198,-48.68194 -2.8213,-1.74363 -34.4216,-45.11562 -51.4758,-70.65139 -47.2762,-70.78805 -80.6843,-133.8379 -109.3407,-206.35462 -38.8241,-98.24642 -61.3193,-196.77753 -70.694,-309.64535 -1.7117,-20.60829 -2.344,-42.87126 -2.3952,-84.332779 -0.038,-30.983031 -0.2831,-56.3330295 -0.5442,-56.3333294 -0.261,-3e-4 -6.861,3.8145374 -14.6666,8.4774164 -7.8057,4.662879 -24.3921,14.488367 -36.8588,21.834417 -76.14027,44.866071 -167.56895,98.809205 -189.33332,111.707095 -13.93333,8.25711 -54.73333,32.24892 -90.66666,53.31514 -35.93333,21.06623 -66.0863,39.00834 -67.0066,39.87135 -1.34088,1.25743 -1.26646,4.47182 0.37464,16.18157 11.24555,80.24051 26.82095,154.67929 48.10212,229.89222 12.64562,44.69272 40.7628,127.51471 44.56516,131.27115 1.43745,1.42009 2.72532,0.24878 14.68943,-13.35999 1.86527,-2.12169 9.31429,-10.45762 16.55336,-18.52428 7.23907,-8.06667 17.11293,-19.08735 21.94192,-24.49041 4.82898,-5.40306 9.97997,-11.14286 11.44663,-12.75512 1.46667,-1.61225 6.86667,-7.61225 12,-13.33333 5.13333,-5.72108 10.53333,-11.72108 12,-13.33333 1.46667,-1.61226 6.62749,-7.39157 11.46849,-12.84293 20.08609,-22.6185 35.01621,-39.28607 35.75113,-39.91154 0.43082,-0.36667 4.68265,-5.14303 9.44851,-10.61413 4.76586,-5.4711 9.5652,-10.91326 10.6652,-12.09369 4.583,-4.9181 24.54444,-27.00469 37.31907,-41.29218 7.54036,-8.43333 18.01843,-20.13333 23.2846,-26 5.26617,-5.86666 11.93472,-13.33767 14.81892,-16.60224 2.8842,-3.26456 6.1441,-6.90381 7.2441,-8.0872 1.1,-1.1834 6.2,-6.88347 11.3333,-12.66681 5.1333,-5.78335 10.2333,-11.46004 11.3333,-12.61487 1.1,-1.15483 9.4571,-10.48375 18.5713,-20.73095 20.6362,-23.20153 28.6212,-31.29792 30.8673,-31.29792 0.9632,0 -0.3165,2.19259 -2.8437,4.87242 -6.2234,6.59928 -13.4677,14.66416 -32.0923,35.72759 -3.2098,3.63001 -14.2359,15.95961 -24.5026,27.39911 -10.2666,11.43951 -22.8666,25.49018 -27.99996,31.22373 -5.13333,5.73354 -10.53333,11.75449 -12,13.37988 -6.70545,7.43113 -21.55591,24.03115 -23.60697,26.38816 -4.18351,4.80757 -20.26049,22.76546 -33.68621,37.6273 -7.31125,8.09332 -14.51125,16.12675 -16,17.85206 -1.48875,1.72531 -3.90682,4.47127 -5.37348,6.10214 -1.46667,1.63087 -6.86667,7.71104 -12,13.51149 -5.13333,5.80045 -12.93333,14.46731 -17.33333,19.25968 -4.4,4.79237 -12.2,13.46323 -17.33334,19.26858 -8.38067,9.4778 -28.92471,32.386 -40.10589,44.72117 -2.32655,2.56667 -13.23422,14.74988 -24.23928,27.07381 l -20.0092,22.40714 2.54174,6.68931 c 6.12457,16.11857 21.7502,52.5133 35.13258,81.82974 27.25178,59.69975 70.16867,136.20158 109.78386,195.69604 16.37552,24.59291 19.52478,27.91829 24.55987,25.93331 0.91831,-0.36202 9.97184,-17.07673 20.11896,-37.14379 10.14713,-20.06707 26.27678,-51.78557 35.84365,-70.48557 22.7705,-44.50847 43.2607,-84.62725 65.034,-127.33333 9.721,-19.06666 23.524,-46.06666 30.6733,-59.99999 16.6211,-32.39301 47.9212,-93.65638 56.0863,-109.77737 3.4666,-6.84422 7.5867,-13.34326 9.1558,-14.4423 1.926,-1.34901 -2.4152,8.32601 -13.361,29.77737 -8.9177,17.4766 -24.308,47.67563 -34.2006,67.10897 -9.8926,19.43333 -27.0269,53.03333 -38.0762,74.66666 -11.0493,21.63333 -28.3399,55.53333 -38.4234,75.33333 -23.1999,45.55513 -38.366,75.28265 -56.45896,110.66666 -7.87449,15.4 -18.50388,36.19192 -23.62088,46.20427 -6.12103,11.97692 -10.18125,18.43378 -11.86914,18.87518 -1.41103,0.36899 -2.56551,1.56419 -2.56551,2.65601 0,5.29217 65.88669,90.06409 101.20179,130.20939 38.8745,44.1917 93.5537,101.3885 96.9256,101.3885 0.9434,0 2.0811,-0.592 2.5282,-1.3155 z"
       id="path1" />
  </g>
</svg>
