<?xml version="1.0" encoding="UTF-8" standalone="no"?>
<!-- Created with Inkscape (http://www.inkscape.org/) -->

<svg
   version="1.1"
   id="svg1"
   width="1333.3333"
   height="1333.3333"
   viewBox="0 0 1333.3333 1333.3333"
   sodipodi:docname="Curve90B_L.svg"
   inkscape:version="1.4.2 (ebf0e940d0, 2025-05-08)"
   xmlns:inkscape="http://www.inkscape.org/namespaces/inkscape"
   xmlns:sodipodi="http://sodipodi.sourceforge.net/DTD/sodipodi-0.dtd"
   xmlns="http://www.w3.org/2000/svg"
   xmlns:svg="http://www.w3.org/2000/svg">
  <defs
     id="defs1" />
  <sodipodi:namedview
     id="namedview1"
     pagecolor="#505050"
     bordercolor="#eeeeee"
     borderopacity="1"
     inkscape:showpageshadow="0"
     inkscape:pageopacity="0"
     inkscape:pagecheckerboard="0"
     inkscape:deskcolor="#505050"
     showgrid="false"
     inkscape:zoom="0.59400004"
     inkscape:cx="666.66663"
     inkscape:cy="666.66663"
     inkscape:window-width="1920"
     inkscape:window-height="995"
     inkscape:window-x="0"
     inkscape:window-y="0"
     inkscape:window-maximized="1"
     inkscape:current-layer="g1" />
  <g
     inkscape:groupmode="layer"
     inkscape:label="Image"
     id="g1">
    <path
       style="fill:#ffff00;stroke:none"
       d="m 0,245.33332 v 9.33333 c 193.67127,0 390.24233,26.97974 566.66663,112.34464 85.67989,41.45719 166.36124,97.17626 233.31379,164.9938 165.99486,168.13956 247.25608,398.49257 274.89298,629.32821 6.82,56.9637 13.1265,114.6189 13.1265,172 h 6.6667 c 0,-288.1486 -84.0103,-599.98203 -290.68618,-809.32821 C 741.57312,460.79148 666.76176,408.99664 587.99996,368.34462 408.48887,275.69196 199.75107,245.33332 0,245.33332 m 309.33331,69.33333 c -27.38077,28.6088 -51.99513,60.52628 -77.69547,90.66666 -50.10931,58.76627 -100.40817,117.36498 -150.665626,175.99999 -19.10353,22.28792 -38.603501,44.25642 -57.53806,66.66666 -8.268937,9.78678 -18.8066731,18.46435 -19.4341542,32 H 0 v 8 c 11.581578,2.36312 13.437026,16.90592 16.922838,26.66666 9.23356,25.85531 19.386323,51.41097 28.410493,77.33333 27.528695,79.07747 57.349609,157.54207 86.599789,235.99995 7.60591,20.4014 14.76707,40.9751 22.47736,61.3334 2.76053,7.2889 4.54317,19.2132 10.92284,24 1.21676,-15.9762 -6.39809,-30.4867 -11.93312,-45.3334 -10.08209,-27.0433 -20.13363,-54.143 -29.8107,-81.33329 C 88.2273,887.30716 52.625251,787.73205 14.666666,689.33329 c 20.112761,-3.7338 42.464271,0.48535 62.666663,2.44027 35.724041,3.45711 71.540161,7.75472 106.666661,15.4589 12.50537,2.74276 24.91347,5.8313 37.33333,8.93628 4.4152,1.10376 11.86393,1.61474 14.6286,5.73763 3.94588,5.88419 -0.64419,19.41373 -1.18107,26.09358 -2.07524,25.8195 -6.10274,51.50676 -7.99589,77.33333 -5.57733,76.08716 -15.41933,152.0808 -23.01027,228.00002 -2.99911,29.9948 -8.48605,60.5307 -9.10804,90.6666 C 142.07443,1091.4134 71.607687,1078.6666 0,1078.6666 v 10.6667 c 12.01621,0 24.261351,-2.7659 35.999998,-2.4949 39.741132,0.9175 82.017102,12.7198 115.999992,33.1615 14.56649,8.7622 33.96564,21.5343 41.33333,37.3334 11.76906,3.6665 21.95734,28.0796 26.95884,38.6666 20.5955,43.5961 23.70783,89.9549 23.70783,137.3334 h 7.99999 c 0,-34.9992 -3.59847,-68.4034 -10.66666,-102.6667 12.07137,-3.8656 16.13185,-16.3128 21.74485,-26.6667 12.57133,-23.1893 25.22823,-46.3973 38.25514,-69.3333 37.03959,-65.2144 72.6661,-131.3965 108.41154,-197.33332 17.85058,-32.92757 39.85852,-65.42074 54.25512,-100 18.72205,11.71061 35.21326,30.19613 49.71399,46.66667 24.67952,28.03206 47.30948,57.0511 66.2716,89.33332 6.66984,11.35507 13.12085,22.88933 19.01029,34.66663 1.97514,3.9497 6.50033,9.9709 5.45061,14.6142 -1.78056,7.876 -16.03439,16.2164 -21.77983,21.5 -21.07812,19.384 -42.78983,38.0808 -63.99999,57.3189 -57.986,52.5946 -116.47921,104.6388 -174.66666,157.0082 -25.02828,22.5258 -59.26721,44.7038 -78.66666,72.2254 15.07837,-2.9758 24.91497,-15.2139 35.99999,-25.1122 21.36225,-19.0751 42.71184,-38.1695 64,-57.3291 81.00398,-72.9047 166.14464,-142.6434 243.99999,-218.892 29.35131,75.6538 54.1951,151.8287 61.33333,233.3333 1.50968,17.2377 2.31738,34.8754 4.56583,52 0.60059,4.5741 -0.62333,12.7869 2.33952,16.5288 2.46908,3.1182 8.2758,2.1352 11.76131,2.1379 l -2.66667,-24 -5.33333,2.6666 c -0.0638,-96.7112 -29.42907,-193.5341 -63.99999,-282.6666 29.39851,13.0315 61.61637,20.6146 91.99999,31.1255 70.52661,24.3977 141.4689,47.6006 211.99999,72 26.60091,9.2022 53.48331,17.6933 80.00002,27.1306 17.4784,6.2207 34.58,14.7806 53.3333,12.4105 v -1.3333 c -30.6169,-7.0866 -60.90014,-20.5203 -90.66666,-30.6626 -67.97412,-23.1606 -135.88345,-46.6318 -203.99999,-69.3374 -35.56827,-11.8561 -71.82494,-22.9219 -106.66666,-36.7336 -11.70048,-4.6381 -28.20662,-6.2643 -38.38273,-13.7242 -6.87569,-5.0404 -10.15336,-16.83 -13.96191,-24.20886 -8.48372,-16.43685 -18.00443,-32.51432 -28.11417,-48 -27.92062,-42.76774 -62.34639,-77.47582 -98.20784,-113.33332 103.04235,0 206.29511,-4 309.33331,-4 h 90.66666 c 16.50277,0 36.90983,1.35734 52,-5.33334 v -1.33333 c -107.60164,0 -215.09561,2.66667 -322.66665,2.66667 -33.37971,0 -66.77148,0.79337 -99.99999,0.0195 -11.36495,-0.26465 -24.94584,3.40861 -36,0.9095 -8.29634,-1.87565 -15.99833,-10.43343 -22.66666,-15.42692 -13.78544,-10.32316 -28.02836,-19.87109 -42.66667,-28.93627 -44.06119,-27.28605 -95.90061,-52.82137 -146.66666,-64.56584 v -1.33333 c 34.02973,-8.08285 69.37594,-29.18799 101.33333,-43.59257 61.81295,-27.86185 124.31262,-54.57279 186.66666,-81.17907 23.62146,-10.07918 47.04691,-20.58821 70.66666,-30.66666 12.23197,-5.21932 25.93856,-8.8466 33.33333,-20.56169 -33.67476,9.2102 -66.64172,28.20947 -98.66666,42.10083 l -202.66665,87.79833 c -23.96188,10.39404 -47.80713,21.0568 -72,30.90536 -9.16056,3.72916 -19.50456,10.51993 -29.33333,11.88883 -7.87931,1.09749 -17.72467,-3.62663 -25.33333,-5.52881 -17.65544,-4.41382 -35.40062,-8.37646 -53.33333,-11.49788 -39.22033,-6.82683 -80.127827,-14.07609 -119.999996,-14.33236 -5.085238,-0.0326 -35.965316,0.37525 -34.973249,-6.86413 0.944423,-6.89169 12.459355,-15.90096 16.853908,-21.13684 C 43.881187,636.3971 59.085257,618.06344 74.666662,599.99996 130.7597,534.97132 186.21052,469.36854 241.90326,403.99998 c 17.84398,-20.9441 35.84404,-41.76294 53.7356,-62.66667 5.8914,-6.88322 17.301,-16.5804 13.69445,-26.66666 m -69.33332,914.66665 c -3.95795,-19.1248 -12.84241,-38.0361 -22.93929,-54.6667 -4.89348,-8.0601 -15.4583,-17.252 -16.86214,-26.6667 -1.30492,-8.7512 1.30908,-19.2402 2.2469,-28 2.23594,-20.8848 4.63837,-41.7604 6.66152,-62.6666 6.75545,-69.80764 14.967,-139.501 21.45988,-209.33335 2.88892,-31.07088 7.74589,-62.18262 9.48045,-93.33333 0.30298,-5.44124 0.17991,-29.03597 5.70988,-30.96403 9.91406,-3.4567 33.87422,9.38753 43.57613,12.75619 44.3989,15.41626 87.59248,37.0498 126.66665,63.09667 10.91696,7.27735 21.6744,14.73047 32,22.83138 3.47319,2.72485 9.90898,6.06869 10.34571,10.99894 0.67549,7.62598 -9.32768,20.12663 -13.01237,26.61418 -12.26473,21.59423 -23.77006,43.61751 -35.81482,65.33333 -41.5402,74.89392 -81.1041,151.00112 -123.62345,225.33332 -10.33014,18.0592 -20.26285,36.3878 -30.20267,54.6667 -4.11739,7.5717 -8.06358,19.6706 -15.69238,24 z"
       id="path1" />
  </g>
</svg>
