<?xml version="1.0" encoding="UTF-8" standalone="no"?>
<!-- Created with Inkscape (http://www.inkscape.org/) -->

<svg
   version="1.1"
   id="svg1"
   width="1333.3333"
   height="1333.3333"
   viewBox="0 0 1333.3333 1333.3333"
   sodipodi:docname="CurveT_DBL.svg"
   inkscape:version="1.4.2 (ebf0e940d0, 2025-05-08)"
   xmlns:inkscape="http://www.inkscape.org/namespaces/inkscape"
   xmlns:sodipodi="http://sodipodi.sourceforge.net/DTD/sodipodi-0.dtd"
   xmlns="http://www.w3.org/2000/svg"
   xmlns:svg="http://www.w3.org/2000/svg">
  <defs
     id="defs1" />
  <sodipodi:namedview
     id="namedview1"
     pagecolor="#505050"
     bordercolor="#eeeeee"
     borderopacity="1"
     inkscape:showpageshadow="0"
     inkscape:pageopacity="0"
     inkscape:pagecheckerboard="0"
     inkscape:deskcolor="#505050"
     showgrid="false"
     inkscape:zoom="0.59400004"
     inkscape:cx="666.66662"
     inkscape:cy="666.66662"
     inkscape:window-width="1920"
     inkscape:window-height="995"
     inkscape:window-x="0"
     inkscape:window-y="0"
     inkscape:window-maximized="1"
     inkscape:current-layer="g1" />
  <g
     inkscape:groupmode="layer"
     inkscape:label="Image"
     id="g1">
    <path
       style="fill:#ffff00;stroke:none"
       d="m 4.700407,1335.0168 v -1.3333 c 47.1253,-33.8767 91.085,-72.0578 134.666603,-110.2871 11.4297,-10.0259 22.4522,-20.4121 33.3333,-31.0267 3.5567,-3.4695 11.1164,-7.7902 12.4507,-12.8066 1.9184,-7.213 -8.3553,-24.2645 -11.1173,-31.213 -10.7319,-26.9981 -21.1746,-54.1534 -31.4352,-81.3333 C 101.88711,959.17436 59.717507,851.82052 18.033707,744.35015 l -14.6667,14.66667 c 0.011,-14.43726 8.9685,-22.48723 17.4928,-33.35287 13.0289,-16.60742 25.7829,-33.51977 38.1152,-50.64713 41.842403,-58.11141 77.863703,-122.12719 105.924903,-187.99999 44.4821,-104.42008 71.4524,-213.75925 82.2408,-326.66664 3.2542,-34.0574 4.2263,-68.434998 4.2263,-102.666698 0,-16.3388 -3.7452,-36.2692 0,-51.9999989 l -4,-1.3333 v -1.3333 c 15.7552,0.045 28.1241,10.2328999 41.3333,17.8991999 26.3173,15.273899 52.56046,30.735699 78.66672,46.367199 96.01236,57.488898 193.88679,111.972998 289.33331,170.400188 2.60303,-60.61609 13.33334,-120.44889 13.33334,-181.333288 0,-7.9385 1.78715,-16.1491 1.25105,-24 -0.66719,-9.7709 -11.83512,-30.0929989 5.41561,-30.666699 0,78.227299 -3.52197,155.698997 -13.33333,233.333387 100.68807,-53.03389 197.08587,-114.77239 295.99997,-171.041188 24.1031,-13.7114 48.14432,-27.6266 71.99992,-41.7633 14.5872,-8.644199 27.9327,-19.1935989 45.3334,-19.1954989 v 1.3333 c -33.6089,15.7102999 -65.1488,37.7253989 -97.33332,56.1995989 -68.1616,39.125402 -136.6062,78.036098 -204,118.467098 -26.06329,15.6359 -52.35886,31.0958 -78.66664,46.28809 -9.33659,5.3916 -27.35526,11.727 -33.34879,20.8168 -5.8263,8.8362 -4.62805,26.5213 -6.323,36.8951 -4.80599,29.4144 -9.6709,58.76827 -15.52779,87.99996 -17.06103,85.15169 -44.64652,165.71239 -71.46708,247.99998 38.39958,-5.17089 76.80965,-16.45231 114.66666,-24.76749 71.58024,-15.72241 143.02994,-32.04932 214.66664,-47.51229 27.5919,-5.95589 55.0669,-12.4755 82.6667,-18.38688 12.82,-2.74585 26.09852,-8.19482 38.66662,-2.66666 v 1.33333 c -33.96432,4.38623 -67.89642,14.71549 -101.33332,22.10083 -74.6678,16.4921 -149.2502,33.48429 -223.99997,49.61938 -31.15755,6.72542 -62.41321,13.38517 -93.33333,21.11523 -9.74569,2.43636 -26.48295,2.6814 -34.30041,9.24992 -7.61198,6.39583 -10.49829,22.27059 -14.26542,31.24796 -10.54623,25.13257 -21.80965,49.90576 -33.17904,74.66667 -20.55566,44.76725 -44.88378,88.80541 -70.82096,130.66666 -14.38696,23.2198 -33.08125,46.07275 -44.76749,70.66666 l 326.66665,14.54736 97.33327,3.89298 34.6667,2.89299 c 11.4415,-31.43921 30.3869,-61.82226 44.9887,-91.99999 18.4052,-38.03817 34.2025,-77.80786 49.1111,-117.33333 58.75502,-155.77164 97.11132,-319.68333 113.67482,-485.33327 6.4224,-64.22979 10.892,-128.75859 10.892,-193.333388 0,-15.5549 -0.074,-31.1119 0,-46.6666 0.031,-6.350999 -0.4362,-14.9412989 5.3322,-18.6666989 6.3077,33.9757989 2.4719,74.9808989 0.1193,109.3332969 -3.8741,56.572 -5.8475,112.81779 -11.8981,169.33339 -29.3438,274.09646 -119.25632,541.05397 -261.02052,777.33322 -44.093,73.4902 -93.77255,142.8178 -146.02458,210.6667 -11.87948,15.4255 -24.38306,30.3782 -36.84566,45.3333 -8.14368,9.7724 -13.4207,18.6187 -26.99589,18.6667 23.55847,-34.4532 53.74157,-65.6387 79.43416,-98.6667 43.85847,-56.3803 84.35547,-116.0932 121.09867,-177.3333 17.9151,-29.8593 44.4402,-63.74821 54.1338,-97.33333 l -163.99997,-6.61418 -158.66666,-5.50512 -101.33333,-3.8807 -35.94649,0.037 -17.18518,21.2963 -37.5391,50.66673 -96.22224,111.9999 -45.107,46.6667 c 35.2344,0.7272 71.6856,10.9111 106.6667,15.6235 73.8642,9.9502 147.55792,21.3845 221.33331,32.0154 30.22985,4.3561 60.45068,8.6599 90.66666,13.1328 15.7773,2.3355 31.76086,2.4108 45.33333,11.2283 -9.15401,3.7337 -24.97888,-1.6317 -34.66667,-3.0277 -28.01379,-4.0368 -56.00243,-8.2583 -83.99999,-12.4023 -82.15742,-12.1606 -164.39892,-23.9478 -246.66664,-35.4105 -23.5463,-3.2807 -47.1572,-6.3262 -70.6667,-9.7305 -9.7033,-1.405 -23.7086,-6.2769 -33.3333,-4.286 -13.5502,2.8029 -29.6668,26.029 -40,35.143 -33.7353,29.7548 -67.463103,59.2625 -102.666703,87.3128 -15.3048,12.195 -30.2361,29.0656 -50.6666,29.0679 m 383.999953,-392 c -12.0378,-9.67358 -18.82377,-28.9908 -25.66256,-42.66666 -14.05342,-28.10335 -28.61567,-55.89795 -42.66669,-84 -30.3525,-60.70507 -62.1532,-120.72077 -92.6739,-181.33332 -19.8496,-39.42041 -38.0882,-80.55924 -60.3302,-118.66666 11.5873,6.25627 15.3443,18.04281 21.0041,29.33333 9.8405,19.63037 20.1664,39.01587 29.9918,58.66667 39.0681,78.13618 80.2802,155.2106 119.34156,233.33332 12.04529,24.09057 24.60938,47.90185 36.65845,71.99999 3.13366,6.26734 8.163,22.9869 14.85697,25.83643 7.05172,3.00179 12.06482,-8.11109 15.10291,-12.50309 11.7611,-17.00253 22.79544,-34.48959 33.77774,-52 35.42786,-56.4869 67.22408,-116.11498 93.64095,-177.33332 6.70243,-15.53223 13.60734,-30.95557 19.89197,-46.66667 2.07132,-5.17814 7.01224,-12.96118 6.22534,-18.66666 -1.34819,-9.77474 -17.33114,-22.32805 -23.85803,-29.33334 -20.78284,-22.30615 -40.54842,-45.55842 -61.1862,-67.99999 -75.78788,-82.41194 -150.45446,-166.35098 -224.11426,-250.66665 12.5584,3.021 19.8093,14.8596 28.0998,24 19.2427,21.2152 38.0909,42.78499 57.33332,63.99999 52.17236,57.52051 103.72375,115.61067 155.67492,173.33333 22.55375,25.05932 44.65287,59.24202 72.22533,78.66666 34.55469,-89.09049 58.88342,-181.07275 77.59977,-274.66665 4.77148,-23.86043 8.62484,-47.91993 12.09469,-72.00003 1.07344,-7.4493 5.62418,-20.6102 2.81481,-27.7531 -3.16333,-8.0428 -20.02506,-13.9958 -27.17594,-18.146 -25.45475,-14.77339 -50.47648,-30.31469 -75.99999,-44.96709 -63.04228,-36.1909 -125.66573,-73.3338 -187.99999,-110.733498 -34.82552,-20.8949 -69.87952,-45.2248 -106.66672,-62.4002989 0,44.1232989 1.5692,87.8714989 -1.4527,131.9999969 -8.7176,127.30449 -40.3544,253.31732 -93.6254,369.33334 -25.355,55.21907 -55.7934,108.61734 -90.289103,158.66666 -11.2061,16.25862 -22.5343,32.25577 -34.4599,47.99999 -4.1168,5.43498 -12.7135,13.02401 -13.5823,20 -1.2157,9.76083 8.7241,25.52621 12.143,34.66667 11.1783,29.88558 22.7508,59.70719 34.5998,89.33333 26.007,65.02587 50.454203,130.70002 75.747903,196.00002 14.7411,38.0565 33.5076,76.637 44.2521,116 7.8432,-2.2014 13.0458,-9.0458 18.6666,-14.6667 11.7969,-11.7969 22.9751,-24.1431 34.6718,-36 37.3411,-37.8522 70.9439,-79.5238 103.71509,-121.3333 13.48637,-17.20592 34.89522,-37.62129 41.61316,-58.6667 m -141.33335,-662.66662 1.3333,-1.3333 z"
       id="path1" />
  </g>
</svg>
