<?xml version="1.0" encoding="UTF-8" standalone="no"?>
<!-- Created with Inkscape (http://www.inkscape.org/) -->

<svg
   version="1.1"
   id="svg1"
   width="1333.3333"
   height="1333.3333"
   viewBox="0 0 1333.3333 1333.3333"
   sodipodi:docname="Curve90R_T.svg"
   inkscape:version="1.4.2 (ebf0e940d0, 2025-05-08)"
   xmlns:inkscape="http://www.inkscape.org/namespaces/inkscape"
   xmlns:sodipodi="http://sodipodi.sourceforge.net/DTD/sodipodi-0.dtd"
   xmlns="http://www.w3.org/2000/svg"
   xmlns:svg="http://www.w3.org/2000/svg">
  <defs
     id="defs1" />
  <sodipodi:namedview
     id="namedview1"
     pagecolor="#505050"
     bordercolor="#eeeeee"
     borderopacity="1"
     inkscape:showpageshadow="0"
     inkscape:pageopacity="0"
     inkscape:pagecheckerboard="0"
     inkscape:deskcolor="#505050"
     showgrid="false"
     inkscape:zoom="0.59400004"
     inkscape:cx="666.66663"
     inkscape:cy="666.66663"
     inkscape:window-width="1920"
     inkscape:window-height="995"
     inkscape:window-x="0"
     inkscape:window-y="0"
     inkscape:window-maximized="1"
     inkscape:current-layer="g1" />
  <g
     inkscape:groupmode="layer"
     inkscape:label="Image"
     id="g1">
    <path
       style="fill:#ffff00;stroke:none"
       d="m 245.33332,0 c 0,199.75023 30.35852,408.48948 123.0113,587.99996 40.65226,78.76192 92.44665,153.57307 155.66047,215.98046 209.34651,206.67558 521.17841,290.68618 809.32821,290.68618 v -6.6667 c -57.381,0 -115.0367,-6.3064 -172,-13.1265 C 930.49718,1047.2361 700.14514,965.97528 532.00509,799.98042 464.18751,733.02803 408.46824,652.34648 367.01129,566.66663 281.64647,390.24159 254.66665,193.67186 254.66665,0 h -9.33333 m 434.66664,0 v 3.9999998 c -13.5356,0.6275227 -22.21313,11.1651202 -32,19.4341622 -21.50985,18.173827 -42.66666,36.829099 -64,55.2325 -59.79707,51.584628 -119.6739,103.130688 -179.99998,154.100818 -18.77861,15.86621 -37.2874,32.05298 -56,47.99585 -10.98049,9.35522 -24.887,18.16015 -33.33333,29.90332 12.98549,-1.07056 21.23826,-10.37508 30.66666,-18.49284 17.71554,-15.25285 35.84827,-30.05428 53.33333,-45.57405 65.53414,-58.16838 133.54247,-113.65698 199.99999,-170.773593 18.53788,-15.93229 37.27925,-31.566323 56,-47.278805 5.23575,-4.39445 14.24524,-15.909586 21.13684,-16.854003 7.23929,-0.992025 6.83154,29.8881 6.86421,34.973305 0.25627,39.872312 7.5057,80.779536 14.33228,119.999996 3.12134,17.93269 7.08406,35.67789 11.49796,53.33333 1.90218,7.60872 6.62606,17.45393 5.52873,25.33333 -1.36882,9.82877 -8.15967,20.17277 -11.88883,29.33333 -9.84864,24.19279 -20.51132,48.03808 -30.90536,72 L 583.43413,549.3333 c -13.8916,32.02498 -32.89042,64.99186 -42.10083,98.66666 11.71505,-7.39477 15.34237,-21.1014 20.56173,-33.33333 10.07853,-23.61979 20.58736,-47.04516 30.66666,-70.66666 26.60653,-62.35425 53.31714,-124.85359 81.17903,-186.66666 14.40466,-31.95743 35.50964,-67.30362 43.59257,-101.33333 h 1.33333 c 11.74488,50.76611 37.27987,102.6053 64.56584,146.66666 9.0651,14.63827 18.61311,28.88119 28.93619,42.66667 4.99357,6.66845 13.55127,14.37019 15.427,22.66666 2.50602,11.08447 -1.17529,24.60034 -0.9095,36 0.77466,33.22941 -0.0195,66.62052 -0.0195,99.99999 0,107.5708 -2.66667,215.06575 -2.66667,322.66665 h 1.33333 c 6.69409,-15.09822 5.33334,-35.48486 5.33334,-52 v -90.66666 c 0,-103.03718 4,-206.29214 4,-309.33331 35.85758,35.86132 70.56542,70.28735 113.33332,98.20784 15.48576,10.1097 31.56315,19.63053 48,28.11417 7.37886,3.80851 19.16836,7.08618 24.20886,13.96191 7.4599,10.17619 9.086,26.68213 13.7242,38.38273 13.8117,34.84164 24.8775,71.09839 36.7336,106.66666 22.7055,68.11654 46.1768,136.0262 69.3374,203.99999 10.1423,29.76652 23.5759,60.04976 30.6626,90.66666 h 1.3333 c 2.3701,-18.7533 -6.1897,-35.855 -12.4105,-53.3333 -9.4374,-26.51663 -17.9283,-53.39919 -27.1306,-80.00002 -24.3997,-70.531 -47.602,-141.47355 -72,-211.99999 -10.511,-30.38367 -18.0942,-62.60131 -31.1255,-91.99999 89.1321,34.57116 185.9555,63.93623 282.6666,63.99999 l -2.6666,5.33333 24,2.66667 c -0,-3.48551 0.9804,-9.29219 -2.1379,-11.76131 -3.7419,-2.96289 -11.9547,-1.73893 -16.5288,-2.33952 -17.1245,-2.24845 -34.7624,-3.05615 -52,-4.56583 -81.5046,-7.13823 -157.6795,-31.98202 -233.3333,-61.33333 76.249,-77.85457 145.9873,-162.99576 218.892,-243.99999 19.1596,-21.28816 38.254,-42.63777 57.3291,-64 9.8983,-11.08504 22.1364,-20.92162 25.1122,-35.99999 -27.5216,19.39949 -49.6996,53.63834 -72.2254,78.66666 -52.3693,58.18758 -104.4135,116.68066 -157.0082,174.66666 -19.238,21.21012 -37.935,42.92195 -57.3189,63.99999 -5.2837,5.74552 -13.624,19.99919 -21.5,21.77978 -4.6435,1.04981 -10.6643,-3.47542 -14.6142,-5.4506 -11.77739,-5.88948 -23.31148,-12.34041 -34.66663,-19.01025 -32.28214,-18.96191 -61.30142,-41.59212 -89.33332,-66.27156 -16.47062,-14.50081 -34.95581,-30.99202 -46.66667,-49.71403 34.57943,-14.39697 67.07226,-36.40454 100,-54.25512 65.93692,-35.74536 132.11892,-71.37191 197.33332,-108.41154 22.9361,-13.02701 46.144,-25.68391 69.3333,-38.25512 10.3538,-5.61296 22.8011,-9.6735 26.6667,-21.74487 34.2632,7.06836 67.6675,10.66666 102.6667,10.66666 v -7.99999 c -47.3785,0 -93.7373,-3.11231 -137.3334,-23.70785 -10.756,-5.0813 -34.6782,-15.07218 -38.6666,-26.95882 -15.799,-7.36784 -28.5712,-26.76684 -37.3334,-41.33333 -20.4417,-33.98283 -32.244,-76.258946 -33.1615,-115.999992 -0.271,-11.738606 2.4949,-23.983804 2.4949,-35.999998 h -10.6667 c 0,71.60758 12.7467,142.07454 65.3333,194.66665 -30.1358,0.62199 -60.6718,6.10881 -90.6666,9.108 -75.91897,7.59122 -151.91294,17.43294 -228.00002,23.01033 -25.82666,1.89315 -51.51383,5.92049 -77.33333,7.99585 -6.67985,0.53695 -20.20939,5.12695 -26.09358,1.18107 -4.12272,-2.76465 -4.63387,-10.2133 -5.73771,-14.62858 -3.10498,-12.41976 -6.19344,-24.82804 -8.9362,-37.33333 -7.70426,-35.12655 -12.00179,-70.94262 -15.45882,-106.666661 -1.955,-20.20231 -6.1744,-42.554034 -2.44035,-62.666663 98.39892,37.957517 197.97403,73.560217 297.33332,108.922844 27.19029,9.67716 54.28999,19.7286 81.33329,29.81071 14.8467,5.53499 29.3571,13.14982 45.3334,11.9331 -4.7869,-6.37972 -16.7111,-8.16227 -24,-10.92285 -20.3583,-7.71037 -40.9319,-14.87142 -61.3334,-22.47737 C 949.54202,102.68294 871.07758,72.862137 791.99995,45.333331 766.07767,36.309161 740.52185,26.15633 714.66662,16.922851 704.90596,13.437092 690.36299,11.581542 687.99996,0 h -8 m 549.33334,239.99999 c -4.3295,7.62874 -16.4283,11.57495 -24,15.69238 -18.2789,9.93986 -36.6075,19.87247 -54.6667,30.20263 -74.3324,42.51937 -150.4394,82.08309 -225.33332,123.62353 -21.71574,12.04484 -43.73918,23.54997 -65.33333,35.81478 -6.48755,3.68473 -18.9882,13.68782 -26.61418,13.01237 -4.93017,-0.43669 -8.27417,-6.87256 -10.99902,-10.34571 -8.10083,-10.3256 -15.55395,-21.08309 -22.83122,-32 -26.04703,-39.07413 -47.68017,-82.26781 -63.09675,-126.66665 -3.36874,-9.70191 -16.21273,-33.66203 -12.75611,-43.57617 1.92806,-5.53003 25.52279,-5.40682 30.96395,-5.7098 31.15071,-1.73478 62.26245,-6.59164 93.33333,-9.48047 69.83219,-6.49276 139.52579,-14.70451 209.33335,-21.45988 20.9062,-2.02311 41.7818,-4.42562 62.6666,-6.66154 8.76,-0.93782 19.2487,-3.55192 28,-2.2469 9.4148,1.40389 18.6065,11.96858 26.6667,16.86214 16.6307,10.09684 35.5419,18.98128 54.6667,22.93929 z"
       id="path1" />
  </g>
</svg>
