<?xml version="1.0" encoding="UTF-8" standalone="no"?>
<!-- Created with Inkscape (http://www.inkscape.org/) -->

<svg
   version="1.1"
   id="svg1"
   width="1333.3333"
   height="1333.3333"
   viewBox="0 0 1333.3333 1333.3333"
   sodipodi:docname="CurveDTR_L.svg"
   inkscape:version="1.4.2 (ebf0e940d0, 2025-05-08)"
   xmlns:inkscape="http://www.inkscape.org/namespaces/inkscape"
   xmlns:sodipodi="http://sodipodi.sourceforge.net/DTD/sodipodi-0.dtd"
   xmlns="http://www.w3.org/2000/svg"
   xmlns:svg="http://www.w3.org/2000/svg">
  <defs
     id="defs1" />
  <sodipodi:namedview
     id="namedview1"
     pagecolor="#505050"
     bordercolor="#eeeeee"
     borderopacity="1"
     inkscape:showpageshadow="0"
     inkscape:pageopacity="0"
     inkscape:pagecheckerboard="0"
     inkscape:deskcolor="#505050"
     showgrid="false"
     inkscape:zoom="0.59400004"
     inkscape:cx="666.66663"
     inkscape:cy="666.66663"
     inkscape:window-width="1920"
     inkscape:window-height="995"
     inkscape:window-x="0"
     inkscape:window-y="0"
     inkscape:window-maximized="1"
     inkscape:current-layer="g1" />
  <g
     inkscape:groupmode="layer"
     inkscape:label="Image"
     id="g1">
    <path
       style="fill:#ffff00"
       d="m 4.7701169,1082.834 c -1.513324,-2.4486 4.1532875,-2.8341 41.6722631,-2.8346 276.45603,-0 545.28269,-54.6336 787.55757,-160.04282 24.79428,-10.78753 72.66666,-34.33039 72.66666,-35.73629 0,-1.06471 -6.7839,-6.39727 -25.25328,-19.85061 -10.6112,-7.72933 -19.50165,-14.38671 -20.08005,-15.0364 -0.36667,-0.41186 -4.56667,-3.60488 -9.33333,-7.0956 -4.76667,-3.49071 -12.56667,-9.29298 -17.33333,-12.89391 -4.76667,-3.60094 -16.16667,-12.08603 -25.33334,-18.85576 -22.00364,-16.25005 -30.83703,-22.81377 -33.30274,-24.74586 -1.11682,-0.87513 -15.53059,-11.61199 -32.03059,-23.85969 -49.01253,-36.38126 -61.89085,-45.96656 -63.99999,-47.63502 -1.1,-0.87016 -5.9,-4.46526 -10.66667,-7.98911 -4.76666,-3.52384 -9.56917,-7.12355 -10.67224,-7.99935 -1.10307,-0.87579 -12.80307,-9.58523 -26,-19.3543 -13.19693,-9.76906 -24.89442,-18.47761 -25.99442,-19.35232 -1.1,-0.87472 -4.1,-3.05293 -6.66667,-4.84049 -2.56666,-1.78755 -4.96666,-3.59749 -5.33333,-4.02209 -0.36667,-0.4246 -4.56667,-3.63694 -9.33333,-7.13854 -4.76667,-3.50161 -9.56777,-7.08312 -10.66911,-7.95892 -1.10135,-0.8758 -6.50135,-4.87716 -12,-8.89191 -5.49866,-4.01476 -10.29756,-7.61476 -10.66422,-8 -4.10737,-4.31548 -27.04274,-20.03378 -29.23231,-20.03378 -1.58741,0 -14.40954,3.33772 -28.49361,7.41717 -66.64538,19.30378 -140.41696,35.3915 -209.6074,45.7101 -39.21018,5.84754 -39.33333,5.86111 -39.33333,4.33467 0,-2.14137 4.02639,-3.73941 12,-4.76271 51.23297,-6.57501 124.82755,-20.80053 182.17338,-35.21334 31.00707,-7.79306 78.0029,-21.1242 79.38126,-22.51781 0.52662,-0.53244 1.32778,-3.96808 1.78035,-7.63475 1.66679,-13.50396 4.83211,-36.33089 6.65598,-47.99999 1.03158,-6.6 2.25875,-15.6 2.72705,-20 0.4683,-4.4 1.06962,-9.5 1.33627,-11.33333 0.26665,-1.83334 1.44221,-10.83334 2.61236,-20 1.17015,-9.16667 2.36525,-18.16667 2.65577,-20 0.59934,-3.78206 3.25307,-23.6241 4.10145,-30.66667 0.30919,-2.56666 2.96358,-23.26666 5.89865,-45.99999 2.93506,-22.73334 5.59431,-43.43333 5.90944,-46 0.83017,-6.76153 3.49836,-26.76872 4.08975,-30.66667 0.27815,-1.83333 0.88337,-6.63333 1.34494,-10.66666 0.46156,-4.03333 1.07111,-8.83333 1.35455,-10.66667 0.76413,-4.94255 9.73991,-74.74156 12.77373,-99.33333 1.44751,-11.73333 2.88211,-22.83333 3.188,-24.66666 0.30589,-1.83333 1.51813,-10.83333 2.69387,-20 1.17573,-9.16667 2.44144,-18.61666 2.81268,-21 0.55746,-3.57883 0.24279,-4.33333 -1.80726,-4.33333 -1.36523,0 -3.05224,0.53209 -3.74891,1.18242 -2.92536,2.73079 -49.87629,26.1568 -73.93333,36.88879 -112.91577,50.37242 -223.88143,78.49941 -352.66664,89.39209 -18.55223,1.56915 -45.02559,2.38183 -86.999997,2.67072 l -60.3333297,0.41526 0.040545,-4.27464 c 0.030169,-3.18069 0.3483807,-3.74892 1.2434192,-2.22037 1.0550641,1.80185 7.8085256,2.02874 54.9594516,1.84649 103.924251,-0.40169 179.768761,-9.60781 275.089901,-33.39081 66.73899,-16.65164 133.89155,-41.84081 204.03039,-76.53254 40.77693,-20.16889 45.92467,-23.48183 46.07485,-29.65244 l 0.10527,-4.32497 1.33918,3.66667 c 0.73655,2.01666 1.81643,3.66666 2.39973,3.66666 1.90114,0 38.84043,-22.637463 62.29873,-38.178456 23.59918,-15.634327 61.82266,-43.77634 85.47822,-62.933295 C 745.32904,2.0319354 748.6619,0.01332979 752.25237,0.07142845 l 4.41425,0.07142845 -4.64478,3.595238 c -2.55462,1.9773809 -7.20462,6.2285397 -10.33333,9.4470201 -3.12871,3.218479 -5.68855,5.496613 -5.68855,5.062518 0,-0.434095 -8.55,5.80471 -19,13.864011 -29.33052,22.620429 -82.63304,58.05467 -117.99532,78.440466 -14.69032,8.46873 -13.55727,5.79344 -18.40109,43.44788 -1.8867,14.66667 -3.65316,28.16667 -3.92547,30 -0.27231,1.83333 -0.89998,7.23333 -1.39484,12 -0.49485,4.76666 -1.07232,9.56666 -1.28328,10.66666 -0.21095,1.1 -0.81095,5.9 -1.33333,10.66667 -0.52238,4.76667 -1.17589,9.84265 -1.45225,11.27996 -0.68659,3.5709 -2.05548,13.70073 -3.88108,28.72004 -0.31198,2.56666 -0.88584,7.06666 -1.27525,10 -0.3894,2.93333 -1.93722,14.93333 -3.43959,26.66666 -1.50237,11.73333 -2.97254,22.83333 -3.26704,24.66667 -0.80164,4.99042 -3.09353,23.58161 -4.02709,32.66666 -0.90432,8.80054 -1.78222,15.56016 -2.68408,20.66667 -0.32378,1.83333 -0.92167,6.33333 -1.32865,10 -0.69646,6.27481 -1.56788,13.01251 -2.67292,20.66666 -1.31575,9.1136 -3.45242,25.39761 -4.11135,31.33333 -0.40703,3.66667 -2.46923,19.86667 -4.58266,36 -2.11344,16.13333 -4.17551,32.63333 -4.58238,36.66667 -0.40688,4.03333 -1.00637,8.83333 -1.33221,10.66666 -0.92299,5.19325 -1.79427,11.95087 -2.66462,20.66667 -1.80122,18.03761 -3.17214,29.82316 -4.84486,41.65034 -0.75067,5.30769 -1.01377,10.2184 -0.58468,10.91269 0.70134,1.13478 55.87263,-16.63061 73.78007,-23.7575 8.42036,-3.35117 8.28397,-3.33869 8.28397,-0.75815 0,2.72953 -6.70431,5.4842 -43.99999,18.07873 -17.23334,5.8196 -32.19946,10.89769 -33.25805,11.28466 -2.16893,0.79285 0.99488,4.17474 9.25805,9.89619 2.56666,1.77717 4.96666,3.57862 5.33333,4.00321 0.36667,0.4246 4.56667,3.6503 9.33333,7.16823 4.76667,3.51792 10.16667,7.52265 12,8.89938 1.83334,1.37673 13.53333,10.03791 26,19.24706 12.46667,9.20916 23.58043,17.48595 24.69725,18.39287 2.66252,2.1621 10.22737,7.81547 48.63608,36.34673 39.602,29.41767 99.31022,74.06075 101.99999,76.2641 1.1,0.90107 7.7,5.81898 14.66667,10.92867 6.96667,5.10969 13.26666,9.77999 14,10.37843 0.73333,0.59844 5.83333,4.36753 11.33333,8.37576 5.5,4.00823 10.3,7.62138 10.66667,8.02922 0.36666,0.40784 4.56666,3.60648 9.33333,7.10809 4.76667,3.5016 9.56667,7.0918 10.66667,7.97823 1.1,0.88642 6.1184,4.60298 11.15202,8.25902 5.03361,3.65605 12.23361,9.08289 16,12.05966 3.76638,2.97677 11.04797,8.34575 16.18131,11.93106 5.13333,3.58531 10.87638,7.74977 12.76233,9.25435 1.88595,1.50459 5.43096,4.23561 7.87781,6.06895 2.44685,1.83333 5.21094,4.08333 6.14243,5 0.93149,0.91666 2.375,1.66666 3.20779,1.66666 2.22884,0 40.96917,-19.81668 43.30319,-22.1507 1.09643,-1.09642 3.10029,-2.20665 4.45304,-2.46716 2.52598,-0.48646 34.33016,-17.63876 58.53996,-31.57118 67.8986,-39.07471 147.6486,-91.85096 206.3801,-136.57637 8.8,-6.70141 19.3,-14.29879 23.3333,-16.88308 4.0334,-2.58429 8.5334,-6.05075 10,-7.70326 1.4667,-1.6525 8.3667,-7.54221 15.3334,-13.08823 6.9666,-5.54603 23.3588,-19.02229 36.4271,-29.94725 23.1902,-19.38677 23.7503,-19.75755 23.3334,-15.44653 -0.3644,3.76733 -2.4865,6.15921 -14.4272,16.26094 -96.0186,81.23105 -204.013,156.12462 -315.2467,218.622 -38.2351,21.48267 -113.47471,59.63105 -133.41995,67.64731 -5.13334,2.06315 -15.63334,6.57438 -23.33334,10.02494 -170.57855,76.44057 -368.48452,129.79646 -560.66663,151.15696 -59.36199,6.5979 -92.96995,9.2837 -150.66665,12.0407 -31.46898,1.5037 -129.6719017,1.6905 -130.5632131,0.2483 z M 247.13852,1026.0408 c -5.24048,-8.0891 -21.37608,-33.00753 -35.8569,-55.37419 -31.77972,-49.08607 -35.41415,-54.69507 -49.2452,-76 -5.95096,-9.16666 -16.79364,-25.91749 -24.09484,-37.22405 -7.30121,-11.30657 -19.27492,-29.7537 -26.60825,-40.99363 -7.33334,-11.23994 -16.90502,-25.98911 -21.270411,-32.77594 -4.365392,-6.78684 -12.801418,-19.8397 -18.746726,-29.00637 -5.945308,-9.16667 -20.023768,-30.96959 -31.285468,-48.45094 -13.85966,-21.51413 -21.509023,-32.1771 -23.673404,-33 -1.758673,-0.66865 -6.200258,-1.21572 -9.8701889,-1.21572 -6.15708819,0 -6.63968406,-0.23178 -6.24653339,-3 0.37091123,-2.61164 1.40514089,-3.08727 7.98909629,-3.67414 4.159666,-0.37078 7.759665,-0.97078 8,-1.33333 0.240334,-0.36256 2.802778,-5.4592 5.694319,-11.32586 2.891542,-5.86667 7.642334,-14.86667 10.557316,-20 2.914983,-5.13333 7.497855,-13.53333 10.184162,-18.66667 2.686307,-5.13333 8.22102,-15.63333 12.299363,-23.33333 4.078342,-7.7 9.941777,-18.8 13.029856,-24.66666 3.088078,-5.86667 8.176311,-15.46667 11.307183,-21.33334 3.130873,-5.86666 9.763956,-18.46666 14.740185,-27.99999 4.976228,-9.53334 12.852491,-24.4205 17.502801,-33.08258 4.65031,-8.66209 8.45511,-15.98966 8.45511,-16.28349 0,-0.29383 3.50767,-7.00667 7.79482,-14.91742 4.28715,-7.91075 12.49017,-23.38318 18.22893,-34.38318 31.98261,-61.30394 38.29638,-73.30245 39.29053,-74.66666 0.53441,-0.73333 7.32439,-13.63333 15.08886,-28.66666 21.56213,-41.74797 23.34261,-44.88065 24.21546,-42.60604 0.43099,1.12314 -2.39213,7.93934 -6.34312,15.31498 -3.91587,7.31008 -12.42571,23.49106 -18.91074,35.95772 -6.48504,12.46667 -13.57789,25.96667 -15.7619,30 -2.18401,4.03333 -7.57106,14.23333 -11.97121,22.66667 -9.7442,18.6757 -17.50066,33.39305 -24.61738,46.70974 -5.9498,11.13319 -17.53632,33.25378 -30.70638,58.62358 -4.75864,9.16667 -11.69005,22.36667 -15.40315,29.33334 -9.960984,18.68919 -13.379866,25.19877 -25.209979,47.99999 -5.897444,11.36667 -15.377724,29.36667 -21.067288,40 -5.689564,10.63333 -12.664334,24.13333 -15.499489,30 -2.835155,5.86666 -8.061504,16.2205 -11.614108,23.00851 -3.918236,7.48664 -6.126808,13.20826 -5.614142,14.54425 0.768084,2.0016 4.154282,2.12657 37.139382,1.37075 45.568184,-1.04416 121.508234,-6.36892 158.627564,-11.12264 7.07342,-0.90587 8.58921,0.98402 2.66667,3.32479 -2.01667,0.79705 -16.26667,2.64862 -31.66666,4.11461 -46.70742,4.44627 -55.29,4.96796 -146.999996,8.93532 -9.716666,0.42034 -17.666665,1.27271 -17.666665,1.89415 0,0.62145 1.713495,3.70998 3.807767,6.86341 4.252319,6.40289 13.320068,20.36848 37.485934,57.73351 9.011395,13.93333 22.052748,34.03333 28.980786,44.66666 11.053114,16.9646 23.783414,36.64498 48.729564,75.33333 9.46984,14.68654 24.56962,38.01059 37.98025,58.66666 6.18936,9.53334 17.82265,27.53334 25.85175,40 14.43949,22.42001 20.48922,31.75972 40.42428,62.40796 5.63139,8.6578 10.05156,16.7762 9.82261,18.0409 -0.26,1.4363 -3.99342,-3.222 -9.94442,-12.408 z M 515.1863,987.58437 c -23.67076,-27.84715 -38.46119,-45.19235 -149.7227,-175.58442 -17.2079,-20.16666 -35.11314,-41.16666 -39.78942,-46.66666 -4.67628,-5.5 -9.53553,-11.2 -10.79833,-12.66667 -1.2628,-1.46667 -5.27647,-6.23933 -8.91927,-10.60591 -3.64279,-4.36659 -7.52326,-8.88678 -8.62326,-10.04486 -1.1,-1.15809 -4.4,-5.04586 -7.33334,-8.63949 -11.4398,-14.01493 -52.30754,-61.47508 -54.42671,-63.20633 -1.23197,-1.00646 -2.23995,-3.15186 -2.23995,-4.76756 0,-3.53437 4.65382,-17.10166 13.28708,-38.73584 3.5117,-8.8 7.31915,-18.7 8.461,-22 1.14186,-3.3 3.97834,-11.1 6.3033,-17.33333 2.32496,-6.23333 5.87205,-15.83333 7.88242,-21.33333 6.84293,-18.72095 18.93113,-51.30471 22.75396,-61.33333 2.09656,-5.5 5.97848,-16 8.6265,-23.33334 6.25874,-17.33272 8.86752,-24.36147 13.85656,-37.33333 2.25636,-5.86666 6.44836,-17.26666 9.31557,-25.33333 2.8672,-8.06666 8.33833,-23.06666 12.15806,-33.33333 3.81972,-10.26667 8.03903,-21.66666 9.37624,-25.33333 6.76516,-18.55029 12.33049,-33.61271 13.30143,-36 1.17807,-2.89657 4.40912,-11.6808 10.05386,-27.33333 1.98345,-5.5 4.0781,-11.2 4.65477,-12.66667 3.6668,-9.32591 9.73802,-25.63042 13.15688,-35.33333 3.54453,-10.05959 4.0019,-10.77296 4.06951,-6.34736 0.0419,2.74229 -1.38616,8.74228 -3.17346,13.33333 -1.7873,4.59105 -7.22122,19.14736 -12.07538,32.34736 -4.85416,13.2 -11.53372,31.2 -14.84347,40 -3.30975,8.8 -6.23393,16.9 -6.49817,18 -0.26425,1.1 -3.18843,9.2 -6.49818,18 -10.3129,27.42006 -23.184,62.19691 -28.65037,77.41137 -2.88284,8.02374 -8.36584,22.98862 -12.18446,33.25529 -15.01977,40.38188 -23.91375,64.60543 -28.63866,77.99999 -2.71617,7.7 -5.43875,15.2 -6.05019,16.66667 -3.53777,8.48608 -12.67025,33.34248 -18.61543,50.66666 -3.7749,11 -8.62578,24.63065 -10.77974,30.29032 -2.15397,5.65968 -3.9163,11.47427 -3.9163,12.92131 0,3.15376 2.14255,4.82051 3.16654,2.46334 0.4002,-0.92123 0.40362,-0.0936 0.008,1.83928 -0.61577,3.00534 1.5765,6.19129 15.1383,22 34.65631,40.39815 86.96934,101.80458 96.3909,113.14623 5.47983,6.59659 10.86333,12.91678 11.96333,14.04486 1.88708,1.93523 5.13407,5.82906 16.6454,19.96132 2.68799,3.3 5.59241,6.6 6.45426,7.33333 0.86185,0.73333 3.96701,4.3256 6.90034,7.98281 5.01068,6.24721 27.5596,32.82825 32.81583,38.68385 1.31654,1.46667 13.37156,15.61866 26.78894,31.44887 13.41737,15.8302 34.48727,40.59032 46.82199,55.02249 12.33472,14.43216 22.23472,27.09316 22,28.13556 -0.25315,1.12425 -3.7411,-2.00383 -8.57377,-7.68916 z m 700.147,-325.61013 c -8.8885,-4.43075 -47.2852,-22.70448 -57.3334,-27.28604 -4.4,-2.00621 -12.5,-5.77696 -18,-8.37944 -5.5,-2.60248 -23.8,-11.15791 -40.6666,-19.01205 -16.8667,-7.85415 -36.3667,-16.97308 -43.3334,-20.2643 -6.9666,-3.29122 -17.7666,-8.36998 -24,-11.28614 -6.2333,-2.91616 -14.9333,-6.99873 -19.3333,-9.07238 -4.4,-2.07365 -33.19999,-15.57108 -63.99999,-29.99429 -30.8,-14.4232 -60.2,-28.22559 -65.33333,-30.67196 -5.13333,-2.44637 -13.83333,-6.52494 -19.33333,-9.06348 -5.5,-2.53855 -18.43155,-8.58949 -28.73678,-13.44653 -10.30523,-4.85705 -19.74998,-8.83099 -20.98833,-8.83099 -1.23835,0 -10.64147,4.48899 -20.89582,9.97553 -43.67428,23.36771 -89.88356,45.30399 -134.7421,63.96421 -24.2767,10.0986 -26.65427,10.90792 -26.61654,9.06025 0.0513,-2.51309 3.10647,-4.24526 19.31291,-10.94971 14.94502,-6.18261 32.69806,-13.93271 63.33333,-27.64823 20.06522,-8.98326 92.72706,-46.34239 93.93486,-48.29667 0.34751,-0.56227 0.10635,-3.066 -0.53589,-5.56384 -1.12669,-4.38197 -2.52913,-22.33525 -3.47942,-44.54154 -0.40557,-9.47743 -2.35841,-37.45344 -3.90903,-56 -0.30656,-3.66666 -0.90026,-11.46666 -1.31935,-17.33333 -0.41908,-5.86666 -1.03964,-14.26666 -1.37902,-18.66666 -0.33938,-4.4 -0.94859,-13.4 -1.35381,-20 -0.40521,-6.6 -0.98418,-14.1 -1.28659,-16.66667 -0.30241,-2.56666 -0.90688,-11.26666 -1.34325,-19.33333 -0.43638,-8.06667 -1.03785,-16.16667 -1.3366,-18 -0.29874,-1.83333 -0.91752,-10.53333 -1.37506,-19.33333 -0.45753,-8.8 -1.04827,-17.5 -1.31275,-19.33333 -0.26448,-1.83334 -0.84309,-9.03334 -1.2858,-16 -0.44271,-6.96667 -1.04313,-14.76667 -1.33427,-17.33333 -0.29113,-2.56667 -0.89452,-10.36667 -1.34086,-17.33334 -0.81556,-12.72952 -1.28994,-19.41819 -2.60052,-36.66666 -1.61688,-21.27985 -2.04301,-27.20755 -2.73174,-37.999999 -0.39779,-6.233333 -1.00134,-14.033332 -1.34123,-17.333332 -0.33988,-3.3 -0.94859,-11.399999 -1.35267,-17.999999 -0.40409,-6.6 -1.00007,-14.999999 -1.32439,-18.666666 -0.32433,-3.666666 -0.91297,-11.466666 -1.30808,-17.333332 -0.6532,-9.6986909 -0.53536,-10.4317953 1.29854,-8.078493 1.10931,1.423495 2.07645,5.023495 2.14919,7.999999 0.0727,2.976505 0.2805,6.911827 0.46168,8.74516 0.18118,1.833334 0.74162,9.633333 1.24542,17.333333 0.5038,7.699999 1.17961,16.399999 1.50179,19.333332 0.32218,2.933333 0.95669,10.733332 1.41001,17.333332 0.45333,6.6 1.01031,14.399999 1.23774,17.333332 0.22742,2.933333 0.80904,11.933333 1.29248,20.000003 0.48344,8.06666 1.12289,16.76666 1.42101,19.33333 0.29811,2.56666 0.87935,9.76666 1.29165,16 0.41229,6.23333 1.01069,14.03333 1.32976,17.33333 0.31907,3.3 0.92903,12.3 1.35547,20 0.42644,7.7 1.01542,15.5 1.30884,17.33333 0.29342,1.83333 0.88749,9.93333 1.32016,18 0.43267,8.06667 1.05815,17.36667 1.38995,20.66666 0.83437,8.29821 2.36658,28.81474 5.32728,71.33333 0.40851,5.86667 1.01567,13.66667 1.34924,17.33334 0.33357,3.66666 0.90741,10.86666 1.27519,16 1.44484,20.1663 3.49384,48.45961 4.15208,57.33332 0.38078,5.13334 0.92466,10.23334 1.20862,11.33334 0.28396,1.1 0.93998,8.3 1.45782,16 0.51783,7.7 1.08976,15.5 1.27094,17.33333 0.18118,1.83333 0.38894,5.58333 0.46168,8.33333 0.0727,2.75 0.65999,5 1.30498,5 3.03606,0 62.97936,-36.08891 91.34573,-54.99477 23.56191,-15.70375 25.53067,-16.64287 19.84773,-9.46758 -4.68121,5.91051 -44.59032,31.96395 -82.66261,53.96375 -11.89637,6.87423 -21.64637,13.13955 -21.66667,13.92292 -0.0203,0.78338 8.2131,5.23258 18.29643,9.88712 10.08333,4.65454 23.73333,10.99381 30.33333,14.08727 6.6,3.09346 17.1,8.01299 23.33334,10.93228 30.09333,14.09376 76.58705,35.94932 87.33332,41.05324 6.6,3.13466 16.8,7.93286 22.66663,10.66266 5.8667,2.7298 17.5667,8.25969 26,12.28866 8.4334,4.02896 18.9334,8.97836 23.3334,10.99867 9.8796,4.53634 28.1211,13.09967 44,20.65549 6.6,3.14054 16.2,7.65804 21.3333,10.03889 9.9106,4.59656 13.9007,6.47389 67.6006,31.8062 18.847,8.89085 34.7527,16.16519 35.3459,16.16519 0.5933,0 1.8281,1.2 2.7441,2.66667 2.1541,3.44933 1.0704,3.3425 -7.0239,-0.69239 z M 951.99994,385.44072 c 0,-3.5692 2.89727,-6.61917 14.53634,-15.30251 35.68272,-26.6211 89.54132,-69.9134 107.30012,-86.24932 2.4474,-2.25133 2.4455,-2.36441 -0.086,-5.08157 -1.8636,-2.00037 -3.2585,-7.17249 -4.9784,-18.45983 -5.9299,-38.91789 -13.8432,-88.51408 -25.4775,-159.68083 -4.7955,-29.333331 -10.2109,-62.633329 -12.0345,-73.999995 -1.8235,-11.366666 -3.6144,-22.0166653 -3.9799,-23.6666652 C 1026.9148,1.3499999 1027.1393,0 1027.7791,0 c 0.9534,0 14.268,78.063754 26.835,157.33332 8.7731,55.33913 19.6395,118.2531 20.7289,120.01572 0.4479,0.72469 1.6336,1.31761 2.6349,1.31761 2.1719,0 24.8772,-20.25789 55.8644,-49.84286 12.38,-11.81976 22.9285,-21.65662 23.4411,-21.8597 0.5125,-0.20307 0.675,1.38098 0.361,3.52012 -0.6204,4.22761 -20.5235,24.57008 -52.9778,54.14741 -9.5333,8.68824 -17.4981,16.19466 -17.6994,16.68092 -0.2014,0.48627 9.9986,4.62249 22.6666,9.1916 12.668,4.56911 25.1328,9.14107 27.6995,10.1599 2.5666,1.01884 20.5666,7.63763 40,14.70844 19.4333,7.0708 37.4333,13.67261 40,14.67068 5.4232,2.10887 85.4825,31.52965 103.6666,38.09616 6.7834,2.44955 12.3334,4.90146 12.3334,5.44868 0,0.54722 -0.75,0.75041 -1.6667,0.45153 -3.5692,-1.16375 -72.5976,-26.32731 -77,-28.06951 -2.5667,-1.01574 -18.1667,-6.73816 -34.6667,-12.71649 -16.5,-5.97833 -42,-15.2764 -56.6666,-20.66238 -65.6414,-24.1052 -78.0506,-28.59117 -79.0895,-28.59117 -0.986,0 -11.4845,8.58897 -31.5772,25.83379 -8.6521,7.42582 -45.9867,37.26259 -55.38094,44.25891 -20.53633,15.29442 -45.28572,32.42664 -45.28572,31.34804 z M 1186.6572,180.05153 c 0.7747,-4.23673 3.9411,-8.40112 16.9538,-22.2973 38.1994,-40.79291 86.5889,-98.441185 118.9875,-141.754231 11.2439,-15.03183031 10.737,-14.6250913 10.7193,-8.5999995 -0.014,4.7672535 -2.0053,7.8050335 -21,32.0355515 -23.4509,29.915044 -45.7901,56.990289 -67.5663,81.890679 -15.4713,17.69094 -56.3087,62.24264 -58.0266,63.30441 -0.5612,0.34684 -0.5917,-1.71376 -0.068,-4.57911 z"
       id="path1" />
  </g>
</svg>
