<?xml version="1.0" encoding="UTF-8" standalone="no"?>
<!-- Created with Inkscape (http://www.inkscape.org/) -->

<svg
   version="1.1"
   id="svg1"
   width="1333.3333"
   height="1333.3333"
   viewBox="0 0 1333.3333 1333.3333"
   sodipodi:docname="FinishLeft.svg"
   inkscape:version="1.4.2 (ebf0e940d0, 2025-05-08)"
   xmlns:inkscape="http://www.inkscape.org/namespaces/inkscape"
   xmlns:sodipodi="http://sodipodi.sourceforge.net/DTD/sodipodi-0.dtd"
   xmlns="http://www.w3.org/2000/svg"
   xmlns:svg="http://www.w3.org/2000/svg">
  <defs
     id="defs1" />
  <sodipodi:namedview
     id="namedview1"
     pagecolor="#505050"
     bordercolor="#eeeeee"
     borderopacity="1"
     inkscape:showpageshadow="0"
     inkscape:pageopacity="0"
     inkscape:pagecheckerboard="0"
     inkscape:deskcolor="#505050"
     showgrid="false"
     inkscape:zoom="0.59400004"
     inkscape:cx="666.66663"
     inkscape:cy="666.66663"
     inkscape:window-width="1920"
     inkscape:window-height="995"
     inkscape:window-x="0"
     inkscape:window-y="0"
     inkscape:window-maximized="1"
     inkscape:current-layer="g1" />
  <g
     inkscape:groupmode="layer"
     inkscape:label="Image"
     id="g1">
    <path
       style="fill:#f9f9f9;stroke:none"
       d="m 0,71.999996 v 7.999999 H 211.99999 V 71.999996 H 0 M 0,229.33332 C 13.339252,219.937 24.471045,206.19563 35.999998,194.66665 l 65.333332,-65.33332 c 7.85629,-7.85629 16.6688,-15.38648 23.69547,-24 2.4194,-2.96582 6.1018,-9.137047 1.20884,-11.884768 -3.76783,-2.115885 -7.67554,1.629069 -10.23765,3.962972 -8.47377,7.719076 -16.933397,15.963626 -24.952673,24.147136 -19.998961,20.40861 -39.727928,41.2753 -60.380652,61.0555 C 15.4218,197.21499 0,207.07705 0,229.33332 m 0,-60 C 19.692277,155.46182 36.299017,134.36767 53.33333,117.33333 56.893144,113.77351 71.693655,102.80086 65.836412,96.825108 59.213151,90.067866 46.563316,106.77001 42.666664,110.66666 25.628134,127.70515 0,143.86588 0,169.33332 M 0,95.999994 V 107.99999 C 4.9408926,103.86791 6.1807171,99.42252 0,95.999994 M 0,311.99998 c 17.374542,-12.23885 31.315046,-30.6014 46.666664,-45.28084 39.237027,-37.51896 76.826756,-76.75903 115.880646,-114.49177 12.95296,-12.51481 26.15119,-24.69043 38.77985,-37.56071 2.94924,-3.0057 12.16076,-12.02848 4.91461,-15.81787 -5.54397,-2.899252 -12.30353,5.89795 -15.57511,9.15226 -12.26368,12.19906 -25.09973,23.7701 -37.33334,35.99894 C 114.87314,182.4453 75.761684,220.23827 37.333331,258.66665 21.31825,274.68171 0,288.07868 0,311.99998 M 210.66665,147.99999 C 157.98892,200.67715 104.68283,252.65396 51.999997,305.33331 33.062203,324.26984 0,343.38849 0,371.99998 23.258437,355.61643 43.853838,330.81281 63.999996,310.66665 98.45552,276.21116 133.56044,242.43952 167.99999,207.99999 c 13.08748,-13.08749 51.61128,-38.68376 42.66666,-60 m 0,66.66666 C 158.23172,267.10106 104.42862,318.23802 51.999997,370.66664 33.259092,389.40753 0,410.73459 0,438.66664 c 21.200439,-14.93392 38.899028,-37.75049 57.33333,-55.99487 36.379769,-36.00504 72.68033,-72.23038 109.33333,-107.98559 13.47953,-13.14933 53.2811,-37.90136 43.99999,-60.01953 m 0,72 C 158.46443,338.86831 106.08459,390.92844 53.352877,442.61415 34.036789,461.54709 0,481.88628 0,510.66664 c 22.697666,-15.98853 42.992561,-40.32593 62.666663,-60 34.895699,-34.89567 70.380497,-69.20337 105.333327,-104.00105 13.10547,-13.04728 51.59952,-38.71069 42.66666,-59.99894 m 0,82.66666 C 157.9795,422.01991 104.68519,473.98142 51.999997,526.66663 33.141162,545.52544 0,564.98011 0,593.3333 c 22.85899,-16.10222 42.883771,-40.21712 62.666663,-60 34.464689,-34.46468 69.546817,-68.21346 103.999997,-102.66666 13.2468,-13.24682 53.0308,-39.81168 43.99999,-61.33333 m 0,74.66666 C 158.16753,496.35414 104.43841,547.56157 51.999997,599.99996 34.959099,617.0409 0.00280314,639.93689 0,665.33329 c 19.233454,-6.53857 37.767634,-33.76765 51.999997,-47.99999 38.896614,-38.89665 78.424533,-77.09123 117.333323,-116 12.87519,-12.87516 50.2337,-36.12255 41.33333,-57.33333 m 0,88 -51.99999,51.99999 c -11.84377,11.84375 -23.43745,23.96713 -36,35.04737 -6.99366,6.16845 -13.40877,13.02807 -20,19.6193 -7.850239,7.85026 -16.696532,15.37398 -23.694446,24 -2.275787,2.80525 -5.457117,7.89204 -1.194438,10.60392 4.150899,2.64075 8.670156,-1.38253 11.555552,-4.01542 8.324401,-7.59591 15.872782,-16.06132 23.998972,-23.86935 26.529,-25.49031 52.64195,-51.3601 78.66769,-77.38581 9.69047,-9.69052 25.20255,-20.42408 18.66666,-36 m 582.66663,202.66665 h -35.99999 c 2.09521,48.8055 47.19164,65.53548 89.33332,65.33235 24.46306,-0.118 54.1106,-11.2513 63.06787,-35.99902 17.59343,-48.60823 -25.04646,-73.54841 -64.4012,-86.66666 -16.08089,-5.36031 -42.20605,-11.76155 -44.84261,-32 -2.18261,-16.75431 14.4493,-27.81477 28.84261,-30.08129 23.39502,-3.684 46.89331,8.69026 48,34.08129 h 36 c -0.5909,-71.39078 -125.05305,-89.78759 -146.62752,-22.66666 -15.19279,47.26676 31.24447,69.53906 67.96086,81.77783 16.347,5.44897 39.36295,11.46484 42.2644,31.55549 3.07153,21.26815 -17.88444,30.7509 -35.59774,31.87964 -24.7692,1.57837 -44.79532,-12.39746 -48,-37.21297 M 231.99999,589.3333 v 207.99998 h 35.99999 v -87.99999 h 84 v -29.33333 h -84 v -42.66667 c 0,-4.82389 -1.44291,-12.69352 1.37039,-16.9095 3.80824,-5.70703 18.01955,-3.09049 23.96295,-3.09049 h 71.99999 v -28 H 231.99999 m 163.99999,0 v 207.99998 h 35.99999 V 589.3333 h -35.99999 m 81.33332,0 v 207.99998 h 36 V 650.66663 h 1.33334 l 23.92903,39.99999 42.73763,68 24.69034,37.2963 36.64299,1.37036 V 589.3333 h -36 v 146.66666 c -26.06962,-31.4878 -44.96879,-70.94369 -67.07714,-105.33333 -7.03272,-10.93945 -15.44646,-33.21403 -26.69035,-39.96297 -8.10722,-4.86621 -26.24308,-1.37036 -35.56584,-1.37036 m 210.66666,0 v 207.99998 h 36 V 589.3333 h -36 m 258.66665,0 v 207.99998 h 36 v -93.33332 h 66.66669 l 24.5288,2.13785 2.1378,24.52881 v 66.66666 h 36 V 589.3333 h -36 v 86.66666 H 982.66661 V 589.3333 h -36 m -735.99996,12 -26.66666,26.66666 -17.33333,17.33333 c -3.38831,3.38827 -28.40825,24.04676 -18.24177,28.50309 7.50659,3.29041 16.54109,-9.46907 20.90843,-13.83642 12.92648,-12.92651 50.1888,-37.5629 41.33333,-58.66666 M 0,671.99996 c 0.01966037,25.44612 37.46108,52.12776 54.666663,69.33333 32.217853,32.21785 63.234567,65.74031 94.719127,98.66666 20.12707,21.04874 43.63127,40.83545 61.28086,63.99999 8.9831,-21.40787 -26.68841,-46.68847 -39.99999,-59.99999 C 130.22724,803.5605 89.264745,762.40734 50.893002,719.99996 40.524935,708.54146 29.3142,697.96806 18.786007,686.66662 13.0148,680.47156 8.7180005,673.75899 0,671.99996 m 211.99999,155.99999 c 0,-19.20142 -10.86796,-26.19132 -23.04732,-40 -23.06861,-26.15462 -48.44483,-51.19189 -72.95782,-75.99999 -8.21967,-8.31861 -16.34887,-16.80811 -24.762342,-24.92692 -2.61908,-2.52743 -6.838658,-6.5496 -10.803497,-4.29216 -4.874984,2.77556 -1.227061,8.89974 1.208842,11.88574 7.446136,9.12777 16.882984,16.7168 24.909467,25.33334 22.29673,23.93587 45.45636,47.02075 68.06687,70.66666 11.98935,12.53841 23.11637,27.28174 37.3858,37.33333 m 0,-72 c 0,-25.24715 -22.96999,-41.42643 -40.00515,-58.66666 -3.77321,-3.81868 -15.30592,-19.3949 -21.85596,-14.60392 -7.30611,5.34399 6.61987,16.67985 9.86008,19.93725 16.93173,17.02149 32.45047,39.44662 52.00103,53.33333 M 0,751.99995 c 0,28.04077 31.828744,50.40308 50.667691,69.33333 38.805458,38.99349 75.770459,79.76904 114.665629,118.66666 15.28032,15.28125 28.91783,34.16414 46.66667,46.66667 0,-27.81657 -32.36676,-48.91699 -50.6142,-68 C 126.84922,882.54845 91.929275,846.79194 57.3858,810.66662 39.189288,791.63683 21.54252,767.17476 0,751.99995 m 0,81.33333 c 0,27.93897 30.276274,45.67017 47.619341,65.33333 32.635985,37.00187 68.896369,71.00667 102.994849,106.66669 19.46398,20.3553 38.32745,46.424 61.3858,62.6666 0,-27.7034 -29.09094,-44.4191 -46.10082,-64 C 134.78906,968.1876 99.505324,935.62087 66.719132,901.33328 45.591265,879.2379 25.03619,850.96919 0,833.33328 m 0,72 c 0,28.66373 31.444812,49.88525 50.661521,69.33333 36.405389,36.84369 72.145599,74.55319 107.952669,111.99999 16.94635,17.7223 33.33101,40.5398 53.3858,54.6667 0,-28.8565 -33.85984,-52.5266 -53.33333,-72 C 104.99678,1015.6633 55.74165,956.86778 0,905.33328 m 0,79.99999 c 0,27.71803 29.127206,44.54573 46.286008,64.00003 31.814797,36.0708 67.477692,68.8063 100.261302,104 20.34243,21.8379 41.01148,49.4499 65.45268,66.6666 0,-27.718 -29.12722,-44.5457 -46.28601,-64 -31.82544,-36.0829 -67.470557,-68.7986 -100.261312,-104 C 45.150022,1030.2048 24.378307,1002.5057 0,985.33327 m 0,57.33333 c 0,23.5383 21.428196,38.7616 37.333331,54.6667 35.776752,35.7767 69.551639,73.5516 105.333329,109.3333 11.79197,11.792 22.82638,24.2401 34.66666,35.9989 3.42076,3.3972 9.89122,11.5419 15.55554,7.9383 6.11587,-3.8908 -2.04777,-11.6493 -4.90944,-14.6039 -12.02494,-12.4153 -23.76308,-25.117 -35.97943,-37.3333 -36.67018,-36.6702 -71.356166,-75.2972 -107.999993,-112 C 29.571857,1072.2153 16.787598,1054.492 0,1042.6666 m 0,68 c 0,21.7611 13.208058,30.5413 27.999998,45.3333 19.324172,19.3242 38.00395,39.3062 57.33333,58.6667 5.676178,5.6853 24.949562,33.7436 34.236632,27.9372 4.40168,-2.7519 1.29067,-7.7432 -1.10186,-10.6039 -6.97295,-8.3374 -14.78408,-16.313 -22.468106,-24 C 64.338563,1176.3263 34.815252,1138.7387 0,1110.6666 m 0,76 c 0,22.5373 16.863419,34.1977 31.999998,49.3333 3.496607,3.4964 13.106562,16.4382 19.190327,11.9373 6.252985,-4.6261 -4.224385,-14.2575 -7.19547,-17.2706 C 29.889774,1216.3619 16.40434,1198.222 0,1186.6666 m 0,94.6667 v 8 h 211.99999 v -8 z"
       id="path1" />
  </g>
</svg>
