<?xml version="1.0" encoding="UTF-8" standalone="no"?>
<!-- Created with Inkscape (http://www.inkscape.org/) -->

<svg
   version="1.1"
   id="svg1"
   width="1333.3333"
   height="1333.3333"
   viewBox="0 0 1333.3333 1333.3333"
   sodipodi:docname="FinishDown.svg"
   inkscape:version="1.4.2 (ebf0e940d0, 2025-05-08)"
   xmlns:inkscape="http://www.inkscape.org/namespaces/inkscape"
   xmlns:sodipodi="http://sodipodi.sourceforge.net/DTD/sodipodi-0.dtd"
   xmlns="http://www.w3.org/2000/svg"
   xmlns:svg="http://www.w3.org/2000/svg">
  <defs
     id="defs1" />
  <sodipodi:namedview
     id="namedview1"
     pagecolor="#505050"
     bordercolor="#eeeeee"
     borderopacity="1"
     inkscape:showpageshadow="0"
     inkscape:pageopacity="0"
     inkscape:pagecheckerboard="0"
     inkscape:deskcolor="#505050"
     showgrid="false"
     inkscape:zoom="0.59400004"
     inkscape:cx="666.66663"
     inkscape:cy="666.66663"
     inkscape:window-width="1920"
     inkscape:window-height="995"
     inkscape:window-x="0"
     inkscape:window-y="0"
     inkscape:window-maximized="1"
     inkscape:current-layer="g1" />
  <g
     inkscape:groupmode="layer"
     inkscape:label="Image"
     id="g1">
    <path
       style="fill:#f9f9f9;stroke:none"
       d="m 838.66662,1039.9999 h -49.33333 c 1.39485,67.583 70.91951,94.475 129.33332,88.2212 31.69197,-3.393 66.20483,-17.0057 77.73453,-49.5545 2.95028,-8.3288 3.59823,-16.5785 3.5988,-25.3333 0.003,-52.8819 -43.97388,-76.04251 -89.33333,-89.70681 -20.42985,-6.15438 -58.50219,-15.58195 -62.38273,-40.95988 -4.60701,-30.12899 23.41089,-44 49.0494,-44 30.07389,0 52.19043,15.33822 54.66666,46.66667 h 48 c -0.007,-62.88029 -58.98307,-87.85319 -113.33333,-85.38582 -34.56103,1.56893 -72.09854,18.62345 -84.4012,53.38582 -22.54353,63.69889 42.65609,96.21028 92.4012,111.44852 23.07178,7.0676 53.97274,16.5938 56.92798,44.5515 2.57674,24.3772 -19.72933,38.1927 -40.92798,40.9475 -33.86954,4.4013 -71.68334,-12.0205 -71.99999,-50.2809 M 78.666662,842.66662 v 282.66668 h 49.333328 v -120 H 241.33332 V 966.66661 H 127.99999 v -84 H 257.33332 V 842.66662 H 78.666662 M 299.99998,1125.3333 h 49.33333 V 842.66662 h -34.66666 l -13.29629,2.13785 -1.37038,20.52881 v 53.33333 206.66669 M 409.33331,842.66662 v 282.66668 h 49.33333 V 926.66661 h 1.33333 c 8.36369,19.13957 22.53414,37.03353 33.73971,54.66666 18.8448,29.65433 37.28629,59.59753 56.01851,89.33333 7.82071,12.4147 15.57804,24.8671 23.31892,37.3333 3.02214,4.8671 6.45219,12.8579 11.42802,15.963 10.25533,6.3996 36.7876,1.3704 48.82816,1.3704 V 842.66662 H 585.3333 v 199.99998 c -12.52438,-14.6945 -21.81262,-32.9838 -32.06685,-49.33333 -20.07866,-32.01383 -39.90853,-64.21313 -60.34363,-95.99999 -7.93278,-12.33952 -15.59485,-24.87093 -23.33333,-37.33333 -3.02214,-4.86703 -6.45219,-12.85791 -11.42802,-15.96297 -10.25533,-6.39966 -36.78764,-1.37036 -48.82816,-1.37036 m 285.33331,282.66668 h 49.33333 V 842.66662 h -34.66666 l -13.2963,2.13785 -1.37037,20.52881 v 53.33333 206.66669 M 1045.3333,842.66662 v 282.66668 h 48 V 999.99994 h 126.6666 v 125.33336 h 49.3334 V 842.66662 h -33.3334 c -3.8805,0 -10.5969,-1.21566 -13.8621,1.37036 -5.0053,3.96427 -2.1379,20.78857 -2.1379,26.62963 v 65.33333 c 0,5.88867 2.381,18.6766 -2.1378,23.19548 -4.8349,4.83479 -19.5128,2.13785 -25.8622,2.13785 h -70.6666 c -6.3209,0 -22.6185,2.92041 -26.6297,-3.09049 -4.5449,-6.81087 -1.3703,-23.58008 -1.3703,-31.57617 v -83.99999 h -48 M 74.666662,1143.9999 v 189.3334 h 6.666666 v -144 c 0,-9.9652 5.280691,-43.3395 -6.666666,-45.3334 m 67.999998,0 c 8.39019,17.9918 31.32869,33.9954 45.33333,48 33.11004,33.1101 65.54211,66.8754 98.66666,100 16.48767,16.4877 31.52756,41.3334 56,41.3334 -9.40459,-13.351 -23.14449,-24.1022 -34.43518,-35.8807 -34.07904,-35.5515 -70.97076,-68.944 -104.00514,-105.4527 -16.01422,-17.6985 -36.14632,-47.9972 -61.55967,-48 m 65.33333,0 c 8.86454,19.0089 31.96221,35.9623 46.66666,50.6667 32.6759,32.6759 64.67045,66.0037 97.33333,98.6667 16.53251,16.5325 31.2902,40 56,40 -13.8715,-19.6923 -34.96574,-36.2991 -52,-53.3334 -30.46305,-30.463 -60.20227,-61.5356 -90.66666,-92 -15.63977,-15.6398 -33.89014,-43.9974 -57.33333,-44 m 70.66666,0 c 7.03603,18.1491 30.41264,34.4126 44,48 34.01643,34.0165 67.33463,68.668 101.33332,102.6667 15.48019,15.4801 30.13139,38.6667 53.33333,38.6667 -13.57299,-20.5193 -34.66223,-37.329 -51.99999,-54.6667 -30.46248,-30.4625 -60.21297,-61.5463 -90.66666,-92 -15.40078,-15.4008 -32.89742,-42.6641 -56,-42.6667 m 79.99999,0 c 8.39006,17.9917 31.32874,33.9954 45.33334,48 33.10904,33.1091 65.5395,66.8729 98.66666,100 16.53011,16.5301 31.43631,41.3334 55.99999,41.3334 -9.13375,-12.9665 -22.48006,-22.9222 -33.10697,-34.6667 -34.35107,-37.9639 -72.2631,-72.86 -108.20682,-109.3282 -16.76351,-17.0081 -33.08585,-45.3385 -58.6862,-45.3385 m 72,0 c 8.39006,17.9917 31.32873,33.9955 45.33333,48 33.10299,33.103 65.5487,66.8821 98.66666,100 16.41919,16.4192 31.59338,41.3334 56,41.3334 -10.61943,-15.0756 -26.32341,-27.1066 -38.92798,-40.5659 -32.72705,-34.9464 -67.92362,-67.5025 -101.01952,-102.1008 -16.6156,-17.3699 -34.42558,-46.6667 -60.05249,-46.6667 m 86.66666,0 c 6.63998,14.2388 23.61556,26.2823 34.66667,37.3334 24.23677,24.2368 47.78279,49.1161 71.99999,73.3333 8.33289,8.3329 16.32048,17.5404 25.33333,25.1358 2.72355,2.2952 7.71749,5.7088 10.88477,2.0535 3.55017,-4.0973 -1.64136,-9.6524 -4.29114,-12.5226 -8.07112,-8.743 -16.84668,-16.9197 -25.26029,-25.3334 -24.68201,-24.682 -48.66077,-49.994 -73.33333,-74.6666 -12.76131,-12.7613 -21.07983,-25.3334 -40,-25.3334 m 68,0 c 10.20923,21.8928 38.57299,40.665 54.89302,58.6667 3.04439,3.3581 15.93819,18.8648 20.72322,10.0833 3.76526,-6.91 -11.55684,-18.0239 -15.61625,-22.0833 -16.73071,-16.7307 -34.84912,-46.6639 -59.99999,-46.6667 m 159.99999,0 c -24.32634,0 -44.89534,28.9218 -61.33333,45.3334 -3.91508,3.9087 -18.28866,14.2492 -14.55143,20.9043 4.94051,8.7978 17.9484,-6.9693 21.21809,-10.2377 16.57601,-16.5696 44.71192,-34.6535 54.66667,-56 m 71.99999,0 c -19.82641,0 -30.62548,14.6255 -43.99999,28 -24.00708,24.0071 -49.32487,46.6582 -73.33333,70.6667 -8.60628,8.6063 -18.44393,16.2499 -26.52161,25.3333 -2.41752,2.7185 -6.57308,7.4695 -4.0494,11.3683 3.01815,4.6628 9.13217,0.1805 11.90434,-2.214 8.72738,-7.5381 16.88322,-16.0688 25.33333,-23.9402 26.57805,-24.758 52.98462,-50.2086 78.66667,-75.8807 9.88753,-9.8837 26.09244,-20.7006 31.99999,-33.3334 m -137.33332,189.3334 c 27.333,0 45.1993,-29.0341 63.99999,-46.5474 49.35628,-45.9763 100.86279,-91.9095 146.66666,-141.4526 -21.88631,-6.4694 -43.07975,25.5084 -57.33333,38.7859 -32.61311,30.3798 -63.78548,62.3578 -95.99999,93.1616 -18.54281,17.7308 -42.56478,35.0868 -57.33333,56.0525 m 81.33333,-1.3334 v 1.3334 c 25.61027,0 39.42651,-22.6903 57.33333,-38.893 35.33862,-31.9757 67.79426,-67.17 102.66666,-99.6544 15.36808,-14.3157 41.76171,-31.6907 50.66666,-50.786 -26.21468,0 -44.42472,29.9344 -62.66666,46.4404 -38.76115,35.0725 -74.57055,73.3787 -113.33333,108.4526 -11.74463,10.627 -21.70027,23.9731 -34.66666,33.107 m 79.99999,1.3334 c 24.47371,0 42.07357,-24.7467 58.66667,-41.3334 35.34985,-35.3362 72.66788,-68.6679 107.99995,-104 13.117,-13.1168 34.7896,-27.1087 42.6667,-44 -24.6971,0 -44.6914,28.6925 -61.33333,45.3334 -34.88671,34.8844 -71.77278,67.7727 -106.66666,102.6666 -13.55794,13.558 -30.24528,25.5925 -41.33333,41.3334 m 70.66666,0 c 27.33301,0 45.1993,-29.0341 64,-46.5474 49.34176,-45.9628 100.87746,-91.9254 146.66666,-141.4526 -21.9918,-6.5005 -42.9913,25.4261 -57.3333,38.7859 -32.6167,30.3832 -63.7818,62.3541 -96.00003,93.1616 -18.56453,17.7516 -42.54052,35.0524 -57.33333,56.0525 m 77.33333,0 c 24.68543,0 41.99023,-24.6634 58.66663,-41.3334 35.3356,-35.3218 72.6565,-68.6701 108,-104 13.3573,-13.3521 34.5908,-26.6826 42.6667,-44 -24.3607,0 -44.8937,28.8948 -61.3333,45.3334 -29.2455,29.2435 -59.0681,58.3546 -89.3334,86.5473 -19.1783,17.8649 -43.5398,35.9783 -58.66663,57.4527 m 264.00003,0 h 8 l -0.3138,-116.0052 -1.0196,-73.3282 c -11.9472,1.9938 -6.6666,35.3682 -6.6666,45.3334 v 144 m -969.33332,0 c -13.25325,-18.8146 -33.27591,-34.4581 -49.4002,-50.893 -29.21027,-29.7731 -58.41795,-59.5919 -87.93312,-89.107 -10.86527,-10.8653 -20.80857,-22.7794 -32,-33.2748 -2.76892,-2.5967 -10.64923,-9.8323 -14.36934,-4.5823 -3.358798,4.7403 3.52275,10.8968 6.38992,13.8571 10.38525,10.7224 21.61873,20.7247 31.41357,32 30.20103,34.7657 65.33289,66.1003 97.89918,98.6666 15.27514,15.2752 24.96398,33.3334 47.99999,33.3334 m 761.33332,0 c 21.2448,0 28.8519,-14.2751 44,-27.4342 33.8102,-29.3709 65.5822,-62.3001 97.3333,-93.8981 10.0321,-9.9837 20.7304,-19.2136 30.6605,-29.3344 2.8639,-2.919 9.2428,-8.1424 6.5576,-12.9033 -3.1088,-5.5118 -10.2315,-0.083 -13.2181,2.4887 -11.2784,9.712 -20.754,21.4127 -32,31.1821 -31.4153,27.2904 -61.2359,57.8017 -90.6667,87.2325 -13.9543,13.9543 -31.2681,26.4851 -42.6666,42.6667 m -842.66665,0 c -21.09208,-29.9428 -54.08057,-55.4139 -79.99999,-81.3334 -3.69736,-3.6973 -22.45179,-27.1708 -27.904316,-18.2222 -5.019511,8.2379 16.324206,23.9755 21.237646,28.8889 l 46.66667,46.6667 c 13.15594,13.1559 20.69673,24 39.99999,24 m 909.33325,0 c 19.5158,0 26.4853,-11.0246 40,-23.9476 14.329,-13.7015 28.6311,-27.351 42.6667,-41.3858 4.6045,-4.6041 26.0352,-19.528 21.2232,-27.4012 -5.4494,-8.916 -23.8836,14.0218 -27.8899,17.5021 -15.9708,13.8737 -30.1952,29.779 -45.3333,44.5463 -10.2982,10.0458 -22.3174,18.8334 -30.6667,30.6862 m -967.99991,0 c -8.85782,-12.5748 -21.48541,-23.5741 -32.22634,-34.6142 -2.78254,-2.8601 -10.57808,-10.3132 -14.377568,-4.75 -3.698659,5.4154 4.717338,12.1209 7.938268,15.3642 12.40128,12.4871 20.28795,24 38.66564,24 m 1041.33331,0 c 13.7198,0 20.8525,-3.1964 30.608,-13.3529 2.6819,-2.7922 8.2958,-8.4461 4.5288,-12.5031 -3.3413,-3.5986 -8.2926,-0.3427 -11.1368,2.0535 -8.176,6.8878 -17.5274,15.3389 -24,23.8025 z"
       id="path1" />
  </g>
</svg>
