<?xml version="1.0" encoding="UTF-8" standalone="no"?>
<!-- Created with Inkscape (http://www.inkscape.org/) -->

<svg
   version="1.1"
   id="svg1"
   width="1333.3333"
   height="1333.3333"
   viewBox="0 0 1333.3333 1333.3333"
   sodipodi:docname="FinishDDLeft.svg"
   inkscape:version="1.4.2 (ebf0e940d0, 2025-05-08)"
   xmlns:inkscape="http://www.inkscape.org/namespaces/inkscape"
   xmlns:sodipodi="http://sodipodi.sourceforge.net/DTD/sodipodi-0.dtd"
   xmlns="http://www.w3.org/2000/svg"
   xmlns:svg="http://www.w3.org/2000/svg">
  <defs
     id="defs1" />
  <sodipodi:namedview
     id="namedview1"
     pagecolor="#505050"
     bordercolor="#eeeeee"
     borderopacity="1"
     inkscape:showpageshadow="0"
     inkscape:pageopacity="0"
     inkscape:pagecheckerboard="0"
     inkscape:deskcolor="#505050"
     showgrid="false"
     inkscape:zoom="0.59400004"
     inkscape:cx="666.66663"
     inkscape:cy="666.66663"
     inkscape:window-width="1920"
     inkscape:window-height="995"
     inkscape:window-x="0"
     inkscape:window-y="0"
     inkscape:window-maximized="1"
     inkscape:current-layer="g1" />
  <g
     inkscape:groupmode="layer"
     inkscape:label="Image"
     id="g1">
    <path
       style="fill:#f9f9f9;stroke:none"
       d="m 189.33332,474.66664 c -35.78502,35.78466 -70.86919,72.20255 -106.666658,107.99999 -10.517456,10.5175 -21.210621,20.84172 -31.047321,32 -3.014618,3.41968 -8.679687,7.40413 -9.825106,12 -1.714259,6.87825 19.482932,27.5297 26.205761,24.3313 7.49445,-3.56552 14.184203,-13.18221 19.999999,-18.99797 13.647415,-13.64738 30.214535,-26.8824 41.333335,-42.66666 h 1.33333 l 42.66666,43.99999 17.33334,14.39095 21.33333,-18.39095 v -1.33333 c -14.91164,-14.91146 -30.25903,-29.31445 -45.33333,-44.01953 -3.71871,-3.6276 -14.6358,-11.30403 -13.05761,-17.3138 1.3272,-5.05403 8.17618,-9.78523 11.72427,-13.33333 9.83222,-9.83219 21.317,-19.28662 29.33333,-30.66667 h 1.33334 l 69.33333,69.33333 h 1.33333 c 4.74353,-4.74349 18.39095,-14.1621 18.39095,-21.33333 0,-8.04744 -17.03455,-19.97688 -22.39095,-25.33333 C 239.6185,522.28512 215.9195,493.39434 189.33332,474.66664 M 309.33331,593.3333 c -20.643,20.65649 -40.65868,41.99202 -61.33333,62.66666 -13.77119,13.7712 -27.71445,27.39241 -41.31377,41.33333 -10.75997,11.03019 -21.10511,22.41894 -32.01955,33.33333 -3.87236,3.8724 -11.49084,9.12468 -12.87243,14.66667 -1.58714,6.36653 18.50583,26.45955 24.87243,24.87239 10.82604,-2.69873 24.20045,-22.40625 31.99999,-30.20573 27.3492,-27.3492 54.00244,-55.33577 81.33333,-82.66666 8.68654,-8.68652 31.21263,-23.99348 34.20577,-35.99999 2.01975,-8.10189 -18.91687,-23.80485 -24.87244,-28 M 25.333332,635.99996 C 16.179791,645.15336 1.0032009,655.52026 0,669.33329 7.0723472,664.35144 33.038715,644.42916 25.333332,635.99996 m 343.999978,16 -150.66666,151.99999 v 1.33333 c 5.61326,5.61329 18.29511,23.72429 26.6142,23.72429 7.73761,0 22.61769,-20.95622 28.05247,-26.39095 26.01578,-26.01579 50.96488,-54.50675 78.66666,-78.66666 -9.45284,36.52066 -16.42967,73.83007 -24.56584,110.66666 -4.17472,18.90104 -12.67435,40.66617 -13.08333,59.99999 -0.16577,7.83659 16.82674,25.6722 24.31584,27.53906 4.31697,1.07617 7.96997,-3.57137 10.66666,-6.21191 8.53027,-8.35254 16.8914,-16.88525 25.33333,-25.32715 27.77226,-27.77229 54.87459,-56.20792 82.66667,-83.99999 8.09549,-8.09554 28.74206,-22.11328 31.5391,-33.33333 1.6842,-6.75594 -19.46041,-27.42237 -26.20577,-25.0988 -10.22921,3.52376 -20.43404,20.19955 -28,27.76546 l -29.33333,29.33333 -48,48 c 8.55111,-41.4292 18.19572,-82.73063 27.53394,-123.99999 2.93961,-12.99137 13.55493,-37.8125 10.10087,-50.66666 -2.54338,-9.46513 -17.87403,-21.19983 -25.63481,-26.66667 m -335.999979,2.66667 c -6.197178,12.8776 -2.666666,32.56119 -2.666666,46.66666 v 102.66666 c 0,15.57048 -4.81132,36.5839 9.333333,46.66666 V 702.66662 c 0,-11.20133 5.55196,-43.20528 -6.666667,-47.99999 m 29.333332,18.66666 v 155.99999 c 0,14.65235 -6.222814,44.65902 9.333333,52 0,-51.95841 -1.152949,-104.274 -0.07202,-155.99999 0.284805,-13.62874 4.774973,-45.23494 -9.261316,-52 m 34.666664,34.66667 v 153.33332 c 0,16.86165 -5.905171,43.8042 9.333333,54.66666 V 759.99995 c 0,-14.65234 6.22281,-44.65901 -9.333333,-51.99999 m 38.666663,37.33333 v 154.66666 c 0,16.86165 -5.90517,43.80419 9.33333,54.66666 0,-35.5603 0.278,-71.13069 -0.15843,-106.66666 -0.19494,-15.87215 -2.43286,-32.13468 -0.94856,-48 1.2376,-13.22835 5.30461,-48.14518 -8.22634,-54.66666 m 44,42.66666 v 154.66666 c 0,15.70703 -5.96275,44.5013 8,54.66666 V 842.66662 c 0,-15.70704 5.96275,-44.5013 -8,-54.66667 m 193.33332,169.33332 v 1.33334 l 25.33333,25.33333 c 12.84977,-9.05159 23.56165,-22.22835 34.66667,-33.33333 23.35302,-23.35303 45.99275,-47.32609 69.33333,-70.66666 13.23559,-13.2356 37.6322,-29.78321 45.66463,-46.66667 3.4744,-7.30289 -16.19035,-24.85921 -22.99797,-26.25822 -4.85608,-0.99796 -8.99617,4.61076 -12,7.59253 -9.16683,9.09969 -17.57011,18.85734 -26.66768,27.99903 -37.91496,38.09863 -75.34716,76.68147 -113.33231,114.66665 M 218.66665,826.66662 v 154.66665 c 0,16.86166 -5.90517,43.80423 9.33334,54.66663 V 881.33328 c 0,-16.86165 5.90517,-43.8042 -9.33334,-54.66666 m 48,46.66666 v 115.99999 c 0,8.86068 -0.3647,17.80863 0.0257,26.66053 0.12005,2.7218 0.72835,8.3667 4.96193,7.004 6.3445,-2.0421 3.01235,-29.24965 3.01235,-34.99786 v -82.66666 c 0,-11.90511 2.68856,-24.21834 -8,-32 m -247.999984,2.66667 c 0,57.27245 3.911348,114.75438 5.313786,171.99995 1.127637,46.0287 -2.324829,94.3042 3.066871,140 2.967448,25.1498 2.286009,51.9942 2.286009,77.3334 0,3.4609 -2.112735,24.0609 5.054527,21.6646 5.28585,-1.7673 3.032071,-17.332 2.925926,-21.6646 -0.564253,-23.032 -2.638232,-46.2914 -2.64712,-69.3334 -0.03117,-80.7905 -3.081731,-161.9961 -6.614197,-242.66662 -0.771731,-17.62403 -1.29998,-35.75008 -1.384776,-53.33333 -0.04591,-9.51986 1.919264,-19.21875 -8.001026,-24 M 645.33329,1011.9999 c 17.88119,-12.86992 21.66899,-39.90767 16.35393,-59.99996 -9.3617,-35.38973 -46.25183,-69.17236 -84.35392,-67.94238 -9.24296,0.29834 -18.77425,3.05266 -26.66667,7.84465 -42.56111,25.84155 -20.65645,75.45971 -3.67077,109.43109 9.28922,18.5784 21.48006,40.591 0.98458,56.6234 -24.98617,19.5452 -61.76705,-17.946 -62.47428,-43.2901 -0.25078,-8.9866 11.19909,-20.6337 8.81994,-27.99999 -1.82047,-5.63656 -18.48612,-23.92383 -24.87243,-22.20573 -18.77075,5.0498 -18.32121,43.08582 -15.23352,56.87242 8.34004,37.2384 46.46545,78.0854 87.11315,76.9876 10.4812,-0.283 21.00956,-3.4922 29.33333,-9.895 6.36727,-4.8979 12.47209,-10.8972 16.70886,-17.7593 17.23584,-27.9162 2.06767,-62.216 -11.78601,-87.99999 -6.88529,-12.8147 -16.35713,-28.83594 -13.97119,-44 2.22066,-14.11377 18.47416,-23.35075 31.71501,-19.78597 15.20345,4.0931 30.00883,18.34082 35.26851,33.1193 5.43831,15.28027 -7.67025,21.93278 -7.04631,34.66667 0.42159,8.604 17.98133,19.54069 23.77779,25.33329 M 53.33333,907.99994 c 0,58.98552 2.701202,118.42166 5.280863,177.33336 1.281464,29.2648 -0.495809,58.7804 1.505142,88 1.391821,20.3245 2.029022,40.9746 2.527781,61.3333 0.18304,7.4715 -2.773813,18.4212 6.686213,20 1.890004,-10.6555 0,-22.4513 0,-33.3333 0,-26.1214 -0.76386,-52.623 -2.547327,-78.6667 -3.429205,-50.0762 -0.570415,-100.585 -4,-150.66666 -1.256851,-18.3536 -1.451492,-37.63574 -1.452672,-56 -7.12e-4,-11.05346 1.856948,-20.82373 -8,-28 m 249.33332,1.33334 v 59.99999 c 0,3.51107 -1.83539,18.60596 4.98765,17.2531 5.21993,-1.035 3.01235,-16.10563 3.01235,-19.91976 0,-16.25977 6.51475,-46.76603 -8,-57.33333 m -209.333322,36 c 0,69.37402 5.333333,138.67252 5.333333,208.00002 0,16.5192 1.332275,32.8515 1.333333,49.3333 1.86e-4,2.9129 -1.325968,15.7179 4.833336,13.6646 4.74554,-1.582 3.21355,-11.3725 2.78601,-14.9979 -1.82924,-15.5117 0.29681,-31.1585 -1.17902,-46.6667 -4.95915,-52.1116 -1.41041,-105.0953 -4.98765,-157.33333 -1.07747,-15.73421 6.0492,-41.4414 -8.119342,-51.99999 m 34.666662,31.99999 c 0,51.54473 3.99669,103.08073 4,154.66663 7.8e-4,12.0244 1.25122,23.9406 1.33436,36 0.0188,2.7258 -0.31292,11.3799 4.83231,9.6647 3.96514,-1.3219 3.13421,-7.901 2.78497,-10.998 -1.29934,-11.5221 -0.95164,-23.0718 -0.95164,-34.6667 0,-37.9486 1.70437,-79.7336 -3.23251,-117.3333 -1.72402,-13.1302 3.27516,-28.56575 -8.76749,-37.33333 m 262.66665,18.66667 c -10.19913,-14.00911 -41.36144,-9.33333 -57.33333,-9.33333 -4.16709,0 -17.24605,-2.08895 -18.99792,3.16666 -2.02201,6.06608 13.10577,6.06812 16.33126,6.14714 19.97452,0.48934 40.01896,0.0195 59.99999,0.0195 m 322.66665,-4 c -33.57613,33.57646 -66.43306,67.76646 -99.99999,101.33336 -14.21472,14.2146 -37.5142,30.3549 -47.11727,48 -3.9998,7.3492 14.90625,25.8245 21.78393,27.539 5.88778,1.4678 12.43181,-7.9711 16,-11.539 12.68693,-12.6862 24.65662,-25.99 37.33333,-38.6667 3.7522,-3.7522 11.11874,-14.4702 17.33334,-12.105 9.16735,3.4891 18.45922,17.2309 25.33333,24.105 9.32804,9.328 18.55884,18.767 28,27.9805 2.99674,2.9244 10.26294,7.2618 10.95678,11.6913 0.8571,5.4714 -11.48209,14.1868 -14.95678,17.6615 -13.60563,13.6057 -38.74296,30.6486 -46.99797,48 -3.23356,6.7967 17.3772,27.5921 24.3313,26.7717 11.10921,-1.3109 26.94385,-25.7155 34.66667,-33.4383 28.68546,-28.6855 57.81233,-56.9944 85.45263,-86.6667 6.77726,-7.2756 26.78385,-20.4974 27.98559,-30.6667 0.7994,-6.7645 -20.49446,-25.9843 -26.77156,-22.9979 -7.49447,3.5656 -14.18417,13.1822 -20,18.9979 -13.22396,13.224 -29.22559,26.0378 -40,41.3334 h -1.33333 c -12.49129,-17.7329 -31.31795,-32.676 -46.66667,-48 -4.45084,-4.4437 -16.96138,-12.1719 -17.82511,-18.6718 -0.90946,-6.8443 13.4576,-16.9607 17.82511,-21.3282 10.03768,-10.0377 19.59253,-20.4201 29.38583,-30.6667 3.18196,-3.3293 10.33846,-8.2126 10.33846,-13.3333 0,-8.0005 -18.99716,-21.06424 -25.05762,-25.33336 m -542.66663,25.33336 c 0,28.028 2.32867,56.0228 2.66152,84 0.1609,13.5249 -3.28442,31.623 2.67181,44 8.62842,-4.758 5.89925,-22.0472 4.7675,-30.6667 -2.80516,-21.3642 -2.10083,-45.1152 -2.10083,-66.6667 0,-11.632 2.42608,-23.0761 -8,-30.6666 m 258.66665,17.3333 c -7.08297,-11.8799 -19.93766,-9.3333 -32,-9.3333 -28.06958,0 -55.98498,-1.3334 -84,-1.3334 -5.97102,0 -33.10506,-3.4535 -35.5391,3.0124 -1.38458,3.678 3.79033,4.6943 6.21194,4.9094 9.11008,0.8095 18.85315,1.3665 27.99383,1.4106 39.10905,0.1886 78.32153,1.3343 117.33333,1.3343 m -225.33332,14.6667 c 0,15.1878 0.94364,30.2251 1.31378,45.3333 0.17,6.9389 -1.77199,14.5884 6.68622,16 1.48102,-13.876 5.85207,-54.4995 -8,-61.3333 m 50.66666,13.3333 c 10.44535,14.3473 34.98317,6.5301 50.66666,8.3807 52.67082,6.2147 109.59253,2.286 162.66666,2.286 -7.47904,-15.6506 -38.59631,-9.3334 -53.33333,-9.3334 -53.37084,0 -106.58969,-1.3333 -159.99999,-1.3333 M 0,1065.3333 v 196 46.6666 c 0,6.8064 -1.3140449,13.6678 5.333333,17.3334 l 1.3384774,-22.6667 -1.2191359,-45.3333 -3.8930038,-148 L 0,1065.3333 m 298.66665,40 c 11.10197,15.5744 40.06081,9.3322 57.33333,9.3333 52.35485,0 104.95535,2.6667 157.33332,2.6667 -11.1014,-15.5738 -40.06136,-9.3334 -57.33333,-9.3334 -52.01196,0 -105.50455,1.4236 -157.33332,-2.6666 m -21.33333,12 c -9.83724,-13.2006 -30.80951,-6.6667 -45.33333,-6.6667 -3.29694,0 -15.17796,-1.7717 -16.10494,2.893 -1.01658,5.1156 10.85449,3.7735 13.43827,3.7737 h 48 m -94.66666,32 37.33333,1.3333 91.99999,-1.3333 c -7.80888,-8.6678 -18.60868,-6.6667 -29.33333,-6.6667 -23.16502,0 -46.24172,1.3333 -69.33333,1.3333 -8.9114,0 -25.7654,-3.555 -30.66666,5.3334 m 158.66665,-1.3334 c 11.10144,15.5738 40.06132,9.3334 57.33333,9.3334 52.45198,0 104.82185,1.3333 157.33333,1.3333 -10.36813,-14.2412 -40.00358,-7.8149 -56,-8.0051 -52.81547,-0.6284 -105.81787,-2.6616 -158.66666,-2.6616 m 5.33334,34.6667 c -8.39932,-11.0249 -28.73739,-6.6667 -41.33334,-6.6667 -38.21655,0 -76.38612,1.2718 -114.66665,1.3334 -11.99886,0.019 -23.94148,1.3085 -36,1.3333 -2.7002,0.01 -10.00717,-0.9538 -10.77161,2.893 -0.92143,4.6368 8.37367,3.7687 10.77161,3.7737 h 36 c 51.98294,0 104.06041,-2.6667 155.99999,-2.6667 m 33.33333,4 c 10.28995,14.1338 33.88741,6.5378 49.33333,8.5658 22.12223,2.9047 45.6912,0.7675 67.99999,0.7675 32.48279,0 64.81217,1.3334 97.33333,1.3334 -10.70548,-14.7046 -39.70463,-9.3334 -56,-9.3334 -52.9355,0 -105.71467,-1.3333 -158.66665,-1.3333 m 6.66666,33.3333 c -9.57186,-12.564 -40.06685,-6.7135 -54.66666,-6.6656 -52.85266,0.1735 -105.77268,2.6656 -158.66666,2.6656 -16.05381,0 -32.03252,1.1383 -47.99999,1.3282 -3.16495,0.038 -13.87218,-1.6279 -14.77161,2.8981 -1.05102,5.2889 12.08949,3.7737 14.77161,3.7737 h 49.33333 c 70.57293,0 141.44512,-2.5437 211.99998,-4 m 36,8 c 10.16427,13.9612 33.97721,6.7512 49.33333,8.7675 21.19255,2.7827 43.96163,0.5659 65.33333,0.5659 32.95357,0 65.70113,1.3333 98.66666,1.3333 -7.30684,-15.1605 -39.14257,-9.3333 -53.33333,-9.3333 -53.38114,0 -106.58796,-1.3334 -159.99999,-1.3334 m 4,29.3334 c -12.12337,-16.6521 -51.03702,-6.756 -69.33333,-6.6678 -68.03072,0.3282 -136.03612,2.6678 -203.99999,2.6678 -20.38451,0 -40.96954,-0.8392 -61.333326,0.052 -3.453806,0.1513 -17.928877,-0.067 -18.771605,4.1739 -1.118566,5.6288 15.77779,3.7737 18.771605,3.7737 21.361026,0 42.736516,-1.2298 63.999996,-1.3323 90.28643,-0.4355 180.37849,-2.6677 270.66665,-2.6677 m 25.33333,0 c 9.18579,12.7251 24.6307,9.3333 38.66667,9.3333 34.25056,0 68.50988,1.3333 102.66666,1.3333 10.66617,0 21.33398,0.055 32,-10e-4 3.11006,-0.016 9.70068,0.7258 10.99796,-3.1656 1.55741,-4.6718 -5.66785,-4.7768 -8.33232,-4.8272 -11.16202,-0.211 -22.15486,-1.3395 -33.33231,-1.3395 -47.63033,0 -95.0819,-1.3333 -142.66666,-1.3333 m 149.33333,76 c 10.81701,-0.351 16.34358,-8.3995 23.04732,-16 13.47693,-15.2798 36.31815,-29.4841 44.95267,-48 -8.5319,-1.2054 -14.44157,7.7727 -20,13.3333 -15.80708,15.8131 -35.16011,32.439 -47.99999,50.6667 m -562.666636,-40 38.666665,1.3333 83.999991,-1.3333 299.99999,-4 c -7.55778,-10.1418 -15.64405,-6.8029 -26.66667,-6.6718 -18.66089,0.2219 -37.33768,0.01 -56,0.01 -82.17773,0 -164.48613,4 -246.66665,4 -23.18773,0 -46.229437,0.2692 -69.333327,1.2808 -7.679453,0.3363 -20.566502,-3.1555 -23.999999,5.3859 m 450.666636,0 c 5.36752,9.2373 14.57145,8 24,8 18.23023,0 36.37842,1.3333 54.66667,1.3333 4.90759,0 24.33341,2.8086 25.43827,-4.0525 1.2535,-7.784 -19.86808,-5.2808 -24.10494,-5.2808 h -80 m 9.33334,30.6666 c -7.80888,-8.6679 -18.60869,-6.6666 -29.33334,-6.6666 -22.29923,0 -44.38508,1.3333 -66.66666,1.3333 -94.24287,0 -188.46996,4 -282.66665,4 -28.048986,0 -56.029291,1.3333 -83.999992,1.3333 -4.210988,0 -24.430093,-2.4987 -25.43827,2.9455 -1.3054547,7.0495 22.643429,3.7212 26.771603,3.7212 29.34176,0 58.764157,-1.2864 87.999999,-1.3333 92.34301,-0.1485 185.14199,0.089 277.33331,-3.9476 31.86308,-1.3952 64.32918,2.6167 96,-1.3858 z"
       id="path1" />
  </g>
</svg>
