<?xml version="1.0" encoding="UTF-8" standalone="no"?>
<!-- Created with Inkscape (http://www.inkscape.org/) -->

<svg
   version="1.1"
   id="svg1"
   width="1333.3333"
   height="1333.3333"
   viewBox="0 0 1333.3333 1333.3333"
   sodipodi:docname="FinishUP.svg"
   inkscape:version="1.4.2 (ebf0e940d0, 2025-05-08)"
   xmlns:inkscape="http://www.inkscape.org/namespaces/inkscape"
   xmlns:sodipodi="http://sodipodi.sourceforge.net/DTD/sodipodi-0.dtd"
   xmlns="http://www.w3.org/2000/svg"
   xmlns:svg="http://www.w3.org/2000/svg">
  <defs
     id="defs1" />
  <sodipodi:namedview
     id="namedview1"
     pagecolor="#505050"
     bordercolor="#eeeeee"
     borderopacity="1"
     inkscape:showpageshadow="0"
     inkscape:pageopacity="0"
     inkscape:pagecheckerboard="0"
     inkscape:deskcolor="#505050"
     inkscape:zoom="0.59400004"
     inkscape:cx="666.66663"
     inkscape:cy="666.66663"
     inkscape:window-width="1920"
     inkscape:window-height="995"
     inkscape:window-x="0"
     inkscape:window-y="0"
     inkscape:window-maximized="1"
     inkscape:current-layer="g1" />
  <g
     inkscape:groupmode="layer"
     inkscape:label="Image"
     id="g1">
    <path
       style="fill:#f9f9f9;stroke:none"
       d="m 133.33333,0 v 110.66666 h 6.66666 V 0 h -6.66666 m 73.33332,0 c -13.28924,0 -18.71232,3.6367185 -27.97428,13.333333 -2.38086,2.492594 -7.6886,7.263834 -5.04217,11.189289 2.61908,3.884928 8.00604,-0.07674 10.34979,-2.053466 C 191.82612,15.868407 200.7626,8.3583979 206.66665,0 m 58.66667,0 c -17.76988,0.00203451 -25.31468,10.652669 -37.33333,22.666665 -13.53921,13.534016 -27.61631,26.599445 -41.33333,39.980467 -4.29674,4.191487 -25.60338,18.418456 -19.93725,25.861082 5.5925,7.345947 21.85922,-13.097086 25.27058,-16.508218 C 215.46035,48.541175 246.20842,27.149738 265.33332,0 m -77.33333,110.66666 c 19.92142,-0.002 29.22229,-14.865396 42.66666,-27.980467 C 257.99819,56.024167 293.39504,30.7124 315.99998,0 297.06977,0 286.2533,13.810058 273.33332,26.667723 246.08908,53.780596 210.11599,79.270747 187.99999,110.66666 m 69.33333,0 c 20.09552,-0.002 31.94555,-17.342366 45.33333,-30.665607 25.83553,-25.710936 52.93371,-57.723385 82.66666,-78.6677197 -14.98079,-6.2863766 -27.9174,10.5992017 -37.33333,19.9999987 -18.40584,18.376301 -36.96912,36.819741 -56,54.54736 -11.78558,10.978515 -25.33949,21.545083 -34.66666,34.785968 m 62.66666,-1.33333 v 1.33333 c 19.10677,0 29.69694,-13.697835 42.66666,-26.666665 C 389.91135,56.757077 425.81467,31.494301 447.99997,0 427.62746,0.00227865 416.20766,17.189859 402.66664,30.665607 376.40293,56.80265 349.44053,86.902094 319.99998,109.33333 m 72,1.33333 c 18.23811,-0.002 29.05021,-14.383544 41.33333,-26.666665 C 460.62774,56.705563 496.41798,31.584227 518.66664,0 499.55665,0.00219727 488.76002,15.240803 475.99997,27.999998 449.09295,54.90527 413.95062,79.505448 391.99998,110.66666 m 71.99999,-1.33333 v 1.33333 c 19.71716,0 30.67607,-14.676025 44,-27.999998 C 534.87749,55.78914 570.08651,31.108397 591.99996,0 571.78602,0.00227865 560.09681,17.258056 546.66663,30.666665 520.88815,56.403724 493.71396,88.402338 463.99997,109.33333 m 66.66666,1.33333 c 18.61031,-0.002 28.87508,-14.208414 41.33334,-26.666665 C 599.30953,56.690426 635.06523,31.611814 657.33329,0 638.85828,0.00211589 628.39197,14.274657 615.99996,26.666665 588.69141,53.975257 552.93185,79.058833 530.66663,110.66666 M 677.33329,0 c 21.78174,30.921385 55.90405,57.227047 82.66666,83.999995 13.10336,13.108398 20.25472,26.666665 40,26.666665 C 778.88309,80.689041 745.98173,58.180823 721.71399,30.666665 708.87479,16.109862 697.76493,0 677.33329,0 m 78.66666,0 c 21.76986,30.904458 54.62069,57.28735 81.33333,83.999995 12.31787,12.31787 21.56877,26.664545 40,26.666665 C 855.46056,79.616125 821.55936,52.226071 794.66662,25.333332 782.63366,13.300374 773.96903,0.00203451 755.99995,0 m 64,0 c 21.78515,30.926268 55.82625,58.492916 82.66666,85.333328 12.03288,12.032877 20.69759,25.331302 38.66667,25.333332 C 919.98359,79.44368 886.70128,53.367998 859.99995,26.666665 847.68208,14.348795 838.4311,0.00211589 819.99995,0 m 72,0 c 21.77978,30.918699 55.90112,57.234453 82.66666,83.999995 13.05485,13.054849 20.42448,26.666665 39.99999,26.666665 C 992.9162,79.78979 959.11998,54.285397 933.21292,26.661538 920.70714,13.326985 911.07278,0 891.99995,0 m 63.99999,0 c 21.64014,30.720376 54.74656,57.413245 81.33336,83.999995 12.3178,12.31787 21.5687,26.664545 40,26.666665 C 1055.6931,79.946284 1022.5867,53.253415 995.99994,26.666665 983.68207,14.348795 974.43117,0.00211589 955.99994,0 m 57.33336,0 c 21.9732,31.193276 56.1652,57.769284 82.7201,85.338455 12.447,12.922363 21.224,25.328205 39.9465,25.328205 C 1114.2201,79.747961 1080.0988,53.432207 1053.3333,26.666665 1040.2784,13.611816 1032.9088,0 1013.3333,0 m 53.3333,0 c 21.0852,29.932615 52.8131,55.479814 78.6667,81.333328 3.4479,3.447917 22.47,26.921792 27.6831,19.189292 4.3591,-6.465904 -17.3287,-23.909913 -21.3972,-28.522624 C 1135.9509,54.235592 1118.0816,38.081622 1101.3333,21.333332 1090.2009,10.200927 1083.1432,0.00187174 1066.6666,0 m 73.3333,0 c 3.482,4.9431149 7.7261,9.0580235 12,13.333333 l 9.3334,9.332274 c 2.0229,2.012289 15.8291,16.185953 17.0988,6.465088 0.6612,-5.062337 -5.9999,-10.013997 -9.0999,-13.130696 C 1159.215,5.8285315 1154.5702,0 1139.9999,0 m 50.6667,0 v 110.66666 h 5.3333 V 0 h -5.3333 M 738.66662,110.66666 c -13.10311,-18.601236 -31.92863,-34.601479 -48,-50.666664 -3.21036,-3.209147 -13.66182,-16.721027 -19.12243,-11.136799 -5.52934,5.654541 9.14091,17.154052 12.45577,20.470132 15.15551,15.161295 31.91316,41.330731 54.66666,41.333331 m -145.33332,0 c 23.52738,0 40.22733,-24.251708 55.99999,-39.999998 3.36524,-3.360025 17.53553,-13.219563 13.23767,-19.190265 -4.76078,-6.61377 -15.67492,6.975097 -18.571,9.855875 -16.36527,16.27897 -36.64713,31.002683 -50.66666,49.334388 m 235.99998,195.99999 h -45.33333 c 0.17139,62.10921 60.78141,84.05476 113.33333,82.68619 31.57072,-0.82218 67.5437,-14.45418 79.06689,-46.68619 20.81836,-58.23185 -32.33293,-92.55989 -80.40022,-107.04012 -20.84888,-6.28068 -53.56657,-14.36645 -58.03809,-39.62654 -3.99218,-22.55249 17.68905,-35.88664 36.70475,-38.99487 29.53304,-4.82739 58.63395,11.2583 60,42.99487 h 45.33333 C 979.75027,109.51554 824.78332,87.631668 795.39709,170.66666 c -20.87134,58.97485 40.02368,89.36921 85.93619,103.44856 21.43595,6.57348 50.60603,15.80029 53.09668,41.88476 2.32975,24.39893 -20.60148,35.74796 -41.09668,37.55355 -31.36247,2.76302 -63.27555,-11.78841 -64,-46.88688 M 122.66666,123.99999 v 262.66665 h 45.33333 V 274.66665 h 105.33333 v -36 H 167.99999 v -78.66666 h 121.33333 v -36 H 122.66666 m 205.33332,0 v 198.66666 47.99999 l 3.09054,15.19548 32.90946,0.80347 9.86214,-3.08944 0.80452,-22.24284 v -52 -185.33332 h -46.66666 m 102.66666,0 v 262.66665 h 45.33333 V 201.33332 h 1.33333 c 8.035,18.64648 21.43872,36.25822 32.41048,53.33333 17.59546,27.38346 34.40125,55.27807 52,82.66666 8.20024,12.76188 18.56653,40.41235 31.83541,47.96297 10.2443,5.82951 33.38452,1.37036 45.08744,1.37036 V 123.99999 H 593.3333 v 185.33332 c -32.13534,-41.8129 -56.31067,-90.6293 -85.32922,-134.66665 -7.49951,-11.38094 -14.49593,-23.13184 -21.76233,-34.66667 -2.90141,-4.60579 -5.65417,-11.78597 -10.5216,-14.62964 -10.05437,-5.87394 -33.49231,-1.37036 -45.05351,-1.37036 m 265.33332,0 v 262.66665 h 45.33333 V 123.99999 h -45.33333 m 325.33334,0 v 262.66665 h 45.3333 V 269.33332 h 117.3333 v 86.66666 c 0,6.22697 -3.14,25.11613 2.1379,29.2963 7.5682,5.99414 33.6012,1.37036 43.1955,1.37036 V 123.99999 h -45.3334 V 233.33332 H 1066.6666 V 123.99999 Z"
       id="path1" />
  </g>
</svg>
