<?xml version="1.0" encoding="UTF-8" standalone="no"?>
<!-- Created with Inkscape (http://www.inkscape.org/) -->

<svg
   version="1.1"
   id="svg1"
   width="1333.3333"
   height="1333.3333"
   viewBox="0 0 1333.3333 1333.3333"
   sodipodi:docname="Grass.svg"
   inkscape:version="1.4.2 (ebf0e940d0, 2025-05-08)"
   xmlns:inkscape="http://www.inkscape.org/namespaces/inkscape"
   xmlns:sodipodi="http://sodipodi.sourceforge.net/DTD/sodipodi-0.dtd"
   xmlns="http://www.w3.org/2000/svg"
   xmlns:svg="http://www.w3.org/2000/svg">
  <defs
     id="defs1" />
  <sodipodi:namedview
     id="namedview1"
     pagecolor="#505050"
     bordercolor="#eeeeee"
     borderopacity="1"
     inkscape:showpageshadow="0"
     inkscape:pageopacity="0"
     inkscape:pagecheckerboard="0"
     inkscape:deskcolor="#505050"
     inkscape:zoom="0.59400004"
     inkscape:cx="666.66663"
     inkscape:cy="666.66663"
     inkscape:window-width="1920"
     inkscape:window-height="995"
     inkscape:window-x="0"
     inkscape:window-y="0"
     inkscape:window-maximized="1"
     inkscape:current-layer="g1" />
  <g
     inkscape:groupmode="layer"
     inkscape:label="Image"
     id="g1">
    <path
       style="fill:#00ff00;stroke:none"
       d="m 686.1121,360.11521 c -5.28804,3.71354 -2.34847,25.87191 -2.08643,31.88371 0.11011,2.52523 0.71981,9.13712 4.96192,7.5402 6.05859,-2.28076 3.44246,-28.59261 2.93416,-34.18009 -0.25008,-2.74911 -2.04134,-7.89006 -5.80965,-5.24382 m 49.07405,2.78597 c -5.66202,2.93766 -3.70687,19.97046 -2.54215,25.07308 0.50732,2.22241 2.13126,6.99333 5.34774,5.12451 6.17806,-3.58952 4.34667,-33.90844 -2.80559,-30.19759 M 545.679,368.61521 c -5.40018,1.84676 -4.33252,23.40332 1.97526,20.37655 4.8892,-2.34611 4.57927,-22.618 -1.97526,-20.37655 m 354.66665,-0.15438 c -5.79354,2.18099 -4.2325,29.4152 1.97526,27.07829 5.79378,-2.18107 4.23218,-29.41512 -1.97526,-27.07829 m -46.58333,7.77368 c -4.69898,0.6932 -1.28133,7.1211 0.15023,9.09986 3.40584,4.70784 14.67163,18.91797 21.63785,16.38265 4.17912,-1.521 0.53793,-6.42977 -1.08748,-8.38477 -3.684,-4.43099 -14.1744,-18.06046 -20.7006,-17.09774 m 108.34976,18.54737 c -5.02693,3.53019 -2.53833,24.86767 -2.03393,30.54524 0.21517,2.42147 1.23144,7.5966 4.90942,6.212 5.78093,-2.17627 3.70988,-27.53784 2.81486,-32.79427 -0.44629,-2.62109 -2.58992,-6.14022 -5.69035,-3.96297 m -165.33332,6.66666 c -4.4126,3.09872 -2.70117,20.37451 -1.91463,25.19133 0.41723,2.55509 2.48592,6.95068 5.69035,4.35807 4.76456,-3.8549 2.71582,-34.10807 -3.77572,-29.5494 m -324.77879,38.55143 c 1.95394,-4.06014 2.60099,-7.4768 2.66154,-12 l 0.004,-8 c -0.0127,-2.39664 -1.34566,-16.49129 -6.64921,-9.83642 -4.83931,6.07235 -2.44389,26.29215 3.98356,29.83642 m 142.66666,-31.99999 c -0.91565,4.93212 -1.32528,9.64762 -1.33333,14.66666 v 9.33333 c 0.004,2.23495 1.24349,18.78662 6.65022,11.43107 4.97189,-6.76399 3.6434,-33.9357 -5.31689,-35.43106 m 133.33332,7.99999 c -2.50138,9.50611 13.74284,28.96314 23.80144,29.55762 8.84838,0.52295 -2.23829,-11.95809 -3.80762,-13.55762 -2.63493,-2.68546 -5.29216,-5.36116 -7.99382,-7.97941 -3.74227,-3.62671 -7.07356,-6.34578 -12,-8.02059 m 148.8632,5.44857 c -5.71403,4.14876 9.14908,18.78084 14.30655,15.65536 5.7627,-3.49227 -8.82137,-19.63802 -14.30655,-15.65536 m -38.56071,6.61426 c -5.39103,4.19783 -2.37207,24.94344 -1.61117,31.16349 0.31087,2.5415 1.79468,7.84302 5.47429,5.87248 6.05778,-3.24414 4.03979,-27.11678 2.8632,-33.02059 -0.60523,-3.03678 -3.40422,-6.60213 -6.72632,-4.01538 m -351.70884,1.23144 c -5.43498,1.20842 -14.03976,15.73682 -5.18107,13.51848 5.27579,-1.32113 14.70113,-15.63517 5.18107,-13.51848 m 309.40635,10.70573 c -16.94157,-4.45792 -23.57503,24.64592 -9.33952,13.13477 1.82121,-1.47274 3.49243,-3.31828 4.96916,-5.12964 2.0367,-2.49837 3.20858,-5.04427 4.37036,-8.00513 m -158.66666,21.33334 c 10.45305,-0.78793 20.54537,-10.88038 21.33334,-21.33334 -10.45297,0.78784 -20.54537,10.88037 -21.33334,21.33334 m 78.66667,9.33333 c 4.17293,-3.85628 10.68782,-26.51497 1.17382,-28.1049 -10.05908,-1.68107 -3.46598,24.36312 -1.17382,28.1049 m 191.97427,-27.88477 c -5.60995,2.42635 -13.46208,10.52645 -16.35807,15.85905 -1.99927,3.68132 0.16023,7.09896 4.44238,5.80965 5.99072,-1.80379 12.98828,-9.87093 16.0577,-15.11108 2.24178,-3.82723 1.27604,-8.90104 -4.14201,-6.55762 m -337.3076,1.2181 c -15.3068,-3.37044 -23.23132,24.39999 -9.33744,13.13477 1.83109,-1.4847 3.52063,-3.32715 5.03292,-5.12964 2.13435,-2.54395 3.255,-4.91789 4.30452,-8.00513 m -191.65428,9.56787 c -4.9371,2.56796 -4.01799,22.7155 2.07507,20.48356 5.35083,-1.96004 4.07617,-23.68302 -2.07507,-20.48356 m 144.98762,42.43213 c 8.49149,-2.79093 10.62845,-33.7487 5.10083,-40.50309 -6.27336,-7.66569 -6.43417,11.65771 -6.43417,13.83642 v 10.66667 c 3.7e-4,5.49048 0.0575,10.64111 1.33334,16 m -80,-20 c -0.51473,-4.62158 -6.82479,-19.24902 -13.8035,-14.48454 -7.68632,5.24764 9.94645,14.05502 13.8035,14.48454 m 243.49689,-7.81787 c -6.01961,3.97445 11.35018,22.21785 16.95882,18.30241 5.49943,-3.83919 -11.08764,-22.17887 -16.95882,-18.30241 m 251.16975,15.81787 c -0.3641,-4.83065 -8.09416,-21.21354 -15.11727,-15.88476 -6.66447,5.05672 11.3505,15.12475 15.11727,15.88476 m 35.63069,-14.55143 c -4.56681,3.28125 -2.69547,25.69075 3.62337,21.10286 4.27983,-3.10734 2.70203,-25.6477 -3.62337,-21.10286 m -377.48663,5.33333 c -3.34672,2.45467 0.28788,7.1132 2.05453,9.2181 3.01843,3.59635 18.6818,22.83268 24.00101,18.55143 2.80823,-2.26025 -0.62272,-6.75024 -2.12964,-8.63273 -3.09663,-3.86841 -18.56949,-23.06551 -23.9259,-19.1368 m 282.78701,1.33334 c -4.58724,3.4104 -2.5205,26.89078 3.47119,22.43619 4.58749,-3.41056 2.52043,-26.8907 -3.47119,-22.43619 m -213.48558,6.66666 c -5.18612,3.64193 -2.65511,27.28524 -1.96712,33.19238 0.29004,2.49072 2.04419,7.88045 5.59057,5.24382 5.42106,-4.03036 2.75546,-26.93522 2.1862,-33.19238 -0.25008,-2.74903 -2.04142,-7.89006 -5.80965,-5.24382 m 83.22119,1.2181 c -4.78483,0.53288 -25.74911,12.50643 -17.61833,18.55143 7.25789,5.396 17.22013,-13.26839 17.61833,-18.55143 m 48.86319,4.11523 c -3.23722,2.35051 0.46444,7.1941 2.10905,9.2181 3.20215,3.94084 18.10726,22.38127 24.16455,18.45166 3.32341,-2.156 -0.57031,-7.22469 -2.10905,-9.11832 -3.19547,-3.93262 -18.30013,-22.80941 -24.16455,-18.55144 m 143.9156,5.33334 c -5.21329,3.66105 -1.97233,31.53336 3.77572,26.88273 4.49943,-3.64038 2.87337,-31.552 -3.77572,-26.88273 m -539.44544,26.55143 c 9.19503,-3.1259 18.2074,-12.13835 21.33333,-21.33333 -10.77608,-2.59522 -24.17887,10.51969 -21.33333,21.33333 m 435.99997,-1.33333 h 4 c 1.14128,-3.13135 6.00114,-20.32406 -2.38785,-18.77157 -5.64104,1.04395 -2.44939,15.25505 -1.61215,18.77157 m -250.66665,-8 c -4.76615,0.92211 -24.32149,10.86572 -17.71708,17.78393 6.60584,6.91968 17.07267,-12.96265 17.71708,-17.78393 m -93.41149,2.9012 c -4.21619,1.5944 -19.44588,19.84619 -9.17594,17.43009 4.87142,-1.14599 11.20564,-7.8365 13.13887,-12.30558 1.36471,-3.15487 -0.17615,-6.55648 -3.96293,-5.12451 m 282.19029,5.21403 c -5.02889,3.53149 -2.67041,33.62964 3.77572,29.10286 5.02905,-3.53165 2.67032,-33.62955 -3.77572,-29.10286 m -12.77881,26.55143 c -0.57348,-5.14893 -15.27718,-28.65242 -21.2181,-20.47013 -5.53735,7.62646 15.38143,20.03019 21.2181,20.47013 m -91.99999,5.33333 c -0.89868,-5.82405 -17.3077,-29.30444 -24.4506,-23.88476 -3.29362,2.49902 1.54325,7.39722 3.19649,9.2181 5.9447,6.54752 12.02584,13.97111 21.25411,14.66666 M 869.33328,537.3333 c -2.95044,11.21256 12.81413,26.69393 24,24 -3.34994,-9.854 -14.146,-20.65006 -24,-24 m -159.99999,6.66667 c -23.96867,2.66967 -1.764,23.40112 0,0 m 221.33332,0 c -3.69515,0.57023 -20.295,9.61108 -13.78393,14.55143 6.83268,5.18432 13.43953,-9.98242 13.78393,-14.55143 m -458.66664,35.99999 c 4.39498,-10.4152 3.36475,-23.7242 1.33333,-34.66666 -10.7657,1.79671 -9.62927,30.09204 -1.33333,34.66666 m 65.13476,-30.60383 c -5.0393,4.54638 16.21594,26.37158 22.00208,22.42171 5.89522,-4.02434 -15.81295,-28.00545 -22.00208,-22.42171 m 80.19857,39.93717 c 6.59643,-6.4598 4.05871,-19.32007 3.99898,-28 -0.0183,-2.65267 0.55277,-10.29924 -3.7922,-10.20573 -3.55119,0.0764 -3.9036,6.46061 -4.08642,8.87345 -0.74304,9.80697 -1.12594,20.65121 3.87964,29.33228 m 118.66666,-4 c 6.22607,-6.09709 4.05533,-17.14958 3.99894,-25.33333 -0.0174,-2.53085 0.6569,-8.733 -2.89193,-9.43824 -3.92822,-0.78059 -3.72559,5.88884 -3.7675,8.10596 -0.16471,8.71354 -1.51684,18.83805 2.66049,26.66561 M 397.33331,551.99997 c -1.39421,7.73982 -3.96436,19.72989 5.33333,22.66666 1.78516,-7.49796 4.5599,-21.01554 -5.33333,-22.66666 m 465.3333,12 c -9.81689,3.94612 -5.33634,29.33959 -5.67285,38.66666 -0.13159,3.64665 -0.61556,9.65942 1.68832,12.7644 6.2159,8.37712 6.6512,-14.6193 6.6512,-16.7644 v -14.66667 c 0,-7.07682 0.12118,-13.39322 -2.66667,-19.99999 m 132.3457,7.00821 c -5.21159,2.50082 -4.38053,25.59025 1.97526,23.19759 5.55103,-2.08968 4.32933,-26.22289 -1.97526,-23.19759 m -191.01236,0.99179 c -4.57593,0.34488 -21.81714,8.65445 -15.11727,15.05045 6.67277,6.37012 14.60539,-10.45435 15.11727,-15.05045 m 95.44547,4.11523 c -5.12744,3.60075 -2.56413,26.03092 -2.03394,31.85905 0.25009,2.7491 2.04126,7.89013 5.80966,5.24381 5.12736,-3.60067 2.56412,-26.03092 2.03393,-31.85905 -0.25008,-2.7491 -2.04142,-7.89005 -5.80965,-5.24381 m -76.32926,6.89298 c -7.01391,3.1569 15.13289,28.06852 21.73462,24.75725 7.00146,-3.5118 -14.99984,-27.7885 -21.73462,-24.75725 M 473.3333,611.99996 c -1.05224,-9.44799 -8.8966,-16.55818 -15.99999,-22.36214 -2.11377,-1.72713 -6.70415,-5.31893 -9.53191,-2.87549 -3.0037,2.59546 1.33602,7.32064 3.01547,9.23763 6.10722,6.97095 12.925,14.93181 22.51643,16 m 54.58744,-25.47941 c -5.0994,1.27246 -19.29138,18.87744 -9.17077,17.39917 6.68062,-0.97583 18.7454,-19.78833 9.17077,-17.39917 m 435.09157,7.04728 c -5.98454,3.11288 -3.2421,23.29932 -2.98665,29.09261 0.12003,2.7216 0.72843,8.36678 4.96191,7.00415 5.82324,-1.87435 3.40332,-25.82413 2.93416,-30.97224 -0.22884,-2.51083 -1.3575,-6.97201 -4.90942,-5.12452 m -363.01235,18.43213 c -0.42028,-3.7736 -7.89526,-20.0791 -13.21809,-12.50309 -4.72929,6.7312 8.82938,12.01432 13.21809,12.50309 m 328.86318,-13.21915 c -5.37532,3.85726 8.45459,17.03776 12.94027,14.31795 5.3645,-3.25269 -7.51392,-18.21191 -12.94027,-14.31795 m -241.85081,1.68001 c -5.90621,2.22339 -3.40845,26.19498 -2.93417,31.53296 0.21517,2.42146 1.23145,7.59659 4.90943,6.21199 5.90633,-2.22347 3.40845,-26.19498 2.93416,-31.53296 -0.21517,-2.42154 -1.23136,-7.59659 -4.90942,-6.21199 m 56.71704,2.26864 c -5.108,4.49536 17.77661,28.00496 23.20369,23.82193 5.71956,-4.40844 -17.65633,-28.70401 -23.20369,-23.82193 m -125.06274,31.93717 c 4.7699,-0.35954 25.8455,-12.99471 17.80351,-18.48454 -7.56979,-5.16748 -17.39055,13.00635 -17.80351,18.48454 m -74.66666,-5.33334 c -1.27584,5.35881 -1.33297,10.50953 -1.33334,16 v 12 c 0,2.23918 -1.11002,17.90646 4.62655,14.43209 7.78808,-4.71684 4.0048,-40.00997 -3.29321,-42.43209 m 299.99998,4 c -18.24504,-4.18204 -21.10384,27.77743 -4.30453,8 2.1469,-2.52742 3.25749,-4.92016 4.30453,-8 m -47.22119,4.11524 c -4.52165,3.17529 -2.72616,21.55477 -1.91463,26.5247 0.41715,2.55501 2.48608,6.95056 5.69035,4.35803 4.50195,-3.64242 2.81217,-21.64844 1.91463,-26.91976 -0.44629,-2.62101 -2.58993,-6.14022 -5.69035,-3.96297 m -394.11212,31.88476 c 0.96273,-4.04366 1.31197,-7.84017 1.33232,-12 v -8 c -0.17326,-25.17195 -19.0387,14.26331 -1.33232,20 m 335.99998,-32 c -6.38167,0.48104 -30.87646,16.67696 -25.2181,24.47018 2.35051,3.2373 7.19426,-0.46448 9.2181,-2.10909 7.0708,-5.74589 14.7544,-13.04208 16,-22.36109 m 137.33333,2.66667 c 3.43872,10.11515 14.44458,21.45398 25.33333,22.66667 -1.55835,-10.09896 -14.3431,-25.5586 -25.33333,-22.66667 m -350.66665,24 c -0.54895,-4.92896 -13.98417,-27.26351 -19.88476,-19.1368 -5.47595,7.54191 14.24967,18.71199 19.88476,19.1368 m 114.19649,-13.1512 c -5.86369,4.00284 13.62491,25.05273 19.60701,20.96911 5.86357,-4.00273 -13.6248,-25.05285 -19.60701,-20.96911 m 281.80349,26.48453 c 4.31063,-1.46545 7.32324,-3.58199 10.66666,-6.7253 2.2627,-2.12728 4.48592,-4.34029 6.60808,-6.60803 1.88183,-2.01091 9.94889,-13.18172 1.30859,-11.91976 -9.19458,1.34294 -20.89689,16.46082 -18.58333,25.25309 m -451.99998,20 h 2.66667 c 4.0221,-9.53174 3.19108,-20.65963 1.33333,-30.66666 -10.91341,1.89502 -7.60424,23.17708 -4,30.66666 M 736.21187,674.9012 c -7.39998,1.27385 -4.93506,29.01673 0.89608,27.8704 6.2893,-1.23649 6.28328,-29.10628 -0.89608,-27.8704 m -120.57608,7.88066 c -5.37053,3.79093 -2.75403,25.92187 -2.06999,31.88379 0.25822,2.2504 1.66036,10.30493 5.70679,7.76643 4.79642,-3.00911 3.09615,-30.20401 2.25,-35.68733 -0.41138,-2.66585 -2.8722,-6.09086 -5.8868,-3.96289 m 207.90843,-0.0525 c -5.15495,4.42651 18.59888,28.60815 23.45369,23.05452 3.81967,-4.36938 -17.60872,-28.07356 -23.45369,-23.05452 m -394.68109,4.11938 c -6.05155,4.13103 15.26673,26.90821 20.74695,21.42798 4.98995,-4.98999 -15.07365,-25.30086 -20.74695,-21.42798 m 433.80348,27.81787 c 1.29525,-3.55387 2.39608,-6.85693 2.60905,-10.66666 0.14763,-2.64071 0.13851,-5.35791 0.004,-7.99903 -0.11897,-2.33903 -2.17651,-13.05208 -6.60083,-8.19954 -5.02286,5.50911 -1.91015,23.61312 3.98763,26.86523 M 994.2973,692.11519 c -4.10913,2.95239 -2.73592,20.68945 3.5905,16.98356 4.431,-2.5957 2.4993,-21.35921 -3.5905,-16.98356 m -61.16259,2.64714 c -4.46989,3.86531 6.70784,15.21419 11.32096,11.78906 5.03532,-3.73861 -6.49902,-15.9589 -11.32096,-11.78906 m -32.78906,1.69856 c -5.68628,2.14055 -4.26774,28.09497 1.97526,25.7448 5.68636,-2.14055 4.26766,-28.09489 -1.97526,-25.7448 m -125.67903,3.53907 c -5.71436,0.86596 -29.70386,17.06461 -23.88476,24.19856 2.49886,3.06348 7.37109,-1.39729 9.21809,-3.01546 6.61719,-5.79728 13.97648,-12.02677 14.66667,-21.1831 m 187.44546,2.7819 c -4.97249,3.49194 -2.61857,24.93229 -1.96712,30.52571 0.29004,2.49072 2.04411,7.88045 5.59058,5.24382 5.18644,-3.85588 2.72485,-24.60482 2.18619,-30.52572 -0.25008,-2.7491 -2.04142,-7.89005 -5.80965,-5.24381 m -275.99998,1.33333 c -5.34526,3.75374 -2.59334,28.37663 -2.03394,34.52572 0.25009,2.7491 2.04135,7.89013 5.80966,5.24381 5.34529,-3.75374 2.59334,-28.37663 2.03393,-34.52571 -0.25008,-2.74911 -2.04142,-7.88998 -5.80965,-5.24382 m -167.44546,30.55143 c 10.11279,-0.76237 17.46028,-10.1206 23.85493,-17.33333 1.77417,-2.00114 7.0767,-7.89404 3.2819,-10.48454 -3.19864,-2.18359 -7.65889,2.06153 -9.8035,3.96289 -7.21273,6.3947 -16.57101,13.74235 -17.33333,23.85498 m 55.99999,-21.33333 c 0.82784,10.98177 13.01823,23.1722 24,24 -1.24141,-11.14673 -12.85323,-22.75863 -24,-24 m 223.01236,11.1276 c -6.00366,2.26001 -4.55656,35.30615 1.97526,33.2037 6.40096,-2.06031 3.94214,-35.43132 -1.97526,-33.2037 m -148.3457,3.53907 c -16.92989,-3.11914 -10.52925,18.95068 -2.0854,5.31477 0.98466,-1.59008 1.47574,-3.57633 2.0854,-5.31477 m 86.66667,19.99999 c -0.5389,-4.83903 -9.61483,-22.9095 -16.45061,-16.38378 -6.82356,6.51407 11.63208,16.0205 16.45061,16.38378 m 169.33332,16 c -1.44515,-9.36539 -10.60555,-16.45003 -17.33333,-22.58854 -1.96884,-1.79638 -6.52531,-6.41536 -9.5319,-3.96289 -3.49716,2.85254 2.47094,8.63493 4.25821,10.55143 6.35262,6.81185 12.82593,15.2627 22.60702,16 M 487.14914,744.34151 c -3.9775,1.84049 -0.50256,6.91341 1.16154,8.99178 3.28927,4.10807 15.66622,19.86409 21.87345,16.99178 3.97734,-1.84042 0.50261,-6.91333 -1.16154,-8.99178 -3.2893,-4.10808 -15.66617,-19.8641 -21.87345,-16.99178 m 468.8508,12.99178 c -18.98567,-4.99593 -29.656,32.62011 -10.66772,14.64095 1.78157,-1.68685 3.53971,-3.45923 5.15641,-5.30559 2.54565,-2.9073 4.11572,-5.77864 5.51131,-9.33536 m -557.3333,4 c -1.09969,2.28515 -2.01851,4.16015 -2.39607,6.69954 -3.85413,25.92383 18.91556,-0.0589 2.39607,-6.69954 m 433.33331,2.66666 c -5.16447,0.82032 -25.87728,11.96599 -19.05046,19.11727 6.7098,7.02873 18.47705,-13.96859 19.05046,-19.11727 m -95.99999,34.66667 c 4.14965,-4.01742 10.6617,-28.87191 1.13989,-30.43213 -10.01709,-1.64128 -3.30152,26.53239 -1.13989,30.43213 M 468.74582,770.78185 c -4.60771,3.34546 -2.53471,21.36866 -1.93412,26.52572 0.29008,2.4908 2.04411,7.88045 5.59053,5.24381 4.78085,-3.55436 2.74349,-21.18196 2.11935,-26.52571 -0.30497,-2.61117 -2.14209,-7.88208 -5.77576,-5.24382 m 295.73664,4.22632 c -6.8475,3.16854 12.6464,25.295 19.03499,22.09058 7.03996,-3.53125 -12.65877,-25.04102 -19.03499,-22.09058 m 135.86319,1.45272 c -5.68628,2.14054 -4.26774,28.09497 1.97526,25.74479 5.68636,-2.14062 4.26766,-28.09489 -1.97526,-25.74479 m -261.87759,0.93514 c -4.92187,4.44051 11.37382,20.70304 16.66874,17.08846 5.7498,-3.92497 -10.94865,-22.24919 -16.66874,-17.08846 m 220.93008,1.50513 c -4.94027,3.05989 -3.24772,32.18424 2.66154,28.86425 5.40031,-3.0341 3.89412,-18.70369 2.81478,-23.73974 -0.46794,-2.18343 -2.31722,-7.08114 -5.47632,-5.12451 m -310.06484,55.76546 -1.33333,-50.66667 c -9.03886,4.98413 -9.69503,48.82617 1.33333,50.66667 m 67.27368,-49.0988 c -6.21468,3.49382 -3.73706,24.40739 -3.04118,30.427 0.25488,2.20467 1.1578,8.77775 4.86934,7.3899 5.87492,-2.19678 3.10702,-26.05331 2.87244,-31.37858 -0.10164,-2.30729 -0.74028,-8.66472 -4.7006,-6.43832 m 67.2469,2.54631 c -5.02812,0.22274 -19.41756,16.0358 -11.42391,17.32413 6.73474,1.08537 19.63542,-17.68798 11.42391,-17.32413 m -259.85391,-0.11418 c 0.76656,10.16911 13.14519,24.66634 24,22.66667 -3.22583,-9.48893 -13.83703,-21.09847 -24,-22.66667 m 161.33333,2.66667 c -16.79875,1.27083 -3.19792,17.49544 0,0 m 377.33331,50.66666 c 7.12386,-3.92814 9.31461,-35.14705 3.98356,-41.83642 -6.1652,-7.73608 -6.65007,11.68131 -6.65023,13.83642 v 12 c 0.002,5.85629 0.10156,10.66976 2.66667,16 m 32,-8 c 6.56269,-3.61881 8.99219,-26.36523 3.96907,-32.50309 -5.54256,-6.77262 -6.63069,7.3724 -6.63574,9.83643 l 0.001,9.33333 c 0.0256,4.98389 0.50162,8.83667 2.66561,13.33333 m -112,-5.33333 c 5.73234,-0.43213 25.26359,-11.51025 19.88477,-19.16976 -5.76791,-8.21346 -19.49732,14.02979 -19.88477,19.16976 m -85.88785,-9.2181 c -5.13802,3.60816 -2.55273,26.03906 -2.03394,31.87858 0.21517,2.42155 1.23145,7.59652 4.90943,6.21191 5.97868,-2.25065 3.43082,-27.38745 2.93416,-32.84667 -0.25008,-2.74911 -2.04134,-7.89014 -5.80965,-5.24382 m -110.66666,2.66667 c -5.01664,3.52295 -2.54948,24.85905 -2.03394,30.52571 0.25009,2.74903 2.04135,7.89014 5.80966,5.24382 5.01676,-3.52303 2.54947,-24.85905 2.03393,-30.52572 -0.25008,-2.7491 -2.04142,-7.88997 -5.80965,-5.24381 m 129.88785,6.55143 c 0.65796,8.72819 6.06673,13.70882 14.66667,14.66667 -0.95777,-8.60002 -5.93856,-14.00863 -14.66667,-14.66667 m -221.33332,25.33333 c -0.54895,-4.92887 -13.98425,-27.26367 -19.88476,-19.13688 -5.50078,7.57617 14.34041,18.51937 19.88476,19.13688 m 162.58332,-18.58642 c -6.32169,0.92334 -14.57934,11.06005 -18.15332,15.91878 -1.74454,2.37158 -4.15974,8.48657 1.10189,8.48657 6.45126,0 15.86133,-11.63688 19.19751,-16.48462 1.85181,-2.69075 3.26994,-8.71175 -2.14608,-7.92073 m -278.58331,10.58642 c 3.53113,10.38696 15.47505,22.75358 26.66666,24 -1.99772,-9.90104 -15.76737,-26.39998 -26.66666,-24 m 231.99998,4 c 0.72827,9.6626 9.08928,16.39469 16,22.52165 2.00114,1.77417 7.89404,7.07666 10.48454,3.2819 2.18351,-3.19873 -2.06144,-7.65886 -3.96289,-9.80355 -6.12695,-6.91081 -12.85905,-15.27165 -22.52165,-16 m -313.33331,2.66667 c -0.91561,4.93205 -1.32528,9.6477 -1.33333,14.66666 l 0.001,9.33334 c 0.0114,2.17073 1.37846,17.23844 6.64921,11.11726 5.39661,-6.26733 3.27067,-33.68416 -5.31689,-35.11726 m 503.01234,3.1276 c -5.64128,2.12362 -3.37354,22.58724 -2.93417,27.53288 0.21517,2.42155 1.23145,7.59651 4.90943,6.21191 5.64119,-2.12353 3.37353,-22.58724 2.93416,-27.53287 -0.21517,-2.42155 -1.23144,-7.59652 -4.90942,-6.21192 m -41.05249,1.10694 c -6.20296,3.35319 -3.90153,32.43814 2.8549,28.86523 6.32682,-3.3457 3.81112,-32.46859 -2.8549,-28.86523 m 105.96809,2.66666 c -4.74389,1.83187 -10.545,14.62866 -2.52262,11.53093 4.74414,-1.83204 10.54484,-14.62858 2.52262,-11.53093 m -124.00617,6.28605 c -8.01034,1.99154 -18.71428,15.07072 -23.49691,21.47844 -1.70565,2.28515 -4.7806,9.85774 1.10596,9.09977 7.85546,-1.01156 20.21948,-16.33244 24.70581,-22.43115 2.13688,-2.90479 3.75569,-9.65633 -2.31486,-8.14706 m -235.92178,6.81275 c -18.15845,-3.99846 -22.14128,29.09773 -4.30453,8.00097 2.14213,-2.53361 3.25651,-4.91821 4.30453,-8.00097 m -137.33333,1.33333 v 24 c 9.46505,-3.06657 9.52328,-20.99202 0,-24 m 65.33333,26.66667 c 3.84168,-17.44646 -23.26676,-15.94377 -6.67387,-3.53597 2.07532,1.55183 4.3267,2.50341 6.67387,3.53597 m 429.67901,-7.53907 c -6.45386,2.42953 -3.25301,32.09343 -2.98665,38.20475 0.1101,2.52523 0.71997,9.13697 4.96191,7.54004 6.45378,-2.42944 3.25301,-32.0935 2.98665,-38.20475 -0.1101,-2.52523 -0.7198,-9.13704 -4.96191,-7.54004 m -323.86318,3.88062 c -6.79887,3.14608 8.7876,20.81453 14.65434,16.80965 5.68473,-3.88053 -9.15324,-19.35514 -14.65434,-16.80965 m 127.51749,8.99178 c -3.27116,-17.89616 -17.47811,-1.95345 0,0 m -222.66665,41.33333 c 10.3739,-3.44303 5.33333,-36.90869 5.33333,-46.66666 -11.71985,1.95589 -7.5942,37.17057 -5.33333,46.66666 m 73.33333,-16 c 3.52494,-3.45199 8.33752,-28.0546 1.08744,-29.43831 -9.77307,-1.86507 -3.29818,25.82942 -1.08744,29.43831 m 115.99999,-28 1.33333,26.66667 h 4 l 1.33333,-26.66667 h -6.66666 m -65.33333,28 c 3.6958,-1.25643 6.38733,-2.83911 9.33537,-5.47835 1.82645,-1.63518 3.61202,-3.38574 5.27266,-5.18929 17.36218,-18.85628 -21.17765,-7.09424 -14.60803,10.66764 m 129.67903,-8.8724 c -5.48015,2.06291 -4.29826,25.43978 1.97526,23.07813 5.47973,-2.06283 4.2985,-25.43994 -1.97526,-23.07813 m 108.98762,2.20573 c -17.05517,-3.89681 -25.02726,26.00554 -10.66772,14.4681 1.86873,-1.50146 3.58854,-3.35498 5.18937,-5.13379 2.64543,-2.93929 4.22331,-5.64257 5.47835,-9.33431 z"
       id="path1" />
  </g>
</svg>
