<?xml version="1.0" encoding="UTF-8" standalone="no"?>
<!-- Created with Inkscape (http://www.inkscape.org/) -->

<svg
   version="1.1"
   id="svg1"
   width="1333.3333"
   height="1333.3333"
   viewBox="0 0 1333.3333 1333.3333"
   sodipodi:docname="LowBridge_Horizontal.svg"
   inkscape:version="1.4.2 (ebf0e940d0, 2025-05-08)"
   xmlns:inkscape="http://www.inkscape.org/namespaces/inkscape"
   xmlns:sodipodi="http://sodipodi.sourceforge.net/DTD/sodipodi-0.dtd"
   xmlns="http://www.w3.org/2000/svg"
   xmlns:svg="http://www.w3.org/2000/svg">
  <defs
     id="defs1" />
  <sodipodi:namedview
     id="namedview1"
     pagecolor="#505050"
     bordercolor="#eeeeee"
     borderopacity="1"
     inkscape:showpageshadow="0"
     inkscape:pageopacity="0"
     inkscape:pagecheckerboard="0"
     inkscape:deskcolor="#505050"
     showgrid="false"
     inkscape:zoom="0.59400004"
     inkscape:cx="665.82488"
     inkscape:cy="666.66663"
     inkscape:window-width="1920"
     inkscape:window-height="995"
     inkscape:window-x="0"
     inkscape:window-y="0"
     inkscape:window-maximized="1"
     inkscape:current-layer="g1" />
  <g
     inkscape:groupmode="layer"
     inkscape:label="Image"
     id="g1">
    <path
       style="fill:#d020ff;stroke:none"
       d="M 826.66662,345.33331 509.3333,343.99998 v 655.99996 h 317.33332 c -5.8221,-87.65437 -2.66667,-177.10123 -2.66667,-265.33332 0,-127.65962 -1.33333,-254.9927 -1.33333,-382.66664 h 4 v -6.66667 m -10.66667,593.3333 C 792.43371,910.51809 797.33329,876.897 797.33329,842.66662 h 18.66666 v 66.66666 29.33333 m 1.33334,17.33333 c -18.00367,5.26156 -20,-20.92627 -20,-33.33333 h 1.33333 l 18.66667,30.66667 v 2.66666 m 0,21.33333 h -1.33334 l -5.33333,-12 h 6.66667 v 12 m -20,-474.66663 0.85083,-58.66667 15.14917,-29.33333 c 7.37516,17.57556 -0.1945,44.96403 1.55867,64 0.52165,5.66398 3.42033,16.95752 -0.46403,21.86214 -3.11531,3.93355 -12.64282,2.13786 -17.09464,2.13786 m 18.66666,331.99998 H 797.33329 V 510.66664 h 18.66666 v 323.99998 m -8,-453.33331 5.33334,-13.33333 c 2.47241,5.89192 2.43188,13.6383 -5.33334,13.33333 m -9.33333,46.66666 h -1.33333 c 0,-14.97835 -3.11459,-38.59423 17.33333,-38.66666 -0.13102,14.65511 -10.52946,25.59611 -16,38.66666 m 14.66667,565.3333 h -16 v -28 c 9.33781,2.92001 14.6538,19.01872 16,28 m -16,-611.99996 v -29.33333 h 14.66666 c -1.51945,8.52405 -7.29362,24.5 -14.66666,29.33333 m -249.33332,1.33333 v -30.66666 h 187.99999 37.33333 c 3.88045,0 10.597,-1.21566 13.86214,1.37036 4.17773,3.30884 3.11759,20.37113 1.71403,25.09879 -1.68807,5.68584 -9.65837,4.19723 -14.24284,4.19751 H 731.99996 547.99997 M 715.99996,561.3333 h -1.33334 l 4,-170.66666 c 16.8628,-0.0111 33.77222,-1.20825 50.6718,-1.32922 4.61612,-0.033 15.38582,-1.95597 18.62451,2.13375 7.67504,9.69181 -9.56088,35.49735 -13.70785,44.5288 -18.95499,41.28076 -43.61604,82.342 -58.25512,125.33333 m 36,-58.66666 35.99999,-80 c 8.44564,20.12655 -11.2054,44.76664 -20.56583,61.33333 -3.95207,6.99471 -7.24081,16.24247 -15.43416,18.66667 m 37.33333,0 h -22.66667 l 21.33333,-41.33333 1.33334,41.33333 m 0,8 v 126.66665 86.66667 47.99999 44 c 0,4.43758 1.56673,12.82039 -1.37036,16.52881 -2.82292,3.56421 -10.6591,2.1442 -14.62964,2.13786 -19.16862,-0.0308 -32.73421,-26.48967 -37.15226,-44 -3.55949,-14.10775 -0.18107,-33.36816 -0.18107,-48 0,-37.80908 1.33333,-75.52213 1.33333,-113.33332 0,-23.00456 -5.42749,-53.88334 0.84977,-76 2.71387,-9.56181 15.25586,-38.03227 24.62345,-41.86214 7.23983,-2.95996 18.7701,-0.80452 26.52678,-0.80452 m 0,377.33331 h -1.33334 l -23.99999,-46.66667 25.33333,1.33334 v 45.33333 m 0,29.33333 h -1.33334 c -12.87321,-24.14689 -28.42895,-52.38476 -35.99999,-78.66666 9.23348,11.02889 14.91585,26.04125 21.74487,38.66666 7.05208,13.03792 15.54646,24.77384 15.58846,40 m 0,40 h -74.66667 l -1.33333,-179.99999 c 10.9056,12.07649 15.948,32.06681 23.01131,46.66666 11.51856,23.80867 22.36426,47.96557 33.40023,72 9.62085,20.95255 19.58846,37.89843 19.58846,61.33333 m 0,35.99999 H 542.66664 l 2.13785,-27.96297 17.86214,-1.37036 h 45.33333 l 181.33333,1.33333 v 28 m -61.33333,-437.3333 h -1.33334 c 3.18897,-11.07027 14.06527,-43.11902 25.33334,-46.66667 l -24,46.66667 m 24,281.33331 -1.33334,-1.33333 1.33334,1.33333 m -22.66667,-62.66666 c -17.52791,-10.72021 -13.33333,-37.45386 -13.33333,-54.66666 v -86.66667 c 0,-12.79121 -2.49756,-29.01839 0.73568,-41.4578 2.06925,-7.96134 8.08593,-14.94824 11.26432,-22.54219 6.54264,15.59151 1.33333,43.02742 1.33333,60 0,47.95446 -3.72917,97.57291 0,145.33332 m -60,-114.66666 h -1.33333 l -29.89917,-65.33333 -10.3951,-24 0.29427,-57.33333 V 390.66664 h 82.66667 c 0,46.79521 -0.68409,94.65527 -3.8807,141.33333 -1.02678,14.99385 2.89803,32.03662 0.13786,46.66666 -5.15845,27.34176 -26.8693,55.58207 -37.5905,81.33333 m 38.66667,77.33333 h -1.33333 l -24.56584,-48 -7.72632,-18.66666 8.58537,-18.66667 25.04012,-45.33333 0.0195,41.33333 -0.0195,89.33333 m -1.33333,219.99999 h -80 V 827.99995 c 0,-17.30379 -4.03678,-39.37972 -0.74593,-56.1193 5.95996,-30.3164 28.87011,-60.68961 40.74593,-89.21402 h 2.66666 c 10.93437,25.37508 31.99308,51.42765 37.69344,78.6656 3.79598,18.1381 -0.3601,42.58593 -0.3601,61.33439 V 957.33328 M 627.99996,737.33329 h -1.33333 V 606.66663 c 11.96435,11.83647 18.37728,32.06352 26.66667,46.66666 3.10026,5.46155 9.06457,13.41203 8.19958,20 -2.83313,21.57772 -24.93819,44.05461 -33.53292,64 m -8,-183.99999 h -1.33333 l -56.18522,-121.33333 -13.22737,-29.33333 -0.14502,-10.62964 18.89095,-1.37036 h 51.99999 V 553.3333 m 0,21.33333 h -1.33333 l -12,-28 13.33333,28 M 609.3333,770.66662 h -1.33334 l -1.33333,-199.99999 c 15.68075,10.27136 12,34.72677 12,50.66667 v 85.33332 c 0,23.50073 1.81413,42.81364 -9.33333,64 m 8,186.66666 -74.66666,-1.33334 c 4.40258,-23.63037 17.5957,-44.9038 27.58845,-66.66666 15.18645,-33.07389 28.73934,-68.57422 47.07821,-99.99999 l 1.33333,46.66666 v 81.33333 l -1.33333,40 m -8,-167.99999 c -24.62671,42.20084 -45.21346,90.87694 -64,135.99999 h -1.33333 c 0,-25.79094 11.83374,-43.19108 24.1862,-65.33333 13.35204,-23.934 25.89208,-48.39347 39.81379,-72 l 1.33334,1.33334 M 606.66663,545.3333 c -10.02539,-5.20866 -15.17545,-22.3195 -20.41154,-32 -16.14982,-29.85758 -39.58845,-60.07523 -39.58845,-94.66666 h 1.33333 l 32.41154,69.33333 26.25512,57.33333 m -62.66666,281.33332 2.66667,-317.33332 27.99999,-1.33333 c 8.38737,13.70426 21.83968,32.12439 24.87964,48 3.90283,20.38199 0.4537,44.57478 0.4537,65.33333 v 131.99999 c 0,24.55932 -1.63916,54.64322 -22.17904,72.5288 -6.0284,5.24943 -25.83919,0.80453 -33.82096,0.80453 m 1.33333,59.99999 h -1.33333 v -51.99999 h 28 C 568.898,851.8546 554.14206,871.57465 545.3333,886.66661 M 570.66663,501.3333 h -23.99999 v -43.99999 c 9.80533,10.47318 19.67333,30.32763 23.99999,43.99999 M 539.99997,379.99998 h -1.33333 l -12,-28 h 13.33333 v 28 m -1.33333,42.66666 h -1.33334 l -16,-32 c 18.69507,0.002 21.90536,15.57459 17.33334,32 m 0,78.66666 -19.96298,-2.13785 -1.37036,-25.86215 v -70.66666 c 25.17074,28.9703 21.33334,63.05436 21.33334,98.66666 m -2.66667,325.33332 -18.66667,-1.33334 V 579.99996 529.3333 c 0,-4.97493 -1.89786,-15.06901 1.37036,-19.19547 2.62069,-3.30896 10.85767,-2.5697 14.55152,-1.94035 7.80363,1.32955 5.41146,12.63265 5.41146,18.46915 v 56 c -0.005,81.24837 -2.66667,162.77693 -2.66667,243.99999 M 518.66664,934.66661 H 517.3333 V 833.33328 l 18.66667,1.33334 -0.52474,67.99999 -16.80859,32 m -1.33334,21.33333 17.33334,-34.66666 c 6.81673,16.24511 0.70353,34.66463 -17.33334,34.66666 m 17.33334,37.33333 h -12 l 12,-26.66666 v 26.66666 m -4,-610.66663 H 517.3333 v -29.33333 l 13.33334,29.33333 m -4,582.66663 -8,17.33334 h -1.33334 v -18.66667 z"
       id="path1" />
  </g>
</svg>
