<?xml version="1.0" encoding="UTF-8" standalone="no"?>
<!-- Created with Inkscape (http://www.inkscape.org/) -->

<svg
   version="1.1"
   id="svg1"
   width="1333.3333"
   height="1333.3333"
   viewBox="0 0 1333.3333 1333.3333"
   sodipodi:docname="LowBridge_Curve_B_TLorTL_B.svg"
   inkscape:version="1.4.2 (ebf0e940d0, 2025-05-08)"
   xmlns:inkscape="http://www.inkscape.org/namespaces/inkscape"
   xmlns:sodipodi="http://sodipodi.sourceforge.net/DTD/sodipodi-0.dtd"
   xmlns="http://www.w3.org/2000/svg"
   xmlns:svg="http://www.w3.org/2000/svg">
  <defs
     id="defs1" />
  <sodipodi:namedview
     id="namedview1"
     pagecolor="#505050"
     bordercolor="#eeeeee"
     borderopacity="1"
     inkscape:showpageshadow="0"
     inkscape:pageopacity="0"
     inkscape:pagecheckerboard="0"
     inkscape:deskcolor="#505050"
     showgrid="false"
     inkscape:zoom="0.59400004"
     inkscape:cx="665.82488"
     inkscape:cy="666.66663"
     inkscape:window-width="1920"
     inkscape:window-height="995"
     inkscape:window-x="0"
     inkscape:window-y="0"
     inkscape:window-maximized="1"
     inkscape:current-layer="g1" />
  <g
     inkscape:groupmode="layer"
     inkscape:label="Image"
     id="g1">
    <path
       style="fill:#d125ff;stroke:none"
       d="m 759.99995,353.33331 c 28.12158,72.48331 65.36739,142.62206 97.74487,213.33332 8.54639,18.66496 17.61719,37.12964 25.6934,56 2.15336,5.03141 8.89901,14.1289 7.47327,19.71606 -2.09205,8.19824 -28.85661,15.84546 -36.24488,19.13578 -36.56957,16.28609 -72.64196,33.70626 -109.33332,49.71399 -102.89933,44.89282 -204.63443,93.00235 -306.66665,139.84569 l -93.33333,42.66667 c -18.1372,8.3269 -36.82307,19.39721 -55.99999,24.92179 -34.60295,-60.8024 -59.2688,-129.68708 -88.41154,-193.33332 l -28,-61.33333 c -5.42342,-11.84456 -13.29801,-24.44401 -15.58846,-37.33333 20.8794,-4.66138 40.54427,-15.9895 60,-24.92179 27.47371,-12.61337 55.10807,-24.91374 82.66666,-37.33749 105.38631,-47.50927 210.3968,-95.8592 315.99998,-142.88882 44.61389,-19.86849 90.39026,-48.09871 137.33333,-61.51855 l -1.33334,-4 8,-2.66667 m -22.66666,41.33333 26.66666,-12 -5.33333,-13.33333 c -8.53487,4.3217 -18.26391,16.30168 -21.33333,25.33333 m 4,-21.33333 c -5.47726,2.3042 -10.30888,4.12028 -9.33333,10.66667 l 9.33333,-10.66667 m -45.33333,40 c 13.45935,-3.68115 36.01379,-13.87443 26.66666,-30.66667 -11.75789,3.56633 -22.07686,19.75537 -26.66666,30.66667 M 869.33328,611.99996 825.74482,515.99997 767.99995,390.66664 c -5.80623,1.37915 -25.15608,6.72298 -25.95886,13.61833 -0.52925,4.54598 3.43205,10.34847 5.19137,14.38167 4.87443,11.17432 10.066,22.24064 15.12654,33.33333 18.2382,39.97795 36.26929,80.04777 54.56274,120 5.47893,11.96573 10.8724,23.97794 16.22636,35.99999 1.78459,4.00725 3.986,12.08277 7.78394,14.57202 5.74666,3.76652 23.14469,-7.51554 28.40124,-10.57202 m -250.66665,-182.66665 6.66667,16 c 31.03934,-5.53304 58.48876,-26.02181 74.66666,-52 -25.73145,4.57243 -58.76652,22.82853 -81.33333,36 M 607.99996,545.3333 c 35.18457,-10.13192 67.92647,-33.29679 101.33333,-48.18522 14.02108,-6.24878 39.72937,-13.26001 50.10286,-24.66455 3.80933,-4.1879 -0.61283,-10.93994 -2.51029,-15.15022 -5.60441,-12.43555 -11.1871,-24.87451 -16.74072,-37.33334 -1.67855,-3.76554 -3.92839,-11.0887 -8.46912,-12.24487 -11.76282,-2.99511 -27.2039,22.19881 -33.3776,29.57821 -19.82894,23.70149 -39.93872,47.18945 -60.03288,70.66666 -10.02441,11.71216 -23.20206,23.62256 -30.30558,37.33333 m 93.33333,-125.33333 c -21.36267,8.89413 -31.05009,26.06958 -44.49792,44 -4.96936,6.62582 -13.12406,13.89331 -11.50208,22.66667 l 41.69446,-46.66667 14.30554,-20 m -387.99998,146.66666 8.52059,16.38884 19.47941,-6.72933 46.66667,-21.31901 230.66665,-105.67382 -8.2994,-14.94857 -18.36727,6.38273 -49.33333,22.20679 -229.33332,103.69237 M 666.66663,435.99997 c -6.8667,2.85515 -34.37321,11.02198 -35.29216,18.9506 -0.6691,5.77279 5.13086,13.19174 7.29216,18.38273 h 2.66666 c 7.09465,-9.90543 23.81718,-25.34301 25.33334,-37.33333 m -45.61727,22.4218 c -5.62565,-1.44361 -14.7889,4.89477 -19.71606,7.20475 -16.78565,7.86938 -33.67497,15.72794 -50.66667,23.14095 -51.03987,22.26741 -101.37035,46.30501 -151.99999,69.48762 -15.51928,7.10604 -31.02278,14.35401 -46.66666,21.17904 -7.15438,3.12125 -17.65503,6.10034 -23.55558,11.22428 -5.56372,4.83146 4.81307,25.92871 10.52164,28.54215 6.44108,2.94882 15.47754,1.88306 22.36727,2.18523 25.20011,1.10514 39.89071,-4.68897 62.66666,-15.70785 39.15519,-18.94311 79.13395,-36.45003 118.66666,-54.59977 19.02792,-8.73584 41.02385,-15.77661 58.64714,-27.06998 12.69246,-8.13363 35.56957,-37.10677 28.93619,-52.00822 -1.77742,-3.99284 -4.42374,-12.35246 -9.2006,-13.5782 m -85.04939,170.91152 49.33333,1.33334 49.33333,-0.36629 57.33333,-25.88884 107.99999,-49.74487 -33.33333,-75.99999 c -28.4668,8.20036 -57.46626,26.40397 -83.99999,39.67081 -28.07813,14.03906 -61.18726,24.70866 -87.43311,41.64193 -8.91666,5.75284 -15.91723,17.28963 -22.68619,25.35392 -12.15283,14.47843 -26.10702,28.21679 -36.54736,43.99999 m 101.33332,-138.66665 -26.66666,37.33333 c 6.87386,-5.54321 31.79468,-28.77946 26.66666,-37.33333 m -29.33333,38.66666 1.33334,1.33333 -1.33334,-1.33333 m -17.33333,8 c -61.99943,25.77897 -126.09154,53.75032 -185.33332,85.33333 13.19458,9.01416 32.97452,-0.35799 45.33333,-6.32202 34.38004,-16.5909 69.63273,-31.37329 103.99999,-48 11.85059,-5.73323 36.86751,-14.13021 36,-31.01131 m 64,91.99999 v 1.33334 c 40.47383,0 80.87231,1.33333 121.33332,1.33333 18.44438,0 39.62748,2.94596 57.33333,-2.66667 -2.98193,-16.77986 -13.93831,-33.83324 -20.9259,-49.33333 -2.05713,-4.56315 -4.44254,-14.82096 -10.0247,-16.24487 -9.28471,-2.36841 -32.39225,13.12118 -41.04939,17.23771 -35.1071,16.69361 -70.70467,33.58659 -106.66666,48.34049 M 217.33332,610.66663 v 1.33333 l 38.66666,2.22738 57.33333,-24.89404 -8,-18.66667 -87.99999,40 m 230.66665,14.66667 v 1.33333 l 54.66667,2.66666 21.10188,-0.49593 14.33325,-16.8374 28.56486,-39.99999 -36,15.58845 -82.66666,37.74488 M 274.66665,614.66663 v 1.33333 l 53.33333,2.66667 -10.66667,-22.66667 -42.66666,18.66667 m -74.66666,4 c 5.96028,14.83952 27.0087,10.62695 38.66666,4 -8.93595,-3.78491 -29.35481,-5.82536 -38.66666,-4 m 646.66662,12 v 1.33333 h 32 c -6.91512,-17.77978 -18.3824,-6.99536 -32,-1.33333 m -598.66663,-4 v 1.33333 l 80,1.33333 c -3.88599,-4.44702 -13.01896,-2.69262 -18.66667,-3.43416 -18.79304,-2.46753 -43.5712,-6.07267 -61.33333,0.7675 m -65.33332,0 v 1.33333 h 11.99999 c -2.20117,-6.56217 -7.08618,-4.07064 -11.99999,-1.33333 m 150.66665,1.33333 1.33334,1.33333 -1.33334,-1.33333 m -2.66666,0 1.33333,1.33333 -1.33333,-1.33333 m -118.66666,16 c 6.46769,22.46004 19.10734,47.68864 30.66666,68 l 48,-20.9218 117.33333,-52.41153 c -13.73503,-5.76359 -37.07422,-1.26823 -52,-1.33439 -30.20345,-0.13396 -60.4222,-1.33228 -90.66666,-1.33228 -19.08887,0 -36.29915,-1.94043 -53.33333,8 m -44,-8 8,16 h 1.33333 l 22.66667,-10.66667 v -5.33333 h -32 m 78.66666,82.66666 c 4.27816,23.99959 21.84342,53.11426 33.33333,74.66666 l 72,-32.18521 70.66666,-32.10799 29.21403,-13.70573 37.55965,-43.33439 25.22632,-32 -60,-2.66667 -29.33333,0.41765 -44,20.50826 -134.66666,60.40742 m 419.99998,-79.99999 v 1.33333 c 12.69124,5.17928 29.12215,3.19173 42.66666,4.1193 33.16292,2.27108 67.55432,10.16736 98.66666,-2.78597 l -36,-1.50822 -105.33332,-1.15844 m -25.33334,0 v 1.33333 h 24 l -24,-1.33333 m -2.66666,0.44441 -0.44442,0.4445 c 0.65804,0.2194 1.4755,-0.4445 0.44442,-0.4445 m 210.66665,0.88892 c 3.29773,19.06396 19.03235,6.17717 30.66667,1.33333 l -30.66667,-1.33333 m -41.33333,9.33333 v 1.33334 l 36,2.66666 c -3.1978,-21.33105 -22.99154,-11.40315 -36,-4 m -325.33331,50.66667 46.66666,-20.2922 72,-33.04113 c -14.60832,-7.02035 -41.13615,-5.11979 -57.33333,-5.33846 -5.22128,-0.0705 -12.30339,-2.55729 -17.10596,0.0473 -6.17871,3.35091 -10.49048,11.78548 -14.54012,17.29118 -9.8081,13.33463 -22.30412,26.50821 -29.68725,41.33333 m -24,32 c 23.20735,-4.13689 47.90413,-20.44304 69.33333,-30.25513 37.81144,-17.31323 78.53255,-31.84761 114.66666,-52.41154 -17.79313,-7.98763 -34.76099,2.46192 -50.66667,9.74488 l -87.99999,40.51025 c -18.62939,8.55281 -34.67651,13.70776 -45.33333,32.41154 m -279.99998,-73.33333 39.58845,87.99999 63.07821,138.66666 26.66666,-12 -27.58846,-61.33333 -75.0782,-163.99999 -26.66666,10.66667 m 546.66663,20 c -1.93372,-6.71241 -6.47323,-21.39449 -12.5247,-25.29631 -3.54211,-2.28385 -8.8114,-1.21606 -12.80863,-1.59672 -11.91683,-1.13481 -26.8702,-4.42924 -38.66667,-1.92078 -17.03116,3.62159 -34.92008,15.05815 -50.66666,22.44035 -29.12866,13.65593 -58.57747,26.88436 -88,39.89298 -23.01122,10.17399 -56.31868,19.19662 -75.59976,35.33024 -15.19621,12.7155 -29.87948,32.84766 -20.72941,51.15023 2.0083,4.01725 4.66927,13.34749 9.94645,13.95882 4.67423,0.54158 10.2679,-3.59782 14.38273,-5.39299 12.13948,-5.29622 24.02506,-11.20166 36,-16.85799 15.49471,-7.31893 30.96126,-14.95572 46.66666,-21.80867 26.38623,-11.51343 52.79524,-23.61173 78.66666,-36.23966 37.29777,-18.20524 77.48559,-32.73649 113.33333,-53.6595 m -2.66667,-25.33334 9.33334,21.33334 39.99999,-17.33334 c -13.14156,-5.51644 -35.12418,-3.99845 -49.33333,-4 m 14.66667,28 c 0.512,4.99862 3.10502,17.10498 8.55761,19.05558 5.95732,2.13111 18.10372,-6.17928 23.44239,-8.68213 21.56225,-10.10868 44.76273,-18.36938 65.33333,-30.37345 -36.01115,-15.11084 -64.90332,10.65755 -97.33333,20 m -290.66665,157.33333 290.66665,-132 -8,-20 -81.33333,36.9218 -143.99999,66.74796 -48,22.65226 -16.24381,9.96191 6.91048,15.71607 m -10.66667,-108 c -47.31428,26.92643 -101.70588,48.42179 -151.99999,69.33333 l 30.66667,69.33333 c 14.11873,-4.08797 22.71687,-18.73242 31.89811,-29.38582 21.32332,-24.74259 42.35587,-49.7491 63.5402,-74.61417 6.66935,-7.82813 26.4248,-24.16472 25.89501,-34.66667 m 2.66667,12 c -32.60832,35.40218 -68.84668,73.62239 -95.99999,113.33333 18.06184,-3.21973 26.8575,-16.90422 36.9794,-30.66667 12.79696,-17.39957 25.86914,-34.5996 38.66667,-51.99999 5.84285,-7.94434 19.84375,-20.70736 20.35392,-30.66667 m -25.33333,49.33333 -34.66667,48 48,-21.33333 -13.33333,-26.66667 m -66.66666,92 91.99999,-41.33333 -8,-17.33334 c -31.35962,9.03418 -70.75683,27.18311 -83.99999,58.66667 m 2.66666,-21.33334 c -14.30574,5.5503 -33.91699,12.89706 -22.66666,30.66667 h 1.33333 c 6.33146,-6.62004 21.81274,-21.19401 21.33333,-30.66667 m -63.99999,29.33334 4,11.99999 19.99999,-21.33333 -23.99999,9.33334 m 27.99999,-2.66667 -10.66666,14.66666 16,-6.66666 -2.66667,-8 z"
       id="path1" />
  </g>
</svg>
