<?xml version="1.0" encoding="UTF-8" standalone="no"?>
<!-- Created with Inkscape (http://www.inkscape.org/) -->

<svg
   version="1.1"
   id="svg1"
   width="1333.3333"
   height="1333.3333"
   viewBox="0 0 1333.3333 1333.3333"
   sodipodi:docname="LowBridge_Curve_R_BLorBL_R.svg"
   inkscape:version="1.4.2 (ebf0e940d0, 2025-05-08)"
   xmlns:inkscape="http://www.inkscape.org/namespaces/inkscape"
   xmlns:sodipodi="http://sodipodi.sourceforge.net/DTD/sodipodi-0.dtd"
   xmlns="http://www.w3.org/2000/svg"
   xmlns:svg="http://www.w3.org/2000/svg">
  <defs
     id="defs1" />
  <sodipodi:namedview
     id="namedview1"
     pagecolor="#505050"
     bordercolor="#eeeeee"
     borderopacity="1"
     inkscape:showpageshadow="0"
     inkscape:pageopacity="0"
     inkscape:pagecheckerboard="0"
     inkscape:deskcolor="#505050"
     showgrid="false"
     inkscape:zoom="0.59400004"
     inkscape:cx="665.82488"
     inkscape:cy="666.66663"
     inkscape:window-width="1920"
     inkscape:window-height="995"
     inkscape:window-x="0"
     inkscape:window-y="0"
     inkscape:window-maximized="1"
     inkscape:current-layer="g1" />
  <g
     inkscape:groupmode="layer"
     inkscape:label="Image"
     id="g1">
    <path
       style="fill:#d125ff;stroke:none"
       d="m 353.33331,573.3333 c 72.48331,-28.12158 142.62206,-65.36739 213.33332,-97.74487 18.66496,-8.54638 37.12964,-17.61719 56,-25.6934 5.03141,-2.15336 14.1289,-8.899 19.71606,-7.47326 8.19824,2.09204 15.84546,28.8566 19.13578,36.24487 16.28609,36.56958 33.70626,72.64196 49.71399,109.33332 44.89282,102.89933 93.00235,204.63443 139.84569,306.66665 l 42.66667,93.33333 c 8.3269,18.13716 19.39721,36.82306 24.92179,55.99996 -60.8024,34.603 -129.68708,59.2688 -193.33332,88.4116 l -61.33333,28 c -11.84456,5.4234 -24.44401,13.298 -37.33333,15.5884 -4.66138,-20.8794 -15.9895,-40.5442 -24.92179,-60 -12.61337,-27.4737 -24.91374,-55.108 -37.33749,-82.6666 C 516.89808,927.94696 468.54815,822.93647 421.51853,717.33329 401.65004,672.7194 373.41982,626.94304 359.99998,579.99996 l -4,1.33334 -2.66667,-8 m 41.33333,22.66666 -12,-26.66666 -13.33333,5.33333 c 4.3217,8.53487 16.30168,18.26392 25.33333,21.33333 m -21.33333,-4 c 2.3042,5.47726 4.12028,10.30888 10.66667,9.33334 l -10.66667,-9.33334 m 40,45.33333 c -3.68115,-13.45935 -13.87443,-36.01379 -30.66667,-26.66666 3.56633,11.75789 19.75537,22.07686 30.66667,26.66666 M 611.99996,463.99997 515.99997,507.58843 390.66664,565.3333 c 1.37915,5.80623 6.72298,25.15608 13.61833,25.95886 4.54598,0.52926 10.34847,-3.43205 14.38167,-5.19137 11.17432,-4.87443 22.24064,-10.06599 33.33333,-15.12654 39.97795,-18.2382 80.04777,-36.26929 120,-54.56274 11.96573,-5.47892 23.97794,-10.8724 35.99999,-16.22636 4.00725,-1.78459 12.08277,-3.986 14.57202,-7.78393 3.76652,-5.74667 -7.51554,-23.1447 -10.57202,-28.40125 m -182.66665,250.66665 16,-6.66666 c -5.53304,-31.03935 -26.02181,-58.48877 -52,-74.66667 4.57243,25.73145 22.82853,58.76652 36,81.33333 m 115.99999,10.66667 c -10.13192,-35.18457 -33.29679,-67.92647 -48.18522,-101.33333 -6.24878,-14.02107 -13.26001,-39.72937 -24.66455,-50.10286 -4.1879,-3.80933 -10.93994,0.61283 -15.15022,2.51029 -12.43555,5.60442 -24.87451,11.1871 -37.33334,16.74073 -3.76554,1.67854 -11.0887,3.92838 -12.24487,8.46911 -2.99511,11.76282 22.19881,27.2039 29.57821,33.3776 23.70149,19.82894 47.18945,39.93872 70.66666,60.03288 11.71216,10.02441 23.62256,23.20206 37.33333,30.30558 M 419.99997,631.99996 c 8.89413,21.36267 26.06958,31.05009 44,44.49792 6.62582,4.96936 13.89331,13.12407 22.66667,11.50208 l -46.66667,-41.69446 -20,-14.30554 m 146.66666,387.99994 16.38884,-8.5206 -6.72933,-19.47936 -21.31901,-46.66666 -105.67382,-230.66666 -14.94857,8.2994 6.38273,18.36727 22.20679,49.33333 103.69237,229.33328 M 435.99997,666.66663 c 2.85515,6.86669 11.02198,34.3732 18.9506,35.29215 5.77279,0.66911 13.19174,-5.13086 18.38273,-7.29216 v -2.66666 c -9.90543,-7.09465 -25.34301,-23.81718 -37.33333,-25.33333 m 22.4218,45.61726 c -1.44361,5.62565 4.89477,14.7889 7.20475,19.71607 7.86938,16.78564 15.72794,33.67496 23.14095,50.66666 22.26741,51.03987 46.30501,101.37035 69.48762,151.99999 7.10604,15.51929 14.35401,31.02278 21.17904,46.66666 3.12125,7.15438 6.10034,17.65503 11.22428,23.55563 4.83146,5.5637 25.92871,-4.8131 28.54215,-10.52169 2.94882,-6.44108 1.88306,-15.47754 2.18523,-22.36727 1.10514,-25.20011 -4.68897,-39.8907 -15.70785,-62.66666 -18.94311,-39.15519 -36.45003,-79.13395 -54.59977,-118.66666 -8.73584,-19.02791 -15.77661,-41.02384 -27.06998,-58.64713 -8.13363,-12.69247 -37.10677,-35.56958 -52.00822,-28.9362 -3.99284,1.77743 -12.35246,4.42375 -13.5782,9.2006 m 170.91152,85.04939 1.33334,-49.33333 -0.36629,-49.33333 -25.88884,-57.33333 -49.74487,-107.99999 -75.99999,33.33333 c 8.20036,28.4668 26.40397,57.46627 39.67081,84 14.03906,28.07812 24.70866,61.18725 41.64193,87.4331 5.75284,8.91666 17.28963,15.91723 25.35392,22.68619 14.47843,12.15283 28.21679,26.10702 43.99999,36.54736 m -138.66665,-101.33332 37.33333,26.66666 c -5.54321,-6.87386 -28.77946,-31.79467 -37.33333,-26.66666 m 38.66666,29.33333 1.33333,-1.33333 -1.33333,1.33333 m 8,17.33333 c 25.77897,61.99943 53.75032,126.09155 85.33333,185.33332 9.01416,-13.19458 -0.35799,-32.97452 -6.32202,-45.33333 -16.5909,-34.38004 -31.37329,-69.63272 -48,-103.99999 -5.73323,-11.85059 -14.13021,-36.86751 -31.01131,-36 m 91.99999,-63.99999 h 1.33334 c 0,-40.47384 1.33333,-80.87231 1.33333,-121.33333 0,-18.44438 2.94596,-39.62748 -2.66667,-57.33333 -16.77986,2.98193 -33.83324,13.93831 -49.33333,20.9259 -4.56315,2.05713 -14.82096,4.44255 -16.24487,10.0247 -2.36841,9.28471 13.12118,32.39225 17.23771,41.0494 16.69361,35.10709 33.58659,70.70466 48.34049,106.66666 m -18.66666,437.33327 h 1.33333 l 2.22738,-38.6666 -24.89404,-57.3334 -18.66667,8 40,88 M 625.3333,885.33328 h 1.33333 l 2.66666,-54.66666 -0.49593,-21.10189 -16.8374,-14.33325 -39.99999,-28.56486 15.58845,36 37.74488,82.66666 m -10.66667,173.33332 h 1.33333 l 2.66667,-53.3333 -22.66667,10.6666 18.66667,42.6667 m 4,74.6667 c 14.83952,-5.9603 10.62695,-27.0087 4,-38.6667 -3.78491,8.936 -5.82536,29.3548 -4,38.6667 m 12,-646.66666 h 1.33333 v -32 c -17.77978,6.91512 -6.99536,18.3824 -1.33333,32 m -4,598.66666 h 1.33333 l 1.33333,-80 c -4.44702,3.886 -2.69262,13.0189 -3.43416,18.6666 -2.46753,18.7931 -6.07267,43.5712 0.7675,61.3334 m 0,65.3333 h 1.33333 v -12 c -6.56217,2.2012 -4.07064,7.0862 -1.33333,12 m 1.33333,-150.66666 1.33333,-1.33333 -1.33333,1.33333 m 0,2.66666 1.33333,-1.3333 -1.33333,1.3333 m 16,118.6667 c 22.46004,-6.4677 47.68864,-19.1074 68,-30.6667 l -20.9218,-48 -52.41153,-117.33332 c -5.76359,13.73502 -1.26823,37.07421 -1.33439,51.99999 -0.13396,30.20343 -1.33228,60.42223 -1.33228,90.66663 0,19.0889 -1.94043,36.2992 8,53.3334 m -8,44 16,-8 v -1.3334 l -10.66667,-22.6666 h -5.33333 v 32 m 82.66666,-78.6667 c 23.99959,-4.2782 53.11426,-21.8434 74.66666,-33.3333 l -32.18521,-72.00003 -32.10799,-70.66666 -13.70573,-29.21403 -43.33439,-37.55965 -32,-25.22631 -2.66667,59.99999 0.41765,29.33333 20.50826,44 60.40742,134.66666 M 638.66663,666.66663 h 1.33333 c 5.17928,-12.69125 3.19173,-29.12215 4.1193,-42.66667 2.27108,-33.16292 10.16736,-67.55432 -2.78597,-98.66666 l -1.50822,36 -1.15844,105.33333 m 0,25.33333 h 1.33333 v -24 l -1.33333,24 m 0.44441,2.66666 0.4445,0.44442 c 0.2194,-0.65804 -0.4445,-1.4755 -0.4445,-0.44442 m 0.88892,-210.66665 c 19.06396,-3.29773 6.17717,-19.03235 1.33333,-30.66666 l -1.33333,30.66666 m 9.33333,41.33333 h 1.33334 l 2.66666,-36 c -21.33105,3.1978 -11.40315,22.99154 -4,36 m 50.66667,325.33331 -20.2922,-46.66666 -33.04113,-71.99999 c -7.02035,14.60831 -5.11979,41.13614 -5.33846,57.33333 -0.0705,5.22127 -2.55729,12.30338 0.0473,17.10595 3.35091,6.17871 11.78548,10.49048 17.29118,14.54012 13.33463,9.80811 26.50821,22.30412 41.33333,29.68725 m 32,24 c -4.13689,-23.20735 -20.44304,-47.90413 -30.25513,-69.33333 -17.31323,-37.81144 -31.84761,-78.53254 -52.41154,-114.66666 -7.98763,17.79313 2.46192,34.76099 9.74488,50.66667 l 40.51025,87.99999 c 8.55281,18.6294 13.70776,34.67651 32.41154,45.33333 m -73.33333,279.99999 87.99999,-39.5885 138.66666,-63.0782 -12,-26.6666 -61.33333,27.5884 -163.99999,75.0782 10.66667,26.6667 m 20,-546.66664 c -6.71241,1.93372 -21.39449,6.47323 -25.29631,12.5247 -2.28385,3.54212 -1.21606,8.8114 -1.59672,12.80863 -1.13481,11.91683 -4.42924,26.8702 -1.92078,38.66667 3.62159,17.03117 15.05815,34.92008 22.44035,50.66666 13.65593,29.12866 26.88436,58.57747 39.89298,88 10.17399,23.01123 19.19662,56.31868 35.33024,75.59976 12.7155,15.19621 32.84766,29.87948 51.15023,20.72941 4.01725,-2.0083 13.34749,-4.66927 13.95882,-9.94645 0.54158,-4.67423 -3.59782,-10.2679 -5.39299,-14.38273 -5.29622,-12.13948 -11.20166,-24.02506 -16.85799,-36 -7.31893,-15.4947 -14.95572,-30.96126 -21.80867,-46.66666 -11.51343,-26.38623 -23.61173,-52.79524 -36.23966,-78.66666 -18.20524,-37.29777 -32.73649,-77.48559 -53.6595,-113.33333 m -25.33334,2.66667 21.33334,-9.33333 -17.33334,-40 c -5.51644,13.14156 -3.99845,35.12418 -4,49.33333 m 28,-14.66667 c 4.99862,-0.512 17.10498,-3.10502 19.05558,-8.55761 2.13111,-5.95732 -6.17928,-18.10372 -8.68213,-23.44238 -10.10868,-21.56226 -18.36938,-44.76274 -30.37345,-65.33333 -15.11084,36.01114 10.65755,64.90331 20,97.33332 m 157.33333,290.66665 -132,-290.66665 -20,8 36.9218,81.33333 66.74796,143.99999 22.65226,48 9.96191,16.24381 15.71607,-6.91048 m -108,10.66667 c 26.92643,47.31429 48.42179,101.70588 69.33333,152.00002 l 69.33333,-30.6667 c -4.08797,-14.1187 -18.73242,-22.71687 -29.38582,-31.89811 -24.74259,-21.32332 -49.7491,-42.35587 -74.61417,-63.54019 -7.82813,-6.66936 -24.16472,-26.42481 -34.66667,-25.89502 m 12,-2.66667 c 35.40218,32.60832 73.62239,68.84668 113.33333,96 -3.21973,-18.06185 -16.90422,-26.85751 -30.66667,-36.97941 -17.39957,-12.79696 -34.5996,-25.86914 -51.99999,-38.66667 -7.94434,-5.84285 -20.70736,-19.84375 -30.66667,-20.35392 m 49.33333,25.33333 48,34.66667 -21.33333,-48 -26.66667,13.33333 m 92,66.66667 -41.33333,-92 -17.33334,8 c 9.03418,31.35962 27.18311,70.75683 58.66667,84 m -21.33334,-2.66667 c 5.5503,14.30574 12.89706,33.91696 30.66667,22.66666 v -1.3333 c -6.62004,-6.33149 -21.19401,-21.81277 -30.66667,-21.33336 m 29.33334,63.99996 11.99999,-4 -21.33333,-20 9.33334,24 m -2.66667,-28 14.66666,10.6667 -6.66666,-16 -8,2.6667 z"
       id="path1" />
  </g>
</svg>
