<?xml version="1.0" encoding="UTF-8" standalone="no"?>
<!-- Created with Inkscape (http://www.inkscape.org/) -->

<svg
   version="1.1"
   id="svg1"
   width="1333.3333"
   height="1333.3333"
   viewBox="0 0 1333.3333 1333.3333"
   sodipodi:docname="LowBridge_Vertical.svg"
   inkscape:version="1.4.2 (ebf0e940d0, 2025-05-08)"
   xmlns:inkscape="http://www.inkscape.org/namespaces/inkscape"
   xmlns:sodipodi="http://sodipodi.sourceforge.net/DTD/sodipodi-0.dtd"
   xmlns="http://www.w3.org/2000/svg"
   xmlns:svg="http://www.w3.org/2000/svg">
  <defs
     id="defs1" />
  <sodipodi:namedview
     id="namedview1"
     pagecolor="#505050"
     bordercolor="#eeeeee"
     borderopacity="1"
     inkscape:showpageshadow="0"
     inkscape:pageopacity="0"
     inkscape:pagecheckerboard="0"
     inkscape:deskcolor="#505050"
     showgrid="false"
     inkscape:zoom="0.59400004"
     inkscape:cx="665.82488"
     inkscape:cy="666.66663"
     inkscape:window-width="1920"
     inkscape:window-height="995"
     inkscape:window-x="0"
     inkscape:window-y="0"
     inkscape:window-maximized="1"
     inkscape:current-layer="g1" />
  <g
     inkscape:groupmode="layer"
     inkscape:label="Image"
     id="g1">
    <path
       style="fill:#d020ff;stroke:none"
       d="m 341.33331,513.3333 -1.33333,317.33332 H 995.99994 V 513.3333 c -87.65437,5.8221 -177.10123,2.66667 -265.33332,2.66667 -127.65962,0 -254.9927,1.33333 -382.66664,1.33333 v -4 h -6.66667 m 593.3333,10.66667 c -28.14852,23.56624 -61.76961,18.66666 -95.99999,18.66666 v -18.66666 h 66.66666 29.33333 m 17.33333,-1.33334 c 5.26156,18.00367 -20.92627,20 -33.33333,20 v -1.33333 l 30.66667,-18.66667 h 2.66666 m 21.33333,0 v 1.33334 l -12,5.33333 v -6.66667 h 12 m -474.66663,20 -58.66667,-0.85083 -29.33333,-15.14917 c 17.57556,-7.37516 44.96403,0.1945 64,-1.55867 5.66398,-0.52165 16.95752,-3.42033 21.86214,0.46403 3.93355,3.11531 2.13786,12.64282 2.13786,17.09464 m 331.99998,-18.66666 v 18.66666 H 506.66664 v -18.66666 h 323.99998 m -453.33331,8 -13.33333,-5.33334 c 5.89192,-2.47241 13.6383,-2.43188 13.33333,5.33334 m 46.66666,9.33333 v 1.33333 c -14.97835,0 -38.59423,3.11459 -38.66666,-17.33333 14.65511,0.13102 25.59611,10.52946 38.66666,16 m 565.3333,-14.66667 v 16 h -28 c 2.92001,-9.33781 19.01872,-14.6538 28,-16 m -611.99996,16 h -29.33333 v -14.66666 c 8.52405,1.51945 24.5,7.29362 29.33333,14.66666 m 1.33333,249.33332 H 347.99998 V 603.99996 566.66663 c 0,-3.88045 -1.21566,-10.597 1.37036,-13.86214 3.30884,-4.17773 20.37113,-3.11759 25.09879,-1.71403 5.68584,1.68807 4.19723,9.65837 4.19751,14.24284 v 42.66666 183.99999 M 557.3333,623.99996 v 1.33334 l -170.66666,-4 c -0.0111,-16.8628 -1.20825,-33.77222 -1.32922,-50.6718 -0.033,-4.61612 -1.95597,-15.38582 2.13375,-18.62451 9.69181,-7.67504 35.49735,9.56088 44.5288,13.70785 41.28076,18.95499 82.342,43.61604 125.33333,58.25512 m -58.66666,-36 -80,-35.99999 c 20.12655,-8.44564 44.76664,11.2054 61.33333,20.56583 6.99471,3.95207 16.24247,7.24081 18.66667,15.43416 m 0,-37.33333 v 22.66667 l -41.33333,-21.33333 41.33333,-1.33334 m 8,0 h 126.66665 86.66667 47.99999 44 c 4.43758,0 12.82039,-1.56673 16.52881,1.37036 3.56421,2.82292 2.1442,10.6591 2.13786,14.62964 -0.0308,19.16862 -26.48967,32.73421 -44,37.15226 -14.10775,3.55949 -33.36816,0.18107 -48,0.18107 -37.80908,0 -75.52213,-1.33333 -113.33332,-1.33333 -23.00456,0 -53.88334,5.42749 -76,-0.84977 -9.56181,-2.71387 -38.03227,-15.25586 -41.86214,-24.62345 -2.95996,-7.23983 -0.80452,-18.7701 -0.80452,-26.52678 m 377.33331,0 v 1.33334 l -46.66667,23.99999 1.33334,-25.33333 h 45.33333 m 29.33333,0 v 1.33334 c -24.14689,12.87321 -52.38476,28.42895 -78.66666,35.99999 11.02889,-9.23348 26.04125,-14.91585 38.66666,-21.74487 13.03792,-7.05208 24.77384,-15.54646 40,-15.58846 m 40,0 v 74.66667 l -179.99999,1.33333 c 12.07649,-10.9056 32.06681,-15.948 46.66666,-23.01131 23.80867,-11.51856 47.96557,-22.36426 72,-33.40023 20.95255,-9.62085 37.89843,-19.58846 61.33333,-19.58846 m 35.99999,0 v 246.66665 l -27.96297,-2.13785 -1.37036,-17.86214 v -45.33333 l 1.33333,-181.33333 h 28 m -437.3333,61.33333 v 1.33334 C 540.9297,610.14433 508.88095,599.26803 505.3333,587.99996 l 46.66667,24 m 281.33331,-24 -1.33333,1.33334 1.33333,-1.33334 m -62.66666,22.66667 c -10.72021,17.52791 -37.45386,13.33333 -54.66666,13.33333 h -86.66667 c -12.79121,0 -29.01839,2.49756 -41.4578,-0.73568 -7.96134,-2.06925 -14.94824,-8.08593 -22.54219,-11.26432 15.59151,-6.54264 43.02742,-1.33333 60,-1.33333 47.95446,0 97.57291,3.72917 145.33332,0 m -114.66666,60 v 1.33333 l -65.33333,29.89917 -24,10.3951 -57.33333,-0.29427 H 386.66664 v -82.66667 c 46.79521,0 94.65527,0.68409 141.33333,3.8807 14.99385,1.02678 32.03662,-2.89803 46.66666,-0.13786 27.34176,5.15845 55.58207,26.8693 81.33333,37.5905 m 77.33333,-38.66667 v 1.33333 l -48,24.56584 -18.66666,7.72632 -18.66667,-8.58537 -45.33333,-25.04012 41.33333,-0.0195 89.33333,0.0195 m 219.99999,1.33333 v 80 H 823.99995 c -17.30379,0 -39.37972,4.03678 -56.1193,0.74593 -30.3164,-5.95996 -60.68961,-28.87011 -89.21402,-40.74593 v -2.66666 c 25.37508,-10.93437 51.42765,-31.99308 78.6656,-37.69344 18.1381,-3.79598 42.58593,0.3601 61.33439,0.3601 h 134.66666 m -219.99999,78.66667 v 1.33333 H 602.66663 c 11.83647,-11.96435 32.06352,-18.37728 46.66666,-26.66667 5.46155,-3.10026 13.41203,-9.06457 20,-8.19958 21.57772,2.83313 44.05461,24.93819 64,33.53292 m -183.99999,8 v 1.33333 l -121.33333,56.18522 -29.33333,13.22737 -10.62964,0.14502 -1.37036,-18.89095 V 719.99996 H 549.3333 m 21.33333,0 v 1.33333 l -28,12 28,-13.33333 m 195.99999,10.66666 v 1.33334 l -199.99999,1.33333 c 10.27136,-15.68075 34.72677,-12 50.66667,-12 h 85.33332 c 23.50073,0 42.81364,-1.81413 64,9.33333 m 186.66666,-8 -1.33334,74.66666 c -23.63037,-4.40258 -44.9038,-17.5957 -66.66666,-27.58845 -33.07389,-15.18645 -68.57422,-28.73934 -99.99999,-47.07821 l 46.66666,-1.33333 h 81.33333 l 40,1.33333 m -167.99999,8 c 42.20084,24.62671 90.87694,45.21346 135.99999,64 v 1.33333 c -25.79094,0 -43.19108,-11.83374 -65.33333,-24.1862 -23.934,-13.35204 -48.39347,-25.89208 -72,-39.81379 l 1.33334,-1.33334 m -243.99999,2.66667 c -5.20866,10.02539 -22.3195,15.17545 -32,20.41154 -29.85758,16.14982 -60.07523,39.58845 -94.66666,39.58845 v -1.33333 l 69.33333,-32.41154 57.33333,-26.25512 m 281.33332,62.66666 -317.33332,-2.66667 -1.33333,-27.99999 c 13.70426,-8.38737 32.12439,-21.83968 48,-24.87964 20.38199,-3.90283 44.57478,-0.4537 65.33333,-0.4537 h 131.99999 c 24.55932,0 54.64322,1.63916 72.5288,22.17904 5.24943,6.0284 0.80453,25.83919 0.80453,33.82096 m 59.99999,-1.33333 v 1.33333 h -51.99999 v -28 c 17.18798,3.10197 36.90803,17.85791 51.99999,26.66667 M 497.3333,769.33329 v 23.99999 h -43.99999 c 10.47318,-9.80533 30.32763,-19.67333 43.99999,-23.99999 m -121.33332,30.66666 v 1.33333 l -28,12 v -13.33333 h 28 m 42.66666,1.33333 v 1.33334 l -32,16 c 0.002,-18.69507 15.57459,-21.90536 32,-17.33334 m 78.66666,0 -2.13785,19.96298 -25.86215,1.37036 h -70.66666 c 28.9703,-25.17074 63.05436,-21.33334 98.66666,-21.33334 m 325.33332,2.66667 -1.33334,18.66667 H 575.99996 525.3333 c -4.97493,0 -15.06901,1.89786 -19.19547,-1.37036 -3.30896,-2.62069 -2.5697,-10.85767 -1.94035,-14.55152 1.32955,-7.80363 12.63265,-5.41146 18.46915,-5.41146 h 56 c 81.24837,0.005 162.77693,2.66667 243.99999,2.66667 m 107.99999,17.33333 v 1.33334 H 829.33328 l 1.33334,-18.66667 67.99999,0.52474 32,16.80859 m 21.33333,1.33334 -34.66666,-17.33334 c 16.24511,-6.81673 34.66463,-0.70353 34.66666,17.33334 m 37.33333,-17.33334 v 12 l -26.66666,-12 h 26.66666 m -610.66663,4 v 13.33334 h -29.33333 l 29.33333,-13.33334 m 582.66663,4 17.33334,8 v 1.33334 h -18.66667 z"
       id="path1" />
  </g>
</svg>
