<?xml version="1.0" encoding="UTF-8" standalone="no"?>
<!-- Created with Inkscape (http://www.inkscape.org/) -->

<svg
   version="1.1"
   id="svg1"
   width="1333.3333"
   height="1333.3333"
   viewBox="0 0 1333.3333 1333.3333"
   sodipodi:docname="LowBridge_D_TL_BRorBR_TL.svg"
   inkscape:version="1.4.2 (ebf0e940d0, 2025-05-08)"
   xmlns:inkscape="http://www.inkscape.org/namespaces/inkscape"
   xmlns:sodipodi="http://sodipodi.sourceforge.net/DTD/sodipodi-0.dtd"
   xmlns="http://www.w3.org/2000/svg"
   xmlns:svg="http://www.w3.org/2000/svg">
  <defs
     id="defs1" />
  <sodipodi:namedview
     id="namedview1"
     pagecolor="#505050"
     bordercolor="#eeeeee"
     borderopacity="1"
     inkscape:showpageshadow="0"
     inkscape:pageopacity="0"
     inkscape:pagecheckerboard="0"
     inkscape:deskcolor="#505050"
     showgrid="false"
     inkscape:zoom="0.59400004"
     inkscape:cx="666.66663"
     inkscape:cy="666.66663"
     inkscape:window-width="1920"
     inkscape:window-height="995"
     inkscape:window-x="0"
     inkscape:window-y="0"
     inkscape:window-maximized="1"
     inkscape:current-layer="g1" />
  <g
     inkscape:groupmode="layer"
     inkscape:label="Image"
     id="g1">
    <path
       style="fill:#d020ff;stroke:none"
       d="M 1011.1824,553.20603 787.7367,327.87468 323.87468,791.7367 548.26322,1016.1252 C 606.12737,950.0274 671.60708,889.01014 733.99659,826.62063 824.26557,736.35165 913.36085,645.37076 1003.64,555.09165 l 2.8284,2.82843 4.714,-4.71405 M 584.08996,965.21355 c 3.24016,-36.56785 30.47839,-56.87703 54.68292,-81.08156 l 13.19932,13.19932 -47.14044,47.14045 -20.7418,20.74179 m -11.3137,13.19933 c -16.451,-9.01003 0.65497,-28.93924 9.42809,-37.71236 l 0.9428,0.94281 -8.48528,34.88394 -1.88561,1.88561 m -15.08494,15.08494 -0.94282,-0.94281 4.71405,-12.25651 4.71405,4.71404 -8.48528,8.48528 M 879.18917,643.7157 921.2744,602.83372 952.72828,592.80401 c -7.21277,17.64282 -31.9319,31.65684 -44.15269,46.35698 -3.63618,4.3739 -9.57224,14.40931 -15.78699,15.13075 -4.98429,0.57858 -10.45151,-7.42813 -13.59943,-10.57604 M 657.62906,891.67445 644.42974,878.47513 873.53232,649.37255 886.73164,662.57187 657.62906,891.67445 m 314.8982,-326.21191 13.19933,-5.65684 c -2.41796,5.91447 -7.92414,11.36333 -13.19933,5.65684 m -39.59797,26.39865 -0.94281,-0.9428 c 10.5913,-10.5913 25.0879,-29.49259 39.59797,-15.08495 -10.45537,10.27009 -25.54463,10.65374 -38.65516,16.02775 m -389.38011,410.12191 -11.31371,-11.3137 19.79899,-19.79899 c 4.53807,8.66758 -3.08646,23.81006 -8.48528,31.11269 m 421.43561,-444.06302 20.7418,-20.7418 10.3709,10.37089 c -7.10183,4.953 -22.48149,12.16675 -31.1127,10.37091 M 787.73671,382.5576 l 21.6846,-21.6846 132.93607,132.93607 26.39865,26.39865 c 2.74389,2.74389 8.35281,6.63361 8.83302,10.771 0.6144,5.2938 -12.2001,16.60903 -16.53552,18.95953 -5.21414,2.82685 -9.79739,-3.86161 -13.0393,-7.10312 L 917.84435,512.66524 787.73671,382.5576 m -7.54248,245.13034 -0.94281,-0.94281 L 902.7594,508.894 c 11.93165,11.91595 24.73492,23.0262 36.77027,34.89047 3.28743,3.24076 12.2625,9.49634 11.66073,14.67831 -1.42607,12.28022 -31.86098,18.33985 -41.17953,21.7937 -42.59311,15.78671 -89.06579,27.38339 -129.81664,47.43146 m 66.93944,-16.02775 82.02438,-31.1127 c -8.25965,20.20358 -39.57821,23.73138 -57.91145,28.82697 -7.74055,2.15147 -16.60519,6.36514 -24.11293,2.28573 m 26.39865,26.39865 -16.02776,-16.02775 44.31202,-14.14214 -28.28426,30.16989 m -5.65685,5.65686 -89.56685,89.56684 -61.28259,61.28259 -33.94112,33.94112 -31.1127,31.1127 c -3.13784,3.13784 -7.95754,10.17323 -12.65662,10.71864 -4.51639,0.52417 -9.0533,-6.02094 -11.85642,-8.83302 -13.53248,-13.57604 -4.41555,-41.87761 4.84209,-57.38331 7.45874,-12.49263 23.46681,-23.72289 33.81309,-34.06916 26.73505,-26.73506 54.34501,-52.45941 81.08156,-79.19596 16.26668,-16.26668 34.26346,-41.93909 54.341,-53.13923 8.68021,-4.84223 37.68039,-16.10536 47.01241,-12.1896 7.21234,3.02633 13.84134,12.70358 19.32615,18.18839 m -266.81495,266.81494 -0.94281,-0.94282 16.02776,-49.96887 16.97056,18.85618 -32.05551,32.05551 m -20.74179,20.74179 -0.94282,-0.94281 c 7.9717,-26.17716 16.93932,-57.14392 30.16989,-81.08156 -1.26954,14.32765 -7.86684,28.96104 -11.96551,42.7174 -4.23263,14.20577 -6.52474,28.51076 -17.26156,39.30697 m -28.28428,28.28428 -52.7973,-52.79731 126.3364,-128.22202 c -0.82794,16.25079 -11.39772,33.95159 -16.72686,49.26976 -8.69042,24.98013 -18.10286,49.7307 -27.29415,74.52922 -8.01273,21.61866 -12.94711,40.64937 -29.51809,57.22035 m -25.45583,25.45583 -174.41966,-174.41966 21.28449,-18.26112 13.59943,11.66145 32.05551,32.05551 127.27922,129.16483 -19.79899,19.79899 m 265.87213,-352.61055 -0.94282,-0.94282 c 10.08281,-5.57292 40.4354,-20.5441 50.9117,-15.08494 l -49.96888,16.02776 m -181.96213,215.90325 -10e-6,-1.88562 10e-6,1.88562 m 28.28426,-60.33977 c -4.81377,-19.97444 17.05579,-35.91197 29.22708,-48.08326 l 61.28259,-61.28259 c 9.04475,-9.04475 18.75306,-22.28514 29.8353,-28.79489 7.09269,-4.16633 16.28761,-4.85238 23.90481,-7.97465 -6.39852,15.6512 -29.48218,31.36778 -41.4836,43.36921 -33.90893,33.90892 -71.63139,66.35754 -102.76618,102.76618 m 38.65517,-123.50798 -0.94281,-0.94281 25.05574,-67.33955 9.62011,-24.32101 40.74887,-40.3327 86.73843,-86.73843 58.45416,58.45416 c -33.08921,33.08921 -67.41511,66.44766 -102.68183,97.19369 -11.32829,9.87621 -20.60409,24.70253 -32.90083,33.09579 -22.98111,15.68597 -58.30192,20.303 -84.09184,30.93086 m -27.34146,82.02438 -0.94281,-0.9428 16.57046,-51.3118 7.73599,-18.66266 19.2701,-7.12855 49.76154,-14.34947 -29.21329,29.24087 -63.18199,63.15441 M 493.5803,901.10255 437.01176,844.53401 528.46423,753.08153 c 12.23563,-12.23562 24.99123,-30.7001 39.15489,-40.20979 25.65126,-17.2226 63.32828,-22.49978 91.89556,-34.27211 l 1.88561,1.88561 c -10.21112,25.67466 -13.74231,58.98737 -28.97169,82.27827 -10.14141,15.50973 -30.36743,29.85817 -43.62459,43.11533 l -95.22371,95.22371 m 99.93775,-211.18922 -0.94281,-0.94281 92.39528,-92.39528 c 0.0904,16.82972 -9.67763,35.66703 -14.14213,51.8545 -1.66968,6.05411 -3.07411,15.89335 -8.34415,19.94011 -17.26108,13.25443 -48.78528,13.51735 -68.96619,21.54348 m 124.45078,-135.7645 -0.9428,-0.9428 46.06667,-125.52457 11.38863,-30.09496 7.41375,-7.61884 14.32691,12.38893 36.76954,36.76955 -115.0227,115.02269 m -15.08494,15.08495 -0.9428,-0.94281 11.3137,-28.28427 -10.3709,29.22708 M 556.7485,700.28423 555.80569,699.34142 696.28423,556.97726 c 3.82502,18.35091 -16.07025,33.04082 -27.34146,44.31203 L 608.603,661.62906 c -16.61753,16.61752 -28.99103,31.5566 -51.8545,38.65517 M 430.4121,837.93435 378.55761,784.19423 c 19.82229,-13.5961 44.19382,-19.30974 66.64843,-27.63247 34.12521,-12.64833 68.81107,-28.16751 103.99999,-37.42135 l -32.05551,33.94112 -57.51135,57.51135 -29.22707,27.34147 M 543.54917,713.48356 c -47.25421,12.42679 -96.23044,32.28896 -141.42135,50.91168 l -0.9428,-0.94281 c 18.23695,-18.23694 38.90842,-22.17298 63.29986,-29.09541 26.36522,-7.48258 52.52782,-15.91089 79.06429,-22.75909 v 1.88563 M 714.1976,539.06389 c -3.40594,-10.7721 5.05161,-26.51293 8.19428,-37.06055 9.69285,-32.53215 14.48634,-70.47287 38.94618,-94.9327 l 0.9428,0.9428 -26.10765,71.94449 -21.97561,59.10596 m -243.24472,154.62068 226.27417,-222.50292 20.74178,18.85617 c -3.7596,15.62115 -7.27238,38.15836 -16.34856,51.53369 -11.65252,17.17196 -31.19831,31.83995 -45.87683,46.51846 l -93.33808,93.33809 c -17.36606,17.36606 -39.79766,37.47953 -66.96856,35.60265 -7.97463,-0.55081 -18.83995,-17.70218 -24.48392,-23.34614 m -41.48359,43.36921 -0.94281,-0.94281 36.76955,-36.76955 19.79899,19.79899 c -14.34716,9.96032 -38.72537,13.47047 -55.62573,17.91337 M 719.85445,482.49535 702.8839,465.52479 733.99659,434.4121 c -0.47224,14.33907 -7.53373,35.35602 -14.14214,48.08325 m 64.11102,-107.48022 -0.94281,-0.9428 11.31371,-28.28427 9.42808,9.42808 -19.79898,19.79899 m -31.1127,29.22708 -0.94281,-0.94281 11.31371,-33.94113 c 13.218,13.22083 4.47653,26.50233 -10.3709,34.88394 m -55.62572,55.62573 -12.60428,-15.62765 17.31832,-19.25629 49.96887,-49.96887 c -2.68669,38.28349 -29.50122,59.67111 -54.68291,84.85281 M 465.29603,688.02772 453.03951,673.88557 626.51637,500.40872 662.34311,464.58198 c 3.5178,-3.51781 9.31341,-11.99739 14.54223,-12.60426 4.1929,-0.48668 9.49459,5.86048 11.66152,8.91745 4.57786,6.45813 -5.10616,12.75911 -9.23318,16.88614 L 639.7157,517.37929 C 582.26089,574.82703 522.7294,630.59434 465.29603,688.02772 m -88.62404,64.11101 -0.94282,-0.94282 71.65349,-71.65348 12.25651,14.14214 -48.4543,47.71221 -34.51288,10.74195 m -16.02776,14.14212 36.76955,-12.2565 c -6.66687,16.30718 -24.01412,25.00906 -36.76955,12.2565 m -14.14213,38.65518 -8.48528,-8.48528 27.34146,-10.3709 -18.85618,18.85618 m 428.97809,-434.63494 -9.42809,-9.4281 20.74179,-20.7418 -11.3137,30.1699 m -414.83595,409.17909 -17.91338,6.59967 -0.94281,-0.94281 13.19933,-13.19933 z"
       id="path1" />
  </g>
</svg>
