<?xml version="1.0" encoding="UTF-8" standalone="no"?>
<!-- Created with Inkscape (http://www.inkscape.org/) -->

<svg
   version="1.1"
   id="svg1"
   width="1333.3333"
   height="1333.3333"
   viewBox="0 0 1333.3333 1333.3333"
   sodipodi:docname="ParkingBlock_Curve_R_TLorTL_R.svg"
   inkscape:version="1.4.2 (ebf0e940d0, 2025-05-08)"
   xmlns:inkscape="http://www.inkscape.org/namespaces/inkscape"
   xmlns:sodipodi="http://sodipodi.sourceforge.net/DTD/sodipodi-0.dtd"
   xmlns="http://www.w3.org/2000/svg"
   xmlns:svg="http://www.w3.org/2000/svg">
  <defs
     id="defs1" />
  <sodipodi:namedview
     id="namedview1"
     pagecolor="#505050"
     bordercolor="#eeeeee"
     borderopacity="1"
     inkscape:showpageshadow="0"
     inkscape:pageopacity="0"
     inkscape:pagecheckerboard="0"
     inkscape:deskcolor="#505050"
     showgrid="false"
     inkscape:zoom="0.59400004"
     inkscape:cx="665.82488"
     inkscape:cy="666.66663"
     inkscape:window-width="1920"
     inkscape:window-height="995"
     inkscape:window-x="0"
     inkscape:window-y="0"
     inkscape:window-maximized="1"
     inkscape:current-layer="g1" />
  <g
     inkscape:groupmode="layer"
     inkscape:label="Image"
     id="g1">
    <path
       style="fill:#d22aff;stroke:none"
       d="m 570.66663,859.99995 c 8.31494,-29.08606 23.72502,-57.42965 35.43416,-85.33333 22.75659,-54.23063 45.17179,-108.62044 68.36523,-162.66666 23.3868,-54.4969 45.69784,-109.45491 68.97225,-163.99999 20.04931,-46.98714 40.34179,-93.97493 59.49584,-141.33332 6.54029,-16.17074 22.71477,-39.76774 23.09668,-57.19344 0.14201,-6.47941 -10.61067,-8.83048 -15.36417,-10.79215 -15.59888,-6.43742 -31.16504,-12.97054 -46.66667,-19.63989 -4.53352,-1.95044 -13.17317,-7.3663 -17.80143,-3.51644 -7.95825,6.61971 -11.84057,25.71142 -15.90641,35.14192 -13.16903,30.54508 -25.52083,61.44498 -38.66666,92 -48.40178,112.50105 -94.19572,226.1223 -142.49275,338.66664 -14.64372,34.12349 -28.66463,68.51338 -43.23771,102.66666 -4.34554,10.18416 -17.48364,30.09172 -15.89087,41.15637 0.90674,6.29899 13.06787,8.82438 17.99585,10.85803 18.98169,7.83334 42.00976,22.92538 62.66666,23.9856 m 178.66666,-637.3333 c 17.96207,3.19182 36.55013,14.19572 53.33333,21.33334 4.25635,1.81013 14.60229,4.12117 15.2963,9.61832 1.50684,11.93571 -12.65665,32.6652 -17.15844,43.71501 -15.64258,38.39542 -32.19629,76.43635 -48.23869,114.66665 -41.23396,98.264 -82.76586,196.40291 -123.99999,294.66665 -19.91553,47.46 -36.04224,100.8643 -61.89917,145.33333 L 497.3333,822.66662 572.76746,642.66663 749.33329,222.66665 M 506.76128,820.80858 c 3.3658,5.8794 16.60921,8.85083 22.57202,11.39095 7.22673,3.0785 22.61857,12.94735 30.48975,10.74899 6.48697,-1.81177 9.86686,-16.05257 12.16251,-21.61524 8.63916,-20.93408 17.34074,-41.8706 26.30656,-62.66666 52.30306,-121.31567 102.0052,-243.76105 153.70783,-365.33331 14.5319,-34.17 28.65544,-68.51399 43.22835,-102.66666 3.23975,-7.59261 15.98389,-27.74438 11.3807,-35.63371 -3.62288,-6.20922 -16.35994,-8.71891 -22.60905,-11.40747 -6.88688,-2.96297 -23.12215,-13.47371 -30.52262,-10.11621 -6.66797,3.02515 -9.49007,16.25025 -12.14404,22.49072 -8.86458,20.84408 -17.32511,41.86784 -26.29216,62.66667 -52.28779,121.27937 -103.34057,243.25039 -153.72224,365.33331 -13.97705,33.86861 -28.31298,67.61633 -42.65225,101.33333 -3.0625,7.20117 -16.11825,28.11625 -11.90536,35.47529 M 755.99995,241.33332 c 10.56543,2.50952 20.64226,7.87182 30.66667,12.0144 3.40226,1.40601 9.73844,3.01538 10.94857,7.01856 2.52929,8.36686 -9.85547,27.78173 -13.24073,35.6337 -13.54703,31.42188 -26.93562,62.97827 -39.8457,94.66666 -39.29508,96.45182 -80.99678,191.96345 -121.29629,287.99999 -21.5739,51.41198 -39.68026,106.81957 -65.89917,155.99999 L 514.66664,817.33328 538.1008,759.99995 587.43413,642.66663 755.99995,241.33332 m -229.15639,573.0483 c 3.19042,6.69568 23.9602,14.55746 29.16463,7.9609 5.73746,-7.27209 8.56209,-19.15637 12.19132,-27.6759 8.87622,-20.83663 17.39136,-41.83008 26.26758,-62.66666 48.18717,-113.11816 94.57893,-227.01171 143.0668,-339.99998 13.88013,-32.34391 27.13957,-64.95329 40.93318,-97.33333 3.0765,-7.22201 15.65772,-26.90592 10.0411,-34.14193 -4.30135,-5.5415 -22.03719,-12.88077 -27.57609,-6.76652 -7.30485,8.06364 -10.97233,24.18384 -15.06998,34.24178 -9.46436,23.2308 -19.59001,46.20239 -29.29631,69.33333 -48.12581,114.68782 -97.13386,229.02985 -144.58023,343.99998 -11.40251,27.63013 -23.06559,55.19938 -34.85286,82.66666 -2.80884,6.54537 -13.56803,23.50037 -10.28914,30.38167 m 254.48973,-549.0483 -40.7675,98.66666 -74.66666,177.33332 -80.76538,191.99999 -35.80045,83.99999 -14.66667,-6.66666 C 589.9998,668.04268 652.38928,527.1554 712.95878,386.66664 c 13.93424,-32.31974 27.12304,-64.96126 40.93619,-97.33332 6.2216,-14.58065 8.55363,-34.73487 27.43832,-24 z"
       id="path1" />
  </g>
</svg>
