<?xml version="1.0" encoding="UTF-8" standalone="no"?>
<!-- Created with Inkscape (http://www.inkscape.org/) -->

<svg
   version="1.1"
   id="svg1"
   width="1333.3333"
   height="1333.3333"
   viewBox="0 0 1333.3333 1333.3333"
   sodipodi:docname="ParkingBlock_Curve_R_BLorBL_R.svg"
   inkscape:version="1.4.2 (ebf0e940d0, 2025-05-08)"
   xmlns:inkscape="http://www.inkscape.org/namespaces/inkscape"
   xmlns:sodipodi="http://sodipodi.sourceforge.net/DTD/sodipodi-0.dtd"
   xmlns="http://www.w3.org/2000/svg"
   xmlns:svg="http://www.w3.org/2000/svg">
  <defs
     id="defs1" />
  <sodipodi:namedview
     id="namedview1"
     pagecolor="#505050"
     bordercolor="#eeeeee"
     borderopacity="1"
     inkscape:showpageshadow="0"
     inkscape:pageopacity="0"
     inkscape:pagecheckerboard="0"
     inkscape:deskcolor="#505050"
     showgrid="false"
     inkscape:zoom="0.59400004"
     inkscape:cx="665.82488"
     inkscape:cy="666.66663"
     inkscape:window-width="1920"
     inkscape:window-height="995"
     inkscape:window-x="0"
     inkscape:window-y="0"
     inkscape:window-maximized="1"
     inkscape:current-layer="g1" />
  <g
     inkscape:groupmode="layer"
     inkscape:label="Image"
     id="g1">
    <path
       style="fill:#d22aff;stroke:none"
       d="m 570.66663,473.3333 c 8.31494,29.08606 23.72502,57.42965 35.43416,85.33333 22.75659,54.23063 45.17179,108.62044 68.36523,162.66666 23.3868,54.4969 45.69784,109.45491 68.97225,163.99999 20.04931,46.98714 40.34179,93.97493 59.49584,141.33332 6.54029,16.1707 22.71477,39.7677 23.09668,57.1934 0.14201,6.4795 -10.61067,8.8305 -15.36417,10.7922 -15.59888,6.4374 -31.16504,12.9705 -46.66667,19.6399 -4.53352,1.9504 -13.17317,7.3663 -17.80143,3.5164 -7.95825,-6.6197 -11.84057,-25.7114 -15.90641,-35.1419 -13.16903,-30.5451 -25.52083,-61.445 -38.66666,-91.99999 C 643.22367,878.16556 597.42973,764.54431 549.1327,651.99996 534.48898,617.87647 520.46807,583.48658 505.89499,549.3333 c -4.34554,-10.18416 -17.48364,-30.09171 -15.89087,-41.15637 0.90674,-6.29899 13.06787,-8.82438 17.99585,-10.85803 18.98169,-7.83333 42.00976,-22.92537 62.66666,-23.9856 m 178.66666,637.3333 c 17.96207,-3.1918 36.55013,-14.1957 53.33333,-21.3333 4.25635,-1.8102 14.60229,-4.1212 15.2963,-9.6184 1.50684,-11.9357 -12.65665,-32.6652 -17.15844,-43.715 C 785.1619,997.60451 768.60819,959.56358 752.56579,921.33328 711.33183,823.06929 669.79993,724.93038 628.5658,626.66663 608.65027,579.20663 592.52356,525.80234 566.66663,481.3333 l -69.33333,29.33334 75.43416,179.99998 176.56583,419.99998 M 506.76128,512.52467 c 3.3658,-5.8794 16.60921,-8.85083 22.57202,-11.39095 7.22673,-3.07849 22.61857,-12.94735 30.48975,-10.74898 6.48697,1.81176 9.86686,16.05257 12.16251,21.61523 8.63916,20.93408 17.34074,41.8706 26.30656,62.66666 52.30306,121.31567 102.0052,243.76105 153.70783,365.33331 14.5319,34.17 28.65544,68.51396 43.22835,102.66666 3.23975,7.5926 15.98389,27.7444 11.3807,35.6337 -3.62288,6.2092 -16.35994,8.7189 -22.60905,11.4075 -6.88688,2.963 -23.12215,13.4737 -30.52262,10.1162 -6.66797,-3.0252 -9.49007,-16.2503 -12.14404,-22.4907 -8.86458,-20.8441 -17.32511,-41.8679 -26.29216,-62.6667 C 662.75334,893.38723 611.70056,771.41621 561.31889,649.33329 547.34184,615.46468 533.00591,581.71696 518.66664,547.99997 c -3.0625,-7.20117 -16.11825,-28.11625 -11.90536,-35.4753 m 249.23867,579.47523 c 10.56543,-2.5095 20.64226,-7.8718 30.66667,-12.0144 3.40226,-1.406 9.73844,-3.0154 10.94857,-7.0185 2.52929,-8.3669 -9.85547,-27.7818 -13.24073,-35.6337 -13.54703,-31.4219 -26.93562,-62.9783 -39.8457,-94.66669 C 705.23368,846.21479 663.53198,750.70316 623.23247,654.66663 601.65857,603.25464 583.55221,547.84705 557.3333,498.66664 l -42.66666,17.33333 23.43416,57.33333 49.33333,117.33332 168.56582,401.33328 M 526.84356,518.95163 c 3.19042,-6.69568 23.9602,-14.55746 29.16463,-7.9609 5.73746,7.2721 8.56209,19.15637 12.19132,27.6759 8.87622,20.83663 17.39136,41.83008 26.26758,62.66667 48.18717,113.11815 94.57893,227.0117 143.0668,339.99998 13.88013,32.34391 27.13957,64.95332 40.93318,97.33332 3.0765,7.222 15.65772,26.9059 10.0411,34.1419 -4.30135,5.5415 -22.03719,12.8808 -27.57609,6.7665 -7.30485,-8.0636 -10.97233,-24.1838 -15.06998,-34.2417 -9.46436,-23.2308 -19.59001,-46.20242 -29.29631,-69.33336 C 668.43998,861.31212 619.43193,746.97009 571.98556,631.99996 560.58305,604.36984 548.91997,576.80058 537.1327,549.3333 c -2.80884,-6.54537 -13.56803,-23.50036 -10.28914,-30.38167 m 254.48973,549.04827 -40.7675,-98.66663 -74.66666,-177.33332 -80.76538,-191.99999 -35.80045,-83.99999 -14.66667,6.66666 c 55.33317,142.62394 117.72265,283.51122 178.29215,423.99998 13.93424,32.31974 27.12304,64.96129 40.93619,97.33329 6.2216,14.5807 8.55363,34.7349 27.43832,24 z"
       id="path1" />
  </g>
</svg>
