<?xml version="1.0" encoding="UTF-8" standalone="no"?>
<!-- Created with Inkscape (http://www.inkscape.org/) -->

<svg
   version="1.1"
   id="svg1"
   width="1333.3333"
   height="1333.3333"
   viewBox="0 0 1333.3333 1333.3333"
   sodipodi:docname="ParkingBlock_Vertical.svg"
   inkscape:version="1.4.2 (ebf0e940d0, 2025-05-08)"
   xmlns:inkscape="http://www.inkscape.org/namespaces/inkscape"
   xmlns:sodipodi="http://sodipodi.sourceforge.net/DTD/sodipodi-0.dtd"
   xmlns="http://www.w3.org/2000/svg"
   xmlns:svg="http://www.w3.org/2000/svg">
  <defs
     id="defs1" />
  <sodipodi:namedview
     id="namedview1"
     pagecolor="#505050"
     bordercolor="#eeeeee"
     borderopacity="1"
     inkscape:showpageshadow="0"
     inkscape:pageopacity="0"
     inkscape:pagecheckerboard="0"
     inkscape:deskcolor="#505050"
     showgrid="false"
     inkscape:zoom="0.59400004"
     inkscape:cx="665.82488"
     inkscape:cy="666.66663"
     inkscape:window-width="1920"
     inkscape:window-height="995"
     inkscape:window-x="0"
     inkscape:window-y="0"
     inkscape:window-maximized="1"
     inkscape:current-layer="g1" />
  <g
     inkscape:groupmode="layer"
     inkscape:label="Image"
     id="g1">
    <path
       style="fill:#d121ff;stroke:none"
       d="m 340.98968,645.37032 c -4.03719,3.26636 -2.32303,12.73967 -2.32303,17.29631 v 49.33333 c 0,5.08781 -2.09009,16.28238 4.30452,18.24283 13.4847,4.13404 33.57418,0.42383 47.69547,0.42383 h 104 345.33331 114.66666 c 7.54842,0 33.72908,4.04956 38.62963,-2.13786 3.10466,-3.91992 1.37037,-13.15405 1.37037,-17.86214 v -47.99999 c 0,-5.08777 2.09008,-16.28239 -4.30453,-18.24284 -13.11865,-4.02189 -32.62654,-0.42383 -46.36214,-0.42383 H 839.99995 497.3333 382.66664 c -9.16491,0 -34.48022,-4.45231 -41.67696,1.37036 m 645.67693,5.29631 v 74.66666 H 346.66665 v -74.66666 h 639.99996 m -632.90943,6.70369 c -4.07324,2.71806 -3.08866,9.09599 -3.09053,13.29631 -0.004,8.89591 -4.88497,43.41519 5.41149,46.24283 13.61125,3.73788 32.46684,0.42383 46.5885,0.42383 h 100 326.66664 110.66666 c 8.34725,0 31.70117,4.02311 37.86214,-2.13786 3.23454,-3.23454 2.13762,-9.7277 2.13786,-13.86214 6.5e-4,-9.46281 5.19515,-42.71159 -6.72526,-45.02881 -14.91072,-2.89847 -32.7478,-0.30452 -47.9414,-0.30452 h -100 -313.33331 -114.66666 c -10.51274,0 -34.7439,-4.52336 -43.57613,1.37036 m 618.24276,6.62964 v 45.33333 h -613.3333 v -45.33333 h 613.3333 m -604.90943,8.9897 c -6.51424,3.32113 -5.00773,28.57377 2.32097,30.58647 8.67468,2.38216 20.28043,0.42383 29.25516,0.42383 h 64 362.66664 104 c 8.27693,0 30.16398,3.8566 36.34358,-2.32308 6.16585,-6.16585 3.87354,-27.94246 -5.69751,-29.47941 -36.20117,-5.81319 -77.93367,-0.19751 -114.64607,-0.19751 H 501.3333 405.33331 c -10.17615,0 -29.10628,-3.66834 -38.2428,0.9897 m 592.90943,7.0103 v 16 H 371.99998 v -16 z"
       id="path1" />
  </g>
</svg>
