<?xml version="1.0" encoding="UTF-8" standalone="no"?>
<!-- Created with Inkscape (http://www.inkscape.org/) -->

<svg
   version="1.1"
   id="svg1"
   width="1333.3333"
   height="1333.3333"
   viewBox="0 0 1333.3333 1333.3333"
   sodipodi:docname="ParkingBlock_Curve_B_TLorTL_B.svg"
   inkscape:version="1.4.2 (ebf0e940d0, 2025-05-08)"
   xmlns:inkscape="http://www.inkscape.org/namespaces/inkscape"
   xmlns:sodipodi="http://sodipodi.sourceforge.net/DTD/sodipodi-0.dtd"
   xmlns="http://www.w3.org/2000/svg"
   xmlns:svg="http://www.w3.org/2000/svg">
  <defs
     id="defs1" />
  <sodipodi:namedview
     id="namedview1"
     pagecolor="#505050"
     bordercolor="#eeeeee"
     borderopacity="1"
     inkscape:showpageshadow="0"
     inkscape:pageopacity="0"
     inkscape:pagecheckerboard="0"
     inkscape:deskcolor="#505050"
     showgrid="false"
     inkscape:zoom="0.59400004"
     inkscape:cx="665.82488"
     inkscape:cy="666.66663"
     inkscape:window-width="1920"
     inkscape:window-height="995"
     inkscape:window-x="0"
     inkscape:window-y="0"
     inkscape:window-maximized="1"
     inkscape:current-layer="g1" />
  <g
     inkscape:groupmode="layer"
     inkscape:label="Image"
     id="g1">
    <path
       style="fill:#d22aff;stroke:none"
       d="m 859.99995,570.66663 c -29.08606,8.31494 -57.42965,23.72502 -85.33333,35.43416 -54.23063,22.75659 -108.62044,45.17179 -162.66666,68.36523 -54.4969,23.3868 -109.45491,45.69784 -163.99999,68.97225 -46.98714,20.04931 -93.97493,40.34179 -141.33332,59.49584 -16.17074,6.54029 -39.76774,22.71477 -57.19344,23.09668 -6.47941,0.14201 -8.83048,-10.61067 -10.79215,-15.36417 -6.43742,-15.59888 -12.97054,-31.16504 -19.63989,-46.66667 -1.95044,-4.53352 -7.3663,-13.17317 -3.51644,-17.80143 6.61971,-7.95825 25.71142,-11.84057 35.14192,-15.90641 30.54508,-13.16903 61.44498,-25.52083 92,-38.66666 112.50105,-48.40178 226.1223,-94.19572 338.66664,-142.49275 34.12349,-14.64372 68.51338,-28.66463 102.66666,-43.23771 10.18416,-4.34554 30.09172,-17.48364 41.15637,-15.89087 6.29899,0.90674 8.82438,13.06787 10.85803,17.99585 7.83334,18.98169 22.92538,42.00976 23.9856,62.66666 m -637.3333,178.66666 c 3.19182,17.96207 14.19572,36.55013 21.33334,53.33333 1.81013,4.25635 4.12117,14.60229 9.61832,15.2963 11.93571,1.50684 32.6652,-12.65665 43.71501,-17.15844 38.39542,-15.64258 76.43635,-32.19629 114.66665,-48.23869 98.264,-41.23396 196.40291,-82.76586 294.66665,-123.99999 47.46,-19.91553 100.8643,-36.04224 145.33333,-61.89917 L 822.66662,497.3333 642.66663,572.76746 222.66665,749.33329 M 820.80858,506.76128 c 5.8794,3.3658 8.85083,16.60921 11.39095,22.57202 3.0785,7.22673 12.94735,22.61857 10.74899,30.48975 -1.81177,6.48697 -16.05257,9.86686 -21.61524,12.16251 -20.93408,8.63916 -41.8706,17.34074 -62.66666,26.30656 -121.31567,52.30306 -243.76105,102.0052 -365.33331,153.70783 -34.17,14.5319 -68.51399,28.65544 -102.66666,43.22835 -7.59261,3.23975 -27.74438,15.98389 -35.63371,11.3807 -6.20922,-3.62288 -8.71891,-16.35994 -11.40747,-22.60905 -2.96297,-6.88688 -13.47371,-23.12215 -10.11621,-30.52262 3.02515,-6.66797 16.25025,-9.49007 22.49072,-12.14404 20.84408,-8.86458 41.86784,-17.32511 62.66667,-26.29216 121.27937,-52.28779 243.25039,-103.34057 365.33331,-153.72224 33.86861,-13.97705 67.61633,-28.31298 101.33333,-42.65225 7.20117,-3.0625 28.11625,-16.11825 35.47529,-11.90536 M 241.33332,755.99995 c 2.50952,10.56543 7.87182,20.64226 12.0144,30.66667 1.40601,3.40226 3.01538,9.73844 7.01856,10.94857 8.36686,2.52929 27.78173,-9.85547 35.6337,-13.24073 31.42188,-13.54703 62.97827,-26.93562 94.66666,-39.8457 96.45182,-39.29508 191.96345,-80.99678 287.99999,-121.29629 51.41198,-21.5739 106.81957,-39.68026 155.99999,-65.89917 L 817.33328,514.66664 759.99995,538.1008 642.66663,587.43413 241.33332,755.99995 m 573.0483,-229.15639 c 6.69568,3.19042 14.55746,23.9602 7.9609,29.16463 -7.27209,5.73746 -19.15637,8.56209 -27.6759,12.19132 -20.83663,8.87622 -41.83008,17.39136 -62.66666,26.26758 -113.11816,48.18717 -227.01171,94.57893 -339.99998,143.0668 -32.34391,13.88013 -64.95329,27.13957 -97.33333,40.93318 -7.22201,3.0765 -26.90592,15.65772 -34.14193,10.0411 -5.5415,-4.30135 -12.88077,-22.03719 -6.76652,-27.57609 8.06364,-7.30485 24.18384,-10.97233 34.24178,-15.06998 23.2308,-9.46436 46.20239,-19.59001 69.33333,-29.29631 114.68782,-48.12581 229.02985,-97.13386 343.99998,-144.58023 27.63013,-11.40251 55.19938,-23.06559 82.66666,-34.85286 6.54537,-2.80884 23.50037,-13.56803 30.38167,-10.28914 m -549.0483,254.48973 98.66666,-40.7675 177.33332,-74.66666 191.99999,-80.76538 83.99999,-35.80045 -6.66666,-14.66667 C 668.04268,589.9998 527.1554,652.38928 386.66664,712.95878 c -32.31974,13.93424 -64.96126,27.12304 -97.33332,40.93619 -14.58065,6.2216 -34.73487,8.55363 -24,27.43832 z"
       id="path1" />
  </g>
</svg>
