<?xml version="1.0" encoding="UTF-8" standalone="no"?>
<!-- Created with Inkscape (http://www.inkscape.org/) -->

<svg
   version="1.1"
   id="svg1"
   width="1333.3333"
   height="1333.3333"
   viewBox="0 0 1333.3333 1333.3333"
   sodipodi:docname="ParkingBlock_Curve_T_BLorBL_T.svg"
   inkscape:version="1.4.2 (ebf0e940d0, 2025-05-08)"
   xmlns:inkscape="http://www.inkscape.org/namespaces/inkscape"
   xmlns:sodipodi="http://sodipodi.sourceforge.net/DTD/sodipodi-0.dtd"
   xmlns="http://www.w3.org/2000/svg"
   xmlns:svg="http://www.w3.org/2000/svg">
  <defs
     id="defs1" />
  <sodipodi:namedview
     id="namedview1"
     pagecolor="#505050"
     bordercolor="#eeeeee"
     borderopacity="1"
     inkscape:showpageshadow="0"
     inkscape:pageopacity="0"
     inkscape:pagecheckerboard="0"
     inkscape:deskcolor="#505050"
     showgrid="false"
     inkscape:zoom="0.59400004"
     inkscape:cx="665.82488"
     inkscape:cy="666.66663"
     inkscape:window-width="1920"
     inkscape:window-height="995"
     inkscape:window-x="0"
     inkscape:window-y="0"
     inkscape:window-maximized="1"
     inkscape:current-layer="g1" />
  <g
     inkscape:groupmode="layer"
     inkscape:label="Image"
     id="g1">
    <path
       style="fill:#d22aff;stroke:none"
       d="M 859.99995,762.66662 C 830.91389,754.35168 802.5703,738.94161 774.66662,727.23246 720.43599,704.47587 666.04618,682.06067 611.99996,658.86723 557.50306,635.48043 502.54505,613.1694 447.99997,589.89498 401.01283,569.84567 354.02504,549.55319 306.66665,530.39914 c -16.17074,-6.54029 -39.76774,-22.71476 -57.19344,-23.09668 -6.47941,-0.14201 -8.83048,10.61068 -10.79215,15.36417 -6.43742,15.59888 -12.97054,31.16504 -19.63989,46.66667 -1.95044,4.53353 -7.3663,13.17317 -3.51644,17.80143 6.61971,7.95825 25.71142,11.84058 35.14192,15.90641 30.54508,13.16903 61.44498,25.52083 92,38.66667 112.50105,48.40177 226.1223,94.19571 338.66664,142.49274 34.12349,14.64372 68.51338,28.66463 102.66666,43.23771 10.18416,4.34554 30.09172,17.48364 41.15637,15.89087 6.29899,-0.90674 8.82438,-13.06787 10.85803,-17.99585 7.83334,-18.98169 22.92538,-42.00976 23.9856,-62.66666 M 222.66665,583.99996 c 3.19182,-17.96207 14.19572,-36.55012 21.33334,-53.33333 1.81013,-4.25634 4.12117,-14.60229 9.61832,-15.2963 11.93571,-1.50684 32.6652,12.65666 43.71501,17.15845 38.39542,15.64257 76.43635,32.19628 114.66665,48.23868 98.264,41.23397 196.40291,82.76587 294.66665,123.99999 47.46,19.91553 100.8643,36.04224 145.33333,61.89917 L 822.66662,835.99995 642.66663,760.56579 222.66665,583.99996 m 598.14193,242.57201 c 5.8794,-3.3658 8.85083,-16.60921 11.39095,-22.57202 3.0785,-7.22672 12.94735,-22.61857 10.74899,-30.48974 -1.81177,-6.48698 -16.05257,-9.86686 -21.61524,-12.16252 -20.93408,-8.63916 -41.8706,-17.34074 -62.66666,-26.30656 C 637.35095,682.73808 514.90557,633.03593 393.33331,581.3333 c -34.17,-14.5319 -68.51399,-28.65544 -102.66666,-43.22835 -7.59261,-3.23975 -27.74438,-15.98389 -35.63371,-11.3807 -6.20922,3.62289 -8.71891,16.35995 -11.40747,22.60905 -2.96297,6.88688 -13.47371,23.12215 -10.11621,30.52262 3.02515,6.66797 16.25025,9.49007 22.49072,12.14404 20.84408,8.86459 41.86784,17.32512 62.66667,26.29216 121.27937,52.2878 243.25039,103.34057 365.33331,153.72224 33.86861,13.97705 67.61633,28.31298 101.33333,42.65226 7.20117,3.0625 28.11625,16.11824 35.47529,11.90535 M 241.33332,577.3333 c 2.50952,-10.56543 7.87182,-20.64225 12.0144,-30.66667 1.40601,-3.40226 3.01538,-9.73844 7.01856,-10.94856 8.36686,-2.5293 27.78173,9.85546 35.6337,13.24072 31.42188,13.54704 62.97827,26.93562 94.66666,39.8457 96.45182,39.29508 191.96345,80.99678 287.99999,121.2963 51.41198,21.57389 106.81957,39.68025 155.99999,65.89916 L 817.33328,818.66662 759.99995,795.23245 642.66663,745.89912 241.33332,577.3333 m 573.0483,229.1564 c 6.69568,-3.19043 14.55746,-23.96021 7.9609,-29.16463 -7.27209,-5.73747 -19.15637,-8.5621 -27.6759,-12.19133 -20.83663,-8.87622 -41.83008,-17.39135 -62.66666,-26.26757 C 618.8818,690.67899 504.98825,644.28723 391.99998,595.79936 359.65607,581.91924 327.04669,568.6598 294.66665,554.86618 c -7.22201,-3.0765 -26.90592,-15.65772 -34.14193,-10.0411 -5.5415,4.30135 -12.88077,22.03719 -6.76652,27.57609 8.06364,7.30485 24.18384,10.97233 34.24178,15.06999 23.2308,9.46435 46.20239,19.59 69.33333,29.2963 114.68782,48.12581 229.02985,97.13386 343.99998,144.58023 27.63013,11.40251 55.19938,23.06559 82.66666,34.85286 6.54537,2.80884 23.50037,13.56804 30.38167,10.28915 m -549.0483,-254.48973 98.66666,40.76749 177.33332,74.66666 191.99999,80.76538 83.99999,35.80045 -6.66666,14.66667 C 668.04268,743.33345 527.1554,680.94397 386.66664,620.37447 354.3469,606.44023 321.70538,593.25143 289.33332,579.43828 c -14.58065,-6.2216 -34.73487,-8.55363 -24,-27.43831 z"
       id="path1" />
  </g>
</svg>
