<?xml version="1.0" encoding="UTF-8" standalone="no"?>
<!-- Created with Inkscape (http://www.inkscape.org/) -->

<svg
   version="1.1"
   id="svg1"
   width="1333.3333"
   height="1333.3333"
   viewBox="0 0 1333.3333 1333.3333"
   sodipodi:docname="ParkingBlock_Curve_L_TRorTR_L.svg"
   inkscape:version="1.4.2 (ebf0e940d0, 2025-05-08)"
   xmlns:inkscape="http://www.inkscape.org/namespaces/inkscape"
   xmlns:sodipodi="http://sodipodi.sourceforge.net/DTD/sodipodi-0.dtd"
   xmlns="http://www.w3.org/2000/svg"
   xmlns:svg="http://www.w3.org/2000/svg">
  <defs
     id="defs1" />
  <sodipodi:namedview
     id="namedview1"
     pagecolor="#505050"
     bordercolor="#eeeeee"
     borderopacity="1"
     inkscape:showpageshadow="0"
     inkscape:pageopacity="0"
     inkscape:pagecheckerboard="0"
     inkscape:deskcolor="#505050"
     showgrid="false"
     inkscape:zoom="0.59400004"
     inkscape:cx="665.82488"
     inkscape:cy="666.66663"
     inkscape:window-width="1920"
     inkscape:window-height="995"
     inkscape:window-x="0"
     inkscape:window-y="0"
     inkscape:window-maximized="1"
     inkscape:current-layer="g1" />
  <g
     inkscape:groupmode="layer"
     inkscape:label="Image"
     id="g1">
    <path
       style="fill:#d22aff;stroke:none"
       d="M 762.66662,859.99995 C 754.35168,830.91389 738.94161,802.5703 727.23246,774.66662 704.47587,720.43599 682.06067,666.04618 658.86723,611.99996 635.48043,557.50306 613.1694,502.54505 589.89498,447.99997 569.84567,401.01283 549.55319,354.02504 530.39914,306.66665 c -6.54029,-16.17074 -22.71476,-39.76774 -23.09668,-57.19344 -0.14201,-6.47941 10.61068,-8.83048 15.36417,-10.79215 15.59888,-6.43742 31.16504,-12.97054 46.66667,-19.63989 4.53353,-1.95044 13.17317,-7.3663 17.80143,-3.51644 7.95825,6.61971 11.84058,25.71142 15.90641,35.14192 13.16903,30.54508 25.52083,61.44498 38.66667,92 48.40177,112.50105 94.19571,226.1223 142.49274,338.66664 14.64372,34.12349 28.66463,68.51338 43.23771,102.66666 4.34554,10.18416 17.48364,30.09172 15.89087,41.15637 -0.90674,6.29899 -13.06787,8.82438 -17.99585,10.85803 -18.98169,7.83334 -42.00976,22.92538 -62.66666,23.9856 M 583.99996,222.66665 c -17.96207,3.19182 -36.55012,14.19572 -53.33333,21.33334 -4.25634,1.81013 -14.60229,4.12117 -15.2963,9.61832 -1.50684,11.93571 12.65666,32.6652 17.15845,43.71501 15.64257,38.39542 32.19628,76.43635 48.23868,114.66665 41.23397,98.264 82.76587,196.40291 123.99999,294.66665 19.91553,47.46 36.04224,100.8643 61.89917,145.33333 L 835.99995,822.66662 760.56579,642.66663 583.99996,222.66665 m 242.57201,598.14193 c -3.3658,5.8794 -16.60921,8.85083 -22.57202,11.39095 -7.22672,3.0785 -22.61857,12.94735 -30.48974,10.74899 -6.48698,-1.81177 -9.86686,-16.05257 -12.16252,-21.61524 -8.63916,-20.93408 -17.34074,-41.8706 -26.30656,-62.66666 C 682.73808,637.35095 633.03593,514.90557 581.3333,393.33331 c -14.5319,-34.17 -28.65544,-68.51399 -43.22835,-102.66666 -3.23975,-7.59261 -15.98389,-27.74438 -11.3807,-35.63371 3.62289,-6.20922 16.35995,-8.71891 22.60905,-11.40747 6.88688,-2.96297 23.12215,-13.47371 30.52262,-10.11621 6.66797,3.02515 9.49007,16.25025 12.14404,22.49072 8.86459,20.84408 17.32512,41.86784 26.29216,62.66667 52.2878,121.27937 103.34057,243.25039 153.72224,365.33331 13.97705,33.86861 28.31298,67.61633 42.65226,101.33333 3.0625,7.20117 16.11824,28.11625 11.90535,35.47529 M 577.3333,241.33332 c -10.56543,2.50952 -20.64225,7.87182 -30.66667,12.0144 -3.40226,1.40601 -9.73844,3.01538 -10.94856,7.01856 -2.5293,8.36686 9.85546,27.78173 13.24072,35.6337 13.54704,31.42188 26.93562,62.97827 39.8457,94.66666 39.29508,96.45182 80.99678,191.96345 121.2963,287.99999 21.57389,51.41198 39.68025,106.81957 65.89916,155.99999 L 818.66662,817.33328 795.23245,759.99995 745.89912,642.66663 577.3333,241.33332 m 229.1564,573.0483 c -3.19043,6.69568 -23.96021,14.55746 -29.16463,7.9609 -5.73747,-7.27209 -8.5621,-19.15637 -12.19133,-27.6759 -8.87622,-20.83663 -17.39135,-41.83008 -26.26757,-62.66666 C 690.67899,618.8818 644.28723,504.98825 595.79936,391.99998 581.91924,359.65607 568.6598,327.04669 554.86618,294.66665 c -3.0765,-7.22201 -15.65772,-26.90592 -10.0411,-34.14193 4.30135,-5.5415 22.03719,-12.88077 27.57609,-6.76652 7.30485,8.06364 10.97233,24.18384 15.06999,34.24178 9.46435,23.2308 19.59,46.20239 29.2963,69.33333 48.12581,114.68782 97.13386,229.02985 144.58023,343.99998 11.40251,27.63013 23.06559,55.19938 34.85286,82.66666 2.80884,6.54537 13.56804,23.50037 10.28915,30.38167 m -254.48973,-549.0483 40.76749,98.66666 74.66666,177.33332 80.76538,191.99999 35.80045,83.99999 14.66667,-6.66666 C 743.33345,668.04268 680.94397,527.1554 620.37447,386.66664 606.44023,354.3469 593.25143,321.70538 579.43828,289.33332 c -6.2216,-14.58065 -8.55363,-34.73487 -27.43831,-24 z"
       id="path1" />
  </g>
</svg>
