<?xml version="1.0" encoding="UTF-8" standalone="no"?>
<!-- Created with Inkscape (http://www.inkscape.org/) -->

<svg
   version="1.1"
   id="svg1"
   width="1333.3333"
   height="1333.3333"
   viewBox="0 0 1333.3333 1333.3333"
   sodipodi:docname="ParkingBlock_Curve_B_TRorTR_B.svg"
   inkscape:version="1.4.2 (ebf0e940d0, 2025-05-08)"
   xmlns:inkscape="http://www.inkscape.org/namespaces/inkscape"
   xmlns:sodipodi="http://sodipodi.sourceforge.net/DTD/sodipodi-0.dtd"
   xmlns="http://www.w3.org/2000/svg"
   xmlns:svg="http://www.w3.org/2000/svg">
  <defs
     id="defs1" />
  <sodipodi:namedview
     id="namedview1"
     pagecolor="#505050"
     bordercolor="#eeeeee"
     borderopacity="1"
     inkscape:showpageshadow="0"
     inkscape:pageopacity="0"
     inkscape:pagecheckerboard="0"
     inkscape:deskcolor="#505050"
     showgrid="false"
     inkscape:zoom="0.59400004"
     inkscape:cx="665.82488"
     inkscape:cy="666.66663"
     inkscape:window-width="1920"
     inkscape:window-height="995"
     inkscape:window-x="0"
     inkscape:window-y="0"
     inkscape:window-maximized="1"
     inkscape:current-layer="g1" />
  <g
     inkscape:groupmode="layer"
     inkscape:label="Image"
     id="g1">
    <path
       style="fill:#d22aff;stroke:none"
       d="m 473.3333,570.66663 c 29.08606,8.31494 57.42965,23.72502 85.33333,35.43416 54.23063,22.75659 108.62044,45.17179 162.66666,68.36523 54.4969,23.3868 109.45491,45.69784 163.99999,68.97225 46.98714,20.04931 93.97493,40.34179 141.33332,59.49584 16.1707,6.54029 39.7677,22.71477 57.1934,23.09668 6.4795,0.14201 8.8305,-10.61067 10.7922,-15.36417 6.4374,-15.59888 12.9705,-31.16504 19.6399,-46.66667 1.9504,-4.53352 7.3663,-13.17317 3.5164,-17.80143 -6.6197,-7.95825 -25.7114,-11.84057 -35.1419,-15.90641 -30.5451,-13.16903 -61.445,-25.52083 -91.99999,-38.66666 C 878.16556,643.22367 764.54431,597.42973 651.99996,549.1327 617.87647,534.48898 583.48658,520.46807 549.3333,505.89499 c -10.18416,-4.34554 -30.09171,-17.48364 -41.15637,-15.89087 -6.29899,0.90674 -8.82438,13.06787 -10.85803,17.99585 -7.83333,18.98169 -22.92537,42.00976 -23.9856,62.66666 m 637.3333,178.66666 c -3.1918,17.96207 -14.1957,36.55013 -21.3333,53.33333 -1.8102,4.25635 -4.1212,14.60229 -9.6184,15.2963 -11.9357,1.50684 -32.6652,-12.65665 -43.715,-17.15844 C 997.60451,785.1619 959.56358,768.60819 921.33328,752.56579 823.06929,711.33183 724.93038,669.79993 626.66663,628.5658 579.20663,608.65027 525.80234,592.52356 481.3333,566.66663 l 29.33334,-69.33333 179.99998,75.43416 419.99998,176.56583 M 512.52467,506.76128 c -5.8794,3.3658 -8.85083,16.60921 -11.39095,22.57202 -3.07849,7.22673 -12.94735,22.61857 -10.74898,30.48975 1.81176,6.48697 16.05257,9.86686 21.61523,12.16251 20.93408,8.63916 41.8706,17.34074 62.66666,26.30656 121.31567,52.30306 243.76105,102.0052 365.33331,153.70783 34.17,14.5319 68.51396,28.65544 102.66666,43.22835 7.5926,3.23975 27.7444,15.98389 35.6337,11.3807 6.2092,-3.62288 8.7189,-16.35994 11.4075,-22.60905 2.963,-6.88688 13.4737,-23.12215 10.1162,-30.52262 -3.0252,-6.66797 -16.2503,-9.49007 -22.4907,-12.14404 -20.8441,-8.86458 -41.8679,-17.32511 -62.6667,-26.29216 C 893.38723,662.75334 771.41621,611.70056 649.33329,561.31889 615.46468,547.34184 581.71696,533.00591 547.99997,518.66664 c -7.20117,-3.0625 -28.11625,-16.11825 -35.4753,-11.90536 m 579.47523,249.23867 c -2.5095,10.56543 -7.8718,20.64226 -12.0144,30.66667 -1.406,3.40226 -3.0154,9.73844 -7.0185,10.94857 -8.3669,2.52929 -27.7818,-9.85547 -35.6337,-13.24073 -31.4219,-13.54703 -62.9783,-26.93562 -94.66669,-39.8457 C 846.21479,705.23368 750.70316,663.53198 654.66663,623.23247 603.25464,601.65857 547.84705,583.55221 498.66664,557.3333 l 17.33333,-42.66666 57.33333,23.43416 117.33332,49.33333 401.33328,168.56582 M 518.95163,526.84356 c -6.69568,3.19042 -14.55746,23.9602 -7.9609,29.16463 7.2721,5.73746 19.15637,8.56209 27.6759,12.19132 20.83663,8.87622 41.83008,17.39136 62.66667,26.26758 113.11815,48.18717 227.0117,94.57893 339.99998,143.0668 32.34391,13.88013 64.95332,27.13957 97.33332,40.93318 7.222,3.0765 26.9059,15.65772 34.1419,10.0411 5.5415,-4.30135 12.8808,-22.03719 6.7665,-27.57609 -8.0636,-7.30485 -24.1838,-10.97233 -34.2417,-15.06998 -23.2308,-9.46436 -46.20242,-19.59001 -69.33336,-29.29631 C 861.31212,668.43998 746.97009,619.43193 631.99996,571.98556 604.36984,560.58305 576.80058,548.91997 549.3333,537.1327 c -6.54537,-2.80884 -23.50036,-13.56803 -30.38167,-10.28914 m 549.04827,254.48973 -98.66663,-40.7675 -177.33332,-74.66666 -191.99999,-80.76538 -83.99999,-35.80045 6.66666,-14.66667 c 142.62394,55.33317 283.51122,117.72265 423.99998,178.29215 32.31974,13.93424 64.96129,27.12304 97.33329,40.93619 14.5807,6.2216 34.7349,8.55363 24,27.43832 z"
       id="path1" />
  </g>
</svg>
