<?xml version="1.0" encoding="UTF-8" standalone="no"?>
<!-- Created with Inkscape (http://www.inkscape.org/) -->

<svg
   version="1.1"
   id="svg1"
   width="1333.3333"
   height="1333.3333"
   viewBox="0 0 1333.3333 1333.3333"
   sodipodi:docname="ParkingBlock_D_TR_BLorBL_TR.svg"
   inkscape:version="1.4.2 (ebf0e940d0, 2025-05-08)"
   xmlns:inkscape="http://www.inkscape.org/namespaces/inkscape"
   xmlns:sodipodi="http://sodipodi.sourceforge.net/DTD/sodipodi-0.dtd"
   xmlns="http://www.w3.org/2000/svg"
   xmlns:svg="http://www.w3.org/2000/svg">
  <defs
     id="defs1" />
  <sodipodi:namedview
     id="namedview1"
     pagecolor="#505050"
     bordercolor="#eeeeee"
     borderopacity="1"
     inkscape:showpageshadow="0"
     inkscape:pageopacity="0"
     inkscape:pagecheckerboard="0"
     inkscape:deskcolor="#505050"
     showgrid="false"
     inkscape:zoom="0.59400004"
     inkscape:cx="667.50838"
     inkscape:cy="666.66663"
     inkscape:window-width="1920"
     inkscape:window-height="995"
     inkscape:window-x="0"
     inkscape:window-y="0"
     inkscape:window-maximized="1"
     inkscape:current-layer="g1" />
  <g
     inkscape:groupmode="layer"
     inkscape:label="Image"
     id="g1">
    <path
       style="fill:#d121ff;stroke:none"
       d="m 451.43702,421.3195 c -5.16439,-0.54507 -10.65094,7.36566 -13.87297,10.58769 l -34.88393,34.88394 c -3.59763,3.59762 -12.99131,10.03547 -9.85588,15.94339 6.61192,12.45832 23.44084,24.04022 33.4261,34.02548 l 73.5391,73.5391 244.18753,244.18753 81.08157,81.08157 c 5.33754,5.33754 20.98659,26.71354 28.82697,25.80359 4.96713,-0.57648 10.27031,-8.33233 13.59943,-11.66145 l 33.94113,-33.94113 c 3.59759,-3.59759 12.9913,-10.03547 9.85587,-15.94339 -6.43238,-12.12019 -22.77076,-23.37014 -32.48329,-33.08267 l -73.5391,-73.5391 -242.30191,-242.30191 -81.08157,-81.08158 c -6.48057,-6.48057 -21.23294,-27.52945 -30.43905,-28.50106 m 452.81747,460.30758 -52.7973,52.7973 -452.54831,-452.54831 52.7973,-52.7973 452.54831,452.54831 M 451.97972,438.83276 c -4.80217,-0.95826 -8.61585,4.24782 -11.58725,7.21657 -6.29318,6.28754 -34.15337,27.24499 -28.87211,36.52513 6.98153,12.26768 22.65783,23.25721 32.64335,33.24273 l 70.71067,70.71068 230.98821,230.9882 78.25314,78.25314 c 5.9024,5.9024 19.57134,25.26089 28.28427,25.26089 4.57433,0 8.39005,-5.36701 11.31371,-8.29032 6.69167,-6.69076 33.87518,-26.52813 27.0847,-36.59566 -8.49395,-12.593 -22.94087,-23.37152 -33.68436,-34.11502 L 786.40337,771.31843 564.84326,549.75832 483.76169,468.67674 c -7.43363,-7.43362 -21.36915,-27.76614 -31.78197,-29.84398 M 884.45551,880.68427 852.4,912.73978 418.70787,479.04764 l 32.0555,-32.0555 433.69214,433.69213 M 450.36327,459.30539 c -6.95466,-2.25787 -23.74571,16.66371 -19.98673,23.26907 4.44948,7.81837 14.04074,14.64012 20.38683,20.98622 l 45.25483,45.25483 256.44405,256.44404 73.5391,73.5391 c 5.85268,5.85268 18.60212,24.05619 27.34146,24.05613 8.71983,0 22.49731,-17.0193 16.81634,-24.87384 -21.48754,-29.70863 -54.96776,-55.24708 -80.92735,-81.20667 L 545.98708,553.52955 478.10483,485.64731 c -7.19562,-7.19563 -17.98734,-23.17516 -27.74156,-26.34192 M 864.65652,883.5127 853.34281,894.8264 437.56405,479.04764 448.87776,467.73393 Z"
       id="path1" />
  </g>
</svg>
