<?xml version="1.0" encoding="UTF-8" standalone="no"?>
<!-- Created with Inkscape (http://www.inkscape.org/) -->

<svg
   version="1.1"
   id="svg1"
   width="1333.3333"
   height="1333.3333"
   viewBox="0 0 1333.3333 1333.3333"
   sodipodi:docname="ParkingBlock_Curve_L_BRorBR_L.svg"
   inkscape:version="1.4.2 (ebf0e940d0, 2025-05-08)"
   xmlns:inkscape="http://www.inkscape.org/namespaces/inkscape"
   xmlns:sodipodi="http://sodipodi.sourceforge.net/DTD/sodipodi-0.dtd"
   xmlns="http://www.w3.org/2000/svg"
   xmlns:svg="http://www.w3.org/2000/svg">
  <defs
     id="defs1" />
  <sodipodi:namedview
     id="namedview1"
     pagecolor="#505050"
     bordercolor="#eeeeee"
     borderopacity="1"
     inkscape:showpageshadow="0"
     inkscape:pageopacity="0"
     inkscape:pagecheckerboard="0"
     inkscape:deskcolor="#505050"
     showgrid="false"
     inkscape:zoom="0.59400004"
     inkscape:cx="665.82488"
     inkscape:cy="666.66663"
     inkscape:window-width="1920"
     inkscape:window-height="995"
     inkscape:window-x="0"
     inkscape:window-y="0"
     inkscape:window-maximized="1"
     inkscape:current-layer="g1" />
  <g
     inkscape:groupmode="layer"
     inkscape:label="Image"
     id="g1">
    <path
       style="fill:#d22aff;stroke:none"
       d="m 762.66662,473.3333 c -8.31494,29.08606 -23.72501,57.42965 -35.43416,85.33333 -22.75659,54.23063 -45.17179,108.62044 -68.36523,162.66666 -23.3868,54.4969 -45.69783,109.45491 -68.97225,163.99999 -20.04931,46.98714 -40.34179,93.97493 -59.49584,141.33332 -6.54029,16.1707 -22.71476,39.7677 -23.09668,57.1934 -0.14201,6.4795 10.61068,8.8305 15.36417,10.7922 15.59888,6.4374 31.16504,12.9705 46.66667,19.6399 4.53353,1.9504 13.17317,7.3663 17.80143,3.5164 7.95825,-6.6197 11.84058,-25.7114 15.90641,-35.1419 13.16903,-30.5451 25.52083,-61.445 38.66667,-91.99999 48.40177,-112.50105 94.19571,-226.1223 142.49274,-338.66665 14.64372,-34.12349 28.66463,-68.51338 43.23771,-102.66666 4.34554,-10.18416 17.48364,-30.09171 15.89087,-41.15637 -0.90674,-6.29899 -13.06787,-8.82438 -17.99585,-10.85803 -18.98169,-7.83333 -42.00976,-22.92537 -62.66666,-23.9856 m -178.66666,637.3333 c -17.96207,-3.1918 -36.55012,-14.1957 -53.33333,-21.3333 -4.25634,-1.8102 -14.60229,-4.1212 -15.2963,-9.6184 -1.50684,-11.9357 12.65666,-32.6652 17.15845,-43.715 15.64257,-38.39539 32.19628,-76.43632 48.23868,-114.66662 41.23397,-98.26399 82.76587,-196.4029 123.99999,-294.66665 19.91553,-47.46 36.04224,-100.86429 61.89917,-145.33333 l 69.33333,29.33334 -75.43416,179.99998 -176.56583,419.99998 M 826.57197,512.52467 c -3.3658,-5.8794 -16.60921,-8.85083 -22.57202,-11.39095 -7.22672,-3.07849 -22.61857,-12.94735 -30.48974,-10.74898 -6.48698,1.81176 -9.86686,16.05257 -12.16252,21.61523 -8.63916,20.93408 -17.34074,41.8706 -26.30656,62.66666 -52.30305,121.31567 -102.0052,243.76105 -153.70783,365.33331 -14.5319,34.17 -28.65544,68.51396 -43.22835,102.66666 -3.23975,7.5926 -15.98389,27.7444 -11.3807,35.6337 3.62289,6.2092 16.35995,8.7189 22.60905,11.4075 6.88688,2.963 23.12215,13.4737 30.52262,10.1162 6.66797,-3.0252 9.49007,-16.2503 12.14404,-22.4907 8.86459,-20.8441 17.32512,-41.8679 26.29216,-62.6667 52.2878,-121.27937 103.34057,-243.25039 153.72224,-365.33331 13.97705,-33.86861 28.31298,-67.61633 42.65226,-101.33332 3.0625,-7.20117 16.11824,-28.11625 11.90535,-35.4753 M 577.3333,1091.9999 c -10.56543,-2.5095 -20.64225,-7.8718 -30.66667,-12.0144 -3.40226,-1.406 -9.73844,-3.0154 -10.94856,-7.0185 -2.5293,-8.3669 9.85546,-27.7818 13.24072,-35.6337 13.54704,-31.4219 26.93562,-62.9783 39.8457,-94.66669 39.29508,-96.45182 80.99678,-191.96345 121.2963,-287.99998 21.57389,-51.41199 39.68025,-106.81958 65.89916,-155.99999 L 818.66662,515.99997 795.23245,573.3333 745.89912,690.66662 577.3333,1091.9999 M 806.4897,518.95163 c -3.19043,-6.69568 -23.96021,-14.55746 -29.16463,-7.9609 -5.73747,7.2721 -8.5621,19.15637 -12.19133,27.6759 -8.87622,20.83663 -17.39135,41.83008 -26.26757,62.66667 -48.18718,113.11815 -94.57894,227.0117 -143.06681,339.99998 -13.88012,32.34391 -27.13956,64.95332 -40.93318,97.33332 -3.0765,7.222 -15.65772,26.9059 -10.0411,34.1419 4.30135,5.5415 22.03719,12.8808 27.57609,6.7665 7.30485,-8.0636 10.97233,-24.1838 15.06999,-34.2417 9.46435,-23.2308 19.59,-46.20242 29.2963,-69.33336 48.12581,-114.68782 97.13386,-229.02985 144.58023,-343.99998 11.40251,-27.63012 23.06559,-55.19938 34.85286,-82.66666 2.80884,-6.54537 13.56804,-23.50036 10.28915,-30.38167 m -254.48973,549.04827 40.76749,-98.66663 74.66666,-177.33332 80.76538,-191.99999 35.80045,-83.99999 14.66667,6.66666 c -55.33317,142.62394 -117.72265,283.51122 -178.29215,423.99998 -13.93424,32.31974 -27.12304,64.96129 -40.93619,97.33329 -6.2216,14.5807 -8.55363,34.7349 -27.43831,24 z"
       id="path1" />
  </g>
</svg>
