<?xml version="1.0" encoding="UTF-8" standalone="no"?>
<!-- Created with Inkscape (http://www.inkscape.org/) -->

<svg
   version="1.1"
   id="svg1"
   width="1333.3333"
   height="1333.3333"
   viewBox="0 0 1333.3333 1333.3333"
   sodipodi:docname="ParkingBlock_Horizontal.svg"
   inkscape:version="1.4.2 (ebf0e940d0, 2025-05-08)"
   xmlns:inkscape="http://www.inkscape.org/namespaces/inkscape"
   xmlns:sodipodi="http://sodipodi.sourceforge.net/DTD/sodipodi-0.dtd"
   xmlns="http://www.w3.org/2000/svg"
   xmlns:svg="http://www.w3.org/2000/svg">
  <defs
     id="defs1" />
  <sodipodi:namedview
     id="namedview1"
     pagecolor="#505050"
     bordercolor="#eeeeee"
     borderopacity="1"
     inkscape:showpageshadow="0"
     inkscape:pageopacity="0"
     inkscape:pagecheckerboard="0"
     inkscape:deskcolor="#505050"
     showgrid="false"
     inkscape:zoom="0.59400004"
     inkscape:cx="665.82488"
     inkscape:cy="666.66663"
     inkscape:window-width="1920"
     inkscape:window-height="995"
     inkscape:window-x="0"
     inkscape:window-y="0"
     inkscape:window-maximized="1"
     inkscape:current-layer="g1" />
  <g
     inkscape:groupmode="layer"
     inkscape:label="Image"
     id="g1">
    <path
       style="fill:#d121ff;stroke:none"
       d="m 687.96293,340.98968 c -3.26636,-4.03719 -12.73966,-2.32303 -17.2963,-2.32303 H 621.3333 c -5.08781,0 -16.28239,-2.09009 -18.24284,4.30452 -4.13403,13.4847 -0.42383,33.57418 -0.42383,47.69547 v 104 345.33331 114.66666 c 0,7.54842 -4.04956,33.72908 2.13786,38.62963 3.91992,3.10466 13.15405,1.37037 17.86214,1.37037 h 48 c 5.08776,0 16.28238,2.09008 18.24283,-4.30453 4.02189,-13.11865 0.42383,-32.62654 0.42383,-46.36214 V 839.99995 497.3333 382.66664 c 0,-9.16491 4.45231,-34.48022 -1.37036,-41.67696 m -5.2963,645.67693 H 607.99996 V 346.66665 h 74.66667 v 639.99996 m -6.7037,-632.90943 c -2.71806,-4.07324 -9.09599,-3.08866 -13.2963,-3.09053 -8.89592,-0.004 -43.4152,-4.88497 -46.24284,5.41149 -3.73787,13.61125 -0.42383,32.46684 -0.42383,46.5885 v 100 326.66664 110.66666 c 0,8.34725 -4.02311,31.70117 2.13786,37.86214 3.23454,3.23454 9.7277,2.13762 13.86214,2.13786 9.46281,6.5e-4 42.71159,5.19515 45.02881,-6.72526 2.89848,-14.91072 0.30452,-32.7478 0.30452,-47.9414 v -100 -313.33331 -114.66666 c 0,-10.51274 4.52336,-34.7439 -1.37036,-43.57613 m -6.62964,618.24276 h -45.33333 v -613.3333 h 45.33333 v 613.3333 m -8.9897,-604.90943 c -3.32113,-6.51424 -28.57377,-5.00773 -30.58647,2.32097 -2.38216,8.67468 -0.42383,20.28043 -0.42383,29.25516 v 64 362.66664 104 c 0,8.27693 -3.8566,30.16398 2.32308,36.34358 6.16586,6.16585 27.94247,3.87354 29.47941,-5.69751 5.81319,-36.20117 0.19751,-77.93367 0.19751,-114.64607 V 501.3333 405.33331 c 0,-10.17615 3.66834,-29.10628 -0.9897,-38.2428 m -7.0103,592.90943 h -16 V 371.99998 h 16 z"
       id="path1" />
  </g>
</svg>
