<?xml version="1.0" encoding="UTF-8" standalone="no"?>
<!-- Created with Inkscape (http://www.inkscape.org/) -->

<svg
   version="1.1"
   id="svg1"
   width="1333.3333"
   height="1333.3333"
   viewBox="0 0 1333.3333 1333.3333"
   sodipodi:docname="Punch2.svg"
   inkscape:version="1.4.2 (ebf0e940d0, 2025-05-08)"
   xmlns:inkscape="http://www.inkscape.org/namespaces/inkscape"
   xmlns:sodipodi="http://sodipodi.sourceforge.net/DTD/sodipodi-0.dtd"
   xmlns="http://www.w3.org/2000/svg"
   xmlns:svg="http://www.w3.org/2000/svg">
  <defs
     id="defs1" />
  <sodipodi:namedview
     id="namedview1"
     pagecolor="#505050"
     bordercolor="#eeeeee"
     borderopacity="1"
     inkscape:showpageshadow="0"
     inkscape:pageopacity="0"
     inkscape:pagecheckerboard="0"
     inkscape:deskcolor="#505050"
     showgrid="false"
     inkscape:zoom="0.59400004"
     inkscape:cx="665.82488"
     inkscape:cy="666.66663"
     inkscape:window-width="1920"
     inkscape:window-height="995"
     inkscape:window-x="0"
     inkscape:window-y="0"
     inkscape:window-maximized="1"
     inkscape:current-layer="g1" />
  <g
     inkscape:groupmode="layer"
     inkscape:label="Image"
     id="g1">
    <path
       style="fill:#00ff00"
       d="m 650.66663,868.45005 c -55.77522,-5.45558 -99.5768,-25.35361 -135.99999,-61.78159 -28.60336,-28.60712 -47.66704,-63.52999 -56.27143,-103.08396 -2.52065,-11.58732 -2.95119,-17.60314 -2.92836,-40.91787 0.0226,-23.09386 0.47563,-29.35299 2.92081,-40.35473 9.25891,-41.65918 26.31355,-72.57248 56.84664,-103.04038 25.80367,-25.74858 50.27131,-40.78327 84.099,-51.67648 25.41855,-8.18531 35.16605,-9.57282 67.33333,-9.58458 24.99764,-0.009 30.52303,0.38684 43.17081,3.09389 45.54901,9.74901 81.3253,29.56124 113.00049,62.57753 34.77741,36.24986 53.49426,80.74498 55.37911,131.65141 1.34034,36.20009 -4.4884,64.00795 -20.12233,96 -23.93403,48.97673 -64.50291,85.45037 -116.1971,104.46756 -26.50879,9.75201 -65.53337,15.16278 -91.23098,12.6492 z m 53.99999,-24.41757 c 17.50654,-3.96311 27.53428,-7.46763 44,-15.37726 54.63676,-26.24581 92.2731,-76.48799 102.86763,-137.32193 2.60013,-14.92997 1.78365,-51.03109 -1.48509,-65.66431 -7.70219,-34.48053 -23.68174,-64.34993 -47.74384,-89.24403 -28.78988,-29.78535 -64.42672,-48.84753 -104.30536,-55.79302 -17.57628,-3.06118 -45.09039,-3.06118 -62.66667,0 -27.4981,4.78922 -56.59068,17.07512 -79.51059,33.57757 -13.68837,9.85571 -36.02304,32.95501 -45.01651,46.55766 -20.91656,31.63634 -30.80622,64.34894 -30.80622,101.89947 0,21.64696 2.53888,38.25155 8.69532,56.86841 22.11345,66.87035 79.29713,114.87146 150.638,126.44852 16.56293,2.6878 49.13907,1.71496 65.33333,-1.95108 z M 587.99996,768.86104 v -13.80558 l 42.12053,-45.86108 c 47.47753,-51.69382 58.85281,-65.51513 65.72768,-79.86109 4.34259,-9.06178 4.79177,-11.0633 4.78769,-21.33333 -0.004,-9.05775 -0.64063,-12.74892 -3.17267,-18.38356 -3.59541,-8.00099 -12.5938,-16.68265 -19.73359,-19.039 -6.73396,-2.2224 -26.54147,-1.00501 -32.39631,1.99111 -12.10272,6.19339 -20.04318,18.39823 -22.1109,33.98545 l -0.89931,6.77934 h -19.16156 -19.16156 v -6.38654 c 0,-16.42924 9.02194,-35.94128 22.40862,-48.46386 16.52555,-15.45885 37.44684,-22.1378 64.92471,-20.7267 27.09612,1.3915 45.03985,9.71625 57.5605,26.70442 8.00448,10.86059 11.11072,21.69619 11.08833,38.67979 -0.0151,11.42162 -0.61332,15.23695 -3.84498,24.52105 -7.88433,22.65059 -19.53883,38.08095 -67.22536,89.00516 l -31.21404,33.33333 56.48444,0.34765 56.48444,0.34765 v 15.98569 15.98568 h -81.33333 -81.33333 z"
       id="path1" />
  </g>
</svg>
