<?xml version="1.0" encoding="UTF-8" standalone="no"?>
<!-- Created with Inkscape (http://www.inkscape.org/) -->

<svg
   version="1.1"
   id="svg1"
   width="1333.3333"
   height="1333.3333"
   viewBox="0 0 1333.3333 1333.3333"
   sodipodi:docname="Punch8.svg"
   inkscape:version="1.4.2 (ebf0e940d0, 2025-05-08)"
   xmlns:inkscape="http://www.inkscape.org/namespaces/inkscape"
   xmlns:sodipodi="http://sodipodi.sourceforge.net/DTD/sodipodi-0.dtd"
   xmlns="http://www.w3.org/2000/svg"
   xmlns:svg="http://www.w3.org/2000/svg">
  <defs
     id="defs1" />
  <sodipodi:namedview
     id="namedview1"
     pagecolor="#505050"
     bordercolor="#eeeeee"
     borderopacity="1"
     inkscape:showpageshadow="0"
     inkscape:pageopacity="0"
     inkscape:pagecheckerboard="0"
     inkscape:deskcolor="#505050"
     showgrid="false"
     inkscape:zoom="0.59400004"
     inkscape:cx="665.82488"
     inkscape:cy="666.66663"
     inkscape:window-width="1920"
     inkscape:window-height="995"
     inkscape:window-x="0"
     inkscape:window-y="0"
     inkscape:window-maximized="1"
     inkscape:current-layer="g1" />
  <g
     inkscape:groupmode="layer"
     inkscape:label="Image"
     id="g1">
    <path
       style="fill:#00ff00"
       d="m 650.66663,868.45005 c -55.77522,-5.45558 -99.5768,-25.35361 -135.99999,-61.78159 -28.60336,-28.60712 -47.66704,-63.52999 -56.27143,-103.08396 -2.52065,-11.58732 -2.95119,-17.60314 -2.92836,-40.91787 0.0226,-23.09386 0.47563,-29.35299 2.92081,-40.35473 9.25891,-41.65918 26.31355,-72.57248 56.84664,-103.04038 25.80367,-25.74858 50.27131,-40.78327 84.099,-51.67648 25.41855,-8.18531 35.16605,-9.57282 67.33333,-9.58458 24.99764,-0.009 30.52303,0.38684 43.17081,3.09389 45.54901,9.74901 81.3253,29.56124 113.00049,62.57753 34.77741,36.24986 53.49426,80.74498 55.37911,131.65141 1.34034,36.20009 -4.4884,64.00795 -20.12233,96 -23.93403,48.97673 -64.50291,85.45037 -116.1971,104.46756 -26.50879,9.75201 -65.53337,15.16278 -91.23098,12.6492 z m 53.99999,-24.41757 c 17.50654,-3.96311 27.53428,-7.46763 44,-15.37726 54.63676,-26.24581 92.2731,-76.48799 102.86763,-137.32193 2.60013,-14.92997 1.78365,-51.03109 -1.48509,-65.66431 -7.70219,-34.48053 -23.68174,-64.34993 -47.74384,-89.24403 -28.78988,-29.78535 -64.42672,-48.84753 -104.30536,-55.79302 -17.57628,-3.06118 -45.09039,-3.06118 -62.66667,0 -27.4981,4.78922 -56.59068,17.07512 -79.51059,33.57757 -13.68837,9.85571 -36.02304,32.95501 -45.01651,46.55766 -20.91656,31.63634 -30.80622,64.34894 -30.80622,101.89947 0,21.64696 2.53888,38.25155 8.69532,56.86841 22.11345,66.87035 79.29713,114.87146 150.638,126.44852 16.56293,2.6878 49.13907,1.71496 65.33333,-1.95108 z m -61.33333,-60.75966 c -18.84492,-4.08397 -38.85668,-17.1592 -46.67142,-30.49404 -18.8417,-32.15093 -8.20951,-74.1246 23.10284,-91.20519 l 7.09809,-3.87194 -5.9206,-3.46971 c -7.96278,-4.66649 -18.57949,-16.5297 -23.18022,-25.90176 -3.56291,-7.25795 -3.76202,-8.61622 -3.76202,-25.66355 v -18 l 4.97973,-10.42904 c 11.59559,-24.2846 34.99781,-36.95164 68.13756,-36.88114 30.53302,0.065 54.67494,12.991 65.55512,35.09945 9.23326,18.76191 9.42962,41.55712 0.50227,58.30654 -4.53616,8.51072 -14.98469,19.63821 -21.97455,23.4025 -2.49341,1.34279 -4.53347,2.84771 -4.53347,3.34428 0,0.49657 3.1746,2.69448 7.05467,4.88426 8.93166,5.04071 21.0447,18.0526 25.33473,27.21469 10.40382,22.21911 7.19529,50.29694 -7.97922,69.82611 -6.15318,7.91897 -20.98745,17.53836 -32.97344,21.38185 -13.81872,4.43118 -40.19897,5.61446 -54.77007,2.45669 z m 39.51606,-32.004 c 7.8113,-2.75599 13.61945,-7.80664 17.93556,-15.59643 3.5609,-6.42675 3.88171,-8.10774 3.88171,-20.3391 0,-11.93956 -0.39466,-14.13706 -3.77551,-21.02203 -4.29879,-8.75434 -12.75483,-16.07258 -21.4167,-18.53498 -8.81501,-2.50593 -23.21694,-1.94763 -30.2603,1.17306 -7.74091,3.42975 -15.40765,11.05127 -19.04378,18.93143 -4.13527,8.9619 -4.01671,27.52484 0.23483,36.76924 3.70248,8.05054 7.13623,11.88302 14.55831,16.2488 9.81327,5.77233 25.46718,6.75158 37.88588,2.37001 z m -5.73927,-110.65943 c 14.7086,-4.36798 21.75036,-14.73611 22.60026,-33.27609 0.52828,-11.52401 0.37239,-12.34192 -3.93016,-20.61994 -6.29123,-12.10424 -13.50802,-16.52869 -28.0375,-17.18921 -9.17783,-0.41722 -11.35494,-0.0412 -17.68152,3.05414 -16.6702,8.15596 -22.97968,32.61637 -13.44187,52.11096 7.16674,14.64829 23.34884,21.01076 40.49079,15.92014 z"
       id="path1" />
  </g>
</svg>
