<?xml version="1.0" encoding="UTF-8" standalone="no"?>
<!-- Created with Inkscape (http://www.inkscape.org/) -->

<svg
   version="1.1"
   id="svg1"
   width="1333.3333"
   height="1333.3333"
   viewBox="0 0 1333.3333 1333.3333"
   sodipodi:docname="Punch10.svg"
   inkscape:version="1.4.2 (ebf0e940d0, 2025-05-08)"
   xmlns:inkscape="http://www.inkscape.org/namespaces/inkscape"
   xmlns:sodipodi="http://sodipodi.sourceforge.net/DTD/sodipodi-0.dtd"
   xmlns="http://www.w3.org/2000/svg"
   xmlns:svg="http://www.w3.org/2000/svg">
  <defs
     id="defs1" />
  <sodipodi:namedview
     id="namedview1"
     pagecolor="#505050"
     bordercolor="#eeeeee"
     borderopacity="1"
     inkscape:showpageshadow="0"
     inkscape:pageopacity="0"
     inkscape:pagecheckerboard="0"
     inkscape:deskcolor="#505050"
     showgrid="false"
     inkscape:zoom="0.59400004"
     inkscape:cx="665.82488"
     inkscape:cy="666.66663"
     inkscape:window-width="1920"
     inkscape:window-height="995"
     inkscape:window-x="0"
     inkscape:window-y="0"
     inkscape:window-maximized="1"
     inkscape:current-layer="g1" />
  <g
     inkscape:groupmode="layer"
     inkscape:label="Image"
     id="g1">
    <path
       style="fill:#00ff00"
       d="m 650.66663,868.45005 c -55.77522,-5.45558 -99.5768,-25.35361 -135.99999,-61.78159 -28.60336,-28.60712 -47.66704,-63.52999 -56.27143,-103.08396 -2.52065,-11.58732 -2.95119,-17.60314 -2.92836,-40.91787 0.0226,-23.09386 0.47563,-29.35299 2.92081,-40.35473 9.25891,-41.65918 26.31355,-72.57248 56.84664,-103.04038 25.80367,-25.74858 50.27131,-40.78327 84.099,-51.67648 25.41855,-8.18531 35.16605,-9.57282 67.33333,-9.58458 24.99764,-0.009 30.52303,0.38684 43.17081,3.09389 45.54901,9.74901 81.3253,29.56124 113.00049,62.57753 34.77741,36.24986 53.49426,80.74498 55.37911,131.65141 1.34034,36.20009 -4.4884,64.00795 -20.12233,96 -23.93403,48.97673 -64.50291,85.45037 -116.1971,104.46756 -26.50879,9.75201 -65.53337,15.16278 -91.23098,12.6492 z m 53.99999,-24.41757 c 17.50654,-3.96311 27.53428,-7.46763 44,-15.37726 54.63676,-26.24581 92.2731,-76.48799 102.86763,-137.32193 2.60013,-14.92997 1.78365,-51.03109 -1.48509,-65.66431 -7.70219,-34.48053 -23.68174,-64.34993 -47.74384,-89.24403 -28.78988,-29.78535 -64.42672,-48.84753 -104.30536,-55.79302 -17.57628,-3.06118 -45.09039,-3.06118 -62.66667,0 -27.4981,4.78922 -56.59068,17.07512 -79.51059,33.57757 -13.68837,9.85571 -36.02304,32.95501 -45.01651,46.55766 -20.91656,31.63634 -30.80622,64.34894 -30.80622,101.89947 0,21.64696 2.53888,38.25155 8.69532,56.86841 22.11345,66.87035 79.29713,114.87146 150.638,126.44852 16.56293,2.6878 49.13907,1.71496 65.33333,-1.95108 z m 20,-80.16615 c -27.78133,-6.24604 -43.70855,-25.55779 -48.82448,-59.19971 -2.45339,-16.13325 -2.45549,-71.84534 -0.003,-87.99999 5.97621,-39.37068 27.71823,-59.38792 64.42434,-59.31362 31.89953,0.0646 50.55314,14.05168 60.7415,45.54606 l 3.59111,11.10089 0.0354,46 c 0.0342,44.42712 -0.0718,46.36472 -3.09869,56.66666 -7.93265,26.99808 -20.72354,40.58351 -43.8529,46.57693 -8.70471,2.25561 -24.43088,2.55228 -33.01299,0.62278 z m 29.41871,-27.84399 c 7.08437,-3.03281 12.8917,-11.81987 16.1089,-24.37438 2.15111,-8.39428 2.47239,-15.10573 2.47239,-51.648 0,-39.55997 -0.17239,-42.57599 -2.96738,-51.91445 -5.33025,-17.80911 -13.33119,-24.23369 -30.17977,-24.23369 -14.36822,0 -21.71669,4.69585 -27.35652,17.48148 -4.90541,11.12069 -5.73036,21.44421 -5.17871,64.80674 0.57348,45.07799 1.13158,48.87906 8.8959,60.5869 8.06585,12.16254 23.01291,15.79919 38.20519,9.2954 z M 569.3333,680.51112 c 0,-77.62629 -0.12864,-82.11617 -2.33333,-81.44192 -1.28334,0.39247 -12.68334,4.27758 -25.33334,8.63358 l -22.99999,7.92 0.005,-13.47807 0.005,-13.47808 5.66167,-2.25617 c 3.11392,-1.24089 11.66167,-4.44188 18.995,-7.11329 7.33333,-2.67142 21.2899,-7.84493 31.01459,-11.4967 9.72469,-3.65176 19.77469,-6.97928 22.33333,-7.39449 l 4.65208,-0.75493 v 101.50779 101.50778 h -16 -16 z"
       id="path1" />
  </g>
</svg>
