<?xml version="1.0" encoding="UTF-8" standalone="no"?>
<!-- Created with Inkscape (http://www.inkscape.org/) -->

<svg
   version="1.1"
   id="svg1"
   width="1333.3333"
   height="1333.3333"
   viewBox="0 0 1333.3333 1333.3333"
   sodipodi:docname="Punch5.svg"
   inkscape:version="1.4.2 (ebf0e940d0, 2025-05-08)"
   xmlns:inkscape="http://www.inkscape.org/namespaces/inkscape"
   xmlns:sodipodi="http://sodipodi.sourceforge.net/DTD/sodipodi-0.dtd"
   xmlns="http://www.w3.org/2000/svg"
   xmlns:svg="http://www.w3.org/2000/svg">
  <defs
     id="defs1" />
  <sodipodi:namedview
     id="namedview1"
     pagecolor="#505050"
     bordercolor="#eeeeee"
     borderopacity="1"
     inkscape:showpageshadow="0"
     inkscape:pageopacity="0"
     inkscape:pagecheckerboard="0"
     inkscape:deskcolor="#505050"
     showgrid="false"
     inkscape:zoom="0.59400004"
     inkscape:cx="665.82488"
     inkscape:cy="666.66663"
     inkscape:window-width="1920"
     inkscape:window-height="995"
     inkscape:window-x="0"
     inkscape:window-y="0"
     inkscape:window-maximized="1"
     inkscape:current-layer="g1" />
  <g
     inkscape:groupmode="layer"
     inkscape:label="Image"
     id="g1">
    <path
       style="fill:#00ff00"
       d="m 650.66663,868.45005 c -55.77522,-5.45558 -99.5768,-25.35361 -135.99999,-61.78159 -28.60336,-28.60712 -47.66704,-63.52999 -56.27143,-103.08396 -2.52065,-11.58732 -2.95119,-17.60314 -2.92836,-40.91787 0.0226,-23.09386 0.47563,-29.35299 2.92081,-40.35473 9.25891,-41.65918 26.31355,-72.57248 56.84664,-103.04038 25.80367,-25.74858 50.27131,-40.78327 84.099,-51.67648 25.41855,-8.18531 35.16605,-9.57282 67.33333,-9.58458 24.99764,-0.009 30.52303,0.38684 43.17081,3.09389 45.54901,9.74901 81.3253,29.56124 113.00049,62.57753 34.77741,36.24986 53.49426,80.74498 55.37911,131.65141 1.34034,36.20009 -4.4884,64.00795 -20.12233,96 -23.93403,48.97673 -64.50291,85.45037 -116.1971,104.46756 -26.50879,9.75201 -65.53337,15.16278 -91.23098,12.6492 z m 53.99999,-24.41757 c 17.50654,-3.96311 27.53428,-7.46763 44,-15.37726 54.63676,-26.24581 92.2731,-76.48799 102.86763,-137.32193 2.60013,-14.92997 1.78365,-51.03109 -1.48509,-65.66431 -7.70219,-34.48053 -23.68174,-64.34993 -47.74384,-89.24403 -28.78988,-29.78535 -64.42672,-48.84753 -104.30536,-55.79302 -17.57628,-3.06118 -45.09039,-3.06118 -62.66667,0 -27.4981,4.78922 -56.59068,17.07512 -79.51059,33.57757 -13.68837,9.85571 -36.02304,32.95501 -45.01651,46.55766 -20.91656,31.63634 -30.80622,64.34894 -30.80622,101.89947 0,21.64696 2.53888,38.25155 8.69532,56.86841 22.11345,66.87035 79.29713,114.87146 150.638,126.44852 16.56293,2.6878 49.13907,1.71496 65.33333,-1.95108 z m -55.99999,-60.90816 c -21.9334,-4.68021 -40.01715,-18.19674 -49.66862,-37.12437 -3.97531,-7.79604 -6.95981,-18.19715 -6.98222,-24.33333 l -0.0158,-4.33333 h 18.64127 18.64126 l 0.78454,3.66667 c 4.52674,21.1564 18.41534,32.75024 39.26626,32.77845 17.16317,0.0232 27.46421,-6.73349 35.22188,-23.1029 3.91514,-8.26131 4.11068,-9.47136 4.09531,-25.34222 -0.0195,-20.15333 -2.67658,-28.48219 -12.08912,-37.89473 -8.85429,-8.8543 -17.89872,-11.82986 -33.89473,-11.15116 -13.5415,0.57455 -19.32535,2.61793 -27.9487,9.87399 l -4.30477,3.62223 -15.94439,-3.8312 -15.94439,-3.83121 0.7292,-4.72729 c 0.40105,-2.60001 3.13938,-27.52729 6.08518,-55.39396 2.9458,-27.86666 5.71779,-53.21666 6.15999,-56.33333 l 0.804,-5.66666 h 64.51527 64.51527 v 17.33333 17.33333 H 692.9666 644.59991 l -3.00094,27 c -1.65052,14.85 -2.98551,27.98025 -2.96664,29.17834 0.03,1.90372 1.03198,1.77537 7.94802,-1.01815 16.04222,-6.47974 34.10261,-7.58913 51.42476,-3.15887 19.51956,4.99226 32.83323,16.13763 41.85639,35.03952 6.10911,12.79749 8.00923,20.90194 8.97783,38.29249 2.3716,42.5805 -20.33544,75.48004 -57.50604,83.31876 -11.75575,2.47911 -30.5385,2.39353 -42.66666,-0.1944 z"
       id="path1" />
  </g>
</svg>
