<?xml version="1.0" encoding="UTF-8" standalone="no"?>
<!-- Created with Inkscape (http://www.inkscape.org/) -->

<svg
   version="1.1"
   id="svg1"
   width="1333.3333"
   height="1333.3333"
   viewBox="0 0 1333.3333 1333.3333"
   sodipodi:docname="Punch9.svg"
   inkscape:version="1.4.2 (ebf0e940d0, 2025-05-08)"
   xmlns:inkscape="http://www.inkscape.org/namespaces/inkscape"
   xmlns:sodipodi="http://sodipodi.sourceforge.net/DTD/sodipodi-0.dtd"
   xmlns="http://www.w3.org/2000/svg"
   xmlns:svg="http://www.w3.org/2000/svg">
  <defs
     id="defs1" />
  <sodipodi:namedview
     id="namedview1"
     pagecolor="#505050"
     bordercolor="#eeeeee"
     borderopacity="1"
     inkscape:showpageshadow="0"
     inkscape:pageopacity="0"
     inkscape:pagecheckerboard="0"
     inkscape:deskcolor="#505050"
     showgrid="false"
     inkscape:zoom="0.59400004"
     inkscape:cx="665.82488"
     inkscape:cy="666.66663"
     inkscape:window-width="1920"
     inkscape:window-height="995"
     inkscape:window-x="0"
     inkscape:window-y="0"
     inkscape:window-maximized="1"
     inkscape:current-layer="g1" />
  <g
     inkscape:groupmode="layer"
     inkscape:label="Image"
     id="g1">
    <path
       style="fill:#00ff00"
       d="m 650.66663,868.45005 c -55.77522,-5.45558 -99.5768,-25.35361 -135.99999,-61.78159 -28.60336,-28.60712 -47.66704,-63.52999 -56.27143,-103.08396 -2.52065,-11.58732 -2.95119,-17.60314 -2.92836,-40.91787 0.0226,-23.09386 0.47563,-29.35299 2.92081,-40.35473 9.25891,-41.65918 26.31355,-72.57248 56.84664,-103.04038 25.80367,-25.74858 50.27131,-40.78327 84.099,-51.67648 25.41855,-8.18531 35.16605,-9.57282 67.33333,-9.58458 24.99764,-0.009 30.52303,0.38684 43.17081,3.09389 45.54901,9.74901 81.3253,29.56124 113.00049,62.57753 34.77741,36.24986 53.49426,80.74498 55.37911,131.65141 1.34034,36.20009 -4.4884,64.00795 -20.12233,96 -23.93403,48.97673 -64.50291,85.45037 -116.1971,104.46756 -26.50879,9.75201 -65.53337,15.16278 -91.23098,12.6492 z m 53.99999,-24.41757 c 17.50654,-3.96311 27.53428,-7.46763 44,-15.37726 54.63676,-26.24581 92.2731,-76.48799 102.86763,-137.32193 2.60013,-14.92997 1.78365,-51.03109 -1.48509,-65.66431 -7.70219,-34.48053 -23.68174,-64.34993 -47.74384,-89.24403 -28.78988,-29.78535 -64.42672,-48.84753 -104.30536,-55.79302 -17.57628,-3.06118 -45.09039,-3.06118 -62.66667,0 -27.4981,4.78922 -56.59068,17.07512 -79.51059,33.57757 -13.68837,9.85571 -36.02304,32.95501 -45.01651,46.55766 -20.91656,31.63634 -30.80622,64.34894 -30.80622,101.89947 0,21.64696 2.53888,38.25155 8.69532,56.86841 22.11345,66.87035 79.29713,114.87146 150.638,126.44852 16.56293,2.6878 49.13907,1.71496 65.33333,-1.95108 z M 619.99996,767.0639 v -15.99508 l 12.33333,-0.83136 c 38.78219,-2.6142 61.25506,-20.2702 68.33451,-53.68758 3.40266,-16.06174 3.22503,-16.35564 -5.66784,-9.37806 -33.69879,26.44095 -80.74909,16.54268 -99.52976,-20.9387 -7.57404,-15.11583 -9.41566,-24.10698 -9.3332,-45.56649 0.0633,-16.46574 0.48617,-19.92434 3.58675,-29.33333 1.93326,-5.86667 5.63837,-14.26667 8.23359,-18.66667 5.56586,-9.43651 17.77249,-21.31112 27.15818,-26.41944 15.0497,-8.19108 39.35863,-11.12033 57.25975,-6.89987 27.49413,6.48217 46.86115,27.88685 55.99107,61.88204 3.19089,11.88126 3.43431,14.8598 3.49532,42.7706 0.0732,33.46415 -1.54055,46.00663 -8.65636,67.28119 -9.5923,28.6787 -26.31527,48.3467 -51.20534,60.223 -13.52832,6.45504 -28.27507,9.8859 -46.33333,10.77955 l -15.66667,0.77529 z m 60.86167,-99.8578 c 6.80165,-3.23834 16.73842,-12.24791 20.0106,-18.14341 2.03605,-3.66837 2.39832,-29.51424 0.55028,-39.25892 -3.29934,-17.39739 -13.3266,-32.79716 -24.72745,-37.97622 -7.54348,-3.42677 -20.83736,-3.30872 -28.18937,0.25032 -24.7732,11.9925 -32.32125,57.72581 -13.93737,84.44587 9.89018,14.37488 29.18578,18.82741 46.29331,10.68236 z"
       id="path1" />
  </g>
</svg>
