<?xml version="1.0" encoding="UTF-8" standalone="no"?>
<!-- Created with Inkscape (http://www.inkscape.org/) -->

<svg
   version="1.1"
   id="svg1"
   width="1333.3333"
   height="1333.3333"
   viewBox="0 0 1333.3333 1333.3333"
   sodipodi:docname="Punch3.svg"
   inkscape:version="1.4.2 (ebf0e940d0, 2025-05-08)"
   xmlns:inkscape="http://www.inkscape.org/namespaces/inkscape"
   xmlns:sodipodi="http://sodipodi.sourceforge.net/DTD/sodipodi-0.dtd"
   xmlns="http://www.w3.org/2000/svg"
   xmlns:svg="http://www.w3.org/2000/svg">
  <defs
     id="defs1" />
  <sodipodi:namedview
     id="namedview1"
     pagecolor="#505050"
     bordercolor="#eeeeee"
     borderopacity="1"
     inkscape:showpageshadow="0"
     inkscape:pageopacity="0"
     inkscape:pagecheckerboard="0"
     inkscape:deskcolor="#505050"
     showgrid="false"
     inkscape:zoom="0.59400004"
     inkscape:cx="665.82488"
     inkscape:cy="666.66663"
     inkscape:window-width="1920"
     inkscape:window-height="995"
     inkscape:window-x="0"
     inkscape:window-y="0"
     inkscape:window-maximized="1"
     inkscape:current-layer="g1" />
  <g
     inkscape:groupmode="layer"
     inkscape:label="Image"
     id="g1">
    <path
       style="fill:#00ff00"
       d="m 650.66663,868.45005 c -55.77522,-5.45558 -99.5768,-25.35361 -135.99999,-61.78159 -28.60336,-28.60712 -47.66704,-63.52999 -56.27143,-103.08396 -2.52065,-11.58732 -2.95119,-17.60314 -2.92836,-40.91787 0.0226,-23.09386 0.47563,-29.35299 2.92081,-40.35473 9.25891,-41.65918 26.31355,-72.57248 56.84664,-103.04038 25.80367,-25.74858 50.27131,-40.78327 84.099,-51.67648 25.41855,-8.18531 35.16605,-9.57282 67.33333,-9.58458 24.99764,-0.009 30.52303,0.38684 43.17081,3.09389 45.54901,9.74901 81.3253,29.56124 113.00049,62.57753 34.77741,36.24986 53.49426,80.74498 55.37911,131.65141 1.34034,36.20009 -4.4884,64.00795 -20.12233,96 -23.93403,48.97673 -64.50291,85.45037 -116.1971,104.46756 -26.50879,9.75201 -65.53337,15.16278 -91.23098,12.6492 z m 53.99999,-24.41757 c 17.50654,-3.96311 27.53428,-7.46763 44,-15.37726 54.63676,-26.24581 92.2731,-76.48799 102.86763,-137.32193 2.60013,-14.92997 1.78365,-51.03109 -1.48509,-65.66431 -7.70219,-34.48053 -23.68174,-64.34993 -47.74384,-89.24403 -28.78988,-29.78535 -64.42672,-48.84753 -104.30536,-55.79302 -17.57628,-3.06118 -45.09039,-3.06118 -62.66667,0 -27.4981,4.78922 -56.59068,17.07512 -79.51059,33.57757 -13.68837,9.85571 -36.02304,32.95501 -45.01651,46.55766 -20.91656,31.63634 -30.80622,64.34894 -30.80622,101.89947 0,21.64696 2.53888,38.25155 8.69532,56.86841 22.11345,66.87035 79.29713,114.87146 150.638,126.44852 16.56293,2.6878 49.13907,1.71496 65.33333,-1.95108 z m -65.33333,-60.81334 c -28.48352,-6.30114 -49.38262,-25.73018 -54.70762,-50.85944 -3.16736,-14.94712 -4.80399,-13.69308 17.87055,-13.69308 h 19.82959 l 0.8724,5.45569 c 2.88424,18.03707 17.96237,29.56749 38.77784,29.65387 26.98943,0.112 41.16566,-13.35616 41.16566,-39.10956 0,-18.49606 -6.62437,-29.6095 -21.74068,-36.47346 -5.05909,-2.29722 -9.44777,-2.84302 -26.40107,-3.28335 l -20.33333,-0.52812 v -15.85753 -15.85753 h 17.76248 c 20.50648,0 26.97823,-1.62103 35.46138,-8.8823 8.99745,-7.70148 11.36459,-13.60564 11.40679,-28.45103 0.0334,-11.74099 -0.26665,-13.20259 -4.10543,-20 -2.8664,-5.0756 -6.09798,-8.55234 -10.49648,-11.29276 -5.66957,-3.53236 -7.74852,-4.0154 -19.27432,-4.47833 -11.12974,-0.44703 -13.87595,-0.10737 -19.82571,2.45215 -11.1148,4.78146 -20.26204,16.79422 -20.26204,26.60945 v 4.04282 h -20 -20 v -3.71987 c 0,-6.31023 3.90699,-19.12629 8.02467,-26.32325 9.19975,-16.0795 28.26008,-29.00983 49.30866,-33.4505 13.50461,-2.84909 37.06549,-1.82409 49.99999,2.17523 27.25951,8.42858 42.48188,26.47359 46.07203,54.61503 2.99905,23.50814 -7.03416,43.73647 -28.45705,57.37326 l -7.71835,4.91314 8.38502,4.15182 c 4.61176,2.28351 10.57421,5.97088 13.24989,8.19417 19.46123,16.17082 24.39879,51.20359 10.95958,77.76003 -7.45018,14.72188 -26.03166,28.60752 -45.15778,33.74567 -11.56459,3.10678 -38.9451,3.71083 -50.66667,1.11778 z"
       id="path1" />
  </g>
</svg>
