<?xml version="1.0" encoding="UTF-8" standalone="no"?>
<!-- Created with Inkscape (http://www.inkscape.org/) -->

<svg
   version="1.1"
   id="svg1"
   width="1333.3333"
   height="1333.3333"
   viewBox="0 0 1333.3333 1333.3333"
   sodipodi:docname="Punch6.svg"
   inkscape:version="1.4.2 (ebf0e940d0, 2025-05-08)"
   xmlns:inkscape="http://www.inkscape.org/namespaces/inkscape"
   xmlns:sodipodi="http://sodipodi.sourceforge.net/DTD/sodipodi-0.dtd"
   xmlns="http://www.w3.org/2000/svg"
   xmlns:svg="http://www.w3.org/2000/svg">
  <defs
     id="defs1" />
  <sodipodi:namedview
     id="namedview1"
     pagecolor="#505050"
     bordercolor="#eeeeee"
     borderopacity="1"
     inkscape:showpageshadow="0"
     inkscape:pageopacity="0"
     inkscape:pagecheckerboard="0"
     inkscape:deskcolor="#505050"
     showgrid="false"
     inkscape:zoom="0.59400004"
     inkscape:cx="665.82488"
     inkscape:cy="666.66663"
     inkscape:window-width="1920"
     inkscape:window-height="995"
     inkscape:window-x="0"
     inkscape:window-y="0"
     inkscape:window-maximized="1"
     inkscape:current-layer="g1" />
  <g
     inkscape:groupmode="layer"
     inkscape:label="Image"
     id="g1">
    <path
       style="fill:#00ff00"
       d="m 650.66663,868.45005 c -55.77522,-5.45558 -99.5768,-25.35361 -135.99999,-61.78159 -28.60336,-28.60712 -47.66704,-63.52999 -56.27143,-103.08396 -2.52065,-11.58732 -2.95119,-17.60314 -2.92836,-40.91787 0.0226,-23.09386 0.47563,-29.35299 2.92081,-40.35473 9.25891,-41.65918 26.31355,-72.57248 56.84664,-103.04038 25.80367,-25.74858 50.27131,-40.78327 84.099,-51.67648 25.41855,-8.18531 35.16605,-9.57282 67.33333,-9.58458 24.99764,-0.009 30.52303,0.38684 43.17081,3.09389 45.54901,9.74901 81.3253,29.56124 113.00049,62.57753 34.77741,36.24986 53.49426,80.74498 55.37911,131.65141 1.34034,36.20009 -4.4884,64.00795 -20.12233,96 -23.93403,48.97673 -64.50291,85.45037 -116.1971,104.46756 -26.50879,9.75201 -65.53337,15.16278 -91.23098,12.6492 z m 53.99999,-24.41757 c 17.50654,-3.96311 27.53428,-7.46763 44,-15.37726 54.63676,-26.24581 92.2731,-76.48799 102.86763,-137.32193 2.60013,-14.92997 1.78365,-51.03109 -1.48509,-65.66431 -7.70219,-34.48053 -23.68174,-64.34993 -47.74384,-89.24403 -28.78988,-29.78535 -64.42672,-48.84753 -104.30536,-55.79302 -17.57628,-3.06118 -45.09039,-3.06118 -62.66667,0 -27.4981,4.78922 -56.59068,17.07512 -79.51059,33.57757 -13.68837,9.85571 -36.02304,32.95501 -45.01651,46.55766 -20.91656,31.63634 -30.80622,64.34894 -30.80622,101.89947 0,21.64696 2.53888,38.25155 8.69532,56.86841 22.11345,66.87035 79.29713,114.87146 150.638,126.44852 16.56293,2.6878 49.13907,1.71496 65.33333,-1.95108 z m -54.48789,-60.72786 c -30.78294,-7.79181 -53.75751,-36.35832 -59.63339,-74.14798 -2.40518,-15.46853 -0.79998,-59.97637 2.75704,-76.44488 5.38185,-24.9172 15.03759,-44.51768 29.59899,-60.08386 19.39474,-20.73304 44.8595,-31.30798 79.43192,-32.98628 l 11,-0.53399 v 16.24881 16.2488 l -11.80213,0.76463 c -21.25293,1.37692 -39.68812,9.55556 -52.42686,23.25881 -9.64155,10.37155 -15.06513,22.5078 -19.14635,42.84347 l -0.89753,4.47218 7.04408,-5.56802 c 9.16557,-7.24497 15.25951,-10.27655 25.52015,-12.69566 17.23635,-4.06373 36.88252,-1.86436 50.88489,5.69652 15.37907,8.30426 29.21828,28.53382 33.49128,48.95612 2.46873,11.79901 2.51534,34.67978 0.0939,46.10252 -5.57078,26.27938 -24.1731,47.75625 -48.37165,55.84632 -11.76302,3.93262 -35.93563,4.9609 -47.54435,2.02249 z m 36.22294,-33.42235 c 13.62421,-6.78923 21.30613,-20.44678 22.58856,-40.15981 2.13323,-32.79108 -13.45059,-55.05583 -38.53538,-55.05583 -11.49211,0 -21.52632,3.6728 -29.70676,10.87351 -9.57872,8.43153 -11.4148,13.17017 -11.4148,29.4599 0,22.79551 5.72198,38.97376 17.54351,49.60234 7.78705,7.00122 11.78655,8.44449 23.86137,8.61066 6.89001,0.0948 10.20295,-0.60967 15.6635,-3.33077 z"
       id="path1" />
  </g>
</svg>
