<?xml version="1.0" encoding="UTF-8" standalone="no"?>
<!-- Created with Inkscape (http://www.inkscape.org/) -->

<svg
   version="1.1"
   id="svg1"
   width="1333.3333"
   height="1333.3333"
   viewBox="0 0 1333.3333 1333.3333"
   sodipodi:docname="Rev_Diag_TR_BL.svg"
   inkscape:version="1.4.2 (ebf0e940d0, 2025-05-08)"
   xmlns:inkscape="http://www.inkscape.org/namespaces/inkscape"
   xmlns:sodipodi="http://sodipodi.sourceforge.net/DTD/sodipodi-0.dtd"
   xmlns="http://www.w3.org/2000/svg"
   xmlns:svg="http://www.w3.org/2000/svg">
  <defs
     id="defs1" />
  <sodipodi:namedview
     id="namedview1"
     pagecolor="#505050"
     bordercolor="#eeeeee"
     borderopacity="1"
     inkscape:showpageshadow="0"
     inkscape:pageopacity="0"
     inkscape:pagecheckerboard="0"
     inkscape:deskcolor="#505050"
     showgrid="false"
     inkscape:zoom="0.59400004"
     inkscape:cx="666.66663"
     inkscape:cy="666.66663"
     inkscape:window-width="1920"
     inkscape:window-height="995"
     inkscape:window-x="0"
     inkscape:window-y="0"
     inkscape:window-maximized="1"
     inkscape:current-layer="g1" />
  <g
     inkscape:groupmode="layer"
     inkscape:label="Image"
     id="g1">
    <path
       style="fill:#ffff00;stroke:none"
       d="m 174.66666,559.99997 29.33333,-32 c -18.21539,5.11271 -37.39727,33.39729 -50.66667,46.66666 L 42.666664,685.33329 C 30.472977,697.54667 4.6391154,716.80546 0,733.33329 l 47.999997,-46.66667 90.666663,-90.66666 -17.33333,21.33334 c 22.02764,-10.27238 40.26513,-38.8055 57.33847,-56.00106 42.06944,-42.37068 84.44122,-84.44531 126.66151,-126.6656 90.34892,-90.34895 178.69584,-183.35155 270.66665,-271.97533 36.40043,-35.07576 72.18441,-70.875723 108,-106.691313 C 701.88065,38.119301 724.10713,20.6687 738.66662,0 c -17.39827,4.8833819 -35.3457,31.345701 -48,43.999997 C 654.0271,80.639562 616.66801,116.66528 579.99996,153.33332 444.67348,288.65981 310.01443,424.65362 174.66666,559.99997 M 706.66662,37.333331 c 11.1307,12.055012 44.14217,14.514159 60,18.497964 33.37484,8.38444 66.84529,16.854085 99.99999,26.06787 19.56999,5.438558 41.10409,13.781737 61.33333,15.434162 -22.46728,31.894613 -57.72175,59.055093 -85.33332,86.666663 -7.30827,7.30827 -21.41805,28.15869 -31.48666,30.32405 -5.39591,1.1604 -13.90934,-2.83764 -19.18001,-4.15535 -15.14787,-3.78695 -30.23307,-7.87997 -45.33333,-11.85596 -52.06022,-13.70776 -106.68192,-33.7937 -159.99999,-40.97941 11.58577,12.18116 42.6571,13.73609 58.66666,18.27987 54.35897,15.42806 109.60075,27.73038 163.99999,43.05346 l -53.33333,53.33333 -23.99999,22.01131 -17.33334,-2.84668 -42.66666,-11.31892 -113.33333,-29.677 -51.99999,-12.83537 c 9.75655,10.25032 35.72566,12.41276 49.33333,15.8313 39.23001,9.85538 78.21549,20.70442 117.33332,30.98966 13.76465,3.61914 27.74357,6.73006 41.33333,10.96712 3.50139,1.09172 11.19287,1.91756 13.25309,5.33643 2.67147,4.43326 -11.77799,15.40039 -14.58642,18.20882 -17.3317,17.3317 -34.76733,34.56502 -51.99487,51.99999 -13.46891,13.63111 -26.43314,27.7614 -40.00512,41.33333 -5.16553,5.16553 -11.51595,14.36613 -18.66667,16.67798 -5.16707,1.67058 -12.25875,-1.65177 -17.33333,-2.77881 -15.23633,-3.38395 -30.21871,-7.83976 -45.33333,-11.72631 -55.41821,-14.25033 -110.63269,-31.94043 -166.66666,-43.50619 11.44511,13.01433 46.0625,15.47998 62.66666,19.84571 53.98348,14.19384 108.01932,31.51131 162.66666,42.82096 -23.84241,33.84676 -61.36295,62.69628 -90.66666,91.99999 -8.63387,8.63387 -22.62838,29.28564 -34.66667,32.28288 -5.40087,1.34464 -13.4482,-2.28459 -18.66666,-3.71802 -12.38257,-3.40137 -24.88033,-6.60107 -37.33333,-9.72949 -40.5651,-10.19076 -80.77118,-21.80998 -121.33333,-32 -15.7492,-3.95654 -35.82505,-13.2417 -51.99999,-12.1687 l 23.99999,8.49894 45.33333,11.99902 157.33333,42.1687 -81.33333,81.33333 c -11.79114,11.79114 -24.82007,30.25447 -40,37.33333 l 2.66667,-5.33333 -1.33333,-1.33333 c -15.2331,9.31795 -46.13703,-5.57675 -62.66667,-9.82715 C 231.24992,650.24687 174.78386,632.74752 117.33333,621.3333 l 16,7.61319 39.99999,10.55453 116,30.3302 50.66666,12.8354 c -24.88247,35.32357 -64.10783,65.39193 -94.66666,96 -8.36041,8.37386 -21.91132,30.7098 -33.89917,32.97428 -4.993,0.9432 -11.88295,-2.30485 -16.7675,-3.36116 -15.66756,-3.38802 -31.19138,-7.89193 -46.66666,-12.07813 C 98.768813,782.88423 49.093538,771.16174 0,757.33329 c 1.6751311,5.72656 8.0858442,5.84863 13.333333,7.16048 12.496965,3.12418 24.898888,6.62337 37.333331,9.98144 52.355836,14.13941 105.149246,26.72632 157.333326,41.52474 -23.49846,33.35872 -60.45268,61.78597 -89.33333,90.66666 -8.51242,8.51237 -22.715606,29.42977 -34.666665,32.12858 -7.017786,1.5848 -17.185765,-3.49178 -23.999999,-5.15332 C 40.18089,928.80951 20.228743,921.39057 0,918.66661 l 21.333332,8.56584 59.999996,15.43416 C 65.398311,965.28819 40.906657,984.42662 21.333332,1003.9999 12.322794,1013.0105 0.16115797,1021.0209 0,1034.6666 c 23.667611,-16.6718 45.731804,-42.60384 65.251023,-63.99902 7.543325,-8.26822 11.814829,-17.23803 21.415638,-24.00097 1.514028,17.36344 8.558248,35.11279 12.83436,52 9.362689,36.97529 19.495499,73.73189 28.992799,110.66669 3.54819,13.7988 7.12545,27.6061 10.94033,41.3333 1.42568,5.13 5.11581,13.3743 3.73148,18.6667 -2.96543,11.3368 -22.85437,26.3527 -31.16564,34.6666 -26.652644,26.6612 -53.656345,53.0148 -79.980445,80 C 18.807287,1297.544 0.25007689,1310.8547 0,1330.6666 l 29.333332,-28 c 2.413953,8.5699 3.145761,25.4188 10.666666,30.6667 l -6.011317,-33.3334 22.011316,-24 59.999993,-58.6666 c 1.96987,29.0356 15.07129,59.768 22.17284,88 1.84852,7.3487 3.16199,25.6603 11.16049,28 -8.79294,-27.4988 -15.48783,-55.9957 -22.49794,-84 -2.36796,-9.4597 -9.40909,-23.5865 -7.80967,-33.3334 2.0212,-12.3173 23.41424,-25.4827 31.38992,-34.6666 20.88663,-24.0507 42.93033,-46.6793 65.58436,-69.3334 9.93337,-9.9333 19.41469,-22.385 30.66666,-30.6666 l 40.94649,156 12.88582,49.3333 4.47531,19.6193 -22.30762,27.0474 c 11.75842,-3.3004 17.11808,-20.1452 28.56583,-22.3077 7.91364,-1.4948 21.04934,4.4214 28.7675,6.5093 22.56034,6.1029 47.18847,15.7828 70.66666,15.7984 v -1.3334 l -97.33333,-25.3333 c 29.55904,-29.5591 58.54155,-59.7311 88.00102,-89.3333 9.68872,-9.7357 23.08719,-29.4779 35.99898,-34.3837 5.02246,-1.9083 12.35282,1.7054 17.33333,2.8487 14.75004,3.3859 29.34306,7.2723 44,11.0411 39.12707,10.0611 78.16886,20.4091 117.33332,30.3261 16.70158,4.2291 33.58219,10.5339 50.66667,12.8344 -11.34522,-12.2874 -43.94706,-14.2916 -60,-18.5123 -38.20642,-10.0454 -76.36885,-20.2891 -114.66666,-29.9866 -16.70166,-4.2292 -33.58215,-10.5338 -50.66666,-12.8344 22.44144,-31.8583 57.70548,-60.3722 85.33332,-88 8.24121,-8.2412 21.5164,-27.9184 32.7675,-31.2521 4.74031,-1.4045 10.7441,4.8067 15.2325,6.1225 14.5308,4.2596 29.37813,7.6393 44,11.5946 54.23571,14.6714 108.98689,31.5134 163.99999,42.8683 l -1.33333,-4 6.66666,1.3334 -50.66666,52 -94.66666,98.6666 -64,65.3334 c 17.34778,-2.6769 37.20247,-31.8497 49.33333,-44 42.37919,-42.4473 84.22355,-85.5569 126.66666,-128 71.81958,-71.8196 141.27913,-146.6125 213.33332,-218.66669 72.83546,-72.83545 148.59306,-143.31347 218.78596,-218.66665 33.9443,-36.43978 70.0038,-71.4565 105.214,-106.66666 12.0379,-12.03785 36.68,-28.7548 41.3334,-45.33333 l -42.6667,41.33333 -77.3333,77.33332 -30.6667,32 -13.3333,11.74894 -16,-4.58325 -45.3334,-11.93318 -96,-25.13168 -69.33329,-18.10082 57.33333,-58.66667 23.99996,-21.63061 18.6667,3.66349 42.6667,10.80249 113.3333,28.99593 52,12.83537 c -11.6047,-12.19206 -43.8792,-13.70451 -60,-18.27987 -54.2874,-15.40779 -110.2438,-25.86425 -164,-43.05346 31.3346,-31.33464 62.0334,-63.35457 93.3333,-94.66666 8.4272,-8.43042 24.0017,-31.16935 36,-33.17692 12.2604,-2.05135 30.6241,7.23209 42.6667,9.94539 43.8963,9.8903 89.8571,30.23787 134.6667,33.89819 -7.0609,-9.40055 -34.0407,-11.66097 -45.3334,-14.49796 -42.7537,-10.74064 -87.0398,-27.62736 -130.6666,-33.50203 29.5521,-29.55217 58.429,-59.76237 88,-89.33333 9.0325,-9.03255 23.4679,-30.3527 36,-33.63062 14.7771,-3.86515 36.8064,9.72282 52,10.96395 -7.1731,-10.28003 -37.328,-12.61832 -49.3334,-16 14.491,-14.49096 43.6833,-34.52929 49.3334,-54.66666 l -53.3334,52 c -16.62,-51.97632 -28.2129,-105.9816 -42.465,-158.66666 -4.6284,-17.10986 -6.6422,-49.78035 -18.8683,-62.66666 v -1.33334 l 44,-43.999994 L 1321.3333,0 c -13.7282,0.52726234 -19.9998,9.3330886 -29.3334,18.666666 l -44,43.999997 -11.501,-45.333331 L 1229.3333,0 l 11.1656,45.333331 4,18.666665 -29.2665,31.999998 -96.5658,97.333326 C 1107.704,145.51537 1093.9646,98.120599 1081.4876,50.666664 1078.3111,38.585772 1075.5919,7.1582027 1065.3333,0 c 1.3545,16.581379 7.9349,33.285805 12.1543,49.33333 7.8243,29.758625 15.0577,59.73266 23.4589,89.33333 3.7622,13.25569 7.128,26.6547 10.5596,40 1.1942,4.64404 4.5733,11.18001 3.4907,15.99999 -2.7342,12.17343 -24.955,27.29151 -33.6635,36 -29.5739,29.57389 -58.4317,59.76497 -88.00003,89.33333 l -41.33333,-157.33332 -11.6132,-44 -3.7325,-19.999999 L 962.66661,69.333329 1030.6666,0 c -10.5098,1.6217447 -18.1555,12.822183 -25.3333,19.999999 -17.57506,17.575031 -34.42621,35.759519 -52.00002,53.33333 -5.87826,5.878255 -14.26034,18.230223 -22.66667,20.128579 -5.58244,1.260661 -13.21395,-2.351725 -18.66667,-3.562744 -15.66389,-3.478922 -31.20589,-7.703368 -46.66666,-11.999999 -31.39453,-8.724609 -63.15454,-16.126057 -94.66666,-24.411538 -20.99894,-5.52124 -42.45906,-13.253661 -64,-16.154296 M 1314.6666,1.3333333 c -10.7745,15.2955717 -26.7761,28.1093737 -40,41.3333307 -22.4471,22.447102 -44.3395,45.409258 -66.6615,67.999996 -78.02,78.9589 -158.8885,156.10676 -234.55252,237.33332 -39.18213,42.06266 -80.79264,82.00667 -121.45263,122.66666 -15.75204,15.75203 -34.50391,43.9305 -54.66667,53.33333 L 870.54731,449.33331 1093.3333,223.99999 1219.8806,95.999994 1279.9999,34.666665 1314.6666,1.3333333 M 931.99994,101.33333 c 19.58415,51.90966 30.28874,110.16169 43.8313,163.99999 3.47705,13.82308 7.34456,27.55411 10.98966,41.33333 1.17644,4.4471 4.92448,11.47876 3.45785,16 -2.13281,6.5747 -10.85759,12.57877 -15.61214,17.33333 l -38.66667,38.66666 c -32.45068,32.45288 -63.55143,66.2181 -95.99999,98.66666 -14.07105,14.07105 -27.72689,31.20353 -44,42.66667 -10.81942,-52.27799 -26.41772,-104.50984 -40.56486,-155.99999 -4.12736,-15.02214 -7.80639,-30.21729 -11.60384,-45.33333 -1.35416,-5.39022 -5.21028,-13.09945 -3.95988,-18.66667 1.70207,-7.57829 12.19149,-14.72957 17.46192,-20 16.21289,-16.21289 35.20597,-43.63606 55.99999,-53.33333 l 30.82097,117.33333 26.51236,97.33333 h 1.33334 c -7.21607,-53.54313 -28.37207,-107.54744 -41.50204,-159.99999 -3.4624,-13.83203 -7.44132,-27.52604 -10.99178,-41.33333 -1.31274,-5.10507 -4.32617,-12.07943 -2.65022,-17.33334 3.55053,-11.13045 20.33349,-23.85302 28.47737,-31.99999 23.37858,-23.38762 52.96883,-46.31657 72,-73.33333 l -2.66667,1.33333 17.33333,-17.33333 m 286.66666,5.33333 c 11.1146,53.84757 28.6276,106.66341 41.965,159.99999 3.6818,14.72347 8.0819,29.2557 11.677,44 1.3332,5.4681 5.1,12.9978 3.8199,18.66666 -2.6987,11.95101 -23.6161,26.15422 -32.1286,34.66667 -29.2693,29.26936 -56.7657,66.78605 -90.6666,90.66666 -19.2159,-50.93335 -28.6463,-107.42545 -42.8684,-159.99999 -3.9618,-14.64575 -7.7858,-29.32617 -11.644,-44 -1.3897,-5.28532 -5.6472,-13.20947 -4.4043,-18.66666 2.6639,-11.69646 21.3793,-25.12932 29.5833,-33.33334 l 62.6667,-62.66666 c 9.5657,-9.56575 19.6534,-23.57552 32,-29.33333 m -126.6667,127.99999 c 11.3241,54.71647 29.2178,108.46085 42.8354,162.66666 3.5863,14.27539 7.672,28.41211 11.3375,42.66666 1.3049,5.07479 4.836,12.05762 3.4577,17.33334 -3.1897,12.20987 -24.6736,28.37296 -33.6306,37.33333 -29.7186,29.73006 -59.0015,67.81591 -93.3333,91.99999 -18.62,-49.35424 -26.8308,-103.91349 -41.33333,-154.66666 -4.16731,-14.58406 -7.47249,-29.41072 -11.6132,-43.99999 -1.69303,-5.96517 -5.91984,-15.11385 -4.51538,-21.33334 2.62452,-11.62231 21.51099,-23.2316 29.21598,-31.99999 21.22383,-24.15283 42.74273,-47.83016 65.57923,-70.66667 9.5658,-9.56575 19.6534,-23.57552 32,-29.33333 m -355.99994,68 c 19.42667,50.75016 28.26822,107.51895 42.465,159.99999 3.71631,13.73812 7.09505,27.56917 10.71403,41.33333 1.44987,5.51432 5.15039,12.93465 3.29728,18.66666 -4.44539,13.75017 -26.35596,28.54631 -36.47632,38.66667 -29.69523,29.69523 -57.59692,67.76586 -91.99999,91.99999 -7.62219,-17.71582 -10.70028,-38.6433 -15.50618,-57.33333 -8.91777,-34.68066 -17.90015,-69.36596 -27.00619,-103.99999 -3.7419,-14.2321 -7.74918,-28.38777 -11.31889,-42.66666 -1.27909,-5.11638 -4.34505,-12.07528 -2.6451,-17.33334 4.30807,-13.32535 25.34473,-27.53499 35.14303,-37.33333 29.72684,-29.72688 58.99853,-67.8138 93.33333,-91.99999 m 225.33331,66.66666 21.535,80 37.13163,139.99999 -58.66663,57.33333 -25.33333,22.66666 c -7.21118,-53.55273 -27.9908,-107.5607 -41.16463,-159.99999 -3.35294,-13.34651 -6.6914,-26.76212 -10.44856,-40 -1.51465,-5.33666 -5.10531,-13.10327 -3.46192,-18.66666 2.64445,-8.95215 15.31063,-17.56885 21.74178,-24 18.72705,-18.72705 37.02157,-42.08602 58.66666,-57.33333 m -357.33331,66.66666 c 11.04265,53.35799 27.94841,105.80184 41.16459,158.66666 3.44942,13.79769 6.9279,27.65877 10.83541,41.33333 1.60246,5.60791 5.44934,14.15161 4.12862,20 -2.69885,11.95101 -23.61621,26.15425 -32.12862,34.66666 -29.7268,29.72681 -58.99849,67.81397 -93.33333,92 -13.71736,-52.88395 -27.89868,-105.67142 -41.16458,-158.66666 -3.67994,-14.70076 -7.79122,-29.29663 -11.46709,-44 -1.25195,-5.00781 -4.53328,-12.15608 -3.46398,-17.33333 2.39941,-11.61735 22.68098,-24.93676 30.70983,-33.33333 20.63346,-21.57845 41.57792,-42.8588 62.71916,-64 9.56571,-9.56575 19.65335,-23.5756 31.99999,-29.33333 m 273.33332,17.33334 c 14.68229,52.12434 27.35473,104.89224 40.83952,157.33332 3.77799,14.69246 7.97794,29.28174 11.65844,44 1.24317,4.97131 4.64828,12.21659 3.59774,17.33333 -2.18848,10.65942 -20.58602,23.15698 -28.0957,30.66666 l -61.33333,61.33333 c -9.19271,9.19271 -18.79598,22.46428 -30.66667,28 -10.31038,-49.9519 -24.65144,-100.28564 -38.66666,-149.33332 -4.29395,-15.02702 -7.70557,-30.30453 -12,-45.33333 -1.85303,-6.48503 -5.99284,-15.88111 -4.78906,-22.66667 2.06966,-11.66634 21.99747,-25.20841 30.12239,-33.33333 28.45776,-28.45776 56.46256,-64.84513 89.33333,-87.99999 m -81.33333,73.33332 c -9.28426,13.18002 -28.0769,35.85832 -42.66666,42.66667 7.26351,-14.00138 28.3597,-35.99471 42.66666,-42.66667 m -621.33329,33.33334 c -8.44923,11.99454 -23.2512,28.69929 -36,35.99999 l 36,-35.99999 m 299.99998,5.33333 c 8.45996,19.66292 11.96146,43.21443 17.16459,63.99999 8.25439,32.97494 17.75752,65.63851 25.81071,98.66667 3.26558,13.39306 7.1796,26.62857 10.52677,39.99999 1.26225,5.04248 4.43864,12.14616 2.90637,17.33334 -4.56929,15.46842 -28.66626,29.33805 -40.40844,38.95784 -28.58822,23.4209 -49.7703,57.08121 -80,78.37548 -14.68034,-52.11792 -27.97192,-104.82014 -41.16459,-157.33332 -3.46749,-13.80225 -7.06665,-27.56934 -10.68111,-41.33333 -1.43465,-5.4633 -4.92753,-12.9834 -3.23043,-18.66667 3.68506,-12.34074 23.42538,-25.68257 32.40947,-34.66666 27.61157,-27.61157 54.77197,-62.86621 86.66666,-85.33333 m 278.66665,5.33333 -37.33333,40 -50.66667,49.33333 20,-24 45.33333,-45.33333 22.66667,-20 m 1.33333,6.66667 c 14.55542,51.67407 27.45443,103.95601 40.63273,155.99999 3.72135,14.69645 7.85506,29.29508 11.53597,44 1.3418,5.36035 4.94808,13.14876 3.74178,18.66666 -2.55046,11.66642 -22.3326,25.08879 -30.57715,33.33333 l -62.66666,62.66667 c -9.56559,9.56559 -19.6534,23.57568 -32,29.33333 -10.83435,-52.49032 -27.49642,-104.00781 -40.49792,-155.99999 -4.26253,-17.04558 -17.34969,-43.90112 -14.84672,-61.33333 1.64604,-11.46403 22.09416,-25.41618 30.01131,-33.33333 21.56376,-21.56381 42.42993,-43.76327 64,-65.33333 9.19287,-9.19287 18.79589,-22.46411 30.66666,-28 m -91.99999,82.66666 1.33333,1.33333 c -9.34469,13.26587 -24.06746,27.98861 -37.33333,37.33333 l -1.33333,-1.33333 c 9.34472,-13.26595 24.06742,-27.9886 37.33333,-37.33333 m 503.99997,77.33333 c -25.2743,35.87988 -63.6589,66.32552 -94.6667,97.33333 l -185.33329,185.33328 -69.33333,69.3334 c -6.49617,6.4961 -17.34204,23.7687 -26.66666,25.357 -5.33708,0.9091 -13.41537,-3.2084 -18.66667,-4.5217 -15.59773,-3.9004 -31.17667,-7.9647 -46.66666,-12.2695 -32.72518,-9.0946 -65.83268,-16.8596 -98.66666,-25.5452 -20.88827,-5.5257 -42.61531,-13.4742 -64,-16.354 6.19967,-13.2946 21.69055,-24.3572 32,-34.6666 20.93319,-20.9332 40.5181,-43.18346 61.33333,-64.00003 7.93282,-7.93334 20.82401,-26.93814 32,-29.46191 5.65584,-1.27726 13.26009,2.46436 18.66666,3.92692 14.17587,3.83464 28.42342,7.45882 42.66667,11.03711 54.26692,13.63322 113.00927,24.09098 165.33332,43.83122 -11.67985,-12.68457 -43.61979,-14.40446 -60,-19.05355 -54.40763,-15.44198 -109.56005,-28.27856 -163.99999,-43.61312 5.75782,-12.34668 19.76766,-22.43424 29.33334,-31.99999 l 62.66666,-62.66667 c 8.125,-8.125 20.67659,-26.67244 32,-29.63069 5.58927,-1.46021 13.26595,2.43082 18.66666,3.79834 14.68482,3.71842 29.31055,7.64404 44,11.33447 54.75927,13.75692 111.93155,25.60604 165.33332,43.83121 -11.5196,-12.51057 -42.547,-14.06038 -58.66666,-18.66666 -54.74446,-15.64331 -110.93782,-32.49731 -166.66666,-44 l 28,-28 -1.33333,2.66667 c 25.98071,-16.25114 47.64021,-46.30688 69.33333,-68 7.05997,-7.05997 15.92049,-20.03336 25.33333,-23.73148 5.17008,-2.03121 12.29598,1.4257 17.33333,2.75207 13.73112,3.61556 27.55762,7.02067 41.33333,10.48153 55.60323,13.96891 115.71943,24.93766 169.33333,45.16455 m -821.33329,-50.66667 -19.94753,22.66667 -54.71913,57.33333 76,-73.33333 c 12.00215,52.35384 27.64973,103.93155 40.83434,155.99999 3.49109,13.78695 6.89576,27.65202 10.77881,41.33333 1.48222,5.22233 5.37724,13.24056 4.41463,18.66667 -2.12072,11.95426 -24.9296,27.56852 -33.36112,36 -30.50215,30.50211 -59.3716,69.80432 -94.66666,94.66662 -18.88019,-50.04545 -27.56175,-105.67826 -41.53497,-157.33329 -4.19995,-15.52604 -8.39502,-31.06152 -12.29631,-46.66666 -1.46144,-5.84579 -5.31443,-13.96598 -4.28702,-20 1.97705,-11.61149 22.04762,-25.26269 30.1183,-33.33333 l 65.33333,-65.33333 c 9.93785,-9.93783 20.51215,-24.68782 33.33333,-30.66667 m 5.33334,2.66667 c 9.32116,13.07992 11.25773,37.70996 15.16459,53.33333 9.47306,37.88216 20.19966,75.44873 29.67081,113.33333 3.11698,12.46793 6.36381,24.91642 9.67798,37.33333 1.47835,5.53874 4.264,9.98942 0.15328,14.66666 l -40.56173,-155.99999 -11.60701,-43.99999 -2.49792,-18.66667 m 273.33331,9.33333 1.33334,1.33334 -58.66667,59.99999 -30.66666,28 28,-30.66666 59.99999,-58.66667 m 2.66667,6.66667 c 10.82357,52.43912 27.15901,104.14168 40.49381,155.99999 3.65418,14.21094 7.20435,28.44466 10.80558,42.66666 1.51388,5.97868 5.26392,13.75684 4.15637,20 -2.13533,12.03662 -23.05574,26.2666 -31.45576,34.66667 -29.30371,29.30371 -58.15324,66.82449 -92,90.66669 -7.90079,-53.69843 -28.50077,-107.36518 -41.83231,-160.00002 -3.49988,-13.81803 -7.50301,-27.51514 -11.00203,-41.33333 -1.26868,-5.01017 -4.46346,-12.15593 -3.29428,-17.33333 2.69886,-11.95109 23.61617,-26.15422 32.12862,-34.66667 29.30371,-29.30371 58.1532,-66.82446 92,-90.66666 m -92,84 c -5.83247,12.50724 -24.82608,31.50081 -37.33333,37.33333 5.83248,-12.50716 24.82617,-31.50082 37.33333,-37.33333 m -321.33331,29.33333 c 12.09051,52.73917 27.41815,104.99527 41.17901,157.33332 l 12.30864,46.66666 c 1.36448,5.1897 5.62367,13.4434 5.04836,18.6667 -1.14502,10.3956 -22.01937,24.8167 -29.20268,32 l -63.99999,64 c -9.56567,9.5656 -19.6534,23.5756 -32,29.3333 -14.82076,-52.6157 -27.26145,-105.9016 -41.53497,-158.6667 -4.07884,-15.07825 -8.174044,-30.18062 -11.967084,-45.33329 -1.326009,-5.2972 -5.043416,-13.22868 -3.926951,-18.66667 2.34436,-11.41854 22.686585,-25.25708 30.762335,-33.33333 21.1061,-21.10742 41.54405,-42.87744 62.66667,-64 9.19272,-9.1927 18.79597,-22.46435 30.66666,-27.99999 m 283.99998,9.33333 -2.66666,2.66667 2.66666,-2.66667 m -5.33333,5.33333 -74.66666,78.66666 53.33333,-51.99999 24,-21.33333 c 9.72387,47.11132 24.48946,93.34325 36.16874,139.99999 4.88785,19.5262 7.15425,49.50669 19.83125,65.33329 -12.19751,-53.20602 -27.6062,-105.86975 -41.48762,-158.66662 -3.2686,-12.4318 -6.56014,-24.86263 -9.67697,-37.33333 -1.26757,-5.07162 -4.29956,-11.15804 0.49793,-14.66667 7.26566,53.95524 28.26261,108.58154 41.82715,161.33333 3.54305,13.77879 6.9294,27.62609 10.73868,41.33329 1.48694,5.3506 5.19426,13.0746 3.73153,18.6667 -2.21155,8.4549 -14.30937,16.6787 -20.29736,22.6667 l -52,52 c -14.0048,14.0048 -30.00818,36.9431 -48,45.3333 -2.41276,-17.9172 -8.89143,-35.8521 -13.48763,-53.3333 l -29.02473,-110.6667 c -3.85759,-14.67187 -7.97132,-29.28255 -11.65638,-43.99999 -1.19348,-4.7666 -5.32747,-12.53125 -3.94136,-17.33333 3.27433,-11.34375 21.92761,-23.53662 29.99076,-31.98047 26.30627,-27.54818 52.93974,-62.05615 84.11934,-84.01953 m -80,73.33333 c -5.7576,12.34668 -19.76761,22.43424 -29.33333,32 -19.79772,19.79769 -38.87109,40.20442 -58.66666,60 -66.892,66.89199 -133.13575,134.46909 -199.99999,201.33329 l -67.999993,68 c -8.076925,8.0769 -18.306167,23.3063 -29.333332,26.6667 18.341816,-26.0383 46.798317,-48.1317 69.333329,-70.6667 46.666136,-46.6662 93.445876,-93.2212 139.998976,-140 40.54052,-40.7369 80.66642,-81.9987 121.33434,-122.66663 17.77706,-17.77701 34.06799,-40.15657 54.66666,-54.66666 m -37.33333,45.33333 c 19.3973,51.41546 29.82349,109.31636 43.16459,162.66666 3.68059,14.7184 7.79883,29.3282 11.65637,44 1.37871,5.2437 5.04973,13.2682 3.94137,18.6667 -2.19096,10.6713 -21.73385,25.6258 -29.42899,33.3333 l -64,64 c -9.56567,9.5657 -19.6534,23.5757 -32,29.3333 -7.45677,-55.3297 -29.45139,-111.1727 -43.16565,-165.3333 -3.61136,-14.262 -7.74759,-28.3976 -11.33229,-42.6667 -1.24312,-4.9483 -4.81232,-12.2706 -4.08539,-17.3333 1.58024,-11.0057 22.90979,-25.6598 30.58333,-33.3333 30.14978,-30.1498 59.84389,-68.80366 94.66666,-93.33336 m -305.333311,10.66667 -1.333333,1.33333 1.333333,-1.33333 m 694.666621,147.99999 -1.33333,1.3333 1.33333,-1.3333 M 0,1197.3333 l 12.767488,58.6666 9.899177,33.3334 h 1.333334 L 8.5658431,1226.6666 0,1197.3333 m 21.333332,104 -19.9999987,20 z"
       id="path1" />
  </g>
</svg>
