<?xml version="1.0" encoding="UTF-8" standalone="no"?>
<!-- Created with Inkscape (http://www.inkscape.org/) -->

<svg
   version="1.1"
   id="svg1"
   width="1333.3333"
   height="1333.3333"
   viewBox="0 0 1333.3333 1333.3333"
   sodipodi:docname="Rev_Horizontal.svg"
   inkscape:version="1.4.2 (ebf0e940d0, 2025-05-08)"
   xmlns:inkscape="http://www.inkscape.org/namespaces/inkscape"
   xmlns:sodipodi="http://sodipodi.sourceforge.net/DTD/sodipodi-0.dtd"
   xmlns="http://www.w3.org/2000/svg"
   xmlns:svg="http://www.w3.org/2000/svg">
  <defs
     id="defs1" />
  <sodipodi:namedview
     id="namedview1"
     pagecolor="#505050"
     bordercolor="#eeeeee"
     borderopacity="1"
     inkscape:showpageshadow="0"
     inkscape:pageopacity="0"
     inkscape:pagecheckerboard="0"
     inkscape:deskcolor="#505050"
     showgrid="false"
     inkscape:zoom="0.59400004"
     inkscape:cx="666.66663"
     inkscape:cy="666.66663"
     inkscape:window-width="1920"
     inkscape:window-height="995"
     inkscape:window-x="0"
     inkscape:window-y="0"
     inkscape:window-maximized="1"
     inkscape:current-layer="g1" />
  <g
     inkscape:groupmode="layer"
     inkscape:label="Image"
     id="g1">
    <path
       style="fill:#ffff00;stroke:none"
       d="m 0,253.33332 v 2.66666 l 674.66663,2.66667 658.66667,-2.66667 v -2.66666 H 0 m 171.99999,5.33333 c 2.12134,20.59953 23.32353,44.7806 33.53395,62.66666 27.83551,48.76074 54.23167,99.81925 85.13271,146.66666 H 167.99999 c -12.07289,0 -37.24771,4.80534 -47.71604,-1.37036 -5.04286,-2.97502 -7.77636,-11.10612 -10.68416,-15.96297 -7.9453,-13.27083 -15.735365,-26.62313 -23.498975,-40 C 58.071698,362.3718 24.950044,314.58274 1.3333333,263.99998 H 0 c 1.0591928,20.37403 22.63215,45.20329 32.767487,62.66667 27.305385,47.04776 53.503138,94.94579 81.899173,141.33332 H 0 v 4 H 113.33333 C 85.58755,519.04733 57.344306,565.88066 30.292179,613.3333 21.008895,629.61723 1.0244221,651.7253 0,670.66663 H 1.3333333 C 24.214944,621.71578 57.288316,576.21098 84.199585,529.3333 c 7.697474,-13.40853 15.591536,-26.73535 23.533945,-40 2.97747,-4.97265 6.0302,-12.93505 11.21297,-15.96297 10.5416,-6.15861 35.59236,-1.37036 47.72016,-1.37036 h 123.99999 c -26.06289,48.96859 -56.24479,96.27075 -84.5288,143.99999 -7.61624,12.85238 -14.98739,25.85384 -22.67078,38.66667 -3.08024,5.13659 -6.14593,12.94755 -11.60598,15.96297 -11.24804,6.21199 -36.42278,1.37036 -49.19443,1.37036 H 0 v 2.66667 h 111.99999 v 1.33333 l -39.999994,1.33333 H 0 v 4 H 107.99999 C 82.315353,724.88602 56.807715,768.55513 30.934154,811.99995 21.298496,828.17931 1.0266337,851.68444 0,870.66661 H 1.3333333 C 25.528387,824.73058 54.349759,781.02876 80.199585,735.99996 87.383153,723.48661 94.7792,711.07759 102.13785,698.66662 c 3.01059,-5.07763 6.11955,-12.92293 11.44238,-15.96297 11.48628,-6.56022 38.58327,-1.37036 51.75309,-1.37036 h 133.33333 c -28.83372,47.1027 -55.85368,95.31103 -84.26646,142.66666 -7.42879,12.38159 -14.87467,24.78955 -22.02571,37.33333 -2.99168,5.24772 -6.26479,13.99544 -11.54631,17.29631 -10.46362,6.53955 -37.87493,1.37036 -50.16151,1.37036 H 0 v 4 h 130.66666 c 12.86414,0 39.19285,-5.04411 50.41975,1.37036 5.35383,3.05883 8.15017,10.88419 11.18108,15.96297 7.65683,12.8304 15.02207,25.83048 22.66666,38.66666 18.6697,31.34863 36.65043,63.11016 54.965,94.66666 10.89734,18.7764 24.17381,37.39 32.7675,57.3333 h 1.33333 c -1.01178,-19.462 -20.77789,-41.9775 -30.29217,-58.6666 -27.95898,-49.04332 -63.36902,-97.49189 -85.70782,-149.33335 h 127.99999 c 12.37958,0 38.32031,-4.95004 49.0494,1.37036 5.47578,3.22566 8.39632,12.04109 11.54935,17.2963 7.96737,13.27913 15.92212,26.54712 23.60185,40 28.2292,49.45035 62.36539,97.77419 86.46606,149.33329 h 1.33333 c -1.08667,-20.0923 -22.30477,-44.0971 -32.19958,-61.3333 -27.97001,-48.722 -54.21374,-99.79003 -85.13375,-146.66665 h 41.33333 v 1.33333 h -3.99999 v 1.33333 h 94.66666 l 38.38272,0.80453 10.76543,15.19547 22.08434,37.33333 88.7675,153.33336 h 1.33333 c -1.08667,-20.0923 -22.30477,-44.0972 -32.19958,-61.3334 -27.79651,-48.41972 -57.78223,-95.93599 -83.80041,-145.33329 h 82.66666 c 8.4565,0 25.52986,-3.25521 32.8138,1.37036 4.19551,2.66431 6.54695,9.19515 9.08537,13.29631 7.34012,11.85897 14.12809,24.03955 21.30037,36 21.20621,35.36344 41.64119,71.19292 62.66259,106.66662 8.823,14.8889 16.91821,36.7511 30.13786,48 -3.71143,-20.8073 -23.04932,-43.0717 -33.53288,-61.3333 -27.61946,-48.11116 -57.73502,-95.02603 -83.80045,-143.99999 l 120,-0.2264 43.99999,-1.10693 18.52775,1.37036 12.40536,17.2963 23.53401,40 85.53287,146.66666 h 1.33334 c -1.11768,-20.668 -23.42652,-46.3898 -33.86214,-64 -27.70142,-46.74625 -56.81234,-93.25146 -82.13786,-141.33332 h 126.66666 c 12.56275,0 38.11333,-4.89681 49.08643,1.37036 5.3768,3.07088 8.3428,10.89803 11.4794,15.96297 7.8879,12.73731 15.2648,25.78011 22.9054,38.66667 28.9878,48.89062 63.1388,97.86682 87.1954,149.33332 h 1.3334 c -1.0459,-19.3407 -21.3484,-42.0872 -30.8662,-58.6667 -27.8756,-48.55717 -61.4483,-95.93453 -85.1338,-146.66662 l 118.6666,-1.33333 47.7161,0.80452 10.6842,15.19548 22.9331,38.66666 89.3333,151.99999 h 1.3333 c -2.1069,-20.4599 -23.4306,-45.0728 -33.8621,-62.6667 -27.9272,-47.10177 -60.3104,-94.3918 -83.4712,-143.99995 h 116 v -4 l -116,1.33333 c 26.2864,-49.38802 56.7314,-96.78971 84.5617,-145.33332 10.2125,-17.81348 31.2492,-41.7631 31.4383,-62.66667 l -778.66663,2.66667 v -1.33333 l 781.33333,-2.66667 v -2.66667 h -125.3334 l 35.4815,-61.33333 55.4445,-94.66666 24.074,-41.33333 10.3334,-9.33333 c -8.7341,1.43367 -10.9562,-5.40641 -14.9384,-12 -6.9453,-11.49992 -13.6836,-23.10856 -20.5328,-34.66667 -30.7067,-51.8177 -60.5996,-104.12059 -91.1955,-155.99999 h -1.3333 c 2.0895,20.29029 22.6142,43.83895 32.7675,61.33333 27.2796,47.00358 56.5694,93.24398 81.8991,141.33333 -43.4711,0 -87.0947,1.33333 -130.6666,1.33333 -12.7278,0 -39.3417,5.08244 -50.3869,-1.37036 -5.1864,-3.02995 -8.2292,-10.98999 -11.2129,-15.96297 -8.2247,-13.70809 -16.2756,-27.50806 -24.2994,-41.33333 -28.0958,-48.40983 -58.4709,-95.92667 -84.7675,-145.33333 h -1.3333 c 1.2737,19.16765 21.6072,42.11865 31.0411,58.66667 27.3362,47.95035 52.9144,100.46134 84.9589,145.33332 h -126.6667 c -11.9978,0 -38.60164,5.02157 -48.8282,-1.37036 -5.01969,-3.13745 -7.71899,-11.09489 -10.75097,-15.96297 -8.18791,-13.1464 -15.65601,-26.71867 -23.62036,-40 -29.07251,-48.4812 -54.94173,-99.52815 -86.13379,-146.66666 h -1.33333 c 2.1145,19.48853 21.98722,41.76017 31.62549,58.66667 27.71248,48.61035 58.0852,95.94042 84.3745,145.33332 H 831.99995 c -11.78206,0 -36.15389,4.65536 -46.38273,-1.37036 -5.07194,-2.98787 -8.01969,-11.07796 -10.9506,-15.96297 -7.95516,-13.25879 -15.58634,-26.7015 -23.47119,-40 -28.88021,-48.70914 -56.30338,-98.37076 -85.86214,-146.66666 h -1.33333 c 2.09696,20.36239 22.67903,43.72901 32.77164,61.33333 27.34294,47.69369 54.53019,95.78532 83.22835,142.66666 -24.54923,5.84457 -54.77644,1.33333 -79.99999,1.33333 -7.64258,0 -22.18408,2.78207 -28.82817,-1.37036 -4.61311,-2.88305 -7.46024,-10.13549 -10.25927,-14.62963 -8.15633,-13.09595 -15.41822,-26.74585 -23.31173,-40 -18.40429,-30.90299 -36.11234,-62.22534 -54.16666,-93.33333 -10.8973,-18.77628 -24.17371,-37.39005 -32.7675,-57.33333 h -1.33333 c 0.8844,17.01139 17.03284,36.28003 25.60083,50.66666 20.77323,34.8807 41.0546,70.12345 61.26542,105.33333 6.887,11.99805 14.0566,23.88387 20.72631,36 1.93994,3.52409 7.03544,9.70556 6.55249,13.90332 -0.47339,4.11466 -7.32914,3.41064 -10.14506,3.42895 -10.66573,0.0694 -21.33402,0.001 -31.99999,0.001 h -98.66667 c -11.38667,0 -30.56648,3.7133 -41.0535,-0.80452 -5.08097,-2.18889 -7.55058,-9.42416 -10.21191,-13.86214 -7.94613,-13.25082 -15.58932,-26.67603 -23.41565,-40 -20.31384,-34.58341 -40.59879,-69.2041 -60.54732,-104 -9.52799,-16.61954 -21.19328,-33.07999 -28.77161,-50.66666 h -1.33333 c 1.06523,20.48958 22.4777,45.07723 32.56173,62.66666 28.07043,48.96289 56.10554,98.05875 84.7716,146.66666 H 346.66665 c -12.67819,0 -39.40375,5.09725 -50.38271,-1.37036 -5.12136,-3.01693 -7.87069,-11.02824 -10.76544,-15.96297 -6.7852,-11.56673 -13.58993,-23.14331 -20.45268,-34.66667 -20.77256,-34.87963 -41.13981,-70.07657 -61.26645,-105.33332 -9.23635,-16.17969 -18.11058,-39.35352 -31.79938,-52 m 962.66661,207.99999 -26.2922,46.66666 -59.3086,101.33333 -30.3992,54.66666 -178.66665,1.33334 c 3.16642,-16.42131 17.73551,-33.58635 26.10083,-48 20.4248,-35.19254 41.44051,-70.04337 61.69962,-105.33333 6.67464,-11.62679 13.72396,-23.03906 20.39909,-34.66666 2.66845,-4.6482 5.28768,-11.69629 10.60603,-13.86214 13.39567,-5.45524 37.396,-0.80453 51.86108,-0.80453 41.1963,0 82.9705,1.90503 124,-1.33333 m 186.6667,0 -31.7325,55.99999 -56.0011,96 -28.2664,50.66666 h -185.3334 c 26.8003,-50.35351 58.0688,-98.52636 86.4672,-147.99999 7.4369,-12.95613 15.2283,-25.70963 22.6666,-38.66666 2.7087,-4.71835 5.8489,-12.91349 11.146,-15.19548 13.3039,-5.73128 38.5541,-0.80452 53.0536,-0.80452 h 128 m -368.00002,1.33333 c -6.81535,15.81592 -17.45777,30.44108 -26.10083,45.33333 -18.85588,32.48926 -37.61222,65.05884 -56.83333,97.33333 -10.4266,17.5074 -29.20646,39.98486 -33.06584,60 l -282.66665,1.33333 29.0669,-52 57.40018,-97.33333 21.26542,-35.99999 10.0391,-13.86214 31.56173,-0.80453 73.33333,-1.33333 c -4.99813,17.31681 -18.41105,33.78621 -27.43417,49.33333 -18.3387,31.59814 -36.7447,63.16365 -55.2469,94.66666 -9.16602,15.60661 -27.35242,36.54207 -29.31893,54.66666 h 1.33334 l 29.86621,-53.33333 56.27164,-95.99999 20.32926,-34.66667 10.99072,-13.86214 43.87549,-0.80452 h 102.66666 v -1.33334 h -2.66667 l 25.33334,-1.33333 m -477.33331,4 c -6.15246,16.80444 -18.45023,32.52051 -27.43416,48 -19.65658,33.86865 -39.43233,67.70637 -59.5,101.33333 -7.13916,11.96289 -14.32963,23.91829 -21.26542,35.99999 -2.66849,4.64836 -5.28747,11.69621 -10.60599,13.86214 -13.71871,5.58692 -38.37598,0.80453 -53.19442,0.80453 H 177.33332 c 23.80508,-50.98641 57.70351,-99.72705 86.66666,-147.99999 7.43852,-12.39779 14.84353,-24.82886 22.10083,-37.33333 2.58334,-4.45117 5.12801,-11.6862 10.179,-13.86214 13.30367,-5.73129 38.55415,-0.80453 53.0535,-0.80453 h 126.66666 m 191.99999,0 c -26.76469,50.28735 -57.73417,99.07023 -86.93416,147.99999 l -22.13167,37.33333 c -2.58927,4.33879 -5.14042,11.67212 -10.0391,13.86214 -13.31124,5.95097 -39.62179,0.80453 -54.22839,0.80453 h -132 c 22.11996,-51.33333 58.3252,-99.77441 86.65226,-147.99999 7.30501,-12.43644 14.5234,-24.92497 21.87655,-37.33333 2.68265,-4.52702 5.19946,-11.67749 10.38476,-13.86214 13.78182,-5.8064 39.44914,-0.80453 54.41976,-0.80453 H 667.99996 M 171.99999,674.66663 v 2.66666 h -58.66666 v -2.66666 h 58.66666 m 130.66666,0 v 1.33333 l -42.66667,1.33333 h -85.33332 v -2.66666 h 127.99999 m 54.66666,0 v 2.66666 h -53.33333 v -2.66666 h 53.33333 m 129.33333,0 v 2.66666 H 359.99998 v -2.66666 h 126.66666 m 62.66666,0 v 1.33333 l -61.33333,1.33333 v -2.66666 h 61.33333 m 780,1.33333 c -5.4458,18.51318 -20.033,36.75537 -29.8622,53.33333 -19.675,33.18367 -39.1306,66.54313 -58.3374,99.99999 -7.166,12.48275 -14.4747,24.8846 -21.6996,37.33333 -2.5588,4.40878 -5.413,11.72209 -10.3806,13.86214 -12.6783,5.46184 -36.5789,0.80453 -50.3869,0.80453 h -118.6667 c 5.3113,-16.77832 18.1451,-32.72103 26.8673,-48 19.6295,-34.38574 39.7618,-68.5249 59.8138,-102.66666 9.4827,-16.14583 25.1315,-35.03304 29.3189,-53.33333 l 173.3334,-1.33333 m -358.66669,1.33333 c -3.19678,16.57902 -17.67904,33.48901 -26.10083,48 -20.66406,35.60473 -41.88558,70.90397 -62.27368,106.66666 -6.87646,12.06201 -14.04004,23.96142 -20.95882,36 -2.47184,4.30094 -5.05387,11.6569 -9.83846,13.86214 -12.76855,5.88501 -38.74275,0.80452 -52.8282,0.80452 H 667.99996 l 28.19954,-49.33333 58.19962,-99.99999 21.80038,-37.33333 9.65332,-13.86214 46.14713,-1.0319 138.66666,-3.77263 m 183.99999,0 c -24.1038,51.62809 -58.4899,99.9038 -86.8662,149.33333 -7.4214,12.92757 -14.9325,25.81306 -22.4815,38.66666 -2.7032,4.60254 -5.7636,12.94849 -10.9362,15.19547 -13.2449,5.7535 -38.59435,0.80453 -53.04943,0.80453 -41.40828,0 -82.63663,1.33333 -123.99999,1.33333 3.78955,-16.52229 17.90495,-33.28808 26.29215,-47.99999 21.15015,-37.09945 43.31201,-73.62972 64.57406,-110.66666 8.10872,-14.12484 22.03491,-30.59546 25.13378,-46.66667 h 181.33333 m -671.99996,4 c -6.98063,19.17676 -20.80449,37.14144 -31.19548,54.66667 -18.41076,31.05126 -36.36523,62.3776 -54.93827,93.33332 -7.17154,11.9528 -14.30354,23.94417 -21.30041,36 -2.58333,4.45117 -5.12797,11.6862 -10.17899,13.86214 -13.30367,5.73128 -38.55418,0.80453 -53.05351,0.80453 H 185.33332 c 26.0398,-48.92562 56.02466,-96.45971 84.53292,-143.99999 7.43686,-12.4017 14.795,-24.86394 22.11934,-37.33334 2.9484,-5.01953 5.72469,-12.9038 10.96089,-15.96297 11.04515,-6.45284 37.65912,-1.37036 50.38684,-1.37036 h 129.33333 m 177.33332,0 c -7.61239,17.66593 -19.57837,34.08382 -29.31893,50.66667 -18.80782,32.01952 -37.44177,64.15673 -56.54732,95.99999 -7.44185,12.4034 -14.79349,24.86141 -22.11934,37.33333 -2.5238,4.29671 -5.04447,11.646 -9.8529,13.86214 -12.16919,5.60873 -36.74797,0.80453 -50.1615,0.80453 H 370.66664 c 7.12753,-19.46794 21.3333,-38.22176 32,-56 18.30628,-30.51123 35.83439,-61.48388 54.13375,-91.99999 7.15157,-11.92595 14.11865,-23.97315 21.09875,-36 2.5588,-4.40886 5.413,-11.72201 10.38066,-13.86214 12.67822,-5.46184 36.57885,-0.80453 50.38683,-0.80453 h 121.33333 m 121.33333,0 -36.7675,64 -79.2325,135.99999 -41.33333,-1.33333 h -77.33333 l 84.53292,-143.99999 22.11934,-37.33334 10.9609,-15.96297 33.0535,-1.37036 h 84 M 0,891.99995 c 0.47255815,19.63932 21.005278,43.18928 30.666665,59.99999 26.885552,46.78052 53.926256,93.52646 81.333325,139.99996 h 1.33334 C 112.0847,1073.2081 92.504013,1050.8459 83.228388,1034.6666 64.568422,1002.1184 45.681195,969.68386 26.681069,937.33328 18.072228,922.6754 10.893635,905.01199 0,891.99995 m 0,202.66665 v 2.6667 l 1331.9999,-1.3334 v -4 z"
       id="path1" />
  </g>
</svg>
