<?xml version="1.0" encoding="UTF-8" standalone="no"?>
<!-- Created with Inkscape (http://www.inkscape.org/) -->

<svg
   version="1.1"
   id="svg1"
   width="1333.3333"
   height="1333.3333"
   viewBox="0 0 1333.3333 1333.3333"
   sodipodi:docname="Rev_Vertical.svg"
   inkscape:version="1.4.2 (ebf0e940d0, 2025-05-08)"
   xmlns:inkscape="http://www.inkscape.org/namespaces/inkscape"
   xmlns:sodipodi="http://sodipodi.sourceforge.net/DTD/sodipodi-0.dtd"
   xmlns="http://www.w3.org/2000/svg"
   xmlns:svg="http://www.w3.org/2000/svg">
  <defs
     id="defs1" />
  <sodipodi:namedview
     id="namedview1"
     pagecolor="#505050"
     bordercolor="#eeeeee"
     borderopacity="1"
     inkscape:showpageshadow="0"
     inkscape:pageopacity="0"
     inkscape:pagecheckerboard="0"
     inkscape:deskcolor="#505050"
     showgrid="false"
     inkscape:zoom="0.59400004"
     inkscape:cx="666.66663"
     inkscape:cy="666.66663"
     inkscape:window-width="1920"
     inkscape:window-height="995"
     inkscape:window-x="0"
     inkscape:window-y="0"
     inkscape:window-maximized="1"
     inkscape:current-layer="g1" />
  <g
     inkscape:groupmode="layer"
     inkscape:label="Image"
     id="g1">
    <path
       style="fill:#ffff00;stroke:none"
       d="m 253.33332,0 v 1333.3333 h 2.66666 L 258.66665,658.66663 255.99998,0 h -2.66666 m 209.33332,0 c 1.4338,8.7338862 -5.40645,10.956135 -12,14.938313 -11.50004,6.945393 -23.10852,13.683593 -34.66667,20.532876 -51.81774,30.706704 -104.12045,60.59985 -155.99999,91.195471 v 1.33333 c 20.29031,-2.08952 43.83893,-22.61417 61.33333,-32.767493 47.00358,-27.27962 93.24381,-56.569658 141.33333,-81.899164 0,43.471026 1.33333,87.094717 1.33333,130.666657 0,12.72778 5.08248,39.34163 -1.37036,50.38688 -3.02991,5.18628 -10.99011,8.22925 -15.96297,11.21289 -13.70817,8.22469 -27.50801,16.27555 -41.33333,24.2994 -48.40975,28.0957 -95.92661,58.47118 -145.33333,84.76749 v 1.33333 c 19.16765,-1.27368 42.11863,-21.60726 58.66667,-31.04118 47.95043,-27.33626 100.46117,-52.91446 145.33332,-84.95881 v 126.66666 c 0,11.99772 5.02149,38.60172 -1.37036,48.8282 -3.13745,5.01969 -11.09489,7.71899 -15.96297,10.75098 -13.14644,8.1879 -26.71867,15.656 -40,23.62036 -48.48132,29.07259 -99.52795,54.94197 -146.66666,86.13378 v 1.33333 c 19.48859,-2.1145 41.76003,-21.98714 58.66667,-31.62548 48.61039,-27.71249 95.9403,-58.08545 145.33332,-84.37451 V 501.3333 c 0,11.78207 4.65536,36.15389 -1.37036,46.38273 -2.98783,5.07194 -11.07796,8.01961 -15.96297,10.9506 -13.25879,7.95516 -26.7015,15.58635 -40,23.47119 -48.70914,28.88021 -98.3706,56.30355 -146.66666,85.86214 v 1.33333 c 20.36235,-2.09692 43.72907,-22.67903 61.33333,-32.77164 47.69365,-27.34294 95.78519,-54.53035 142.66666,-83.22835 5.84477,24.54915 1.33333,54.77653 1.33333,79.99999 0,7.64258 2.78203,22.18413 -1.37036,28.82817 -2.88305,4.61308 -10.13553,7.46028 -14.62963,10.25928 -13.09591,8.15633 -26.74585,15.41825 -40,23.31172 -30.90299,18.4043 -62.22538,36.11238 -93.33333,54.16666 -18.77639,10.89738 -37.38997,24.17375 -57.33333,32.7675 v 1.33333 c 17.01135,-0.88444 36.28003,-17.03287 50.66666,-25.60083 34.88066,-20.77319 70.12349,-41.0546 105.33333,-61.26537 11.99813,-6.88705 23.88379,-14.05664 36,-20.72636 3.52421,-1.93998 9.70548,-7.03544 13.90332,-6.55249 4.11462,0.47339 3.41068,7.32918 3.42899,10.14506 0.0694,10.66569 0.001,21.33406 0.001,32 v 98.66666 c 0,11.38672 3.71334,30.56648 -0.80452,41.05354 -2.18893,5.08106 -9.42407,7.55046 -13.86214,10.21192 -13.25094,7.94612 -26.67603,15.58927 -40,23.4156 -34.5835,20.31389 -69.20406,40.5988 -104,60.54728 -16.61952,9.528 -33.08001,21.19344 -50.66666,28.77165 v 1.33333 c 20.48948,-1.06519 45.07731,-22.4777 62.66666,-32.56168 48.96289,-28.07048 98.05867,-56.10579 146.66666,-84.77165 v 128 c 0,12.67806 5.09721,39.40379 -1.37036,50.38269 -3.22514,5.4747 -12.04122,8.3981 -17.2963,11.5494 -14.14921,8.4847 -28.3313,16.9366 -42.66667,25.1091 -49.2976,28.1039 -100.64157,55.0543 -147.99999,86.2921 v 1.3334 c 20.59943,-2.1213 44.78064,-23.3236 62.66666,-33.534 48.76074,-27.8355 99.81909,-54.2318 146.66666,-85.1327 v 122.6667 c 0,12.0729 4.80534,37.2477 -1.37036,47.716 -2.97502,5.0429 -11.10612,7.7764 -15.96297,10.6842 -13.27091,7.9453 -26.62309,15.7353 -40,23.4989 -48.29475,28.0291 -96.08388,61.1511 -146.66666,84.7675 v 1.3334 c 20.37405,-1.0592 45.20327,-22.6322 62.66667,-32.7675 47.04785,-27.3055 94.94567,-53.5034 141.33332,-81.8992 v 114.6667 h 4 v -113.3334 c 47.04752,27.7456 93.88069,55.989 141.33333,83.0412 16.28397,9.2833 38.39204,29.2677 57.33333,30.2922 v -1.3334 c -48.95085,-22.8816 -94.45561,-55.955 -141.33333,-82.8663 -13.40853,-7.6974 -26.73527,-15.5914 -40,-23.5339 -4.97273,-2.9775 -12.93505,-6.0301 -15.96297,-11.213 -6.15869,-10.5416 -1.37036,-35.5923 -1.37036,-47.7201 v -124 c 48.96863,26.0627 96.27079,56.2448 143.99999,84.5288 12.85238,7.6162 25.85388,14.9874 38.66667,22.6707 5.13672,3.0804 12.94751,6.146 15.96297,11.6061 6.21199,11.248 1.37036,36.4227 1.37036,49.1944 v 122.6667 h 2.66667 v -112 h 1.33333 l 1.33333,40 v 72 h 4 v -108 c 43.55265,25.6848 87.22184,51.1923 130.66666,77.0658 16.17944,9.6357 39.68449,29.9075 58.66666,30.9342 v -1.3334 c -45.93595,-24.1952 -89.63793,-53.0164 -134.66665,-78.8663 -12.51327,-7.1835 -24.92229,-14.5796 -37.33334,-21.9382 -5.07747,-3.0105 -12.92293,-6.1195 -15.96297,-11.4424 -6.56018,-11.4863 -1.37036,-38.5832 -1.37036,-51.7531 v -133.3333 c 47.10254,28.8338 95.31111,55.8538 142.66666,84.2664 12.38159,7.4288 24.78955,14.8747 37.33333,22.0258 5.24772,2.9917 13.99544,6.2648 17.29631,11.5463 6.53955,10.4636 1.37036,37.8749 1.37036,50.1615 v 130.6667 h 4 v -130.6667 c 0,-12.8642 -5.04411,-39.1928 1.37036,-50.4198 3.05883,-5.3537 10.88419,-8.1502 15.96297,-11.181 12.83048,-7.6569 25.8304,-15.0221 38.66666,-22.6667 31.34855,-18.6697 63.11026,-36.6505 94.66666,-54.965 18.7764,-10.8974 37.39,-24.1737 57.3333,-32.7675 v -1.3333 c -19.462,1.0118 -41.9775,20.7779 -58.6666,30.2921 -49.04348,27.9591 -97.4918,63.3688 -149.33335,85.7079 v -128 c 0,-12.3797 -4.95004,-38.32034 1.37036,-49.04942 3.22575,-5.47583 12.04109,-8.39624 17.2963,-11.5494 13.2793,-7.96745 26.54704,-15.92204 40,-23.60181 49.45044,-28.22924 97.77429,-62.36515 149.33329,-86.46606 v -1.33333 c -20.0923,1.08667 -44.0971,22.30477 -61.3333,32.19954 -48.722,27.97005 -99.79019,54.21354 -146.66665,85.13379 v -41.33333 h 1.33333 v 4 h 1.33333 v -94.66666 l 0.80453,-38.38273 15.19547,-10.76538 37.33333,-22.08439 153.33336,-88.76749 v -1.33334 c -20.0924,1.08667 -44.0972,22.30477 -61.3334,32.19954 -48.41972,27.79655 -95.93607,57.78207 -145.33329,83.80046 v -82.66667 c 0,-8.45654 -3.25512,-25.5299 1.37036,-32.8138 2.66431,-4.19551 9.19515,-6.54691 13.29631,-9.08536 11.85905,-7.34021 24.03947,-14.1281 36,-21.30038 35.36336,-21.20613 71.19292,-41.64119 106.66662,-62.66259 14.8889,-8.823 36.7511,-16.91829 48,-30.13786 -20.8074,3.71151 -43.0716,23.04924 -61.3333,33.53288 -48.11124,27.61954 -95.02603,57.73486 -143.99999,83.80045 l -0.22632,-119.99999 -1.10701,-44 1.37036,-18.52775 17.2963,-12.40535 40,-23.53402 146.66666,-85.53287 v -1.33334 c -20.668,1.11776 -46.3898,23.42652 -64,33.86214 -46.74617,27.70134 -93.25162,56.81218 -141.33332,82.13786 V 347.99998 c 0,-12.56266 -4.89681,-38.11336 1.37036,-49.08642 3.07088,-5.37671 10.89819,-8.34294 15.96297,-11.47941 12.73731,-7.88794 25.78011,-15.26481 38.66667,-22.90536 48.8907,-28.98779 97.86692,-63.13858 149.33332,-87.19547 v -1.33333 c -19.3407,1.0459 -42.0873,21.34839 -58.6667,30.86621 -48.55725,27.87557 -95.93445,61.44799 -146.66662,85.13378 L 883.99995,173.33332 884.80447,125.61726 899.99995,114.9331 938.66661,91.999994 1090.6666,2.6666665 V 1.3333333 c -20.46,2.1070148 -45.0728,23.4305817 -62.6667,33.8621397 -47.1016,27.927082 -94.39197,60.310299 -143.99995,83.471187 V 2.6666665 h -4 L 881.33328,118.66666 C 831.94526,92.38004 784.54373,61.935299 735.99996,34.104978 718.18656,23.892495 694.23677,2.8557127 673.33329,2.6666665 l 2.66667,778.6666235 h -1.33333 L 671.99996,0 h -2.66667 V 125.33333 C 648.93046,116.5415 629.77218,102.79907 610.66663,91.471186 578.76201,72.554602 546.47763,54.275469 514.66664,35.199542 502.30291,27.78548 467.84987,15.556151 466.66664,0 h -4 m 629.33326,1.3333333 2.6667,1331.9999667 h 2.6667 L 1095.9999,1.3333333 h -4 M 881.33328,293.33332 c -16.77832,-5.31128 -32.72103,-18.1451 -48,-26.86727 -34.38574,-19.62948 -68.5249,-39.7618 -102.66666,-59.8138 -16.14583,-9.48267 -35.03304,-25.13151 -53.33333,-29.31893 L 675.99996,3.9999998 c 18.51326,5.445719 36.75537,20.0328762 53.33333,29.8621402 33.18367,19.674966 66.54313,39.130613 99.99999,58.337399 12.48259,7.166015 24.8846,14.474691 37.33333,21.699621 4.40878,2.55876 11.72209,5.41309 13.86214,10.38062 5.46184,12.67838 0.80453,36.57877 0.80453,50.38688 V 293.33332 M 669.33329,127.99999 V 313.33331 C 618.97974,286.53294 570.80693,255.26455 521.3333,226.8662 c -12.95613,-7.43693 -25.70959,-15.22827 -38.66666,-22.66667 -4.71822,-2.70858 -12.91354,-5.84904 -15.19548,-11.14599 -5.73132,-13.3038 -0.80452,-38.55412 -0.80452,-53.05355 V 11.999999 l 55.99999,31.732502 96,56.001054 50.66666,28.266435 m 9.33334,50.66667 c 46.68912,30.7963 97.0952,56.98787 145.33332,85.31892 12.85376,7.54923 25.73885,15.05998 38.66666,22.48152 5.11272,2.93506 14.0599,6.28931 17.29631,11.38575 6.41317,10.09887 1.37036,36.91162 1.37036,48.8138 0,43.18375 1.33333,86.19962 1.33333,129.33332 -16.52246,-3.78963 -33.288,-17.90495 -47.99999,-26.29215 C 797.56709,428.55759 761.0369,406.39581 723.99996,385.13377 709.87512,377.02504 693.4045,363.09885 677.33329,359.99998 V 233.33332 c 0,-15.57609 -4.67663,-40.34416 1.33334,-54.66666 m -210.66666,19.99999 141.33333,82.46712 59.99999,33.53288 1.33334,178.66665 c -16.42131,-3.16634 -33.58635,-17.73551 -48,-26.10083 -34.30705,-19.91088 -68.2056,-40.54532 -102.66666,-60.19132 -12.0883,-6.89143 -23.96493,-14.15714 -36,-21.142 -4.69096,-2.7225 -11.77486,-5.2924 -14.62964,-10.17896 -5.71663,-9.78507 -1.37036,-32.49332 -1.37036,-43.72021 v -93.33333 c 0,-11.33724 -3.70398,-29.67293 0,-40 m 414.66664,466.66664 -49.33333,-28.19954 -99.99999,-58.19962 -37.33333,-21.80037 -13.86214,-9.65332 -1.0319,-46.14714 -3.77263,-138.66666 c 16.57902,3.19678 33.4891,17.67904 48,26.10083 35.60481,20.66406 70.90397,41.88558 106.66666,62.27368 12.06193,6.87647 23.96142,14.04004 36,20.95882 4.30094,2.47184 11.6569,5.05387 13.86214,9.83846 5.88501,12.76864 0.80452,38.74276 0.80452,52.8282 V 665.33329 M 469.3333,379.99998 c 45.24109,27.69384 91.45711,53.9405 137.33333,80.56583 18.89506,10.96623 42.53609,31.29549 64,35.43416 l 1.33333,282.66665 -52,-29.06689 -97.33333,-57.40023 -35.99999,-21.26538 -13.86214,-10.0391 -0.80453,-31.56173 -1.33333,-73.33332 c 17.31685,4.99804 33.78625,18.41105 49.33333,27.43416 31.59814,18.3387 63.16369,36.74471 94.66666,55.2469 15.60657,9.16602 36.54211,27.35246 54.66666,29.31893 v -1.33333 L 615.99996,636.80042 519.99997,580.52877 485.3333,560.19951 471.47116,549.20879 470.66664,505.3333 V 402.66664 h -1.33334 v 2.66667 h -1.33333 l 1.33333,-25.33333 m 213.33332,171.99999 198.66666,115.99999 -1.33333,41.33333 v 77.33333 l -133.33333,-78.29215 -44,-25.97428 -19.19547,-12.23873 -2.13786,-28.82817 v -61.33333 l 1.33333,-27.99999 M 473.3333,665.33329 c 42.78556,31.08317 92.71362,56.09505 138.66666,82.29215 13.88375,7.91504 27.62883,16.15292 41.33333,24.37451 5.14486,3.08651 13.95488,6.22103 17.29631,11.3724 2.58687,3.98812 1.37036,10.76953 1.37036,15.29427 v 36 135.99999 c -50.28353,-21.66756 -98.28552,-56.98893 -145.33333,-85.06583 -12.38334,-7.39006 -24.94327,-14.48942 -37.33333,-21.86833 -4.92053,-2.93042 -12.89237,-5.7727 -15.96297,-10.83748 -6.057,-9.99056 -1.37036,-34.62988 -1.37036,-46.22835 v -98.66666 c 0,-12.42969 -3.47628,-31.20471 1.33333,-42.66667 m 209.33332,8 c 47.98552,29.37435 97.08944,56.92057 145.33333,85.86621 12.4034,7.44189 24.86141,14.79354 37.33333,22.11938 4.29679,2.52385 11.646,5.04452 13.86214,9.85295 5.60873,12.1691 0.80453,36.74788 0.80453,50.16145 v 121.33333 c -19.00725,-6.95899 -37.3068,-20.78955 -54.66667,-31.19954 -30.07128,-18.03272 -60.59545,-35.30078 -90.66666,-53.33333 -11.93213,-7.15528 -23.91333,-14.28451 -36,-21.17497 -4.89941,-2.79305 -12.88004,-5.86442 -15.96297,-10.79736 -5.65079,-9.04167 -1.37036,-31.6084 -1.37036,-42.16146 v -90.66666 c 0,-11.72917 -3.20878,-29.17554 1.33333,-40 m -6.66666,110.66666 1.33333,61.33333 h -2.66666 c 0,-17.33797 -5.34636,-45.41479 1.33333,-61.33333 m 1.33333,62.66666 v 126.66666 h -2.66666 V 846.66661 h 2.66666 m 5.33333,4 c 49.49097,26.06771 97.36442,56.55265 145.33333,85.33333 12.3977,7.43848 24.82894,14.84359 37.33333,22.10083 4.45109,2.58333 11.6862,5.12801 13.86214,10.17896 5.73128,13.30371 0.80453,38.55417 0.80453,53.05357 v 126.6666 c -45.42562,-24.1772 -88.62288,-52.8033 -133.33333,-78.2921 -14.79069,-8.432 -29.39274,-17.228 -44,-25.9743 -5.927,-3.5489 -14.8496,-6.7318 -19.19547,-12.2387 -6.65051,-8.4273 -2.13786,-33.02611 -2.13786,-43.49486 v -95.99999 c 0,-12.07951 -3.34257,-30.19003 1.33333,-41.33334 m -209.33332,6.66667 c 47.69918,25.38688 93.04923,55.5262 140,82.29215 13.44091,7.66252 26.69169,15.67928 39.99999,23.56999 5.34029,3.16634 14.04126,6.17944 17.29631,11.75097 6.45284,11.04525 1.37036,37.65921 1.37036,50.38691 v 130.6666 c -49.63012,-23.1718 -96.94392,-56.1857 -143.99999,-84.2675 l -38.66667,-22.9279 c -4.89734,-2.9038 -12.84183,-5.6495 -15.96297,-10.643 -5.79939,-9.2787 -1.37036,-32.6529 -1.37036,-43.49489 v -96 c 0,-12.07951 -3.34257,-30.19002 1.33333,-41.33333 m 203.99999,118.66666 v 53.33336 h -2.66666 v -53.33336 h 2.66666 m -1.33333,54.66666 1.33333,42.6667 v 85.3333 h -2.66666 v -89.3333 l 1.33333,-38.6667 m 1.33333,130.6667 v 58.6666 h -2.66666 v -58.6666 h 2.66666 m 214.66666,170.6666 v 1.3334 c 19.63924,-0.4726 43.18936,-21.0053 59.99999,-30.6667 46.78052,-26.8856 93.52656,-53.926 139.99996,-81.3333 -5.9039,-2.2295 -10.9441,1.8416 -16,4.7675 -12.0142,6.9527 -23.9349,14.0769 -36,20.9403 -48.62773,27.6626 -96.6344,62.8249 -147.99995,84.9588 z"
       id="path1" />
  </g>
</svg>
