<?xml version="1.0" encoding="UTF-8" standalone="no"?>
<!-- Created with Inkscape (http://www.inkscape.org/) -->

<svg
   version="1.1"
   id="svg1"
   width="1333.3333"
   height="1333.3333"
   viewBox="0 0 1333.3333 1333.3333"
   sodipodi:docname="startAngleUR.svg"
   inkscape:version="1.4.2 (ebf0e940d0, 2025-05-08)"
   xmlns:inkscape="http://www.inkscape.org/namespaces/inkscape"
   xmlns:sodipodi="http://sodipodi.sourceforge.net/DTD/sodipodi-0.dtd"
   xmlns="http://www.w3.org/2000/svg"
   xmlns:svg="http://www.w3.org/2000/svg">
  <defs
     id="defs1" />
  <sodipodi:namedview
     id="namedview1"
     pagecolor="#505050"
     bordercolor="#eeeeee"
     borderopacity="1"
     inkscape:showpageshadow="0"
     inkscape:pageopacity="0"
     inkscape:pagecheckerboard="0"
     inkscape:deskcolor="#505050"
     showgrid="false"
     inkscape:zoom="0.59400004"
     inkscape:cx="666.66663"
     inkscape:cy="666.66663"
     inkscape:window-width="1920"
     inkscape:window-height="995"
     inkscape:window-x="0"
     inkscape:window-y="0"
     inkscape:window-maximized="1"
     inkscape:current-layer="g1" />
  <g
     inkscape:groupmode="layer"
     inkscape:label="Image"
     id="g1">
    <path
       style="fill:#00ff00;stroke:none"
       d="m 334.66665,373.33331 v -1.33333 c -23.97958,-22.88102 -55.4129,-8.58504 -51.76851,25.33333 6.07407,56.53149 92.79804,109.60359 132.30349,51.98046 21.92298,-31.97704 -5.01737,-69.74088 -8.30761,-102.64712 -1.5815,-15.81682 5.71464,-34.76253 23.77262,-37.0813 16.39815,-2.10563 32.30639,14.21354 30.41976,30.41463 -1.28919,11.07088 -8.31303,20.20377 -15.75309,28 13.7327,19.33162 47.12845,23.58715 49.21191,-6.66667 1.0813,-15.70174 -8.17631,-30.83398 -17.4928,-42.66666 -24.37935,-30.96371 -70.94665,-51.88542 -101.76643,-15.94751 -28.49845,33.23103 -1.14901,70.69067 3.16357,106.61417 2.08407,17.3601 -5.12626,34.42553 -23.78291,38.58951 -21.08505,4.70598 -43.05436,-19.69327 -41.0967,-39.92284 1.38407,-14.30241 11.46047,-25.02417 21.0967,-34.66667 m 187.99998,2.66667 -42.66666,34.66666 v 1.33333 l 12,13.33334 h 1.33333 c 17.73564,-13.63265 30.79464,-20.33114 47.23149,-1.33334 3.00508,3.47331 10.49287,9.25619 8.61214,14.54737 -3.24382,9.12605 -20.573,19.17822 -27.84363,25.45263 -21.77348,18.7902 -43.49711,37.64477 -65.33333,56.36108 -8.14229,6.97892 -18.66443,20.03654 -29.33333,22.70988 -8.60461,2.15609 -15.53243,-7.87484 -20,-13.73763 -3.91736,2.03394 -10.27429,5.44605 -10.20577,10.66772 0.0685,5.22234 7.40703,10.97901 10.5669,14.66561 10.69559,12.47852 21.5426,24.82365 32.2006,37.33333 4.00476,4.70052 12.88387,19.56796 19.55761,19.74382 4.04252,0.10652 9.64689,-4.94507 8.97941,-9.12964 -2.27368,-14.25399 -16.20157,-16.27205 -1.07816,-30.38786 25.24247,-23.5607 52.42712,-45.39241 78.64607,-67.86523 11.79838,-10.11263 26.56392,-20.02262 36,-32.36108 h 1.33333 c 6.78377,9.74487 22.02799,20.4069 21.98149,33.33333 -0.0425,11.81616 -18.25273,18.58114 -16.77368,29.33333 0.66748,4.85222 6.48319,9.67587 9.45886,13.33334 h 1.33333 l 40,-37.33333 v -1.33334 l -116,-133.33332 m 48,5.33333 v 2.66667 c 25.96541,8.78987 58.11422,8.94799 85.33333,12.20678 51.61206,6.17928 103.12117,13.45362 154.66666,20.1687 l 61.33333,8 c 9.97233,1.29916 22.24023,5.09538 31.99999,2.29118 v -2.66667 c -22.69726,-8.50008 -51.96508,-7.88167 -75.99999,-11.04215 -53.76855,-7.07031 -107.61905,-13.66471 -161.33332,-21.13167 -20.8645,-2.90039 -41.81214,-5.2076 -62.66667,-8.18726 -10.23649,-1.46256 -23.31241,-5.18473 -33.33333,-2.30558 m 333.33331,49.33333 c 0,79.92268 -0.8789,160.22631 2.61418,239.99999 1.28923,29.4427 -5.44621,63.30289 1.38582,91.99999 h 2.66667 c 6.56242,-22.20101 1.33333,-52.81933 1.33333,-76 0,-59.51415 -2.66276,-119.19668 -2.66666,-178.66665 v -57.33333 c 0,-6.82943 2.47534,-17.40837 -5.33334,-20 M 489.3333,625.3333 h -1.33333 l -10.66667,9.33333 v 1.33333 l 46.66667,54.66666 c 24.06657,-8.18794 -9.98958,-25.5697 10.67179,-38.38272 6.20174,-3.84595 25.42961,-15.29403 32.70988,-12.87549 9.56347,3.17708 20.57499,22.33337 27.11112,29.92488 4.34949,5.0518 16.74117,14.84025 16.74898,21.89917 0.0102,9.18498 -18.46439,38.14136 -28.57511,37.2181 -6.32279,-0.57739 -11.84163,-8.295 -16,-12.4506 h -1.33333 l -9.33333,8 18.87345,25.33333 41.12654,47.99999 12,-9.33333 c -12.03515,-21.70337 -1.43359,-34.49723 10.10494,-54.66666 17.26652,-30.18205 34.89506,-60.1877 51.63578,-90.66666 6.17269,-11.23836 13.03084,-22.08496 19.18522,-33.33333 2.63558,-4.81706 5.90926,-9.37582 2.69645,-14.66667 -3.94669,-6.49935 -14.97697,-22.22111 -22.51538,-24.28288 -9.62793,-2.63321 -29.28165,9.32154 -38.44034,12.70777 -34.26298,12.66788 -68.375,25.72892 -102.66666,38.31274 -19.99056,7.33577 -40.76119,21.40177 -58.66667,3.92904 M 0,579.99996 v 8 c 83.644989,0 168.55831,10.16651 251.99998,15.8807 35.9824,2.46411 72.01908,4.20264 108,6.66667 19.40975,1.32918 41.07889,-0.38534 59.99999,4.1193 -6.18257,-13.86117 -19.82934,-13.24756 -33.33333,-13.33439 -22.94934,-0.14754 -46.41975,-2.54907 -69.33333,-4.11825 C 211.83491,589.9893 105.86262,579.99996 0,579.99996 m 671.99996,16 -48,77.33333 c -14.26888,-6.70955 -30.34928,-29.36962 -38.66666,-42.66666 l 86.66666,-34.66667 M 0,634.66663 v 12 l 131.99999,7.88065 222.66666,13.57202 122.66665,7.88066 c -8.43481,-13.4373 -18.12345,-10.74386 -31.99999,-12.56584 -27.32097,-3.58724 -55.30245,-1.91947 -82.66667,-5.14815 C 276.37311,648.10429 188.04591,647.39083 101.33333,641.4526 68.740688,639.22058 31.760097,642.22783 0,634.66663 m 765.33329,45.33333 v 1.33333 c 5.15787,5.39291 13.89038,13.02352 10.52677,21.32821 -4.90861,12.11922 -22.20768,22.18741 -31.86011,30.49796 -26.89355,23.15478 -54.4851,55.12125 -85.3282,72.6512 -10.73425,6.10091 -29.66792,-20.27197 -34.21089,-3.09049 -1.51123,5.71541 8.10722,13.48893 11.47221,17.27978 12.46419,14.04158 24.66198,28.37467 36.8385,42.66666 3.60148,4.22722 9.85599,15.19173 16.56066,12.71192 16.52124,-6.11068 -6.49983,-19.86882 -1.99894,-30.04525 8.44124,-19.08553 35.09285,-28.70247 47.33333,-45.33333 h 1.33334 c 3.20694,4.57056 9.12963,9.0835 10.41764,14.66667 1.4589,6.32389 -4.17652,15.50138 -6.35075,21.33333 -6.55656,17.58675 -17.82186,37.26025 -19.83545,56 -2.6971,25.10042 14.62118,39.78027 27.76855,58.66666 17.75871,-6.04183 5.27019,-18.75651 7.74073,-32 4.99275,-26.764 17.17968,-52.81176 25.59261,-78.66666 10.18473,3.95036 20.81697,8.35726 31.99999,7.86108 29.96419,-1.32942 56.96183,-27.51798 51.38062,-58.52774 -5.50586,-30.5909 -31.96623,-54.83659 -51.38062,-77.33333 l -26.49283,-30.66667 c -2.66073,-3.08252 -6.19515,-8.92309 -10.84562,-8.87243 -4.22649,0.0461 -7.92758,4.87329 -10.66154,7.5391 M 0,687.99996 v 10.66666 c 84.073837,0 169.46243,10.13705 253.33332,15.8807 91.10042,6.23861 184.07738,6.00407 274.66665,17.45264 -6.76616,-14.49821 -23.37647,-13.16708 -37.33333,-13.33846 -29.40475,-0.36109 -60.04704,-2.76758 -89.33333,-5.55461 C 324.70398,705.81457 247.46257,703.80643 170.66666,698.54732 114.1174,694.67476 56.699164,687.99996 0,687.99996 m 810.61413,49.55655 c 11.29012,0.51701 22.27311,26.22811 20.97941,35.77678 -2.74716,20.27669 -29.68067,42.79573 -50.26025,41.20784 -8.93482,-0.68945 -35.50277,-16.61279 -29.66976,-27.75521 6.19303,-11.83008 24.9563,-22.43579 35.00309,-31.16145 5.37288,-4.66651 16.29443,-18.41846 23.94751,-18.06796 M 0,739.99995 v 10.66667 c 34.111054,0.004 68.647564,4.21761 102.66666,6.54736 99.6113,6.82146 200.20749,16.28288 299.99998,18.76644 30.90564,0.76921 62.55318,2.65007 93.33333,5.57927 5.262,0.50073 28.2334,4.95255 29.43827,-3.03191 1.32365,-8.7714 -22.85978,-7.13566 -28.10494,-7.63476 -30.66349,-2.91813 -62.54109,-5.18669 -93.33332,-5.56486 C 269.31332,763.67411 134.71537,740.0146 0,739.99995 m 501.3333,593.33335 h 10.66667 c 0,-71.522 7.48665,-143.25 10.61417,-214.6667 2.96513,-67.7083 3.19271,-136.54321 9.61219,-203.99999 3.13769,-32.97135 4.71797,-66.87239 5.1121,-99.99999 0.0714,-5.99829 5.71285,-28.85824 -2.81067,-30.89095 -8.66178,-2.06576 -7.71236,24.28426 -7.84159,29.55761 -0.80868,33.00293 -1.10486,67.22274 -4.97221,100 -6.95158,58.91739 -4.44576,119.46472 -8.5,178.66662 -5.47095,79.8895 -11.88066,161.2318 -11.88066,241.3334 m 77.33333,-546.66668 -7.94751,161.33332 -12.17183,254.66666 -6.54732,130.6667 h 10.66666 c 0,-43.9913 4.6908,-88.0798 6.61418,-132 4.06917,-92.9194 9.36914,-185.7475 13.43831,-278.66669 1.4362,-32.79541 5.26823,-65.833 5.28084,-98.66666 0.006,-14.98226 4.67815,-27.37329 -9.33333,-37.33333 M 0,793.33328 v 10.66667 c 121.3986,0 242.64151,21.02303 363.99998,22.66154 28.02441,0.37834 55.99121,4.98934 83.99999,5.33333 5.71155,0.0702 24.96114,4.82243 26.99797,-2.83333 2.28645,-8.59408 -19.43046,-7.78101 -24.3313,-7.82821 -28.46142,-0.27441 -56.86389,-4.98885 -85.33333,-5.33846 C 243.52554,814.49897 121.85584,793.33328 0,793.33328 m 931.99994,82.66667 v 1.33333 c -41.61865,28.45817 -76.74779,67.53125 -115.99999,99.17382 -14.78516,11.91895 -16.05436,1.22933 -29.33333,-4.73144 -4.42985,-1.98853 -10.20752,2.24764 -10.77157,6.89607 -0.78792,6.49374 10.3523,15.46704 14.20988,19.99488 15.58708,18.29529 30.94727,36.99059 47.22835,54.66669 h 1.33334 l 10.66666,-9.3334 c -3.75521,-5.6779 -12.20548,-12.5968 -11.32918,-20 1.21444,-10.2592 14.85319,-18.2477 21.99585,-24.36113 21.41569,-18.32975 42.58374,-36.94742 63.99999,-55.27766 9.36971,-8.01961 18.59107,-16.21322 28,-24.18522 3.20663,-2.71696 7.37874,-7.13395 11.8807,-4.66667 9.03296,4.95052 22.70979,22.98486 19.17692,33.82406 -4.01628,12.32234 -25.80339,21.70068 -9.34261,34.16463 8.08984,6.12556 28.51725,-17.96704 34.28395,-23.45061 2.7841,-2.64746 8.6358,-6.29809 8.107,-10.76651 -0.7132,-6.02621 -9.3023,-12.86923 -13.0782,-17.28085 l -36.72218,-42.66666 c -15.27514,-17.84684 -30.5804,-35.69792 -46.09879,-53.33333 -4.40812,-5.00944 -10.8208,-16.45142 -17.55965,-18.20679 -5.104,-1.32951 -11.09082,5.75773 -14.64713,8.60702 -9.26376,7.42195 -35.30851,20.78727 -21.20785,33.38167 10.54346,9.41715 22.45736,-11.33089 34.54118,-9.59977 13.78662,1.97509 20.43156,18.28466 30.66666,25.81787 M 453.33331,1333.3333 h 10.66666 c 0,-127.596 17.15393,-255.0798 18.67179,-382.66669 0.34599,-29.08171 0.97795,-60.51058 4.76237,-89.33333 0.6624,-5.045 3.69503,-26.48128 -3.55863,-27.37858 -9.37227,-1.1595 -6.40898,20.72111 -7.10803,26.04525 -3.78475,28.82519 -4.41638,60.25211 -4.76237,89.33333 -1.5232,128.03472 -18.67179,255.95432 -18.67179,384.00002 M 0,839.99995 v 10.66666 c 53.59276,0.44353 107.8606,6.88542 161.33332,10.54737 53.679,3.67594 107.76841,4.58154 161.33333,9.67903 25.01652,2.38062 50.87263,4.79322 75.99999,5.10181 5.37545,0.066 22.34924,4.26082 24.3313,-2.94035 2.3411,-8.50569 -17.09656,-7.69287 -21.66463,-7.72217 -25.5483,-0.16422 -51.90047,-2.68571 -77.33333,-5.10595 -53.56073,-5.09709 -107.65616,-6.00318 -161.33332,-9.67904 C 108.8048,846.85875 53.986345,840.14871 0,839.99995 m 630.66663,4 c 0,163.15935 -24,326.19635 -24,489.33335 h 10.66667 c 0,-68.948 5.83707,-139.2185 10.54732,-208 3.44067,-50.2422 0.79891,-102.0915 7.35184,-152.00003 4.00509,-30.50357 4.7557,-63.88712 4.7675,-94.66666 0.006,-14.57405 4.34501,-24.99731 -9.33333,-34.66666 M 402.66664,1333.3333 h 10.66667 c 14.64327,-115.8677 4.6014,-234.6843 18.28601,-350.66669 3.15608,-26.74894 2.41923,-54.43408 4.26131,-81.33333 0.32283,-4.71428 2.90072,-24.33455 -5.14714,-23.37858 -8.31498,0.98763 -5.21573,18.99756 -5.96602,24.71191 -3.46407,26.38298 -0.53629,53.61979 -4,80 -4.35518,33.16979 -3.35592,67.90149 -4.81999,101.33329 -3.63419,82.9861 -6.7458,166.5302 -13.28084,249.3334 M 0,886.66661 v 10.66667 c 40.869052,7.58707 85.193888,5.27921 126.66666,8.1193 52.71598,3.61011 105.84649,9.23023 158.66666,10.52783 23.14304,0.56852 46.18806,3.74789 69.33333,4.02466 4.1444,0.0496 22.89278,4.20109 20.33129,-5.19962 -1.7692,-6.49292 -16.55981,-5.45573 -21.66463,-5.47217 -22.61116,-0.0726 -45.39343,-3.06104 -67.99999,-4.05249 C 190.29113,901.11258 94.838933,894.15156 0,886.66661 m 357.33331,446.66669 h 10.66667 c 0,-104.908 14.74711,-209.7841 15.99487,-314.6667 0.2808,-23.60204 0.36772,-48.60644 3.43929,-71.99999 0.6418,-4.88802 3.3564,-22.15153 -2.50411,-24.45068 -9.68998,-3.80135 -7.40295,16.03597 -7.82308,20.45068 -2.29691,24.13655 -3.7347,49.07674 -3.77364,73.33329 -0.16972,105.7691 -16,211.5396 -16,317.3334 M 686.66662,935.99994 667.99996,1333.3333 h 10.66667 l 9.33333,-288 v -76.00003 l -1.33334,-33.33333 M 0,938.66661 c 0.01139405,3.21663 -0.73704477,8.15332 2.13786,10.42798 3.9386993,3.11629 11.851469,1.41967 16.528806,1.62451 13.339507,0.58423 26.644427,2.08097 39.999997,2.66667 64.605507,2.83341 130.294707,6.04793 194.666657,12.1739 18.00118,1.71306 36.58227,3.68539 54.66666,3.77263 4.08643,0.0197 14.55005,1.82942 17.2181,-2.1307 4.63029,-6.87264 -9.74072,-8.42741 -13.2181,-8.51546 -20.48213,-0.51888 -40.87927,-3.07129 -61.33333,-3.96704 C 194.62753,952.265 138.62131,947.95111 82.666662,944.11925 55.501329,942.25898 26.790594,943.64008 0,938.66661 m 310.66665,394.66669 h 10.66666 c 0,-92.2376 9.34986,-185.1652 13.38581,-277.3334 0.95359,-21.7769 2.94146,-43.5564 3.89506,-65.33329 0.19207,-4.38656 2.30358,-18.87891 -4.08643,-19.76546 -8.33518,-1.15634 -6.3808,13.87727 -6.58024,18.43212 -0.95359,21.77693 -2.94147,43.55643 -3.89506,65.33333 -4.05534,92.611 -13.3858,185.9857 -13.3858,278.6667 M 0,981.33327 v 10.66667 c 71.581549,0.0474 143.08806,12.96156 214.66665,13.33426 16.07381,0.084 33.36841,1.1626 49.33333,3.0464 4.78721,0.5648 14.20193,3.0567 16.45061,-3.1862 2.69165,-7.47278 -9.7709,-6.56515 -13.78394,-7.09363 -15.96594,-2.10254 -33.22963,-3.23641 -49.33333,-3.42904 C 144.85794,993.80495 72.480831,981.34117 0,981.33327 m 267.99998,352.00003 h 10.66667 c 0,-82.2826 11.96309,-164.4429 12,-246.6667 0.009,-19.1279 2.6359,-38.1928 2.66667,-57.3333 0.008,-4.8711 3.03027,-16.8327 -3.01339,-19.1173 -7.4351,-2.8105 -7.53276,10.9959 -7.63373,15.1173 -0.47896,19.5503 -2.67745,39.1357 -2.68622,58.6666 -0.0373,83.1241 -12,166.1656 -12,249.3334 M 0,1033.3333 v 10.6666 c 57.929659,0.4796 116.84765,6.8267 174.66666,10.786 13.77846,0.9436 27.5452,1.7888 41.33333,2.6657 3.97334,0.2527 11.84,2.2972 13.47941,-3.1307 1.77386,-5.873 -6.96519,-7.2438 -10.81275,-7.5339 -14.19633,-1.0703 -28.46162,-1.6949 -42.66666,-2.6678 C 117.80796,1040.1344 58.303122,1033.4941 0,1033.3333 m 218.66665,300 h 10.66667 c 0.0465,-70.2207 10.54934,-140.4446 10.66667,-210.6667 0.0268,-16.0184 2.47123,-32.0059 2.66151,-48 0.0514,-4.321 1.73184,-14.5573 -4.13374,-15.8848 -7.23501,-1.6373 -6.47652,9.0613 -6.53292,13.2181 -0.223,16.4347 -2.65414,32.8757 -2.66152,49.3334 -0.0317,70.6665 -10.65896,141.3284 -10.66667,212 M 0,1086.6666 v 10.6667 c 45.328331,0 93.647557,3.0688 138.66666,8.3807 10.79326,1.2734 22.47125,2.3495 33.33333,2.2746 3.32983,-0.023 8.57302,9e-4 9.55762,-4.1276 1.17433,-4.9241 -4.71591,-6.23 -8.22943,-6.4701 -11.08981,-0.7579 -22.29478,-1.0418 -33.32819,-2.3436 C 94.536676,1089.683 45.776547,1086.6666 0,1086.6666 m 173.33332,246.6667 h 10.66667 c 0,-57.3929 7.72432,-114.6332 8.00102,-172 0.0637,-13.2081 1.2146,-26.8472 2.43931,-40 0.35852,-3.8505 0.99619,-11.0166 -3.94548,-12.3313 -6.46627,-1.7203 -6.32241,7.1413 -6.61316,10.9979 -0.9976,13.2321 -2.48333,26.7295 -2.54734,40 -0.27887,57.8202 -8.00102,115.4883 -8.00102,173.3334 M 0,1127.9999 v 10.6667 c 35.764351,4.5199 72.217901,2.8254 107.99999,7.0474 5.36288,0.6327 32.48561,5.2845 32.48561,-3.1482 0,-8.9934 -26.41329,-7.364 -32.48561,-7.7799 C 72.007376,1132.3212 35.966408,1130.8383 0,1127.9999 m 134.66666,205.3334 h 10.66666 c 0,-47.202 6.10086,-94.204 6.66152,-141.3334 0.13282,-11.1643 1.41432,-22.18 1.33746,-33.3333 -0.0231,-3.3464 0.49587,-9.7892 -4.13786,-10.4321 -4.968,-0.6892 -6.24319,5.5075 -6.46914,9.0997 -0.69835,11.1029 -1.26468,22.1992 -1.39712,33.3324 -0.56597,47.5755 -6.66152,95.019 -6.66152,142.6667 M 0,1173.3333 v 10.6666 c 22.826293,0.189 46.597669,2.0628 69.333329,4.2263 5.232915,0.498 20.957935,4.4513 22.997944,-3.0319 2.226115,-8.1657 -15.895258,-6.957 -20.331277,-7.4803 C 48.646227,1174.9584 23.514009,1173.3982 0,1173.3333 m 87.999995,160 h 10.666666 c 0.301595,-36.4286 4.459999,-72.8869 5.352889,-109.3334 0.15744,-6.4264 5.97625,-31.2652 -2.82511,-33.6646 -8.617277,-2.3492 -7.709593,26.9447 -7.841561,32.3313 -0.9033,36.8716 -5.251169,73.8122 -5.352884,110.6667 M 0,1218.6666 v 10.6667 c 11.431559,0 23.31701,0.3938 34.666665,1.714 4.033197,0.4691 10.629007,2.1488 13.218108,-2.2861 3.462672,-5.931 -5.564491,-7.4382 -9.218109,-7.9876 C 26.163049,1218.8932 12.648198,1218.6666 0,1218.6666 m 46.666664,114.6667 H 57.33333 c 0,-24.8613 0.199188,-51.3624 3.434158,-76 0.6418,-4.888 3.356409,-22.1516 -2.504115,-24.4506 -10.050236,-3.9428 -7.436202,18.5307 -7.977365,23.1172 -2.9826,25.2781 -3.619344,51.8752 -3.619344,77.3334 M 0,1261.3333 v 10.6666 c 8.4533883,-1.8056 8.4533858,-8.861 0,-10.6666 m 6.6666663,72 H 17.333332 c 0,-14.8467 0.170071,-30.6215 2.100823,-45.3334 0.556041,-4.2369 2.163017,-13.463 -3.605967,-14.9979 -7.0757026,-1.8825 -6.7245121,9.5824 -7.2623449,13.6646 -1.9879887,15.0889 -1.8991768,31.4374 -1.8991768,46.6667 z"
       id="path1" />
  </g>
</svg>
