<?xml version="1.0" encoding="UTF-8" standalone="no"?>
<!-- Created with Inkscape (http://www.inkscape.org/) -->

<svg
   version="1.1"
   id="svg1"
   width="1333.3333"
   height="1333.3333"
   viewBox="0 0 1333.3333 1333.3333"
   sodipodi:docname="startRight.svg"
   inkscape:version="1.4.2 (ebf0e940d0, 2025-05-08)"
   xmlns:inkscape="http://www.inkscape.org/namespaces/inkscape"
   xmlns:sodipodi="http://sodipodi.sourceforge.net/DTD/sodipodi-0.dtd"
   xmlns="http://www.w3.org/2000/svg"
   xmlns:svg="http://www.w3.org/2000/svg">
  <defs
     id="defs1" />
  <sodipodi:namedview
     id="namedview1"
     pagecolor="#505050"
     bordercolor="#eeeeee"
     borderopacity="1"
     inkscape:showpageshadow="0"
     inkscape:pageopacity="0"
     inkscape:pagecheckerboard="0"
     inkscape:deskcolor="#505050"
     inkscape:zoom="0.59400004"
     inkscape:cx="666.66663"
     inkscape:cy="666.66663"
     inkscape:window-width="1920"
     inkscape:window-height="995"
     inkscape:window-x="0"
     inkscape:window-y="0"
     inkscape:window-maximized="1"
     inkscape:current-layer="g1" />
  <g
     inkscape:groupmode="layer"
     inkscape:label="Image"
     id="g1">
    <path
       style="fill:#00ff00;stroke:none"
       d="m 1057.3333,390.66664 c 2.4589,9.45541 10.8157,16.82829 17.1265,24 12.3956,14.08659 24.5728,28.40698 36.7675,42.66667 45.7115,53.45198 91.9348,106.46581 137.5443,159.99999 13.6941,16.07356 27.6392,31.92651 41.3333,47.99999 6.2192,7.29973 12.3004,17.30664 21.895,20 -0.1897,-8.63248 -8.1431,-15.10099 -13.5071,-21.33333 -12.2501,-14.23324 -24.471,-28.48934 -36.7841,-42.66666 -48.4166,-55.74715 -96.1385,-112.10075 -144.3754,-167.99999 l -40.1739,-46.66667 c -5.4248,-6.30314 -10.8801,-15.61881 -19.8261,-16 M 181.33332,734.66662 c -31.66086,0.26205 -51.02168,34.94255 -23.9465,58.04321 53.39037,45.5529 173.91972,5.54883 147.65739,-75.37654 -11.8279,-36.44678 -57.53169,-43.40804 -86.37756,-60.60392 -16.64908,-9.92505 -33.09519,-28.34969 -21.92285,-48.72941 9.95329,-18.15608 35.58032,-21.39795 49.78396,-6.60905 9.30328,9.68661 11.12628,22.01766 13.47222,34.60905 10.24858,-0.001 20.6179,-0.64754 29.21297,-6.965 13.73021,-10.09188 11.97128,-30.81275 -0.11112,-41.47632 -11.41724,-10.07658 -26.53678,-12.70907 -41.10185,-14.60083 -51.48085,-6.68644 -109.26118,23.59342 -94.8004,83.04215 10.4356,42.90112 60.96477,47.38672 92.13374,68.13997 15.96441,10.62956 26.538,29.61263 15.70062,47.86002 -13.32762,22.44035 -47.07177,24.4056 -64.78806,6.43522 -11.36983,-11.53295 -14.90222,-28.14729 -14.91256,-43.76855 M 323.99998,574.66663 c -0.37667,18.24984 -5.96442,42.00301 -2.12345,59.80249 1.25649,5.82275 16.13193,5.8715 19.98559,2.82715 6.09513,-4.81519 3.06454,-22.14901 6.74178,-29.29525 9.13428,-17.75114 33.61121,-13.33439 50.06274,-13.33439 v 119.99999 c 0,19.18335 2.96936,41.12272 -0.43929,60 -3.52384,19.51538 -18.09826,8.12378 -28.08951,16.03703 -3.76148,2.97916 -2.13786,11.72338 -2.13786,15.96297 h 111.99999 v -17.33333 c -7.90893,0 -18.8199,2.05208 -24.80761,-4.30453 -8.56141,-9.0887 -5.85905,-26.96037 -5.85905,-38.36214 v -97.33333 -38.66666 c 2.8e-4,-4.45426 -1.24911,-11.73381 3.09053,-14.62964 11.93571,-7.96468 41.7148,-0.48429 47.68314,11.9681 3.95704,8.25594 0.83179,20.15381 5.65019,27.57104 2.75505,4.24105 13.64893,4.33789 17.81893,2.28597 4.2124,-2.07275 3.08883,-8.69368 3.09053,-12.5288 0.006,-12.4987 -1.32771,-24.81608 -1.33333,-37.33334 -0.002,-4.3881 1.17647,-11.31404 -4.19751,-12.9095 -17.35132,-5.15137 -42.99544,-0.42383 -61.13582,-0.42383 H 323.99998 m 187.99999,214.66666 v 17.33333 h 83.99999 v -17.33333 c -9.16723,0 -21.01578,1.66552 -26.05249,-8.05762 -4.59501,-8.87044 4.69007,-41.93197 12.06584,-48.47119 2.70931,-2.40202 6.61414,-2.11361 9.98665,-2.13688 15.99829,-0.11003 32.0013,-9.8e-4 48,-9.8e-4 5.51237,0 14.85099,-1.76139 19.33439,2.13786 8.30355,7.22152 19.56596,41.90153 12.0874,51.05045 -5.75696,7.04273 -15.31791,5.47836 -23.42179,5.47836 v 17.33333 h 106.66666 v -17.33333 c -24.03564,-0.0663 -28.2806,-19.53467 -35.43416,-38.66667 -15.33512,-41.01318 -30.27547,-82.46232 -44.12138,-123.99999 -4.00512,-12.01538 -11.45642,-51.34562 -25.78291,-51.97428 -8.64421,-0.37932 -28.08989,-3.41594 -35.47018,1.34464 -9.12687,5.88721 -13.32682,31.32064 -17.08951,41.29631 -14.38127,38.12772 -27.92546,76.55924 -42.35803,114.66666 -8.27381,21.84602 -13.58138,57.25064 -42.41048,57.33333 M 763.99995,591.99996 c 9.53768,0 22.1888,-1.65494 27.8138,8.0586 6.56332,11.3339 2.85287,31.28133 2.85287,43.9414 v 94.66666 c 0,12.15104 3.30444,30.16707 -2.09668,41.32821 -5.54207,11.45255 -17.93091,9.33846 -28.56999,9.33846 v 17.33333 h 112 v -17.33333 c -7.49504,0 -17.64103,1.82812 -23.85498,-3.24488 -7.35905,-6.00789 -6.81112,-16.18823 -6.81169,-24.75512 v -54.66667 c 5.97477,0 15.61922,-1.82845 20.89502,1.37036 6.33813,3.84286 9.68571,15.05127 13.20581,21.29631 10.71289,19.00602 18.87508,41.91333 33,58.66153 17.70638,20.99488 48.03295,18.6718 72.89916,18.6718 v -17.33333 c -13.97648,-0.64795 -23.61043,-11.52751 -30.84667,-22.66667 -14.83334,-22.83366 -26.9419,-47.44629 -41.15332,-70.66666 41.72257,-12.01953 62.1818,-74.17944 25.33227,-103.30965 -30.38696,-24.0214 -79.67464,-18.02368 -115.99893,-18.02368 h -42.66667 c -3.97379,0 -11.80355,-1.43034 -14.62964,2.13786 -2.76652,3.493 -1.37036,11.00195 -1.37036,15.19547 m 262.66665,197.33333 v 17.33333 h 112 v -17.33333 c -10.4873,0 -23.1985,2.18465 -28.463,-9.33846 -5.4168,-11.85661 -2.2037,-29.89494 -2.2037,-42.66154 v -96 c 0,-10.51277 -4.5233,-34.74389 1.3704,-43.57617 3.2046,-4.80232 12.3757,-3.09082 17.2963,-3.09049 15.5182,0.001 29.9743,2.61637 33.7736,20 1.3113,5.99984 -0.099,16.95662 3.7984,21.86214 2.7636,3.47819 14.3397,3.13647 18.0042,1.33333 4.5913,-2.25919 3.053,-9.83585 2.5246,-13.86214 -1.5543,-11.84407 -0.7621,-24.06657 -0.7675,-36 -0,-4.3881 1.1765,-11.31404 -4.1975,-12.9095 -12.9099,-3.83276 -31.6598,-0.42383 -45.1358,-0.42383 h -100 c -13.0828,0 -38.52319,-4.96224 -50.24283,0.80453 -4.47193,2.20044 -3.09025,9.81274 -3.0905,13.86214 -7.3e-4,11.23372 -0.44897,22.16162 -1.21403,33.33333 -0.2587,3.77832 -1.27335,10.6748 1.25106,13.86214 3.08146,3.89062 17.95101,3.663 20.3066,-0.95264 4.3182,-8.46134 0.7978,-20.01513 5.5792,-28.88997 6.6846,-12.40722 21.9234,-12.02034 34.0772,-12.01953 4.1342,2.4e-4 10.6277,-1.09652 13.8621,2.13786 3.4463,3.44629 2.1379,10.7876 2.1379,15.19547 v 37.33333 96 c 0,11.26937 3.1355,29.1534 -4.5772,38.52164 -6.2172,7.5516 -17.3866,5.47836 -26.0895,5.47836 M 845.33328,594.66663 c 13.55225,0 30.77327,-2.79158 42.66561,5.13892 19.83756,13.22884 21.07845,58.63012 6.21403,76.1409 -8.49544,10.00794 -21.7509,11.99321 -34.21297,12.05253 -3.72892,0.0177 -10.64177,1.21468 -13.29631,-2.13688 -3.89713,-4.92049 -1.37036,-18.51147 -1.37036,-24.52881 v -66.66666 m -221.33332,16 29.33333,99.99999 h -65.33333 l 23.11113,-66.66666 12.88887,-33.33333 M 15.999999,839.99995 v 6.66666 H 1167.9999 l -33.3333,40 h -1.3333 c -3.37,-4.78401 -16.4536,-22.79899 -23.5175,-18.55143 -7.7234,4.64421 12.805,20.0446 13.962,25.2181 1.4689,6.5682 -19.4833,29.50268 -25.4919,32.10498 -5.2874,2.28987 -10.2955,-6.25326 -13.179,-9.43832 -10.7583,-11.88378 -22.5587,-22.78336 -33.3333,-34.66666 -2.6413,-2.91309 -12.5189,-14.81307 -17.0113,-8.52262 -4.0935,5.73193 7.2826,14.56209 10.571,17.85595 9.5672,9.58325 18.5035,19.71737 28.0051,29.33333 4.1025,4.15186 11.3092,9.09156 13.4332,14.66667 1.6229,4.2596 -2.5783,7.76172 -5.0649,10.66667 -6.7895,7.93196 -14.3804,15.45882 -20.3734,23.99999 h -1.3334 c -20.299,-28.81673 -51.0548,-55.01472 -75.99996,-79.99999 -3.14844,-3.15348 -23.58439,-27.60238 -27.65845,-18.23665 -2.7989,6.4344 13.53133,19.215 17.37248,23.56998 20.82235,23.60783 45.07343,44.23258 65.72013,68 52.9307,60.93099 113.4308,115.60639 168.4465,174.66669 22.2406,23.8755 46.005,46.4764 67.893,70.6666 15.8353,17.5008 32.951,39.7554 52.2263,53.3334 3.1899,-13.556 -5.7535,-20.4059 -14.6666,-29.3334 -14.295,-14.3178 -28.8627,-28.9942 -42.4404,-44 -48.5681,-53.6764 -99.7148,-106.1354 -150.893,-157.3333 -13.128,-13.1331 -25.5471,-26.8804 -38.6666,-39.99999 -3.7222,-3.72217 -13.1959,-10.23511 -13.2644,-16 -0.1203,-10.11752 20.8786,-25.20687 26.5977,-33.33333 h 1.3333 l 33.2809,35.99999 68.0329,70.66663 93.3529,97.3334 37.3333,37.3333 c 3.1883,-13.5493 -5.748,-20.4147 -14.6666,-29.3333 -13.1288,-13.1288 -25.5364,-26.8697 -38.6667,-40 -41.2913,-41.2913 -81.6531,-83.9413 -121.4526,-126.66669 -11.3258,-12.15837 -23.1197,-23.99414 -34.5999,-36 -4.3316,-4.52995 -12.1706,-9.71826 -14.5648,-15.6193 -1.5463,-3.81136 2.8697,-7.19955 5.0792,-9.71916 5.152,-5.87492 17.9473,-27.08113 26.8714,-20.93319 10.8111,7.44792 18.8461,19.66895 28.0052,28.93832 21.6726,21.93343 43.1036,44.11148 64.1141,66.66666 22.251,23.88676 45.3748,47.07526 67.9332,70.66666 10.077,10.5384 22.2044,20.0614 30.6142,32 h 1.3333 c 0,-25.7124 -27.6606,-42.1922 -43.7737,-60 -34.6517,-38.2964 -72.4668,-73.70279 -107.1193,-111.99999 -10.8505,-11.99178 -27.2971,-22.8291 -35.1646,-37.10693 -3.3717,-6.11882 7.7358,-14.70036 11.4579,-18.89307 15.0841,-16.99169 21.7395,-28 45.2664,-28 h 52 77.3333 v -6.66666 h -144 c 28.9956,-35.61003 60.5253,-69.52425 90.8735,-103.99999 10.7,-12.15536 32.5441,-29.22982 35.7932,-45.33334 -13.9508,2.15292 -25.984,23.2347 -34.8735,33.33334 -24.9731,28.36979 -49.516,57.13883 -74.681,85.33332 -7.7458,8.67823 -18.7379,27.30746 -30.4455,30.24284 -10.8273,2.71468 -24.8498,0.42383 -36,0.42383 H 1057.3333 809.33328 15.999999 M 1085.3333,1333.3333 c -8.0609,-11.4435 -19.6229,-20.5665 -29.2809,-30.6667 -22.993,-24.0459 -46.5869,-47.6531 -69.26649,-72 -81.44645,-87.4341 -166.79271,-171.2332 -248.23859,-258.66666 -26.4812,-28.42806 -53.74634,-56.53222 -81.21403,-83.99999 -3.61287,-3.61288 -22.21622,-28.02287 -27.93725,-20.50822 -5.36609,7.0485 16.60962,23.79419 20.70475,28.50822 24.42741,28.11946 51.72013,54.83398 77.90429,81.33332 87.26025,88.31043 171.94897,179.13003 258.642,268.00003 20.62652,21.1444 40.45752,43.1046 61.35282,64 12.4215,12.4214 18.8454,24 37.3334,24 m 60,0 c -11.4834,-16.3047 -27.4329,-29.7706 -41.3138,-44 -23.6381,-24.2316 -47.4882,-48.558 -70.5669,-73.3334 -76.39594,-82.0122 -154.38299,-163.215 -233.45159,-242.66663 -27.60474,-27.73844 -55.83105,-55.98665 -81.71508,-85.33332 -3.3051,-3.74724 -23.35531,-28.35401 -28.63574,-20.52263 -4.64388,6.88721 16.77311,24.2793 21.01643,28.52263 26.67529,26.67529 51.99528,54.65168 78.66667,81.33332 88.41771,88.45193 171.63695,182.16133 260.00001,270.66663 18.7122,18.7425 38.104,37.475 55.6193,57.3334 11.6419,13.1993 21.7726,27.9979 40.3807,28 m 129.3333,0 c -29.3887,-41.7601 -73.1013,-75.9972 -107.8807,-113.3334 -77.7088,-83.4217 -157.3074,-165.5621 -237.4475,-246.66663 -27.60449,-27.93668 -54.2469,-56.94628 -81.39094,-85.33332 -3.79956,-3.97356 -22.34863,-27.27425 -28.3313,-20.5031 -5.19393,5.8785 16.43498,24.54785 20.38379,28.5031 26.65682,26.6997 51.99462,54.66129 78.66666,81.33332 53.09424,53.09423 104.16379,108.40183 156.05249,162.66663 31.9954,33.4606 66.2792,65.2828 96.9001,100 20.8164,23.6011 44.1464,44.9748 65.5948,68 11.5974,12.45 19.3221,25.3313 37.4526,25.3334 m 53.3333,-2.6667 c 3.6928,-12.8579 -8.0948,-22.0523 -16.1193,-30.6667 -19.852,-21.3114 -41.4466,-41.0702 -60.9877,-62.6666 -84.5046,-93.3928 -173.8442,-184.2502 -262.89296,-273.33336 -24.87842,-24.88802 -48.49715,-51.04451 -73.33227,-75.99999 -4.98397,-5.00814 -17.80786,-25.01302 -26.23869,-21.78402 -4.40999,1.68913 -1.67285,7.2557 0.15023,9.78402 5.32943,7.39103 13.0262,13.53369 19.41561,20 27.5957,27.92781 54.6962,56.60432 81.45776,85.33332 74.89972,80.40613 152.46072,158.67273 229.19452,237.33333 23.2398,23.8234 46.29,47.9359 69.3003,72 12.8111,13.3976 24.8118,29.2641 40.0525,40 m 0,-308 c 0,-18.8366 -12.5368,-26.57169 -24.3807,-39.99999 -25.5282,-28.94336 -53.6608,-56.70817 -80.9526,-84 -9.0628,-9.06282 -17.3584,-19.19596 -26.6862,-27.92187 -2.5316,-2.36817 -7.4366,-6.84652 -11.1554,-4.01538 -4.1975,3.19564 1.0807,9.41512 3.3199,11.93725 8.593,9.67839 18.3283,18.27889 26.9024,28 19.2213,21.79272 41.0249,41.40202 60.8333,62.66666 16.1806,17.37012 32.7304,39.67403 52.1193,53.33333 m -365.33329,310.6667 c -7.76538,-13.4341 -21.3042,-23.536 -31.94751,-34.6667 -23.02287,-24.0772 -46.30395,-47.916 -69.33333,-72 L 714.61413,1073.3333 c -32.34956,-33.8309 -67.15193,-65.9992 -97.84667,-101.33336 -24.83895,-28.59326 -52.64917,-55.87996 -79.43416,-82.66666 -6.42956,-6.43001 -12.65181,-14.19059 -20,-19.56999 -2.40991,-1.76416 -7.26574,-3.96793 -8.99178,0 -2.88147,6.62419 16.63049,23.0791 21.01131,27.56999 25.88761,26.53792 51.11304,53.7976 77.3138,79.99999 86.50577,86.51133 173.69213,174.61853 255.77367,265.33333 20.66764,22.8415 42.56616,44.751 64.22118,66.6667 11.73959,11.8809 18.10702,23.998 36.00513,24 m -66.66666,0 c -13.05583,-18.5343 -32.06421,-34.5443 -47.99487,-50.6667 -23.81763,-24.1043 -47.18905,-48.8302 -70.6193,-73.3333 C 702.92623,1131.464 629.5186,1052.1852 553.3333,975.99994 c -27.56177,-27.56177 -53.83126,-56.36572 -81.33231,-83.99999 -3.75094,-3.76905 -23.27747,-30.20321 -29.23869,-21.85596 -5.23242,7.32682 16.8418,24.11963 21.23767,28.52262 26.02222,26.06405 52.3929,52.68668 77.10697,80 83.23201,91.98579 171.16938,181.60969 258.89301,269.33329 20.44564,20.4457 39.61279,42.1796 60.00106,62.6667 11.4047,11.4599 19.02994,22.6648 35.99894,22.6667 m 121.33335,0 c -11.4011,-16.1852 -27.51272,-29.8524 -41.31383,-44 -23.67977,-24.2744 -47.18872,-48.8148 -70.6337,-73.3334 C 828.74832,1135.853 753.08402,1054.4173 674.66663,975.99994 646.94291,948.27623 618.3121,920.067 592.38062,890.66661 c -3.28398,-3.7233 -22.58077,-28.64819 -28.0638,-20.52262 -4.77092,7.07023 16.73665,24.24284 21.01648,28.52262 26.21256,26.21257 51.42325,53.45915 77.31379,80 86.88672,89.06919 170.70507,181.34639 258.68619,269.33329 18.70833,18.7097 38.12133,37.4947 55.6193,57.3334 11.64192,13.1993 21.7727,27.9979 40.38072,28 m 189.3333,0 c -13.3055,-18.8888 -33.0151,-35.6039 -49.3323,-52 -24.7835,-24.9036 -48.9899,-50.5957 -73.2819,-76 -73.1644,-76.5148 -145.37684,-154.2949 -220.05351,-229.33336 -27.50114,-27.63444 -53.7653,-56.43123 -81.33227,-83.99999 -3.71851,-3.71875 -23.52181,-29.85954 -29.23763,-21.85596 -5.2439,7.34285 16.85327,24.09074 21.2325,28.52262 25.80689,26.11751 51.59676,52.77425 76.23144,80 30.69857,33.92739 64.09717,65.59449 95.72119,98.66669 54.50168,56.9975 108.29218,114.8847 164.05248,170.6666 20.4327,20.4406 39.5627,42.228 60,62.6667 11.7718,11.7726 18.6938,22.6667 36,22.6667 m 121.3333,-381.33336 c -0,-25.68538 -33.3467,-49.34667 -50.6666,-66.66666 -3.9081,-3.90804 -15.5615,-19.86711 -22.1842,-15.88477 -6.9844,4.19979 9.9886,19.35075 12.9701,22.55144 18.3273,19.67464 37.9192,44.52986 59.8807,59.99999 M 481.3333,1333.3333 c -13.01521,-18.4767 -32.05281,-34.6433 -47.99898,-50.6667 -23.89672,-24.0125 -47.19168,-48.8371 -70.61519,-73.3333 -73.58827,-76.9585 -146.15219,-155.3119 -221.38581,-230.66669 -27.54115,-27.58553 -53.776522,-56.43262 -81.333324,-84 -3.611984,-3.61336 -22.188279,-28.52661 -27.90432,-20.52262 -5.254448,7.35758 16.860488,24.05558 21.218108,28.52262 25.659559,26.30396 51.591516,52.75268 76.245876,80 30.70122,33.93019 64.09507,65.59229 95.72119,98.66669 53.63067,56.0866 106.50661,113.1207 161.38579,168 20.44141,20.4414 39.56535,42.2242 60,62.6666 11.1296,11.1339 18.19201,21.3316 34.66666,21.3334 m 233.33332,0 c -10.06754,-14.4622 -23.82836,-25.9926 -35.9475,-38.6667 -23.86092,-24.9537 -48.39754,-49.4009 -71.93315,-74.6667 -75.96793,-81.5528 -153.49278,-162.3268 -232.11831,-241.33329 -27.1431,-27.27458 -55.335,-54.95443 -80.56685,-84 -3.29213,-3.78971 -23.21397,-28.58195 -28.65226,-20.52262 -4.64748,6.88737 17.03939,24.34391 21.2181,28.52262 25.78585,25.78581 50.21649,52.87321 75.99999,78.66666 52.18429,52.20433 102.37264,106.65043 153.38582,160.00003 31.5122,32.9554 65.4805,64.2461 95.38167,98.6666 20.64481,23.7652 44.32328,44.9661 65.77982,68 11.59737,12.45 19.32214,25.3313 37.45267,25.3334 m 112,0 c -5.61857,-12.0482 -18.89836,-21.0241 -27.8807,-30.6667 -23.13574,-24.8366 -47.53133,-48.4972 -70.66666,-73.3333 -79.04699,-84.8583 -162.28734,-165.8096 -241.33328,-250.66669 -26.33069,-28.26644 -52.87015,-56.61784 -80.12036,-84 -6.40861,-6.43961 -12.65751,-14.19547 -19.99898,-19.56998 -2.40991,-1.76416 -7.26574,-3.96802 -8.99178,0 -2.88147,6.62418 16.6305,23.0791 21.01131,27.56998 25.44857,26.08781 50.22237,52.9069 75.98047,78.66666 86.36954,86.37503 170.19082,175.71073 254.61416,264.00003 20.86181,21.8171 41.36751,43.9733 62.71915,65.3333 11.44385,11.4483 17.4729,22.6648 34.66667,22.6667 m -169.33333,0 c -24.86376,-35.2972 -62.43456,-64.3892 -91.88065,-96 -81.42683,-87.413 -168.19762,-170.0892 -248.34566,-258.66669 -25.57323,-28.26286 -52.82402,-55.71704 -79.77366,-82.66666 -3.57141,-3.57146 -22.52812,-27.63835 -27.93723,-20.50822 -5.17064,6.81575 16.20414,23.84415 20.31789,28.50821 24.28629,27.53516 51.05358,53.97437 76.95369,80 86.69274,87.11286 169.30528,178.22066 255.99795,265.33336 19.94205,20.0386 38.67227,41.3378 58.66768,61.3333 11.92008,11.9201 18.46105,22.6667 35.99999,22.6667 m 116,0 c -12.69995,-18.0292 -31.16301,-33.6483 -46.66154,-49.3334 -24.26343,-24.5554 -48.08638,-49.7073 -71.95263,-74.6666 -73.16333,-76.5141 -145.37809,-154.2961 -220.0535,-229.33336 -27.50122,-27.63444 -53.76529,-56.43123 -81.33231,-83.99999 -3.70418,-3.70443 -22.10746,-28.34107 -27.93723,-20.52263 -5.31726,7.13119 15.66591,22.87175 19.93211,27.18929 25.774,26.08431 52.13053,52.50008 76.38577,80 30.20235,34.24259 64.00797,65.66239 95.56685,98.66669 53.62752,56.0835 106.51167,113.1259 161.38582,168 20.43969,20.4397 39.58072,42.2145 59.99999,62.6666 11.12069,11.1386 18.19808,21.3316 34.66667,21.3334 m -171.99999,0 c -11.10116,-15.7594 -26.55571,-28.9048 -39.98047,-42.6667 -24.07943,-24.6843 -48.39062,-49.4288 -71.90018,-74.6667 -74.22725,-79.6841 -149.7787,-158.9926 -226.786,-235.99996 -27.10111,-27.10107 -53.20861,-55.22249 -79.98044,-82.66666 -3.61294,-3.7037 -21.94241,-28.89827 -27.92387,-20.52262 -5.23039,7.32389 16.83937,24.12402 21.23765,28.52262 25.61053,25.61214 51.47021,51.80712 75.77366,78.66666 81.95324,90.57246 168.52165,178.95656 254.89299,265.33336 18.71622,18.7174 38.11401,37.4863 55.61934,57.3333 11.39266,12.9167 20.87056,26.6646 39.04732,26.6667 m -58.66667,0 c -11.65706,-16.5486 -28.35921,-31.0259 -42.66666,-45.3334 -23.30062,-23.3006 -46.50268,-46.8453 -69.28084,-70.6666 -74.87915,-78.3085 -150.1092,-156.7185 -226.71914,-233.33336 -27.34277,-27.34456 -54.14428,-55.15543 -81.32818,-82.66666 -3.42412,-3.46533 -22.6135,-29.18872 -27.823051,-19.55558 -4.10085,7.583 16.542901,22.94718 21.151231,27.55558 25.77806,25.77807 50.57027,52.57828 76.01955,78.66666 l 154.66664,158.66666 c 30.76871,31.5416 63.79019,61.6252 92.93314,94.6667 21.12162,23.9471 44.46895,46.7535 67.04732,69.3333 11.44083,11.4416 19.00667,22.6648 35.99999,22.6667 M 15.999999,899.99995 c 0.002,17.85969 12.001978,26.66861 23.999999,38.66666 19.109053,19.10905 36.943672,39.51692 56.001024,58.66666 80.926538,81.31873 157.756448,166.69763 238.666638,248.00003 19.62728,19.7224 39.77328,39.3708 58.43929,60 11.88017,13.1296 21.39644,27.9978 40.22636,28 -21.15332,-30.0297 -52.21309,-54.4945 -77.21399,-81.3334 C 300.19649,1191.9659 242.09158,1133.9692 185.38579,1074.6666 150.88407,1038.5849 115.4826,1003.1982 81.452667,966.66661 61.090171,944.80723 40.472506,917.23871 15.999999,899.99995 m 0,67.99999 c 0,17.60693 9.747095,23.6901 21.213991,35.99996 15.417853,16.5513 30.804042,33.3257 46.786005,49.3334 45.751445,45.8251 89.977855,93.2098 134.719125,140 20.46273,21.3998 42.63373,41.6508 62.04836,64 16.45282,18.9396 34.82218,36.923 52.56583,54.6666 11.68539,11.6854 17.486,21.3334 34.66667,21.3334 L 309.45266,1271.9999 173.38579,1130.6666 70.719132,1023.9999 15.999999,967.99994 m 0,63.99996 c 0.0029,26.3858 38.156009,54.1273 55.999997,72 54.127584,54.2147 110.535654,108.8425 160.767484,166.6667 9.34306,10.7552 20.12252,20.1119 29.67283,30.6667 12.62136,13.9487 24.1617,31.9978 44.22634,32 l -45.28086,-48 -102.59979,-106.6667 -98.784976,-102.6667 -44.001025,-44 m 0,69.3334 c 0,23.7692 26.594638,42.5946 42.666664,58.6666 40.923398,40.9234 83.115297,82.4448 121.333327,125.8992 14.5497,16.5432 35.55005,47.4316 58.66666,47.4342 l -24,-26.6667 -41.21398,-42.6667 -101.400205,-105.3333 -56.052466,-57.3333 m 0,73.3333 c 0.0022,19.933 17.389607,32.0511 30.666665,45.3333 26.837604,26.848 54.510206,54.1986 79.619336,82.6667 12.12495,13.747 23.61844,30.6645 43.04732,30.6667 -22.06914,-31.3298 -54.80681,-57.647 -81.280855,-85.3334 -22.822407,-23.8675 -44.990527,-54.2705 -72.052466,-73.3333 m 0,64 c 0,17.0226 8.746241,22.7137 19.880657,34.6667 13.720639,14.7293 27.417054,29.5918 41.472219,44 9.617182,9.8587 15.253382,15.9984 29.313785,16 l -39.880658,-42.6667 -50.786003,-52 m 0,64 c 0.0021,18.9173 12.094911,30.6667 30.666665,30.6667 z"
       id="path1" />
  </g>
</svg>
