<?xml version="1.0" encoding="UTF-8" standalone="no"?>
<!-- Created with Inkscape (http://www.inkscape.org/) -->

<svg
   version="1.1"
   id="svg1"
   width="1333.3333"
   height="1333.3333"
   viewBox="0 0 1333.3333 1333.3333"
   sodipodi:docname="startLeft.svg"
   inkscape:version="1.4.2 (ebf0e940d0, 2025-05-08)"
   xmlns:inkscape="http://www.inkscape.org/namespaces/inkscape"
   xmlns:sodipodi="http://sodipodi.sourceforge.net/DTD/sodipodi-0.dtd"
   xmlns="http://www.w3.org/2000/svg"
   xmlns:svg="http://www.w3.org/2000/svg">
  <defs
     id="defs1" />
  <sodipodi:namedview
     id="namedview1"
     pagecolor="#505050"
     bordercolor="#eeeeee"
     borderopacity="1"
     inkscape:showpageshadow="0"
     inkscape:pageopacity="0"
     inkscape:pagecheckerboard="0"
     inkscape:deskcolor="#505050"
     showgrid="false"
     inkscape:zoom="0.59400004"
     inkscape:cx="666.66663"
     inkscape:cy="666.66663"
     inkscape:window-width="1920"
     inkscape:window-height="995"
     inkscape:window-x="0"
     inkscape:window-y="0"
     inkscape:window-maximized="1"
     inkscape:current-layer="g1" />
  <g
     inkscape:groupmode="layer"
     inkscape:label="Image"
     id="g1">
    <path
       style="fill:#00ff00;stroke:none"
       d="m 11.999999,695.99996 c 8.164617,1.15364 12.459269,-6.43457 17.400204,-12 11.341918,-12.77547 22.439928,-25.7686 33.641974,-38.66667 47.594333,-54.8002 95.653613,-109.19864 143.248973,-163.99999 13.51792,-15.56453 26.96142,-31.19205 40.58229,-46.66666 2.58284,-2.93433 13.00356,-11.82959 10.24589,-16.4506 -3.04675,-5.10539 -14.41762,10.44547 -16.16152,12.4506 -14.70719,16.91016 -29.5541,33.69376 -44.18931,50.66666 -42.75415,49.58342 -86.17857,98.59896 -129.144018,147.99999 -12.375854,14.22958 -24.703963,28.51123 -37.164607,42.66667 -6.523885,7.41121 -14.851839,14.68701 -18.459876,24 M 1198.6666,557.3333 l 5.3333,5.33333 -5.3333,-5.33333 M 181.33332,734.66662 c -31.71689,0.0874 -50.95062,35.00317 -23.9465,58.04321 52.59884,44.87752 173.09375,6.45785 148.24793,-74.04321 -11.77495,-38.15112 -58.78253,-44.43953 -88.30143,-62.7541 -16.89339,-10.48124 -31.71433,-29.10779 -19.70062,-49.24483 10.8127,-18.12394 36.49611,-19.19352 50.08333,-3.94759 8.26983,9.27937 10.07499,21.5559 12.28395,33.27986 24.62195,-0.003 56.744,-22.68766 30.41976,-47.38061 -11.26402,-10.566 -26.33905,-13.54484 -41.08642,-15.64714 -51.79521,-7.38354 -110.70189,23.13762 -96.13374,83.02775 10.35644,42.57568 60.88071,47.93196 92.13374,68.32511 16.05607,10.47689 26.5142,29.46753 15.70062,47.67488 -13.32762,22.44035 -47.07177,24.4056 -64.78806,6.43522 -11.36983,-11.53295 -14.90222,-28.14729 -14.91256,-43.76855 M 323.99998,574.66663 c -0.7075,8.96493 -1.33333,17.64103 -1.33333,26.66667 0,8.71484 -3.80213,26.57307 -0.47634,34.24283 2.06716,4.76726 17.46083,4.67863 20.44033,0.95264 7.60746,-9.51343 0.40332,-25.05648 10.84671,-34.91048 6.57797,-6.20671 39.60409,-13.70369 44.38477,-2.75415 5.23429,11.98852 0.80452,34.72884 0.80452,47.80249 v 87.99999 c 0,13.0791 2.86849,30.11963 -1.07202,42.66667 -5.27433,16.7941 -18.06946,5.93538 -27.45678,13.37036 -3.76148,2.97916 -2.13786,11.72338 -2.13786,15.96297 h 111.99999 v -17.33333 c -7.90893,0 -18.8199,2.05208 -24.80761,-4.30453 -8.56141,-9.0887 -5.85905,-26.96037 -5.85905,-38.36214 v -98.66666 -36 c 0,-4.208 -1.09461,-10.54891 1.37036,-14.24284 3.34021,-5.00553 13.49218,-3.09244 18.62963,-3.09049 30.2874,0.0117 32.76669,18.4161 36,44 h 21.33333 l -1.33333,-44 -1.37036,-17.86214 -13.2963,-2.13786 h -36 -150.66666 m 187.99999,214.66666 v 17.33333 h 83.99999 v -17.33333 c -9.16723,0 -21.01578,1.66552 -26.05249,-8.05762 -4.55647,-8.79606 4.76217,-41.99593 12.06584,-48.47119 2.70931,-2.40202 6.61414,-2.11361 9.98665,-2.13688 15.99829,-0.11003 32.0013,-9.8e-4 48,-9.8e-4 5.51237,0 14.85099,-1.76139 19.33439,2.13786 8.30355,7.22152 19.56596,41.90153 12.0874,51.05045 -5.75696,7.04273 -15.31791,5.47836 -23.42179,5.47836 v 17.33333 h 106.66666 v -17.33333 c -24.03564,-0.0663 -28.2806,-19.53467 -35.43416,-38.66667 -15.33545,-41.01416 -30.22957,-82.47631 -44.12138,-123.99999 -4.0201,-12.01644 -11.44531,-51.34513 -25.78291,-51.97428 -8.78703,-0.38558 -28.06055,-3.39486 -35.62451,1.34464 -9.0599,5.67684 -13.22917,31.47095 -16.93518,41.29631 -14.3818,38.1291 -27.92631,76.56143 -42.35803,114.66666 -8.27381,21.84602 -13.58138,57.25064 -42.41048,57.33333 M 763.99995,591.99996 c 9.53768,0 22.1888,-1.65494 27.8138,8.0586 6.56332,11.3339 2.85287,31.28133 2.85287,43.9414 v 94.66666 c 0,12.15104 3.30444,30.16707 -2.09668,41.32821 -5.54207,11.45255 -17.93091,9.33846 -28.56999,9.33846 v 17.33333 h 112 v -17.33333 c -7.49504,0 -17.64103,1.82812 -23.85498,-3.24488 -7.35905,-6.00789 -6.81112,-16.18823 -6.81169,-24.75512 v -54.66667 c 5.89608,0 15.65885,-1.86067 20.82821,1.37036 6.27962,3.92497 9.75016,15.04712 13.27262,21.29631 10.71289,19.00602 18.87508,41.91333 33,58.66153 17.76017,21.0586 47.98583,18.6718 72.89916,18.6718 V 789.33329 C 971.35679,788.68534 961.72284,777.80578 954.4866,766.66662 939.65872,743.84143 927.54145,719.21496 913.33328,695.99996 957.30854,683.3315 975.12177,619.1073 935.99994,590.56995 905.92695,568.63327 857.75605,574.66663 822.66662,574.66663 h -42.66667 c -3.97379,0 -11.80355,-1.43034 -14.62964,2.13786 -2.76652,3.493 -1.37036,11.00195 -1.37036,15.19547 m 262.66665,197.33333 v 17.33333 h 112 v -17.33333 c -10.4873,0 -23.1985,2.18465 -28.463,-9.33846 -5.4168,-11.85661 -2.2037,-29.89494 -2.2037,-42.66154 v -96 c 0,-10.51277 -4.5233,-34.74389 1.3704,-43.57617 4.7932,-7.18302 30.4732,-3.52482 37.2963,-0.61824 22.3884,9.53711 4.995,46.14493 33.2551,41.33024 5.9732,-1.01766 5.619,-6.88607 5.2923,-11.80249 -0.8304,-12.49561 -1.2133,-24.77246 -1.2141,-37.33333 -3e-4,-4.58439 1.4883,-12.55485 -4.1975,-14.24284 -12.9099,-3.83276 -31.6598,-0.42383 -45.1358,-0.42383 h -100 c -13.0828,0 -38.52319,-4.96224 -50.24283,0.80453 -4.47193,2.20044 -3.09025,9.81274 -3.0905,13.86214 -7.3e-4,11.64038 -1.03117,23.09749 -1.3138,34.66666 -0.0867,3.54899 -1.01684,9.53939 1.35083,12.52881 3.08447,3.89445 17.94539,3.65926 20.3066,-0.95264 3.3728,-6.58805 1.5031,-16.40201 3.5751,-23.57617 4.4977,-15.57283 19.5335,-17.33243 33.4146,-17.33333 4.6707,-3.3e-4 12.8838,-1.50716 16.5288,2.13786 3.4463,3.44629 2.1379,10.7876 2.1379,15.19547 v 37.33333 96 c 0,11.26937 3.1355,29.1534 -4.5772,38.52164 -6.2172,7.5516 -17.3866,5.47836 -26.0895,5.47836 M 845.33328,594.66663 c 13.85482,0 30.42171,-2.59082 42.66561,5.29321 19.91821,12.82569 20.88403,58.72709 6.21403,75.98661 -8.39201,9.87333 -21.91284,11.99394 -34.21297,12.05253 -3.72892,0.0177 -10.64177,1.21468 -13.29631,-2.13688 -3.89713,-4.92049 -1.37036,-18.51147 -1.37036,-24.52881 v -66.66666 m -221.33332,16 29.33333,99.99999 h -65.33333 l 22.66667,-65.33333 13.33333,-34.66666 M 10.666666,702.66662 c 2.15006,13.9939 20.013493,28.31039 29.126542,38.66667 25.374426,28.83618 54.534626,57.63859 76.206782,89.33333 H 0 v 6.66666 h 58.666663 38.666664 c 19.496663,0 25.866933,0.82097 39.042183,16 3.22688,3.71761 10.16435,9.05274 7.78189,14.66667 -5.13181,12.09244 -22.95866,22.81599 -32.15741,32 L 34.666665,977.33327 C 20.150696,991.84922 0,1003.6639 0,1025.3333 23.716996,1008.6267 44.783088,983.2169 65.333329,962.66661 l 41.333331,-41.33333 32,-32 c 3.734,-3.73259 9.07302,-11.28703 14.66152,-12.10498 7.57908,-1.10921 28.87021,25.25602 24.72222,32.10498 -9.62483,15.89192 -28.92881,28.37296 -42.05041,41.33846 -30.84734,30.48038 -61.310928,61.35516 -91.999993,91.99486 C 27.334751,1059.3051 0,1074.6839 0,1099.9999 c 27.984701,-19.7128 52.999656,-50.442 77.333329,-74.6676 l 49.333331,-49.33236 c 14.80251,-14.80257 29.13083,-30.41585 44.76749,-44.33952 4.4927,-4.00048 10.70475,-12.47932 16.54629,-14.05143 7.65962,-2.06144 27.22615,23.5009 22.31071,30.39095 -14.9986,21.02368 -38.54059,37.99398 -56.95885,56.01956 -32.64623,31.9501 -63.849009,65.4478 -97.451642,96.3807 C 36.946602,1117.8298 0,1143.7471 0,1170.6666 c 35.622071,-25.0927 64.482789,-64.4771 95.999994,-94.6142 28.853306,-27.5899 57.064886,-55.8294 85.333326,-84.05246 13.13465,-13.11361 29.26687,-24.76302 40,-40 h 1.33333 c 6.04167,9.13363 13.89547,16.99496 20.97119,25.33333 2.31936,2.73324 6.76424,6.6731 6.19239,10.66667 -0.78366,5.47257 -8.82318,10.99292 -12.49691,14.66666 l -37.33333,37.3333 c -47.98061,47.9621 -97.35851,94.6919 -145.333327,142.6667 -17.557379,17.5574 -54.66378674,41.9411 -54.666663,68 14.706187,-9.1987 26.465353,-23.7987 38.666664,-36 l 65.333326,-65.3333 c 65.7652,-65.7653 132.87782,-130.2112 198.66666,-196.00002 23.32104,-23.32105 47.32271,-45.98942 70.66666,-69.33333 3.97319,-3.97315 22.41427,-17.75196 17.27059,-24.50822 -5.01392,-6.58586 -16.94161,8.18042 -19.93726,11.17488 l -37.33333,37.33333 c -5.21486,5.21452 -10.75293,13.09481 -18.66666,13.33334 -1.32532,8.87475 -9.4281,14.93001 -15.77366,20.715 -14.30438,13.04085 -27.10301,29.49561 -42.89301,40.61833 -5.56286,-11.9458 -19.07112,-26.39095 -29.33333,-34.66667 v -1.33333 c 12.84975,-9.0516 23.56167,-22.22835 34.66667,-33.33333 l 22.66666,-22.66667 c 8.25004,-8.25 18.91488,-16.16967 25.89815,-25.45263 2.00403,-2.66407 4.61086,-9.28304 -0.87038,-9.92595 -6.76713,-0.79386 -14.19287,9.87834 -18.3611,14.04525 -16.23033,16.2251 -33.09584,31.76253 -49.33333,48 -4.45811,4.45817 -16.75757,21.63167 -23.88066,17.81893 -3.26468,-1.74748 -5.74932,-5.74195 -8.11934,-8.4856 -3.52297,-4.07845 -11.57088,-10.4541 -12.29014,-16 -1.07149,-8.2618 18.86106,-22.57096 24.29014,-28 3.16949,-3.16943 21.16361,-17.35221 13.85596,-22.57096 -4.62075,-3.29997 -11.00643,3.83138 -13.85596,6.59155 -11.21533,10.86336 -24.33791,21.87606 -33.33333,34.64608 h -1.33333 l -23.1893,-28 -4.32304,-11.18213 -8.81585,-4.13371 -18.33848,-20.68416 H 1333.3333 v -6.66666 h -812 -262.66665 -85.33333 c -13.75024,0 -29.08385,1.91862 -42.66666,-0.19751 -11.11862,-1.73218 -21.63837,-19.70809 -28.5607,-27.80249 C 81.12206,778.12967 59.905433,753.79943 38.840533,729.33329 31.590188,720.91223 22.193895,704.48287 10.666666,702.66662 M 1265.3333,839.99995 c 1.1648,6.97868 5.837,7.01774 9.3333,1.33333 l -9.3333,-1.33333 m 50.6666,0 c -9.7454,1.62435 -1.6244,9.74544 0,0 M 771.99995,1333.3333 c 18.92009,0 27.23869,-12.5721 40,-25.3334 l 65.33333,-65.3333 278.66662,-278.66666 84,-83.99999 c 4.7486,-4.74862 26.6641,-21.16032 22.4846,-28.88892 -2.0236,-3.74186 -6.6071,-1.66422 -9.1512,0.13989 -7.8856,5.59213 -14.5127,13.92831 -21.3334,20.74903 l -88,87.99999 -249.33329,249.33336 -81.33333,81.3333 c -13.64746,13.6474 -30.21459,26.8823 -41.33333,42.6667 m -58.66666,0 c 19.40682,0 28.27645,-13.6098 41.33333,-26.6667 21.99308,-21.9931 44.65307,-43.3198 66.66666,-65.3333 92.22151,-92.2216 186.46012,-182.4602 278.66662,-274.66669 28.4442,-28.44417 56.8435,-56.93408 85.3334,-85.33235 4.4917,-4.47722 27.8706,-21.1027 22.5709,-28.5236 -2.3219,-3.2513 -6.8786,-0.80746 -9.2376,0.94751 -7.8216,5.81884 -14.4322,14.03963 -21.3333,20.90747 -29.1569,29.01619 -58.8855,57.55305 -88,86.66763 -78.9983,78.99833 -157.90123,158.71863 -238.66669,235.94753 -31.57617,30.1935 -62.41731,61.1484 -93.33332,92.0525 -14.43823,14.4326 -32.18254,27.2237 -44,44 m -171.99999,0 c 18.92012,0 27.23869,-12.5721 40,-25.3334 22.46085,-22.4608 45.54203,-44.2086 67.99999,-66.6666 60.8986,-60.8986 122.36783,-121.2307 183.99999,-181.3529 31.34709,-30.5791 60.73429,-63.69547 93.33333,-92.93415 29.24162,-26.22738 56.22607,-55.27238 83.99999,-83.0463 4.6248,-4.62484 27.1437,-21.73877 23.7655,-28.90332 -1.8484,-3.92009 -6.6215,-1.81348 -9.0988,0 -8.0418,5.88672 -15.3458,14.20312 -22.6667,21.02262 -30.27376,28.20068 -58.74316,58.62386 -87.99999,87.88069 -85.99234,85.99236 -174.00105,170.00096 -259.99998,255.99996 -22.15039,22.1504 -43.93376,44.7582 -66.54732,66.4352 -15.57996,14.9347 -34.30876,29.1852 -46.78601,46.8982 m 118.66666,0 c 18.41593,0 26.20874,-11.5421 38.66666,-24 19.79761,-19.7977 38.86247,-41.072 60,-59.4342 30.58919,-26.5728 57.66341,-57.5869 86.66666,-85.8796 66.58032,-64.9492 132.87988,-130.2328 198.66662,-196.01956 28.2184,-28.21842 57.096,-55.76261 85.3334,-83.99999 4.2958,-4.29574 28.465,-23.20557 22.8652,-29.84155 -6.5382,-7.74813 -26.7218,17.69807 -30.8652,21.84155 -29.129,29.12898 -57.8688,58.71825 -88,86.78596 -85.30146,79.45999 -166.83954,164.05349 -249.33335,246.54739 -27.79638,27.7963 -56.21834,54.885 -83.99999,82.6666 -13.22396,13.224 -29.22559,26.0378 -40,41.3334 m -170.66666,0 c 18.92009,0 27.23869,-12.5721 40,-25.3334 21.27409,-21.2741 41.9862,-43.3743 64,-63.8807 95.73201,-89.1762 187.47321,-183.5925 279.99998,-276.11926 27.79622,-27.79622 56.20231,-54.86897 83.99999,-82.66666 4.48381,-4.48381 28.11198,-22.60644 22.60384,-29.84155 -2.37483,-3.11947 -6.9086,-0.61564 -9.2705,1.08748 -7.86581,5.67171 -14.49024,13.91097 -21.33333,20.75407 -29.12687,29.12687 -58.89168,57.55835 -88,86.66666 -85.34391,85.34386 -171.99421,169.32756 -257.33332,254.66666 -25.56673,25.5667 -51.7596,50.4263 -77.33333,76 -12.37662,12.3766 -27.24776,24.349 -37.33333,38.6667 m 114.66666,0 c 17.31983,-0 26.8676,-12.4528 38.66768,-24.0196 22.43596,-21.9923 44.4504,-44.4319 66.66565,-66.6471 92.21207,-92.2121 186.45263,-182.4526 278.66665,-274.66666 27.78186,-27.7819 56.24426,-54.91276 83.99996,-82.66666 4.5394,-4.53906 28.0724,-22.52197 22.6039,-29.85596 -5.8874,-7.89575 -26.6735,17.92562 -30.6039,21.85596 -29.1225,29.12256 -58.8743,57.54101 -87.99996,86.66666 -85.3448,85.34476 -171.98152,169.32026 -257.33332,254.66666 -25.53548,25.5338 -51.77237,50.439 -77.33333,76 -12.37666,12.3766 -27.24776,24.3489 -37.33333,38.6667 m 237.33332,0 c 19.40674,0 28.27645,-13.6098 41.33333,-26.6667 22.0022,-22.0022 44.64884,-43.3155 66.66667,-65.3333 62.22592,-62.226 125.15652,-123.7551 188.00102,-185.3529 29.4412,-28.8571 57.0832,-60.3317 87.999,-87.59976 29.4217,-25.95028 56.2577,-55.30509 84,-83.04736 4.4327,-4.4327 28.1547,-22.68962 22.6038,-29.83642 -2.567,-3.30494 -7.0747,0.19205 -9.2705,2.03499 -7.366,6.18229 -14.2831,13.35335 -21.3333,19.92073 -29.815,27.77319 -57.8533,57.73397 -86.6667,86.54736 -74.4281,74.42806 -148.3066,150.79536 -225.33333,222.54736 -33.80289,31.488 -65.98298,64.7816 -98.66666,97.4526 -16.12964,16.1234 -36.15486,30.625 -49.33333,49.3334 M 0,951.99994 c 26.048717,-18.34912 48.166984,-45.50032 70.666662,-67.99999 3.382467,-3.38249 24.121856,-19.81071 16.522633,-25.23763 -7.046381,-5.03223 -21.721312,14.43636 -25.855965,18.57096 L 19.999999,918.66661 C 9.1871561,929.47944 0.00175908,936.06277 0,951.99994 m 110.66666,381.33336 c 18.92012,0 27.23868,-12.5721 40,-25.3334 22.00494,-22.0049 44.64774,-43.3144 66.66666,-65.3333 91.33121,-91.3312 184.68212,-180.688 275.99998,-271.99999 l 81.33333,-81.33333 c 4.45968,-4.45964 27.53927,-21.63184 23.78499,-28.90845 -1.98177,-3.84114 -6.5522,-1.87329 -9.11832,0.005 -8.19446,5.99854 -15.02283,14.54199 -22.66667,21.28402 -30.4156,26.82682 -57.991,57.61034 -86.66666,86.28596 -77.25915,77.25916 -154.41824,155.36836 -233.71397,230.55966 -30.72766,29.1372 -60.33624,59.4905 -90.28601,89.4403 -14.84386,14.8439 -33.19312,28.0989 -45.33333,45.3334 m 193.33332,0 c 17.05127,-0 27.0084,-12.4856 38.66667,-24.0052 22.35257,-22.0866 44.44665,-44.4415 66.66666,-66.6615 90.873,-90.8731 183.79182,-179.7918 274.66665,-270.66666 27.78662,-27.78662 56.07397,-55.07796 83.99999,-82.67179 4.5586,-4.50439 28.05762,-22.53654 22.60384,-29.85083 -5.88737,-7.89575 -26.67358,17.92562 -30.60384,21.85596 -28.6774,28.67741 -57.98323,56.6499 -86.66666,85.33333 -84.45039,84.45039 -170.20474,167.53809 -254.66665,251.99999 -25.5428,25.5428 -51.76745,50.4341 -77.33333,76 -12.37664,12.3766 -27.24776,24.3489 -37.33333,38.6667 m 122.66666,0 c 18.56555,0 26.6071,-12.0545 39.35185,-24.3138 22.70548,-21.8408 45.02608,-44.0642 67.31481,-66.3529 90.88297,-90.883 183.79809,-179.7981 274.66665,-270.66666 27.78564,-27.78564 54.53255,-57.62874 84,-83.6193 4.77783,-4.21411 28.07397,-21.19775 22.57096,-28.90332 -2.32406,-3.25423 -6.87492,-0.80265 -9.23763,0.94646 -7.87012,5.82633 -14.43555,14.00325 -21.33333,20.9095 -28.6364,28.67155 -57.99333,56.65999 -86.66667,85.33333 -79.49153,79.49149 -159.18252,159.10829 -239.99485,237.28079 -30.0577,29.0759 -59.75781,58.4719 -89.33846,88.0525 -13.34179,13.3418 -30.49979,25.9538 -41.33333,41.3334 M 691.99996,998.66661 c 0.33073,10.55189 -11.7782,18.44479 -18.66667,25.33329 -19.79508,19.7951 -40.22127,38.888 -59.99999,58.6667 -52.69527,52.6953 -105.97444,104.6411 -158.66666,157.3333 -30.35665,30.3567 -60.55025,66.006 -94.66666,92 14.5083,6.088 24.15515,-6.8218 33.33333,-16 22.01798,-22.018 44.43265,-43.5934 66.66768,-65.3528 97.01912,-94.9442 193.34443,-190.6593 289.3323,-286.64716 25.9812,-25.9812 52.65991,-51.32666 78.66666,-77.33333 3.05054,-3.05045 27.43677,-23.64306 17.00822,-27.05045 -4.4183,-1.44352 -8.82699,3.1062 -11.67489,5.77571 -9.14795,8.57504 -17.80061,17.74203 -26.66666,26.60808 -26.89502,26.89501 -54.46419,53.13085 -81.33333,79.99999 -8.64608,8.64608 -20.30607,26.3029 -33.33333,26.66667 M 0,1323.9999 l 15.999999,-14.6666 1.333333,8 h 2.666667 c 1.877655,-4.0916 0.702522,-8.8322 2.63683,-12.5659 6.729317,-12.9893 24.347391,-25.085 34.696501,-35.4341 26.469338,-26.4694 52.96274,-52.8658 79.99999,-78.7192 74.40444,-71.1464 147.21356,-144.4944 219.99999,-217.28083 27.03943,-27.03938 53.354,-55.15071 81.33333,-81.21402 5.15552,-4.80241 28.29813,-20.59269 23.81791,-29.02262 -4.95845,-9.32976 -25.51904,15.93798 -29.15124,19.56998 -27.56356,27.56185 -55.83142,54.5306 -83.61934,81.89917 C 261.56232,1051.3871 172.8258,1137.8464 85.333328,1225.3333 l -62.666663,62.6666 C 11.225349,1299.4412 0.00187568,1307.0063 0,1323.9999 m 46.666664,9.3334 c 18.920124,0 27.238681,-12.5721 39.999997,-25.3334 20.694609,-20.6946 40.910659,-42.0568 62.286009,-62.0483 94.35233,-88.2442 185.01893,-181.2566 276.38064,-272.61833 27.79268,-27.79264 56.20125,-54.86791 83.99999,-82.66666 4.35824,-4.35823 26.70113,-21.37508 21.27059,-28.50822 -2.37488,-3.11946 -6.90865,-0.61564 -9.27059,1.08749 -7.86584,5.67171 -14.49023,13.91097 -21.33333,20.75407 -28.67786,28.67789 -58.00732,56.67398 -86.66666,85.33332 -84.0122,84.01223 -169.32305,166.65643 -253.33332,250.66663 -25.56865,25.5687 -51.76119,50.4279 -77.333328,76 -11.95287,11.9529 -26.258966,23.5048 -35.999998,37.3334 m 131.999996,0 c 18.92012,0 27.23868,-12.5721 39.99999,-25.3334 21.77741,-21.7774 43.50338,-43.6076 65.33333,-65.3323 90.64819,-90.211 182.88944,-178.8905 273.33332,-269.33433 27.79826,-27.79825 56.21228,-54.8789 83.99999,-82.66666 4.35824,-4.35823 26.70113,-21.37508 21.27059,-28.50822 -5.83667,-7.66658 -25.52681,16.76441 -29.27059,20.50822 -28.68684,28.68685 -57.99145,56.65812 -86.66666,85.33333 -84.46195,84.46186 -170.20567,167.53906 -254.66665,251.99996 -25.56325,25.5633 -51.75795,50.4247 -77.33333,76 -11.95288,11.9529 -26.25897,23.5048 -35.99999,37.3334 m 61.33333,0 c 18.92012,0 27.23868,-12.5721 39.99999,-25.3334 22.01274,-22.0127 44.65578,-43.3224 66.66667,-65.3333 90.08141,-90.0814 179.82315,-181.0063 271.87551,-269.0874 27.99804,-26.7902 55.38195,-54.17008 82.79113,-81.57925 4.62484,-4.62484 27.14372,-21.73877 23.76546,-28.90332 -1.84839,-3.92009 -6.6215,-1.81348 -9.09879,0 -7.55323,5.52913 -14.45793,13.28475 -21.33334,19.68929 -29.81489,27.77311 -57.8533,57.73404 -86.66666,86.54735 -84.64888,84.64883 -171.35065,167.35063 -255.99998,252.00003 -22.62457,22.6246 -44.88631,45.6967 -67.94753,67.8754 -14.68589,14.1241 -32.26481,27.3906 -44.05246,44.1246 M 818.66662,866.66661 v 1.33334 h 8 l -8,-1.33334 m 67.99999,-1.33333 v 2.66667 h 6.66667 l -6.66667,-2.66667 m -561.3333,8 v 2.66667 h 5.33334 v -2.66667 h -5.33334 m 1006.66659,28 c -108.2086,108.20962 -218.3449,214.51902 -326.6666,322.66662 -25.99636,25.9546 -52.66344,51.3301 -78.66669,77.3334 -14.47152,14.4715 -23.97331,29.3451 -45.33333,29.3333 v 1.3333 c 24.40316,7.2133 38.52026,-7.9324 54.66666,-24.001 16.03825,-15.961 32.00033,-31.9993 48,-47.999 54.21226,-54.2122 109.23706,-107.6929 164.00106,-161.3528 30.7314,-30.112 59.5192,-63.1996 91.9989,-91.4147 26.2986,-22.8455 50.0339,-49.26631 74.6667,-73.89912 8.4866,-8.48658 23.0675,-18.33496 17.3333,-32 m -6.6666,37.33333 1.3333,13.33333 h 1.3333 v -13.33333 h -2.6666 m 6.6666,20 c -92.4594,92.46019 -186.2112,183.54459 -278.6666,275.99999 -23.7926,23.7926 -48.2014,46.868 -72.00003,70.6667 -8.80354,8.8035 -18.9095,23.8754 -31.99999,25.3333 v 2.6667 c 5.77262,0 13.18367,1.217 18.66666,-0.8046 8.68758,-3.2031 16.25659,-14.1187 22.66667,-20.5288 16.44409,-16.4441 32.84949,-32.928 49.33329,-49.3323 70.798,-70.4565 141.8173,-140.8841 213.3334,-210.6481 21.3686,-20.8451 42.8693,-41.5555 64,-62.68623 8.4661,-8.46614 20.2561,-17.34651 14.6666,-30.66666 m -5.3333,50.66669 v 10.6666 h 1.3333 l -1.3333,-10.6666 m -981.33329,12 v 1.3333 l 6.66667,-2.6667 -6.66667,1.3334 m 986.66659,1.3333 -217.3333,214.6667 -65.3333,65.3333 -30.6667,30.6667 c 27.4739,0 54.6632,-38.6633 73.3333,-57.3334 58.9064,-58.9063 118.3789,-117.1364 177.3334,-176 16.6748,-16.6491 33.9908,-32.6563 50.6666,-49.3333 7.8858,-7.8862 17.0711,-15.9151 12,-28 m 0,73.3333 c -52.6567,52.6573 -105.3563,105.3095 -158.6666,157.3138 -26.0848,25.4457 -58.9629,50.1548 -80,80.0196 24.3353,0 39.3658,-25.5374 55.9948,-41.2141 46.3827,-43.7263 90.8658,-89.7192 136.0052,-134.7859 12.2316,-12.2121 25.1062,-23.7477 37.3333,-36 7.1942,-7.2092 13.7991,-14.691 9.3333,-25.3334 m 0,65.3334 -120,118.6666 -53.3333,53.3334 c 20.9897,0 30.9061,-16.8622 45.2808,-30.4404 32.2582,-30.4706 63.3367,-62.1772 94.7192,-93.5596 11.2816,-11.2816 41.1815,-29.2975 33.3333,-48 M 15.999999,1174.6666 v 5.3333 l 4,-1.3333 -4,-4 m 1315.999901,65.3333 c -30.1069,30.1073 -68.7803,58.4776 -93.3333,93.3334 17.3476,0 24.1772,-9.5105 36,-21.3334 l 41.3333,-41.3333 c 8.5021,-8.5021 21.6934,-17.099 16,-30.6667 m -1315.999901,2.6667 v 2.6667 h 2.666667 v -2.6667 h -2.666667 m 1315.999901,58.6667 -32,32 c 15.041,0 39.8779,-13.2264 32,-32 m -521.33328,26.6666 c 3.79134,6.1808 9.35685,5.3326 16,5.3334 -4.52727,-5.4354 -9.27377,-5.3282 -16,-5.3334 z"
       id="path1" />
  </g>
</svg>
