<?xml version="1.0" encoding="UTF-8" standalone="no"?>
<!-- Created with Inkscape (http://www.inkscape.org/) -->

<svg
   version="1.1"
   id="svg1"
   width="1333.3333"
   height="1333.3333"
   viewBox="0 0 1333.3333 1333.3333"
   sodipodi:docname="startAngleUL.svg"
   inkscape:version="1.4.2 (ebf0e940d0, 2025-05-08)"
   xmlns:inkscape="http://www.inkscape.org/namespaces/inkscape"
   xmlns:sodipodi="http://sodipodi.sourceforge.net/DTD/sodipodi-0.dtd"
   xmlns="http://www.w3.org/2000/svg"
   xmlns:svg="http://www.w3.org/2000/svg">
  <defs
     id="defs1" />
  <sodipodi:namedview
     id="namedview1"
     pagecolor="#505050"
     bordercolor="#eeeeee"
     borderopacity="1"
     inkscape:showpageshadow="0"
     inkscape:pageopacity="0"
     inkscape:pagecheckerboard="0"
     inkscape:deskcolor="#505050"
     showgrid="false"
     inkscape:zoom="0.59400004"
     inkscape:cx="666.66663"
     inkscape:cy="666.66663"
     inkscape:window-width="1920"
     inkscape:window-height="995"
     inkscape:window-x="0"
     inkscape:window-y="0"
     inkscape:window-maximized="1"
     inkscape:current-layer="g1" />
  <g
     inkscape:groupmode="layer"
     inkscape:label="Image"
     id="g1">
    <path
       style="fill:#00ff00;stroke:none"
       d="m 875.99995,401.33331 h 1.33333 c 28.45809,41.61865 67.53116,76.74788 99.1739,115.99999 11.91887,14.78508 1.22925,16.05428 -4.73152,29.33333 -1.98845,4.42977 2.2478,10.20752 6.89607,10.77157 6.49357,0.78792 15.46696,-10.35221 19.99488,-14.20988 18.29529,-15.58699 36.99069,-30.94718 54.66669,-47.22835 v -1.33333 l -9.3334,-10.66667 c -5.6778,3.75513 -12.597,12.20548 -20,11.32918 -10.2592,-1.21443 -18.2477,-14.85327 -24.36104,-21.99585 -18.32976,-21.41568 -36.94759,-42.58365 -55.27783,-63.99999 -8.01953,-9.36971 -16.21306,-18.59106 -24.18514,-28 -2.71704,-3.20671 -7.13403,-7.37866 -4.66667,-11.8807 4.95052,-9.03295 22.98494,-22.70971 33.82406,-19.17692 12.32234,4.01628 21.70068,25.80331 34.16463,9.34261 6.12548,-8.08976 -17.96704,-28.51733 -23.45061,-34.28393 -2.64762,-2.78426 -6.29817,-8.63582 -10.76651,-8.10701 -6.02629,0.71321 -12.86906,9.30216 -17.28085,13.0782 l -42.66666,36.72217 c -17.84692,15.27523 -35.69783,30.58032 -53.33333,46.09879 -5.00944,4.40804 -16.45142,10.8208 -18.20687,17.55965 -1.32959,5.10392 5.7579,11.09082 8.6071,14.64714 7.42195,9.26375 20.78727,35.30851 33.38167,21.20784 9.41723,-10.54354 -11.33089,-22.45736 -9.59977,-34.54118 1.97501,-13.78654 18.28458,-20.43155 25.81787,-30.66666 m -445.33331,28 c 79.92252,0 160.22643,0.8789 239.99999,-2.61418 29.44262,-1.28922 63.30289,5.44629 91.99999,-1.38582 v -2.66667 c -22.20093,-6.5625 -52.81933,-1.33333 -76,-1.33333 -59.51419,0 -119.19664,2.66276 -178.66665,2.66666 h -57.33333 c -6.82947,0 -17.40837,-2.47534 -20,5.33334 m -6.66667,0 c -8.50012,22.69694 -7.88179,51.96524 -11.04219,75.99999 -7.07015,53.76855 -13.66431,107.61906 -21.13167,161.33333 -2.9006,20.86442 -5.20764,41.81217 -8.18726,62.66666 -1.46256,10.23649 -5.18465,23.31242 -2.30554,33.33333 h 2.66667 c 8.78987,-25.96533 8.94787,-58.11417 12.20678,-85.33333 6.17941,-51.61206 13.45382,-103.12117 20.16874,-154.66666 l 8,-61.33332 c 1.29912,-9.97242 5.09526,-22.24024 2.29114,-32 h -2.66667 m 255.99999,138.66666 h 1.33333 c 5.39299,-5.15796 13.02344,-13.89038 21.32821,-10.52678 12.11938,4.90861 22.18733,22.20768 30.49796,31.86011 23.15478,26.89331 55.12142,54.48518 72.6512,85.3282 6.10083,10.73421 -20.27189,29.66797 -3.09058,34.21085 5.7155,1.51123 13.48902,-8.10717 17.27987,-11.47216 14.04158,-12.4642 28.37467,-24.66199 42.66666,-36.8385 4.22705,-3.6014 15.19173,-9.85608 12.71192,-16.56067 -6.11068,-16.5214 -19.86874,6.49984 -30.04525,1.99894 -19.08545,-8.44124 -28.70263,-35.09277 -45.33333,-47.33333 v -1.33333 c 4.57039,-3.20687 9.08366,-9.12964 14.66667,-10.41765 6.32389,-1.45898 15.5013,4.17652 21.33333,6.35075 17.58659,6.55656 37.26033,17.82186 56,19.83545 25.10034,2.6971 39.78043,-14.62117 58.66666,-27.76855 -6.04183,-17.75871 -18.75659,-5.27018 -32,-7.74072 -26.76391,-4.99276 -52.81185,-17.17961 -78.66666,-25.59261 3.95028,-10.18474 8.35718,-20.81698 7.86108,-32 -1.32926,-29.96419 -27.51806,-56.96183 -58.52774,-51.38061 -30.59082,5.50577 -54.83659,31.96622 -77.33333,51.38061 l -30.66667,26.49284 c -3.08252,2.66072 -8.92309,6.19514 -8.87243,10.84562 0.0461,4.22648 4.87329,7.92757 7.5391,10.66154 m 86.66666,-66.22331 c 33.38094,-5.465 60.73274,46.36816 37.31274,70.21818 -3.40975,3.47233 -8.236,9.40218 -13.30761,10.33024 -7.74919,1.41805 -19.16464,-17.09163 -23.64405,-22.32511 L 744.00101,533.3333 c -2.55468,-2.98543 -7.53296,-7.43709 -6.2264,-11.8807 1.653,-5.62182 10.91748,-10.86523 15.55868,-13.85286 4.07991,-2.6263 8.48608,-5.02946 13.33333,-5.82308 M 625.3333,843.99995 v 1.33333 l 9.33333,10.66667 h 1.33333 l 54.66666,-46.66667 c -8.18786,-24.06656 -25.56957,9.98951 -38.38272,-10.67179 -3.84595,-6.20158 -15.29411,-25.42977 -12.87549,-32.70988 3.17716,-9.56347 22.33329,-20.57487 29.92488,-27.11116 5.05172,-4.34937 14.84025,-16.74113 21.89917,-16.74894 9.18498,-0.0102 38.14127,18.46435 37.2181,28.57511 -0.57731,6.32292 -8.295,11.84163 -12.4506,16 v 1.33333 l 8,9.33334 25.33333,-18.87346 47.99999,-41.12654 -9.33333,-12 c -21.70337,12.03524 -34.49731,1.43359 -54.66666,-10.10498 -30.18197,-17.26648 -60.18774,-34.89502 -90.66666,-51.63574 -11.23824,-6.17269 -22.08508,-13.03092 -33.33333,-19.18522 -4.81702,-2.63558 -9.37582,-5.90926 -14.66667,-2.69645 -6.49931,3.9467 -22.22127,14.97713 -24.28296,22.51538 -2.63322,9.62805 9.32166,29.28165 12.70785,38.44034 12.66792,34.26302 25.72904,68.375 38.31274,102.66667 7.33577,19.99064 21.40177,40.76106 3.92904,58.66666 M 935.99994,645.33329 v 1.33334 l 397.33336,18.66666 v -10.66666 l -189.3334,-9.28085 -207.99996,-0.0525 m -338.66664,16 75.99999,48 c -6.70951,14.2688 -29.36967,30.34936 -42.66666,38.66666 l -24.19959,-59.99999 -9.13374,-26.66667 m 246.66665,41.33333 c 163.15915,0 326.19655,24 489.33335,24 v -10.66666 c -68.948,0 -139.2183,-5.83708 -208,-10.54737 -50.2422,-3.44059 -102.0916,-0.79882 -152.00003,-7.3518 -30.50349,-4.00513 -63.88712,-4.7557 -94.66666,-4.7675 -14.57405,-0.006 -24.99731,-4.34497 -34.66666,9.33333 m -334.66665,-8 -75.99999,65.70882 -57.33333,48.95784 34.66666,44 h 1.33333 l 13.33334,-12 v -1.33333 c -13.63261,-17.73568 -20.33118,-30.7946 -1.33334,-47.23144 3.47327,-3.00505 9.25619,-10.49292 14.54733,-8.61215 9.12593,3.24374 19.17834,20.57292 25.45267,27.84359 18.79012,21.77368 37.64477,43.49707 56.36112,65.33333 6.97897,8.14225 20.0365,18.66439 22.70988,29.33333 2.15609,8.60449 -7.87492,15.53255 -13.73767,20 2.03398,3.91732 5.44609,10.27425 10.66768,10.20573 5.22233,-0.0685 10.97905,-7.40698 14.66565,-10.5669 12.47844,-10.69547 24.82361,-21.54247 37.33333,-32.20051 4.70057,-4.00489 19.56791,-12.88379 19.74382,-19.55762 0.10657,-4.04256 -4.94519,-9.64697 -9.12964,-8.97949 -14.25407,2.27376 -16.27197,16.20158 -30.38782,1.0782 -23.56083,-25.24243 -45.39233,-52.42716 -67.86523,-78.64607 -10.11271,-11.79842 -20.02258,-26.56396 -32.36112,-36 v -1.33333 c 9.74496,-6.78385 20.40674,-22.02799 33.33333,-21.98144 11.81608,0.0425 18.5813,18.25268 29.33333,16.7736 4.85218,-0.6674 9.67587,-6.48324 13.33334,-9.45882 v -1.33334 l -38.66667,-40 m 277.33332,60 161.33332,7.94751 254.66666,12.17179 130.6667,6.54737 v -10.66667 c -43.9913,0 -88.0798,-4.69076 -132,-6.61418 -92.9194,-4.06917 -185.7475,-9.36914 -278.66669,-13.43831 -32.79541,-1.4362 -65.83308,-5.26823 -98.66666,-5.28084 -14.98218,-0.006 -27.37329,-4.67806 -37.33333,9.33333 m 546.66668,77.33333 v -10.66667 c -71.5219,0 -143.2501,-7.48665 -214.6667,-10.61417 -67.7083,-2.96509 -136.54321,-3.19271 -203.99999,-9.61223 -32.97151,-3.13769 -66.87231,-4.71793 -99.99999,-5.11206 -5.99829,-0.0714 -28.85816,-5.7128 -30.89095,2.81063 -2.06568,8.66179 24.28434,7.7124 29.55761,7.84164 33.00301,0.80867 67.22274,1.10481 100,4.97216 58.91739,6.95166 119.46472,4.4458 178.66662,8.5 79.8894,5.47103 161.2319,11.8807 241.3334,11.8807 M 687.99996,1333.3333 h 10.66666 c 0,-84.0738 10.13713,-169.4628 15.8807,-253.3334 6.23869,-91.10046 6.00399,-184.07743 17.45264,-274.66662 -14.49821,6.76612 -13.16708,23.37647 -13.33846,37.33334 -0.36101,29.40462 -2.76742,60.04719 -5.55453,89.33332 -7.29272,76.62936 -9.30054,153.87096 -14.55965,230.66666 -3.87256,56.5492 -10.54736,113.9675 -10.54736,170.6667 m 51.99999,0 h 10.66667 c 0.004,-34.1112 4.21769,-68.6475 6.54736,-102.6667 6.82154,-99.6113 16.28345,-200.2078 18.76644,-299.99999 0.76896,-30.9056 2.6499,-62.5533 5.57918,-93.33333 0.50082,-5.26204 4.95264,-28.23339 -3.0319,-29.43831 -8.77132,-1.32357 -7.13558,22.85986 -7.63476,28.10498 -2.91821,30.66341 -5.18669,62.54117 -5.56478,93.33333 -1.65373,134.68692 -25.31291,269.28412 -25.32821,404.00002 M 373.33331,998.66661 h -1.33333 c -22.88119,23.97949 -8.58496,55.41289 25.33333,51.76859 56.53173,-6.0742 109.6033,-92.79797 51.98046,-132.30358 -31.97696,-21.92302 -69.74104,5.01741 -102.64712,8.30761 -15.81686,1.58155 -34.76247,-5.7146 -37.08128,-23.77262 -2.10567,-16.39811 14.21346,-32.30639 30.41461,-30.41976 11.07088,1.28923 20.20369,8.31299 28,15.7531 19.33162,-13.73275 23.58711,-47.12842 -6.66667,-49.21192 -15.7017,-1.08129 -30.83402,8.17627 -42.66666,17.49284 -30.96371,24.3794 -51.8854,70.94661 -15.94753,101.76643 33.23105,28.49846 70.69065,1.14893 106.61419,-3.16357 17.3601,-2.08415 34.42557,5.12622 38.58951,23.78288 4.70594,21.08504 -19.69331,43.05439 -39.92284,41.09669 -14.30241,-1.384 -25.02413,-11.4605 -34.66667,-21.09669 M 1333.3333,879.99995 v -10.66667 c -127.5958,0 -255.0799,-17.15397 -382.66669,-18.67179 -29.08162,-0.34595 -60.51058,-0.97795 -89.33333,-4.76237 -5.045,-0.66236 -26.48128,-3.69499 -27.37858,3.55867 -1.15942,9.37224 20.72103,6.40894 26.04525,7.10799 28.82503,3.78475 60.25219,4.41643 89.33333,4.76237 128.03462,1.5232 255.95422,18.6718 384.00002,18.6718 m -658.66667,-24 c -13.53903,11.9681 -11.60035,29.6027 -12.01954,46.66666 -0.69856,28.43538 -4.12097,56.89656 -5.36629,85.33333 -3.23152,73.79146 -9.44832,147.64176 -14.49483,221.33336 -1.94702,28.4312 -3.38635,56.9025 -5.33333,85.3333 -0.86768,12.6704 0.16251,26.2822 -2.78601,38.6667 h 12 l 6.54732,-109.3334 14.8385,-243.99996 5.40019,-85.33333 1.21399,-38.66666 m 118.66665,477.33335 h 10.66667 c 0,-121.3989 21.02336,-242.6415 22.66154,-364.00003 0.37834,-28.02441 4.98942,-55.9912 5.33333,-83.99999 0.0702,-5.71159 4.82251,-24.9611 -2.83333,-26.99796 -8.59408,-2.28646 -7.78092,19.4305 -7.82821,24.33129 -0.27449,28.46143 -4.98893,56.86393 -5.33846,85.33333 -1.4956,121.80796 -22.66154,243.47736 -22.66154,365.33336 M 1333.3333,930.66661 v -10.66667 c -115.8679,-14.64339 -234.6841,-4.6014 -350.66669,-18.28597 -26.74903,-3.15608 -54.43416,-2.41927 -81.33333,-4.26139 -4.71444,-0.32275 -24.33447,-2.90071 -23.37858,5.14714 0.98763,8.3151 18.99756,5.21582 24.71191,5.96606 26.38289,3.46411 53.61979,0.5363 80,4 33.16979,4.35523 67.90149,3.35588 101.33329,4.81999 82.986,3.63419 166.5303,6.74568 249.3334,13.28084 M 839.99995,1333.3333 h 10.66666 c 0.44361,-53.5928 6.8855,-107.8606 10.54737,-161.3334 3.67602,-53.679 4.58121,-107.7684 9.67895,-161.3333 2.38078,-25.01643 4.79338,-50.87271 5.10189,-75.99999 0.066,-5.37541 4.26074,-22.34928 -2.94035,-24.3313 -8.50553,-2.34106 -7.69287,17.0966 -7.72225,21.66463 -0.16422,25.54826 -2.68554,51.90047 -5.10595,77.33336 -5.09733,53.5606 -6.0031,107.6561 -9.67896,161.3333 -3.68856,53.8619 -10.39844,108.6802 -10.54736,162.6667 m -259.99999,0 h 8 c 0,-83.6451 10.16643,-168.5581 15.88066,-252 2.46411,-35.9825 4.20264,-72.0191 6.66667,-108.00003 1.32918,-19.40966 -0.38542,-41.07901 4.11934,-59.99999 -13.86129,6.18261 -13.24756,19.82926 -13.33435,33.33333 -0.1475,22.94938 -2.54915,46.41976 -4.11833,69.33329 -7.22465,105.4982 -17.21399,211.4708 -17.21399,317.3334 M 1333.3333,975.99994 v -10.66667 c -104.9079,0 -209.7841,-14.74706 -314.6667,-15.99487 -23.60221,-0.28084 -48.60636,-0.36775 -71.99999,-3.43929 -4.88802,-0.64184 -22.15153,-3.35636 -24.4506,2.50415 -3.80135,9.68994 16.03589,7.40292 20.4506,7.82308 24.13647,2.29688 49.07674,3.7347 73.33329,3.7736 105.7693,0.16976 211.5393,16 317.3334,16 M 886.66661,1333.3333 h 10.66667 c 7.5874,-40.8689 5.27921,-85.1941 8.1193,-126.6667 3.61003,-52.716 9.23047,-105.8465 10.52783,-158.6667 0.56844,-23.143 3.74789,-46.188 4.02466,-69.33329 0.0496,-4.14437 4.20101,-22.89274 -5.19954,-20.3313 -6.49309,1.76929 -5.45581,16.55981 -5.47225,21.66463 -0.0727,22.61126 -3.06112,45.39336 -4.05249,67.99996 -4.16797,95.0422 -11.12883,190.4947 -18.61418,285.3334 m 446.66669,-310.6667 v -10.6667 c -92.2374,0 -185.1654,-9.3498 -277.3334,-13.38578 -21.777,-0.95354 -43.5564,-2.94149 -65.33329,-3.89502 -4.38656,-0.19214 -18.87899,-2.30363 -19.76546,4.08642 -1.15634,8.33518 13.87735,6.38078 18.43212,6.58028 21.77683,0.9535 43.55643,2.9414 65.33333,3.895 92.6112,4.0553 185.9856,13.3858 278.6667,13.3858 m -394.66669,310.6667 c 3.21671,-0.011 8.15332,0.737 10.42798,-2.1379 3.11629,-3.9387 1.41967,-11.8515 1.62451,-16.5288 0.58406,-13.3395 2.08097,-26.6445 2.66667,-40 2.83317,-64.6054 6.0476,-130.2949 12.17382,-194.6667 1.71314,-18.0011 3.68547,-36.5822 3.77263,-54.6666 0.0197,-4.0865 1.8295,-14.5501 -2.13062,-17.2181 -6.87256,-4.6302 -8.42733,9.7406 -8.51546,13.2181 -0.51888,20.4821 -3.07137,40.8793 -3.96704,61.3333 -2.45386,56.0391 -6.76799,112.0453 -10.59985,168 -1.86036,27.1653 -0.47893,55.8761 -5.45264,82.6667 m 394.66669,-268 v -10.6667 c -82.2826,0 -164.4429,-11.9631 -246.6667,-12 -19.1279,-0.01 -38.1927,-2.6359 -57.3333,-2.6667 -4.871,-0.01 -16.8327,-3.0302 -19.1173,3.0134 -2.8105,7.435 10.9959,7.5328 15.1173,7.6338 19.5503,0.4789 39.1358,2.6774 58.6666,2.6862 83.1242,0.037 166.1657,12 249.3334,12 m -352.00003,268 h 10.66667 c 0.0475,-71.5816 12.96156,-143.0882 13.33436,-214.6667 0.084,-16.0738 1.1626,-33.3683 3.0463,-49.3333 0.5649,-4.7873 3.0567,-14.2019 -3.1862,-16.4506 -7.4727,-2.6917 -6.56515,9.7709 -7.09363,13.7839 -2.10246,15.966 -3.23649,33.2297 -3.42904,49.3333 -0.86661,72.4755 -13.33024,144.8526 -13.33846,217.3334 m 352.00003,-218.6667 v -10.6667 c -70.2206,-0.046 -140.4447,-10.5493 -210.6667,-10.6666 -16.0185,-0.027 -32.0059,-2.4712 -48,-2.6616 -4.321,-0.051 -14.5573,-1.7318 -15.8848,4.1338 -1.6374,7.235 9.0612,6.4765 13.2181,6.5329 16.4348,0.2231 32.8757,2.6541 49.3334,2.6615 70.6665,0.032 141.3284,10.659 212,10.6667 m -300,218.6667 h 10.6666 c 0.4795,-57.9297 6.8265,-116.8478 10.786,-174.6667 0.9436,-13.7784 1.7887,-27.5452 2.6657,-41.3333 0.2527,-3.9734 2.2972,-11.84 -3.1307,-13.4794 -5.8731,-1.7739 -7.2438,6.9651 -7.5339,10.8127 -1.0704,14.1964 -1.6949,28.4616 -2.6678,42.6667 -3.9851,58.192 -10.625,117.6969 -10.7859,176 m 300,-173.3334 v -10.6666 c -57.3929,0 -114.6332,-7.7243 -172,-8.001 -13.2082,-0.064 -26.8473,-1.2147 -40,-2.4394 -3.8505,-0.3585 -11.0166,-0.9962 -12.3313,3.9455 -1.7204,6.4664 7.1412,6.3224 10.9979,6.6132 13.2321,0.9975 26.7296,2.4833 40,2.5474 57.8203,0.2788 115.4882,8.0009 173.3334,8.0009 m -246.6667,173.3334 h 10.6667 c 0.01,-45.3285 3.0688,-93.6475 8.3807,-138.6667 1.2735,-10.7932 2.3495,-22.4713 2.2746,-33.3333 -0.023,-3.3299 8e-4,-8.573 -4.1276,-9.5577 -4.9237,-1.1743 -6.23,4.7159 -6.4701,8.2295 -0.7578,11.0898 -1.0418,22.2948 -2.3436,33.3282 -5.3643,45.4633 -8.3807,94.2234 -8.3807,140 m 246.6667,-134.6667 v -10.6667 c -47.202,0 -94.2041,-6.1008 -141.3334,-6.6615 -11.1643,-0.1328 -22.1799,-1.4143 -33.3333,-1.3374 -3.3463,0.023 -9.7893,-0.4959 -10.4321,4.1378 -0.6892,4.9681 5.5074,6.2432 9.0998,6.4691 11.1029,0.6984 22.1991,1.2647 33.3323,1.3972 47.5757,0.566 95.0189,6.6615 142.6667,6.6615 m -205.3334,134.6667 h 10.6667 c 4.5199,-35.7644 2.8254,-72.218 7.0474,-108 0.6328,-5.3629 5.2845,-32.4856 -3.1482,-32.4856 -8.9934,0 -7.364,26.4133 -7.7799,32.4856 -2.4648,35.9926 -3.9473,72.0336 -6.786,108 m 205.3334,-88 v -10.6667 c -36.4286,-0.3016 -72.8869,-4.46 -109.3334,-5.3529 -6.4264,-0.1574 -31.2653,-5.9762 -33.6646,2.8251 -2.3492,8.6173 26.9447,7.7096 32.3313,7.8416 36.8716,0.9033 73.8122,5.2511 110.6667,5.3529 m -160,88 h 10.6666 c 0.189,-22.8263 2.0626,-46.5978 4.2263,-69.3334 0.4981,-5.2329 4.4513,-20.9579 -3.0319,-22.9979 -8.1657,-2.2261 -6.9569,15.8953 -7.4803,20.3313 -2.7556,23.3537 -4.3159,48.486 -4.3807,72 m 160,-46.6667 v -10.6667 c -24.8613,0 -51.3624,-0.1992 -76,-3.4341 -4.8878,-0.6418 -22.1516,-3.3564 -24.4506,2.5041 -3.9428,10.0502 18.5308,7.4362 23.1172,7.9774 25.2781,2.9826 51.8752,3.6193 77.3334,3.6193 m -114.6667,46.6667 h 10.6667 c 0,-11.4316 0.3938,-23.317 1.714,-34.6667 0.4691,-4.0332 2.1486,-10.6291 -2.2861,-13.2181 -5.931,-3.4627 -7.4381,5.5645 -7.9876,9.2181 -1.8804,12.5036 -2.107,26.0185 -2.107,38.6667 m 114.6667,-6.6667 v -10.6667 c -14.8466,0 -30.6215,-0.1701 -45.3334,-2.1008 -4.237,-0.5561 -13.4631,-2.163 -14.9979,3.6059 -1.8825,7.0757 9.5825,6.7246 13.6646,7.2624 15.0889,1.988 31.4374,1.8992 46.6667,1.8992 m -72,6.6667 h 10.6666 c -1.8056,-8.4533 -8.861,-8.4535 -10.6666,0 z"
       id="path1" />
  </g>
</svg>
