<?xml version="1.0" encoding="UTF-8" standalone="no"?>
<!-- Created with Inkscape (http://www.inkscape.org/) -->

<svg
   version="1.1"
   id="svg1"
   width="1333.3333"
   height="1333.3333"
   viewBox="0 0 1333.3333 1333.3333"
   sodipodi:docname="startUP.svg"
   inkscape:version="1.4.2 (ebf0e940d0, 2025-05-08)"
   xmlns:inkscape="http://www.inkscape.org/namespaces/inkscape"
   xmlns:sodipodi="http://sodipodi.sourceforge.net/DTD/sodipodi-0.dtd"
   xmlns="http://www.w3.org/2000/svg"
   xmlns:svg="http://www.w3.org/2000/svg">
  <defs
     id="defs1" />
  <sodipodi:namedview
     id="namedview1"
     pagecolor="#505050"
     bordercolor="#eeeeee"
     borderopacity="1"
     inkscape:showpageshadow="0"
     inkscape:pageopacity="0"
     inkscape:pagecheckerboard="0"
     inkscape:deskcolor="#505050"
     inkscape:zoom="0.59400004"
     inkscape:cx="666.66663"
     inkscape:cy="666.66663"
     inkscape:window-width="1920"
     inkscape:window-height="995"
     inkscape:window-x="0"
     inkscape:window-y="0"
     inkscape:window-maximized="1"
     inkscape:current-layer="g1" />
  <g
     inkscape:groupmode="layer"
     inkscape:label="Image"
     id="g1">
    <path
       style="fill:#00ff00;stroke:none"
       d="m 294.66665,449.33331 c 9.19842,2.21525 15.94409,-5.81967 22.66666,-11.19955 17.41759,-13.9388 34.58004,-28.19734 52,-42.13378 71.35152,-57.08325 142.88154,-114.1442 213.33332,-172.33333 20.73857,-17.12882 41.79223,-33.8885 62.66666,-50.85188 3.4644,-2.81527 20.42245,-13.00928 17.09876,-18.65218 -3.58602,-6.0883 -19.48446,9.6132 -22.43209,11.97119 -21.86495,17.49105 -43.46952,35.30761 -65.33333,52.79931 -67.81412,54.25325 -134.95759,109.34806 -202.66665,163.73453 -18.27979,14.68302 -36.35738,29.61751 -54.66667,44.26546 -7.8504,6.28052 -19.18676,12.60343 -22.66666,22.40023 M 671.52978,156.18106 c -5.78934,3.903 10.11947,16.1613 12.47018,18.48047 18.12776,17.88419 37.75805,34.25887 55.99999,52.02465 66.68628,64.94556 135.06396,130.37174 205.33333,191.41462 15.94604,13.8523 31.39542,28.68832 46.66666,43.285 3.1595,3.01993 12.41866,15.33894 17.83646,11.76538 6.324,-4.17131 -10.03234,-16.05917 -12.50313,-18.48861 -18.16471,-17.86108 -37.58699,-34.44881 -55.99999,-52.04842 -67.23763,-64.26749 -135.94059,-127.09626 -203.99999,-190.49486 -15.92,-14.82975 -32.07666,-29.41178 -48,-44.2386 -3.15218,-2.93514 -12.4751,-15.29191 -17.80351,-11.69963 M 154.66666,706.66662 c -35.12135,0.0968 -52.89442,35.90308 -25.32819,61.19442 15.33937,14.07348 38.67991,17.47225 58.66152,17.47225 46.78196,0 99.98199,-17.35507 99.99999,-73.33333 0.003,-8.29883 -0.57322,-16.1027 -3.3961,-24 -13.10215,-36.65491 -57.14721,-44.3422 -87.27056,-61.14917 -18.06726,-10.0804 -37.72398,-28.06591 -28.05967,-50.85083 11.62793,-27.41446 47.32989,-23.69116 60.32717,0 2.75663,5.02474 5.03102,25.34188 9.4897,26.96908 21.68123,7.9126 44.5073,-17.43359 37.94342,-37.63574 -6.18728,-19.04305 -28.90375,-25.22103 -46.36729,-28.10701 -39.53224,-6.53304 -91.53663,3.48535 -105.29526,46.77367 -2.27095,7.14502 -2.70712,13.89144 -2.70473,21.33334 0.0174,54.07702 51.87764,64.7165 90.66666,85.74486 21.92065,11.88371 40.76851,35.75871 21.9609,59.56893 -16.916,21.41536 -51.65845,18.62654 -68.18929,-1.31478 -10.11845,-12.20605 -12.43827,-27.36019 -12.43827,-42.66569 m 149.33332,-167.99999 -1.33333,66.66667 h 22.66666 c 0.26575,-12.875 0.73106,-32.07381 12.05762,-40.4681 11.62317,-8.61409 31.62492,-4.86523 45.27571,-4.86523 v 127.99999 c 0,19.8999 3.32565,43.1333 -0.45369,62.66666 -3.71855,19.21924 -19.50024,6.85628 -29.40845,14.70369 -3.94388,3.12362 -2.13785,12.82992 -2.13785,17.29631 H 469.3333 c 0,-4.46631 1.80603,-14.17269 -2.13785,-17.29631 -10.30078,-8.15844 -25.76327,4.23007 -29.42285,-16.03702 -3.55807,-19.70475 -0.43929,-42.64038 -0.43929,-62.66667 V 559.99997 c 16.42716,0 42.04581,-5.01237 51.88065,12.00512 4.47636,7.74561 0.99849,26.75008 7.59053,31.95785 3.42623,2.7067 19.07715,3.08496 20.8313,-1.72014 1.6036,-4.39274 -0.3022,-12.16194 -0.30249,-16.9095 -9.7e-4,-15.62997 -1.01233,-31.11768 -1.33333,-46.66667 H 303.99998 m 198.66666,225.33332 v 18.66667 h 89.33332 c 0,-4.46631 1.80599,-14.17269 -2.13785,-17.29631 -8.65308,-6.85335 -28.59925,3.55656 -28.00309,-16.03702 0.30261,-9.94588 6.88887,-39.94434 15.77368,-45.2963 10.06343,-6.06193 34.70902,-1.37037 46.36726,-1.37037 8.18616,0 29.20601,-3.74723 34.87553,3.0905 7.51436,9.06282 19.45772,42.68359 11.21293,52.76448 -6.61723,8.09082 -15.96846,1.58268 -22.61727,6.84871 -3.94393,3.12362 -2.13786,12.82984 -2.13786,17.29631 h 113.33333 c 0,-4.46802 1.80575,-14.17057 -2.13786,-17.29631 -5.26245,-4.17114 -13.22054,-1.62052 -19.07096,-6.98868 -7.20239,-6.60865 -10.13265,-16.14291 -13.38688,-25.04834 -15.52466,-42.48405 -30.80013,-85.19051 -45.40019,-127.99999 -6.47762,-18.99333 -11.3848,-47.27181 -23.04113,-63.57617 -4.96676,-6.94727 -27.80094,-3.09408 -35.62964,-3.0905 -3.35974,0.002 -8.18408,-0.76879 -11.06791,1.37037 -9.49292,7.04158 -13.84696,34.31559 -18.00923,45.2963 -15.78768,41.65022 -30.75432,83.61181 -46.35702,125.33332 -8.32918,22.27222 -13.00866,53.31429 -41.89916,53.33333 M 767.99995,538.66663 v 18.66667 c 10.90894,0 24.1967,-2.45418 29.90332,9.33846 5.69133,11.7609 2.09668,31.17147 2.09668,43.99487 v 98.66666 c 0,13.2242 4.10335,34.90755 -2.78597,46.64607 -6.13403,10.45158 -18.88248,8.02059 -29.21403,8.02059 v 18.66667 h 117.33333 v -18.66667 c -7.71769,0 -18.80599,2.06104 -25.15535,-3.24487 -7.01099,-5.85872 -6.84147,-16.4519 -6.84465,-24.75512 v -58.66667 c 6.20003,0 16.73714,-2.02002 22.16154,1.37036 7.01009,4.38159 11.69482,18.15739 15.46395,25.29631 10.53873,19.96085 19.95084,44.21321 34.99389,61.21297 18.05892,20.40779 50.76855,17.45369 75.38064,17.45369 v -18.66667 c -15.27607,-0.32715 -25.29324,-11.75179 -33.02883,-24 -15.12378,-23.94645 -28.1849,-49.17821 -42.97119,-73.33332 47.24112,-19.66838 68.57315,-90.00244 14.66666,-116.97322 -22.5275,-11.27108 -50.08398,-11.02678 -74.66666,-11.02678 h -97.33333 m 229.33332,0 -1.33333,66.66667 h 22.66666 c 0.2657,-12.875 0.731,-32.07381 12.0576,-40.4681 11.6231,-8.61409 31.6249,-4.86523 45.2757,-4.86523 v 127.99999 c 0,19.89974 3.3257,43.13346 -0.4537,62.66666 -3.7185,19.21916 -19.5002,6.85628 -29.4084,14.70369 -3.9439,3.12362 -2.1379,12.82992 -2.1379,17.29631 h 118.6667 c 0,-4.46647 1.8061,-14.17261 -2.1379,-17.29631 -10.3008,-8.15844 -25.7632,4.23007 -29.4228,-16.03702 -3.5581,-19.70475 -0.4393,-42.64038 -0.4393,-62.66667 V 559.99997 c 16.4271,0 42.0459,-5.01229 51.8807,12.00512 4.4763,7.74553 0.9984,26.75008 7.5905,31.95785 3.4262,2.7067 19.0771,3.08496 20.8312,-1.72014 1.6035,-4.39249 -0.3021,-12.16203 -0.3024,-16.9095 -0,-15.62997 -1.0124,-31.11768 -1.3333,-46.66667 H 997.33327 M 853.33328,657.33329 v -70.66666 c 0,-6.27384 -2.67977,-20.74845 1.37036,-25.86214 2.65975,-3.35823 9.56185,-2.14364 13.29631,-2.13786 13.22778,0.0204 27.84318,1.45044 37.04833,12.02059 15.70549,18.03451 14.28166,66.20776 -6.3868,80.17488 -12.74088,8.60986 -30.76879,6.47119 -45.3282,6.47119 m -233.33332,-81.33333 32,105.33333 h -69.33333 l 26.41048,-75.99999 10.92285,-29.33334 m 550.66664,187.99999 -1.3858,48 -0.043,133.33333 -1.2377,388.00002 h 8 l -1.2376,-388.00002 -0.043,-133.33333 -1.3858,-48 h -2.6667 M 111.99999,1333.3333 h 6.66667 V 967.99994 853.33328 l -1.33333,-58.66666 c -9.17279,3.04443 -5.33334,22.58675 -5.33334,30.66666 v 97.33333 410.66669 M 229.33332,819.99995 c -27.89036,0 -51.32389,36.52913 -70.66666,54.54736 -4.11321,3.83154 -22.70345,16.15796 -17.27058,23.29419 5.34907,7.02612 19.40602,-10.64364 22.60391,-13.84155 20.80827,-20.80827 48.40836,-39.97298 65.33333,-64 m 70.66666,0 c -19.24131,0 -26.2925,12.85978 -40,24.7675 -30.46315,26.46337 -59.46152,56.02734 -87.99999,84.56583 -9.11013,9.1101 -18.97697,17.51171 -27.97428,26.68619 -2.62362,2.6753 -8.50133,8.27881 -5.2963,12.48869 3.19567,4.19759 9.41507,-1.08065 11.93725,-3.31991 10.10606,-8.97265 19.29949,-19.00235 29.33333,-28.08137 22.04205,-19.94442 41.95717,-42.26872 64,-62.21387 18.39868,-16.64778 41.71638,-34.6158 55.99999,-54.89306 m 80,0 c -23.99797,0 -43.7169,27.743 -60,44 -42.07682,42.00927 -84.4543,85.78108 -129.33332,124.76749 -14.37069,12.48376 -27.22631,26.66796 -41.33334,39.45886 -3.27808,2.9722 -13.37566,10.8897 -9.27057,16.2819 4.27126,5.6104 13.20772,-4.4887 15.93724,-7.1801 14.11305,-13.9161 28.65265,-27.3142 42.66666,-41.32816 38.32589,-38.32584 77.6675,-76.26448 117.33333,-113.21402 20.93123,-19.49781 47.50777,-39.37337 64,-62.78597 m 81.33333,0 c -17.31023,0.002 -25.65947,10.99284 -37.33334,22.66667 -11.79378,11.79378 -24.20267,22.8693 -35.99999,34.66666 -57.5552,57.55517 -118.4448,111.77815 -175.99999,169.33332 -17.75708,17.7571 -35.71324,36.3027 -54.66667,52.7675 -3.78893,3.2914 -18.10693,13.388 -13.27057,19.7407 5.01387,6.5859 16.94156,-8.1803 19.93724,-11.1749 18.66243,-18.6552 37.76973,-37.1911 57.33333,-54.8929 56.64925,-51.2583 110.98657,-106.0684 165.33332,-159.76859 24.02877,-23.74292 55.17049,-45.66138 74.66667,-73.33846 m 79.99999,0 c -17.99418,0 -27.66414,11.72461 -40,24.00098 -17.17,17.08723 -34.83003,33.57747 -51.99999,50.66471 -40.08118,39.88785 -81.79704,78.30679 -122.66666,117.38676 -33.00232,31.5572 -64.42619,65.3665 -98.66666,95.5668 -24.08004,21.2389 -45.84408,45.0473 -69.33333,66.9281 -4.11324,3.8315 -22.70345,16.1579 -17.27058,23.2942 5.59284,7.3463 21.85861,-13.0976 25.27058,-16.5082 23.11142,-23.1026 47.54595,-44.8882 70.66666,-68 71.54341,-71.5159 146.24389,-139.99897 218.66665,-210.64716 27.34448,-26.67447 62.71411,-51.9541 85.33333,-82.68619 m 70.66666,0 c -17.16805,0 -23.63916,9.47819 -36,20.3807 -22.25858,19.63232 -41.99263,42.14656 -63.99999,62.05956 -91.97819,83.22526 -181.6173,171.17709 -269.33332,258.89309 -27.11257,27.1125 -55.38431,53.037 -82.66666,79.9948 -4.394,4.3417 -27.00537,19.6472 -21.27058,27.18 5.84753,7.6809 25.50317,-16.7805 29.27058,-20.503 27.94051,-27.6081 56.94403,-54.2448 85.33333,-81.391 79.4968,-76.0159 157.83666,-153.213 237.33332,-229.22833 24.49918,-23.42627 48.52766,-47.49292 73.33333,-70.59985 15.6333,-14.56266 35.64693,-29.39453 47.99999,-46.78597 m 70.66666,0 c 12.15129,17.25016 30.41553,31.74886 45.33334,46.66666 26.43318,26.43311 52.21101,53.54435 78.66666,80 75.99983,75.99979 150.65477,153.32149 226.66668,229.33329 27.7747,27.7748 54.8733,56.2067 82.6666,84 3.56,3.56 23.7588,28.3214 29.0165,20.5226 4.3592,-6.466 -17.3286,-23.9098 -21.3972,-28.5226 -24.7519,-28.0631 -53.1581,-53.5388 -79.6193,-80 C 956.2366,1084.2366 870.43159,994.43158 782.66662,906.66661 l -62.66666,-62.66666 c -12.27401,-12.27401 -19.20386,-24 -37.33334,-24 m 72,0 c 24.39819,34.63607 62.64567,62.68969 91.9475,93.33333 67.32471,70.40771 136.89469,138.68972 205.38068,208.00002 23.6196,23.9039 46.884,48.2121 70.6718,72 3.2278,3.2277 19.9269,24.0719 25.0164,16.5226 4.3504,-6.453 -14.2419,-20.2969 -17.969,-24.5226 -20.995,-23.8036 -44.6035,-45.5561 -67.0474,-68 C 988.44558,1043.1122 915.567,967.567 841.33328,893.33328 c -17.1311,-17.13102 -33.53808,-34.87142 -50.66666,-52 -11.82284,-11.82291 -18.65226,-21.33333 -36,-21.33333 m 81.33333,0 c 23.56592,33.45451 59.09692,61.76367 87.99999,90.66666 50.20671,50.2067 99.17466,101.76059 149.33336,151.99999 l 56,56 c 2.9149,2.915 16.2314,19.6202 21.0164,12.5226 4.0852,-6.0595 -10.8298,-16.8962 -14.2973,-20.5226 -17.6075,-18.4138 -35.3538,-36.6347 -53.3858,-54.6667 -59.1101,-59.11007 -116.90453,-119.57116 -175.99999,-178.66662 -17.95117,-17.95117 -44.03279,-57.3304 -70.66666,-57.33333 m 69.33333,0 c 12.27352,17.42366 30.69677,31.08219 45.21403,46.66666 44.05452,47.29321 90.41519,92.96256 136.11929,138.66669 l 42.6667,42.6666 c 2.6418,2.6365 12.759,14.8378 17.0164,8.5227 3.6235,-5.3749 -7.2546,-13.4121 -10.3487,-16.5227 -13.9548,-14.0287 -27.3208,-28.653 -41.3344,-42.66663 -44.2432,-44.24316 -87.762,-89.09537 -131.99999,-133.33332 -15.63981,-15.63981 -33.89014,-43.9974 -57.33333,-44 m 73.33333,0 c 12.15136,17.25016 30.41549,31.74886 45.33329,46.66666 26.4582,26.45817 52.2014,53.53467 78.6667,80 9.7662,9.76619 19.3538,19.75984 29.3333,29.30761 2.4436,2.33773 9.6263,9.57699 13.0165,4.54834 2.9411,-4.36271 -3.7604,-9.87613 -6.356,-12.52262 -9.4757,-9.66138 -18.4225,-19.76204 -27.9938,-29.33333 -28.8134,-28.81348 -58.7742,-56.85172 -86.5474,-86.66666 -13.6451,-14.64819 -24.11983,-32 -45.45259,-32 m 73.33329,0 c 18.9597,27.23568 47.2541,49.92073 70.6667,73.33333 3.2279,3.22786 19.9269,24.07194 25.0164,16.52262 4.3794,-6.49609 -15.2981,-21.45955 -19.1172,-25.85595 -13.4451,-15.47722 -28.7386,-29.50602 -43.2325,-44 -10.8129,-10.81283 -17.3962,-19.99821 -33.3334,-20 m 82.6667,513.33335 c -29.287,-41.74 -74.0905,-75.1982 -109.2808,-112 -83.99816,-87.8446 -170.10289,-174.0504 -256.05251,-260.00003 -29.56584,-29.56583 -58.45736,-59.79068 -88,-89.33332 -6.85766,-6.85767 -13.49731,-15.16716 -21.33333,-20.90332 -2.59835,-1.90202 -7.12016,-3.82162 -9.15124,0 -4.14624,7.80151 17.69213,24.11084 22.48457,28.90332 27.78182,27.78173 54.98096,56.17903 82.66772,83.99999 92.23746,92.68436 183.5419,186.20966 275.99889,278.66666 22.01,22.0099 43.313,44.6463 65.3334,66.6667 11.7411,11.7411 19.8428,23.998 37.3333,24 m -997.33328,0 c 17.31159,-0 23.89812,-11.4901 36,-22.4404 23.79415,-21.5298 45.856,-44.904 69.33333,-66.7737 75.2455,-70.0927 147.42097,-143.479 222.66665,-213.5719 22.60222,-21.0545 43.34713,-44.39046 66.66667,-64.64819 29.98702,-26.04972 58.5745,-55.14038 86.66666,-83.2325 4.65226,-4.65226 28.80017,-22.61735 23.90434,-30.02978 -2.3805,-3.60417 -6.79464,-0.90365 -9.23768,1.02157 -7.94881,6.26375 -15.2408,14.2102 -22.66666,21.12752 -30.26851,28.19571 -60.0793,57.30452 -89.33333,86.54735 -40.8811,40.86543 -83.55765,80.10613 -125.33332,120.05253 -44.64673,42.6916 -87.53137,87.6112 -133.33333,129.0545 -30.46203,27.5631 -60.28234,56.5087 -89.33333,85.5596 -11.14534,11.1454 -29.32356,23.0165 -36,37.3334 m 934.66658,0 c -11.1431,-15.8191 -27.7347,-28.9097 -41.3282,-42.6667 -23.6196,-23.9039 -46.88392,-48.2122 -70.67176,-72 -68.44246,-68.4425 -135.55167,-138.2183 -203.99999,-206.6667 -25.57283,-25.57271 -50.44384,-51.77714 -75.99999,-77.33329 -3.41716,-3.41716 -21.61096,-26.0734 -26.48458,-16.90332 -3.98295,7.4943 15.30982,21.72851 19.81791,26.23665 23.5284,23.5284 47.61857,46.61808 70.61417,70.66666 77.91341,81.4813 157.66585,161.6134 237.38581,241.3333 l 56.00003,56 c 11.1325,11.1325 18.1901,21.3316 34.6666,21.3334 m -863.99991,0 c 18.16746,0 24.67903,-10.7597 37.33333,-22.5474 20.23899,-18.853 40.43676,-37.8894 59.99999,-57.4526 80.22107,-80.2211 165.11315,-155.7798 245.33332,-236 24.4517,-24.45169 50.21631,-47.54967 74.66667,-72.00002 4.27685,-4.27686 24.63167,-18.87248 19.90433,-26.02979 -5.05578,-7.65462 -23.97253,15.18001 -27.90433,18.59562 -26.8097,23.28963 -51.65731,49.60164 -77.33333,74.15329 -78.10933,74.6891 -156.46069,149.3176 -233.33332,225.2757 -23.24648,22.9699 -47.48781,44.937 -70.66666,68.0041 -9.3321,9.2871 -20.36603,17.1637 -28,28.0011 m 798.66661,0 c -22.66161,-32.1709 -58.06754,-58.2072 -85.28083,-86.6667 -60.3584,-63.1224 -122.28222,-124.8964 -184.05248,-186.6667 -21.132,-21.132 -41.54167,-42.875 -62.66666,-63.99996 -3.2155,-3.2155 -19.08004,-23.15137 -23.81791,-14.23665 -3.68376,6.93131 11.75488,18.17366 15.81791,22.23661 l 61.33333,61.3334 c 67.09928,67.0992 132.88068,135.5473 199.99998,202.6666 14.46468,14.4647 28.21061,29.544 42.66667,44 11.82283,11.8229 18.65234,21.3334 35.99999,21.3334 m -734.66662,0 c 17.91767,0 25.14978,-10.5409 37.33333,-22.6657 13.89757,-13.8305 28.12429,-27.9496 42.66667,-41.108 72.2137,-65.3416 140.27583,-135.5321 210.66665,-202.8405 21.36141,-20.426 43.08691,-40.4808 64,-61.3858 3.9034,-3.9019 20.40515,-15.21544 15.90434,-22.02981 -5.04033,-7.63127 -20.43885,12.00114 -23.90434,15.1368 -22.37089,20.24191 -43.94405,41.60591 -65.33333,62.89201 -60.21362,59.9232 -121.83288,119.305 -183.99999,177.215 -22.56111,21.0161 -44.58976,42.5637 -66.66666,64.0998 -10.29808,10.0457 -22.31746,18.8335 -30.66667,30.6862 m 673.3333,0 c -21.00448,-29.8184 -52.87565,-55.5424 -78.66667,-81.3334 -47.78735,-47.7873 -94.8684,-96.2017 -142.66665,-144 -18.01367,-18.0136 -35.3121,-36.6465 -53.33333,-54.6666 -2.95223,-2.9521 -15.42265,-18.5067 -19.81791,-10.2367 -3.43099,6.4557 9.40218,15.8207 13.15124,19.57 l 50.66666,50.6667 c 55.09814,55.0981 108.90283,111.5695 163.99999,166.6666 17.26994,17.27 40.95687,53.3305 66.66667,53.3334 m -609.3333,0 c 26.92191,-0 53.85917,-37.8592 72,-56 55.33398,-55.334 113.67516,-107.6758 169.33332,-162.6718 17.22884,-17.024 34.83231,-33.5746 51.99999,-50.6606 3.65821,-3.6408 17.52812,-12.8682 13.23768,-19.3641 -4.72811,-7.1585 -16.88208,8.3955 -19.90434,11.3436 -17.98629,17.5445 -36.85649,34.2962 -54.66666,52.0205 -52.53727,52.2839 -106.42708,103.3862 -159.99999,154.6132 -23.3927,22.3684 -53.32788,44.2119 -72,70.7192 m 547.99997,0 c -15.59644,-22.1411 -39.52564,-40.8283 -58.66667,-60 -38.35636,-38.4182 -76.71492,-77.1153 -114.64713,-116 -13.82991,-14.1773 -27.27815,-28.6878 -41.35286,-42.6657 -2.76554,-2.7465 -12.02396,-13.3762 -15.81791,-6.2377 -2.92887,5.511 5.92391,12.3246 9.15226,15.57 l 39.99898,40 c 42.00838,42.0084 83.31315,84.6465 125.33333,126.6667 16.17912,16.1791 31.65731,42.6667 56,42.6667 m -477.33331,0 c 23.72258,-0 38.17159,-25.0706 54.66667,-39.6193 46.01733,-40.5878 89.90461,-85.0219 133.33332,-128.3807 13.52604,-13.5043 27.53992,-26.6892 41.33231,-39.9475 3.2968,-3.1692 13.021,-9.6892 9.23869,-15.4157 -4.1418,-6.2709 -13.17037,4.6491 -15.90434,7.3641 -14.00732,13.9101 -28.38724,27.6259 -42.66666,41.2799 -35.62797,34.0679 -70.5946,68.998 -106.66666,102.5999 -24.02164,22.3766 -54.39233,45.2303 -73.33333,72.1193 m 419.99998,0 c -13.53231,-19.2107 -32.75814,-35.4249 -49.33333,-52 -27.35034,-27.3504 -54.36621,-55.0024 -81.35286,-82.6667 -10.06958,-10.3224 -20.2251,-20.6746 -30.64714,-30.641 -2.70023,-2.5821 -9.96032,-9.5996 -13.15124,-3.5957 -2.48604,4.6778 3.70345,10.0107 6.50517,12.9034 10.05029,10.3766 20.43127,20.4519 30.64607,30.6666 31.35343,31.3535 61.99186,63.3252 93.33333,94.6667 13.13859,13.1386 24.26774,30.6645 44,30.6667 m -363.99998,0 c 21.14925,0 35.03654,-19.0375 49.33333,-33.3334 30.32967,-30.3277 60.9591,-61.7757 93.33333,-89.8991 11.24373,-9.7675 21.1003,-21.0451 31.97941,-31.2079 3.00252,-2.8048 9.82645,-8.0251 6.59159,-12.9228 -3.55782,-5.3867 -10.63135,2.1971 -13.23767,4.7171 -10.62838,10.2764 -21.54102,20.1871 -32,30.6461 -27.47176,27.4717 -55.56917,54.7301 -83.99999,81.214 -16.92485,15.7658 -38.69011,31.9035 -52,50.786 m 299.99998,0 c -21.09424,-29.9458 -54.03076,-56.6975 -80,-82.6667 -3.63212,-3.6322 -24.19286,-28.8997 -29.15124,-19.57 -4.1462,7.8015 17.69214,24.1109 22.48458,28.9033 l 52,52 c 11.1324,11.1324 18.1901,21.3316 34.66666,21.3334 m -229.33332,0 c 17.06844,0 22.55257,-8.8125 34.66667,-19.7737 18.63252,-16.8594 36.89611,-34.4558 54.66666,-52.2263 4.5271,-4.5271 27.41524,-21.3622 22.571,-28.6966 -5.01306,-7.5899 -25.19539,16.1786 -29.23767,19.7439 -19.35766,17.0736 -37.7443,36.0314 -55.99999,54.286 -8.7948,8.7942 -19.49101,16.4811 -26.66667,26.6667 m 169.33332,0 c -8.3317,-11.8279 -20.34676,-21.8684 -30.66666,-31.9939 -2.85592,-2.802 -9.39644,-10.3991 -13.80351,-5.8426 -4.63053,4.7876 4.19979,12.186 7.14197,15.1698 12.03463,12.2049 19.50936,22.6667 37.3282,22.6667 m -97.33332,0 c 17.53816,0 23.78881,-9.6829 35.99487,-21.2141 3.1628,-2.9879 11.44083,-8.8025 7.90946,-14.1491 -3.55782,-5.3867 -10.63135,2.1971 -13.23767,4.7171 -10.22575,9.8871 -22.45064,18.9825 -30.66666,30.6461 z"
       id="path1" />
  </g>
</svg>
