<?xml version="1.0" encoding="UTF-8" standalone="no"?>
<!-- Created with Inkscape (http://www.inkscape.org/) -->

<svg
   version="1.1"
   id="svg1"
   width="1333.3333"
   height="1333.3333"
   viewBox="0 0 1333.3333 1333.3333"
   sodipodi:docname="StraightDown.svg"
   inkscape:version="1.4.2 (ebf0e940d0, 2025-05-08)"
   xmlns:inkscape="http://www.inkscape.org/namespaces/inkscape"
   xmlns:sodipodi="http://sodipodi.sourceforge.net/DTD/sodipodi-0.dtd"
   xmlns="http://www.w3.org/2000/svg"
   xmlns:svg="http://www.w3.org/2000/svg">
  <defs
     id="defs1" />
  <sodipodi:namedview
     id="namedview1"
     pagecolor="#505050"
     bordercolor="#eeeeee"
     borderopacity="1"
     inkscape:showpageshadow="0"
     inkscape:pageopacity="0"
     inkscape:pagecheckerboard="0"
     inkscape:deskcolor="#505050"
     showgrid="false"
     inkscape:zoom="0.59400004"
     inkscape:cx="666.66663"
     inkscape:cy="666.66663"
     inkscape:window-width="1920"
     inkscape:window-height="995"
     inkscape:window-x="0"
     inkscape:window-y="0"
     inkscape:window-maximized="1"
     inkscape:current-layer="g1" />
  <g
     inkscape:groupmode="layer"
     inkscape:label="Image"
     id="g1">
    <path
       style="fill:#ffff00;stroke:none"
       d="m 245.33332,0 v 1333.3333 h 6.66666 V 2.6666665 l 96,55.4341605 213.33332,123.999993 77.33333,45.37036 28.5288,18.14607 0.80453,29.0494 v 68 238.66665 C 567.31206,528.29937 470.91387,466.56109 371.99998,410.29213 c -24.10311,-13.71151 -48.14431,-27.62671 -72,-41.76334 -14.58707,-8.64413 -27.93272,-19.19352 -45.33333,-19.19548 v 1.33334 c 33.60897,15.70963 65.14888,37.72533 97.33333,56.19954 69.06522,39.64412 138.34415,79.15771 206.66665,120.06688 25.18762,15.08146 50.58931,30.01416 76,44.68831 8.76212,5.0599 26.96012,11.49203 31.96297,20.51848 4.01013,7.23535 1.37036,21.09863 1.37036,29.19344 v 69.33332 254.66666 C 632.61735,920.0657 591.12732,900.43989 553.3333,878.86722 492.62648,844.21601 432.70501,808.18794 371.99998,773.53389 c -23.64002,-13.49512 -47.24931,-27.12817 -70.66667,-41.00513 -14.58707,-8.6442 -27.93269,-19.19352 -45.33333,-19.19547 v 1.33333 l 97.33333,56.19954 205.33332,119.26757 77.33333,45.48763 30.62964,19.32918 1.37036,29.0494 v 71.99996 266.6667 C 567.31194,1269.633 470.91379,1207.8941 371.99998,1151.6254 c -24.10311,-13.7114 -48.14433,-27.6266 -72,-41.7633 -14.58705,-8.6442 -27.93274,-19.1936 -45.33333,-19.1955 v 1.3333 l 97.33333,56.1996 201.33332,116.8673 85.33333,50.1656 33.33333,17.7305 30.66666,-16.0042 78.66667,-46.4917 203.99998,-120.3292 96.00003,-56.8045 v 240 h 6.6666 V 0 c -20.6644,0.8871256 -36.0333,12.041585 -53.3333,22.400226 -23.0063,13.77539 -46.33666,27.009032 -69.33333,40.799314 -61.47379,36.86369 -123.86766,72.18839 -185.33332,109.06689 -22.1053,13.26286 -44.49267,26.05753 -66.66666,39.20475 -12.40259,7.3536 -25.12117,16.90283 -38.66666,21.86214 V 0 h -6.66667 V 234.66665 C 632.1757,217.94123 598.19918,195.0808 563.99997,175.23249 502.24216,139.38997 440.01629,104.26936 378.66664,67.732499 353.0709,52.488929 327.17076,37.697182 301.33331,22.86621 282.60321,12.114908 267.45046,0.94946283 245.33332,0 M 1081.3333,2.6666665 V 349.33331 c -11.9777,0.62142 -21.9126,9.07528 -32,14.86621 -22.3617,12.83732 -44.3662,26.29199 -66.66669,39.23462 -72.68522,42.18449 -144.64868,85.61409 -217.33332,127.79833 -20.08708,11.65796 -39.97437,23.65706 -60,35.41976 -9.44816,5.54964 -19.83431,13.9257 -30.66666,16.0144 V 337.33331 270.66665 l 1.37036,-27.86011 29.2963,-19.07405 78.66666,-46.41357 L 990.66661,55.43416 1081.3333,2.6666665 m 0,349.3333135 v 361.33331 l -32,15.62549 -68.00003,39.99999 -214.66665,126.27368 -58.66666,34.62964 -33.33333,18.13785 V 690.66662 621.3333 l 1.37036,-29.08643 30.62963,-19.7181 78.66667,-46.42797 207.99998,-122.66666 88.00003,-51.43416 m 0,365.33331 v 373.33331 c -13.1277,0.6811 -24.9112,10.7679 -36,17.1338 -25.4763,14.6251 -50.80683,29.625 -76.00003,44.7324 -67.64127,40.5622 -135.78547,80.4429 -203.99998,120.033 -27.97909,16.2383 -58.53784,41.6856 -89.33333,51.4341 0,-84.7405 2.64722,-170.0055 -0.0473,-254.6666 -0.84587,-26.5764 -1.27747,-53.3686 -1.28601,-80.00003 -0.003,-8.958 -2.76559,-23.4331 0.80452,-31.72021 3.52832,-8.1901 21.0577,-14.45784 28.52881,-18.74691 24.62687,-14.13761 48.9073,-28.91243 73.33333,-43.39501 65.22306,-38.67179 130.97891,-76.45524 195.99998,-115.47119 22.55152,-13.53206 45.32373,-26.69466 68.00003,-40.0144 12.9182,-7.58797 25.9067,-17.49243 40,-22.65226 z"
       id="path1" />
  </g>
</svg>
