<?xml version="1.0" encoding="UTF-8" standalone="no"?>
<!-- Created with Inkscape (http://www.inkscape.org/) -->

<svg
   version="1.1"
   id="svg1"
   width="1333.3333"
   height="1333.3333"
   viewBox="0 0 1333.3333 1333.3333"
   sodipodi:docname="StraightUP.svg"
   inkscape:version="1.4.2 (ebf0e940d0, 2025-05-08)"
   xmlns:inkscape="http://www.inkscape.org/namespaces/inkscape"
   xmlns:sodipodi="http://sodipodi.sourceforge.net/DTD/sodipodi-0.dtd"
   xmlns="http://www.w3.org/2000/svg"
   xmlns:svg="http://www.w3.org/2000/svg">
  <defs
     id="defs1" />
  <sodipodi:namedview
     id="namedview1"
     pagecolor="#505050"
     bordercolor="#eeeeee"
     borderopacity="1"
     inkscape:showpageshadow="0"
     inkscape:pageopacity="0"
     inkscape:pagecheckerboard="0"
     inkscape:deskcolor="#505050"
     inkscape:zoom="0.59400004"
     inkscape:cx="666.66662"
     inkscape:cy="666.66662"
     inkscape:window-width="1920"
     inkscape:window-height="995"
     inkscape:window-x="0"
     inkscape:window-y="0"
     inkscape:window-maximized="1"
     inkscape:current-layer="g1" />
  <g
     inkscape:groupmode="layer"
     inkscape:label="Image"
     id="g1">
    <path
       style="fill:#ffff00;stroke:none;fill-opacity:1"
       d="m 245.33332,0 v 1333.3333 c 22.11723,-0.9497 37.26977,-12.115 55.99999,-22.8663 25.83745,-14.8309 51.73763,-29.6227 77.33333,-44.8662 61.34973,-36.5369 123.57556,-71.6574 185.33333,-107.5 34.19921,-19.8484 68.17585,-42.7083 103.99999,-59.4342 v 234.6667 h 6.66667 v -233.3334 c 13.54549,4.9593 26.26415,14.5085 38.66666,21.8622 22.17399,13.1473 44.56136,25.9418 66.66666,39.2047 61.46557,36.8785 123.85945,72.2031 185.33332,109.0668 22.99675,13.7904 46.32693,27.024 69.33333,40.7994 17.3001,10.3587 32.669,21.513 53.3333,22.4003 V 0 h -6.6666 V 239.99999 L 985.33327,183.19546 781.33329,62.866207 702.66662,16.374511 671.99996,0.37036131 638.66663,18.100829 553.3333,68.266435 351.99998,185.13378 254.66665,241.33332 v 1.33333 c 17.40063,-0.002 30.74624,-10.55127 45.33333,-19.19547 23.85577,-14.13672 47.89685,-28.05184 72,-41.76335 C 470.91395,125.43879 567.31222,63.700598 667.99996,10.666666 v 266.666654 71.99999 l -1.37036,29.0494 -30.62964,19.32918 -77.33333,45.48763 -205.33332,119.26757 -97.33333,56.19954 v 1.33333 c 17.40064,-0.002 30.74622,-10.55127 45.33333,-19.19547 23.41736,-13.87687 47.02674,-27.51001 70.66667,-41.00513 60.70495,-34.65413 120.6265,-70.68212 181.33332,-105.33332 37.79398,-21.57267 79.28401,-41.19849 114.66666,-66.46606 v 254.66665 69.33333 c 0,8.09489 2.63973,21.958 -1.37036,29.19335 -5.00285,9.02653 -23.20085,15.45866 -31.96297,20.51856 -25.41069,14.67415 -50.81234,29.60677 -76,44.68831 -68.32254,40.90918 -137.60139,80.42268 -206.66665,120.06689 -32.18451,18.4742 -63.7244,40.4895 -97.33333,56.19954 v 1.33333 c 17.40061,-0.002 30.74628,-10.55127 45.33333,-19.19547 23.85569,-14.13672 47.89689,-28.05192 72,-41.76335 98.91397,-56.26879 195.31216,-118.00764 295.99998,-171.04117 v 238.66666 67.99999 l -0.80453,29.0494 -28.5288,18.1461 -77.33333,45.3703 -213.33332,124 -96,55.4342 V 0 h -6.66666 m 835.99998,242.66665 v 373.33331 c -14.0934,-5.15991 -27.0817,-15.06429 -40,-22.65226 C 1018.657,580.02804 995.8847,566.86544 973.33327,553.3333 908.31253,514.31719 842.55643,476.53358 777.33329,437.86212 752.9071,423.37961 728.62691,408.60479 703.99996,394.4671 c -7.47103,-4.2889 -25.00053,-10.55689 -28.52881,-18.74691 -3.57011,-8.28711 -0.80741,-22.76212 -0.80452,-31.72021 0.009,-26.63224 0.4401,-53.42252 1.28601,-80 2.69454,-84.66137 0.0473,-169.92593 0.0473,-254.6666472 30.79549,9.7484532 61.35416,35.1957982 89.33333,51.4341602 68.21451,39.589837 136.35879,79.470857 203.99998,120.032947 25.1932,15.10751 50.52373,30.1071 76.00003,44.73242 11.0889,6.36589 22.8722,16.45272 36,17.13379 m 0,377.33331 V 981.33327 L 993.33327,929.89911 785.33329,807.23245 706.66662,760.80448 676.03699,741.08638 674.66663,711.99996 V 642.66663 385.33331 l 33.33333,18.13786 58.66666,34.62963 214.66665,126.27368 68.00003,39.99999 32,15.62549 m 0,363.99998 v 346.66666 l -90.66669,-52.7675 -206.66666,-121.8848 -78.66666,-46.4135 -29.2963,-19.0741 -1.37036,-27.8601 V 995.99994 750.66662 c 10.83243,2.08887 21.21842,10.46468 30.66666,16.0144 20.02563,11.76278 39.91292,23.76172 60,35.41976 72.68448,42.18432 144.64818,85.61368 217.33332,127.79833 22.30039,12.94263 44.30499,26.39738 66.66669,39.23462 10.0875,5.79085 20.0223,14.24487 32,14.86621 z"
       id="path1" />
  </g>
</svg>
