<?xml version="1.0" encoding="UTF-8" standalone="no"?>
<!-- Created with Inkscape (http://www.inkscape.org/) -->

<svg
   version="1.1"
   id="svg1"
   width="1333.3333"
   height="1333.3333"
   viewBox="0 0 1333.3333 1333.3333"
   sodipodi:docname="StraightUP.svg"
   inkscape:version="1.4.2 (ebf0e940d0, 2025-05-08)"
   xmlns:inkscape="http://www.inkscape.org/namespaces/inkscape"
   xmlns:sodipodi="http://sodipodi.sourceforge.net/DTD/sodipodi-0.dtd"
   xmlns="http://www.w3.org/2000/svg"
   xmlns:svg="http://www.w3.org/2000/svg">
  <defs
     id="defs1" />
  <sodipodi:namedview
     id="namedview1"
     pagecolor="#505050"
     bordercolor="#eeeeee"
     borderopacity="1"
     inkscape:showpageshadow="0"
     inkscape:pageopacity="0"
     inkscape:pagecheckerboard="0"
     inkscape:deskcolor="#505050"
     inkscape:zoom="0.59400004"
     inkscape:cx="666.66663"
     inkscape:cy="666.66663"
     inkscape:window-width="1920"
     inkscape:window-height="995"
     inkscape:window-x="0"
     inkscape:window-y="0"
     inkscape:window-maximized="1"
     inkscape:current-layer="g1" />
  <g
     inkscape:groupmode="layer"
     inkscape:label="Image"
     id="g1">
    <path
       style="fill:#00ff00;stroke:none"
       d="M 252.06732,1.6835016 V 1335.0168 c 22.11723,-0.9497 37.26978,-12.115 56,-22.8663 25.83744,-14.8309 51.73763,-29.6227 77.33333,-44.8662 61.34973,-36.5369 123.57555,-71.6573 185.33332,-107.5 34.19922,-19.8484 68.17586,-42.7083 104,-59.4342 v 234.6667 h 6.66666 v -233.3334 c 13.54549,4.9593 26.26416,14.5085 38.66667,21.8622 22.17399,13.1473 44.56135,25.9418 66.66666,39.2047 61.46557,36.8785 123.85945,72.2031 185.33332,109.0668 22.99674,13.7904 46.32692,27.024 69.33332,40.7994 17.3001,10.3588 32.669,21.513 53.3333,22.4003 V 1.6835016 h -6.6666 V 241.68349 L 992.06728,184.87897 788.06729,64.549709 709.40063,18.058012 678.73397,2.0538629 645.40063,19.784331 560.06731,69.949936 358.73398,186.81728 261.40066,243.01682 v 1.33333 c 17.40063,-0.002 30.74623,-10.55127 45.33333,-19.19547 23.85577,-14.13672 47.89685,-28.05184 71.99999,-41.76334 C 477.64796,127.1223 574.04623,65.3841 674.73397,12.350168 v 266.666652 71.99999 l -1.37037,29.0494 -30.62963,19.32918 -77.33333,45.48763 -205.33332,119.26757 -97.33333,56.19954 v 1.33333 c 17.40063,-0.002 30.74621,-10.55127 45.33333,-19.19547 23.41736,-13.87687 47.02673,-27.51001 70.66666,-41.00512 60.70496,-34.65414 120.6265,-70.68213 181.33333,-105.33333 37.79398,-21.57267 79.28401,-41.19849 114.66666,-66.46606 v 254.66665 69.33333 c 0,8.09489 2.63973,21.958 -1.37037,29.19336 -5.00284,9.02653 -23.20084,15.45865 -31.96297,20.51855 -25.41068,14.67415 -50.81233,29.60677 -75.99999,44.68831 -68.32255,40.90918 -137.60139,80.42268 -206.66666,120.06689 -32.1845,18.4742 -63.7244,40.4895 -97.33332,56.19954 v 1.33333 c 17.40061,-0.002 30.74627,-10.55127 45.33333,-19.19547 23.85569,-14.13672 47.89689,-28.05192 71.99999,-41.76335 98.91398,-56.26879 195.31217,-118.00764 295.99999,-171.04116 v 238.66665 67.99999 l -0.80453,29.0494 -28.52881,18.1461 -77.33332,45.3703 -213.33332,124 -96,55.4342 V 1.6835016 h -6.66667 M 1088.0673,244.35015 v 373.33331 c -14.0934,-5.15991 -27.0817,-15.06429 -40,-22.65226 -22.6763,-13.31966 -45.4486,-26.48225 -68.00002,-40.0144 -65.02075,-39.01611 -130.77685,-76.79972 -195.99999,-115.47118 -24.42618,-14.48251 -48.70637,-29.25733 -73.33333,-43.39502 -7.47102,-4.2889 -25.00052,-10.55688 -28.5288,-18.74691 -3.57011,-8.28711 -0.80742,-22.76212 -0.80453,-31.72021 0.009,-26.63224 0.44011,-53.42252 1.28601,-79.99999 2.69454,-84.66138 0.0473,-169.925938 0.0473,-254.666656 30.79548,9.748454 61.35416,35.195799 89.33332,51.434161 68.21452,39.589845 136.3588,79.470865 203.99999,120.032955 25.19322,15.1075 50.52372,30.10709 76.00002,44.73242 11.0889,6.36588 22.8722,16.45271 36,17.13378 m 0,377.33331 v 361.33332 l -88,-51.43417 -208.00001,-122.66665 -78.66666,-46.42798 -30.62964,-19.7181 -1.37036,-29.08642 V 644.35013 387.01681 l 33.33333,18.13786 58.66667,34.62963 214.66665,126.27368 68.00002,40 32,15.62548 m 0,363.99998 v 346.66666 l -90.66669,-52.7675 -206.66665,-121.8848 -78.66666,-46.4135 -29.29631,-19.0741 -1.37036,-27.8601 V 997.68344 752.35012 c 10.83244,2.08887 21.21843,10.46468 30.66667,16.01441 20.02563,11.76277 39.91292,23.76171 59.99999,35.41975 72.68449,42.18433 144.64819,85.61369 217.33332,127.79833 22.30039,12.94263 44.30499,26.39738 66.66669,39.23462 10.0875,5.79085 20.0223,14.24487 32,14.86621 z"
       id="path6516" />
  </g>
</svg>
