<?xml version="1.0" encoding="UTF-8" standalone="no"?>
<!-- Created with Inkscape (http://www.inkscape.org/) -->

<svg
   version="1.1"
   id="svg1"
   width="1333.3333"
   height="1333.3333"
   viewBox="0 0 1333.3333 1333.3333"
   sodipodi:docname="StraightRight.svg"
   inkscape:version="1.4.2 (ebf0e940d0, 2025-05-08)"
   xmlns:inkscape="http://www.inkscape.org/namespaces/inkscape"
   xmlns:sodipodi="http://sodipodi.sourceforge.net/DTD/sodipodi-0.dtd"
   xmlns="http://www.w3.org/2000/svg"
   xmlns:svg="http://www.w3.org/2000/svg">
  <defs
     id="defs1" />
  <sodipodi:namedview
     id="namedview1"
     pagecolor="#505050"
     bordercolor="#eeeeee"
     borderopacity="1"
     inkscape:showpageshadow="0"
     inkscape:pageopacity="0"
     inkscape:pagecheckerboard="0"
     inkscape:deskcolor="#505050"
     inkscape:zoom="0.59400004"
     inkscape:cx="666.66663"
     inkscape:cy="666.66663"
     inkscape:window-width="1920"
     inkscape:window-height="995"
     inkscape:window-x="0"
     inkscape:window-y="0"
     inkscape:window-maximized="1"
     inkscape:current-layer="g1" />
  <g
     inkscape:groupmode="layer"
     inkscape:label="Image"
     id="g1">
    <path
       style="fill:#ffff00;stroke:none"
       d="m 0,245.33332 c 0.88725363,20.6643 12.041529,36.03328 22.400204,53.33333 13.775412,23.00634 27.009069,46.33667 40.799382,69.33333 36.863824,61.47395 72.188314,123.86775 109.066864,185.33332 13.26292,22.10539 26.05743,44.49267 39.20473,66.66666 7.35368,12.40259 16.90289,25.12118 21.86214,38.66667 H 0 v 6.66666 h 234.66665 c -16.72595,35.82414 -39.58571,69.8007 -59.43416,104 C 139.38977,831.0911 104.26932,893.317 67.732504,954.66661 52.488944,980.26231 37.697192,1006.1625 22.866253,1031.9999 12.114936,1050.7302 0.94962686,1065.8827 0,1087.9999 h 1333.3333 v -6.6666 H 2.6666665 L 58.100821,985.33327 182.10082,771.99995 l 45.37036,-77.33333 18.14609,-28.5288 29.04938,-0.80453 h 68 238.66665 c -53.03357,100.68798 -114.77242,197.08609 -171.04113,295.99998 -13.71147,24.10319 -27.62667,48.14433 -41.76338,72.00003 -8.64417,14.587 -19.19357,27.9327 -19.19548,45.3333 h 1.33334 c 15.71004,-33.6089 37.72533,-65.1488 56.19958,-97.33333 39.64412,-69.06518 79.15775,-138.34423 120.06684,-206.66665 15.0815,-25.18766 30.01416,-50.58927 44.68831,-76 5.05994,-8.76212 11.49203,-26.96016 20.51852,-31.96297 7.23535,-4.01013 21.09859,-1.37036 29.1934,-1.37036 h 69.33332 254.66666 c -25.26758,35.38257 -44.89339,76.87272 -66.46606,114.66666 -34.65121,60.70687 -70.6792,120.62833 -105.33333,181.33332 -13.49512,23.63998 -27.12826,47.24933 -41.00513,70.66663 -8.6442,14.5872 -19.19352,27.9327 -19.19547,45.3334 h 1.33333 l 56.19954,-97.33336 119.26757,-205.33332 45.48763,-77.33333 19.32918,-30.62964 29.0494,-1.37036 h 71.99996 266.6667 c -53.0339,100.68782 -114.7722,197.08609 -171.0412,295.99998 -13.7114,24.10303 -27.6267,48.14433 -41.7633,72.00003 -8.6442,14.587 -19.1935,27.9327 -19.1955,45.3333 h 1.3333 l 56.1996,-97.33333 116.8673,-201.33332 50.1656,-85.33333 17.7305,-33.33333 -16.0042,-30.66666 -46.4917,-78.66666 -119.5329,-202.66666 -57.6008,-97.33333 h 240 v -6.66666 H 0 m 349.33331,6.66666 c 0.62134,11.97762 9.07536,21.9126 14.86625,32 12.83724,22.36165 26.29195,44.36629 39.23458,66.66667 42.18469,72.68513 85.61397,144.64867 127.79833,217.33332 11.65804,20.08707 23.65698,39.97444 35.41976,59.99999 5.54976,9.44824 13.92557,19.83415 16.0144,30.66667 H 337.33331 270.66665 L 242.80656,657.29627 223.73249,627.99996 177.31892,549.3333 55.434155,342.66665 2.6666665,251.99998 H 349.33331 m 363.99998,0 15.62549,32 39.99999,68 126.27368,214.66665 34.62964,58.66667 18.13785,33.33333 H 690.66662 621.3333 l -29.08643,-1.37036 -19.7181,-30.62964 -46.42797,-78.66666 -122.66666,-207.99999 -51.43416,-88 h 361.33331 m 377.33331,0 c 0.6811,13.12769 10.7679,24.91114 17.1338,36 14.6253,25.47624 29.6249,50.8068 44.7324,76 40.5621,67.64119 80.443,135.78531 120.033,203.99999 16.2383,27.97908 41.6857,58.53791 51.4341,89.33332 -84.7405,0 -170.0054,-2.64721 -254.6666,0.0473 -26.5764,0.84586 -53.3685,1.27746 -80.00003,1.28601 -8.95825,0.003 -23.4331,2.76558 -31.72021,-0.80453 -8.19002,-3.52828 -14.45793,-21.0577 -18.74691,-28.52881 -14.13769,-24.62687 -28.91251,-48.90722 -43.39501,-73.33332 -38.67155,-65.22314 -76.455,-130.97916 -115.47119,-195.99999 -13.53206,-22.55135 -26.69474,-45.32373 -40.0144,-68 -7.58805,-12.91845 -17.49235,-25.90657 -22.65226,-40 z"
       id="path1" />
  </g>
</svg>
