<?xml version="1.0" encoding="UTF-8" standalone="no"?>
<!-- Created with Inkscape (http://www.inkscape.org/) -->

<svg
   version="1.1"
   id="svg1"
   width="1333.3333"
   height="1333.3333"
   viewBox="0 0 1333.3333 1333.3333"
   sodipodi:docname="StraightDTR.svg"
   inkscape:version="1.4.2 (ebf0e940d0, 2025-05-08)"
   xmlns:inkscape="http://www.inkscape.org/namespaces/inkscape"
   xmlns:sodipodi="http://sodipodi.sourceforge.net/DTD/sodipodi-0.dtd"
   xmlns="http://www.w3.org/2000/svg"
   xmlns:svg="http://www.w3.org/2000/svg">
  <defs
     id="defs1" />
  <sodipodi:namedview
     id="namedview1"
     pagecolor="#505050"
     bordercolor="#eeeeee"
     borderopacity="1"
     inkscape:showpageshadow="0"
     inkscape:pageopacity="0"
     inkscape:pagecheckerboard="0"
     inkscape:deskcolor="#505050"
     showgrid="false"
     inkscape:zoom="0.59400004"
     inkscape:cx="666.66663"
     inkscape:cy="666.66663"
     inkscape:window-width="1920"
     inkscape:window-height="995"
     inkscape:window-x="0"
     inkscape:window-y="0"
     inkscape:window-maximized="1"
     inkscape:current-layer="g1" />
  <g
     inkscape:groupmode="layer"
     inkscape:label="Image"
     id="g1">
    <path
       style="fill:#ffff00;stroke:none"
       d="m 0,731.99996 45.333331,-44 86.666659,-86.66666 259.99999,-258.66665 231.99998,-231.99999 76,-74.666662 L 734.66662,0 C 716.8691,0.21020507 701.14009,24.193195 689.33329,35.999998 653.98604,71.347245 618.01697,105.98299 582.66663,141.33332 L 157.33332,566.66663 C 118.4284,605.57158 80.322169,645.53764 40.385801,683.38163 27.372913,695.71277 0.22417361,713.01859 0,731.99996 M 658.66663,81.333328 c 8.09566,11.215006 22.17549,12.067952 34.66666,15.613199 27.86629,7.908933 56.09334,14.530603 84,22.285973 111.30777,30.93277 223.53831,58.56558 334.66661,90.10082 l -64,65.33333 -127.99996,127.99999 -47.99999,48 -21.33334,18.57715 -34.66666,-8.06478 -86.66666,-22.68107 -221.33332,-58.69962 -115.99999,-30.46501 c 8.28837,11.48193 24.32946,12.91773 37.33333,16.1687 28.09452,7.0236 55.98909,14.97876 83.99999,22.34367 110.44026,29.038 223.24917,54.71321 331.99998,89.48762 L 666.66663,655.99996 617.3333,705.33329 c -6.1635,6.16349 -14.23999,18.02669 -22.66667,20.8632 -8.50716,2.86352 -24.83154,-5.22526 -33.33333,-7.36108 -29.85705,-7.5009 -59.52421,-15.66423 -89.33333,-23.32927 -113.12524,-29.08886 -225.62499,-66.5651 -339.99998,-90.17284 8.333,11.69124 24.13379,13.19726 37.33333,16.49796 27.21767,6.80607 54.16142,14.68791 81.33333,21.67489 80.62502,20.73201 160.82226,43.17138 241.33332,64.33951 31.4591,8.27132 63.76391,21.14665 95.99999,25.48763 l -57.33333,58.66666 -121.33332,119.99999 -44,44 -18.66666,15.51546 -30.66667,-7.66976 -68,-17.56591 L 78.666662,901.48758 0,881.33328 c 1.4631936,8.79378 12.582875,9.37239 19.999999,11.43416 20.349702,5.6565 40.877027,10.81193 61.333329,16.07202 60.575312,15.57626 120.840772,32.43473 181.333322,48.33952 26.30001,6.91487 53.02982,17.85286 80,21.48763 -86.01977,86.01959 -171.3269,172.66019 -257.333322,258.66669 l -63.999996,64 C 12.322779,1310.3438 0.16115772,1318.3542 0,1331.9999 27.990571,1312.283 51.772743,1281.5605 75.999995,1257.3333 L 257.33332,1075.9999 c 28.88069,-28.8807 57.3079,-65.8348 90.66666,-89.33329 18.39962,89.14439 45.98689,177.03889 68.16874,265.33329 5.14681,20.4868 10.87056,40.8421 16,61.3334 2.01013,8.0301 1.93379,19.2107 11.83125,20 l -65.83125,-256 -18,-69.3334 -5.78503,-26.66663 17.61629,-20 46.66666,-46.66666 177.33332,-175.99999 c 4.97217,36.89364 18.67993,74.63183 28.1543,110.66666 19.60022,74.54777 38.98266,149.22208 57.67696,224.00002 7.3472,29.3891 15.3197,58.6121 22.6667,88 1.85222,7.4088 10.67391,25.1358 8.58537,32 -4.00903,13.176 -27.3693,28.9526 -37.08333,38.6666 l -65.33333,65.3334 c -11.52897,11.5289 -25.2703,22.6607 -34.66667,36 18.77438,-0.2218 36.82117,-27.4879 49.33334,-40 L 746.66662,1171.9999 C 893.57156,1025.095 1041.113,878.88683 1187.9999,731.99996 l 109.3334,-109.33333 c 11.8068,-11.8068 35.7897,-27.53581 36,-45.33333 -32.8728,23.15633 -60.8733,59.53971 -89.3334,87.99999 -23.3366,-112.76081 -57.4945,-224.44595 -86.1728,-335.99998 -7.5402,-29.33007 -15.3162,-58.61466 -22.6625,-87.99999 -2.0867,-8.3466 -10.1629,-25.10417 -6.8962,-33.32821 2.0648,-5.19824 8.209,-9.18774 11.9918,-13.15942 11.4914,-12.06526 23.9423,-23.10164 35.7397,-34.84676 36.5251,-36.36295 72.8893,-72.888258 109.3334,-109.332266 14.7408,-14.740885 39.1736,-31.740151 48,-50.666664 -21.2559,0.07519531 -41.7923,31.125568 -56,45.333331 l -113.3334,113.333329 -30.6666,30.66666 c -4.0365,4.03622 -8.8668,10.84074 -14.6667,12.28288 -9.5941,2.38558 -26.5081,-6.04981 -36,-8.42277 -30.3038,-7.57593 -60.5065,-15.49976 -90.66666,-23.65845 C 918.32506,149.60497 844.48196,130.22916 770.66662,110.82096 733.93607,101.16341 696.23051,86.860184 658.66663,81.333328 M 1121.3333,214.66665 c 10.5656,28.00545 15.0485,59.09294 22.8683,88 22.0478,81.50374 40.359,164.11075 63.4115,245.33332 8.5103,29.98486 15.6275,60.43554 23.2222,90.66666 1.7365,6.91235 11.0423,24.65625 8.9311,30.66666 -1.9798,5.63603 -8.9934,10.56035 -13.0998,14.66667 l -30.6667,30.66666 -108,108 -77.3333,77.33333 c -9.5507,9.55078 -21.41088,26.94596 -34.66666,30.66666 l -29.48763,-115.99999 -55.01033,-214.66666 -22.66667,-87.99999 -8.29109,-36 18.12239,-21.33333 46.66667,-46.66666 126.66662,-125.33333 69.3334,-68 m -266.66669,266.66665 82.49796,319.99998 25.34774,98.66667 10.57096,34.66666 -14.41666,17.33333 -45.40023,44.20679 -134.59976,134.45987 -38.66667,38.6667 -22.66666,20 c -5.87866,-43.6569 -21.90503,-88.0665 -33.12752,-130.6667 -17.40861,-66.08243 -33.33988,-132.56981 -50.71818,-198.66665 -7.69808,-29.27897 -14.50362,-58.89315 -22.82096,-88 -2.74129,-9.59334 -11.26412,-28.99934 -8.40845,-38.66666 1.71798,-5.81584 8.28251,-10.54053 12.40845,-14.66667 l 30.66666,-30.66666 109.33333,-109.33333 66.66666,-66.66666 c 9.93791,-9.93791 20.51205,-24.6875 33.33333,-30.66667 z"
       id="path1" />
  </g>
</svg>
