<?xml version="1.0" encoding="UTF-8" standalone="no"?>
<!-- Created with Inkscape (http://www.inkscape.org/) -->

<svg
   version="1.1"
   id="svg1"
   width="1333.3333"
   height="1333.3333"
   viewBox="0 0 1333.3333 1333.3333"
   sodipodi:docname="StraightDBR.svg"
   inkscape:version="1.4.2 (ebf0e940d0, 2025-05-08)"
   xmlns:inkscape="http://www.inkscape.org/namespaces/inkscape"
   xmlns:sodipodi="http://sodipodi.sourceforge.net/DTD/sodipodi-0.dtd"
   xmlns="http://www.w3.org/2000/svg"
   xmlns:svg="http://www.w3.org/2000/svg">
  <defs
     id="defs1" />
  <sodipodi:namedview
     id="namedview1"
     pagecolor="#505050"
     bordercolor="#eeeeee"
     borderopacity="1"
     inkscape:showpageshadow="0"
     inkscape:pageopacity="0"
     inkscape:pagecheckerboard="0"
     inkscape:deskcolor="#505050"
     showgrid="false"
     inkscape:zoom="0.59400004"
     inkscape:cx="666.66663"
     inkscape:cy="666.66663"
     inkscape:window-width="1920"
     inkscape:window-height="995"
     inkscape:window-x="0"
     inkscape:window-y="0"
     inkscape:window-maximized="1"
     inkscape:current-layer="g1" />
  <g
     inkscape:groupmode="layer"
     inkscape:label="Image"
     id="g1">
    <path
       style="fill:#ffff00;stroke:none"
       d="m 0,601.33334 45.3333,44 L 132,732 l 259.99998,258.66665 231.99998,231.99995 76,74.6667 34.66666,36 c -17.79752,-0.2102 -33.52653,-24.1932 -45.33333,-36 C 653.98604,1261.9861 618.01697,1227.3503 582.66663,1192 L 157.3333,766.66667 C 118.4284,727.76172 80.3222,687.79566 40.3858,649.95167 27.3729,637.62053 0.2242,620.31471 0,601.33334 M 658.66663,1252 c 8.09566,-11.215 22.17549,-12.068 34.66666,-15.6132 27.86629,-7.909 56.09334,-14.5306 84,-22.286 C 888.64106,1183.168 1000.8716,1155.5352 1111.9999,1124 l -64,-65.3333 -127.99996,-128.00004 -47.99999,-48 -21.33334,-18.57715 -34.66666,8.06478 -86.66666,22.68107 -221.33332,58.69962 -115.99999,30.46501 c 8.28837,-11.48193 24.32946,-12.91773 37.33333,-16.1687 28.09452,-7.0236 55.98909,-14.97876 83.99999,-22.34367 C 623.77356,916.44962 736.58247,890.77441 845.33328,856 L 666.66663,677.33334 617.3333,628.00001 c -6.1635,-6.16349 -14.23999,-18.02669 -22.66667,-20.8632 -8.50716,-2.86352 -24.83154,5.22526 -33.33333,7.36108 -29.85705,7.5009 -59.52421,15.66423 -89.33333,23.32927 C 358.87473,666.91602 246.375,704.39226 132,728 c 8.333,-11.69124 24.1338,-13.19726 37.3333,-16.49796 27.2177,-6.80607 54.1614,-14.68791 81.3333,-21.67489 80.6251,-20.73201 160.82231,-43.17138 241.33337,-64.33951 31.4591,-8.27132 63.76391,-21.14665 95.99999,-25.48763 l -57.33333,-58.66666 -121.33332,-119.99999 -44,-44 L 346.66665,361.8179 316,369.48766 248,387.05357 78.6667,431.84572 0,452.00002 c 1.4632,-8.79378 12.5829,-9.37239 20,-11.43416 20.3497,-5.6565 40.877,-10.81193 61.3333,-16.07202 60.5753,-15.57626 120.8408,-32.43473 181.3333,-48.33952 26.3001,-6.91487 53.0299,-17.85286 80.00005,-21.48763 C 256.6469,268.6471 171.3397,182.0065 85.3333,96 l -64,-64 C 12.3228,22.9895 0.1612,14.9791 0,1.3334 27.9906,21.0503 51.7727,51.7728 76,76 l 181.3333,181.3334 c 28.8807,28.8807 57.3079,65.8348 90.66668,89.33329 18.39962,-89.14439 45.98689,-177.03889 68.16874,-265.33329 5.14681,-20.4868 10.87056,-40.8421 16,-61.3334 2.01013,-8.0301 1.93379,-19.2107 11.83125,-20 l -65.83125,256 -18,69.3334 -5.78503,26.66663 17.61629,20 46.66666,46.66666 177.33332,175.99999 c 4.97217,-36.89364 18.67993,-74.63183 28.1543,-110.66666 C 643.75448,409.45225 663.13692,334.77794 681.83122,260 c 7.3472,-29.3891 15.3197,-58.6121 22.6667,-88 1.85222,-7.4088 10.67391,-25.1358 8.58537,-32 -4.00903,-13.176 -27.3693,-28.9526 -37.08333,-38.6666 L 610.66663,36 C 599.13766,24.4711 585.39633,13.3393 575.99996,0 594.77434,0.2218 612.82113,27.4879 625.3333,40 L 746.66662,161.3334 C 893.57156,308.2383 1041.113,454.44647 1187.9999,601.33334 l 109.3334,109.33333 c 11.8068,11.8068 35.7897,27.53581 36,45.33333 -32.8728,-23.15633 -60.8733,-59.53971 -89.3334,-87.99999 -23.3366,112.76081 -57.4945,224.44595 -86.1728,335.99999 -7.5402,29.3301 -15.3162,58.6147 -22.6625,88 -2.0867,8.3466 -10.1629,25.1041 -6.8962,33.3282 2.0648,5.1982 8.209,9.1877 11.9918,13.1594 11.4914,12.0653 23.9423,23.1017 35.7397,34.8468 36.5251,36.3629 72.8893,72.8882 109.3334,109.3322 14.7408,14.7409 39.1736,31.7402 48,50.6667 -21.2559,-0.075 -41.7923,-31.1256 -56,-45.3333 L 1163.9999,1174.6666 1133.3333,1144 c -4.0365,-4.0362 -8.8668,-10.8408 -14.6667,-12.2829 -9.5941,-2.3856 -26.5081,6.0498 -36,8.4228 -30.3038,7.5759 -60.5065,15.4997 -90.66666,23.6584 -73.67488,19.93 -147.51798,39.3058 -221.33332,58.714 -36.73055,9.6576 -74.43611,23.9608 -111.99999,29.4877 m 462.66667,-133.3333 c 10.5656,-28.0055 15.0485,-59.093 22.8683,-88 22.0478,-81.50379 40.359,-164.1108 63.4115,-245.33337 8.5103,-29.98486 15.6275,-60.43554 23.2222,-90.66666 1.7365,-6.91235 11.0423,-24.65625 8.9311,-30.66666 -1.9798,-5.63603 -8.9934,-10.56035 -13.0998,-14.66667 l -30.6667,-30.66666 -108,-108 -77.3333,-77.33333 c -9.5507,-9.55078 -21.41088,-26.94596 -34.66666,-30.66666 l -29.48763,115.99999 -55.01033,214.66666 -22.66667,87.99999 -8.29109,36 18.12239,21.33333 46.66667,46.66666 126.66662,125.33338 69.3334,68 M 854.66661,852 937.16457,532.00002 962.51231,433.33335 973.08327,398.66669 958.66661,381.33336 913.26638,337.12657 778.66662,202.6667 739.99995,164 717.33329,144 c -5.87866,43.6569 -21.90503,88.0665 -33.12752,130.6667 -17.40861,66.08243 -33.33988,132.56981 -50.71818,198.66665 -7.69808,29.27897 -14.50362,58.89315 -22.82096,88 -2.74129,9.59334 -11.26412,28.99934 -8.40845,38.66666 1.71798,5.81584 8.28251,10.54053 12.40845,14.66667 l 30.66666,30.66666 109.33333,109.33333 66.66666,66.66666 c 9.93791,9.93791 20.51205,24.6875 33.33333,30.66667 z"
       id="path1" />
  </g>
</svg>
