<?xml version="1.0" encoding="UTF-8" standalone="no"?>
<!-- Created with Inkscape (http://www.inkscape.org/) -->

<svg
   version="1.1"
   id="svg1"
   width="1333.3333"
   height="1333.3333"
   viewBox="0 0 1333.3333 1333.3333"
   sodipodi:docname="StraightDBL.svg"
   inkscape:version="1.4.2 (ebf0e940d0, 2025-05-08)"
   xmlns:inkscape="http://www.inkscape.org/namespaces/inkscape"
   xmlns:sodipodi="http://sodipodi.sourceforge.net/DTD/sodipodi-0.dtd"
   xmlns="http://www.w3.org/2000/svg"
   xmlns:svg="http://www.w3.org/2000/svg">
  <defs
     id="defs1" />
  <sodipodi:namedview
     id="namedview1"
     pagecolor="#505050"
     bordercolor="#eeeeee"
     borderopacity="1"
     inkscape:showpageshadow="0"
     inkscape:pageopacity="0"
     inkscape:pagecheckerboard="0"
     inkscape:deskcolor="#505050"
     showgrid="false"
     inkscape:zoom="0.59400004"
     inkscape:cx="666.66663"
     inkscape:cy="666.66663"
     inkscape:window-width="1920"
     inkscape:window-height="995"
     inkscape:window-x="0"
     inkscape:window-y="0"
     inkscape:window-maximized="1"
     inkscape:current-layer="g1" />
  <g
     inkscape:groupmode="layer"
     inkscape:label="Image"
     id="g1">
    <path
       style="fill:#ffff00"
       d="m 103.82203,1229.505 104.48869,-103.7217 -1.06445,-4.5583 c -1.42239,-6.0912 -1.1653,-5.0743 -5.87174,-23.2251 -2.28181,-8.8 -4.37502,-16.9717 -4.65158,-18.1593 -0.27655,-1.1876 -3.91131,-15.2876 -8.07724,-31.3333 -4.16592,-16.0457 -10.27264,-39.674 -13.57048,-52.50736 -3.29784,-12.83333 -7.77044,-30.23333 -9.9391,-38.66667 -2.16866,-8.43333 -4.42319,-17.43333 -5.01007,-19.99999 -0.58688,-2.56667 -4.19589,-16.66667 -8.02002,-31.33334 -11.06421,-42.43444 -16.70576,-64.32462 -25.94385,-100.66666 -4.75352,-18.69999 -11.43845,-44.79999 -14.85541,-57.99999 -3.41696,-13.2 -6.40974,-24.9 -6.65062,-26 -0.24089,-1.1 -2.32377,-9.2 -4.62863,-18 -2.304864,-8.8 -4.391069,-16.90234 -4.636014,-18.00519 -0.572779,-2.57893 -3.347596,-13.29653 -4.227399,-16.32814 -0.372436,-1.28333 -1.383365,-2.33333 -2.246509,-2.33333 -0.863143,0 -21.22271,19.64659 -45.24348,43.65908 -30.105031,30.09467 -43.67952833,42.83294 -43.69150975,41 C -0.02892158,749.56033 42.316353,706.54267 125.97447,623.3333 195.27955,554.39997 364.25829,386.09998 501.48277,249.33332 638.70726,112.56666 752.21318,0.46153533 753.71814,0.21081931 755.26906,-0.04755118 726.03143,29.908851 686.22721,69.360936 647.60222,107.64422 615.99996,139.52364 615.99996,140.2041 c 0,0.68046 1.23894,2.91296 2.75319,4.96109 1.51426,2.04814 4.77534,11.77385 7.24685,21.61268 2.47151,9.83883 6.35677,25.08878 8.63391,33.88878 2.27715,8.8 4.36653,16.97169 4.64309,18.15931 0.53781,2.30959 11.67842,45.45397 20.78835,80.50736 3.04934,11.73333 7.89726,30.63333 10.77315,41.99999 2.8759,11.36667 5.45726,21.56667 5.73638,22.66667 0.27911,1.1 2.0862,8 4.01574,15.33333 2.88383,10.96013 9.85166,37.75796 11.96068,46 0.28148,1.1 4.22432,16.4 8.76188,34 4.53756,17.59999 10.94163,42.49999 14.23126,55.33333 6.61729,25.81493 12.2351,47.5939 13.0693,50.66666 0.29863,1.1 2.03381,7.92112 3.85596,15.15804 1.82215,7.23692 3.81188,13.6481 4.42163,14.24707 1.28447,1.26177 244.44194,-240.68846 244.44194,-243.22832 0,-0.93103 -0.87048,-4.65168 -1.93441,-8.26811 -1.06393,-3.61643 -5.60905,-20.97533 -10.10027,-38.57533 -4.49122,-17.6 -9.63858,-37.7 -11.43858,-44.66667 -1.80001,-6.96666 -3.5483,-13.86666 -3.8851,-15.33333 -0.3368,-1.46666 -3.02465,-11.96666 -5.97301,-23.33333 -2.94836,-11.36667 -9.23862,-35.84754 -13.97835,-54.40194 -4.73974,-18.5544 -8.8747,-34.1544 -9.1888,-34.66667 -0.3141,-0.51226 -0.92703,-3.03138 -1.36206,-5.59805 -0.43502,-2.56667 -2.01599,-9.16667 -3.51325,-14.66667 -1.49727,-5.5 -2.99234,-11.2 -3.32238,-12.666663 -0.99511,-4.422055 -16.4924,-64.45838 -19.96221,-77.333328 -1.7787,-6.6 -3.62498,-14.2499995 -4.10284,-16.9999993 -1.37465,-7.910823 1.49089,-5.9217773 3.84175,2.6666665 1.62341,5.9308348 14.89161,57.1230168 17.69649,68.2776878 1.23697,4.919281 8.68732,34.003476 12.31017,48.055636 2.17423,8.43334 6.03901,23.43333 8.58841,33.33333 2.54939,9.9 8.97256,34.8 14.2737,55.33333 5.30114,20.53334 9.86319,38.23333 10.13789,39.33333 0.27469,1.1 2.34779,9.2 4.60689,18 2.25911,8.8 4.33398,16.9 4.61084,18 6.58695,26.17065 15.32417,59.07349 15.81784,59.56716 0.35689,0.35689 1.75028,0.022 3.09642,-0.74414 1.34614,-0.76616 79.54749,-78.50848 173.78089,-172.7607 C 1293.3574,42.011656 1332.7659,3.3153185 1333.0996,5.3999587 c 0.3298,2.06131 -40.4568,43.8273993 -171.3334,175.4475213 -94.4714,95.00821 -171.92707,173.16695 -172.12362,173.68609 -0.34796,0.91907 2.39148,1.72071 29.24882,8.55911 7.0903,1.80532 13.5002,3.65864 14.2442,4.11848 0.7441,0.45984 8.1429,2.65368 16.4419,4.87522 8.299,2.22153 15.9891,4.28823 17.0891,4.59267 3.161,0.87485 23.1199,6.11885 25.3333,6.65609 1.1,0.26699 13.4,3.57619 27.3334,7.35377 33.5344,9.0918 44.8512,12.12438 47.6666,12.77328 3.7158,0.85641 6.5108,1.58111 14.3334,3.71643 25.1174,6.85626 58.5007,15.7182 61.3333,16.28154 1.8333,0.36461 5.1333,1.27581 7.3333,2.02489 2.2,0.74907 21.6571,5.99271 43.238,11.65252 23.0068,6.03376 39.4755,11.00299 39.8122,12.0128 0.7785,2.33558 -0.8001,1.99486 -42.3835,-9.1479 -19.4333,-5.20739 -36.2333,-9.67636 -37.3333,-9.93105 -1.1,-0.25468 -5.3,-1.41329 -9.3334,-2.57468 -4.0333,-1.16139 -25.6333,-6.94694 -48,-12.85679 -22.3666,-5.90984 -41.5666,-10.99548 -42.6666,-11.30141 -2.9201,-0.81212 -81.245,-21.64744 -95.3334,-25.35975 -6.6,-1.73911 -14.252,-3.82456 -17.0045,-4.63433 -2.7524,-0.80977 -6.6524,-1.69037 -8.6666,-1.9569 -2.0142,-0.26652 -8.4622,-1.79117 -14.3289,-3.38811 -5.8666,-1.59694 -11.5666,-3.12521 -12.6666,-3.39616 -1.9656,-0.48417 -14.74564,-4.18478 -18.66669,-5.40518 -1.30328,-0.40563 -44.0161,41.41043 -122.60973,120.03551 -66.33535,66.3619 -120.33534,120.8819 -119.99999,121.15555 0.33535,0.27366 8.40973,2.4945 17.94306,4.93521 9.53334,2.4407 18.32157,4.92923 19.52941,5.53006 2.04715,1.01834 23.31008,6.74293 130.47058,35.12636 23.1,6.11846 46.8,12.42919 52.66667,14.02384 5.86666,1.59465 11.56666,3.12882 12.66666,3.40927 1.1,0.28044 17.9,4.7553 37.33333,9.94412 19.4333,5.18882 36.4071,9.67608 37.7195,9.97169 1.3124,0.29561 7.0124,1.81888 12.6666,3.38506 5.6543,1.56618 11.1806,3.0722 12.2806,3.34671 1.1,0.27452 12.2,3.25117 24.6666,6.61477 12.4667,3.36361 23.5667,6.32562 24.6667,6.58224 1.1,0.25663 9.2,2.38996 18,4.74075 8.8,2.35078 20.2,5.37587 25.3333,6.72241 18.5031,4.85363 23.516,6.43667 25.4408,8.03412 1.0763,0.8933 1.7307,1.85047 1.4541,2.12706 -0.2766,0.27658 -8.5411,-1.65108 -18.3655,-4.28371 -15.8874,-4.25726 -39.718,-10.58868 -45.196,-12.00784 -1.1,-0.28498 -12.2,-3.26828 -24.6667,-6.62956 -19.0829,-5.14517 -27.8168,-7.47546 -50,-13.34045 -1.1,-0.29083 -6.8,-1.8076 -12.6667,-3.3706 -5.8666,-1.563 -11.5666,-3.05997 -12.6666,-3.3266 -1.1,-0.26663 -12.2,-3.23682 -24.6667,-6.60043 -12.46666,-3.3636 -23.56666,-6.34772 -24.66666,-6.63137 -21.13244,-5.44931 -31.85323,-8.29128 -55.33333,-14.66829 -15.4,-4.18251 -31.3,-8.4591 -35.33333,-9.50353 -4.03333,-1.04443 -8.23333,-2.15226 -9.33333,-2.46186 -1.1,-0.3096 -8.9,-2.367 -17.33334,-4.572 -8.43333,-2.205 -21.33333,-5.59799 -28.66666,-7.53999 -7.33333,-1.942 -14.23333,-3.76251 -15.33333,-4.04557 -1.1,-0.28307 -19.4,-4.97905 -40.66667,-10.43552 -21.26666,-5.45646 -39.56666,-10.27305 -40.66666,-10.70353 -1.38281,-0.54115 -41.054,38.27532 -128.55339,125.78366 l -126.55338,126.56634 5.88672,1.66857 c 7.5305,2.1345 8.02533,2.26873 11.22006,3.0437 1.46667,0.35578 7.76667,2.20044 14,4.09925 13.78551,4.19937 22.50487,6.59827 44,12.10541 1.1,0.28182 12.2,3.26445 24.66666,6.62805 12.46667,3.36361 23.56667,6.34143 24.66667,6.61738 1.1,0.27595 7.7,2.02651 14.66667,3.89015 6.96666,1.86363 25.26666,6.73778 40.66666,10.83144 15.4,4.09365 32.2,8.58655 37.33333,9.98421 5.13333,1.39767 27.63333,7.39748 50,13.33292 22.36666,5.93543 45.16666,12.00675 50.66666,13.4918 10.1702,2.74605 39.02485,10.34479 42.66666,11.23607 1.1,0.2692 7.7,2.06268 14.66667,3.98551 6.96667,1.92282 16.86667,4.6047 22,5.95972 8.14754,2.15068 32.29781,8.5456 38,10.06231 1.1,0.29258 4.7,1.2372 8,2.09914 5.38701,1.40707 11.36567,4.93109 10.25319,6.04357 -0.23639,0.23639 -2.49007,-0.19283 -5.00817,-0.95383 -2.5181,-0.761 -5.47836,-1.59733 -6.57836,-1.8585 -1.1,-0.26118 -6.8,-1.78169 -12.66666,-3.37892 -5.86667,-1.59723 -11.56667,-3.11036 -12.66667,-3.36252 -1.1,-0.25216 -17.9,-4.72978 -37.33333,-9.95026 -19.43333,-5.22048 -36.83333,-9.77645 -38.66666,-10.12438 -1.83334,-0.34793 -4.83334,-1.18881 -6.66667,-1.86861 -2.65285,-0.98368 -51.69356,-14.06826 -92.66666,-24.72444 -3.66667,-0.95362 -23.76667,-6.32804 -44.66667,-11.94316 -20.89999,-5.61512 -43.69999,-11.68414 -50.66666,-13.48671 -6.96666,-1.80257 -13.56666,-3.5367 -14.66666,-3.85362 -9.83747,-2.83425 -87.41363,-23.22532 -102,-26.81091 -10.26666,-2.52374 -21.96171,-5.43309 -25.989,-6.46522 -4.02728,-1.03213 -7.44111,-1.77165 -7.58628,-1.64338 -6.57893,5.81316 -261.75803,261.52967 -261.75803,262.30937 0,0.6349 2.55,1.8132 5.66666,2.6185 3.11667,0.8052 6.86667,1.8417 8.33334,2.3032 1.46666,0.4616 3.26666,0.9662 4,1.1214 1.4128,0.299 13.53809,3.739 29.86857,8.474 5.42772,1.5737 15.32772,4.295 22,6.0472 6.67228,1.7522 23.53142,6.2571 37.46475,10.0109 43.16296,11.6287 68.85064,18.4616 75.33333,20.0388 2.56667,0.6245 14.86667,3.8901 27.33333,7.257 12.46667,3.3669 30.46667,8.1961 40,10.7316 9.53333,2.5355 32.03333,8.5509 50,13.3675 17.96666,4.8165 33.56666,8.9853 34.66666,9.2639 3.59126,0.9096 26.77685,7.0815 55.33333,14.7294 44.63138,11.9531 53.15037,14.2116 56.25355,14.9135 1.60612,0.3634 4.00612,1.8993 5.33333,3.4132 2.34406,2.6738 2.3368,2.7242 -0.25355,1.7618 -2.10804,-0.7833 -24.81186,-6.8847 -35.33333,-9.4956 -1.1,-0.2729 -7.7,-2.0695 -14.66666,-3.9923 -6.96667,-1.9228 -16.86667,-4.6047 -22,-5.9597 -5.13334,-1.3551 -15.33334,-4.0537 -22.66667,-5.997 -7.33333,-1.9434 -14.23333,-3.7683 -15.33333,-4.0554 -1.1,-0.2871 -12.2,-3.2796 -24.66667,-6.6498 -18.57781,-5.0224 -36.5535,-9.7656 -49.99999,-13.1934 -1.1,-0.2804 -5.3,-1.4601 -9.33334,-2.6214 -4.03333,-1.1614 -25.63333,-6.947 -47.99999,-12.8568 -22.36667,-5.9099 -41.56667,-10.9877 -42.66667,-11.2842 -1.1,-0.2964 -7.7,-2.0452 -14.66666,-3.8861 -6.96667,-1.841 -30.96667,-8.2335 -53.33333,-14.2055 -22.36667,-5.972 -50.26667,-13.2019 -62,-16.0664 -11.73333,-2.8645 -22.23333,-5.4707 -23.33333,-5.7915 -11.19021,-3.2631 -18.06502,-4.6844 -19.85148,-4.1042 -1.18169,0.3838 -47.74852,46.2961 -103.48185,102.0274 C 13.957814,1328.0348 8.4229949,1333.3232 3.9999998,1333.2763 -0.49588787,1333.2286 3.1571442,1329.431 103.82203,1229.505 Z M 344.51016,989.48976 c 122.02882,-122.03358 130.46,-130.75848 129.81106,-134.33332 -0.38172,-2.10274 -2.88885,-12.22316 -5.57142,-22.48982 -2.68256,-10.26667 -5.08568,-19.56667 -5.34027,-20.66667 -0.25459,-1.1 -3.49752,-13.7 -7.20652,-28 -3.709,-14.3 -8.91515,-34.4 -11.56922,-44.66666 -2.65407,-10.26667 -6.92005,-26.76667 -9.47995,-36.66667 -2.55991,-9.9 -8.78095,-34.19999 -13.82453,-53.99999 -5.04359,-19.8 -11.05137,-43.2 -13.35063,-52 -7.17983,-27.47948 -14.75354,-57.18968 -15.46513,-60.66666 -0.3752,-1.83334 -3.6878,-14.73334 -7.36133,-28.66667 -3.67352,-13.93333 -7.80789,-29.83333 -9.18748,-35.33333 -1.37958,-5.5 -4.68505,-18.4 -7.34548,-28.66666 -2.66043,-10.26667 -6.15329,-24.06667 -7.76191,-30.66667 -1.60862,-6.6 -3.56542,-12 -4.34843,-12 -0.78301,0 -61.04955,59.27414 -133.92563,131.7203 -116.28815,115.60213 -132.302621,131.99927 -130.872788,134 3.010851,4.21301 4.331662,8.52082 13.122898,42.80023 4.81638,18.78036 10.53574,41.04612 12.70969,49.47945 2.17395,8.43333 4.17574,16.23333 4.44843,17.33333 0.27268,1.1 1.75861,7.1 3.30207,13.33334 1.54345,6.23333 3.3681,12.83333 4.05479,14.66666 0.68668,1.83333 1.50778,4.83333 1.82467,6.66667 0.5334,3.086 5.55749,22.70689 24.41086,95.33332 3.99775,15.4 10.25622,39.7 13.90772,54 3.65149,14.3 8.12029,31.7 9.93065,38.66667 1.81036,6.96669 3.59829,14.16669 3.97318,15.99999 0.37489,1.8333 1.02183,4.2333 1.43763,5.3333 0.61561,1.6286 3.16894,11.3429 7.71773,29.3625 0.28172,1.116 2.7368,10.716 5.45572,21.3333 2.71893,10.6173 6.29068,24.7042 7.93723,31.3042 4.09205,16.4026 4.6673,18 6.48195,18 0.86865,0 60.30665,-58.7295 132.08444,-130.51014 z m 384.2835,-409.08154 c -2.78009,-10.85787 -5.27178,-20.64159 -5.5371,-21.74159 -0.26532,-1.1 -2.34313,-9.2 -4.61736,-18 -2.27424,-8.8 -4.35943,-16.9 -4.63376,-18 -1.32933,-5.33032 -18.67726,-72.59758 -26.64921,-103.33332 -4.94533,-19.06667 -10.96177,-42.46667 -13.36987,-52 -2.4081,-9.53333 -5.95079,-23.33333 -7.87265,-30.66666 -1.92185,-7.33334 -3.8088,-14.83334 -4.19322,-16.66667 -0.38442,-1.83333 -1.84914,-7.53333 -3.25493,-12.66667 -2.43472,-8.89052 -17.05685,-65.79708 -17.98647,-69.99999 -0.41111,-1.85865 -10.04322,-39.38902 -19.67637,-76.66666 -2.27406,-8.8 -4.73763,-16.79119 -5.4746,-17.7582 -1.01895,-1.33701 -32.0934,28.99403 -129.71873,126.61543 -111.75308,111.74857 -128.1465,128.63926 -126.58514,130.42485 1.58797,1.81602 3.40882,6.14788 4.22493,10.05123 0.15333,0.73334 2.19512,8.83334 4.53732,18 2.3422,9.16667 4.48747,17.56667 4.76727,18.66667 2.95425,11.61431 7.9987,31.17536 12.55026,48.66666 3.05322,11.73334 5.75087,22.23334 5.99475,23.33334 0.24389,1.09999 1.72225,6.79999 3.28525,12.66666 1.56301,5.86667 3.06371,11.56667 3.33491,12.66667 2.11672,8.58552 8.34208,32.70137 20.90875,80.99642 8.06155,30.98137 14.90513,57.38136 15.20798,58.66666 0.95482,4.05238 8.14609,32.26273 13.17157,51.67024 2.6585,10.26666 5.06644,19.56666 5.35097,20.66666 0.28453,1.1 1.79807,6.8 3.3634,12.66667 1.56534,5.86667 3.11884,11.86667 3.45222,13.33333 0.33338,1.46667 2.74542,11.06667 5.3601,21.33333 2.61467,10.26667 6.45389,25.36834 8.5316,33.55927 2.0777,8.19093 4.22195,15.61151 4.765,16.49017 0.63905,1.034 45.93526,-43.35033 128.40259,-125.81767 L 733.84837,600.14981 Z m -33.46037,658.70888 c 52.06666,-51.8931 216.70617,-216.1734 365.86561,-365.06742 153.7539,-153.48039 271.457,-269.97242 271.7948,-268.99845 0.8099,2.33458 -725.83238,727.49497 -729.50386,728.01617 -1.72317,0.2446 34.06272,-36.3622 91.84345,-93.9503 z"
       id="path1" />
  </g>
</svg>
