<?xml version="1.0" encoding="UTF-8" standalone="no"?>
<!-- Created with Inkscape (http://www.inkscape.org/) -->

<svg
   version="1.1"
   id="svg1"
   width="1333.3333"
   height="1333.3333"
   viewBox="0 0 1333.3333 1333.3333"
   sodipodi:docname="StraightDBL.svg"
   inkscape:version="1.4.2 (ebf0e940d0, 2025-05-08)"
   xmlns:inkscape="http://www.inkscape.org/namespaces/inkscape"
   xmlns:sodipodi="http://sodipodi.sourceforge.net/DTD/sodipodi-0.dtd"
   xmlns="http://www.w3.org/2000/svg"
   xmlns:svg="http://www.w3.org/2000/svg">
  <defs
     id="defs1" />
  <sodipodi:namedview
     id="namedview1"
     pagecolor="#505050"
     bordercolor="#eeeeee"
     borderopacity="1"
     inkscape:showpageshadow="0"
     inkscape:pageopacity="0"
     inkscape:pagecheckerboard="0"
     inkscape:deskcolor="#505050"
     showgrid="false"
     inkscape:zoom="0.59400004"
     inkscape:cx="666.66663"
     inkscape:cy="666.66663"
     inkscape:window-width="1920"
     inkscape:window-height="995"
     inkscape:window-x="0"
     inkscape:window-y="0"
     inkscape:window-maximized="1"
     inkscape:current-layer="g1" />
  <g
     inkscape:groupmode="layer"
     inkscape:label="Image"
     id="g1">
    <path
       style="fill:#ffff00;stroke:none"
       d="m 1333.3333,601.33334 -45.3333,44 L 1201.3333,732 941.33332,990.66665 709.33334,1222.6666 l -76,74.6667 -34.66666,36 c 17.79752,-0.2102 33.52653,-24.1932 45.33333,-36 35.34725,-35.3472 71.31632,-69.983 106.66666,-105.3333 L 1176,766.66667 c 38.9049,-38.90495 77.0111,-78.87101 116.9475,-116.715 13.0129,-12.33114 40.1616,-29.63696 40.3858,-48.61833 M 674.66667,1252 c -8.09566,-11.215 -22.17549,-12.068 -34.66666,-15.6132 -27.86629,-7.909 -56.09334,-14.5306 -84,-22.286 C 444.69224,1183.168 332.4617,1155.5352 221.3334,1124 l 64,-65.3333 127.99996,-128.00004 47.99999,-48 21.33334,-18.57715 34.66666,8.06478 86.66666,22.68107 221.33332,58.69962 115.99999,30.46501 C 933.04495,972.51806 917.00386,971.08226 903.99999,967.83129 875.90547,960.80769 848.0109,952.85253 820,945.48762 709.55974,916.44962 596.75083,890.77441 488.00002,856 L 666.66667,677.33334 716,628.00001 c 6.1635,-6.16349 14.23999,-18.02669 22.66667,-20.8632 8.50716,-2.86352 24.83154,5.22526 33.33333,7.36108 29.85705,7.5009 59.52421,15.66423 89.33333,23.32927 113.12524,29.08886 225.62497,66.5651 339.99997,90.17284 -8.333,-11.69124 -24.1338,-13.19726 -37.3333,-16.49796 -27.2177,-6.80607 -54.1614,-14.68791 -81.3333,-21.67489 -80.6251,-20.73201 -160.82231,-43.17138 -241.33337,-64.33951 -31.4591,-8.27132 -63.76391,-21.14665 -95.99999,-25.48763 l 57.33333,-58.66666 121.33332,-119.99999 44,-44 18.66666,-15.51546 30.66665,7.66976 68,17.56591 169.3333,44.79215 78.6667,20.1543 c -1.4632,-8.79378 -12.5829,-9.37239 -20,-11.43416 -20.3497,-5.6565 -40.877,-10.81193 -61.3333,-16.07202 -60.5753,-15.57626 -120.8408,-32.43473 -181.3333,-48.33952 -26.3001,-6.91487 -53.0299,-17.85286 -80.00005,-21.48763 C 1076.6864,268.6471 1161.9936,182.0065 1248,96 l 64,-64 c 9.0105,-9.0105 21.1721,-17.0209 21.3333,-30.6666 -27.9906,19.7169 -51.7727,50.4394 -76,74.6666 L 1076,257.3334 c -28.8807,28.8807 -57.3079,65.8348 -90.66668,89.33329 C 966.9337,257.5223 939.34643,169.6278 917.16458,81.3334 912.01777,60.8466 906.29402,40.4913 901.16458,20 899.15445,11.9699 899.23079,0.7893 889.33333,0 l 65.83125,256 18,69.3334 5.78503,26.66663 -17.61629,20 -46.66666,46.66666 -177.33332,175.99999 C 732.36117,557.77304 718.65341,520.03485 709.17904,484.00002 689.57882,409.45225 670.19638,334.77794 651.50208,260 c -7.3472,-29.3891 -15.3197,-58.6121 -22.6667,-88 -1.85222,-7.4088 -10.67391,-25.1358 -8.58537,-32 4.00903,-13.176 27.3693,-28.9526 37.08333,-38.6666 L 722.66667,36 C 734.19564,24.4711 747.93697,13.3393 757.33334,0 738.55896,0.2218 720.51217,27.4879 708,40 L 586.66668,161.3334 C 439.76174,308.2383 292.2203,454.44647 145.3334,601.33334 L 36,710.66667 C 24.1932,722.47347 0.2103,738.20248 0,756 32.8728,732.84367 60.8733,696.46029 89.3334,668.00001 112.67,780.76082 146.8279,892.44596 175.5062,1004 c 7.5402,29.3301 15.3162,58.6147 22.6625,88 2.0867,8.3466 10.1629,25.1041 6.8962,33.3282 -2.0648,5.1982 -8.209,9.1877 -11.9918,13.1594 -11.4914,12.0653 -23.9423,23.1017 -35.7397,34.8468 C 120.8083,1209.6973 84.4441,1246.2226 48,1282.6666 33.2592,1297.4075 8.8264,1314.4068 0,1333.3333 21.2559,1333.2581 41.7923,1302.2077 56,1288 L 169.3334,1174.6666 200,1144 c 4.0365,-4.0362 8.8668,-10.8408 14.6667,-12.2829 9.5941,-2.3856 26.5081,6.0498 36,8.4228 30.3038,7.5759 60.5065,15.4997 90.66666,23.6584 73.67488,19.93 147.51798,39.3058 221.33332,58.714 36.73055,9.6576 74.43611,23.9608 111.99999,29.4877 M 212,1118.6667 c -10.5656,-28.0055 -15.0485,-59.093 -22.8683,-88 -22.0478,-81.50379 -40.359,-164.1108 -63.4115,-245.33337 -8.5103,-29.98486 -15.6275,-60.43554 -23.2222,-90.66666 -1.7365,-6.91235 -11.0423,-24.65625 -8.9311,-30.66666 1.9798,-5.63603 8.9934,-10.56035 13.0998,-14.66667 l 30.6667,-30.66666 108,-108 77.3333,-77.33333 c 9.5507,-9.55078 21.41088,-26.94596 34.66666,-30.66666 l 29.48763,115.99999 55.01033,214.66666 22.66667,87.99999 8.29109,36 -18.12239,21.33333 -46.66667,46.66666 -126.66662,125.33338 -69.3334,68 M 478.66669,852 396.16873,532.00002 370.82099,433.33335 360.25003,398.66669 374.66669,381.33336 420.06692,337.12657 554.66668,202.6667 593.33335,164 616.00001,144 c 5.87866,43.6569 21.90503,88.0665 33.12752,130.6667 17.40861,66.08243 33.33988,132.56981 50.71818,198.66665 7.69808,29.27897 14.50362,58.89315 22.82096,88 2.74129,9.59334 11.26412,28.99934 8.40845,38.66666 -1.71798,5.81584 -8.28251,10.54053 -12.40845,14.66667 l -30.66666,30.66666 -109.33333,109.33333 -66.66666,66.66666 c -9.93791,9.93791 -20.51205,24.6875 -33.33333,30.66667 z"
       id="path1" />
  </g>
</svg>
