<?xml version="1.0" encoding="UTF-8" standalone="no"?>
<!-- Created with Inkscape (http://www.inkscape.org/) -->

<svg
   version="1.1"
   id="svg1"
   width="1333.3333"
   height="1333.3333"
   viewBox="0 0 1333.3333 1333.3333"
   sodipodi:docname="StraightDTR.svg"
   inkscape:version="1.4.2 (ebf0e940d0, 2025-05-08)"
   xmlns:inkscape="http://www.inkscape.org/namespaces/inkscape"
   xmlns:sodipodi="http://sodipodi.sourceforge.net/DTD/sodipodi-0.dtd"
   xmlns="http://www.w3.org/2000/svg"
   xmlns:svg="http://www.w3.org/2000/svg">
  <defs
     id="defs1" />
  <sodipodi:namedview
     id="namedview1"
     pagecolor="#505050"
     bordercolor="#eeeeee"
     borderopacity="1"
     inkscape:showpageshadow="0"
     inkscape:pageopacity="0"
     inkscape:pagecheckerboard="0"
     inkscape:deskcolor="#505050"
     inkscape:zoom="0.59400004"
     inkscape:cx="666.66663"
     inkscape:cy="666.66663"
     inkscape:window-width="1920"
     inkscape:window-height="995"
     inkscape:window-x="0"
     inkscape:window-y="0"
     inkscape:window-maximized="1"
     inkscape:current-layer="g1" />
  <g
     inkscape:groupmode="layer"
     inkscape:label="Image"
     id="g1">
    <path
       style="fill:#ffff00"
       d="m 436.91949,1325.6666 c -1.62341,-5.9308 -14.8916,-57.123 -17.69648,-68.2777 -1.23697,-4.9193 -8.68733,-34.0035 -12.31017,-48.0556 -2.17424,-8.4334 -6.03902,-23.4334 -8.58841,-33.3334 -2.5494,-9.9 -8.97256,-34.8 -14.27371,-55.3333 -5.30114,-20.5333 -9.86319,-38.2333 -10.13788,-39.3333 -0.2747,-1.1 -2.3478,-9.2 -4.6069,-18 -2.2591,-8.8 -4.33398,-16.9 -4.61084,-18 -6.58694,-26.1707 -15.32417,-59.07352 -15.81783,-59.56718 -0.3569,-0.3569 -1.75029,-0.022 -3.09643,0.74413 -1.34614,0.76617 -79.54752,78.50845 -173.78085,172.76065 C 39.975809,1291.3216 0.56733081,1330.0179 0.2337003,1327.9333 -0.09619641,1325.872 40.690489,1284.1059 171.56702,1152.4858 c 94.47146,-95.0082 171.9271,-173.16698 172.12365,-173.68612 0.34796,-0.91906 -2.39147,-1.72071 -29.2488,-8.5591 -7.0903,-1.80533 -13.50021,-3.65865 -14.24424,-4.11849 -0.74403,-0.45983 -8.14288,-2.65368 -16.44188,-4.87522 -8.29901,-2.22153 -15.9891,-4.28823 -17.0891,-4.59267 -3.16105,-0.87485 -23.11989,-6.11884 -25.33333,-6.65609 -1.1,-0.26699 -13.4,-3.57619 -27.33333,-7.35377 -33.53442,-9.0918 -44.85123,-12.12438 -47.66667,-12.77328 -3.71577,-0.85641 -6.51075,-1.58111 -14.33333,-3.71642 -25.11741,-6.85627 -58.500752,-15.71821 -61.333329,-16.28155 -1.833333,-0.36461 -5.133333,-1.27581 -7.333333,-2.02489 -2.2,-0.74907 -21.657111,-5.99271 -43.238025,-11.65252 -23.00678,-6.03376 -39.47549901,-11.00299 -39.81210192,-12.0128 -0.77852528,-2.33557 0.80007562,-1.99485 42.38346292,9.1479 19.433332,5.20739 36.233331,9.67636 37.333331,9.93105 1.1,0.25469 5.3,1.41329 9.333333,2.57468 4.033333,1.16139 25.633332,6.94694 47.999992,12.85679 22.36667,5.90985 41.56667,10.99548 42.66667,11.30141 2.92003,0.81212 81.24496,21.64744 95.33333,25.35975 6.6,1.73911 14.25202,3.82456 17.00449,4.63433 2.75247,0.80977 6.65247,1.69038 8.66667,1.9569 2.01419,0.26652 8.46217,1.79117 14.32883,3.38811 5.86667,1.59694 11.56667,3.12521 12.66667,3.39616 1.96562,0.48417 14.74562,4.18478 18.66667,5.40518 1.30327,0.40563 44.01609,-41.41043 122.60972,-120.03551 66.33535,-66.36189 120.33534,-120.88189 119.99999,-121.15555 -0.33535,-0.27366 -8.40973,-2.4945 -17.94306,-4.9352 -9.53333,-2.44071 -18.32157,-4.92924 -19.5294,-5.53007 -2.04715,-1.01834 -23.31009,-6.74292 -130.47059,-35.12636 -23.1,-6.11846 -46.8,-12.42919 -52.66667,-14.02384 -5.86666,-1.59465 -11.56666,-3.12882 -12.66666,-3.40927 -1.1,-0.28044 -17.9,-4.75529 -37.33333,-9.94411 -19.43333,-5.18883 -36.4071,-9.67609 -37.71948,-9.97169 -1.31238,-0.29561 -7.01238,-1.81889 -12.66667,-3.38507 -5.65428,-1.56618 -11.18052,-3.0722 -12.28052,-3.34671 -1.1,-0.27452 -12.19999,-3.25116 -24.66666,-6.61477 -12.46667,-3.36361 -23.56667,-6.32561 -24.66667,-6.58224 -1.1,-0.25663 -9.2,-2.38996 -17.99999,-4.74074 -8.8,-2.35079 -20.2,-5.37587 -25.33334,-6.72242 -18.5031,-4.85362 -23.51594,-6.43666 -25.44076,-8.03412 -1.07635,-0.8933 -1.73071,-1.85047 -1.45413,-2.12706 0.27659,-0.27658 8.54109,1.65108 18.36555,4.28371 15.88734,4.25726 39.71802,10.58869 45.19601,12.00785 1.1,0.28497 12.2,3.26827 24.66666,6.62955 19.08295,5.14517 27.81685,7.47546 50,13.34045 1.1,0.29083 6.8,1.8076 12.66667,3.3706 5.86666,1.563 11.56666,3.05997 12.66666,3.3266 1.1,0.26663 12.2,3.23682 24.66667,6.60043 12.46666,3.3636 23.56666,6.34772 24.66666,6.63138 21.13244,5.4493 31.85324,8.29127 55.33333,14.66828 15.4,4.18251 31.3,8.4591 35.33333,9.50353 4.03334,1.04443 8.23334,2.15227 9.33334,2.46186 1.1,0.3096 8.9,2.367 17.33333,4.572 8.43333,2.205 21.33333,5.598 28.66666,7.54 7.33334,1.942 14.23334,3.7625 15.33334,4.04557 1.1,0.28306 19.39999,4.97904 40.66666,10.43551 21.26667,5.45647 39.56666,10.27306 40.66666,10.70353 1.38281,0.54115 41.054,-38.27532 128.55339,-125.78366 l 126.55338,-126.56633 -5.88672,-1.66858 c -7.5305,-2.1345 -8.02533,-2.26873 -11.22006,-3.0437 -1.46667,-0.35578 -7.76667,-2.20044 -14,-4.09925 -13.78551,-4.19937 -22.50487,-6.59827 -44,-12.10541 -1.1,-0.28182 -12.2,-3.26445 -24.66666,-6.62805 -12.46667,-3.36361 -23.56667,-6.34143 -24.66667,-6.61738 -1.1,-0.27594 -7.7,-2.02651 -14.66666,-3.89014 -6.96667,-1.86364 -25.26667,-6.73779 -40.66667,-10.83144 -15.4,-4.09366 -32.2,-8.58656 -37.33333,-9.98422 -5.13333,-1.39767 -27.63333,-7.39748 -50,-13.33291 -22.36666,-5.93544 -45.16666,-12.00675 -50.66666,-13.49181 -10.1702,-2.74605 -39.02484,-10.34479 -42.66666,-11.23607 -1.1,-0.2692 -7.7,-2.06268 -14.66667,-3.9855 -6.96667,-1.92283 -16.86666,-4.6047 -22,-5.95973 -8.14754,-2.15067 -32.2978,-8.5456 -38,-10.0623 -1.1,-0.29259 -4.69999,-1.2372 -7.99999,-2.09915 -5.38702,-1.40707 -11.36568,-4.93108 -10.2532,-6.04356 0.2364,-0.2364 2.49007,0.19282 5.00817,0.95382 2.5181,0.761 5.47836,1.59733 6.57836,1.85851 1.1,0.26117 6.8,1.78168 12.66666,3.37891 5.86667,1.59723 11.56667,3.11037 12.66667,3.36253 1.1,0.25216 17.9,4.72977 37.33333,9.95025 19.43333,5.22048 36.83333,9.77645 38.66667,10.12438 1.83333,0.34793 4.83333,1.18881 6.66666,1.86861 2.65285,0.98368 51.69356,14.06826 92.66666,24.72444 3.66667,0.95362 23.76667,6.32805 44.66667,11.94317 20.9,5.61512 43.69999,11.68414 50.66666,13.4867 6.96667,1.80257 13.56667,3.5367 14.66667,3.85362 9.83746,2.83426 87.41362,23.22532 101.99999,26.81092 10.26667,2.52373 21.96172,5.43308 25.989,6.46521 4.02729,1.03213 7.44111,1.77166 7.58628,1.64338 6.57893,-5.81316 261.75807,-261.5297 261.75807,-262.30932 0,-0.63494 -2.55,-1.81327 -5.6667,-2.61851 -3.1167,-0.80525 -6.8667,-1.84173 -8.3333,-2.30328 -1.4667,-0.46155 -3.2667,-0.96616 -4,-1.12134 -1.4128,-0.29897 -13.5381,-3.73902 -29.8686,-8.47399 -5.4277,-1.57374 -15.3277,-4.29499 -22,-6.04721 -6.6723,-1.75222 -23.5314,-6.25715 -37.4648,-10.01096 -43.16292,-11.62864 -68.85059,-18.4616 -75.33329,-20.03878 -2.56667,-0.62445 -14.86667,-3.89008 -27.33333,-7.25696 -12.46667,-3.36688 -30.46667,-8.19612 -40,-10.73164 -9.53333,-2.53552 -32.03333,-8.55086 -50,-13.36743 -17.96666,-4.81657 -33.56666,-8.98535 -34.66666,-9.26397 -3.59125,-0.90962 -26.77685,-7.08149 -55.33333,-14.72941 -44.63138,-11.953064 -53.15037,-14.211554 -56.25355,-14.913518 -1.60611,-0.363317 -4.00611,-1.899232 -5.33333,-3.413145 -2.34406,-2.673797 -2.3368,-2.724215 0.25355,-1.761771 2.10804,0.783241 24.81186,6.884713 35.33333,9.495551 1.1,0.272958 7.7,2.069506 14.66667,3.992329 6.96666,1.922823 16.86666,4.604704 22,5.959724 5.13333,1.35503 15.33333,4.05368 22.66666,5.99701 7.33333,1.94333 14.23333,3.76824 15.33333,4.05537 1.1,0.28712 12.2,3.27954 24.66667,6.64981 18.57781,5.02238 36.5535,9.76557 49.99999,13.19336 1.1,0.28041 5.3,1.46006 9.33334,2.62145 4.03333,1.16139 25.63333,6.94694 47.99999,12.85679 22.36667,5.90985 41.56667,10.9877 42.66667,11.28413 1.1,0.29642 7.7,2.0452 14.66666,3.88618 6.96667,1.84099 30.96667,8.23343 53.33333,14.20544 22.3667,5.97201 50.2667,13.20191 62,16.06644 11.7333,2.86453 22.2333,5.47068 23.3333,5.79145 11.1902,3.26311 18.0651,4.68446 19.8515,4.10426 1.1817,-0.38378 47.7485,-46.29613 103.4819,-102.02744 96.0421,-96.0387002 101.577,-101.32707108 106,-101.28015397 4.4958,0.04769018 0.8412,3.84688247 -99.8586,103.80747397 -100.5226,99.78465 -104.4876,103.90561 -103.5416,107.61341 0.541,2.1205 1.1909,4.75545 1.4441,5.85545 0.2532,1.1 2.3211,9.2 4.5953,18 2.2742,8.8 4.3612,16.97169 4.6378,18.15931 0.2766,1.18762 3.9113,15.28762 8.0772,31.33333 4.166,16.04571 10.2727,39.67402 13.5705,52.50735 3.2979,12.83334 7.7705,30.23333 9.9391,38.66667 2.1687,8.43333 4.4232,17.43333 5.0101,20 0.5869,2.56666 4.1959,16.66666 8.02,31.33333 11.0642,42.43444 16.7058,64.32462 25.9439,100.66666 4.7535,18.7 11.4384,44.8 14.8554,57.99999 3.4169,13.2 6.4097,24.9 6.6506,26 0.2409,1.1 2.3238,9.2 4.6286,18 2.3049,8.8 4.3911,16.90234 4.636,18.0052 0.5728,2.57892 3.3476,13.29652 4.2274,16.32813 0.3725,1.28334 1.3834,2.33334 2.2465,2.33334 0.8632,0 21.2228,-19.64659 45.2435,-43.65909 30.1051,-30.09467 43.6796,-42.83294 43.6915,-41 0.012,1.76538 -42.3337,44.78304 -125.9918,127.99242 -69.3051,68.93333 -238.28384,237.23332 -375.50832,373.99994 -137.22449,136.7667 -250.73041,248.8718 -252.23537,249.1225 -1.55092,0.2584 27.68671,-29.698 67.49094,-69.1501 38.62498,-38.2833 70.22724,-70.1627 70.22724,-70.8432 0,-0.6804 -1.23894,-2.9129 -2.75319,-4.961 -1.51426,-2.0482 -4.77534,-11.7739 -7.24685,-21.6127 -2.47151,-9.8388 -6.35677,-25.0888 -8.63391,-33.8888 -2.27714,-8.8 -4.36653,-16.9717 -4.64308,-18.1593 -0.53782,-2.3096 -11.67843,-45.454 -20.78835,-80.5074 -3.04935,-11.7333 -7.89727,-30.6333 -10.77316,-41.99996 -2.87589,-11.36667 -5.45726,-21.56667 -5.73638,-22.66667 -0.27911,-1.1 -2.0862,-8 -4.01574,-15.33333 -2.88383,-10.96013 -9.85166,-37.75796 -11.96068,-46 -0.28148,-1.1 -4.22432,-16.39999 -8.76188,-33.99999 -4.53755,-17.6 -10.94162,-42.5 -14.23126,-55.33333 -6.61728,-25.81494 -12.2351,-47.59391 -13.06929,-50.66667 -0.29863,-1.1 -2.03382,-7.92111 -3.85597,-15.15803 -1.82215,-7.23693 -3.81188,-13.64811 -4.42163,-14.24707 -1.28447,-1.26178 -244.44194,240.68845 -244.44194,243.22832 0,0.93102 0.87048,4.65167 1.93441,8.2681 1.06393,3.61644 5.60905,20.97533 10.10027,38.57533 4.49122,17.6 9.63858,37.7 11.43859,44.6667 1.8,6.9666 3.54829,13.8666 3.88509,15.3333 0.3368,1.4667 3.02466,11.9667 5.97301,23.3333 2.94836,11.3667 9.23862,35.8476 13.97836,54.402 4.73973,18.5544 8.87469,34.1544 9.18879,34.6666 0.3141,0.5123 0.92703,3.0314 1.36206,5.5981 0.43503,2.5667 2.01599,9.1667 3.51326,14.6667 1.49726,5.5 2.99233,11.2 3.32238,12.6666 0.9951,4.4221 16.49239,64.4584 19.9622,77.3334 1.77871,6.6 3.62499,14.25 4.10285,17 1.37464,7.9108 -1.4909,5.9217 -3.84176,-2.6667 z M 974.109,933.38451 c -1.58796,-1.81602 -3.40882,-6.14787 -4.22493,-10.05123 -0.15333,-0.73334 -2.19512,-8.83334 -4.53732,-18 -2.34219,-9.16667 -4.48747,-17.56667 -4.76726,-18.66667 -2.95426,-11.61431 -7.9987,-31.17536 -12.55026,-48.66666 -3.05323,-11.73333 -5.75087,-22.23333 -5.99476,-23.33333 -0.24389,-1.1 -1.72225,-6.8 -3.28525,-12.66667 -1.563,-5.86667 -3.06371,-11.56666 -3.33491,-12.66666 -2.11671,-8.58552 -8.34208,-32.70137 -20.90875,-80.99643 -8.06154,-30.98136 -14.90513,-57.38136 -15.20797,-58.66666 -0.95483,-4.05238 -8.1461,-32.26273 -13.17158,-51.67024 -2.6585,-10.26666 -5.06644,-19.56666 -5.35097,-20.66666 -0.28453,-1.1 -1.79806,-6.8 -3.3634,-12.66667 -1.56534,-5.86666 -3.11884,-11.86666 -3.45222,-13.33333 -0.33338,-1.46667 -2.74542,-11.06667 -5.3601,-21.33333 -2.61467,-10.26667 -6.48807,-25.50557 -8.60755,-33.86422 -2.11947,-8.35865 -4.35028,-15.69424 -4.95735,-16.30131 -0.60706,-0.60706 -58.3539,56.14874 -128.32629,126.12401 l -127.22254,127.22777 5.05435,19.7402 c 2.7799,10.85711 5.27143,20.6402 5.53675,21.7402 0.26532,1.1 2.34313,9.2 4.61737,18 2.27423,8.8 4.35942,16.9 4.63375,18 1.32933,5.33032 18.67727,72.59759 26.64921,103.33332 4.94533,19.06667 10.96177,42.46667 13.36987,52 2.40811,9.53333 5.9508,23.33333 7.87265,30.66667 1.92185,7.33329 3.8088,14.83329 4.19322,16.66669 0.38442,1.8333 1.84914,7.5333 3.25493,12.6666 2.43473,8.8906 17.05685,65.7971 17.98648,70 0.41111,1.8587 10.04321,39.3891 19.67636,76.6667 2.27407,8.8 4.73764,16.7912 5.4746,17.7582 1.01895,1.337 32.0934,-28.994 129.71873,-126.6154 C 959.27694,952.06079 975.67036,935.1701 974.109,933.38451 Z m 136.676,-132.4382 c 116.2561,-115.60079 132.2676,-131.99929 130.8377,-133.99999 -3.0108,-4.21301 -4.3316,-8.52083 -13.1229,-42.80024 -4.8163,-18.78036 -10.5357,-41.04612 -12.7096,-49.47945 -2.174,-8.43333 -4.1758,-16.23333 -4.4485,-17.33333 -0.2727,-1.1 -1.7586,-7.1 -3.302,-13.33333 -1.5435,-6.23334 -3.3681,-12.83334 -4.0548,-14.66667 -0.6867,-1.83333 -1.5078,-4.83333 -1.8247,-6.66667 -0.5334,-3.086 -5.5575,-22.70689 -24.4109,-95.33332 -3.9977,-15.4 -10.2562,-39.7 -13.9077,-54 -3.6515,-14.3 -8.1203,-31.7 -9.9306,-38.66666 -1.8104,-6.96667 -3.5983,-14.16667 -3.9732,-16 -0.3749,-1.83334 -1.0218,-4.23334 -1.4376,-5.33334 -0.6156,-1.62857 -3.169,-11.34285 -7.7178,-29.36246 -0.2817,-1.11602 -2.7368,-10.71602 -5.4557,-21.33333 -2.7189,-10.61731 -6.2907,-24.7042 -7.9372,-31.3042 -4.0921,-16.40257 -4.6673,-18 -6.482,-18 -0.8686,0 -60.3066,58.72958 -132.08441,130.51017 -122.02882,122.03358 -130.46,130.75848 -129.81105,134.33333 0.38171,2.10273 2.88884,12.22315 5.57141,22.48982 2.68256,10.26666 5.08569,19.56666 5.34027,20.66666 0.25459,1.1 3.49752,13.7 7.20652,28 3.709,14.3 8.91515,34.4 11.56922,44.66666 2.65407,10.26667 6.92005,26.76667 9.47996,36.66667 2.5599,9.9 8.78094,34.2 13.82452,53.99999 5.04359,19.8 11.05137,43.2 13.35063,52 7.17983,27.47948 14.75354,57.18969 15.46513,60.66666 0.3752,1.83334 3.6878,14.73334 7.36133,28.66667 3.67353,13.93333 7.80789,29.83333 9.18748,35.33333 1.37959,5.5 4.68467,18.4 7.34464,28.66667 2.65996,10.26666 5.99959,23.46666 7.42139,29.33333 3.22654,13.3134 3.59576,14.32569 5.02518,13.77754 0.63711,-0.24432 60.76848,-59.71835 133.62528,-132.16451 z M 0,728.13134 C 0,725.32166 726.55849,0.73221139 729.84341,0.26587517 731.56616,0.02130896 695.76633,36.630634 637.99996,94.186068 585.9333,146.06261 427.83232,303.74296 286.66446,444.58684 -2.9366516,733.52331 0,730.61862 0,728.13134 Z"
       id="path1" />
  </g>
</svg>
