<?xml version="1.0" encoding="UTF-8" standalone="no"?>
<!DOCTYPE svg PUBLIC "-//W3C//DTD SVG 20010904//EN"
              "http://www.w3.org/TR/2001/REC-SVG-20010904/DTD/svg10.dtd">

<svg xmlns="http://www.w3.org/2000/svg"
     width="352.734mm" height="352.734mm"
     viewBox="0 0 1000 1000">
  <path id="Selection"
        fill="none" stroke="black" stroke-width="1"
        d="M 183.08,0.00
           C 183.08,0.00 190.00,0.00 190.00,0.00
             190.00,0.00 190.00,181.00 190.00,181.00
             190.00,181.00 346.00,90.42 346.00,90.42
             346.00,90.42 418.00,48.60 418.00,48.60
             418.00,48.60 479.00,12.80 479.00,12.80
             484.58,9.46 499.10,-0.37 505.00,0.15
             509.71,0.56 526.03,10.83 531.00,13.80
             531.00,13.80 587.00,46.80 587.00,46.80
             587.00,46.80 684.00,104.01 684.00,104.01
             684.00,104.01 743.00,138.85 743.00,138.85
             743.00,138.85 786.00,164.20 786.00,164.20
             792.00,167.80 805.02,176.11 811.00,178.00
             811.00,178.00 810.24,156.00 810.24,156.00
             810.24,156.00 811.00,144.00 811.00,144.00
             811.00,144.00 811.00,107.00 811.00,107.00
             811.00,107.00 810.11,74.00 810.11,74.00
             810.11,74.00 810.11,0.00 810.11,0.00
             810.11,0.00 817.00,0.00 817.00,0.00
             817.00,0.00 817.00,1000.00 817.00,1000.00
             817.00,1000.00 801.00,998.30 801.00,998.30
             801.00,998.30 773.00,982.20 773.00,982.20
             773.00,982.20 721.00,951.60 721.00,951.60
             721.00,951.60 592.00,875.80 592.00,875.80
             592.00,875.80 542.00,846.40 542.00,846.40
             542.00,846.40 507.00,826.00 507.00,826.00
             507.00,826.00 507.00,1000.00 507.00,1000.00
             507.00,1000.00 501.00,1000.00 501.00,1000.00
             501.00,1000.00 501.00,825.00 501.00,825.00
             501.00,825.00 477.00,838.34 477.00,838.34
             477.00,838.34 421.00,870.58 421.00,870.58
             421.00,870.58 283.00,950.60 283.00,950.60
             283.00,950.60 231.00,980.80 231.00,980.80
             231.00,980.80 200.00,998.35 200.00,998.35
             200.00,998.35 183.00,1000.00 183.00,1000.00
             183.00,1000.00 183.00,895.00 183.00,895.00
             183.00,895.00 183.60,882.96 183.60,882.96
             183.60,882.96 183.08,872.00 183.08,872.00
             183.08,872.00 183.08,621.00 183.08,621.00
             183.08,621.00 183.08,563.00 183.08,563.00
             183.08,563.00 183.08,541.00 183.08,541.00
             183.08,541.00 183.08,532.00 183.08,532.00
             183.08,532.00 183.08,0.00 183.08,0.00 Z
           M 811.00,182.00
           C 811.00,182.00 804.00,181.30 804.00,181.30
             804.00,181.30 784.00,169.99 784.00,169.99
             784.00,169.99 732.00,139.28 732.00,139.28
             732.00,139.28 576.00,47.58 576.00,47.58
             576.00,47.58 532.00,21.60 532.00,21.60
             532.00,21.60 507.00,8.00 507.00,8.00
             507.00,8.00 507.00,275.00 507.00,275.00
             507.00,276.81 506.86,280.07 507.57,281.67
             509.08,285.09 521.27,291.16 525.00,293.28
             525.00,293.28 577.00,323.85 577.00,323.85
             577.00,323.85 659.00,372.40 659.00,372.40
             659.00,372.40 732.00,415.40 732.00,415.40
             732.00,415.40 782.00,444.80 782.00,444.80
             788.61,448.76 804.63,458.99 811.00,461.00
             811.00,461.00 811.00,182.00 811.00,182.00 Z
           M 500.00,9.00
           C 500.00,9.00 479.00,20.69 479.00,20.69
             479.00,20.69 422.00,53.58 422.00,53.58
             422.00,53.58 284.00,133.60 284.00,133.60
             284.00,133.60 225.00,167.85 225.00,167.85
             225.00,167.85 200.00,181.79 200.00,181.79
             200.00,181.79 190.00,181.79 190.00,181.79
             190.00,181.79 190.00,519.00 190.00,519.00
             190.00,519.00 189.32,541.00 189.32,541.00
             189.32,541.00 189.32,553.04 189.32,553.04
             189.32,553.04 189.32,577.00 189.32,577.00
             189.32,577.00 189.32,594.17 189.32,594.17
             189.32,594.17 189.32,628.00 189.32,628.00
             189.32,628.00 190.00,643.00 190.00,643.00
             190.00,643.00 190.00,658.00 190.00,658.00
             190.00,658.00 189.26,674.17 189.26,674.17
             189.26,674.17 190.00,691.00 190.00,691.00
             190.00,691.00 190.00,710.00 190.00,710.00
             190.00,710.00 190.00,737.00 190.00,737.00
             190.00,737.00 223.00,718.42 223.00,718.42
             223.00,718.42 278.00,686.42 278.00,686.42
             278.00,686.42 429.00,598.80 429.00,598.80
             429.00,598.80 483.00,567.01 483.00,567.01
             487.28,564.50 498.68,559.21 500.40,554.91
             501.12,553.12 501.00,549.97 501.00,548.00
             501.00,548.00 501.00,375.00 501.00,375.00
             501.00,375.00 501.00,293.00 501.00,293.00
             494.38,294.34 485.37,300.84 479.00,304.22
             479.00,304.22 426.00,334.80 426.00,334.80
             426.00,334.80 335.00,387.42 335.00,387.42
             335.00,387.42 274.00,423.00 274.00,423.00
             274.00,423.00 219.00,454.99 219.00,454.99
             209.84,460.37 202.06,467.14 191.00,464.00
             191.00,464.00 224.00,445.42 224.00,445.42
             224.00,445.42 278.00,414.01 278.00,414.01
             278.00,414.01 428.00,326.85 428.00,326.85
             428.00,326.85 480.00,296.40 480.00,296.40
             480.00,296.40 499.98,283.67 499.98,283.67
             499.98,283.67 500.80,275.72 500.80,275.72
             500.80,275.72 500.80,255.39 500.80,255.39
             500.80,255.39 500.00,229.00 500.00,229.00
             500.00,229.00 500.00,9.00 500.00,9.00 Z
           M 508.00,290.00
           C 506.18,294.60 507.00,308.34 507.00,314.00
             507.00,314.00 507.00,367.00 507.00,367.00
             507.00,367.00 507.00,548.00 507.00,548.00
             507.00,549.95 506.88,553.13 507.60,554.90
             509.24,558.94 520.88,564.49 525.00,566.85
             525.00,566.85 578.00,598.01 578.00,598.01
             578.00,598.01 724.00,684.20 724.00,684.20
             724.00,684.20 778.00,716.01 778.00,716.01
             778.00,716.01 811.00,735.00 811.00,735.00
             811.00,735.00 811.00,465.00 811.00,465.00
             811.00,465.00 805.00,464.30 805.00,464.30
             805.00,464.30 782.00,451.20 782.00,451.20
             782.00,451.20 724.00,417.01 724.00,417.01
             724.00,417.01 565.00,323.58 565.00,323.58
             565.00,323.58 508.00,290.00 508.00,290.00 Z
           M 508.00,563.00
           C 506.18,567.60 507.00,581.34 507.00,587.00
             507.00,587.00 507.00,637.00 507.00,637.00
             507.00,637.00 507.00,811.00 507.00,811.00
             507.00,812.77 506.86,816.06 507.57,817.62
             509.00,820.75 520.54,826.41 524.00,828.42
             524.00,828.42 577.00,859.60 577.00,859.60
             577.00,859.60 741.00,956.42 741.00,956.42
             741.00,956.42 785.00,982.40 785.00,982.40
             790.79,985.88 805.56,994.99 811.00,997.00
             811.00,997.00 811.00,738.00 811.00,738.00
             811.00,738.00 804.00,737.30 804.00,737.30
             804.00,737.30 781.00,724.20 781.00,724.20
             781.00,724.20 724.00,690.60 724.00,690.60
             724.00,690.60 582.00,607.01 582.00,607.01
             582.00,607.01 508.00,563.00 508.00,563.00 Z
           M 501.00,565.00
           C 501.00,565.00 477.00,577.88 477.00,577.88
             477.00,577.88 423.00,608.99 423.00,608.99
             423.00,608.99 275.00,694.85 275.00,694.85
             275.00,694.85 224.00,724.42 224.00,724.42
             224.00,724.42 200.00,737.80 200.00,737.80
             200.00,737.80 190.00,737.80 190.00,737.80
             190.00,737.80 190.00,871.00 190.00,871.00
             190.00,871.00 189.20,882.83 189.20,882.83
             189.20,882.83 190.00,896.00 190.00,896.00
             190.00,896.00 190.00,997.00 190.00,997.00
             190.00,997.00 221.00,979.42 221.00,979.42
             221.00,979.42 275.00,948.01 275.00,948.01
             275.00,948.01 428.00,859.15 428.00,859.15
             428.00,859.15 483.00,826.85 483.00,826.85
             483.00,826.85 500.01,816.37 500.01,816.37
             500.01,816.37 501.00,809.00 501.00,809.00
             501.00,809.00 501.00,565.00 501.00,565.00 Z" />
</svg>
