<?xml version="1.0" encoding="UTF-8" standalone="no"?>
<!-- Created with Inkscape (http://www.inkscape.org/) -->

<svg
   version="1.1"
   id="svg1"
   width="1333.3333"
   height="1333.3333"
   viewBox="0 0 1333.3333 1333.3333"
   sodipodi:docname="StraightDBR.svg"
   inkscape:version="1.4.2 (ebf0e940d0, 2025-05-08)"
   xmlns:inkscape="http://www.inkscape.org/namespaces/inkscape"
   xmlns:sodipodi="http://sodipodi.sourceforge.net/DTD/sodipodi-0.dtd"
   xmlns="http://www.w3.org/2000/svg"
   xmlns:svg="http://www.w3.org/2000/svg">
  <defs
     id="defs1" />
  <sodipodi:namedview
     id="namedview1"
     pagecolor="#505050"
     bordercolor="#eeeeee"
     borderopacity="1"
     inkscape:showpageshadow="0"
     inkscape:pageopacity="0"
     inkscape:pagecheckerboard="0"
     inkscape:deskcolor="#505050"
     showgrid="false"
     inkscape:zoom="0.59400004"
     inkscape:cx="666.66663"
     inkscape:cy="666.66663"
     inkscape:window-width="1920"
     inkscape:window-height="995"
     inkscape:window-x="0"
     inkscape:window-y="0"
     inkscape:window-maximized="1"
     inkscape:current-layer="g1" />
  <g
     inkscape:groupmode="layer"
     inkscape:label="Image"
     id="g1">
    <path
       style="fill:#ffff00"
       d="M 363.53869,969.98344 C 158.42914,765.20025 0.00392774,606.01866 0.33978284,605.05049 0.67731206,604.0775 118.46867,720.65737 272.13439,874.04968 421.29379,1022.9437 585.9333,1187.1835 637.99996,1239.027 c 62.82266,62.5535 93.76965,94.2461 92,94.2166 -1.73944,-0.029 -129.16198,-126.3384 -366.46127,-363.26016 z m 859.79461,262.01266 c -55.7334,-55.7313 -102.3002,-101.6436 -103.4819,-102.0274 -1.7864,-0.5802 -8.6613,0.8411 -19.8515,4.1042 -1.1,0.3208 -11.6,2.927 -23.3333,5.7915 -11.7333,2.8645 -39.6333,10.0944 -62,16.0664 -22.36666,5.972 -46.36666,12.3645 -53.33333,14.2055 -6.96666,1.8409 -13.56666,3.5897 -14.66666,3.8861 -1.1,0.2965 -20.3,5.3743 -42.66667,11.2842 -22.36666,5.9098 -43.96666,11.6954 -47.99999,12.8568 -4.03334,1.1613 -8.23334,2.341 -9.33334,2.6214 -13.44649,3.4278 -31.42218,8.171 -49.99999,13.1934 -12.46667,3.3702 -23.56667,6.3627 -24.66667,6.6498 -1.1,0.2871 -8,2.112 -15.33333,4.0554 -7.33333,1.9433 -17.53333,4.6419 -22.66666,5.997 -5.13334,1.355 -15.03334,4.0369 -22,5.9597 -6.96667,1.9228 -13.56667,3.7194 -14.66667,3.9923 -10.52147,2.6109 -33.22529,8.7123 -35.33333,9.4956 -2.59035,0.9624 -2.59761,0.912 -0.25355,-1.7618 1.32722,-1.5139 3.72722,-3.0498 5.33333,-3.4132 3.10318,-0.7019 11.62217,-2.9604 56.25355,-14.9135 28.55648,-7.6479 51.74208,-13.8198 55.33333,-14.7294 1.1,-0.2786 16.7,-4.4474 34.66666,-9.2639 17.96667,-4.8166 40.46667,-10.832 50,-13.3675 9.53333,-2.5355 27.53333,-7.3647 40,-10.7316 12.46666,-3.3669 24.76666,-6.6325 27.33333,-7.257 6.4827,-1.5772 32.17037,-8.4101 75.33329,-20.0388 13.9334,-3.7538 30.7925,-8.2587 37.4648,-10.0109 6.6723,-1.7522 16.5723,-4.4735 22,-6.0472 14.8065,-4.2931 28.3684,-8.1531 29.8686,-8.5013 1.554,-0.3607 12.2626,-3.2733 15.6666,-4.2612 1.2834,-0.3724 2.3334,-1.1793 2.3334,-1.7931 0,-0.7542 -255.3861,-256.64058 -261.75807,-262.27087 -0.14517,-0.12827 -3.55899,0.61125 -7.58628,1.64338 -4.02728,1.03213 -15.72233,3.94148 -25.989,6.46522 -14.58637,3.58559 -92.16253,23.97666 -101.99999,26.81091 -1.1,0.31692 -7.7,2.05105 -14.66667,3.85362 -6.96667,1.80257 -29.76666,7.87159 -50.66666,13.48671 -20.9,5.61512 -41,10.98954 -44.66667,11.94316 -40.9731,10.65618 -90.01381,23.74076 -92.66666,24.72444 -1.83333,0.6798 -4.83333,1.52068 -6.66666,1.86861 -1.83334,0.34793 -19.23334,4.9039 -38.66667,10.12438 -19.43333,5.22048 -36.23333,9.6981 -37.33333,9.95026 -1.1,0.25216 -6.8,1.76529 -12.66667,3.36252 -5.86666,1.59723 -11.56666,3.11774 -12.66666,3.37892 -1.1,0.26117 -4.06026,1.0975 -6.57836,1.8585 -2.5181,0.761 -4.77177,1.19022 -5.00817,0.95383 -1.11248,-1.11248 4.86618,-4.6365 10.2532,-6.04357 3.3,-0.86194 6.89999,-1.80656 7.99999,-2.09914 5.7022,-1.51671 29.85246,-7.91163 38,-10.06231 5.13334,-1.35502 15.03333,-4.0369 22,-5.95972 6.96667,-1.92283 13.56667,-3.71631 14.66667,-3.98551 3.64182,-0.89128 32.49646,-8.49002 42.66666,-11.23607 5.5,-1.48505 28.3,-7.55637 50.66666,-13.4918 22.36667,-5.93544 44.86667,-11.93525 50,-13.33292 5.13333,-1.39766 21.93333,-5.89056 37.33333,-9.98421 15.4,-4.09366 33.7,-8.96781 40.66667,-10.83144 6.96666,-1.86364 13.56666,-3.6142 14.66666,-3.89015 1.1,-0.27595 12.2,-3.25377 24.66667,-6.61738 12.46666,-3.3636 23.56666,-6.34623 24.66666,-6.62805 21.49513,-5.50714 30.21449,-7.90604 44,-12.10541 6.23333,-1.89881 12.53333,-3.74347 14,-4.09925 3.19473,-0.77497 3.68956,-0.9092 11.22006,-3.0437 l 5.88672,-1.66857 L 720.55335,730.54565 C 633.05396,643.03731 593.38277,604.22084 591.99996,604.76199 c -1.1,0.43048 -19.39999,5.24707 -40.66666,10.70353 -21.26667,5.45647 -39.56666,10.15245 -40.66666,10.43552 -1.1,0.28306 -8,2.10357 -15.33334,4.04557 -7.33333,1.942 -20.23333,5.33499 -28.66666,7.53999 -8.43333,2.205 -16.23333,4.2624 -17.33333,4.572 -1.1,0.3096 -5.3,1.41743 -9.33334,2.46186 -4.03333,1.04443 -19.93333,5.32102 -35.33333,9.50353 -23.48009,6.37701 -34.20089,9.21898 -55.33333,14.66829 -1.1,0.28365 -12.2,3.26777 -24.66666,6.63137 -12.46667,3.36361 -23.56667,6.3338 -24.66667,6.60043 -1.1,0.26663 -6.8,1.7636 -12.66666,3.3266 -5.86667,1.563 -11.56667,3.07977 -12.66667,3.3706 -22.18315,5.86499 -30.91705,8.19528 -50,13.34045 -12.46666,3.36128 -23.56666,6.34458 -24.66666,6.62956 -5.47799,1.41916 -29.30867,7.75058 -45.19601,12.00784 -9.82446,2.63263 -18.08896,4.56029 -18.36555,4.28371 -0.27658,-0.27659 0.37778,-1.23376 1.45413,-2.12706 1.92482,-1.59745 6.93766,-3.18049 25.44076,-8.03412 5.13334,-1.34654 16.53334,-4.37163 25.33334,-6.72241 8.79999,-2.35079 16.89999,-4.48412 17.99999,-4.74075 1.1,-0.25662 12.2,-3.21863 24.66667,-6.58224 12.46667,-3.3636 23.56666,-6.34025 24.66666,-6.61477 1.1,-0.27451 6.62624,-1.78053 12.28052,-3.34671 5.65429,-1.56618 11.35429,-3.08945 12.66667,-3.38506 1.31238,-0.29561 18.28615,-4.78287 37.71948,-9.97169 19.43333,-5.18882 36.23333,-9.66368 37.33333,-9.94412 1.1,-0.28045 6.8,-1.81462 12.66666,-3.40927 5.86667,-1.59465 29.56667,-7.90538 52.66667,-14.02384 107.1605,-28.38343 128.42344,-34.10802 130.47059,-35.12636 1.20783,-0.60083 9.99607,-3.08936 19.5294,-5.53006 9.53333,-2.44071 17.60771,-4.66155 17.94306,-4.93521 0.33535,-0.27365 -53.66464,-54.79365 -119.99999,-121.15555 -78.59363,-78.62508 -121.30645,-120.44114 -122.60972,-120.03551 -3.92105,1.2204 -16.70105,4.92101 -18.66667,5.40518 -1.1,0.27095 -6.8,1.79922 -12.66667,3.39616 -5.86666,1.59694 -12.31464,3.12159 -14.32883,3.38811 -2.0142,0.26653 -5.9142,1.14713 -8.66667,1.9569 -2.75247,0.80977 -10.40449,2.89522 -17.00449,4.63433 -14.08837,3.71231 -92.4133,24.54763 -95.33333,25.35975 -1.1,0.30593 -20.3,5.39157 -42.66667,11.30141 -22.36666,5.90985 -43.966659,11.6954 -47.999992,12.85679 -4.033333,1.16139 -8.233333,2.32 -9.333333,2.57468 -1.1,0.25469 -17.899999,4.72366 -37.333331,9.93105 -41.5833873,11.14276 -43.1619882,11.48348 -42.38346292,9.1479 0.33660291,-1.00981 16.80532192,-5.97904 39.81210192,-12.0128 21.580914,-5.65981 41.038025,-10.90345 43.238025,-11.65252 2.2,-0.74908 5.5,-1.66028 7.333333,-2.02489 2.832577,-0.56334 36.215919,-9.42528 61.333329,-16.28154 7.82258,-2.13532 10.61756,-2.86002 14.33333,-3.71643 2.81544,-0.6489 14.13225,-3.68148 47.66667,-12.77328 13.93333,-3.77758 26.23333,-7.08678 27.33333,-7.35377 2.21344,-0.53724 22.17228,-5.78124 25.33333,-6.65609 1.1,-0.30444 8.79009,-2.37114 17.0891,-4.59267 8.299,-2.22154 15.69785,-4.41538 16.44188,-4.87522 0.74403,-0.45984 7.15394,-2.31316 14.24424,-4.11848 26.85733,-6.8384 29.59676,-7.64004 29.2488,-8.55911 C 343.49412,354.01443 266.03848,275.85569 171.56702,180.84748 40.690489,49.227358 -0.09619641,7.4612687 0.2337003,5.3999587 0.56733081,3.3153185 39.975809,42.011656 171.99999,174.0623 c 94.23333,94.25222 172.43471,171.99454 173.78085,172.7607 1.34614,0.76617 2.73953,1.10103 3.09643,0.74414 0.49366,-0.49367 9.23089,-33.39651 15.81783,-59.56716 0.27686,-1.1 2.35174,-9.2 4.61084,-18 2.2591,-8.8 4.3322,-16.9 4.6069,-18 0.27469,-1.1 4.83674,-18.79999 10.13788,-39.33333 5.30115,-20.53333 11.72431,-45.43333 14.27371,-55.33333 2.54939,-9.9 6.41417,-24.89999 8.58841,-33.33333 3.62284,-14.05216 11.0732,-43.136355 12.31017,-48.055636 2.80488,-11.154671 16.07307,-62.346853 17.69648,-68.2776878 2.35086,-8.5884438 5.2164,-10.5774895 3.84176,-2.6666665 -0.47786,2.7499998 -2.32414,10.3999993 -4.10285,16.9999993 -3.46981,12.874948 -18.9671,72.911273 -19.9622,77.333328 -0.33005,1.466663 -1.82512,7.166663 -3.32238,12.666663 -1.49727,5.5 -3.07823,12.1 -3.51326,14.66667 -0.43503,2.56667 -1.04796,5.08579 -1.36206,5.59805 -0.3141,0.51227 -4.44906,16.11227 -9.18879,34.66667 -4.73974,18.5544 -11.03,43.03527 -13.97836,54.40194 -2.94835,11.36667 -5.63621,21.86667 -5.97301,23.33333 -0.3368,1.46667 -2.08509,8.36667 -3.88509,15.33333 -1.80001,6.96667 -6.94737,27.06667 -11.43859,44.66667 -4.49122,17.6 -9.03634,34.9589 -10.10027,38.57533 -1.06393,3.61643 -1.93441,7.33708 -1.93441,8.26811 0,2.53986 243.15747,244.49009 244.44194,243.22832 0.60975,-0.59897 2.59948,-7.01015 4.42163,-14.24707 1.82215,-7.23692 3.55734,-14.05804 3.85597,-15.15804 0.83419,-3.07276 6.45201,-24.85173 13.06929,-50.66666 3.28964,-12.83334 9.69371,-37.73334 14.23126,-55.33333 4.53756,-17.6 8.4804,-32.9 8.76188,-34 2.10902,-8.24204 9.07685,-35.03987 11.96068,-46 1.92954,-7.33333 3.73663,-14.23333 4.01574,-15.33333 0.27912,-1.1 2.86049,-11.3 5.73638,-22.66667 2.87589,-11.36666 7.72381,-30.26666 10.77316,-41.99999 9.10992,-35.05339 20.25053,-78.19777 20.78835,-80.50736 0.27655,-1.18762 2.36594,-9.35931 4.64308,-18.15931 2.27714,-8.8 6.1624,-24.04995 8.63391,-33.88878 2.47151,-9.83883 5.73259,-19.56454 7.24685,-21.61268 1.51425,-2.04813 2.75319,-4.28063 2.75319,-4.96109 0,-0.68046 -31.60226,-32.55988 -70.22724,-70.843164 C 607.30182,29.908851 578.06419,-0.04755118 579.61511,0.21081931 581.12007,0.46153533 694.62599,112.56666 831.85048,249.33332 969.07496,386.09998 1138.0537,554.39997 1207.3588,623.3333 c 83.6581,83.20937 126.0034,126.22703 125.9918,127.99241 -0.012,1.83294 -13.5864,-10.90533 -43.6915,-41 -24.0207,-24.01249 -44.3976,-43.65908 -45.2819,-43.65908 -0.8843,0 -2.2667,2.55 -3.0719,5.66666 -0.8053,3.11667 -1.7536,6.66874 -2.1074,7.89349 -0.3539,1.22475 -0.8815,3.32475 -1.1725,4.66666 -0.2909,1.34192 -2.4148,9.63985 -4.7197,18.43985 -2.3048,8.8 -4.3877,16.9 -4.6286,18 -0.2409,1.1 -3.2337,12.8 -6.6506,26 -3.417,13.2 -10.1019,39.3 -14.8554,57.99999 -9.2381,36.34204 -14.8797,58.23222 -25.9439,100.66666 -3.8241,14.66667 -7.4331,28.76667 -8.02,31.33334 -0.5869,2.56666 -2.8414,11.56666 -5.0101,19.99999 -2.1686,8.43334 -6.6412,25.83334 -9.9391,38.66667 -3.2978,12.83336 -9.4045,36.46166 -13.5705,52.50736 -4.1659,16.0457 -7.8006,30.1457 -8.0772,31.3333 -0.2766,1.1876 -2.3698,9.3593 -4.6516,18.1593 -4.7064,18.1508 -4.4493,17.1339 -5.8717,23.2251 l -1.0645,4.5583 104.4887,103.7217 c 100.6649,99.926 104.3179,103.7236 99.8221,103.7713 -4.423,0.047 -9.9579,-5.2415 -106,-101.2802 z m -99.892,-114.9962 c 0.525,-1.65 2.3016,-8.4 3.9482,-15 1.6465,-6.6 5.2183,-20.6869 7.9372,-31.3042 2.7189,-10.6173 5.174,-20.2173 5.4557,-21.3333 4.5488,-18.0196 7.1022,-27.7339 7.7178,-29.3625 0.4158,-1.1 1.0627,-3.5 1.4376,-5.3333 0.3749,-1.8333 2.1628,-9.0333 3.9732,-15.99999 1.8103,-6.96667 6.2791,-24.36667 9.9306,-38.66667 3.6515,-14.3 9.91,-38.6 13.9077,-54 18.8534,-72.62643 23.8775,-92.24732 24.4109,-95.33332 0.3169,-1.83334 1.138,-4.83334 1.8247,-6.66667 0.6867,-1.83333 2.5113,-8.43333 4.0548,-14.66666 1.5434,-6.23334 3.0293,-12.23334 3.302,-13.33334 0.2727,-1.1 2.2745,-8.9 4.4485,-17.33333 2.1739,-8.43333 7.8933,-30.69909 12.7096,-49.47945 8.7913,-34.27941 10.1121,-38.58722 13.1229,-42.80023 1.4299,-2.00073 -14.5846,-18.39787 -130.8727,-134 -72.8761,-72.44616 -133.14266,-131.7203 -133.92567,-131.7203 -0.78301,0 -2.7398,5.4 -4.34843,12 -1.60862,6.6 -5.10148,20.4 -7.76191,30.66667 -2.66043,10.26666 -5.96589,23.16666 -7.34548,28.66666 -1.37959,5.5 -5.51395,21.4 -9.18748,35.33333 -3.67353,13.93333 -6.98613,26.83333 -7.36133,28.66667 -0.71159,3.47698 -8.2853,33.18718 -15.46513,60.66666 -2.29926,8.8 -8.30704,32.2 -13.35063,52 -5.04358,19.8 -11.26462,44.09999 -13.82452,53.99999 -2.55991,9.9 -6.82589,26.4 -9.47996,36.66667 -2.65407,10.26666 -7.86022,30.36666 -11.56922,44.66666 -3.709,14.3 -6.95193,26.9 -7.20652,28 -0.25458,1.1 -2.65771,10.4 -5.34027,20.66667 -2.68257,10.26666 -5.1897,20.38708 -5.57141,22.48982 -0.64895,3.57484 7.78223,12.29974 129.81105,134.33332 71.77781,71.78064 131.21581,130.51014 132.08441,130.51014 0.8687,0 2.0089,-1.35 2.5338,-3 z M 859.99177,837.1975 c 2.11948,-8.35865 5.99288,-23.59755 8.60755,-33.86422 2.61468,-10.26666 5.02672,-19.86666 5.3601,-21.33333 0.33338,-1.46666 1.88688,-7.46666 3.45222,-13.33333 1.56534,-5.86667 3.07887,-11.56667 3.3634,-12.66667 0.28453,-1.1 2.69247,-10.4 5.35097,-20.66666 5.02548,-19.40751 12.21675,-47.61786 13.17158,-51.67024 0.30284,-1.2853 7.14643,-27.68529 15.20797,-58.66666 12.56667,-48.29505 18.79204,-72.4109 20.90875,-80.99642 0.2712,-1.1 1.77191,-6.8 3.33491,-12.66667 1.563,-5.86667 3.04136,-11.56667 3.28525,-12.66666 0.24389,-1.1 2.94153,-11.6 5.99476,-23.33334 4.55156,-17.4913 9.596,-37.05235 12.55026,-48.66666 0.27979,-1.1 2.42507,-9.5 4.76726,-18.66667 2.3422,-9.16666 4.38399,-17.26666 4.53732,-18 0.81611,-3.90335 2.63697,-8.23521 4.22493,-10.05123 1.56136,-1.78559 -14.83206,-18.67628 -126.58514,-130.42485 -97.62533,-97.6214 -128.69978,-127.95244 -129.71873,-126.61543 -0.73696,0.96701 -3.20053,8.9582 -5.4746,17.7582 -9.63315,37.27764 -19.26525,74.80801 -19.67636,76.66666 -0.92963,4.20291 -15.55175,61.10947 -17.98648,69.99999 -1.40579,5.13334 -2.87051,10.83334 -3.25493,12.66667 -0.38442,1.83333 -2.27137,9.33333 -4.19322,16.66667 -1.92185,7.33333 -5.46454,21.13333 -7.87265,30.66666 -2.4081,9.53333 -8.42454,32.93333 -13.36987,52 -7.97194,30.73574 -25.31988,98.003 -26.64921,103.33332 -0.27433,1.1 -2.35952,9.2 -4.63375,18 -2.27424,8.8 -4.35205,16.9 -4.61737,18 -0.26532,1.1 -2.75685,10.88309 -5.53675,21.7402 l -5.05435,19.7402 127.22254,127.22777 c 69.97239,69.97527 127.71923,126.73107 128.32629,126.12401 0.60707,-0.60707 2.83788,-7.94266 4.95735,-16.30131 z"
       id="path1" />
  </g>
</svg>
