<?xml version="1.0" encoding="UTF-8" standalone="no"?>
<!-- Created with Inkscape (http://www.inkscape.org/) -->

<svg
   version="1.1"
   id="svg1"
   width="1333.3333"
   height="1333.3333"
   viewBox="0 0 1333.3333 1333.3333"
   sodipodi:docname="StraightDTL.svg"
   inkscape:version="1.4.2 (ebf0e940d0, 2025-05-08)"
   xmlns:inkscape="http://www.inkscape.org/namespaces/inkscape"
   xmlns:sodipodi="http://sodipodi.sourceforge.net/DTD/sodipodi-0.dtd"
   xmlns="http://www.w3.org/2000/svg"
   xmlns:svg="http://www.w3.org/2000/svg">
  <defs
     id="defs1" />
  <sodipodi:namedview
     id="namedview1"
     pagecolor="#505050"
     bordercolor="#eeeeee"
     borderopacity="1"
     inkscape:showpageshadow="0"
     inkscape:pageopacity="0"
     inkscape:pagecheckerboard="0"
     inkscape:deskcolor="#505050"
     showgrid="false"
     inkscape:zoom="0.59400004"
     inkscape:cx="666.66663"
     inkscape:cy="666.66663"
     inkscape:window-width="1920"
     inkscape:window-height="995"
     inkscape:window-x="0"
     inkscape:window-y="0"
     inkscape:window-maximized="1"
     inkscape:current-layer="g1" />
  <g
     inkscape:groupmode="layer"
     inkscape:label="Image"
     id="g1">
    <path
       style="fill:#ffff00"
       d="M 541.99997,1124.4912 C 426.86664,1009.6954 257.81814,841.27297 166.33663,750.21911 56.534593,640.93036 0.00549109,583.76293 0.0033076,582.00754 c -0.0022639,-1.82002 13.7779084,11.11738 43.6708204,41 24.02077,24.0125 44.397643,43.65909 45.281938,43.65909 0.884296,0 2.26665,-2.55 3.071897,-5.66667 0.805247,-3.11667 1.753594,-6.66874 2.107436,-7.89349 0.353843,-1.22475 0.881427,-3.32475 1.172411,-4.66666 0.290983,-1.34192 2.414856,-9.63985 4.71972,-18.43985 2.30486,-8.8 4.38774,-16.9 4.62863,-18 0.24088,-1.1 3.23366,-12.8 6.65062,-26 3.41696,-13.19999 10.10189,-39.29999 14.85541,-57.99999 9.23809,-36.34204 14.87964,-58.23222 25.94385,-100.66666 3.82413,-14.66667 7.43314,-28.76667 8.02002,-31.33333 0.58688,-2.56667 2.84141,-11.56667 5.01007,-20 2.16866,-8.43334 6.64126,-25.83333 9.9391,-38.66667 3.29784,-12.83333 9.40456,-36.46164 13.57048,-52.50735 4.16593,-16.04571 7.80069,-30.14571 8.07724,-31.33333 0.27656,-1.18762 2.36356,-9.35931 4.6378,-18.15931 2.27423,-8.8 4.34213,-16.9 4.59533,-18 0.2532,-1.1 0.90303,-3.73495 1.44406,-5.85545 0.94603,-3.7078 -3.01901,-7.82876 -103.54155,-107.61341 C 3.1587954,3.9038685 -0.49587388,0.10467621 3.9999998,0.05698603 8.4229949,0.01006892 13.957814,5.2984398 109.99999,101.33714 c 55.73333,55.73131 102.30016,101.64366 103.48185,102.02744 1.78646,0.5802 8.66127,-0.84115 19.85148,-4.10426 1.1,-0.32077 11.6,-2.92692 23.33333,-5.79145 11.73333,-2.86453 39.63333,-10.09443 62,-16.06644 22.36666,-5.97201 46.36666,-12.36445 53.33333,-14.20544 6.96666,-1.84098 13.56666,-3.58976 14.66666,-3.88618 1.1,-0.29643 20.3,-5.37428 42.66667,-11.28413 22.36666,-5.90985 43.96666,-11.6954 47.99999,-12.85679 4.03334,-1.16139 8.23334,-2.34104 9.33334,-2.62145 13.44649,-3.42779 31.42218,-8.17098 49.99999,-13.19336 12.46667,-3.37027 23.56667,-6.36269 24.66667,-6.64981 1.1,-0.28713 8,-2.11204 15.33333,-4.05537 7.33333,-1.94333 17.53333,-4.64198 22.66667,-5.99701 5.13333,-1.35502 15.03333,-4.036901 22,-5.959724 6.96666,-1.922823 13.56666,-3.719371 14.66666,-3.992329 10.52147,-2.610838 33.22529,-8.71231 35.33333,-9.495551 2.59035,-0.962444 2.59761,-0.912026 0.25355,1.761771 -1.32721,1.513913 -3.72721,3.049828 -5.33333,3.413145 -3.10318,0.701964 -11.62217,2.960454 -56.25355,14.913518 -28.55648,7.64792 -51.74207,13.81979 -55.33333,14.72941 -1.1,0.27862 -16.7,4.4474 -34.66666,9.26397 -17.96667,4.81657 -40.46667,10.83191 -50,13.36743 -9.53333,2.53552 -27.53333,7.36476 -40,10.73164 -12.46666,3.36688 -24.76666,6.63251 -27.33333,7.25696 -6.48269,1.57718 -32.17037,8.41014 -75.33333,20.03878 -13.93333,3.75381 -30.79247,8.25874 -37.46475,10.01096 -6.67228,1.75222 -16.57228,4.47347 -22,6.04721 -14.80649,4.29309 -28.36839,8.15312 -29.86857,8.50128 -1.55408,0.36067 -12.26262,3.27328 -15.66667,4.26117 -1.28333,0.37244 -2.33333,1.17934 -2.33333,1.79313 0,0.75416 255.38607,256.64058 261.75803,262.27086 0.14517,0.12828 3.559,-0.61125 7.58628,-1.64338 4.02729,-1.03213 15.72234,-3.94148 25.989,-6.46521 14.58637,-3.5856 92.16253,-23.97666 102,-26.81092 1.1,-0.31692 7.7,-2.05105 14.66666,-3.85362 6.96667,-1.80256 29.76667,-7.87158 50.66666,-13.4867 20.9,-5.61512 41,-10.98955 44.66667,-11.94317 40.9731,-10.65618 90.01381,-23.74076 92.66666,-24.72444 1.83333,-0.6798 4.83333,-1.52068 6.66667,-1.86861 1.83333,-0.34793 19.23333,-4.9039 38.66666,-10.12438 19.43333,-5.22048 36.23333,-9.69809 37.33333,-9.95025 1.1,-0.25216 6.8,-1.7653 12.66667,-3.36253 5.86666,-1.59723 11.56666,-3.11774 12.66666,-3.37891 1.1,-0.26118 4.06026,-1.09751 6.57836,-1.85851 2.5181,-0.761 4.77178,-1.19022 5.00817,-0.95382 1.11248,1.11248 -4.86618,4.63649 -10.25319,6.04356 -3.3,0.86195 -6.9,1.80656 -8,2.09915 -5.70219,1.5167 -29.85246,7.91163 -38,10.0623 -5.13333,1.35503 -15.03333,4.0369 -22,5.95973 -6.96667,1.92282 -13.56667,3.7163 -14.66667,3.9855 -3.64181,0.89128 -32.49646,8.49002 -42.66666,11.23607 -5.5,1.48506 -28.3,7.55637 -50.66666,13.49181 -22.36667,5.93543 -44.86667,11.93524 -50,13.33291 -5.13333,1.39766 -21.93333,5.89056 -37.33333,9.98422 -15.4,4.09365 -33.7,8.9678 -40.66666,10.83144 -6.96667,1.86363 -13.56667,3.6142 -14.66667,3.89014 -1.1,0.27595 -12.2,3.25377 -24.66667,6.61738 -12.46666,3.3636 -23.56666,6.34623 -24.66666,6.62805 -21.49513,5.50714 -30.21449,7.90604 -44,12.10541 -6.23333,1.89881 -12.53333,3.74347 -14,4.09925 -3.19473,0.77497 -3.68956,0.9092 -11.22006,3.0437 l -5.88672,1.66858 126.55338,126.56633 c 87.49939,87.50834 127.17058,126.32481 128.55339,125.78366 1.1,-0.43047 19.4,-5.24706 40.66666,-10.70353 21.26667,-5.45647 39.56667,-10.15245 40.66667,-10.43551 1.1,-0.28307 8,-2.10357 15.33333,-4.04557 7.33333,-1.942 20.23333,-5.335 28.66666,-7.54 8.43334,-2.205 16.23334,-4.2624 17.33334,-4.572 1.1,-0.30959 5.3,-1.41743 9.33333,-2.46186 4.03333,-1.04443 19.93333,-5.32102 35.33333,-9.50353 23.4801,-6.37701 34.20089,-9.21898 55.33333,-14.66828 1.1,-0.28366 12.2,-3.26778 24.66666,-6.63138 12.4667,-3.36361 23.5667,-6.3338 24.6667,-6.60043 1.1,-0.26663 6.8,-1.7636 12.6666,-3.3266 5.8667,-1.563 11.5667,-3.07977 12.6667,-3.3706 22.1832,-5.86499 30.9171,-8.19528 50,-13.34045 12.4667,-3.36128 23.5667,-6.34458 24.6667,-6.62955 5.478,-1.41916 29.3086,-7.75059 45.196,-12.00785 9.8244,-2.63263 18.0889,-4.56029 18.3655,-4.28371 0.2766,0.27659 -0.3778,1.23376 -1.4541,2.12706 -1.9248,1.59746 -6.9377,3.1805 -25.4408,8.03412 -5.1333,1.34655 -16.5333,4.37163 -25.3333,6.72242 -8.8,2.35078 -16.9,4.48411 -18,4.74074 -1.1,0.25663 -12.2,3.21863 -24.6667,6.58224 -12.4666,3.36361 -23.5666,6.34025 -24.6666,6.61477 -1.1,0.27451 -6.6263,1.78053 -12.2806,3.34671 -5.6542,1.56618 -11.3542,3.08946 -12.6666,3.38507 -1.3124,0.2956 -18.2862,4.78286 -37.7195,9.97169 -19.43333,5.18882 -36.23333,9.66367 -37.33333,9.94411 -1.1,0.28045 -6.8,1.81462 -12.66666,3.40927 -5.86667,1.59465 -29.56667,7.90538 -52.66667,14.02384 -107.1605,28.38344 -128.42343,34.10802 -130.47058,35.12636 -1.20784,0.60083 -9.99607,3.08936 -19.52941,5.53007 -9.53333,2.4407 -17.60771,4.66154 -17.94306,4.9352 -0.33535,0.27366 53.66464,54.79366 119.99999,121.15555 78.59363,78.62508 121.30645,120.44114 122.60973,120.03551 3.92105,-1.2204 16.70109,-4.92101 18.66669,-5.40518 1.1,-0.27095 6.8,-1.79922 12.6666,-3.39616 5.8667,-1.59694 12.3147,-3.12159 14.3289,-3.38811 2.0142,-0.26652 5.9142,-1.14713 8.6666,-1.9569 2.7525,-0.80977 10.4045,-2.89522 17.0045,-4.63433 14.0884,-3.71231 92.4133,-24.54763 95.3334,-25.35975 1.1,-0.30593 20.3,-5.39156 42.6666,-11.30141 22.3667,-5.90985 43.9667,-11.6954 48,-12.85679 4.0334,-1.16139 8.2334,-2.31999 9.3334,-2.57468 1.1,-0.25469 17.9,-4.72366 37.3333,-9.93105 41.5834,-11.14275 43.162,-11.48347 42.3835,-9.1479 -0.3367,1.00981 -16.8054,5.97904 -39.8122,12.0128 -21.5809,5.65981 -41.038,10.90345 -43.238,11.65252 -2.2,0.74908 -5.5,1.66028 -7.3333,2.02489 -2.8326,0.56334 -36.2159,9.42528 -61.3333,16.28155 -7.8226,2.13531 -10.6176,2.86001 -14.3334,3.71642 -2.8154,0.6489 -14.1322,3.68148 -47.6666,12.77328 -13.9334,3.77758 -26.2334,7.08678 -27.3334,7.35377 -2.2134,0.53725 -22.1723,5.78124 -25.3333,6.65609 -1.1,0.30444 -8.7901,2.37114 -17.0891,4.59267 -8.299,2.22154 -15.6978,4.41539 -16.4419,4.87522 -0.744,0.45984 -7.1539,2.31316 -14.2442,4.11849 -26.85734,6.83839 -29.59678,7.64004 -29.24882,8.5591 0.19655,0.51914 77.65222,78.67792 172.12362,173.68612 130.8766,131.6201 171.6632,173.3862 171.3334,175.4475 -0.3337,2.0846 -39.7422,-36.6117 -171.7663,-168.6624 -94.2334,-94.2522 -172.43475,-171.99448 -173.78089,-172.76065 -1.34614,-0.76617 -2.73953,-1.10103 -3.09642,-0.74413 -0.49367,0.49366 -9.23089,33.39648 -15.81784,59.56718 -0.27686,1.1 -2.35173,9.2 -4.61084,18 -2.2591,8.8 -4.3322,16.9 -4.60689,18 -0.2747,1.1 -4.83675,18.8 -10.13789,39.3333 -5.30114,20.5333 -11.72431,45.4333 -14.2737,55.3333 -2.5494,9.9 -6.41418,24.9 -8.58841,33.3334 -3.62285,14.0521 -11.0732,43.1363 -12.31017,48.0556 -2.80488,11.1547 -16.07308,62.3469 -17.69649,68.2777 -2.35086,8.5884 -5.2164,10.5775 -3.84175,2.6667 0.47786,-2.75 2.32414,-10.4 4.10284,-17 3.46981,-12.875 18.9671,-72.9113 19.96221,-77.3334 0.33004,-1.4666 1.82511,-7.1666 3.32238,-12.6666 1.49726,-5.5 3.07823,-12.1 3.51325,-14.6667 0.43503,-2.5667 1.04796,-5.0858 1.36206,-5.5981 0.3141,-0.5122 4.44906,-16.1122 9.1888,-34.6666 4.73973,-18.5544 11.02999,-43.0353 13.97835,-54.402 2.94836,-11.3666 5.63621,-21.8666 5.97301,-23.3333 0.3368,-1.4667 2.08509,-8.3667 3.8851,-15.3333 1.8,-6.9667 6.94736,-27.0667 11.43858,-44.6667 4.49122,-17.6 9.03634,-34.95889 10.10027,-38.57533 1.06393,-3.61643 1.93441,-7.33708 1.93441,-8.2681 0,-2.53987 -243.15747,-244.4901 -244.44194,-243.22832 -0.60975,0.59896 -2.59948,7.01014 -4.42163,14.24707 -1.82215,7.23692 -3.55733,14.05803 -3.85596,15.15803 -0.8342,3.07276 -6.45201,24.85173 -13.0693,50.66667 -3.28963,12.83333 -9.6937,37.73333 -14.23126,55.33333 -4.53756,17.6 -8.4804,32.89999 -8.76188,33.99999 -2.10902,8.24204 -9.07685,35.03987 -11.96068,46 -1.92954,7.33333 -3.73663,14.23333 -4.01574,15.33333 -0.27912,1.1 -2.86048,11.3 -5.73638,22.66667 -2.87589,11.36666 -7.72381,30.26666 -10.77315,41.99996 -9.10993,35.0534 -20.25054,78.1978 -20.78835,80.5074 -0.27656,1.1876 -2.36594,9.3593 -4.64309,18.1593 -2.27714,8.8 -6.1624,24.05 -8.63391,33.8888 -2.47151,9.8388 -5.73259,19.5645 -7.24685,21.6127 -1.51425,2.0481 -2.75319,4.2806 -2.75319,4.961 0,0.6805 31.54664,32.5048 70.10364,70.7207 41.70908,41.3401 69.11657,69.4586 67.66666,69.4222 -1.41194,-0.035 -90.48585,-87.852 -211.77029,-208.7808 z m 79.01801,48.1754 c 15.86204,-61.6091 19.26947,-74.896 19.66111,-76.6667 0.92962,-4.2029 15.55175,-61.1094 17.98647,-70 1.40579,-5.1333 2.87051,-10.8333 3.25493,-12.6666 0.38442,-1.8334 2.27137,-9.3334 4.19322,-16.66669 1.92186,-7.33334 5.46455,-21.13334 7.87265,-30.66667 2.4081,-9.53333 8.42454,-32.93333 13.36987,-52 7.97195,-30.73573 25.31988,-98.003 26.64921,-103.33332 0.27433,-1.1 2.35952,-9.2 4.63376,-18 2.27423,-8.8 4.35204,-16.9 4.61736,-18 0.26532,-1.1 2.75685,-10.88309 5.53675,-21.7402 l 5.05435,-19.7402 L 606.62512,605.95845 C 536.65273,535.98318 478.9059,479.22738 478.29883,479.83444 c -0.60707,0.60707 -2.83787,7.94266 -4.95735,16.30131 -2.11948,8.35865 -5.99288,23.59755 -8.60755,33.86422 -2.61468,10.26666 -5.02672,19.86666 -5.3601,21.33333 -0.33338,1.46667 -1.88688,7.46667 -3.45222,13.33333 -1.56533,5.86667 -3.07887,11.56667 -3.3634,12.66667 -0.28453,1.1 -2.69247,10.4 -5.35097,20.66666 -5.02548,19.40751 -12.21675,47.61786 -13.17157,51.67024 -0.30285,1.2853 -7.14643,27.6853 -15.20798,58.66666 -12.56667,48.29506 -18.79203,72.41091 -20.90875,80.99643 -0.2712,1.1 -1.7719,6.79999 -3.33491,12.66666 -1.563,5.86667 -3.04136,11.56667 -3.28525,12.66667 -0.24388,1.1 -2.94153,11.6 -5.99475,23.33333 -4.55156,17.4913 -9.59601,37.05235 -12.55026,48.66666 -0.2798,1.1 -2.41901,9.5 -4.75379,18.66667 -2.33479,9.16666 -4.43665,17.56666 -4.6708,18.66666 -0.88341,4.15005 -3.22159,9.10945 -4.73607,10.04545 -0.99899,0.61741 45.22174,47.76614 126.89264,129.44031 98.10105,98.105 128.81249,128.0806 129.93841,126.825 0.81093,-0.9042 3.32815,-8.8441 5.59382,-17.6441 z M 360.88247,920.55836 c 1.59481,-6.54046 5.07636,-20.29175 7.73679,-30.55841 2.66043,-10.26667 5.9659,-23.16667 7.34548,-28.66667 1.37959,-5.5 5.51396,-21.4 9.18748,-35.33333 3.67353,-13.93333 6.98613,-26.83333 7.36133,-28.66667 0.71159,-3.47697 8.2853,-33.18718 15.46513,-60.66666 2.29926,-8.8 8.30704,-32.2 13.35063,-52 5.04358,-19.79999 11.26462,-44.09999 13.82453,-53.99999 2.5599,-9.9 6.82588,-26.4 9.47995,-36.66667 2.65407,-10.26666 7.86022,-30.36666 11.56922,-44.66666 3.709,-14.3 6.95193,-26.9 7.20652,-28 0.25459,-1.1 2.65771,-10.4 5.34027,-20.66666 2.68257,-10.26667 5.1897,-20.38709 5.57142,-22.48982 0.64894,-3.57485 -7.78224,-12.29975 -129.81106,-134.33333 C 272.73237,272.0629 213.29437,213.33332 212.42572,213.33332 c -1.81465,0 -2.3899,1.59743 -6.48195,18 -1.64655,6.6 -5.2183,20.68689 -7.93723,31.3042 -2.71892,10.61731 -5.174,20.21731 -5.45572,21.33333 -4.54879,18.01961 -7.10212,27.73389 -7.71773,29.36246 -0.4158,1.1 -1.06274,3.5 -1.43763,5.33334 -0.37489,1.83333 -2.16282,9.03333 -3.97318,16 -1.81036,6.96666 -6.27916,24.36666 -9.93065,38.66666 -3.6515,14.3 -9.90997,38.6 -13.90772,54 -18.85337,72.62643 -23.87746,92.24732 -24.41086,95.33332 -0.31689,1.83334 -1.13799,4.83334 -1.82467,6.66667 -0.68669,1.83333 -2.51134,8.43333 -4.05479,14.66667 -1.54346,6.23333 -3.02939,12.23333 -3.30207,13.33333 -0.27269,1.1 -2.27448,8.9 -4.44843,17.33333 -2.17395,8.43333 -7.89331,30.69909 -12.70969,49.47945 -8.790645,34.27711 -10.112243,38.58767 -13.121844,42.79856 -1.428331,1.99846 14.647844,18.4751 130.996804,134.25998 72.94373,72.59008 133.22109,131.81626 133.94971,131.61372 0.72861,-0.20253 2.62959,-5.71952 4.2244,-12.25998 z M 1061.1989,459.28357 C 912.03946,310.38956 747.39995,146.10921 695.33329,94.216134 637.55256,36.628039 601.76667,0.02124815 603.48984,0.26587517 607.16132,0.78708864 1333.8036,725.94744 1332.9937,728.28202 c -0.3378,0.97397 -118.0409,-115.51806 -271.7948,-268.99845 z"
       id="path1" />
  </g>
</svg>
