<?xml version="1.0" encoding="UTF-8" standalone="no"?>
<!-- Created with Inkscape (http://www.inkscape.org/) -->

<svg
   version="1.1"
   id="svg1"
   width="1333.3333"
   height="1333.3333"
   viewBox="0 0 1333.3333 1333.3333"
   sodipodi:docname="StraightLeft.svg"
   inkscape:version="1.4.2 (ebf0e940d0, 2025-05-08)"
   xmlns:inkscape="http://www.inkscape.org/namespaces/inkscape"
   xmlns:sodipodi="http://sodipodi.sourceforge.net/DTD/sodipodi-0.dtd"
   xmlns="http://www.w3.org/2000/svg"
   xmlns:svg="http://www.w3.org/2000/svg">
  <defs
     id="defs1" />
  <sodipodi:namedview
     id="namedview1"
     pagecolor="#505050"
     bordercolor="#eeeeee"
     borderopacity="1"
     inkscape:showpageshadow="0"
     inkscape:pageopacity="0"
     inkscape:pagecheckerboard="0"
     inkscape:deskcolor="#505050"
     showgrid="false"
     inkscape:zoom="0.59400004"
     inkscape:cx="666.66663"
     inkscape:cy="666.66663"
     inkscape:window-width="1920"
     inkscape:window-height="995"
     inkscape:window-x="0"
     inkscape:window-y="0"
     inkscape:window-maximized="1"
     inkscape:current-layer="g1" />
  <g
     inkscape:groupmode="layer"
     inkscape:label="Image"
     id="g1">
    <path
       style="fill:#ffff00;stroke:none"
       d="m 0,245.33332 v 6.66666 h 1330.6666 l -55.4342,96 -124,213.33332 -45.3703,77.33333 -18.1461,28.5288 -29.0494,0.80453 H 990.66661 751.99995 c 53.03394,-100.6879 114.77221,-197.08609 171.04117,-295.99998 13.71151,-24.10319 27.62663,-48.14421 41.76335,-72 8.64412,-14.58699 19.19352,-27.93278 19.19547,-45.33333 h -1.33333 c -15.7098,33.60897 -37.72534,65.14884 -56.19954,97.33333 -39.64413,69.06518 -79.1578,138.34415 -120.06689,206.66665 -15.08154,25.18775 -30.01416,50.58927 -44.68831,76 -5.0599,8.76204 -11.49203,26.96016 -20.51847,31.96297 -7.23544,4.01013 -21.09855,1.37036 -29.19344,1.37036 H 642.66663 387.99998 c 25.26761,-35.38265 44.89339,-76.87264 66.46606,-114.66666 34.6512,-60.70687 70.67927,-120.62825 105.33332,-181.33332 13.49508,-23.63998 27.12818,-47.24935 41.00513,-70.66667 8.6442,-14.58707 19.19356,-27.93277 19.19547,-45.33333 h -1.33333 l -56.19958,97.33333 -119.26749,205.33332 -45.48767,77.33333 -19.32918,30.62964 -29.0494,1.37036 H 277.33332 10.666666 C 63.700288,567.3119 125.43916,470.91379 181.70781,371.99998 c 13.71149,-24.10319 27.62665,-48.14429 41.76337,-72 8.6442,-14.58707 19.19358,-27.9327 19.19547,-45.33333 h -1.33333 L 185.13374,351.99998 68.266455,553.3333 18.100823,638.66663 0.37037037,671.99996 16.374485,702.66662 62.866253,781.33329 182.39916,983.99994 239.99999,1081.3333 H 0 v 6.6666 h 1333.3333 c -0.8872,-20.6643 -12.0416,-36.0333 -22.4003,-53.3333 -13.7754,-23.0063 -27.009,-46.33666 -40.7993,-69.33333 -36.8638,-61.47387 -72.1884,-123.86766 -109.0669,-185.33332 -13.2628,-22.1053 -26.0575,-44.49267 -39.2047,-66.66666 -7.3536,-12.40259 -16.9029,-25.12117 -21.8622,-38.66666 h 233.3334 v -6.66667 h -234.6667 c 16.7254,-35.8243 39.5859,-69.80078 59.4342,-103.99999 35.8425,-61.75773 70.9632,-123.98372 107.5,-185.33333 15.2435,-25.59578 30.0353,-51.49592 44.8662,-77.33333 10.7513,-18.73006 21.9168,-33.88289 22.8663,-55.99999 H 0 M 615.99996,1081.3333 H 242.66665 c -0.68105,-13.1276 -10.76794,-24.9112 -17.13375,-36 C 210.90766,1019.857 195.90789,994.52647 180.8004,969.33327 140.23829,901.692 100.35752,833.5478 60.767488,765.33329 44.529081,737.35412 19.081857,706.79545 9.3333328,675.99996 c 84.7405342,0 170.0054872,2.64722 254.6666472,-0.0473 26.57636,-0.84587 53.36859,-1.27747 80,-1.28601 8.95805,-0.003 23.43318,-2.76555 31.72017,0.80452 8.19006,3.52832 14.45797,21.05778 18.74691,28.52881 14.13765,24.62687 28.91247,48.90722 43.39506,73.33333 38.67175,65.22297 76.45519,130.97899 115.47118,195.99998 13.53202,22.55143 26.6947,45.32373 40.0144,68.00003 7.58801,12.9183 17.49247,25.9066 22.65226,40 m 365.33331,0 H 619.99996 l -15.62553,-32 L 564.37444,981.33327 438.1008,766.66662 403.47117,707.99996 385.33331,674.66663 h 257.33332 69.33333 l 29.08642,1.37036 19.7181,30.62963 46.42797,78.66667 122.66666,207.99998 51.43416,88.00003 m 349.33333,0 H 983.99994 c -0.62142,-11.9777 -9.07528,-21.9126 -14.86621,-32 -12.83732,-22.3618 -26.29199,-44.3662 -39.23462,-66.66669 -42.18448,-72.68514 -85.61417,-144.64876 -127.79833,-217.33332 -11.65796,-20.08708 -23.65706,-39.97437 -35.41976,-60 -5.54972,-9.44824 -13.92569,-19.83431 -16.0144,-30.66666 h 245.33332 66.66666 l 27.8601,1.37036 19.0741,29.2963 46.4135,78.66666 121.8848,206.66666 z"
       id="path1" />
  </g>
</svg>
