<?xml version="1.0" encoding="UTF-8" standalone="no"?>
<!-- Created with Inkscape (http://www.inkscape.org/) -->

<svg
   version="1.1"
   id="svg1"
   width="2133.3333"
   height="3413.3333"
   viewBox="0 0 2133.3333 3413.3333"
   sodipodi:docname="UnsetPlaceholder.svg"
   inkscape:version="1.4.2 (ebf0e940d0, 2025-05-08)"
   xmlns:inkscape="http://www.inkscape.org/namespaces/inkscape"
   xmlns:sodipodi="http://sodipodi.sourceforge.net/DTD/sodipodi-0.dtd"
   xmlns="http://www.w3.org/2000/svg"
   xmlns:svg="http://www.w3.org/2000/svg">
  <defs
     id="defs1" />
  <sodipodi:namedview
     id="namedview1"
     pagecolor="#505050"
     bordercolor="#eeeeee"
     borderopacity="1"
     inkscape:showpageshadow="0"
     inkscape:pageopacity="0"
     inkscape:pagecheckerboard="0"
     inkscape:deskcolor="#505050"
     inkscape:zoom="0.23203126"
     inkscape:cx="1064.5118"
     inkscape:cy="1706.6666"
     inkscape:window-width="1920"
     inkscape:window-height="995"
     inkscape:window-x="0"
     inkscape:window-y="0"
     inkscape:window-maximized="1"
     inkscape:current-layer="g1" />
  <g
     inkscape:groupmode="layer"
     inkscape:label="Image"
     id="g1">
    <path
       style="fill:#ff0000;stroke:none"
       d="m 441.33332,1130.6666 1.33333,37.3334 4,-1.3334 c -16.55872,42.6926 -32.86698,84.5425 -43.13167,129.3334 -26.9576,117.6318 -23.53495,241.4391 10.36417,357.3333 13.53239,46.2645 32.35995,90.549 54.44548,133.3333 6.5708,12.729 13.88468,25.0555 21.25512,37.3334 3.31417,5.5208 9.33126,12.0752 9.87041,18.6666 0.85445,10.4468 -3.35722,21.7158 -4.7181,32 -3.60507,27.243 -1.79908,68.8387 -17.71298,92 -7.44535,10.8361 -18.35595,18.3229 -30.37243,23.3807 -5.64181,2.3747 -14.84924,3.1745 -19.01029,7.966 -5.46171,6.2892 -4.92281,24.571 -4.98971,32.6533 35.01986,-5.1722 71.86157,-23.9212 105.33333,-35.5412 10.0365,-3.4842 31.85396,-6.2604 38.68213,-14.7242 5.07654,-6.2927 4.6921,-23.1389 5.31787,-31.0679 -11.05005,0.9648 -23.39193,9.0516 -34.64608,5.3179 -8.1818,-2.7144 -8.20349,-10.3199 -7.38476,-17.3703 1.75057,-15.0746 4.83479,-30.1262 6.03084,-45.2809 27.09037,29.4324 51.51013,60.7887 81.33333,87.7736 77.60498,70.2189 169.63215,125.4975 269.33332,158.0001 310.00787,101.0622 666.06577,-7.4586 853.29927,-279.1071 44.3864,-64.3981 77.5527,-135.6614 99.4681,-210.6666 33.6865,-115.2915 36.4787,-242.0896 7.3724,-358.6667 -8.4782,-33.9572 -18.8234,-67.596 -32.1543,-100 -5.796,-14.0889 -20.2296,-34.3304 -21.0976,-49.3333 -0.6994,-12.0899 10.0099,-28.6553 13.9855,-40 10.8925,-31.0834 17.5921,-62.0226 20.6863,-94.6667 1.4951,-15.77261 0.5127,-36.0384 -9.5309,-49.20881 -12.8747,-16.88281 -40.8603,-12.58219 -54.109,1.44141 -11.3736,12.03873 -13.7932,27.92203 -12.5865,43.7674 53.5357,-0.2954 25.8129,69.5544 21.3334,100 -9.3566,-8.6382 -15.1853,-22.5527 -21.9003,-33.3333 -10.0359,-16.1123 -21.5371,-31.6078 -33.0802,-46.6667 -39.8579,-51.99787 -87.2756,-98.72818 -139.6862,-138.03287 -243.9478,-182.94595 -586.79416,-198.76871 -846.66663,-39.5524 -79.434,48.66683 -147.98677,111.3706 -204.17284,185.58527 -14.54207,19.2082 -28.48425,39.1452 -40.59465,60 -5.91133,10.1797 -11.97831,27.5663 -21.08642,35.0298 -5.84424,4.7889 -17.53113,5.3633 -24.81274,6.3035 M 1481.3333,893.33331 v 1.33334 l -44,9.33333 -17.2964,5.90641 -2.7036,26.09359 c 9.7796,-0.42106 22.6245,-6.00423 31.9464,-1.09457 8.8433,4.65772 9.3443,16.32748 9.3859,25.09457 0.1039,21.81233 -3.8579,43.54642 -3.998,65.33332 -0.4085,63.5361 -10.4626,127.0635 -12.0205,190.6667 -0.6136,25.0529 -5.8926,54.5849 7.9259,77.3281 22.4022,36.8706 77.1615,14.0965 101.4074,-7.9279 6.4258,-5.8371 23.3154,-19.6947 22.5348,-29.4002 -0.3912,-4.864 -8.3605,-13.3565 -13.5214,-10.7305 -14.2759,7.2635 -36.2676,29.6317 -43.6029,0.064 -8.166,-32.9165 0.542,-75.9839 3.716,-109.3333 6.4661,-67.9405 11.9643,-137.15367 14.893,-205.33336 19.1296,9.76595 37.8588,27.92806 53.3334,42.71908 5.9067,5.64583 13.7415,11.24284 17.3333,18.61426 l -37.3333,8 -2.6667,28.00002 c 10.9028,-0.4683 22.269,-3.4735 31.3807,4.7438 13.5138,12.1873 17.8047,36.2194 24.3529,52.5895 16.6456,41.6128 32.8956,83.4391 48.8323,125.3333 6.2015,16.3023 22.3285,41.2437 21.785,58.6667 -0.2306,7.3949 -6.5089,15.29 -10.284,21.3333 -9.2897,14.8716 -18.5254,29.3068 -29.9712,42.6667 -17.2578,20.1439 -41.6619,38.8621 -67.429,46.4743 -9.8807,2.9189 -20.3081,6.3491 -30.6667,6.8066 -5.0631,0.2237 -13.8844,-1.7189 -17.8673,2.1903 -5.3469,5.248 -4.7409,21.4604 -4.7994,28.5288 73.1857,0 133.1171,-37.5161 172.1853,-98.6667 20.9085,-32.7264 33.7154,-69.3654 53.1481,-102.6666 l 13.3333,34.6666 21.5998,81.3334 6.1111,44 -15.7109,44 h -1.3333 l 4,-48 -50.6667,12 -2.6667,18.6666 c 25.2471,-1.9764 16.2271,23.6076 13.6945,41.3334 -6.5187,45.6259 -10.5849,92.0187 -19.0278,137.3333 9.279,-4.1131 27.4049,-5.6024 33.8633,-13.7038 8.2825,-10.3896 6.3691,-37.3074 8.4752,-50.2962 6.3646,-39.2513 10.6163,-83.6195 30.9948,-118.6667 4.2229,6.1815 2.2123,14.1804 2.8931,21.3334 2.0033,21.0488 2.0033,42.9511 0,64 -7.1165,74.7744 -18.7534,144.3201 -46.8931,214.6666 -119.3219,298.2943 -449.1071,459.0643 -758.6666,403.2324 -90.95427,-16.4043 -183.15885,-52.323 -258.66666,-106.0874 -17.17171,-12.2268 -34.34554,-24.3385 -50.66667,-37.7107 -4.98226,-4.0821 -14.85306,-9.8269 -15.82308,-16.7676 -1.0205,-7.3021 6.45887,-18.5879 9.07512,-25.3333 8.65454,-22.314 18.01261,-44.3539 26.66675,-66.6667 22.70328,-58.5358 46.81323,-116.6343 70.76228,-174.6667 11.87533,-28.7759 27.43693,-58.0967 35.9856,-88 h 1.33333 c -0.40975,49.5052 -13.90975,101.6555 -20.97225,150.6667 -5.6792,39.4118 -5.94971,84.7445 -17.98763,122.6667 -3.8151,12.0182 -13.76107,23.1593 -25.04012,28.68 -6.48877,3.1759 -17.05412,4.9801 -21.88167,10.5442 -4.94816,5.7032 -4.63615,18.8962 -4.78499,26.1091 37.31567,-8.6325 74.57283,-24.8978 110.66666,-37.7438 13.58854,-4.8363 35.00341,-7.5353 46.24796,-16.7141 6.04045,-4.9306 5.60352,-19.6792 5.75204,-26.8754 -8.94703,3.8494 -32.16244,12.8435 -37.47534,-0.073 -2.82162,-6.8599 0.31958,-15.6071 1.30151,-22.5936 2.24552,-15.9761 4.71077,-31.9815 6.63371,-48 5.399,-44.9746 12.44832,-89.8006 18.69962,-134.6667 3.29834,-23.672 3.89893,-50.5916 11.31991,-73.3333 4.08813,-12.5282 12.80224,-21.5697 24.85392,-26.8322 5.79891,-2.5322 15.06315,-3.0422 19.19645,-8.2059 4.21191,-5.262 3.59831,-15.8268 4.80355,-22.2952 l -93.33333,21.8323 -37.0494,9.8189 -12.28288,23.0154 -22.66772,53.3334 -82.66666,201.3333 h -1.33334 C 676.48663,1781.0127 672.56931,1741.2612 664.65325,1704 c -8.74784,-41.1763 -22.56311,-84.7518 -25.98661,-126.6667 -35.48372,12.036 -74.25496,17.2266 -110.66666,26.1676 -11.01965,2.7059 -33.97567,3.2954 -41.98148,11.7388 -5.40027,5.6955 -5.0774,18.6532 -6.01852,26.0936 11.90141,-2.3081 34.43022,-11.0509 45.02881,-1.9815 7.2065,6.1669 4.24837,19.2668 2.70886,27.3148 -4.72485,24.6994 -5.84741,50.2093 -11.73767,74.6667 h -1.33333 C 500.68541,1700.2734 480.19973,1662.5818 469.50206,1620 c -2.50851,-9.9852 -12.14051,-31.107 -8.57719,-41.0298 1.63232,-4.5456 8.40743,-5.1327 12.40845,-6.1348 12.02864,-3.0127 23.97363,-6.3258 35.99999,-9.3333 48.92957,-12.2359 99.3905,-31.4432 149.33333,-38.1688 l 1.33333,-32 c -15.61283,4.3978 -49.09549,17.4818 -63.54219,5.5278 -6.59664,-5.4585 -5.79065,-15.1795 -5.79114,-22.8611 -0.001,-19.0788 0.96387,-38.2668 1.87964,-57.3334 0.7889,-16.4251 1.35002,-32.9176 2.06787,-49.3333 0.2546,-5.8218 -1.82784,-14.6696 4.25,-18.0936 7.17981,-4.0449 36.20724,-12.4652 42.11113,-5.4826 7.48531,8.8529 12.38903,21.4792 18.06994,31.5762 10.55729,18.7642 21.85026,37.1436 32.23047,56 10.68351,19.4074 22.49552,39.1196 43.39095,48.9022 27.04077,12.6596 57.52596,5.2759 85.33333,0.083 7.86076,-1.4678 24.15527,-2.4527 29.88069,-8.4043 5.46664,-5.6826 3.79712,-22.8674 2.11931,-29.9147 -20.29378,6.055 -36.59383,-2.9014 -49.65332,-18.286 -19.98608,-23.5446 -34.67773,-52.8454 -50.91252,-79.0474 L 732.25616,1316 c -1.97746,-3.1936 -6.11996,-7.7814 -5.55974,-11.8231 0.55608,-4.0119 6.28842,-5.9081 9.30355,-7.6626 9.26107,-5.3893 18.17131,-11.1582 26.66667,-17.6974 21.79435,-16.7761 38.23242,-38.9647 46.08121,-65.4836 4.57674,-15.4635 4.54191,-32.1755 2.27987,-48 -1.61499,-11.2982 -4.13517,-22.9479 -9.01335,-33.3333 -15.81038,-33.6597 -51.98819,-47.9864 -87.34773,-48 -56.54891,-0.022 -109.77404,19.4923 -165.33333,26.6666 4.55477,-17.7034 22.21423,-34.7185 32.7675,-49.3333 35.55538,-49.2391 81.52465,-92.19677 129.89916,-128.63264 219.3107,-165.1857 534.35413,-183.18277 769.33333,-39.36735 M 1232,974.66664 c 9.6671,-0.78955 22.7101,-7.132 31.9948,-2.42789 8.936,4.52734 10.8845,14.69157 11.572,23.76123 1.7174,22.65512 -3.458,46.52322 -3.5679,69.33332 -0.2957,61.3232 -6.5912,124.0947 -10.7849,185.3333 -1.836,26.8096 -7.7048,67.305 8.9701,90.6667 24.9275,34.9237 81.5912,12.5436 107.1492,-9.7191 6.7147,-5.8489 24.654,-21.6398 23.8486,-31.6142 -0.4907,-6.0778 -9.8965,-14.3469 -15.8486,-11.1174 -14.7339,7.9942 -36.8436,30.4632 -45.1204,0.4507 -3.5748,-12.9631 -1.888,-26.8153 -1.5658,-40 0.675,-27.6237 3.3482,-55.1366 5.2335,-82.6667 5.6294,-82.2021 9.6364,-164.5288 16.1193,-246.66662 l -93.3333,18.13379 -31.963,7.98453 -2.7036,28.54834 m -152,363.99996 c 0,17.0293 -1.5324,36.5967 7.1316,51.9948 21.7119,38.5873 83.821,6.5998 107.535,-12.8157 6.4684,-5.2959 22.9682,-17.0293 24.11,-25.8457 0.798,-6.161 -8.5353,-14.232 -12.11,-18.6667 h -1.3333 c -4.6623,4.2938 -9.4671,8.6427 -14.6667,12.286 -2.8812,2.0189 -5.9963,3.7602 -9.3333,4.9033 -30.1688,10.3337 -27.2578,-38.0247 -26.821,-54.9033 1.7787,-68.725 10.7754,-137.5918 10.821,-206.286 -9.6114,0.765 -22.2188,2.32 -30.6667,7.1914 -8.1625,4.7069 -15.8187,14.9582 -25.3333,16.8045 -5.4871,1.0648 -11.8577,-1.8278 -17.3333,-2.4404 -14.7436,-1.6494 -30.5249,-2.9458 -45.3334,-1.1748 -69.2057,8.2769 -118.89271,55.6278 -145.50412,118.286 -20.86678,49.1321 -26.47273,107.0755 -12.30753,158.6666 9.86279,35.9214 37.66178,64.3288 76.47835,62.6143 11.15527,-0.4927 22.94824,-4.0947 33.33333,-8.0331 27.14047,-10.2924 47.79537,-31.1492 60.14817,-57.2478 6.2556,-13.2167 9.7949,-36.079 21.1852,-45.3334 M 595.99998,1316 c 0,-27.9154 -0.21973,-57.6437 3.04732,-85.3334 2.51473,-21.3133 3.07418,-43.8808 3.59981,-65.3333 0.18644,-7.6084 -2.59171,-20.7995 1.77674,-27.4269 3.70479,-5.6206 16.20817,-5.7666 22.24279,-6.9733 22.56258,-4.5119 49.49699,-8.4027 66.02881,11.7531 29.19678,35.597 27.46899,106.0276 -4.92285,138.4197 -21.5575,21.5576 -61.73775,33.5845 -91.77262,34.8941 M 1718.6666,1133.3333 c 6.4124,14.8812 36.5851,50.2264 14.6667,62.6667 l -10.6996,-42.6667 -3.9671,-20 m -673.3333,12.4002 c 9.402,-1.3548 29.4281,-1.7716 33.8621,9.0731 5.7413,14.0418 -1.1588,38.3314 -1.8096,53.1934 -2.1996,50.234 -4.6847,99.3683 -27.7233,145.3333 -8.1829,16.3258 -21.6472,38.6589 -41.6625,41.0874 -32.26639,3.9152 -39.70463,-45.4445 -39.99491,-69.0874 -0.56095,-45.6895 2.07576,-91.4992 22.99284,-133.3333 10.91927,-21.8386 28.85547,-42.5949 54.33537,-46.2665 m -543.99999,56.9331 c 0,86.2452 -7.9945,172.4701 -8,258.6667 -0.002,31.4461 2.55453,76.488 -38.66666,82.6667 -6.56844,-27.2735 -6.66667,-57.4242 -6.66667,-85.3334 0,-60.1964 6.44214,-122.2285 24.45475,-180 6.91024,-22.163 12.41089,-59.0268 28.87858,-76 m 1195.99999,336 c -3.3431,4.0349 -5.3247,8.8804 -8.0876,13.3334 -9.592,15.4594 -38.4744,45.2477 -52.5019,17.3333 -4.1708,-8.2995 -9.0938,-31.6271 -2.606,-39.5957 6.6969,-8.2256 27.1116,-11.7026 36.5288,-18.2017 24.9813,-17.2402 42.3355,-45.3787 45.5545,-75.5359 1.2168,-11.4001 1.0619,-25.0191 -6.6069,-34.4198 -19.3747,-23.7505 -58.314,5.9951 -72.3478,21.1388 -30.8491,33.2888 -45.2665,84.695 -45.2665,129.281 0,18.7011 2.7551,42.5602 18.7871,54.9485 37.9253,29.3057 100.6263,-26.6899 86.5463,-68.2819 m -62.6667,-32 c 0.4689,-22.7361 7.3104,-50.8172 18.5011,-70.6666 3.9504,-7.0069 12.5967,-20.5537 22.5328,-14.6288 7.5683,4.513 5.7944,17.9199 5.6132,25.2954 -0.6956,28.326 -20.6357,51.1431 -46.6471,60 m -162.6667,0 h -1.3333 l 6.6667,-54.6666 -65.3334,16 -2.6666,21.3333 c 5.6341,-0.242 13.4192,-3.0671 18.2952,0.8045 6.0174,4.7779 4.2621,13.9953 3.4136,20.5288 -2.2546,17.3602 -4.7992,34.663 -7.216,52 -7.681,55.0982 -15.6159,110.1779 -22.8683,165.3334 -2.9557,22.4788 -7.9849,45.3475 -8.9579,68 l 56,-20.7686 19.5762,-9.2305 3.0905,-20.6676 c -6.0104,2.0335 -16.4217,8.6455 -22.4691,4.4753 -6.0254,-4.155 -4.5631,-14.198 -4.0823,-20.4805 1.4494,-18.9388 3.4918,-40.2193 7.8847,-58.6615 31.0801,7.4829 59.2084,-14.3984 75.966,-38.6666 24.3312,-35.2362 36.7398,-78.9292 40.1483,-121.3334 1.5353,-19.0993 1.8787,-39.1953 -5.5731,-57.3333 -9.6663,-23.528 -34.4331,-23.7601 -53.0874,-10.3919 -20.4256,14.6375 -28.768,41.3323 -37.4538,63.7252 m 39.9948,-36.6626 c 17.5824,-2.1004 14.6719,35.9304 14.6719,45.996 0,33.4567 -7.3114,71.2841 -22.3457,101.3333 -6.3314,12.6545 -16.5247,28.4289 -32.321,28.9814 -22.1103,0.7735 -12.1155,-28.6746 -10.0966,-42.3147 5.2601,-35.5386 8.9736,-71.0241 24.3714,-104 4.8236,-10.3303 12.5975,-28.4283 25.72,-29.996 M 1269.3333,1562.6666 1276,1504 l -53.3334,13.5021 -21.4156,7.2498 -3.9177,21.9147 c 6.5275,-0.879 15.0801,-4.8187 21.0288,-0.3436 6.5759,4.947 5.0453,14.6612 4.4043,21.677 -1.7116,18.7316 -5.3296,37.3655 -7.926,56 -6.9318,49.7503 -13.0419,99.6993 -20.7396,149.3333 -5.2338,33.7469 -13.3968,69.889 -14.1008,104 l 64,-24.252 24.0822,-10.9394 L 1272,1820 c -6.9939,1.6572 -18.4146,9.2294 -25.4867,5.964 -7.4503,-3.4401 -6.8626,-13.7878 -6.394,-20.6307 1.4441,-21.0884 4.3116,-44.7979 9.214,-65.3333 29.6885,8.7758 62.5764,-13.1317 80.7479,-34.6667 37.816,-44.8158 60.414,-117.3721 52.0145,-176 -1.8386,-12.8328 -4.996,-27.5749 -14.3427,-37.1934 -16.8818,-17.3728 -45.5647,-6.9241 -61.0339,6.927 -19.6223,17.5698 -21.0426,45.4383 -37.3858,63.5997 m 46.6666,-39.4547 c 21.2272,-4.1153 18.7244,39.2754 18.6657,51.4547 -0.1696,35.1639 -8.73,77.1019 -25.9177,108 -7.4901,13.4649 -17.7189,27.8742 -34.0813,30.2655 -29.6698,4.3363 -16.5779,-28.575 -14.4599,-46.2655 4.5139,-37.7013 9.7018,-76.2466 26.7902,-110.6666 6.0033,-12.0922 14.1197,-29.9027 29.003,-32.7881 M 1076,1741.3333 h 1.3333 c 0,15.5928 -6.9074,40.6675 6.9517,52.5752 21.4242,18.4077 59.8953,-11.203 74.3291,-25.9281 4.5436,-4.6352 12.7607,-11.914 13.75,-18.6471 0.6577,-4.4756 -3.5224,-13.6642 -9.1522,-11.9919 -10.0812,2.9947 -24.8788,25.1613 -31.1338,2.6586 -0.7183,-2.5842 -1.1165,-5.3275 -1.2911,-8 -1.1957,-18.3023 3.5239,-37.9408 6.1841,-56 6.6901,-45.4151 18.6491,-94.1276 19.0289,-140 -7.114,0.581 -15.2244,2.0219 -21.3334,5.8981 -5.9963,3.8047 -11.595,11.4088 -18.6666,13.0854 -7.2426,1.7171 -17.7607,-2.4927 -25.3334,-2.8559 -14.9014,-0.7147 -30.0655,2.3855 -44,7.466 -63.1576,23.0268 -97.86065,99.8824 -108.10698,161.7397 -5.35922,32.3537 -9.07976,78.0026 14.01139,104.9002 14.21403,16.5571 35.71289,14.4888 54.09559,7.0988 39.7384,-15.9751 54.3019,-55.3605 69.3334,-91.999 m -4,-159.5998 c 30.8112,-4.3917 17.6399,32.1392 15.0277,50.2665 -6.1387,42.6007 -11.6518,85.3243 -32.0689,124 -6.8644,13.0027 -18.3535,33.8969 -34.9588,35.144 -24.74068,1.8579 -20.00101,-45.7204 -20.00004,-60.4774 0.003,-37.7337 10.63924,-77.1766 27.67484,-110.6666 8.9961,-17.6853 23.5272,-35.302 44.3252,-38.2665 M 571.99998,1646.6666 607.2654,1820 l 14.06791,73.3333 c -22.15051,-15.7337 -39.6759,-44.6784 -55.2325,-66.6667 -5.84375,-8.2597 -15.85299,-19.0522 -17.45679,-29.3333 -1.28145,-8.2149 2.04122,-18.479 3.18209,-26.6667 2.79281,-20.0429 5.83968,-40.0008 8.94137,-60 2.94038,-18.9591 1.21398,-47.3839 11.2325,-64 z"
       id="path1" />
  </g>
</svg>
